<?xml version="1.0" encoding="UTF-8" standalone="no"?>
<!-- Created with Inkscape (http://www.inkscape.org/) -->

<svg
   width="14.095384mm"
   height="14.044912mm"
   viewBox="0 0 14.095384 14.044912"
   version="1.1"
   id="svg1"
   xml:space="preserve"
   xmlns:inkscape="http://www.inkscape.org/namespaces/inkscape"
   xmlns:sodipodi="http://sodipodi.sourceforge.net/DTD/sodipodi-0.dtd"
   xmlns="http://www.w3.org/2000/svg"
   xmlns:svg="http://www.w3.org/2000/svg"><sodipodi:namedview
     id="namedview1"
     pagecolor="#ffffff"
     bordercolor="#000000"
     borderopacity="0.25"
     inkscape:showpageshadow="2"
     inkscape:pageopacity="0.0"
     inkscape:pagecheckerboard="0"
     inkscape:deskcolor="#d1d1d1"
     inkscape:document-units="mm"
     showguides="true"><sodipodi:guide
       position="78.844062,279.94242"
       orientation="0,-1"
       id="guide23"
       inkscape:locked="false" /><sodipodi:guide
       position="77.840685,296.99987"
       orientation="0,-1"
       id="guide24"
       inkscape:locked="false" /></sodipodi:namedview><defs
     id="defs1" /><g
     inkscape:label="Layer 1"
     inkscape:groupmode="layer"
     id="layer1"
     transform="translate(103.78518,-233.21365)"><path
       style="fill:#fe5d15;fill-opacity:1;stroke-width:0.0449758"
       d="m -94.080926,247.06303 c 0.0046,-0.10798 0.01321,-0.20142 0.01904,-0.20765 0.0058,-0.007 0.0106,-0.0635 0.0106,-0.12722 0,-0.0645 0.0053,-0.11917 0.0119,-0.12327 0.0072,-0.005 0.0119,-0.0891 0.0119,-0.21419 0,-0.12506 -0.0047,-0.20976 -0.0119,-0.2142 -0.0065,-0.004 -0.0119,-0.0334 -0.0119,-0.0655 0,-0.0319 -0.0054,-0.0614 -0.0119,-0.0655 -0.0065,-0.004 -0.0119,-0.0308 -0.0119,-0.0595 0,-0.0287 -0.0054,-0.0554 -0.0119,-0.0594 -0.0065,-0.004 -0.0119,-0.023 -0.0119,-0.042 0,-0.019 -0.01071,-0.0537 -0.0238,-0.077 -0.01309,-0.0233 -0.0238,-0.0516 -0.0238,-0.0631 0,-0.0114 -0.01117,-0.05 -0.0248,-0.0859 -0.01364,-0.0359 -0.0275,-0.076 -0.0308,-0.0891 -0.006,-0.0239 -0.04863,-0.11813 -0.112423,-0.24859 -0.01886,-0.0385 -0.03428,-0.0761 -0.03428,-0.0834 0,-0.0197 -0.08091,-0.18282 -0.09497,-0.19151 -0.0067,-0.004 -0.01212,-0.0178 -0.01212,-0.0302 0,-0.0125 -0.01071,-0.0418 -0.0238,-0.0651 -0.01309,-0.0233 -0.0238,-0.048 -0.0238,-0.055 0,-0.007 -0.01071,-0.0263 -0.0238,-0.0429 -0.01309,-0.0166 -0.0238,-0.0421 -0.0238,-0.0564 0,-0.0268 -0.05013,-0.13543 -0.06836,-0.14804 -0.0057,-0.004 -0.01922,-0.0264 -0.03021,-0.0501 -0.01099,-0.0236 -0.02811,-0.0497 -0.03805,-0.058 -0.0099,-0.008 -0.01807,-0.0215 -0.01807,-0.0296 0,-0.008 -0.0107,-0.0242 -0.0238,-0.0361 -0.01309,-0.0119 -0.0238,-0.0268 -0.0238,-0.0333 0,-0.007 -0.02008,-0.0357 -0.04462,-0.0648 -0.07295,-0.0868 -0.983247,-1.00265 -0.996554,-1.00265 -0.0066,0 -0.09779,-0.0857 -0.202357,-0.1904 -0.104559,-0.10471 -0.195606,-0.19039 -0.202308,-0.19039 -0.0066,0 -0.01746,-0.0119 -0.02396,-0.0266 -0.0066,-0.0147 -0.02454,-0.0328 -0.04018,-0.0406 -0.03804,-0.0188 -0.22739,-0.20789 -0.22739,-0.2271 0,-0.008 0.01309,-0.0151 0.02907,-0.0151 0.01597,0 0.03236,-0.005 0.0364,-0.0119 0.0041,-0.007 0.02544,-0.0119 0.04759,-0.0119 0.02215,0 0.04356,-0.005 0.04759,-0.0119 0.0041,-0.007 0.03887,-0.0119 0.07732,-0.0119 0.03854,0 0.07329,-0.005 0.07732,-0.0119 0.0041,-0.007 0.02544,-0.0119 0.04759,-0.0119 0.02215,0 0.04356,-0.005 0.04759,-0.0119 0.0041,-0.007 0.01779,-0.0119 0.03063,-0.0119 0.01276,0 0.03253,-0.005 0.04389,-0.0107 0.06637,-0.0346 0.208698,-0.0963 0.221914,-0.0963 0.0086,0 0.0471,-0.0154 0.08564,-0.0342 0.03854,-0.0189 0.09687,-0.0467 0.129597,-0.0621 0.05636,-0.0264 0.08224,-0.044 0.177083,-0.12089 0.02221,-0.018 0.0454,-0.0328 0.05156,-0.0328 0.0061,0 0.02387,-0.0135 0.0394,-0.03 0.08246,-0.0878 0.112963,-0.0784 0.273408,0.0841 0.06218,0.063 0.125193,0.11933 0.140037,0.12521 0.01485,0.006 0.03182,0.0234 0.03772,0.0389 0.0059,0.0156 0.0299,0.0395 0.05333,0.0533 0.02344,0.0138 0.0426,0.0321 0.0426,0.0406 0,0.008 0.05623,0.0716 0.124949,0.14001 0.06872,0.0685 0.124949,0.13026 0.124949,0.13728 0,0.007 0.01874,0.031 0.04165,0.0531 0.02291,0.0222 0.04165,0.0462 0.04165,0.0534 0,0.007 0.02678,0.0394 0.0595,0.0716 0.03272,0.0323 0.0595,0.0636 0.0595,0.0697 0,0.006 0.02008,0.0342 0.04462,0.0625 0.07678,0.0886 0.110073,0.1325 0.110073,0.14519 0,0.007 0.0042,0.014 0.0094,0.0162 0.0051,0.002 0.02387,0.0339 0.0416,0.0705 0.01773,0.0366 0.04297,0.0762 0.05608,0.0881 0.01312,0.0119 0.02385,0.0277 0.02385,0.0353 0,0.007 0.01642,0.0295 0.03648,0.0487 0.05426,0.052 0.182606,0.0516 0.237247,-6.5e-4 0.04498,-0.0431 0.07137,-0.0941 0.07137,-0.13794 0,-0.0183 0.0054,-0.0365 0.0119,-0.0406 0.0073,-0.005 0.0119,-0.10501 0.0119,-0.2618 0,-0.15679 -0.0045,-0.25726 -0.0119,-0.2618 -0.0065,-0.004 -0.0119,-0.0308 -0.0119,-0.0595 0,-0.0286 -0.0054,-0.0554 -0.0119,-0.0595 -0.0065,-0.004 -0.0119,-0.0205 -0.0119,-0.0366 0,-0.0161 -0.0047,-0.0385 -0.01044,-0.0498 -0.0057,-0.0114 -0.01672,-0.0421 -0.02439,-0.0683 -0.01258,-0.043 -0.02771,-0.0805 -0.08943,-0.22262 -0.01055,-0.0242 -0.02424,-0.0473 -0.03043,-0.0511 -0.0062,-0.004 -0.02034,-0.0268 -0.03143,-0.0511 -0.01108,-0.0242 -0.02816,-0.0535 -0.03793,-0.0651 -0.01941,-0.0228 -0.04233,-0.0606 -0.05978,-0.0986 -0.0061,-0.0133 -0.01976,-0.0314 -0.03026,-0.0401 -0.0105,-0.009 -0.01909,-0.0224 -0.01909,-0.0304 0,-0.008 -0.01071,-0.0242 -0.0238,-0.0361 -0.01309,-0.0119 -0.0238,-0.0277 -0.0238,-0.0352 0,-0.007 -0.01607,-0.0291 -0.0357,-0.048 -0.01963,-0.0188 -0.0357,-0.0391 -0.0357,-0.0452 0,-0.0139 -0.09478,-0.12093 -0.229071,-0.25866 -0.05727,-0.0587 -0.104125,-0.11111 -0.104125,-0.11639 0,-0.005 -0.0094,-0.0203 -0.02082,-0.0333 -0.0597,-0.0678 -0.06092,-0.0838 -0.0119,-0.15398 0.02127,-0.0305 0.04403,-0.0641 0.05058,-0.0748 0.0065,-0.0107 0.02127,-0.0282 0.03272,-0.0389 0.01145,-0.0106 0.02083,-0.0262 0.02083,-0.0344 0,-0.008 0.0096,-0.0237 0.02138,-0.0343 0.01176,-0.0106 0.0362,-0.0514 0.0543,-0.0906 0.01811,-0.0393 0.03794,-0.0807 0.04407,-0.0921 0.0061,-0.0114 0.01114,-0.0282 0.01114,-0.0376 0,-0.0199 0.04956,-0.11852 0.06247,-0.12425 0.0049,-0.002 0.0089,-0.0142 0.0089,-0.0268 0,-0.0125 0.0054,-0.0228 0.0119,-0.0228 0.0065,0 0.0119,-0.0161 0.0119,-0.0357 0,-0.0261 0.0056,-0.0357 0.02083,-0.0357 0.01145,3e-5 0.178796,0.15795 0.37187,0.35096 0.193074,0.193 0.356495,0.35096 0.363157,0.35101 0.0067,5e-5 0.06815,0.0563 0.136636,0.12504 0.06848,0.0688 0.130198,0.12496 0.137133,0.12496 0.0069,0 0.03626,0.0241 0.06517,0.0535 0.02891,0.0295 0.05819,0.0535 0.06508,0.0535 0.01635,0 0.410911,0.39506 0.410911,0.41143 0,0.007 0.01606,0.0279 0.0357,0.0467 0.01963,0.0188 0.0357,0.0404 0.0357,0.0479 0,0.007 0.0107,0.0235 0.0238,0.0353 0.01309,0.0119 0.0238,0.0264 0.0238,0.0324 0,0.006 0.01339,0.0284 0.02975,0.0498 0.01636,0.0214 0.02974,0.0442 0.02974,0.0505 0,0.007 0.0096,0.0219 0.02121,0.0346 0.01167,0.0127 0.03031,0.0424 0.04143,0.066 0.01112,0.0236 0.02835,0.0497 0.03829,0.058 0.0099,0.008 0.01807,0.0255 0.01807,0.0384 0,0.0129 0.01071,0.0371 0.0238,0.0537 0.01309,0.0166 0.0238,0.0374 0.0238,0.0461 0,0.0147 0.02465,0.0783 0.04905,0.12657 0.0057,0.0114 0.01044,0.0311 0.01044,0.0439 0,0.0128 0.0054,0.0266 0.0119,0.0306 0.0065,0.004 0.0119,0.0308 0.0119,0.0594 0,0.0286 0.0054,0.0554 0.0119,0.0595 0.0065,0.004 0.0119,0.0254 0.0119,0.0476 0,0.0222 0.0054,0.0436 0.0119,0.0476 0.0065,0.004 0.0119,0.0334 0.0119,0.0655 0,0.0319 0.0054,0.0614 0.0119,0.0655 0.0066,0.004 0.0119,0.0588 0.0119,0.12327 0,0.0676 0.0054,0.12132 0.01294,0.12885 0.0088,0.009 0.01294,0.14291 0.01294,0.42023 0,0.27731 -0.0042,0.41142 -0.01294,0.42022 -0.0071,0.007 -0.01294,0.049 -0.01294,0.0931 0,0.0441 -0.0054,0.0835 -0.0119,0.0876 -0.0065,0.004 -0.0119,0.0201 -0.0119,0.0356 0,0.0157 -0.0054,0.0316 -0.0119,0.0357 -0.0065,0.004 -0.0119,0.0308 -0.0119,0.0595 0,0.0286 -0.0054,0.0554 -0.0119,0.0595 -0.0065,0.004 -0.0119,0.0232 -0.0119,0.0425 0,0.0194 -0.0054,0.0458 -0.0119,0.0588 -0.0065,0.013 -0.01726,0.0343 -0.0238,0.0473 -0.0065,0.013 -0.0119,0.0341 -0.0119,0.0469 0,0.0128 -0.0049,0.0264 -0.01099,0.0301 -0.006,0.004 -0.01468,0.0241 -0.0192,0.0453 -0.01499,0.0703 -0.293078,0.63837 -0.317879,0.64939 -0.0049,0.002 -0.0089,0.0107 -0.0089,0.0189 0,0.008 -0.0107,0.0247 -0.0238,0.0366 -0.01309,0.0119 -0.0238,0.0281 -0.0238,0.0361 0,0.008 -0.0081,0.0212 -0.01799,0.0295 -0.0099,0.008 -0.02876,0.037 -0.04192,0.064 -0.03274,0.067 -0.05174,0.0985 -0.07502,0.12423 -0.01087,0.012 -0.01977,0.0271 -0.01977,0.0335 0,0.007 -0.01606,0.0271 -0.0357,0.0459 -0.01963,0.0189 -0.0357,0.0404 -0.0357,0.048 0,0.007 -0.01071,0.0235 -0.0238,0.0353 -0.01309,0.0119 -0.0238,0.0277 -0.0238,0.0352 0,0.007 -0.01874,0.0319 -0.04165,0.0541 -0.02291,0.0222 -0.04166,0.0445 -0.04166,0.0497 0,0.0119 -0.04192,0.0603 -0.157673,0.18212 -0.05072,0.0534 -0.09222,0.10215 -0.09222,0.10841 0,0.007 -0.04017,0.0513 -0.08925,0.10003 -0.04908,0.0487 -0.08925,0.0946 -0.08925,0.10177 0,0.0156 -0.32668,0.33854 -0.34244,0.33854 -0.006,0 -0.02055,0.0107 -0.0324,0.0238 -0.01185,0.0131 -0.02774,0.0238 -0.03532,0.0238 -0.0076,0 -0.02917,0.0161 -0.04798,0.0357 -0.01882,0.0196 -0.0403,0.0357 -0.04776,0.0357 -0.0075,0 -0.02613,0.0134 -0.04149,0.0297 -0.01537,0.0164 -0.03604,0.0297 -0.04593,0.0297 -0.0099,0 -0.03091,0.012 -0.04671,0.0268 l -0.02873,0.0268 z m -6.426034,-2.1909 c -0.10472,-0.005 -0.22788,-0.015 -0.27369,-0.0223 -0.0458,-0.007 -0.11409,-0.0161 -0.15173,-0.0197 -0.0376,-0.003 -0.0684,-0.0113 -0.0684,-0.0173 0,-0.006 -0.0184,-0.0109 -0.0409,-0.0109 -0.0226,0 -0.0443,-0.005 -0.0482,-0.0119 -0.004,-0.007 -0.0201,-0.0119 -0.0357,-0.0119 -0.0156,0 -0.0316,-0.005 -0.0356,-0.0119 -0.004,-0.007 -0.0285,-0.0119 -0.0544,-0.0119 -0.0259,0 -0.059,-0.007 -0.0737,-0.0137 -0.0557,-0.0288 -0.0684,-0.0338 -0.0856,-0.0338 -0.01,0 -0.0367,-0.0107 -0.06,-0.0238 -0.0233,-0.0131 -0.0497,-0.0238 -0.0585,-0.0238 -0.009,0 -0.0315,-0.008 -0.0502,-0.0178 -0.0187,-0.01 -0.0421,-0.0178 -0.052,-0.0179 -0.01,-5e-5 -0.0354,-0.0108 -0.0568,-0.0239 -0.0215,-0.0131 -0.046,-0.0238 -0.0546,-0.0238 -0.0178,0 -0.36647,-0.1748 -0.37613,-0.18856 -0.003,-0.005 -0.0262,-0.0183 -0.0505,-0.0295 -0.0242,-0.0113 -0.0473,-0.0257 -0.0513,-0.0322 -0.004,-0.007 -0.0301,-0.0221 -0.058,-0.0347 -0.028,-0.0128 -0.0578,-0.0315 -0.0662,-0.0416 -0.008,-0.0101 -0.0201,-0.0184 -0.0259,-0.0184 -0.006,0 -0.0372,-0.0187 -0.0698,-0.0417 -0.0326,-0.0229 -0.0636,-0.0417 -0.0691,-0.0417 -0.005,0 -0.0251,-0.0161 -0.044,-0.0357 -0.0188,-0.0196 -0.0402,-0.0357 -0.0474,-0.0357 -0.007,0 -0.0341,-0.0214 -0.0597,-0.0476 -0.0255,-0.0262 -0.0523,-0.0476 -0.0593,-0.0476 -0.007,0 -0.0305,-0.0187 -0.0521,-0.0417 -0.0216,-0.0229 -0.0447,-0.0417 -0.0514,-0.0417 -0.007,0 -0.0504,-0.0402 -0.0972,-0.0893 -0.0468,-0.0491 -0.0905,-0.0893 -0.0972,-0.0892 -0.007,2e-5 -0.0735,-0.0615 -0.14856,-0.13682 -0.075,-0.0753 -0.14337,-0.13684 -0.15183,-0.13684 -0.008,0 -0.0203,-0.013 -0.0264,-0.0289 -0.006,-0.0159 -0.0313,-0.0385 -0.0562,-0.0503 -0.0681,-0.0323 -0.29871,-0.27458 -0.33563,-0.35271 -0.01,-0.021 -0.0209,-0.0408 -0.0245,-0.0441 -0.0157,-0.0145 -0.0362,-0.0612 -0.0362,-0.0824 0,-0.0128 -0.005,-0.0266 -0.0119,-0.0306 -0.0147,-0.009 -0.0159,-0.0535 -0.002,-0.0535 0.0163,0 0.13574,0.0366 0.15888,0.0487 0.0114,0.006 0.0365,0.0108 0.0558,0.0108 0.0193,0 0.0384,0.005 0.0425,0.0119 0.004,0.007 0.0301,0.0119 0.0579,0.0119 0.0277,0 0.057,0.007 0.065,0.0147 0.033,0.033 0.475,0.0465 0.73391,0.0224 0.13064,-0.0122 0.16183,-0.0192 0.22296,-0.0503 0.0114,-0.006 0.0311,-0.0105 0.0439,-0.0105 0.0128,0 0.0266,-0.005 0.0306,-0.0119 0.004,-0.007 0.023,-0.0119 0.042,-0.0119 0.019,0 0.0537,-0.0107 0.077,-0.0238 0.0233,-0.0131 0.0501,-0.0238 0.0595,-0.0238 0.009,0 0.0347,-0.01 0.0562,-0.0216 0.0214,-0.0118 0.0708,-0.0314 0.10969,-0.0435 0.0389,-0.0121 0.0996,-0.0372 0.13509,-0.0557 0.0354,-0.0186 0.0717,-0.0339 0.0807,-0.0339 0.009,0 0.0352,-0.0107 0.0583,-0.0238 0.0231,-0.0131 0.0609,-0.0345 0.084,-0.0476 0.0231,-0.0131 0.0491,-0.0238 0.0576,-0.0238 0.009,0 0.0312,-0.007 0.0502,-0.0165 0.0189,-0.009 0.0827,-0.0396 0.14166,-0.0678 0.0589,-0.0282 0.10977,-0.0542 0.11304,-0.0578 0.003,-0.004 0.022,-0.0144 0.0417,-0.024 0.0196,-0.009 0.0464,-0.0258 0.0594,-0.0362 0.0131,-0.0104 0.0586,-0.0345 0.10114,-0.0535 0.0426,-0.019 0.0884,-0.0443 0.10192,-0.056 0.0135,-0.0117 0.03,-0.0213 0.0368,-0.0213 0.007,0 0.022,-0.0107 0.0338,-0.0238 0.0119,-0.0132 0.0278,-0.0238 0.0353,-0.0238 0.007,0 0.0292,-0.0161 0.048,-0.0357 0.0188,-0.0196 0.04,-0.0357 0.0471,-0.0357 0.007,0 0.0529,-0.0402 0.1016,-0.0892 0.0487,-0.0491 0.0929,-0.0892 0.098,-0.0892 0.0135,0 0.53269,-0.52112 0.53269,-0.53468 0,-0.007 0.016,-0.0208 0.0356,-0.0324 0.0196,-0.0115 0.03566,-0.0267 0.03566,-0.0334 0,-0.0211 0.695047,-0.70837 0.716341,-0.70837 0.01103,0 0.02355,-0.006 0.02791,-0.0129 0.0094,-0.0152 0.04109,0.0411 0.04109,0.073 0,0.0119 0.0049,0.025 0.01186,0.0292 0.0066,0.004 0.01186,0.0254 0.01186,0.0476 0,0.0222 0.0049,0.0436 0.01186,0.0476 0.0066,0.004 0.01186,0.0255 0.01186,0.0476 0,0.0222 0.0049,0.0436 0.01186,0.0476 0.0066,0.004 0.01186,0.0256 0.01186,0.048 0,0.0223 0.01071,0.0596 0.0238,0.083 0.01309,0.0233 0.0238,0.0501 0.0238,0.0594 0,0.0289 0.08719,0.22212 0.111484,0.24708 0.0082,0.008 0.02347,0.0341 0.0345,0.0577 0.01112,0.0236 0.02824,0.0497 0.03821,0.058 0.01,0.008 0.01803,0.0198 0.01803,0.0255 0,0.006 0.0177,0.036 0.0392,0.0669 0.02157,0.031 0.04825,0.0758 0.05929,0.0994 0.01103,0.0236 0.02824,0.0497 0.03812,0.058 0.01,0.008 0.01803,0.0213 0.01803,0.0291 0,0.007 0.01878,0.0323 0.04175,0.0545 l 0.04175,0.0404 -0.04175,0.0427 c -0.02297,0.0236 -0.04175,0.0479 -0.04175,0.0543 0,0.0153 -0.264682,0.27895 -0.280097,0.27895 -0.0066,0 -0.05723,0.0455 -0.112603,0.10114 -0.05533,0.0557 -0.105671,0.10116 -0.111847,0.10116 -0.0066,0 -0.03952,0.0295 -0.07411,0.0655 -0.03458,0.036 -0.06843,0.0655 -0.0751,0.0655 -0.0066,0 -0.04578,0.0348 -0.08671,0.0773 -0.04092,0.0425 -0.08012,0.0773 -0.08702,0.0773 -0.0066,0 -0.03343,0.0214 -0.05904,0.0476 -0.02553,0.0262 -0.05229,0.0476 -0.05953,0.0476 -0.0074,0 -0.03393,0.0214 -0.05945,0.0476 -0.02553,0.0262 -0.05229,0.0476 -0.05929,0.0476 -0.01655,0 -0.172788,0.15729 -0.172788,0.17398 0,0.007 -0.01071,0.0224 -0.0238,0.0343 -0.02668,0.0241 -0.0322,0.088 -0.0096,0.11067 0.0096,0.01 0.06398,0.0143 0.166604,0.0143 0.09361,0 0.152318,0.005 0.152318,0.0119 0,0.007 0.04735,0.0119 0.118293,0.0119 0.06505,0 0.121308,0.005 0.12498,0.0108 0.0097,0.0156 0.609551,0.0171 0.619176,0.002 0.0041,-0.007 0.03113,-0.0123 0.05978,-0.0123 0.02866,0 0.05542,-0.005 0.05953,-0.0119 0.0041,-0.007 0.0168,-0.0119 0.02833,-0.0119 0.02462,0 0.156789,-0.0623 0.181047,-0.0853 0.0091,-0.009 0.03277,-0.0237 0.05237,-0.0333 0.06538,-0.0319 0.505741,-0.44136 0.505741,-0.4702 0,-0.007 0.04241,-0.0549 0.09429,-0.10645 l 0.09428,-0.0937 0.04092,0.0194 c 0.02248,0.0106 0.04768,0.0276 0.05591,0.0375 0.0082,0.01 0.02166,0.0181 0.02973,0.0181 0.0082,0 0.03442,0.0134 0.05855,0.0297 0.02413,0.0164 0.05081,0.0297 0.05929,0.0297 0.0085,0 0.0252,0.0107 0.03705,0.0238 0.01186,0.0131 0.03376,0.0238 0.04875,0.0238 0.01499,0 0.03055,0.005 0.03458,0.0119 0.0041,0.007 0.02544,0.0119 0.04759,0.0119 0.02215,0 0.04356,0.005 0.0476,0.0119 0.0041,0.007 0.02816,0.0118 0.05352,0.0118 0.02536,0 0.04949,0.005 0.05352,0.0119 0.0041,0.007 0.02544,0.0119 0.04759,0.0119 0.02215,0 0.04348,0.005 0.04743,0.0116 0.0049,0.007 0.0149,0.007 0.02849,-0.002 0.01713,-0.0107 0.02742,-0.008 0.0527,0.014 l 0.03145,0.0273 -0.153339,0.1528 c -0.08434,0.084 -0.157892,0.1528 -0.16345,0.1528 -0.01408,0 -0.491751,0.47941 -0.492196,0.49395 -2.64e-4,0.007 -0.06711,0.0786 -0.148752,0.16021 -0.0816,0.0816 -0.148382,0.15266 -0.148382,0.15785 0,0.005 -0.05089,0.0606 -0.113048,0.12305 -0.06217,0.0625 -0.113057,0.11781 -0.113057,0.12295 0,0.005 -0.03343,0.04 -0.07436,0.0775 -0.04084,0.0375 -0.110587,0.10256 -0.154854,0.14461 -0.04422,0.0421 -0.08482,0.0764 -0.09015,0.0764 -0.0049,0 -0.02223,0.0134 -0.03763,0.0298 -0.0154,0.0164 -0.03417,0.0297 -0.04183,0.0297 -0.0074,0 -0.02363,0.0107 -0.03549,0.0238 -0.01186,0.0131 -0.02792,0.0238 -0.03566,0.0238 -0.0082,0 -0.02388,0.0107 -0.03565,0.0238 -0.01186,0.0132 -0.02701,0.0238 -0.0336,0.0238 -0.0066,0 -0.02174,0.009 -0.03343,0.0194 -0.02017,0.0183 -0.120789,0.0744 -0.212535,0.11844 -0.02289,0.011 -0.06225,0.03 -0.0874,0.0422 -0.02511,0.0122 -0.05311,0.0222 -0.06217,0.0222 -0.0091,0 -0.03541,0.0107 -0.05871,0.0238 -0.0233,0.0131 -0.05797,0.0238 -0.07699,0.0238 -0.01902,0 -0.03796,0.005 -0.042,0.0119 -0.0041,0.007 -0.02207,0.0119 -0.03994,0.0119 -0.01795,0 -0.03771,0.005 -0.04389,0.0107 -0.0066,0.006 -0.03541,0.0137 -0.06489,0.0175 -0.153965,0.0192 -0.221881,0.0292 -0.237995,0.0349 -0.03203,0.0115 -0.512991,0.0162 -0.708041,0.007 z m 3.427159,-2.94983 c -0.0041,-0.007 -0.03351,-0.0119 -0.06546,-0.0119 -0.03195,0 -0.06143,-0.005 -0.06546,-0.0118 -0.0041,-0.007 -0.02544,-0.0119 -0.04759,-0.0119 -0.02215,0 -0.04356,-0.005 -0.04759,-0.0119 -0.0041,-0.007 -0.02322,-0.0119 -0.04249,-0.0119 -0.01935,0 -0.04447,-0.005 -0.05583,-0.0109 -0.04175,-0.0221 -0.105531,-0.0469 -0.16597,-0.0646 -0.062,-0.0182 -0.146941,-0.0541 -0.158139,-0.0669 -0.0033,-0.004 -0.04348,-0.0251 -0.08925,-0.0476 -0.04578,-0.0224 -0.09271,-0.0486 -0.104205,-0.0581 -0.02264,-0.0189 -0.06036,-0.0418 -0.09809,-0.0594 -0.01309,-0.006 -0.03681,-0.0251 -0.05262,-0.0422 -0.01589,-0.0171 -0.03467,-0.031 -0.04183,-0.031 -0.01647,0 -0.268445,-0.25201 -0.268445,-0.2685 0,-0.007 -0.02141,-0.0332 -0.04759,-0.0587 -0.02618,-0.0255 -0.04768,-0.0518 -0.04768,-0.0583 0,-0.007 -0.014,-0.0265 -0.03129,-0.0445 -0.03426,-0.0357 -0.04455,-0.0526 -0.09861,-0.16048 -0.02009,-0.04 -0.04455,-0.0795 -0.05443,-0.0877 -0.0099,-0.008 -0.01803,-0.0223 -0.01803,-0.0313 0,-0.009 -0.0049,-0.0164 -0.01186,-0.0164 -0.0066,0 -0.01186,-0.01 -0.01186,-0.0221 0,-0.0122 -0.01548,-0.0537 -0.03442,-0.0922 -0.03887,-0.079 -0.07271,-0.18403 -0.07271,-0.22546 0,-0.0152 -0.0049,-0.031 -0.01186,-0.035 -0.0066,-0.004 -0.01186,-0.0469 -0.01186,-0.0952 0,-0.0483 -0.0049,-0.0912 -0.01186,-0.0952 -0.01589,-0.01 -0.01589,-0.34717 0,-0.357 0.0066,-0.004 0.01186,-0.0442 0.01186,-0.0892 0,-0.045 0.0049,-0.0852 0.01186,-0.0892 0.0066,-0.004 0.01194,-0.0325 0.0121,-0.0632 1.32e-4,-0.053 0.0331,-0.18232 0.05105,-0.2002 0.0041,-0.005 0.0083,-0.0205 0.0083,-0.0354 0,-0.0149 0.0049,-0.0304 0.01186,-0.0344 0.0066,-0.004 0.01186,-0.0164 0.01186,-0.0275 -4.9e-5,-0.011 0.02083,-0.063 0.04628,-0.11533 0.02553,-0.0524 0.0606,-0.12465 0.07806,-0.16064 0.05599,-0.11571 0.08674,-0.16791 0.11845,-0.201 0.01704,-0.0178 0.03096,-0.0375 0.03096,-0.044 0,-0.007 0.03261,-0.0436 0.07246,-0.0827 0.03985,-0.039 0.07724,-0.0832 0.08308,-0.098 0.0058,-0.0148 0.02281,-0.0318 0.03763,-0.0376 0.01482,-0.006 0.05624,-0.0406 0.09203,-0.0771 0.03574,-0.0366 0.0709,-0.0665 0.07798,-0.0665 0.0074,0 0.03113,-0.0187 0.05328,-0.0417 0.02223,-0.0229 0.04652,-0.0417 0.05402,-0.0417 0.0074,0 0.02339,-0.0107 0.03524,-0.0238 0.01186,-0.0131 0.02808,-0.0238 0.03607,-0.0238 0.0082,0 0.02141,-0.008 0.02989,-0.0185 0.0084,-0.0101 0.03821,-0.0288 0.0662,-0.0416 0.028,-0.0128 0.05402,-0.0282 0.05789,-0.0346 0.01071,-0.0173 0.196404,-0.10769 0.221189,-0.10769 0.01194,0 0.02503,-0.005 0.02907,-0.0119 0.0041,-0.007 0.02009,-0.0119 0.03574,-0.0119 0.01556,0 0.03162,-0.005 0.03574,-0.0118 0.0041,-0.007 0.02009,-0.0119 0.03574,-0.0119 0.01556,0 0.03162,-0.005 0.03574,-0.0119 0.0041,-0.007 0.02816,-0.0119 0.05352,-0.0119 0.02544,0 0.04949,-0.005 0.05352,-0.0119 0.0041,-0.007 0.0308,-0.0119 0.05953,-0.0119 0.02866,0 0.05542,-0.005 0.05953,-0.0119 0.0041,-0.007 0.03887,-0.0119 0.07732,-0.0119 0.03854,0 0.07328,-0.005 0.07732,-0.0119 0.0041,-0.007 0.06933,-0.0119 0.154697,-0.0119 0.08539,0 0.150432,0.005 0.154698,0.0119 0.0041,0.007 0.03887,0.0119 0.07732,0.0119 0.03854,0 0.07328,0.005 0.07732,0.0119 0.0041,0.007 0.0308,0.0119 0.05953,0.0119 0.02866,0 0.0555,0.005 0.05953,0.0119 0.0041,0.007 0.02042,0.0119 0.0364,0.0119 0.01597,0 0.02907,0.005 0.02907,0.0119 0,0.007 0.01309,0.0119 0.02907,0.0119 0.01597,0 0.03236,0.005 0.03639,0.0119 0.0041,0.007 0.02009,0.0118 0.03565,0.0118 0.01556,0 0.0317,0.005 0.03574,0.0119 0.0041,0.007 0.01688,0.0119 0.02849,0.0119 0.01161,0 0.05962,0.0187 0.106708,0.0417 0.0471,0.0229 0.08883,0.0417 0.09279,0.0417 0.0041,0 0.01589,0.01 0.02643,0.0214 0.01062,0.0118 0.04949,0.036 0.08644,0.0538 0.03697,0.0179 0.07378,0.0404 0.08177,0.0501 0.0082,0.01 0.021,0.0175 0.0289,0.0175 0.0082,0 0.02693,0.0134 0.04224,0.0297 0.0154,0.0164 0.03409,0.0297 0.0415,0.0297 0.0074,0 0.02898,0.0161 0.04775,0.0357 0.01881,0.0196 0.04025,0.0357 0.04763,0.0357 0.0246,0 0.291512,0.29093 0.291512,0.31774 0,0.006 0.01606,0.0264 0.0357,0.0452 0.01963,0.0188 0.0357,0.0396 0.0357,0.0462 0,0.007 0.01305,0.0257 0.029,0.0424 0.03409,0.0357 0.197096,0.35243 0.197096,0.38293 0,0.0115 0.0054,0.0242 0.0119,0.0282 0.0065,0.004 0.0119,0.0202 0.0119,0.0357 0,0.0156 0.0054,0.0316 0.0119,0.0357 0.0065,0.004 0.0119,0.0194 0.0119,0.0341 0,0.0147 0.0048,0.0318 0.01068,0.038 0.0058,0.007 0.01371,0.0328 0.01741,0.0589 0.0037,0.0262 0.01201,0.0851 0.01845,0.1309 0.01437,0.10195 0.01482,0.45323 7.8e-4,0.58308 -0.0193,0.17819 -0.03368,0.23468 -0.084,0.33007 -0.006,0.0114 -0.0109,0.0365 -0.0109,0.0558 0,0.0194 -0.0054,0.0385 -0.0119,0.0425 -0.0065,0.004 -0.0119,0.017 -0.0119,0.0288 0,0.0225 -0.08493,0.19505 -0.111522,0.22663 -0.0085,0.01 -0.02422,0.0376 -0.03501,0.0613 -0.0108,0.0236 -0.02776,0.0497 -0.0377,0.058 -0.0099,0.008 -0.01807,0.0215 -0.01807,0.0295 0,0.008 -0.01071,0.0242 -0.0238,0.0361 -0.01309,0.0119 -0.0238,0.0276 -0.0238,0.0351 0,0.007 -0.0241,0.0371 -0.05356,0.0661 -0.02945,0.0289 -0.05355,0.0584 -0.05355,0.0655 0,0.016 -0.0977,0.11305 -0.11382,0.11305 -0.0065,0 -0.04896,0.0375 -0.09443,0.0833 -0.04546,0.0459 -0.08856,0.0833 -0.09578,0.0833 -0.0074,0 -0.02569,0.0134 -0.04109,0.0298 -0.0154,0.0164 -0.03442,0.0297 -0.04224,0.0297 -0.0082,0 -0.02092,0.008 -0.0289,0.0176 -0.0082,0.01 -0.04479,0.0322 -0.08177,0.0501 -0.03697,0.0178 -0.06991,0.0357 -0.07312,0.0395 -0.0058,0.007 -0.02915,0.0183 -0.189661,0.094 -0.02907,0.0138 -0.06217,0.025 -0.0737,0.025 -0.01145,0 -0.02413,0.005 -0.02824,0.0118 -0.0041,0.007 -0.02281,0.0119 -0.04166,0.0119 -0.01886,0 -0.03763,0.005 -0.04167,0.0119 -0.0041,0.007 -0.02009,0.0119 -0.03565,0.0119 -0.01556,0 -0.0317,0.005 -0.03574,0.0119 -0.0041,0.007 -0.02544,0.0119 -0.04759,0.0119 -0.02215,0 -0.04356,0.005 -0.04759,0.0119 -0.0041,0.007 -0.03113,0.0119 -0.06019,0.0119 -0.02907,0 -0.05286,0.005 -0.05286,0.0119 0,0.007 -0.08901,0.0119 -0.24324,0.0119 -0.149329,0 -0.246081,-0.005 -0.250602,-0.0119 z m 0.226097,-0.85678 c 0.0041,-0.007 0.04463,-0.0119 0.09011,-0.0119 0.04554,0 0.09339,-0.005 0.106395,-0.0119 0.01301,-0.007 0.03425,-0.0173 0.04726,-0.0238 0.01301,-0.007 0.03071,-0.0119 0.03944,-0.0119 0.0086,0 0.03796,-0.0107 0.06505,-0.0238 0.02709,-0.0131 0.05583,-0.0238 0.06382,-0.0238 0.028,0 0.188046,-0.0859 0.223898,-0.12013 0.01993,-0.019 0.0401,-0.0346 0.04496,-0.0346 0.01276,0 0.181863,-0.16996 0.181863,-0.18275 0,-0.006 0.0097,-0.0195 0.02166,-0.0301 0.01194,-0.0106 0.03195,-0.038 0.04447,-0.0609 0.01252,-0.0229 0.03014,-0.0507 0.03919,-0.0618 0.02651,-0.0328 0.0732,-0.13082 0.0732,-0.15361 0,-0.0115 0.0058,-0.0244 0.01186,-0.0284 0.0066,-0.004 0.01186,-0.0254 0.01186,-0.0476 0,-0.0222 0.0058,-0.0436 0.01194,-0.0476 0.0066,-0.004 0.01186,-0.0335 0.01186,-0.0655 0,-0.0319 0.0058,-0.0614 0.01186,-0.0655 0.0066,-0.004 0.01186,-0.0549 0.01186,-0.11305 0,-0.0581 -0.0058,-0.109 -0.01186,-0.11305 -0.0066,-0.004 -0.01186,-0.0334 -0.01186,-0.0655 0,-0.032 -0.0058,-0.0614 -0.01186,-0.0655 -0.0066,-0.004 -0.01194,-0.0201 -0.01194,-0.0357 0,-0.0156 -0.0058,-0.0316 -0.01186,-0.0357 -0.0066,-0.004 -0.01186,-0.0164 -0.01186,-0.0273 0,-0.0319 -0.107993,-0.24071 -0.132457,-0.25599 -0.01227,-0.007 -0.02223,-0.0204 -0.02223,-0.0283 0,-0.0199 -0.261052,-0.27733 -0.281234,-0.27733 -0.009,0 -0.0163,-0.004 -0.0163,-0.009 0,-0.005 -0.01,-0.0143 -0.02223,-0.0208 -0.01219,-0.007 -0.04949,-0.0264 -0.0829,-0.0445 -0.03335,-0.018 -0.06645,-0.0328 -0.07353,-0.0328 -0.0074,0 -0.03508,-0.0107 -0.06217,-0.0238 -0.02709,-0.0132 -0.06398,-0.0238 -0.08201,-0.0238 -0.01803,0 -0.03607,-0.005 -0.0401,-0.0119 -0.0041,-0.007 -0.0931,-0.0119 -0.226097,-0.0119 -0.132992,0 -0.221625,0.005 -0.226097,0.0119 -0.0041,0.007 -0.02544,0.0119 -0.04759,0.0119 -0.02215,0 -0.04356,0.005 -0.04759,0.0119 -0.0041,0.007 -0.01828,0.0119 -0.03162,0.0119 -0.02857,0 -0.236143,0.10628 -0.236143,0.1209 0,0.005 -0.0066,0.01 -0.01474,0.01 -0.01828,0 -0.318486,0.29815 -0.318486,0.31631 0,0.007 -0.0107,0.0229 -0.0238,0.0348 -0.01309,0.0119 -0.0238,0.0282 -0.0238,0.0365 0,0.008 -0.0041,0.0168 -0.0089,0.019 -0.01457,0.007 -0.0625,0.10558 -0.0625,0.12933 0,0.0121 -0.0058,0.0253 -0.01186,0.0293 -0.0066,0.004 -0.01186,0.0247 -0.01186,0.046 0,0.0212 -0.0066,0.0452 -0.0149,0.0534 -0.01087,0.011 -0.0149,0.0781 -0.0149,0.25167 0,0.17357 0.0041,0.24078 0.0149,0.25169 0.0082,0.008 0.0149,0.0269 0.0149,0.0415 0,0.0147 0.0058,0.03 0.01186,0.034 0.0066,0.004 0.01186,0.017 0.01186,0.0288 0,0.0276 0.06966,0.16458 0.103316,0.20323 0.06917,0.0793 0.343048,0.35703 0.352122,0.35703 0.0058,0 0.03269,0.0148 0.06003,0.0329 0.0541,0.0358 0.114283,0.0615 0.165912,0.0709 0.01812,0.003 0.03582,0.0106 0.03936,0.0165 0.0033,0.006 0.01927,0.0105 0.03483,0.0105 0.01556,0 0.03162,0.005 0.03574,0.0119 0.0041,0.007 0.02042,0.0119 0.03639,0.0119 0.01597,0 0.02907,0.005 0.02907,0.0119 0,0.007 0.02915,0.0119 0.06472,0.0119 0.03557,0 0.0681,0.005 0.07213,0.0119 0.0041,0.007 0.01474,0.0119 0.0238,0.0119 0.0091,0 0.01976,-0.005 0.0238,-0.0119 z m -2.474087,-1.18247 c -0.03854,-0.0228 -0.137932,-0.11809 -0.137932,-0.13217 0,-0.007 -0.02141,-0.0342 -0.04759,-0.0598 -0.02618,-0.0255 -0.04759,-0.0521 -0.04759,-0.059 0,-0.0161 -0.418606,-0.43478 -0.43463,-0.43478 -0.0066,0 -0.08676,-0.0749 -0.178217,-0.1666 -0.0914,-0.0916 -0.17022,-0.1666 -0.17506,-0.1666 -0.004,0 -0.0497,-0.0402 -0.0998,-0.0892 -0.0501,-0.0491 -0.0961,-0.0893 -0.10225,-0.0893 -0.0138,0 -0.17931,-0.16815 -0.22228,-0.22585 -0.0171,-0.0231 -0.046,-0.0561 -0.064,-0.0735 -0.018,-0.0174 -0.0328,-0.0355 -0.0328,-0.0403 0,-0.005 -0.0201,-0.0319 -0.0446,-0.0603 -0.0755,-0.0872 -0.11007,-0.13244 -0.11007,-0.14434 0,-0.007 -0.0107,-0.0212 -0.0238,-0.0329 -0.0131,-0.0119 -0.0238,-0.0281 -0.0238,-0.0361 0,-0.008 -0.007,-0.021 -0.0173,-0.0288 -0.0218,-0.0181 -0.13743,-0.25137 -0.13743,-0.27727 0,-0.0106 -0.005,-0.0226 -0.0119,-0.0267 -0.007,-0.004 -0.0118,-0.0201 -0.0118,-0.0357 0,-0.0156 -0.005,-0.0316 -0.0119,-0.0357 -0.007,-0.004 -0.0119,-0.0308 -0.0119,-0.0595 0,-0.0286 -0.005,-0.0554 -0.0119,-0.0594 -0.007,-0.004 -0.0119,-0.0282 -0.0119,-0.0535 0,-0.0254 -0.005,-0.0495 -0.0119,-0.0535 -0.007,-0.004 -0.0119,-0.0308 -0.0119,-0.0595 0,-0.0287 -0.005,-0.0554 -0.0119,-0.0595 -0.007,-0.004 -0.0118,-0.0496 -0.0118,-0.10116 0,-0.0516 -0.005,-0.0971 -0.0119,-0.10115 -0.007,-0.005 -0.0119,-0.0673 -0.0119,-0.14874 0,-0.0814 -0.005,-0.14451 -0.0119,-0.14874 -0.007,-0.005 -0.0119,-0.0753 -0.0119,-0.17256 0,-0.0973 0.005,-0.16821 0.0119,-0.17254 0.007,-0.005 0.0119,-0.0795 0.0119,-0.18515 0,-0.11059 0.005,-0.17779 0.0119,-0.17779 0.007,0 0.0119,-0.0334 0.0119,-0.0767 0,-0.0422 0.005,-0.08 0.0118,-0.084 0.007,-0.004 0.0119,-0.0311 0.0119,-0.0602 0,-0.0291 0.005,-0.0529 0.0119,-0.0529 0.007,0 0.0119,-0.0184 0.0119,-0.0409 0,-0.0226 0.005,-0.0443 0.0119,-0.0483 0.007,-0.004 0.0119,-0.0254 0.0119,-0.0476 0,-0.0222 0.005,-0.0436 0.0119,-0.0476 0.007,-0.004 0.0119,-0.0194 0.0119,-0.034 0,-0.0147 0.005,-0.0318 0.01,-0.038 0.005,-0.007 0.0198,-0.0381 0.0318,-0.0708 0.012,-0.0327 0.0316,-0.0771 0.0436,-0.0985 0.012,-0.0214 0.0217,-0.0459 0.0217,-0.0542 0,-0.0223 0.0579,-0.13455 0.0779,-0.1512 0.009,-0.008 0.0173,-0.0271 0.0173,-0.0427 0,-0.0156 0.005,-0.0282 0.0113,-0.0282 0.007,0 0.0387,-0.0558 0.0721,-0.12406 0.0334,-0.0683 0.0685,-0.13046 0.0779,-0.1383 0.009,-0.008 0.0171,-0.0208 0.0171,-0.0288 0,-0.008 0.0107,-0.0242 0.0238,-0.0361 0.0131,-0.0119 0.0238,-0.0279 0.0238,-0.0357 0,-0.007 0.0107,-0.0239 0.0238,-0.0357 0.0131,-0.0119 0.0238,-0.0261 0.0238,-0.0317 0,-0.006 0.0187,-0.0369 0.0417,-0.0694 0.023,-0.0326 0.0417,-0.0635 0.0417,-0.0687 0,-0.005 0.0107,-0.017 0.0238,-0.0266 0.0131,-0.009 0.0238,-0.0219 0.0238,-0.0277 0,-0.0112 0.0358,-0.0578 0.11008,-0.14355 0.0245,-0.0283 0.0446,-0.0564 0.0446,-0.0624 0,-0.006 0.0321,-0.0427 0.0714,-0.0816 0.0393,-0.0389 0.0714,-0.0763 0.0714,-0.0832 0,-0.007 0.0455,-0.0578 0.10115,-0.11315 0.0557,-0.0553 0.10115,-0.10614 0.10115,-0.11289 0,-0.016 0.502203,-0.5178 0.518293,-0.5178 0.0066,0 0.03327,-0.0214 0.05879,-0.0476 0.02553,-0.0262 0.05262,-0.0476 0.06003,-0.0476 0.0074,0 0.02363,-0.0111 0.0359,-0.0246 0.01227,-0.0136 0.04389,-0.0346 0.07024,-0.0467 l 0.04801,-0.0221 0.0041,0.0297 c 0.0016,0.0163 -0.0016,0.036 -0.0074,0.0438 -0.0066,0.007 -0.0154,0.0503 -0.02009,0.0945 -0.0049,0.0442 -0.01326,0.0803 -0.01902,0.0803 -0.0058,0 -0.01054,0.0184 -0.01054,0.0409 0,0.0225 -0.0049,0.0443 -0.01186,0.0483 -0.0066,0.004 -0.01186,0.0549 -0.01186,0.11305 0,0.0581 -0.0049,0.10899 -0.01186,0.11304 -0.0066,0.005 -0.01186,0.0735 -0.01186,0.1673 0,0.0987 0.0041,0.15994 0.01186,0.15994 0.0066,0 0.01186,0.0334 0.01186,0.0767 0,0.0422 0.0049,0.08 0.01186,0.084 0.0066,0.004 0.01186,0.0526 0.01186,0.10797 0,0.0553 0.0049,0.11124 0.01186,0.12424 0.0066,0.013 0.01729,0.0342 0.0238,0.0473 0.0066,0.013 0.01186,0.0395 0.01186,0.0588 0,0.0193 0.0049,0.0384 0.01186,0.0425 0.0066,0.004 0.01186,0.0201 0.01186,0.0357 0,0.0156 0.0049,0.0316 0.01186,0.0357 0.0066,0.004 0.01186,0.0168 0.01186,0.0282 0,0.0115 0.01071,0.043 0.0238,0.0702 0.01309,0.0271 0.0238,0.0596 0.0238,0.0721 0,0.0126 0.0082,0.0296 0.01787,0.0378 0.0098,0.008 0.01787,0.0267 0.01787,0.0413 0,0.0146 0.0107,0.0361 0.0238,0.0479 0.01309,0.0119 0.0238,0.0338 0.0238,0.0488 0,0.015 0.0049,0.0306 0.01186,0.0346 0.0066,0.004 0.01186,0.0172 0.01186,0.0293 0,0.0121 0.01021,0.0426 0.02264,0.0677 0.04447,0.0897 0.08444,0.18348 0.08435,0.1978 -8.2e-5,0.0149 0.118787,0.25963 0.131328,0.27039 0.0041,0.003 0.01943,0.0328 0.03467,0.0655 0.01532,0.0328 0.04298,0.0922 0.06151,0.13216 0.01861,0.0399 0.04191,0.0795 0.05196,0.0877 0.01005,0.008 0.01812,0.0217 0.01812,0.0296 0,0.008 0.0107,0.0242 0.0238,0.0361 0.01309,0.0119 0.0238,0.0277 0.0238,0.0353 0,0.007 0.01606,0.0292 0.03566,0.0479 0.0196,0.0188 0.03565,0.0387 0.03565,0.0443 0,0.0132 0.285828,0.29709 0.315892,0.31373 0.01284,0.007 0.02833,0.0239 0.0345,0.0375 0.0066,0.0135 0.02602,0.0334 0.04422,0.0441 0.01812,0.0107 0.04175,0.0343 0.05245,0.0524 0.0107,0.0181 0.03055,0.038 0.04405,0.0442 0.0135,0.007 0.03038,0.0217 0.03747,0.0345 0.01622,0.0293 0.03146,0.0446 0.06093,0.0611 0.01284,0.007 0.0303,0.0272 0.03878,0.0446 0.0086,0.0174 0.02199,0.0316 0.02989,0.0316 0.0082,0 0.126684,0.11246 0.264015,0.2499 0.137323,0.13744 0.254991,0.24989 0.261488,0.24989 0.01688,0 0.256152,0.24067 0.256152,0.25762 0,0.007 0.0066,0.0165 0.0149,0.0196 0.0107,0.004 0.0099,0.007 -0.0033,0.0112 -0.08426,0.0267 -0.10894,0.0327 -0.163887,0.0398 -0.0345,0.005 -0.06563,0.0128 -0.06909,0.0184 -0.0033,0.006 -0.01663,0.0104 -0.02915,0.0104 -0.01252,0 -0.04183,0.0107 -0.06513,0.0238 -0.0233,0.0131 -0.04973,0.0238 -0.05871,0.0238 -0.009,0 -0.03697,0.0102 -0.06209,0.0227 -0.0252,0.0125 -0.08592,0.0423 -0.135001,0.0662 -0.143688,0.0699 -0.237204,0.12085 -0.260137,0.1416 -0.01178,0.0106 -0.02684,0.0194 -0.03343,0.0194 -0.0066,0 -0.02182,0.0107 -0.03368,0.0238 -0.01186,0.0131 -0.0266,0.0238 -0.03285,0.0238 -0.01046,0 -0.05138,0.0297 -0.11066,0.0802 -0.06727,0.0574 -0.09309,0.0517 -0.135067,-0.0296 -0.0074,-0.0147 -0.02067,-0.0268 -0.02898,-0.0268 -0.01746,0 -0.07913,-0.061 -0.07913,-0.0782 0,-0.007 -0.04554,-0.0568 -0.10115,-0.11213 -0.05566,-0.0553 -0.101142,-0.10633 -0.101142,-0.11331 0,-0.007 -0.02174,-0.0332 -0.04817,-0.0584 -0.02652,-0.0251 -0.06266,-0.065 -0.08028,-0.0887 -0.0177,-0.0237 -0.04685,-0.0572 -0.06489,-0.0746 -0.01803,-0.0174 -0.03277,-0.0355 -0.03277,-0.0403 0,-0.008 -0.01581,-0.0277 -0.131164,-0.16149 -0.02602,-0.0301 -0.04735,-0.0597 -0.04735,-0.0657 0,-0.006 -0.04554,-0.0561 -0.101141,-0.11145 -0.05566,-0.0553 -0.10115,-0.1063 -0.10115,-0.11323 0,-0.007 -0.02676,-0.039 -0.05945,-0.0712 -0.03277,-0.0322 -0.05945,-0.0646 -0.05945,-0.0719 0,-0.0256 -0.05509,-0.065 -0.09091,-0.065 -0.03516,0 -0.08759,0.0406 -0.08759,0.0678 0,0.007 -0.0074,0.0191 -0.01729,0.027 -0.02034,0.0168 -0.0779,0.12903 -0.0779,0.15173 0,0.009 -0.0049,0.025 -0.01136,0.0363 -0.01482,0.027 -0.03705,0.14469 -0.04438,0.23486 -0.0033,0.0393 -0.0107,0.0765 -0.01672,0.0827 -0.0149,0.0155 -0.014,0.26503 0.0016,0.2743 0.0066,0.004 0.01186,0.0288 0.01186,0.055 0,0.0464 0.02627,0.15016 0.0485,0.19177 0.0058,0.0114 0.01103,0.0276 0.01103,0.0361 0,0.0485 0.216816,0.43307 0.273254,0.48472 0.0107,0.01 0.02874,0.0377 0.04002,0.0619 0.01128,0.0242 0.02544,0.0472 0.03145,0.0509 0.01383,0.009 0.08362,0.11143 0.08362,0.12332 0,0.005 0.02141,0.0298 0.04759,0.0554 0.02619,0.0255 0.04759,0.0524 0.04759,0.0596 0,0.007 0.01655,0.0289 0.03689,0.0482 0.06085,0.0576 0.112917,0.18252 0.08369,0.20058 -0.0058,0.003 -0.01375,0.0279 -0.01795,0.0541 -0.0041,0.0263 -0.01828,0.0667 -0.03129,0.0899 -0.01301,0.0232 -0.02363,0.0498 -0.02363,0.0593 0,0.009 -0.01071,0.0362 -0.0238,0.0595 -0.01309,0.0233 -0.0238,0.0502 -0.0238,0.0594 0,0.009 -0.01071,0.0362 -0.0238,0.0595 -0.01309,0.0233 -0.0238,0.0553 -0.0238,0.0711 0,0.0158 -0.0049,0.0319 -0.01186,0.0361 -0.0066,0.004 -0.01186,0.0232 -0.01186,0.0425 0,0.0194 -0.0041,0.0445 -0.01062,0.0558 -0.02157,0.0421 -0.04883,0.15514 -0.04883,0.20247 0,0.0557 -0.0083,0.065 -0.0406,0.0459 z m 5.112874,-0.0397 c -0.0082,-0.0176 -0.01488,-0.0413 -0.01488,-0.0528 0,-0.0114 -0.0054,-0.024 -0.0119,-0.0281 -0.0065,-0.004 -0.0119,-0.0282 -0.0119,-0.0535 0,-0.0255 -0.0054,-0.0495 -0.0119,-0.0535 -0.0065,-0.004 -0.0119,-0.0415 -0.0119,-0.0833 0,-0.0418 -0.0054,-0.0792 -0.0119,-0.0833 -0.0065,-0.004 -0.0119,-0.0282 -0.0119,-0.0535 0,-0.0255 -0.0054,-0.0495 -0.0119,-0.0535 -0.0065,-0.004 -0.0119,-0.0202 -0.0119,-0.0357 0,-0.0156 -0.0054,-0.0316 -0.0119,-0.0357 -0.0065,-0.004 -0.0119,-0.0202 -0.0119,-0.0357 0,-0.0156 -0.0054,-0.0316 -0.0119,-0.0356 -0.0065,-0.004 -0.0119,-0.0166 -0.0119,-0.0279 0,-0.0113 -0.0107,-0.0416 -0.0238,-0.0673 -0.01309,-0.0257 -0.0238,-0.0529 -0.0238,-0.0606 0,-0.007 -0.008,-0.0205 -0.01784,-0.0286 -0.0098,-0.008 -0.01785,-0.0269 -0.01785,-0.0417 0,-0.0147 -0.0081,-0.0335 -0.018,-0.0418 -0.0099,-0.008 -0.03417,-0.0488 -0.05394,-0.0902 -0.01977,-0.0414 -0.04097,-0.0784 -0.04714,-0.0823 -0.0062,-0.004 -0.0205,-0.0268 -0.03188,-0.0511 -0.01137,-0.0242 -0.049,-0.0735 -0.08362,-0.10949 -0.06382,-0.0663 -0.0739,-0.0834 -0.04925,-0.0834 0.0075,0 0.07073,-0.0562 0.140475,-0.12495 0.06974,-0.0688 0.131955,-0.12495 0.138258,-0.12495 0.0063,0 0.0675,-0.0562 0.135983,-0.12495 0.06848,-0.0688 0.130079,-0.12495 0.136871,-0.12495 0.0068,0 0.06301,-0.0509 0.124925,-0.11305 0.06191,-0.0622 0.118291,-0.11304 0.125274,-0.11304 0.007,0 0.03361,-0.0214 0.05917,-0.0476 0.02557,-0.0262 0.05138,-0.0477 0.05737,-0.0477 0.006,0 0.02824,-0.0146 0.04944,-0.0327 0.06286,-0.0534 0.08219,-0.0675 0.116484,-0.0853 0.0179,-0.009 0.03256,-0.0213 0.03256,-0.0268 0,-0.005 0.0072,-0.01 0.01601,-0.01 0.0088,0 0.0257,-0.0107 0.03755,-0.0238 0.01185,-0.0132 0.02752,-0.0238 0.03483,-0.0238 0.01933,0 0.205394,-0.19196 0.213865,-0.22064 0.01681,-0.0569 -0.146445,-0.16016 -0.253204,-0.16016 -0.01966,0 -0.03905,-0.005 -0.04309,-0.0119 -0.004,-0.007 -0.04153,-0.0119 -0.0833,-0.0119 -0.04177,0 -0.07925,-0.005 -0.0833,-0.0119 -0.004,-0.007 -0.05491,-0.0119 -0.113049,-0.0119 -0.05813,0 -0.109003,-0.005 -0.113048,-0.0118 -0.004,-0.007 -0.03617,-0.0119 -0.0714,-0.0119 -0.03523,0 -0.06736,0.005 -0.0714,0.0119 -0.004,0.007 -0.04421,0.0118 -0.08925,0.0118 -0.04504,0 -0.0852,0.005 -0.08925,0.0119 -0.004,0.007 -0.02297,0.0119 -0.04206,0.0119 -0.0191,0 -0.05225,0.0106 -0.07367,0.0238 -0.02143,0.0131 -0.04649,0.0238 -0.0557,0.0238 -0.02437,5e-5 -0.257962,0.11658 -0.275088,0.13722 -0.008,0.01 -0.02108,0.0175 -0.02908,0.0175 -0.008,0 -0.02424,0.0107 -0.03609,0.0238 -0.01185,0.0131 -0.02642,0.0238 -0.03239,0.0238 -0.01249,0 -0.09653,0.061 -0.102476,0.0744 -0.0022,0.005 -0.01055,0.009 -0.0186,0.009 -0.0081,0 -0.03003,0.0161 -0.04884,0.0357 -0.01882,0.0196 -0.04023,0.0357 -0.0476,0.0357 -0.0074,0 -0.02879,0.0161 -0.0476,0.0357 -0.01881,0.0196 -0.04012,0.0357 -0.04735,0.0357 -0.0072,0 -0.0368,0.0241 -0.0657,0.0535 -0.02891,0.0295 -0.05836,0.0535 -0.06545,0.0535 -0.0071,0 -0.03654,0.0241 -0.06545,0.0535 -0.02891,0.0295 -0.05847,0.0535 -0.0657,0.0535 -0.0072,0 -0.02854,0.0161 -0.04735,0.0357 -0.03416,0.0357 -0.09373,0.0485 -0.119593,0.0258 -0.0063,-0.005 -0.03608,-0.019 -0.06637,-0.0301 -0.0303,-0.0111 -0.13976,-0.0629 -0.243273,-0.11502 -0.103521,-0.0521 -0.192155,-0.0948 -0.19698,-0.0948 -0.0049,0 -0.04397,-0.0163 -0.08694,-0.0362 -0.08433,-0.039 -0.103291,-0.0736 -0.05138,-0.0938 0.01474,-0.006 0.04249,-0.027 0.06176,-0.0473 0.01919,-0.0203 0.04084,-0.0369 0.04809,-0.0369 0.0074,0 0.03944,-0.0268 0.07172,-0.0594 0.0322,-0.0328 0.06423,-0.0595 0.07106,-0.0595 0.01606,0 0.35134,-0.33546 0.35134,-0.35149 0,-0.007 0.04016,-0.052 0.08924,-0.10071 0.04908,-0.0487 0.08925,-0.0943 0.08925,-0.10116 0,-0.007 0.03749,-0.0497 0.0833,-0.0952 0.04581,-0.0455 0.0833,-0.0882 0.0833,-0.095 0,-0.0162 0.430853,-0.44645 0.44711,-0.44645 0.0069,0 0.02792,-0.0161 0.04674,-0.0357 0.01881,-0.0196 0.04023,-0.0357 0.0476,-0.0357 0.0074,0 0.02879,-0.0161 0.0476,-0.0357 0.01882,-0.0196 0.03912,-0.0357 0.04513,-0.0357 0.006,0 0.02777,-0.0134 0.04834,-0.03 0.02058,-0.0165 0.04277,-0.034 0.04932,-0.039 0.0065,-0.005 0.03175,-0.0184 0.05602,-0.0299 0.02427,-0.0114 0.04703,-0.0254 0.05059,-0.0312 0.01099,-0.0178 0.222656,-0.11549 0.297991,-0.13755 0.03927,-0.0115 0.0807,-0.0256 0.09206,-0.0313 0.01136,-0.006 0.03113,-0.0104 0.04392,-0.0104 0.01279,0 0.02656,-0.005 0.03061,-0.0119 0.004,-0.007 0.03082,-0.0119 0.0595,-0.0119 0.02868,0 0.05546,-0.005 0.0595,-0.0119 0.004,-0.007 0.02814,-0.0119 0.05356,-0.0119 0.02541,0 0.0495,-0.005 0.05356,-0.0119 0.004,-0.007 0.03617,-0.0119 0.0714,-0.0119 0.03523,0 0.06736,-0.005 0.0714,-0.0119 0.004,-0.007 0.04421,-0.0119 0.08925,-0.0119 0.04504,0 0.08521,-0.005 0.08925,-0.0119 0.01001,-0.0162 0.656383,-0.0162 0.666392,0 0.004,0.007 0.04185,0.0119 0.084,0.0119 0.04316,0 0.07664,0.005 0.07664,0.0119 0,0.007 0.03348,0.0119 0.07664,0.0119 0.04215,0 0.07995,0.005 0.084,0.0119 0.004,0.007 0.03113,0.0119 0.0602,0.0119 0.02907,0 0.05285,0.005 0.05285,0.0119 0,0.007 0.01843,0.0119 0.04094,0.0119 0.02252,0 0.04426,0.005 0.0483,0.0119 0.004,0.007 0.02011,0.0119 0.0357,0.0119 0.01559,0 0.03165,0.005 0.0357,0.0118 0.004,0.007 0.0298,0.0121 0.05723,0.0123 0.02744,2.6e-4 0.06027,0.008 0.07297,0.0179 0.0127,0.01 0.03514,0.0175 0.04988,0.0175 0.01472,0 0.03009,0.005 0.03412,0.0118 0.004,0.007 0.02011,0.0119 0.0357,0.0119 0.01559,0 0.03165,0.005 0.0357,0.0119 0.004,0.007 0.01641,0.0119 0.02748,0.0121 0.02138,1.3e-4 0.528636,0.2508 0.560576,0.27698 0.01037,0.008 0.0349,0.0232 0.05454,0.0328 0.01963,0.01 0.03838,0.02 0.04165,0.0233 0.01949,0.0198 0.09546,0.0697 0.131526,0.0864 0.02325,0.0108 0.05242,0.0308 0.06482,0.0445 0.0124,0.0137 0.04157,0.0337 0.06482,0.0444 0.0399,0.0184 0.06293,0.0347 0.159861,0.11326 0.02221,0.018 0.0452,0.0328 0.05109,0.0328 0.0059,0 0.03708,0.0268 0.06932,0.0595 0.03224,0.0327 0.06416,0.0595 0.07096,0.0595 0.0068,10e-6 0.07748,0.0616 0.157086,0.13684 0.07961,0.0753 0.149017,0.13683 0.154247,0.13683 0.01435,0 0.111558,0.0983 0.111558,0.11282 0,0.007 0.04552,0.058 0.101149,0.11328 0.05563,0.0553 0.101148,0.10632 0.101148,0.11328 0,0.007 0.0241,0.0363 0.05356,0.0652 0.02945,0.0289 0.05355,0.059 0.05355,0.0669 0,0.008 0.01607,0.0278 0.0357,0.0444 0.01963,0.0165 0.0357,0.0359 0.0357,0.0431 0,0.007 0.01874,0.0318 0.04165,0.0548 0.02291,0.023 0.04165,0.0469 0.04165,0.0532 0,0.007 0.0109,0.0224 0.02423,0.0357 0.02814,0.0282 0.0208,0.053 -0.01066,0.0361 -0.01137,-0.006 -0.05402,-0.0148 -0.09474,-0.0194 -0.04073,-0.005 -0.07693,-0.013 -0.08044,-0.0187 -0.0035,-0.006 -0.04623,-0.0103 -0.09493,-0.0103 -0.05109,0 -0.08855,-0.005 -0.08855,-0.0119 0,-0.007 -0.106865,-0.0119 -0.296795,-0.0119 -0.185026,0 -0.299563,0.005 -0.304148,0.0119 -0.004,0.007 -0.0335,0.0119 -0.06545,0.0119 -0.03196,0 -0.06097,0.005 -0.06448,0.0103 -0.0035,0.006 -0.04926,0.0141 -0.101643,0.0187 -0.05239,0.005 -0.09834,0.0133 -0.102112,0.0194 -0.0038,0.006 -0.02229,0.0111 -0.04116,0.0111 -0.01886,0 -0.03761,0.005 -0.04165,0.0119 -0.004,0.007 -0.02546,0.0119 -0.0476,0.0119 -0.02213,0 -0.04356,0.005 -0.0476,0.0119 -0.004,0.007 -0.02578,0.0119 -0.0483,0.0119 -0.02252,0 -0.04094,0.005 -0.04094,0.0119 0,0.007 -0.01606,0.0119 -0.0357,0.0119 -0.01963,0 -0.0357,0.005 -0.0357,0.0119 0,0.007 -0.01606,0.0119 -0.0357,0.0119 -0.01963,0 -0.03569,0.004 -0.03569,0.009 0,0.005 -0.01741,0.0159 -0.03868,0.0244 -0.02127,0.008 -0.0708,0.0313 -0.110072,0.0507 -0.03927,0.0194 -0.07719,0.0352 -0.08426,0.0352 -0.01835,-2.6e-4 -0.658218,0.32013 -0.701128,0.35104 -0.01963,0.0142 -0.05504,0.0345 -0.07869,0.0453 -0.02364,0.0108 -0.04973,0.0277 -0.05799,0.0376 -0.0083,0.01 -0.01991,0.018 -0.02592,0.018 -0.03191,0 -0.366955,0.30957 -0.366955,0.33905 0,0.007 -0.131196,0.14329 -0.291547,0.30355 -0.160351,0.16024 -0.291546,0.29687 -0.291546,0.30362 0,0.017 -0.192455,0.20692 -0.227156,0.22422 -0.01552,0.007 -0.03459,0.0268 -0.04237,0.0424 -0.0175,0.0351 -0.302495,0.32219 -0.319834,0.32219 -0.0069,0 -0.03622,0.0241 -0.06513,0.0535 -0.06106,0.0622 -0.07206,0.0647 -0.09222,0.0213 z"
       id="path21"
       inkscape:export-filename=".\assassin.svg"
       inkscape:export-xdpi="80"
       inkscape:export-ydpi="80" /></g></svg>
