<?xml version="1.0" encoding="UTF-8" standalone="no"?>
<!-- Created with Inkscape (http://www.inkscape.org/) -->

<svg
   width="14.071896mm"
   height="14.046769mm"
   viewBox="0 0 14.071896 14.046769"
   version="1.1"
   id="svg1"
   xml:space="preserve"
   sodipodi:docname="audio.svg"
   inkscape:version="1.3.2 (091e20e, 2023-11-25, custom)"
   xmlns:inkscape="http://www.inkscape.org/namespaces/inkscape"
   xmlns:sodipodi="http://sodipodi.sourceforge.net/DTD/sodipodi-0.dtd"
   xmlns="http://www.w3.org/2000/svg"
   xmlns:svg="http://www.w3.org/2000/svg"><sodipodi:namedview
     id="namedview1"
     pagecolor="#ffffff"
     bordercolor="#000000"
     borderopacity="0.25"
     inkscape:showpageshadow="2"
     inkscape:pageopacity="0.0"
     inkscape:pagecheckerboard="0"
     inkscape:deskcolor="#d1d1d1"
     inkscape:document-units="mm"
     showguides="true"
     inkscape:zoom="5.12"
     inkscape:cx="0"
     inkscape:cy="18.75"
     inkscape:window-width="1366"
     inkscape:window-height="714"
     inkscape:window-x="-8"
     inkscape:window-y="-8"
     inkscape:window-maximized="1"
     inkscape:current-layer="layer1"><sodipodi:guide
       position="63.8944,279.94168"
       orientation="0,-1"
       id="guide23"
       inkscape:locked="false" /><sodipodi:guide
       position="62.891023,296.99913"
       orientation="0,-1"
       id="guide24"
       inkscape:locked="false" /></sodipodi:namedview><defs
     id="defs1"><clipPath
       clipPathUnits="userSpaceOnUse"
       id="clipPath2"><rect
         style="fill:#ffffff;stroke-width:0.264583"
         id="rect2"
         width="29.388397"
         height="29.579494"
         x="-253.82288"
         y="441.345"
         ry="0" /></clipPath></defs><g
     inkscape:label="Layer 1"
     inkscape:groupmode="layer"
     id="layer1"
     transform="translate(88.83552,-233.2129)"><path
       style="fill:#000000"
       d="m -207.67948,587.5371 c -2.31225,-0.8242 -3.7288,-3.01087 -3.55017,-5.4803 0.0962,-1.32946 0.24057,-1.69215 0.96036,-2.41194 0.75013,-0.75013 1.0158,-0.84718 2.31901,-0.84718 1.32798,0 1.54727,0.0844 2.24387,0.86407 1.65489,1.85215 0.59263,4.72452 -1.66752,4.50898 -1.21398,-0.11577 -1.25858,0.0953 -0.1821,0.86186 2.3657,1.68453 5.16576,0.32531 6.06076,-2.94204 0.66283,-2.41978 0.65184,-2.56253 -0.21184,-2.75223 -1.17368,-0.25778 -3.15941,-1.76982 -4.14522,-3.15639 -1.17548,-1.65334 -1.55972,-3.18371 -1.40493,-5.59568 0.21939,-3.41859 2.58031,-7.4155 6.17613,-10.45589 1.71167,-1.44726 3.85629,-2.63164 4.76527,-2.63164 1.29797,0 1.33911,0.50193 0.44221,5.39529 -0.45892,2.50385 -0.89752,4.72522 -0.97466,4.93639 -0.0875,0.23954 0.24737,0.65769 0.89037,1.11178 2.13528,1.50793 3.02831,5.00872 1.90721,7.47652 -0.62792,1.38221 -2.12198,2.67421 -3.53706,3.05872 -0.62088,0.1687 -1.26101,0.34253 -1.42252,0.38628 -0.16151,0.0438 -0.37531,0.69505 -0.4751,1.44735 -0.67345,5.0767 -4.10457,7.68375 -8.19407,6.22605 z m -1.20076,-7.17949 c 0.19374,-0.23344 0.6548,-0.55235 1.02458,-0.70869 l 0.67233,-0.28425 -0.6106,-0.10547 c -0.72336,-0.12494 -1.90294,0.5768 -1.90294,1.13208 0,0.51273 0.37602,0.49723 0.81663,-0.0337 z m 11.19355,-3.15171 c 0.46495,-0.22063 1.04849,-0.74502 1.29676,-1.1653 0.82096,-1.38977 0.45444,-3.79289 -0.72818,-4.77438 -0.23139,-0.19203 -0.46651,-0.30243 -0.52248,-0.24531 -0.0888,0.0906 -1.20836,6.05876 -1.20836,6.44143 0,0.22975 0.25738,0.17296 1.16226,-0.25644 z m -1.95897,-3.50302 0.67986,-3.50416 h -0.60303 c -0.33167,0 -0.85158,0.24854 -1.15535,0.55231 -0.45268,0.45269 -0.5362,0.81069 -0.46302,1.98474 0.0829,1.32931 0.0471,1.43239 -0.49671,1.43206 -0.3223,-2e-4 -0.70926,-0.23066 -0.8599,-0.51213 -0.47151,-0.88103 -0.32427,-2.91613 0.28194,-3.897 0.60163,-0.97346 2.21383,-1.94123 3.23388,-1.94123 0.58843,0 0.66948,-0.17245 1.08809,-2.31511 0.24876,-1.2733 0.51727,-2.61276 0.5967,-2.97656 0.11001,-0.50388 -0.49692,-0.0312 -2.54779,1.98438 -4.28708,4.21324 -5.45185,6.364 -4.78588,8.83721 0.46208,1.71606 2.8933,4.1258 3.96516,3.93015 0.27275,-0.0498 0.5859,-1.09984 1.06605,-3.57466 z m -46.2546,12.59687 c -1.35017,-0.66832 -2.41364,-2.14142 -2.61164,-3.61758 -0.31056,-2.31539 1.37933,-5.02842 3.74642,-6.0147 1.30794,-0.54497 3.8269,-0.5645 4.88258,-0.0379 l 0.79859,0.39839 0.0755,-9.64219 c 0.0644,-8.22659 0.13376,-9.679 0.47237,-9.89288 0.82027,-0.51813 1.31713,-0.24233 2.27449,1.26256 0.53232,0.83674 2.42404,3.0183 4.20384,4.8479 2.59974,2.67248 3.4299,3.71889 4.22223,5.32206 1.68709,3.41359 1.57536,7.2636 -0.30385,10.47023 -0.83418,1.42343 -1.5641,1.86571 -2.13571,1.2941 -0.36829,-0.36829 -0.33663,-0.56867 0.32157,-2.03534 0.64645,-1.44047 0.71859,-1.874 0.62978,-3.78451 -0.15608,-3.35744 -1.38927,-5.25595 -5.06418,-7.79642 l -1.97097,-1.36253 -0.19208,8.13085 c -0.20937,8.86302 -0.27662,9.2693 -1.80009,10.87523 -1.94351,2.04868 -5.21972,2.73557 -7.54884,1.58269 z m 1.21225,-6.30855 c 0.47294,-0.28836 0.85989,-0.63594 0.85989,-0.77241 0,-0.13646 0.36635,-0.61446 0.81411,-1.06222 l 0.8141,-0.8141 h -1.01667 c -1.82636,0 -3.86726,1.62892 -3.43905,2.74483 0.22077,0.57532 0.92264,0.54104 1.96762,-0.0961 z m 71.10309,5.17685 -0.65778,-0.65778 v -9.42213 c 0,-6.24338 0.0965,-9.60234 0.28588,-9.9563 0.15723,-0.29379 0.70714,-0.71018 1.22201,-0.92531 0.93498,-0.39066 0.93598,-0.3929 0.81648,-1.83383 -0.13393,-1.61505 0.26918,-2.29302 1.06495,-1.79106 0.32165,0.20289 0.43618,0.68008 0.44084,1.83674 l 0.006,1.56263 9.87935,0.13229 9.87935,0.13229 0.50555,0.62463 c 0.47661,0.58888 0.50554,1.16636 0.50554,10.091 0,8.92502 -0.0289,9.5021 -0.5056,10.091 l -0.5056,0.62462 -11.13975,0.0745 -11.13974,0.0745 z m 19.66222,-1.5285 c 0.53243,-0.53242 0.3942,-1.53458 -0.21167,-1.53458 -0.29264,0 -0.52916,0.17639 -0.52916,0.39463 0,0.21705 -0.23813,0.54335 -0.52917,0.7251 -0.29104,0.18176 -0.52917,0.4209 -0.52917,0.53141 0,0.32435 1.45236,0.23025 1.79917,-0.11656 z m 2.63621,-8.47498 0.0697,-8.6531 -0.59892,-0.33919 c -0.46955,-0.26592 -2.74202,-0.31061 -10.52079,-0.20689 l -9.92188,0.13229 -0.0714,5.62239 c -0.0393,3.09232 0.0322,5.6224 0.15882,5.6224 0.26797,0 0.57405,-3.81917 0.57405,-7.16276 0,-1.27543 0.0609,-2.47753 0.13539,-2.67133 0.13085,-0.34056 1.90904,-0.36379 17.65784,-0.2307 l 1.25677,0.0106 0.004,7.73906 c 0.002,4.25649 0.0769,8.01272 0.1665,8.34719 0.10011,0.37376 0.32815,0.57633 0.5917,0.52562 0.38322,-0.0737 0.43623,-1.00245 0.49856,-8.7356 z m -8.99094,8.11699 c 1.7799,-0.74351 3.17509,-2.49676 3.61729,-4.54562 0.44334,-2.05417 -1.16931,-4.83177 -3.48036,-5.99453 -1.12813,-0.56759 -3.39088,-0.53263 -4.72426,0.073 -1.46954,0.66749 -2.91522,2.42611 -3.29468,4.00786 -0.60481,2.52113 0.90735,5.35476 3.44174,6.44948 1.20776,0.52169 3.2043,0.52609 4.44027,0.01 z m -3.37672,-3.10394 c -2.24657,-1.1367 -1.34863,-4.68723 1.18541,-4.68723 1.19187,0 2.51354,1.17875 2.51354,2.24174 0,1.09602 -0.69847,2.17119 -1.61894,2.49207 -1.05637,0.36825 -1.26959,0.36348 -2.08001,-0.0466 z m -4.48574,-9.45904 c 0.95433,-0.51075 0.3678,-2.00928 -0.70393,-1.79848 -0.81191,0.15969 -1.0693,0.91865 -0.5181,1.52771 0.57241,0.63251 0.55381,0.62839 1.22203,0.27077 z m 13.32227,-0.0743 c 0.94289,-0.68946 -0.11394,-2.22911 -1.10268,-1.60644 -0.63106,0.39741 -0.70846,1.00997 -0.19276,1.52567 0.51954,0.51954 0.68156,0.52964 1.29544,0.0808 z m 20.10358,14.78983 c -0.45116,-0.19792 -0.89765,-0.56142 -0.99219,-0.80779 -0.0945,-0.24636 -0.17189,-4.54585 -0.17189,-9.55442 v -9.10648 h 13.89063 13.89062 v 0.79375 0.79375 h -1.94555 -1.94555 l -0.17112,2.02429 c -0.0941,1.11336 -0.17111,3.31602 -0.17111,4.89479 v 2.8705 h -0.79375 -0.79375 v 3.30729 3.30729 h 2.91042 2.91041 v 0.76507 c 0,0.573 -0.14945,0.80235 -0.59531,0.9136 -0.32742,0.0817 -6.13172,0.15071 -12.89844,0.15338 -9.8034,0.004 -12.46979,-0.0683 -13.12342,-0.35502 z m 5.71509,-4.75125 v -3.27422 l -0.79375,-0.15875 -0.79375,-0.15875 v -4.78174 -4.78173 l -1.65365,0.0788 -1.65364,0.0788 -0.0742,7.54062 c -0.0408,4.14735 -0.009,7.80852 0.0712,8.13594 0.13733,0.56238 0.27682,0.59531 2.52158,0.59531 h 2.37621 z m 6.87917,-0.0147 c 0,-3.20926 -0.0144,-3.29093 -0.59532,-3.37343 -0.70891,-0.10069 -0.65364,0.3166 -0.69453,-5.24393 l -0.0331,-4.49791 h -1.5875 -1.5875 v 4.86539 c 0,4.47132 -0.0375,4.86242 -0.46302,4.82864 -0.41516,-0.0329 -0.47067,0.31193 -0.53707,3.33669 l -0.074,3.37344 h 2.78603 2.78603 z m 6.87916,-0.0184 c 0,-2.76343 -0.0653,-3.30729 -0.39687,-3.30729 -0.33848,0 -0.39688,-0.72026 -0.39688,-4.89479 v -4.89479 h -1.71979 -1.71979 v 4.89479 4.89479 h -0.66146 -0.66146 v 3.30729 3.30729 h 2.77813 2.77812 z m -76.77268,4.25713 -0.70497,-0.62094 0.63883,-0.29107 c 0.35135,-0.16009 0.63882,-0.47221 0.63882,-0.69361 0,-0.55326 0.11184,-0.51398 0.97184,0.34134 l 0.74795,0.74389 -0.7033,0.57902 c -0.38682,0.31847 -0.74401,0.57527 -0.79375,0.57067 -0.0497,-0.005 -0.40768,-0.28778 -0.79542,-0.6293 z m -39.81221,-0.81578 c -0.0916,-0.23881 -0.0397,-0.56108 0.11531,-0.71614 0.40312,-0.40312 1.16692,-0.0347 1.06162,0.5121 -0.11729,0.60904 -0.96511,0.75603 -1.17693,0.20404 z m 3.71193,0.0202 c -0.18067,-0.47083 0.0351,-1.21476 0.3506,-1.20858 0.1137,0.002 0.38533,0.1179 0.60361,0.25705 0.30125,0.19204 0.32857,0.36259 0.11339,0.70781 -0.39384,0.63184 -0.87639,0.742 -1.0676,0.24372 z m 34.92142,-5.03642 c -0.30729,-0.80079 0.20087,-0.93871 3.45864,-0.93871 2.52846,0 3.29488,0.0821 3.40329,0.36463 0.29234,0.76182 -0.44246,0.95829 -3.58411,0.95829 -2.49261,0 -3.16042,-0.0783 -3.27782,-0.38421 z m -21.09082,-0.0568 c -0.49885,-0.49885 -0.11575,-0.88194 0.88195,-0.88194 0.88194,0 1.05833,0.0882 1.05833,0.52917 0,0.42333 -0.17639,0.52916 -0.88194,0.52916 -0.48507,0 -0.96132,-0.0794 -1.05834,-0.17639 z m -37.30094,-3.62673 c -0.19328,-0.50369 0.47983,-1.06673 1.02511,-0.85749 0.23089,0.0886 0.38002,0.36981 0.3314,0.62492 -0.11087,0.58168 -1.15392,0.76051 -1.35651,0.23257 z m 35.87523,-0.72704 c -0.16325,-0.16325 -0.23386,-0.4609 -0.1569,-0.66145 0.10792,-0.28125 0.85303,-0.36464 3.25831,-0.36464 2.40527,0 3.15038,0.0834 3.2583,0.36464 0.28549,0.74395 -0.44325,0.95828 -3.2583,0.95828 -1.72004,0 -2.91937,-0.11479 -3.10141,-0.29683 z m 24.10403,-0.0874 c -0.30589,-0.79715 0.20125,-0.93871 3.36296,-0.93871 2.6604,0 3.19372,0.0678 3.33023,0.42358 0.27244,0.70995 -0.44791,0.89106 -3.56089,0.89529 -2.36809,0.003 -3.01533,-0.0753 -3.1323,-0.38016 z m -56.37172,-3.56136 c -0.43741,-1.0353 -0.73099,-1.35407 -1.50487,-1.6339 -0.99356,-0.35928 -1.28077,-0.77053 -0.53812,-0.77053 0.60742,0 2.2225,-1.69987 2.2225,-2.33918 0,-0.297 0.11907,-0.61359 0.26459,-0.70353 0.14552,-0.0899 0.26503,0.0519 0.26557,0.31511 0.002,0.88021 0.99688,2.14232 1.96505,2.49241 1.0278,0.37166 1.2487,0.76436 0.42996,0.76436 -0.76285,0 -1.84256,1.05601 -2.22488,2.17606 l -0.33638,0.98544 z m 32.28619,-0.95857 c -0.29917,-0.77961 0.31291,-0.93575 3.36979,-0.85962 2.81895,0.0702 3.02041,0.11051 3.02041,0.60438 0,0.49497 -0.20125,0.53399 -3.11392,0.60376 -2.65449,0.0636 -3.13787,0.0122 -3.27628,-0.34852 z m 23.81231,-4.9e-4 c -0.3024,-0.78805 0.31517,-0.93396 3.63399,-0.85856 3.08429,0.0701 3.28556,0.10706 3.28556,0.60381 0,0.49768 -0.20108,0.53358 -3.37869,0.60326 -2.8951,0.0635 -3.4019,0.0136 -3.54086,-0.34851 z m 2.15613,-4.88786 c -0.0929,-0.29263 -0.54738,-0.72855 -1.01001,-0.96869 -0.58367,-0.30297 -0.71966,-0.47437 -0.44427,-0.55994 0.59544,-0.18502 1.5875,-1.1582 1.5875,-1.55729 0,-0.59207 0.37353,-0.38842 0.86214,0.47002 0.2559,0.44959 0.70844,0.88103 1.00565,0.95875 0.49122,0.12846 0.46438,0.18754 -0.29507,0.64939 -0.45951,0.27944 -0.89617,0.74022 -0.97037,1.02395 -0.17444,0.66708 -0.52113,0.65945 -0.73557,-0.0162 z m -52.39372,-0.009 c -0.18003,-0.2913 0.0656,-0.78219 0.39133,-0.78219 0.12136,0 0.28541,0.16874 0.36455,0.37497 0.16384,0.42697 -0.51698,0.79376 -0.75588,0.40722 z m 31.09569,-1.17115 c 0,-0.21392 -0.3604,-0.6554 -0.80087,-0.98106 l -0.80087,-0.59211 0.66521,-0.34854 c 0.36587,-0.1917 0.741,-0.65046 0.83361,-1.01948 l 0.1684,-0.67093 0.4981,0.81906 c 0.27395,0.45048 0.7101,0.90424 0.96921,1.00835 0.41162,0.16538 0.34456,0.31462 -0.53083,1.18148 -0.608,0.60207 -1.00196,0.83925 -1.00196,0.60323 z m 75.29858,0.0582 c 0.50815,-0.89321 1.04866,-1.25677 1.86846,-1.25677 0.88235,0 0.88504,-0.004 0.88504,-1.28684 0,-1.62401 0.83627,-2.57799 2.47077,-2.81857 0.60561,-0.0891 4.95079,-0.12462 9.65596,-0.0788 l 8.55485,0.0832 0.77171,0.86407 c 0.60937,0.6823 0.77171,1.11366 0.77171,2.05052 0,1.12077 0.0407,1.18646 0.73488,1.18646 0.86336,0 1.91095,0.66092 1.91095,1.20562 0,0.32793 -1.96434,0.38188 -13.90624,0.38188 -11.04895,0 -13.86758,-0.068 -13.71809,-0.33073 z m 23.48756,-1.65595 c 0.0842,-0.21954 0.0499,-0.67092 -0.0764,-1.00306 -0.50107,-1.31793 -0.59497,-1.33262 -8.96705,-1.40315 -4.31977,-0.0364 -8.2865,0.0449 -8.81494,0.18073 -0.69909,0.17965 -1.04964,0.46135 -1.28691,1.03415 -0.67866,1.63843 -0.96453,1.59051 9.48715,1.59051 8.22912,0 9.52556,-0.0536 9.65817,-0.39918 z m -132.8405,-0.0244 -0.58456,-0.63224 0.65071,-0.65071 0.65071,-0.65071 0.64943,0.64943 0.64943,0.64943 -0.66146,0.66146 c -0.3638,0.3638 -0.68581,0.64889 -0.71558,0.63352 -0.0298,-0.0154 -0.31717,-0.31245 -0.63868,-0.66018 z m 17.81262,0.28359 c -0.53388,-0.53388 -0.26006,-1.18297 0.49903,-1.18297 0.75909,0 1.0329,0.64909 0.49902,1.18297 -0.22249,0.22249 -0.44705,0.40453 -0.49902,0.40453 -0.052,0 -0.27653,-0.18204 -0.49903,-0.40453 z m -23.71035,-0.27633 c 0,-0.24639 0.18002,-0.38136 0.4411,-0.33073 0.66378,0.12873 0.75492,0.74701 0.11012,0.74701 -0.325,0 -0.55122,-0.17084 -0.55122,-0.41628 z m 81.42471,-1.39871 c -0.12256,-0.46867 0.0466,-0.53551 1.75158,-0.692 1.03799,-0.0953 4.86382,-0.47217 8.50184,-0.83755 8.00321,-0.8038 10.22547,-0.6649 9.73679,0.60856 -0.0749,0.1951 -0.32236,0.35473 -0.55,0.35473 -0.22763,0 -0.60184,0.16325 -0.83158,0.36279 -0.32699,0.28399 -2.3785,0.40183 -9.44534,0.54252 -8.8227,0.17565 -9.03071,0.16795 -9.16329,-0.33905 z m -63.16846,-12.24521 c 3.53648,-2.69063 4.73782,-8.01133 2.78619,-12.33996 -0.88333,-1.9592 -2.96638,-4.03175 -5.25317,-5.22671 l -1.50051,-0.78408 -6.3e-4,-3.90261 c -3.4e-4,-2.14643 0.0998,-3.9026 0.22254,-3.9026 0.12274,0 0.86688,0.21956 1.65364,0.48791 2.06069,0.70287 3.07245,0.92667 2.7534,0.60905 -0.36644,-0.36481 -5.09514,-2.41988 -5.56812,-2.41988 -0.32378,0 -0.385,0.81993 -0.385,5.15605 v 5.15605 l 1.87307,0.94326 c 3.55921,1.79239 5.39643,4.24267 5.71157,7.61742 0.37735,4.0409 -2.07894,7.66085 -5.60027,8.25339 l -1.05833,0.17809 1.38285,-0.70812 c 1.49883,-0.7675 2.4185,-1.71284 3.32157,-3.41428 0.81783,-1.54084 0.82292,-4.86654 0.01,-6.38082 -2.52348,-4.69931 -8.48895,-5.50237 -11.91989,-1.60461 -2.11494,2.40269 -2.48026,5.57822 -0.96253,8.36678 0.80949,1.48731 2.49925,2.95049 3.96664,3.43477 0.7468,0.24647 0.86067,0.37269 0.60938,0.67548 -0.16998,0.20481 -0.56236,0.37397 -0.87196,0.37591 -0.94261,0.006 -8.74219,-1.64313 -9.09573,-1.92309 -0.25545,-0.20229 -0.33073,-2.86722 -0.33073,-11.70815 v -11.44625 l 1.38906,-0.55369 c 0.76399,-0.30453 3.63938,-1.32249 6.38977,-2.26212 l 5.0007,-1.70842 5.05346,1.98979 c 2.77941,1.09438 5.32136,2.16078 5.64878,2.36977 l 0.59531,0.37999 v 11.47497 c 0,10.68187 -0.032,11.48772 -0.46302,11.65945 -0.3831,0.15264 -2.19608,0.72504 -6.01927,1.90043 -0.29104,0.0895 0.007,-0.24495 0.66146,-0.74317 z m -9.50016,-18.09901 c 2.60779,-1.34854 2.3527,-5.29166 -0.41059,-6.34697 -1.76917,-0.67566 -3.37558,0.031 -4.34368,1.91065 -0.73044,1.41824 0.0327,3.53769 1.57075,4.36257 1.10252,0.59129 2.13639,0.61524 3.18352,0.0738 z m -2.27379,-1.49611 c -0.73646,-0.41461 -0.91732,-0.74635 -0.922,-1.69119 -0.008,-1.54343 1.80253,-2.26932 2.90637,-1.16548 1.33143,1.33143 -0.36238,3.76982 -1.98437,2.85667 z m 13.24119,-0.0665 c 1.16457,-1.16457 0.64913,-3.45563 -0.92403,-4.10726 -0.68468,-0.2836 -0.9053,-0.26736 -1.4795,0.10887 -1.40669,0.9217 -1.3741,2.98245 0.0651,4.11452 0.89662,0.70527 1.54946,0.67285 2.33845,-0.11613 z m -1.81087,-1.10531 c -0.26763,-0.26763 -0.22834,-1.36257 0.0552,-1.5378 0.51691,-0.31946 1.11076,0.1858 1.03038,0.87668 -0.0774,0.66569 -0.70114,1.04553 -1.08555,0.66112 z m 65.64239,21.35951 c -2.36233,-0.26403 -4.04758,-1.29126 -5.04868,-3.0774 -0.62867,-1.12165 -0.72364,-1.55491 -0.64927,-2.96203 0.11293,-2.13642 1.08278,-3.62443 2.97491,-4.5643 1.89109,-0.93934 3.78346,-0.89535 5.65763,0.13155 l 1.42605,0.78136 1.52096,-1.65368 c 1.6855,-1.83259 3.22784,-4.72362 3.67265,-6.88423 0.99394,-4.82785 -0.70529,-9.31811 -4.60613,-12.17183 l -0.79375,-0.58068 1.19062,0.14666 c 0.65485,0.0807 2.1944,0.45878 3.42124,0.84025 9.98117,3.10348 14.23063,14.84524 8.4828,23.43896 -2.84867,4.25912 -7.13863,6.51382 -12.69779,6.67366 -1.52797,0.0439 -3.57602,-0.009 -4.55124,-0.11829 z m 7.12757,-1.50424 c 2.19746,-0.81464 3.60181,-1.6639 5.39232,-3.26096 4.00337,-3.57083 6.11088,-9.26888 5.27067,-14.25023 -0.26979,-1.59946 -1.85919,-5.61642 -2.22226,-5.61642 -0.0639,0 0.19624,0.8632 0.57801,1.91822 0.59819,1.65311 0.69393,2.33877 0.69267,4.96094 -0.001,3.10283 -0.24243,4.30015 -1.38434,6.87917 -1.6185,3.65541 -6.1373,7.97382 -9.84506,9.40847 -0.65485,0.25338 -1.30969,0.57027 -1.45521,0.70421 -0.36427,0.33526 0.9498,0.007 2.9732,-0.7434 z m -0.0985,-4.13281 c 3.86179,-2.6868 6.7913,-6.92884 7.58456,-10.98275 0.17706,-0.90488 0.27122,-2.70592 0.20924,-4.00231 -0.14138,-2.95708 -1.09067,-5.07379 -3.16285,-7.05247 -0.76198,-0.72761 -1.18581,-1.02526 -0.94184,-0.66146 2.27623,3.39429 2.80989,4.92297 2.81716,8.06979 0.0117,5.06932 -1.77925,8.57099 -6.88696,13.4654 -2.83349,2.71517 -2.88568,2.78546 -1.68639,2.27138 0.68067,-0.29177 1.61086,-0.79019 2.06708,-1.1076 z m -42.3396,4.27741 c -2.98914,-0.53033 -6.46998,-2.51042 -8.1892,-4.65845 -1.18606,-1.48188 -2.37781,-3.71336 -2.85116,-5.33859 l -0.41043,-1.4092 0.87378,0.76719 c 2.0455,1.79597 5.26744,1.81202 8.85935,0.0441 1.77898,-0.8756 2.71415,-1.58449 4.80337,-3.64114 l 2.5943,-2.55386 0.94803,4.36562 c 1.25813,5.79358 1.32189,6.30538 0.95729,7.68403 -0.39384,1.48921 -1.60312,3.40749 -2.62379,4.1621 -0.93368,0.6903 -2.98331,0.92914 -4.96154,0.57817 z m 5.82717,-5.03517 c 1.46014,-1.14854 0.55856,-3.68496 -1.30983,-3.68496 -0.6315,0 -1.03629,0.21379 -1.54138,0.81405 -0.88602,1.05297 -0.86463,1.69283 0.0884,2.64588 0.91294,0.91294 1.79674,0.98493 2.76279,0.22503 z m 72.55143,4.47075 c -3.74894,-0.37534 -8.00931,-3.37327 -9.7297,-6.84659 -0.87971,-1.77605 -1.535,-4.22232 -1.535,-5.73033 v -1.13504 h 3.01185 c 2.78933,0 3.02207,0.0391 3.15023,0.52917 0.13118,0.50165 0.008,0.52916 -2.36716,0.52916 h -2.50553 l 0.0829,0.8599 0.0829,0.85989 2.94311,0.0745 c 2.53429,0.0641 3.00859,0.14685 3.41444,0.59531 0.46625,0.5152 0.43809,0.52082 -2.61238,0.52082 -3.58847,0 -3.60171,0.014 -2.2467,2.37715 1.74753,3.0477 5.25506,5.52584 8.56148,6.04886 3.25442,0.51479 6.92065,-0.70014 9.51396,-3.15277 1.56173,-1.47703 2.90424,-3.38774 3.18817,-4.53753 l 0.17767,-0.7195 -3.31318,-0.0743 c -3.04867,-0.0683 -3.28718,-0.10974 -2.98758,-0.51876 0.27513,-0.3756 0.91792,-0.45359 4.14643,-0.50305 l 3.82083,-0.0585 -0.0933,0.7641 c -0.31208,2.55622 -2.51311,6.0038 -4.94458,7.74494 -2.76249,1.97817 -5.95229,2.75367 -9.75889,2.37256 z m -69.64751,-1.73682 c 0.79628,-1.45181 0.83455,-1.65587 0.80679,-4.30222 -0.0249,-2.37471 -0.22152,-3.56577 -1.3539,-8.20209 -0.72862,-2.98317 -1.29881,-5.45581 -1.26709,-5.49474 0.0317,-0.0389 0.81718,0.1238 1.74548,0.36162 1.5707,0.40239 2.68549,0.41034 6.03407,0.043 0.5463,-0.0599 0.70129,0.12707 1.14873,1.38594 0.73332,2.06316 0.91093,5.77768 0.37605,7.86465 -0.95464,3.72473 -3.70881,7.40695 -6.75426,9.03015 l -1.57181,0.83777 z m -46.52448,0.68523 c -5.02853,-1.85289 -4.70764,-8.90462 0.46863,-10.29844 3.57297,-0.96211 7.25997,2.72097 6.32115,6.31443 -0.40016,1.53168 -0.97517,2.35033 -2.3185,3.30087 -1.1831,0.83716 -3.21202,1.14715 -4.47128,0.68314 z m 2.62733,-4.51216 c 0.34742,-0.49602 0.35501,-0.66386 0.0508,-1.12448 -0.70359,-1.06545 -2.28129,-0.72216 -2.28129,0.49637 0,1.24109 1.50438,1.66473 2.23046,0.62811 z m 112.974,2.70795 c -1.01307,-0.40983 -1.96279,-1.81771 -1.96279,-2.90965 0,-1.29486 0.66547,-2.10006 1.89879,-2.29748 0.81044,-0.12973 1.08635,-0.0421 1.65364,0.52519 0.7806,0.78059 0.88761,1.87958 0.26902,2.76274 -0.46402,0.66249 -0.29926,0.71618 0.90715,0.29563 0.97998,-0.34163 1.35681,-0.92885 1.35681,-2.11434 0,-1.20445 -0.82453,-3.67867 -1.22592,-3.67867 -1.23501,0 -3.16285,-0.68181 -3.99585,-1.41319 -2.50435,-2.19885 -2.51311,-5.73897 -0.0228,-9.23622 0.50836,-0.71391 0.58096,-1.16989 0.5966,-3.74681 0.0207,-3.415 0.4833,-4.75026 1.84379,-5.3223 1.81291,-0.76227 3.20896,1.09354 3.18987,4.2404 -0.0114,1.88365 -0.55417,3.307 -2.23215,5.8538 l -0.54469,0.82672 1.41828,0.11762 c 1.77461,0.14716 2.85508,0.88473 3.62457,2.47428 0.86543,1.78774 0.57076,3.3175 -0.92765,4.81591 l -1.13599,1.13599 0.49975,1.60568 c 0.87567,2.81356 0.4859,4.79504 -1.13798,5.78509 -0.92062,0.56129 -3.01983,0.70542 -4.0724,0.27961 z m 1.7195,-11.70922 c -0.44127,-1.19679 -0.86524,-2.23859 -0.94216,-2.31511 -0.28777,-0.28627 -1.15263,1.14014 -1.15263,1.90102 0,0.94018 1.49578,2.59007 2.34813,2.59007 0.53504,0 0.52861,-0.0552 -0.25334,-2.17598 z m 2.89832,1.55545 c 0.16248,-0.19577 0.36958,-0.72679 0.46023,-1.18003 0.13686,-0.68431 0.0284,-0.9605 -0.63954,-1.62843 -0.44239,-0.44239 -1.00535,-0.80435 -1.25102,-0.80435 -0.37124,0 -0.41587,0.16422 -0.26426,0.97238 0.23383,1.24641 0.93216,2.99637 1.19572,2.99637 0.11191,0 0.3364,-0.16017 0.49887,-0.35594 z m -2.6337,-12.8811 c 0.64869,-1.50794 0.47545,-2.32417 -0.24327,-1.14615 -0.52963,0.86809 -0.88987,2.47694 -0.55461,2.47694 0.12396,0 0.48301,-0.59886 0.79788,-1.33079 z m -88.21671,15.00285 c -2.00361,-0.78403 -3.0427,-2.15148 -3.0427,-4.00423 0,-1.08338 0.31765,-1.21439 0.73318,-0.30239 0.76538,1.67982 3.33786,2.62935 5.80039,2.14098 l 1.00705,-0.19971 -1.32292,-0.31425 c -2.56673,-0.60969 -4.0617,-1.84688 -4.66504,-3.86063 -0.42649,-1.42351 -0.0318,-2.62424 1.50177,-4.56893 3.55794,-4.51167 10.59431,-6.32759 16.22629,-4.1876 2.32726,0.88428 6.11928,3.84901 6.11928,4.78425 0,0.3655 -2.22349,0.63415 -3.65234,0.4413 -0.68335,-0.0922 -2.4227,-0.52344 -3.86522,-0.95823 -2.94597,-0.88795 -4.52529,-0.98233 -6.30286,-0.37665 -3.30525,1.12621 -4.6648,4.94158 -2.39662,6.72573 0.86092,0.6772 1.53857,0.71532 1.24946,0.0703 -0.11414,-0.25466 -0.25553,-1.00032 -0.3142,-1.65703 -0.0833,-0.93209 0.0192,-1.35403 0.46717,-1.92351 0.97739,-1.24256 3.16032,-1.99643 4.76216,-1.6446 0.62208,0.13663 0.78057,0.3394 0.92267,1.18045 0.22904,1.35567 -0.45127,2.6581 -2.44738,4.68544 -3.37144,3.42419 -7.9062,5.09392 -10.78014,3.96933 z m 95.16615,-2.22077 c 0.0801,-0.41777 0.47408,-0.47948 3.48149,-0.54529 3.13116,-0.0685 3.38422,-0.0381 3.3008,0.39688 -0.0801,0.41777 -0.47407,0.47948 -3.48149,0.54529 -3.13116,0.0685 -3.38422,0.0381 -3.3008,-0.39688 z m -19.23868,-3.44764 c 0.60638,-3.2835 4.15605,-7.65845 7.13168,-8.78979 0.63193,-0.24025 0.68148,-0.20509 0.68148,0.48355 0,0.59979 -0.2527,0.90638 -1.31374,1.59391 -1.22302,0.7925 -3.71334,3.33916 -3.71334,3.79737 0,0.11164 0.72711,0.20298 1.6158,0.20298 1.36471,0 1.59085,0.065 1.45521,0.41851 -0.0883,0.23019 -0.1606,0.46831 -0.1606,0.52917 0,0.0609 -0.81432,0.11065 -1.80961,0.11065 -1.68241,0 -1.8312,0.0474 -2.11667,0.67391 -0.16888,0.37065 -0.30705,0.72784 -0.30705,0.79375 0,0.0659 0.83344,0.11984 1.85208,0.11984 1.6757,0 1.85209,0.0504 1.85209,0.52917 0,0.49428 -0.17639,0.52917 -2.67528,0.52917 h -2.67528 z m 19.19024,0.46302 c 0,-0.48997 0.17639,-0.52917 2.38125,-0.52917 2.45053,0 2.63318,-0.0932 2.10736,-1.07572 -0.24053,-0.44945 -0.57245,-0.51178 -2.72521,-0.51178 -2.299,0 -3.08631,-0.21598 -3.08631,-0.84666 0,-0.11642 1.07156,-0.21167 2.38125,-0.21167 1.30968,0 2.38125,-0.10947 2.38125,-0.24326 0,-0.56398 -2.70739,-3.14152 -4.1948,-3.99362 -1.35285,-0.77501 -1.61156,-1.03939 -1.61817,-1.65365 l -0.008,-0.73116 0.98894,0.41321 c 3.69279,1.54295 7.01845,5.43216 7.62786,8.92046 l 0.17334,0.99219 h -3.20444 c -3.02806,0 -3.20445,-0.0291 -3.20445,-0.52917 z m -123.42812,-20.23858 c -2.06142,-0.72378 -3.30965,-2.8848 -2.94922,-5.10589 0.54142,-3.33634 5.23701,-5.80388 8.47218,-4.45213 0.56318,0.2353 1.06894,0.42783 1.12393,0.42783 0.055,0 0.1,-2.97656 0.1,-6.61458 v -6.61459 l -0.59531,-0.002 c -0.32742,-0.001 -3.04975,0.60225 -6.04961,1.34081 l -5.4543,1.34282 -0.12694,5.20764 c -0.11351,4.65678 -0.18701,5.32496 -0.69482,6.31679 -1.30528,2.5494 -4.66202,3.74946 -6.68135,2.38864 -1.2119,-0.81671 -1.60761,-1.65872 -1.48313,-3.15591 0.12039,-1.44802 1.07981,-2.88393 2.37987,-3.56179 0.91067,-0.47484 3.11936,-0.61965 4.08736,-0.26799 l 0.59532,0.21627 v -6.37351 c 0,-6.35911 0.001,-6.37406 0.59531,-6.62343 1.33035,-0.55853 14.5228,-3.74994 14.90113,-3.60477 0.36092,0.1385 0.3986,1.5514 0.32709,12.2639 l -0.0808,12.10735 -0.79375,1.43481 c -0.92098,1.66478 -2.31626,2.77316 -4.19236,3.3303 -1.61271,0.47892 -2.11519,0.47885 -3.48056,-5.4e-4 z m 0.10512,-5.67607 c 0.25697,-0.13752 1.04877,-0.93076 1.75956,-1.76275 l 1.29234,-1.5127 -1.16942,0.187 c -2.16334,0.34593 -3.95991,1.99975 -3.18571,2.9326 0.39041,0.47042 0.65609,0.50219 1.30323,0.15585 z m -11.1959,-5.2177 1.01152,-1.23442 -0.9135,0.17542 c -0.9566,0.18371 -2.50183,1.59936 -2.2285,2.04163 0.34874,0.56426 1.17532,0.18302 2.13048,-0.98263 z m 12.08297,-12.81088 c 5.21958,-1.29906 5.4901,-1.39736 5.4901,-1.99492 0,-0.3457 -0.14883,-0.62605 -0.33073,-0.62301 -0.1819,0.003 -2.83104,0.63936 -5.88698,1.41404 -5.4623,1.38469 -5.5577,1.4208 -5.6423,2.13528 -0.0709,0.59866 -9.2e-4,0.70106 0.39688,0.58088 0.26561,-0.0802 2.95347,-0.76076 5.97303,-1.51227 z m 73.65866,22.88661 c -4.89481,-1.18491 -8.84331,-5.10704 -10.37968,-10.31036 -0.65654,-2.22353 -0.59936,-6.05955 0.12432,-8.33962 2.85955,-9.0095 13.86387,-12.87487 21.64147,-7.60176 l 1.67932,1.13855 -6.88262,0.0705 -6.88262,0.0705 v 4.51135 c 0,4.33365 -0.0201,4.50498 -0.50975,4.34957 -0.68166,-0.21636 -2.28767,0.47894 -2.64395,1.14466 -0.81426,1.52146 0.18841,3.78011 1.83904,4.14265 1.00587,0.22093 2.64368,-0.5502 3.09461,-1.45702 0.22648,-0.45546 0.33013,-2.20648 0.33282,-5.6224 l 0.004,-4.96093 h 5.29166 5.29167 v 1.01768 c 0,0.55973 -0.0779,2.11583 -0.17322,3.458 -0.16975,2.3914 -0.18561,2.4372 -0.79152,2.28512 -1.03037,-0.25861 -2.44377,0.50854 -2.88572,1.56628 -0.4903,1.17344 -0.29468,1.98826 0.70796,2.94885 1.43565,1.37544 3.82266,0.80628 4.61981,-1.10156 0.27949,-0.66893 0.37658,-2.2276 0.38189,-6.13098 l 0.007,-5.23402 0.77918,0.92604 c 1.07007,1.27176 2.53823,4.33977 2.88668,6.0323 0.36859,1.79036 0.36904,4.41474 0.001,6.13062 -0.33807,1.57639 -0.61711,1.76665 -4.11937,2.8088 -3.05559,0.90924 -8.0003,1.1565 -10.88098,0.5441 -5.2409,-1.11415 -8.94171,-4.49822 -10.01805,-9.16066 l -0.33714,-1.46037 0.0576,1.98438 c 0.0455,1.56573 0.21617,2.30817 0.80906,3.51916 2.99207,6.11136 12.32157,8.67704 21.00613,5.77683 1.20054,-0.40092 2.18281,-0.64547 2.18281,-0.54344 0,0.60649 -1.89345,2.82737 -2.78854,3.27075 -2.79427,1.38413 -8.48029,1.89363 -11.9647,1.0721 -4.34715,-1.02494 -7.99463,-4.11713 -9.77651,-8.28813 l -0.6408,-1.49998 0.14333,1.43918 c 0.44854,4.50392 5.02273,8.74541 10.74903,9.96721 2.10329,0.44877 6.6951,0.3768 8.39121,-0.13153 1.35284,-0.40545 1.01014,-0.0726 -0.7949,0.77211 -2.85534,1.33617 -6.36984,1.66563 -9.55164,0.89539 z m -43.75412,-0.36765 c -1.33045,-0.31503 -2.18969,-1.00948 -2.73497,-2.21044 -0.62851,-1.38429 -0.63096,-2.14647 -0.0112,-3.4851 0.64221,-1.3871 1.74721,-2.39694 3.17343,-2.90014 1.45246,-0.51246 2.56643,-0.51532 3.99788,-0.0103 0.61867,0.21828 1.16942,0.39688 1.22389,0.39688 0.0545,0 0.099,-3.98382 0.099,-8.85292 v -8.85293 l 0.99218,-0.27657 c 3.8883,-1.08389 12.91373,-3.18423 13.20415,-3.07279 0.28952,0.1111 0.35467,2.02228 0.34994,10.26513 -0.005,9.28128 -0.0467,10.21716 -0.49426,11.18695 -2.06764,4.47997 -8.9497,3.81365 -8.42788,-0.81598 0.34013,-3.0176 3.43853,-4.89534 6.61285,-4.00762 l 0.7276,0.20347 v -5.2967 c 0,-4.34879 -0.0659,-5.29671 -0.36825,-5.29671 -0.47743,0 -10.49152,2.35735 -10.78525,2.53888 -0.12297,0.076 -0.22358,3.54039 -0.22358,7.69864 0,4.97249 -0.10511,7.91128 -0.30707,8.58535 -0.82447,2.75185 -4.32253,4.8436 -7.02849,4.20288 z m 0.61309,-6.55544 c 0.9991,-1.08463 1.08712,-1.26817 0.64266,-1.34002 -1.22327,-0.19775 -3.2931,1.50804 -2.79932,2.30698 0.35171,0.56908 1.0162,0.27115 2.15666,-0.96696 z m 14.07626,-3.96875 c 1.03916,-1.1133 1.11127,-1.26615 0.63172,-1.33897 -1.19705,-0.18176 -2.93893,1.31084 -2.59023,2.21954 0.24725,0.64434 0.74338,0.42127 1.95851,-0.88057 z m 58.54222,10.00278 c -0.28293,-0.28292 -0.59908,-0.96574 -0.70257,-1.51737 -0.24232,-1.29169 0.10037,-16.8012 0.37735,-17.07818 0.11532,-0.11532 6.09618,-0.17877 13.29079,-0.141 l 13.08113,0.0687 0.0696,9.04006 0.0696,9.04007 -0.70059,0.55108 c -0.68674,0.54019 -0.94035,0.55108 -12.83574,0.55108 -11.66633,0 -12.15502,-0.0199 -12.64956,-0.51441 z m 5.93836,-4.24809 v -3.04271 l -0.7276,-0.0837 -0.7276,-0.0837 v -4.87722 -4.87721 h -1.45521 -1.45521 v 8.08049 8.08049 l 2.18281,-0.0769 2.18281,-0.0768 z m 6.08542,0 c 0,-2.95396 -0.0174,-3.04518 -0.59531,-3.12726 -0.59277,-0.0842 -0.59531,-0.10538 -0.59531,-4.96093 v -4.87639 h -1.32292 -1.32292 v 4.89479 c 0,4.7184 -0.0191,4.89479 -0.52916,4.89479 -0.49986,0 -0.52917,0.17639 -0.52917,3.18493 v 3.18493 l 2.4474,-0.0761 2.44739,-0.0761 z m 6.1011,0.0282 c 0.014,-2.69367 -0.0353,-3.02786 -0.46302,-3.13971 -0.43998,-0.11506 -0.4787,-0.51862 -0.4787,-4.98912 v -4.86393 h -1.32292 -1.32292 v 4.89479 4.89479 h -0.66146 -0.66145 v 3.18493 3.18493 l 2.44739,-0.0761 2.4474,-0.0761 z m 5.67286,-4.92297 v -8.06979 h -1.45521 -1.45521 v 4.89479 4.89479 h -0.79375 -0.79375 v 3.175 3.175 h 2.24896 2.24896 z m -23.74635,-11.25306 c -0.56621,-0.22759 -0.59532,-0.37998 -0.59532,-3.11722 0,-2.45208 0.0716,-2.94273 0.48386,-3.31582 0.43579,-0.39438 1.71958,-0.43788 12.92357,-0.43788 11.80976,0 12.46237,0.025 12.88691,0.49414 0.37328,0.41246 0.43472,0.97004 0.37174,3.37343 l -0.0755,2.8793 -5.02708,0.16395 c -7.71755,0.25168 -20.30239,0.22774 -20.96823,-0.0399 z m 4.28447,-2.16729 c 0.89883,-1.28326 0.20479,-2.85155 -1.26194,-2.85155 -1.03098,0 -1.76576,0.67767 -1.76576,1.62851 0,1.59971 2.15433,2.46995 3.0277,1.22304 z m 4.69053,0.15015 c 0.60288,-0.5456 0.62717,-1.87562 0.046,-2.51784 -0.92362,-1.02059 -3.00171,-0.22254 -3.00171,1.15274 0,0.79587 1.01172,1.80299 1.81123,1.80299 0.36336,0 0.87838,-0.19705 1.1445,-0.43789 z m 5.09905,-0.15015 c 0.84487,-1.20622 0.3515,-2.52512 -1.11139,-2.97098 -0.8488,-0.2587 -2.29306,1.17969 -2.04405,2.03575 0.42667,1.46684 2.378,2.04519 3.15544,0.93523 z m 9.45303,0.15015 c 0.64775,-0.5862 0.62791,-1.99556 -0.0366,-2.59689 -1.10807,-1.00279 -2.91919,-0.24358 -2.91919,1.2237 0,1.50759 1.85496,2.36938 2.95573,1.37319 z m -4.959,-0.24247 c 0.49346,-0.49346 0.5435,-1.46733 0.0983,-1.91256 -0.17463,-0.17463 -0.62707,-0.3175 -1.00542,-0.3175 -0.88569,0 -1.32292,0.45037 -1.32292,1.36269 0,1.15449 1.39886,1.69857 2.23006,0.86737 z m -51.31027,-14.13652 c -3.08951,-0.76871 -5.15938,-3.16105 -5.15938,-5.96317 0,-2.23079 1.36439,-3.8097 3.75484,-4.34525 2.79872,-0.62701 3.41212,-1.1399 4.15825,-3.47694 0.43539,-1.36373 1.3607,-2.12612 2.77377,-2.28539 2.14355,-0.24161 2.2541,0.0223 0.69834,1.66733 -1.07498,1.13663 -1.3493,1.59481 -1.2328,2.05899 0.12307,0.49036 -0.31958,1.06471 -2.47712,3.21416 -2.56374,2.55413 -2.63956,2.60572 -3.15008,2.14371 -0.54083,-0.48945 -1.08561,-0.38144 -1.08561,0.21523 0,0.18755 0.71782,1.02568 1.59516,1.86251 1.33575,1.2741 1.65988,1.46781 1.99318,1.19119 0.34933,-0.28991 0.32691,-0.40604 -0.18324,-0.94907 l -0.58126,-0.61873 2.61028,-2.64885 c 1.47702,-1.49885 2.82721,-2.64884 3.10994,-2.64884 0.27482,0 1.14373,-0.55025 1.93092,-1.22277 l 1.43127,-1.22276 v 1.29618 c 0,1.67698 -0.49015,2.34467 -2.313,3.15082 -0.80795,0.35731 -1.6263,0.85683 -1.81855,1.11003 -0.20643,0.27189 -0.35299,1.18452 -0.35796,2.22908 -0.01,2.05186 -0.3024,2.97655 -1.25951,3.97986 -0.98001,1.02731 -3.03418,1.61183 -4.43744,1.26268 z m 40.83798,-0.15094 c -2.09722,-0.64559 -5.06876,-3.26091 -6.20786,-5.46368 -0.64756,-1.25224 -0.7635,-3.22273 -0.26623,-4.52481 0.76206,-1.99543 2.34058,-3.08772 5.02079,-3.47423 1.07781,-0.15543 1.48791,-0.395 2.54673,-1.48778 1.12105,-1.15699 1.38736,-1.30252 2.38368,-1.30252 h 1.12162 l -1.61427,1.72566 c -1.79329,1.91703 -2.10501,2.66305 -1.61106,3.85555 0.30502,0.7364 0.27769,0.86561 -0.3067,1.45001 l -0.64157,0.64156 -0.96343,-0.79413 c -0.87844,-0.72409 -1.80281,-0.85629 -1.80281,-0.25785 0,0.33478 4.0279,3.96254 4.3996,3.96254 0.74284,0 0.64059,-0.63954 -0.24364,-1.52376 l -0.93758,-0.93759 0.53668,-0.72591 0.53669,-0.7259 1.18851,0.52573 c 1.10663,0.48952 2.15589,0.50949 3.33593,0.0635 0.41721,-0.15768 0.55644,5.22495 0.16576,6.4087 -0.53098,1.60888 -2.7962,3.03078 -4.74861,2.98074 -0.36381,-0.009 -1.21531,-0.18745 -1.89223,-0.39583 z m -75.59607,-0.78574 c -4.23981,-0.91997 -7.94798,-3.79923 -9.83097,-7.6334 -2.06375,-4.20221 -2.05312,-8.31271 0.0324,-12.55824 1.76739,-3.59782 4.80889,-6.14971 8.68744,-7.28894 0.7904,-0.23216 1.71313,-0.42211 2.05052,-0.42211 0.86815,0 0.77785,0.74726 -0.11417,0.94476 -6.51364,1.44215 -10.91406,6.6699 -10.91406,12.96601 0,8.6465 8.94958,15.14815 17.09003,12.41549 3.44887,-1.15775 5.82022,-3.11772 7.28654,-6.02249 0.93779,-1.85775 0.85372,-2.3105 -0.12038,-0.64832 -1.55645,2.65587 -5.54201,5.53582 -8.65313,6.2527 -6.79933,1.56676 -13.70561,-3.15584 -14.8673,-10.16644 -0.80561,-4.86166 2.22476,-10.35587 6.9861,-12.66616 2.2856,-1.10901 3.91981,-1.48346 3.91981,-0.89814 0,0.24754 -0.4941,0.49504 -1.38906,0.69578 -5.43481,1.21903 -9.44837,7.17557 -8.4505,12.5414 0.70467,3.78917 3.02504,6.82262 6.55228,8.56587 1.75816,0.86893 2.30518,1.00828 4.34008,1.10557 4.40482,0.21059 8.02687,-1.73941 9.81669,-5.28501 1.03045,-2.04133 0.97424,-2.23463 -0.16004,-0.55033 -1.10058,1.63427 -3.12689,3.31374 -5.1532,4.27113 -1.27901,0.6043 -1.7916,0.68755 -4.23333,0.68755 -2.57201,0 -2.90967,-0.0623 -4.55103,-0.83989 -2.25557,-1.06856 -3.99157,-2.80455 -5.06012,-5.06013 -0.76012,-1.60449 -0.8399,-2.01165 -0.8399,-4.28644 0,-2.19496 0.0931,-2.7124 0.73479,-4.08255 1.42872,-3.05079 3.49264,-4.94461 6.4887,-5.95391 1.92092,-0.64711 1.90464,-0.64547 1.90464,-0.19188 0,0.19525 -0.50602,0.50435 -1.12448,0.6869 -2.8311,0.83563 -4.82456,2.47329 -6.20823,5.10017 -0.66343,1.25952 -0.7367,1.66162 -0.73688,4.0444 -1.8e-4,2.3807 0.0745,2.79166 0.74485,4.10104 0.99636,1.94606 2.61731,3.57369 4.54661,4.56533 1.27493,0.65531 2.00427,0.83888 3.70417,0.93233 2.47202,0.1359 3.77071,-0.15899 5.48329,-1.24508 1.11452,-0.70681 2.85109,-2.67056 2.85109,-3.22407 0,-0.11826 -0.53965,0.30945 -1.19921,0.95047 -3.98933,3.87719 -9.88231,3.82447 -13.42884,-0.12014 -1.48384,-1.65038 -2.1601,-3.49366 -2.15087,-5.86258 0.009,-2.3095 1.14484,-4.7106 3.03021,-6.40571 1.18091,-1.06174 3.16108,-2.02597 4.1606,-2.02597 0.77394,0 0.12126,0.61581 -1.15877,1.0933 -1.76819,0.6596 -3.40046,2.09758 -4.27369,3.76502 -0.97194,1.85591 -1.0238,5.00617 -0.11079,6.72913 1.59967,3.01874 4.23305,4.69623 7.32615,4.66681 2.08286,-0.0198 3.47149,-0.58417 4.86422,-1.97689 1.20253,-1.20254 1.00842,-1.5116 -0.26486,-0.42172 -1.09677,0.9388 -3.03548,1.77 -4.05118,1.73691 -0.3015,-0.01 0.0266,-0.17236 0.72914,-0.36119 1.88027,-0.5054 3.34426,-1.65312 4.20131,-3.2937 1.93097,-3.69631 0.0168,-8.07434 -4.02342,-9.20245 l -1.45521,-0.40633 v -3.87642 -3.87643 l 1.19062,0.0794 c 7.21764,0.4815 12.96459,6.8383 12.96459,14.34037 0,4.00572 -1.43032,7.26893 -4.40631,10.05283 -2.0154,1.88531 -4.1565,3.00036 -6.86165,3.57344 -2.22617,0.47161 -3.6834,0.46887 -5.89534,-0.0111 z m 83.6043,-0.97515 c 0.50771,-0.99519 0.55267,-1.38988 0.40845,-3.58541 l -0.16205,-2.4671 0.91341,-0.80199 c 1.62614,-1.42777 1.67518,-3.08992 0.15417,-5.22597 l -0.52169,-0.73264 3.32144,-3.55149 c 1.82678,-1.95332 3.42118,-3.58904 3.5431,-3.63494 0.27678,-0.10421 1.21129,1.70514 1.88135,3.6426 0.59723,1.72686 0.6992,5.26753 0.20993,7.28877 -0.77811,3.21443 -3.14168,6.62215 -5.75717,8.30051 -1.01051,0.64844 -3.94045,1.88595 -4.4652,1.88595 -0.0529,0 0.16048,-0.50323 0.47426,-1.11829 z m 5.18622,-3.99051 c 1.43956,-1.56174 2.07776,-2.78731 1.66107,-3.18983 -0.23436,-0.22639 -0.48334,-0.0724 -1.01134,0.62571 -0.8909,1.17786 -2.37446,2.68406 -3.19669,3.24547 -0.53007,0.36193 -0.58129,0.5029 -0.30411,0.83688 0.28964,0.349 0.42699,0.3532 1.04804,0.032 0.39309,-0.20328 1.20445,-0.9009 1.80303,-1.55027 z m -1.92681,-1.63441 c 1.35822,-1.39751 1.88411,-2.59498 1.33848,-3.04781 -0.28143,-0.23357 -0.46018,-0.13632 -0.82115,0.44675 -0.25377,0.40992 -0.93271,1.2425 -1.50874,1.85017 -0.67025,0.70706 -0.9898,1.25482 -0.88752,1.52136 0.25333,0.66016 0.64436,0.49981 1.87893,-0.77047 z m -44.82958,6.1717 c 0,-0.25113 0.5206,-0.48848 1.52766,-0.69648 0.84021,-0.17355 1.99992,-0.55631 2.57714,-0.85059 1.05006,-0.53536 1.71603,-0.53215 1.71603,0.008 0,0.4725 -2.80124,1.60813 -4.36484,1.76951 -1.16036,0.11976 -1.45599,0.0729 -1.45599,-0.23069 z m 8.48536,-1.4698 c -0.0231,-0.7226 -1.50205,-2.45625 -2.09662,-2.4576 -0.25997,-5.9e-4 -0.0827,-0.21616 0.43966,-0.53463 0.50442,-0.30754 1.08352,-0.99877 1.36676,-1.6314 l 0.49148,-1.09775 0.39486,0.94502 c 0.21717,0.51977 0.76058,1.21542 1.20759,1.54591 l 0.81274,0.60089 -0.80082,0.487 c -0.44091,0.26814 -1.02466,0.99073 -1.29889,1.60783 -0.36884,0.83002 -0.50292,0.96876 -0.51676,0.53473 z m -94.67295,-1.16133 c -4.20466,-2.08128 -3.71779,-7.80309 0.84475,-9.92765 1.73386,-0.80738 4.34071,-0.86099 5.7957,-0.11919 0.69167,0.35263 1.0241,0.41355 1.08281,0.19844 0.0466,-0.17073 0.3284,-3.97878 0.62622,-8.46233 0.34367,-5.17368 0.65699,-8.29107 0.85762,-8.53281 0.619,-0.74585 1.2394,-0.41588 2.10636,1.12029 0.46597,0.82565 2.17398,2.88123 3.79557,4.56795 2.13662,2.22242 3.17954,3.53917 3.78808,4.78266 1.01489,2.07381 1.4922,4.51719 1.25105,6.4042 -0.36566,2.86132 -1.90059,5.76275 -3.04864,5.76275 -0.83861,0 -0.86981,-0.71439 -0.10558,-2.41732 0.62619,-1.39533 0.70727,-1.8689 0.62133,-3.62862 -0.0725,-1.48414 -0.27334,-2.36861 -0.75315,-3.31664 -0.70756,-1.39802 -3.27651,-3.8989 -4.99194,-4.85968 l -1.06452,-0.59622 -0.13248,0.8608 c -0.0729,0.47344 -0.32207,3.555 -0.55378,6.84792 -0.23171,3.29291 -0.53952,6.4153 -0.68402,6.93863 -0.71718,2.59743 -3.94375,4.93382 -6.81309,4.93342 -0.98959,-1.4e-4 -1.87985,-0.18911 -2.62229,-0.5566 z m 2.19197,-7.77757 1.64528,-1.71979 h -0.98426 c -2.02272,0 -4.54335,2.04258 -3.73,3.0226 0.64138,0.77282 1.38546,0.45695 3.06898,-1.30281 z m 77.2476,5.95127 c -0.27839,-0.45044 5.05055,-5.7702 5.41504,-5.40571 0.17845,0.17846 -0.6368,1.16599 -2.47458,2.99752 -1.84782,1.84153 -2.80579,2.62609 -2.94046,2.40819 z m -35.52158,-2.79406 c -1.58484,-0.78976 -2.83465,-2.11313 -3.57383,-3.78417 -0.6328,-1.43054 -0.53944,-4.14288 0.19252,-5.59286 0.88961,-1.76229 2.63387,-3.21823 4.57435,-3.81823 1.17479,-0.36324 0.63026,0.60513 -0.66146,1.17631 -3.9953,1.76669 -5.23605,6.41679 -2.62628,9.8428 0.8955,1.17558 2.56267,2.26456 3.98836,2.60516 0.74973,0.17911 0.76228,0.19842 0.14508,0.22316 -0.37161,0.0149 -1.28904,-0.27858 -2.03874,-0.65217 z m 54.81943,-0.77596 c -0.10559,-0.29104 -0.48426,-0.84594 -0.84149,-1.2331 -0.64092,-0.69464 -0.64243,-0.70772 -0.11469,-0.99016 0.29414,-0.15742 0.67681,-0.71651 0.85038,-1.24243 l 0.31558,-0.9562 0.47498,1.0609 c 0.27612,0.61675 0.72588,1.14053 1.07428,1.25111 l 0.5993,0.19021 -0.61634,0.32985 c -0.33899,0.18143 -0.82642,0.73242 -1.08318,1.22442 -0.42105,0.80684 -0.48565,0.84267 -0.65882,0.3654 z m -52.36962,0.002 c -0.14552,-0.0482 -0.59501,-0.16063 -0.99886,-0.24981 -1.08836,-0.24035 -2.74456,-1.8718 -3.25378,-3.20515 -0.87749,-2.2977 0.11494,-5.06068 2.26978,-6.31918 2.28685,-1.33559 5.75333,-0.24227 7.07638,2.23186 1.27193,2.37852 0.35593,5.51129 -1.9883,6.80015 -0.96681,0.53154 -2.57835,0.91669 -3.10522,0.74213 z m 2.19875,-2.34398 c 0.89132,-0.4946 1.63396,-1.75923 1.63596,-2.78582 0.004,-1.94659 -2.00349,-3.69952 -3.84148,-3.35471 -1.06654,0.20008 -2.4113,1.39574 -2.65303,2.35888 -0.51402,2.04803 1.07804,4.14749 3.13203,4.13022 0.6134,-0.005 1.39033,-0.16201 1.72652,-0.34857 z m -2.29379,-2.3753 c -0.67107,-0.80858 0.33662,-1.73755 1.1938,-1.10054 0.38879,0.28894 0.42883,0.46107 0.1958,0.84173 -0.37862,0.61847 -0.99573,0.73341 -1.3896,0.25881 z m 48.81918,2.6671 c 0.12252,-0.76398 0.17872,-2.04391 0.12489,-2.84427 -0.18029,-2.68082 -0.16713,-2.99185 0.13093,-3.09435 0.73717,-0.25351 1.20414,4.77153 0.60353,6.49445 -0.15976,0.45828 -0.46859,0.83323 -0.68629,0.83323 -0.32939,0 -0.35843,-0.2331 -0.17306,-1.38906 z m 16.00346,0.58765 c -0.44538,-1.2776 -0.37477,-5.46789 0.12055,-7.15421 0.70003,-2.38328 1.91251,-4.34796 3.81941,-6.18892 2.90071,-2.8004 6.25523,-4.01387 10.44285,-3.77764 2.53749,0.14315 4.32909,0.63468 6.15814,1.6895 l 1.13106,0.65228 -3.50169,3.69616 c -2.55203,2.69376 -3.6122,3.64519 -3.90918,3.50823 -0.22412,-0.10337 -1.0028,-0.23442 -1.73041,-0.29124 -1.58994,-0.12416 -2.66393,0.49021 -4.05615,2.32027 -0.78561,1.03268 -1.07296,1.21337 -2.20271,1.38513 -0.71458,0.10863 -1.74992,0.42743 -2.30074,0.70844 -1.16733,0.59553 -2.85287,2.37468 -3.33416,3.51936 l -0.33541,0.7977 z m 11.20781,-12.19493 c 0.72761,-0.26407 1.79917,-0.48781 2.38125,-0.49718 0.98863,-0.0159 1.02451,-0.0426 0.54475,-0.40552 -0.98156,-0.74241 -3.86988,-0.40404 -4.95819,0.58086 -0.54827,0.49618 -0.33238,1.25833 0.2804,0.98987 0.23588,-0.10334 1.02419,-0.40396 1.75179,-0.66803 z m -1.05833,-2.0876 c 0.72761,-0.25918 2.07151,-0.5554 2.98645,-0.65827 1.38313,-0.15551 1.6118,-0.24936 1.35666,-0.55679 -0.65907,-0.79413 -4.97457,-0.23812 -6.42682,0.82804 -0.62818,0.46118 -0.3799,1.32874 0.3,1.04831 0.25344,-0.10453 1.05611,-0.40211 1.78371,-0.66129 z m 2.51354,14.89624 c -1.47281,-0.54155 -1.80159,-2.30436 -0.63196,-3.38834 1.01467,-0.94036 1.64474,-1.05883 2.4497,-0.46061 1.28769,0.95699 1.07926,3.05441 -0.36345,3.65721 -0.49947,0.2087 -0.94171,0.37004 -0.98277,0.35855 -0.041,-0.0115 -0.25324,-0.0865 -0.47152,-0.16681 z m -51.78243,-0.78569 c -0.29478,-1.05682 -0.19139,-4.5728 0.16067,-5.46426 0.28877,-0.73118 1.06885,-0.86522 0.83725,-0.14386 -0.0642,0.20009 -0.1329,1.66661 -0.15258,3.25894 -0.0234,1.89752 -0.13939,2.92966 -0.33646,2.99536 -0.16538,0.0551 -0.39437,-0.23566 -0.50888,-0.64618 z m 13.15425,-1.00994 c -0.34124,-0.36323 -0.56167,-0.71917 -0.48986,-0.79099 0.0718,-0.0718 0.4716,0.22537 0.8884,0.66042 0.41679,0.43504 0.63723,0.79099 0.48985,0.79099 -0.14738,0 -0.54716,-0.29719 -0.88839,-0.66042 z m -10.21717,-0.28988 c -0.24417,-0.97286 0.33758,-4.18537 0.99395,-5.4887 2.00704,-3.98531 5.57187,-5.92928 10.39708,-5.66974 2.47303,0.13302 4.79282,0.91067 5.09932,1.70942 0.26912,0.7013 -0.1857,0.68329 -1.8369,-0.0727 -1.43354,-0.65637 -1.98292,-0.75999 -4.04039,-0.76204 -2.02291,-0.002 -2.60721,0.10291 -3.8828,0.69735 -3.35466,1.56331 -5.48341,4.65215 -5.71724,8.29576 -0.0911,1.41974 -0.2274,1.97639 -0.48388,1.97639 -0.19637,0 -0.43448,-0.30857 -0.52914,-0.68571 z m 11.01092,-0.50387 c -0.93143,-0.99146 -0.37949,-1.16313 0.59772,-0.18591 0.57982,0.57982 0.71665,0.84633 0.43452,0.84633 -0.2265,0 -0.69101,-0.29719 -1.03224,-0.66042 z m 0.91604,-0.93649 c -0.89073,-0.92973 -0.46587,-1.05365 0.56685,-0.16534 0.408,0.35094 0.60379,0.69061 0.45212,0.78434 -0.14713,0.0909 -0.60567,-0.18761 -1.01897,-0.619 z m 1.10774,-0.53526 c -0.38601,-0.30364 -0.70185,-0.7495 -0.70185,-0.9908 0,-0.32364 0.22203,-0.21671 0.84633,0.40759 0.98439,0.9844 0.88347,1.39179 -0.14448,0.58321 z m 37.92732,-0.38939 c 0,-0.077 1.73278,-1.99545 3.85061,-4.26327 2.11784,-2.26782 3.78687,-4.18706 3.70896,-4.26497 -0.0779,-0.0779 -1.18084,0.97736 -2.45095,2.34505 -3.81803,4.11135 -5.62836,5.89161 -5.80822,5.71175 -0.0937,-0.0937 1.00758,-1.42738 2.44739,-2.96363 5.48596,-5.85344 6.18971,-6.71125 6.18971,-7.54467 0,-0.4326 -0.11906,-0.78654 -0.26458,-0.78654 -0.14552,0 -0.26459,-0.1786 -0.26459,-0.39688 0,-0.21828 0.22522,-0.39687 0.50049,-0.39687 0.31127,0 0.56236,-0.24653 0.66415,-0.65212 0.12085,-0.48149 0.28412,-0.60769 0.624,-0.48232 0.25318,0.0934 0.54466,0.29655 0.64774,0.45147 0.12923,0.19421 0.28912,0.17997 0.51495,-0.0459 0.26031,-0.26031 0.22713,-0.40094 -0.1617,-0.68525 -0.49777,-0.36398 -0.37009,-0.97084 0.20255,-0.96269 0.46537,0.007 2.82866,2.29949 2.82866,2.74437 0,0.21013 0.14048,0.42888 0.31218,0.48611 0.43447,0.14482 0.0616,0.99837 -0.43617,0.99837 -0.22285,0 -0.40518,-0.17859 -0.40518,-0.39688 0,-0.46942 -0.41838,-0.5256 -0.68627,-0.0922 -0.10358,0.1676 0.0204,0.45733 0.27547,0.64386 0.499,0.36487 0.3481,0.9035 -0.25313,0.9035 -0.20246,0 -0.48508,-0.20836 -0.62805,-0.46302 -0.24722,-0.44038 -0.26872,-0.44021 -0.43962,0.003 -0.0988,0.25652 -0.0285,0.64852 0.1562,0.87111 0.52236,0.62941 -0.11137,1.13967 -0.73345,0.59055 -0.66726,-0.589 -1.28619,-0.26692 -2.97081,1.54596 -5.8925,6.34113 -7.42034,7.80335 -7.42034,7.10165 z m 9.35284,-12.15469 c 0.1866,-0.48626 -0.30947,-0.82329 -0.67451,-0.45826 -0.28242,0.28242 -0.0793,0.84667 0.30481,0.84667 0.12136,0 0.28773,-0.17478 0.3697,-0.38841 z m -46.21868,11.85313 c -0.0973,-0.0973 1.2672,-1.64984 3.03225,-3.45005 1.76506,-1.8002 3.13036,-3.35193 3.034,-3.44829 -0.0964,-0.0964 -1.57504,1.29988 -3.28597,3.10275 -2.14151,2.25658 -3.21762,3.21191 -3.45367,3.06603 -0.24374,-0.15064 0.61263,-1.17866 2.96169,-3.55531 2.73908,-2.77127 3.3587,-3.54567 3.62092,-4.52545 0.22698,-0.84812 0.23435,-1.2094 0.0261,-1.27882 -0.42993,-0.14331 -0.35231,-0.84642 0.0934,-0.84642 0.21105,0 0.50653,0.20836 0.65662,0.46302 0.23797,0.40377 0.30674,0.41223 0.53738,0.0661 0.1907,-0.28616 0.14776,-0.48423 -0.15395,-0.71 -0.4556,-0.34094 -0.28235,-0.8775 0.28333,-0.8775 0.19412,0 0.42148,0.17859 0.50524,0.39687 0.2213,0.5767 0.69807,0.48634 0.69807,-0.13229 0,-0.29104 -0.11906,-0.52916 -0.26458,-0.52916 -0.40144,0 -0.31622,-0.52597 0.11183,-0.69022 0.20703,-0.0795 0.62375,0.0731 0.92605,0.33903 0.30229,0.26591 0.78774,0.69184 1.07879,0.9465 0.29104,0.25466 0.52916,0.71778 0.52916,1.02916 0,0.31138 0.20836,0.72584 0.46302,0.92102 0.40475,0.3102 0.41307,0.38818 0.0661,0.61954 -0.28941,0.19301 -0.48926,0.14099 -0.73805,-0.19212 -0.29729,-0.39804 -0.37323,-0.40592 -0.59037,-0.0612 -0.17203,0.27308 -0.12782,0.48656 0.14274,0.68934 0.21556,0.16156 0.39193,0.42945 0.39193,0.59531 0,0.45315 -0.73333,0.36254 -1.00576,-0.12427 -0.21567,-0.38538 -0.25506,-0.3822 -0.41459,0.0335 -0.097,0.25266 -0.0364,0.62792 0.13458,0.83393 0.23875,0.28768 0.23568,0.44866 -0.0132,0.69407 -0.25368,0.25009 -0.39936,0.21763 -0.67049,-0.14939 -0.58446,-0.79119 -1.39831,-0.2096 -4.87012,3.48029 -1.79617,1.909 -3.35346,3.4709 -3.46064,3.4709 -0.10718,0 -0.27449,-0.0796 -0.37181,-0.17694 z m 8.97432,-2.491 c -0.51854,-1.29597 -0.52394,-1.56539 -0.0313,-1.56539 0.72295,0 1.46415,2.22325 0.8232,2.4692 -0.24962,0.0958 -0.5115,-0.2031 -0.79186,-0.90381 z m -23.70223,-3.02534 c 0,-0.23806 -0.36271,-0.79555 -0.80603,-1.23887 -0.77464,-0.77464 -0.78636,-0.81981 -0.30105,-1.15973 0.27774,-0.19454 0.6549,-0.71564 0.83813,-1.158 0.35614,-0.8598 0.79812,-1.07414 0.79812,-0.38706 0,0.22948 0.33736,0.75459 0.74969,1.16692 l 0.74969,0.7497 -0.74969,0.70759 c -0.41233,0.38917 -0.74969,0.86906 -0.74969,1.06642 0,0.19736 -0.11907,0.43242 -0.26459,0.52235 -0.14552,0.0899 -0.26458,-0.0312 -0.26458,-0.26932 z m 2.25792,-3.24231 c -0.21621,-0.56343 0.43862,-1.1971 2.18862,-2.1179 2.1861,-1.15027 2.69721,-1.27054 2.69721,-0.63469 0,0.32766 -0.23556,0.57744 -0.64038,0.67904 -0.35221,0.0884 -1.41687,0.68142 -2.36591,1.31782 -1.37957,0.9251 -1.7564,1.07662 -1.87954,0.75573 z m 8.61059,-0.7217 c -0.0365,-0.85514 -1.0208,-2.23975 -1.80665,-2.54133 l -0.72749,-0.27919 0.79375,-0.4178 c 1.01551,-0.53451 1.39547,-1.04142 1.61526,-2.15494 l 0.17673,-0.89535 0.63125,1.32818 c 0.42842,0.90139 0.90377,1.46015 1.47932,1.7389 l 0.84806,0.41073 -0.65552,0.25055 c -0.82756,0.31632 -1.42342,0.98334 -1.93257,2.16338 -0.28431,0.65892 -0.40608,0.7734 -0.42214,0.39687 z m 5.73409,-1.13744 c -1.40068,-0.61138 -2.03777,-1.3761 -1.14641,-1.3761 0.56449,0 2.71463,0.97063 2.93307,1.32407 0.41074,0.6646 -0.33357,0.68628 -1.78666,0.052 z"
       id="path2" /><path
       style="fill:#fe5d15;fill-opacity:1"
       d="m -207.67948,587.5371 c -2.31225,-0.8242 -3.7288,-3.01087 -3.55017,-5.4803 0.0962,-1.32946 0.24057,-1.69215 0.96036,-2.41194 0.75013,-0.75013 1.0158,-0.84718 2.31901,-0.84718 1.32798,0 1.54727,0.0844 2.24387,0.86407 1.65489,1.85215 0.59263,4.72452 -1.66752,4.50898 -1.21398,-0.11577 -1.25858,0.0953 -0.1821,0.86186 2.3657,1.68453 5.16576,0.32531 6.06076,-2.94204 0.66283,-2.41978 0.65184,-2.56253 -0.21184,-2.75223 -1.17368,-0.25778 -3.15941,-1.76982 -4.14522,-3.15639 -1.17548,-1.65334 -1.55972,-3.18371 -1.40493,-5.59568 0.21939,-3.41859 2.58031,-7.4155 6.17613,-10.45589 1.71167,-1.44726 3.85629,-2.63164 4.76527,-2.63164 1.29797,0 1.33911,0.50193 0.44221,5.39529 -0.45892,2.50385 -0.89752,4.72522 -0.97466,4.93639 -0.0875,0.23954 0.24737,0.65769 0.89037,1.11178 2.13528,1.50793 3.02831,5.00872 1.90721,7.47652 -0.62792,1.38221 -2.12198,2.67421 -3.53706,3.05872 -0.62088,0.1687 -1.26101,0.34253 -1.42252,0.38628 -0.16151,0.0438 -0.37531,0.69505 -0.4751,1.44735 -0.67345,5.0767 -4.10457,7.68375 -8.19407,6.22605 z m -1.20076,-7.17949 c 0.19374,-0.23344 0.6548,-0.55235 1.02458,-0.70869 l 0.67233,-0.28425 -0.6106,-0.10547 c -0.72336,-0.12494 -1.90294,0.5768 -1.90294,1.13208 0,0.51273 0.37602,0.49723 0.81663,-0.0337 z m 11.19355,-3.15171 c 0.46495,-0.22063 1.04849,-0.74502 1.29676,-1.1653 0.82096,-1.38977 0.45444,-3.79289 -0.72818,-4.77438 -0.23139,-0.19203 -0.46651,-0.30243 -0.52248,-0.24531 -0.0888,0.0906 -1.20836,6.05876 -1.20836,6.44143 0,0.22975 0.25738,0.17296 1.16226,-0.25644 z m -1.95897,-3.50302 0.67986,-3.50416 h -0.60303 c -0.33167,0 -0.85158,0.24854 -1.15535,0.55231 -0.45268,0.45269 -0.5362,0.81069 -0.46302,1.98474 0.0829,1.32931 0.0471,1.43239 -0.49671,1.43206 -0.3223,-2e-4 -0.70926,-0.23066 -0.8599,-0.51213 -0.47151,-0.88103 -0.32427,-2.91613 0.28194,-3.897 0.60163,-0.97346 2.21383,-1.94123 3.23388,-1.94123 0.58843,0 0.66948,-0.17245 1.08809,-2.31511 0.24876,-1.2733 0.51727,-2.61276 0.5967,-2.97656 0.11001,-0.50388 -0.49692,-0.0312 -2.54779,1.98438 -4.28708,4.21324 -5.45185,6.364 -4.78588,8.83721 0.46208,1.71606 2.8933,4.1258 3.96516,3.93015 0.27275,-0.0498 0.5859,-1.09984 1.06605,-3.57466 z m -46.2546,12.59687 c -1.35017,-0.66832 -2.41364,-2.14142 -2.61164,-3.61758 -0.31056,-2.31539 1.37933,-5.02842 3.74642,-6.0147 1.30794,-0.54497 3.8269,-0.5645 4.88258,-0.0379 l 0.79859,0.39839 0.0755,-9.64219 c 0.0644,-8.22659 0.13376,-9.679 0.47237,-9.89288 0.82027,-0.51813 1.31713,-0.24233 2.27449,1.26256 0.53232,0.83674 2.42404,3.0183 4.20384,4.8479 2.59974,2.67248 3.4299,3.71889 4.22223,5.32206 1.68709,3.41359 1.57536,7.2636 -0.30385,10.47023 -0.83418,1.42343 -1.5641,1.86571 -2.13571,1.2941 -0.36829,-0.36829 -0.33663,-0.56867 0.32157,-2.03534 0.64645,-1.44047 0.71859,-1.874 0.62978,-3.78451 -0.15608,-3.35744 -1.38927,-5.25595 -5.06418,-7.79642 l -1.97097,-1.36253 -0.19208,8.13085 c -0.20937,8.86302 -0.27662,9.2693 -1.80009,10.87523 -1.94351,2.04868 -5.21972,2.73557 -7.54884,1.58269 z m 1.21225,-6.30855 c 0.47294,-0.28836 0.85989,-0.63594 0.85989,-0.77241 0,-0.13646 0.36635,-0.61446 0.81411,-1.06222 l 0.8141,-0.8141 h -1.01667 c -1.82636,0 -3.86726,1.62892 -3.43905,2.74483 0.22077,0.57532 0.92264,0.54104 1.96762,-0.0961 z m 71.10309,5.17685 -0.65778,-0.65778 v -9.42213 c 0,-6.24338 0.0965,-9.60234 0.28588,-9.9563 0.15723,-0.29379 0.70714,-0.71018 1.22201,-0.92531 0.93498,-0.39066 0.93598,-0.3929 0.81648,-1.83383 -0.13393,-1.61505 0.26918,-2.29302 1.06495,-1.79106 0.32165,0.20289 0.43618,0.68008 0.44084,1.83674 l 0.006,1.56263 9.87935,0.13229 9.87935,0.13229 0.50555,0.62463 c 0.47661,0.58888 0.50554,1.16636 0.50554,10.091 0,8.92502 -0.0289,9.5021 -0.5056,10.091 l -0.5056,0.62462 -11.13975,0.0745 -11.13974,0.0745 z m 19.66222,-1.5285 c 0.53243,-0.53242 0.3942,-1.53458 -0.21167,-1.53458 -0.29264,0 -0.52916,0.17639 -0.52916,0.39463 0,0.21705 -0.23813,0.54335 -0.52917,0.7251 -0.29104,0.18176 -0.52917,0.4209 -0.52917,0.53141 0,0.32435 1.45236,0.23025 1.79917,-0.11656 z m 2.63621,-8.47498 0.0697,-8.6531 -0.59892,-0.33919 c -0.46955,-0.26592 -2.74202,-0.31061 -10.52079,-0.20689 l -9.92188,0.13229 -0.0714,5.62239 c -0.0393,3.09232 0.0322,5.6224 0.15882,5.6224 0.26797,0 0.57405,-3.81917 0.57405,-7.16276 0,-1.27543 0.0609,-2.47753 0.13539,-2.67133 0.13085,-0.34056 1.90904,-0.36379 17.65784,-0.2307 l 1.25677,0.0106 0.004,7.73906 c 0.002,4.25649 0.0769,8.01272 0.1665,8.34719 0.10011,0.37376 0.32815,0.57633 0.5917,0.52562 0.38322,-0.0737 0.43623,-1.00245 0.49856,-8.7356 z m -8.99094,8.11699 c 1.7799,-0.74351 3.17509,-2.49676 3.61729,-4.54562 0.44334,-2.05417 -1.16931,-4.83177 -3.48036,-5.99453 -1.12813,-0.56759 -3.39088,-0.53263 -4.72426,0.073 -1.46954,0.66749 -2.91522,2.42611 -3.29468,4.00786 -0.60481,2.52113 0.90735,5.35476 3.44174,6.44948 1.20776,0.52169 3.2043,0.52609 4.44027,0.01 z m -3.37672,-3.10394 c -2.24657,-1.1367 -1.34863,-4.68723 1.18541,-4.68723 1.19187,0 2.51354,1.17875 2.51354,2.24174 0,1.09602 -0.69847,2.17119 -1.61894,2.49207 -1.05637,0.36825 -1.26959,0.36348 -2.08001,-0.0466 z m -4.48574,-9.45904 c 0.95433,-0.51075 0.3678,-2.00928 -0.70393,-1.79848 -0.81191,0.15969 -1.0693,0.91865 -0.5181,1.52771 0.57241,0.63251 0.55381,0.62839 1.22203,0.27077 z m 13.32227,-0.0743 c 0.94289,-0.68946 -0.11394,-2.22911 -1.10268,-1.60644 -0.63106,0.39741 -0.70846,1.00997 -0.19276,1.52567 0.51954,0.51954 0.68156,0.52964 1.29544,0.0808 z m 20.10358,14.78983 c -0.45116,-0.19792 -0.89765,-0.56142 -0.99219,-0.80779 -0.0945,-0.24636 -0.17189,-4.54585 -0.17189,-9.55442 v -9.10648 h 13.89063 13.89062 v 0.79375 0.79375 h -1.94555 -1.94555 l -0.17112,2.02429 c -0.0941,1.11336 -0.17111,3.31602 -0.17111,4.89479 v 2.8705 h -0.79375 -0.79375 v 3.30729 3.30729 h 2.91042 2.91041 v 0.76507 c 0,0.573 -0.14945,0.80235 -0.59531,0.9136 -0.32742,0.0817 -6.13172,0.15071 -12.89844,0.15338 -9.8034,0.004 -12.46979,-0.0683 -13.12342,-0.35502 z m 5.71509,-4.75125 v -3.27422 l -0.79375,-0.15875 -0.79375,-0.15875 v -4.78174 -4.78173 l -1.65365,0.0788 -1.65364,0.0788 -0.0742,7.54062 c -0.0408,4.14735 -0.009,7.80852 0.0712,8.13594 0.13733,0.56238 0.27682,0.59531 2.52158,0.59531 h 2.37621 z m 6.87917,-0.0147 c 0,-3.20926 -0.0144,-3.29093 -0.59532,-3.37343 -0.70891,-0.10069 -0.65364,0.3166 -0.69453,-5.24393 l -0.0331,-4.49791 h -1.5875 -1.5875 v 4.86539 c 0,4.47132 -0.0375,4.86242 -0.46302,4.82864 -0.41516,-0.0329 -0.47067,0.31193 -0.53707,3.33669 l -0.074,3.37344 h 2.78603 2.78603 z m 6.87916,-0.0184 c 0,-2.76343 -0.0653,-3.30729 -0.39687,-3.30729 -0.33848,0 -0.39688,-0.72026 -0.39688,-4.89479 v -4.89479 h -1.71979 -1.71979 v 4.89479 4.89479 h -0.66146 -0.66146 v 3.30729 3.30729 h 2.77813 2.77812 z m -76.77268,4.25713 -0.70497,-0.62094 0.63883,-0.29107 c 0.35135,-0.16009 0.63882,-0.47221 0.63882,-0.69361 0,-0.55326 0.11184,-0.51398 0.97184,0.34134 l 0.74795,0.74389 -0.7033,0.57902 c -0.38682,0.31847 -0.74401,0.57527 -0.79375,0.57067 -0.0497,-0.005 -0.40768,-0.28778 -0.79542,-0.6293 z m -39.81221,-0.81578 c -0.0916,-0.23881 -0.0397,-0.56108 0.11531,-0.71614 0.40312,-0.40312 1.16692,-0.0347 1.06162,0.5121 -0.11729,0.60904 -0.96511,0.75603 -1.17693,0.20404 z m 3.71193,0.0202 c -0.18067,-0.47083 0.0351,-1.21476 0.3506,-1.20858 0.1137,0.002 0.38533,0.1179 0.60361,0.25705 0.30125,0.19204 0.32857,0.36259 0.11339,0.70781 -0.39384,0.63184 -0.87639,0.742 -1.0676,0.24372 z m 34.92142,-5.03642 c -0.30729,-0.80079 0.20087,-0.93871 3.45864,-0.93871 2.52846,0 3.29488,0.0821 3.40329,0.36463 0.29234,0.76182 -0.44246,0.95829 -3.58411,0.95829 -2.49261,0 -3.16042,-0.0783 -3.27782,-0.38421 z m -21.09082,-0.0568 c -0.49885,-0.49885 -0.11575,-0.88194 0.88195,-0.88194 0.88194,0 1.05833,0.0882 1.05833,0.52917 0,0.42333 -0.17639,0.52916 -0.88194,0.52916 -0.48507,0 -0.96132,-0.0794 -1.05834,-0.17639 z m -37.30094,-3.62673 c -0.19328,-0.50369 0.47983,-1.06673 1.02511,-0.85749 0.23089,0.0886 0.38002,0.36981 0.3314,0.62492 -0.11087,0.58168 -1.15392,0.76051 -1.35651,0.23257 z m 35.87523,-0.72704 c -0.16325,-0.16325 -0.23386,-0.4609 -0.1569,-0.66145 0.10792,-0.28125 0.85303,-0.36464 3.25831,-0.36464 2.40527,0 3.15038,0.0834 3.2583,0.36464 0.28549,0.74395 -0.44325,0.95828 -3.2583,0.95828 -1.72004,0 -2.91937,-0.11479 -3.10141,-0.29683 z m 24.10403,-0.0874 c -0.30589,-0.79715 0.20125,-0.93871 3.36296,-0.93871 2.6604,0 3.19372,0.0678 3.33023,0.42358 0.27244,0.70995 -0.44791,0.89106 -3.56089,0.89529 -2.36809,0.003 -3.01533,-0.0753 -3.1323,-0.38016 z m -56.37172,-3.56136 c -0.43741,-1.0353 -0.73099,-1.35407 -1.50487,-1.6339 -0.99356,-0.35928 -1.28077,-0.77053 -0.53812,-0.77053 0.60742,0 2.2225,-1.69987 2.2225,-2.33918 0,-0.297 0.11907,-0.61359 0.26459,-0.70353 0.14552,-0.0899 0.26503,0.0519 0.26557,0.31511 0.002,0.88021 0.99688,2.14232 1.96505,2.49241 1.0278,0.37166 1.2487,0.76436 0.42996,0.76436 -0.76285,0 -1.84256,1.05601 -2.22488,2.17606 l -0.33638,0.98544 z m 32.28619,-0.95857 c -0.29917,-0.77961 0.31291,-0.93575 3.36979,-0.85962 2.81895,0.0702 3.02041,0.11051 3.02041,0.60438 0,0.49497 -0.20125,0.53399 -3.11392,0.60376 -2.65449,0.0636 -3.13787,0.0122 -3.27628,-0.34852 z m 23.81231,-4.9e-4 c -0.3024,-0.78805 0.31517,-0.93396 3.63399,-0.85856 3.08429,0.0701 3.28556,0.10706 3.28556,0.60381 0,0.49768 -0.20108,0.53358 -3.37869,0.60326 -2.8951,0.0635 -3.4019,0.0136 -3.54086,-0.34851 z m 2.15613,-4.88786 c -0.0929,-0.29263 -0.54738,-0.72855 -1.01001,-0.96869 -0.58367,-0.30297 -0.71966,-0.47437 -0.44427,-0.55994 0.59544,-0.18502 1.5875,-1.1582 1.5875,-1.55729 0,-0.59207 0.37353,-0.38842 0.86214,0.47002 0.2559,0.44959 0.70844,0.88103 1.00565,0.95875 0.49122,0.12846 0.46438,0.18754 -0.29507,0.64939 -0.45951,0.27944 -0.89617,0.74022 -0.97037,1.02395 -0.17444,0.66708 -0.52113,0.65945 -0.73557,-0.0162 z m -52.39372,-0.009 c -0.18003,-0.2913 0.0656,-0.78219 0.39133,-0.78219 0.12136,0 0.28541,0.16874 0.36455,0.37497 0.16384,0.42697 -0.51698,0.79376 -0.75588,0.40722 z m 31.09569,-1.17115 c 0,-0.21392 -0.3604,-0.6554 -0.80087,-0.98106 l -0.80087,-0.59211 0.66521,-0.34854 c 0.36587,-0.1917 0.741,-0.65046 0.83361,-1.01948 l 0.1684,-0.67093 0.4981,0.81906 c 0.27395,0.45048 0.7101,0.90424 0.96921,1.00835 0.41162,0.16538 0.34456,0.31462 -0.53083,1.18148 -0.608,0.60207 -1.00196,0.83925 -1.00196,0.60323 z m 75.29858,0.0582 c 0.50815,-0.89321 1.04866,-1.25677 1.86846,-1.25677 0.88235,0 0.88504,-0.004 0.88504,-1.28684 0,-1.62401 0.83627,-2.57799 2.47077,-2.81857 0.60561,-0.0891 4.95079,-0.12462 9.65596,-0.0788 l 8.55485,0.0832 0.77171,0.86407 c 0.60937,0.6823 0.77171,1.11366 0.77171,2.05052 0,1.12077 0.0407,1.18646 0.73488,1.18646 0.86336,0 1.91095,0.66092 1.91095,1.20562 0,0.32793 -1.96434,0.38188 -13.90624,0.38188 -11.04895,0 -13.86758,-0.068 -13.71809,-0.33073 z m 23.48756,-1.65595 c 0.0842,-0.21954 0.0499,-0.67092 -0.0764,-1.00306 -0.50107,-1.31793 -0.59497,-1.33262 -8.96705,-1.40315 -4.31977,-0.0364 -8.2865,0.0449 -8.81494,0.18073 -0.69909,0.17965 -1.04964,0.46135 -1.28691,1.03415 -0.67866,1.63843 -0.96453,1.59051 9.48715,1.59051 8.22912,0 9.52556,-0.0536 9.65817,-0.39918 z m -132.8405,-0.0244 -0.58456,-0.63224 0.65071,-0.65071 0.65071,-0.65071 0.64943,0.64943 0.64943,0.64943 -0.66146,0.66146 c -0.3638,0.3638 -0.68581,0.64889 -0.71558,0.63352 -0.0298,-0.0154 -0.31717,-0.31245 -0.63868,-0.66018 z m 17.81262,0.28359 c -0.53388,-0.53388 -0.26006,-1.18297 0.49903,-1.18297 0.75909,0 1.0329,0.64909 0.49902,1.18297 -0.22249,0.22249 -0.44705,0.40453 -0.49902,0.40453 -0.052,0 -0.27653,-0.18204 -0.49903,-0.40453 z m -23.71035,-0.27633 c 0,-0.24639 0.18002,-0.38136 0.4411,-0.33073 0.66378,0.12873 0.75492,0.74701 0.11012,0.74701 -0.325,0 -0.55122,-0.17084 -0.55122,-0.41628 z m 81.42471,-1.39871 c -0.12256,-0.46867 0.0466,-0.53551 1.75158,-0.692 1.03799,-0.0953 4.86382,-0.47217 8.50184,-0.83755 8.00321,-0.8038 10.22547,-0.6649 9.73679,0.60856 -0.0749,0.1951 -0.32236,0.35473 -0.55,0.35473 -0.22763,0 -0.60184,0.16325 -0.83158,0.36279 -0.32699,0.28399 -2.3785,0.40183 -9.44534,0.54252 -8.8227,0.17565 -9.03071,0.16795 -9.16329,-0.33905 z m -63.16846,-12.24521 c 3.53648,-2.69063 4.73782,-8.01133 2.78619,-12.33996 -0.88333,-1.9592 -2.96638,-4.03175 -5.25317,-5.22671 l -1.50051,-0.78408 -6.3e-4,-3.90261 c -3.4e-4,-2.14643 0.0998,-3.9026 0.22254,-3.9026 0.12274,0 0.86688,0.21956 1.65364,0.48791 2.06069,0.70287 3.07245,0.92667 2.7534,0.60905 -0.36644,-0.36481 -5.09514,-2.41988 -5.56812,-2.41988 -0.32378,0 -0.385,0.81993 -0.385,5.15605 v 5.15605 l 1.87307,0.94326 c 3.55921,1.79239 5.39643,4.24267 5.71157,7.61742 0.37735,4.0409 -2.07894,7.66085 -5.60027,8.25339 l -1.05833,0.17809 1.38285,-0.70812 c 1.49883,-0.7675 2.4185,-1.71284 3.32157,-3.41428 0.81783,-1.54084 0.82292,-4.86654 0.01,-6.38082 -2.52348,-4.69931 -8.48895,-5.50237 -11.91989,-1.60461 -2.11494,2.40269 -2.48026,5.57822 -0.96253,8.36678 0.80949,1.48731 2.49925,2.95049 3.96664,3.43477 0.7468,0.24647 0.86067,0.37269 0.60938,0.67548 -0.16998,0.20481 -0.56236,0.37397 -0.87196,0.37591 -0.94261,0.006 -8.74219,-1.64313 -9.09573,-1.92309 -0.25545,-0.20229 -0.33073,-2.86722 -0.33073,-11.70815 v -11.44625 l 1.38906,-0.55369 c 0.76399,-0.30453 3.63938,-1.32249 6.38977,-2.26212 l 5.0007,-1.70842 5.05346,1.98979 c 2.77941,1.09438 5.32136,2.16078 5.64878,2.36977 l 0.59531,0.37999 v 11.47497 c 0,10.68187 -0.032,11.48772 -0.46302,11.65945 -0.3831,0.15264 -2.19608,0.72504 -6.01927,1.90043 -0.29104,0.0895 0.007,-0.24495 0.66146,-0.74317 z m -9.50016,-18.09901 c 2.60779,-1.34854 2.3527,-5.29166 -0.41059,-6.34697 -1.76917,-0.67566 -3.37558,0.031 -4.34368,1.91065 -0.73044,1.41824 0.0327,3.53769 1.57075,4.36257 1.10252,0.59129 2.13639,0.61524 3.18352,0.0738 z m -2.27379,-1.49611 c -0.73646,-0.41461 -0.91732,-0.74635 -0.922,-1.69119 -0.008,-1.54343 1.80253,-2.26932 2.90637,-1.16548 1.33143,1.33143 -0.36238,3.76982 -1.98437,2.85667 z m 13.24119,-0.0665 c 1.16457,-1.16457 0.64913,-3.45563 -0.92403,-4.10726 -0.68468,-0.2836 -0.9053,-0.26736 -1.4795,0.10887 -1.40669,0.9217 -1.3741,2.98245 0.0651,4.11452 0.89662,0.70527 1.54946,0.67285 2.33845,-0.11613 z m -1.81087,-1.10531 c -0.26763,-0.26763 -0.22834,-1.36257 0.0552,-1.5378 0.51691,-0.31946 1.11076,0.1858 1.03038,0.87668 -0.0774,0.66569 -0.70114,1.04553 -1.08555,0.66112 z m 65.64239,21.35951 c -2.36233,-0.26403 -4.04758,-1.29126 -5.04868,-3.0774 -0.62867,-1.12165 -0.72364,-1.55491 -0.64927,-2.96203 0.11293,-2.13642 1.08278,-3.62443 2.97491,-4.5643 1.89109,-0.93934 3.78346,-0.89535 5.65763,0.13155 l 1.42605,0.78136 1.52096,-1.65368 c 1.6855,-1.83259 3.22784,-4.72362 3.67265,-6.88423 0.99394,-4.82785 -0.70529,-9.31811 -4.60613,-12.17183 l -0.79375,-0.58068 1.19062,0.14666 c 0.65485,0.0807 2.1944,0.45878 3.42124,0.84025 9.98117,3.10348 14.23063,14.84524 8.4828,23.43896 -2.84867,4.25912 -7.13863,6.51382 -12.69779,6.67366 -1.52797,0.0439 -3.57602,-0.009 -4.55124,-0.11829 z m 7.12757,-1.50424 c 2.19746,-0.81464 3.60181,-1.6639 5.39232,-3.26096 4.00337,-3.57083 6.11088,-9.26888 5.27067,-14.25023 -0.26979,-1.59946 -1.85919,-5.61642 -2.22226,-5.61642 -0.0639,0 0.19624,0.8632 0.57801,1.91822 0.59819,1.65311 0.69393,2.33877 0.69267,4.96094 -0.001,3.10283 -0.24243,4.30015 -1.38434,6.87917 -1.6185,3.65541 -6.1373,7.97382 -9.84506,9.40847 -0.65485,0.25338 -1.30969,0.57027 -1.45521,0.70421 -0.36427,0.33526 0.9498,0.007 2.9732,-0.7434 z m -0.0985,-4.13281 c 3.86179,-2.6868 6.7913,-6.92884 7.58456,-10.98275 0.17706,-0.90488 0.27122,-2.70592 0.20924,-4.00231 -0.14138,-2.95708 -1.09067,-5.07379 -3.16285,-7.05247 -0.76198,-0.72761 -1.18581,-1.02526 -0.94184,-0.66146 2.27623,3.39429 2.80989,4.92297 2.81716,8.06979 0.0117,5.06932 -1.77925,8.57099 -6.88696,13.4654 -2.83349,2.71517 -2.88568,2.78546 -1.68639,2.27138 0.68067,-0.29177 1.61086,-0.79019 2.06708,-1.1076 z m -42.3396,4.27741 c -2.98914,-0.53033 -6.46998,-2.51042 -8.1892,-4.65845 -1.18606,-1.48188 -2.37781,-3.71336 -2.85116,-5.33859 l -0.41043,-1.4092 0.87378,0.76719 c 2.0455,1.79597 5.26744,1.81202 8.85935,0.0441 1.77898,-0.8756 2.71415,-1.58449 4.80337,-3.64114 l 2.5943,-2.55386 0.94803,4.36562 c 1.25813,5.79358 1.32189,6.30538 0.95729,7.68403 -0.39384,1.48921 -1.60312,3.40749 -2.62379,4.1621 -0.93368,0.6903 -2.98331,0.92914 -4.96154,0.57817 z m 5.82717,-5.03517 c 1.46014,-1.14854 0.55856,-3.68496 -1.30983,-3.68496 -0.6315,0 -1.03629,0.21379 -1.54138,0.81405 -0.88602,1.05297 -0.86463,1.69283 0.0884,2.64588 0.91294,0.91294 1.79674,0.98493 2.76279,0.22503 z m 72.55143,4.47075 c -3.74894,-0.37534 -8.00931,-3.37327 -9.7297,-6.84659 -0.87971,-1.77605 -1.535,-4.22232 -1.535,-5.73033 v -1.13504 h 3.01185 c 2.78933,0 3.02207,0.0391 3.15023,0.52917 0.13118,0.50165 0.008,0.52916 -2.36716,0.52916 h -2.50553 l 0.0829,0.8599 0.0829,0.85989 2.94311,0.0745 c 2.53429,0.0641 3.00859,0.14685 3.41444,0.59531 0.46625,0.5152 0.43809,0.52082 -2.61238,0.52082 -3.58847,0 -3.60171,0.014 -2.2467,2.37715 1.74753,3.0477 5.25506,5.52584 8.56148,6.04886 3.25442,0.51479 6.92065,-0.70014 9.51396,-3.15277 1.56173,-1.47703 2.90424,-3.38774 3.18817,-4.53753 l 0.17767,-0.7195 -3.31318,-0.0743 c -3.04867,-0.0683 -3.28718,-0.10974 -2.98758,-0.51876 0.27513,-0.3756 0.91792,-0.45359 4.14643,-0.50305 l 3.82083,-0.0585 -0.0933,0.7641 c -0.31208,2.55622 -2.51311,6.0038 -4.94458,7.74494 -2.76249,1.97817 -5.95229,2.75367 -9.75889,2.37256 z m -69.64751,-1.73682 c 0.79628,-1.45181 0.83455,-1.65587 0.80679,-4.30222 -0.0249,-2.37471 -0.22152,-3.56577 -1.3539,-8.20209 -0.72862,-2.98317 -1.29881,-5.45581 -1.26709,-5.49474 0.0317,-0.0389 0.81718,0.1238 1.74548,0.36162 1.5707,0.40239 2.68549,0.41034 6.03407,0.043 0.5463,-0.0599 0.70129,0.12707 1.14873,1.38594 0.73332,2.06316 0.91093,5.77768 0.37605,7.86465 -0.95464,3.72473 -3.70881,7.40695 -6.75426,9.03015 l -1.57181,0.83777 z m -46.52448,0.68523 c -5.02853,-1.85289 -4.70764,-8.90462 0.46863,-10.29844 3.57297,-0.96211 7.25997,2.72097 6.32115,6.31443 -0.40016,1.53168 -0.97517,2.35033 -2.3185,3.30087 -1.1831,0.83716 -3.21202,1.14715 -4.47128,0.68314 z m 2.62733,-4.51216 c 0.34742,-0.49602 0.35501,-0.66386 0.0508,-1.12448 -0.70359,-1.06545 -2.28129,-0.72216 -2.28129,0.49637 0,1.24109 1.50438,1.66473 2.23046,0.62811 z m 112.974,2.70795 c -1.01307,-0.40983 -1.96279,-1.81771 -1.96279,-2.90965 0,-1.29486 0.66547,-2.10006 1.89879,-2.29748 0.81044,-0.12973 1.08635,-0.0421 1.65364,0.52519 0.7806,0.78059 0.88761,1.87958 0.26902,2.76274 -0.46402,0.66249 -0.29926,0.71618 0.90715,0.29563 0.97998,-0.34163 1.35681,-0.92885 1.35681,-2.11434 0,-1.20445 -0.82453,-3.67867 -1.22592,-3.67867 -1.23501,0 -3.16285,-0.68181 -3.99585,-1.41319 -2.50435,-2.19885 -2.51311,-5.73897 -0.0228,-9.23622 0.50836,-0.71391 0.58096,-1.16989 0.5966,-3.74681 0.0207,-3.415 0.4833,-4.75026 1.84379,-5.3223 1.81291,-0.76227 3.20896,1.09354 3.18987,4.2404 -0.0114,1.88365 -0.55417,3.307 -2.23215,5.8538 l -0.54469,0.82672 1.41828,0.11762 c 1.77461,0.14716 2.85508,0.88473 3.62457,2.47428 0.86543,1.78774 0.57076,3.3175 -0.92765,4.81591 l -1.13599,1.13599 0.49975,1.60568 c 0.87567,2.81356 0.4859,4.79504 -1.13798,5.78509 -0.92062,0.56129 -3.01983,0.70542 -4.0724,0.27961 z m 1.7195,-11.70922 c -0.44127,-1.19679 -0.86524,-2.23859 -0.94216,-2.31511 -0.28777,-0.28627 -1.15263,1.14014 -1.15263,1.90102 0,0.94018 1.49578,2.59007 2.34813,2.59007 0.53504,0 0.52861,-0.0552 -0.25334,-2.17598 z m 2.89832,1.55545 c 0.16248,-0.19577 0.36958,-0.72679 0.46023,-1.18003 0.13686,-0.68431 0.0284,-0.9605 -0.63954,-1.62843 -0.44239,-0.44239 -1.00535,-0.80435 -1.25102,-0.80435 -0.37124,0 -0.41587,0.16422 -0.26426,0.97238 0.23383,1.24641 0.93216,2.99637 1.19572,2.99637 0.11191,0 0.3364,-0.16017 0.49887,-0.35594 z m -2.6337,-12.8811 c 0.64869,-1.50794 0.47545,-2.32417 -0.24327,-1.14615 -0.52963,0.86809 -0.88987,2.47694 -0.55461,2.47694 0.12396,0 0.48301,-0.59886 0.79788,-1.33079 z m -88.21671,15.00285 c -2.00361,-0.78403 -3.0427,-2.15148 -3.0427,-4.00423 0,-1.08338 0.31765,-1.21439 0.73318,-0.30239 0.76538,1.67982 3.33786,2.62935 5.80039,2.14098 l 1.00705,-0.19971 -1.32292,-0.31425 c -2.56673,-0.60969 -4.0617,-1.84688 -4.66504,-3.86063 -0.42649,-1.42351 -0.0318,-2.62424 1.50177,-4.56893 3.55794,-4.51167 10.59431,-6.32759 16.22629,-4.1876 2.32726,0.88428 6.11928,3.84901 6.11928,4.78425 0,0.3655 -2.22349,0.63415 -3.65234,0.4413 -0.68335,-0.0922 -2.4227,-0.52344 -3.86522,-0.95823 -2.94597,-0.88795 -4.52529,-0.98233 -6.30286,-0.37665 -3.30525,1.12621 -4.6648,4.94158 -2.39662,6.72573 0.86092,0.6772 1.53857,0.71532 1.24946,0.0703 -0.11414,-0.25466 -0.25553,-1.00032 -0.3142,-1.65703 -0.0833,-0.93209 0.0192,-1.35403 0.46717,-1.92351 0.97739,-1.24256 3.16032,-1.99643 4.76216,-1.6446 0.62208,0.13663 0.78057,0.3394 0.92267,1.18045 0.22904,1.35567 -0.45127,2.6581 -2.44738,4.68544 -3.37144,3.42419 -7.9062,5.09392 -10.78014,3.96933 z m 95.16615,-2.22077 c 0.0801,-0.41777 0.47408,-0.47948 3.48149,-0.54529 3.13116,-0.0685 3.38422,-0.0381 3.3008,0.39688 -0.0801,0.41777 -0.47407,0.47948 -3.48149,0.54529 -3.13116,0.0685 -3.38422,0.0381 -3.3008,-0.39688 z m -19.23868,-3.44764 c 0.60638,-3.2835 4.15605,-7.65845 7.13168,-8.78979 0.63193,-0.24025 0.68148,-0.20509 0.68148,0.48355 0,0.59979 -0.2527,0.90638 -1.31374,1.59391 -1.22302,0.7925 -3.71334,3.33916 -3.71334,3.79737 0,0.11164 0.72711,0.20298 1.6158,0.20298 1.36471,0 1.59085,0.065 1.45521,0.41851 -0.0883,0.23019 -0.1606,0.46831 -0.1606,0.52917 0,0.0609 -0.81432,0.11065 -1.80961,0.11065 -1.68241,0 -1.8312,0.0474 -2.11667,0.67391 -0.16888,0.37065 -0.30705,0.72784 -0.30705,0.79375 0,0.0659 0.83344,0.11984 1.85208,0.11984 1.6757,0 1.85209,0.0504 1.85209,0.52917 0,0.49428 -0.17639,0.52917 -2.67528,0.52917 h -2.67528 z m 19.19024,0.46302 c 0,-0.48997 0.17639,-0.52917 2.38125,-0.52917 2.45053,0 2.63318,-0.0932 2.10736,-1.07572 -0.24053,-0.44945 -0.57245,-0.51178 -2.72521,-0.51178 -2.299,0 -3.08631,-0.21598 -3.08631,-0.84666 0,-0.11642 1.07156,-0.21167 2.38125,-0.21167 1.30968,0 2.38125,-0.10947 2.38125,-0.24326 0,-0.56398 -2.70739,-3.14152 -4.1948,-3.99362 -1.35285,-0.77501 -1.61156,-1.03939 -1.61817,-1.65365 l -0.008,-0.73116 0.98894,0.41321 c 3.69279,1.54295 7.01845,5.43216 7.62786,8.92046 l 0.17334,0.99219 h -3.20444 c -3.02806,0 -3.20445,-0.0291 -3.20445,-0.52917 z m -123.42812,-20.23858 c -2.06142,-0.72378 -3.30965,-2.8848 -2.94922,-5.10589 0.54142,-3.33634 5.23701,-5.80388 8.47218,-4.45213 0.56318,0.2353 1.06894,0.42783 1.12393,0.42783 0.055,0 0.1,-2.97656 0.1,-6.61458 v -6.61459 l -0.59531,-0.002 c -0.32742,-0.001 -3.04975,0.60225 -6.04961,1.34081 l -5.4543,1.34282 -0.12694,5.20764 c -0.11351,4.65678 -0.18701,5.32496 -0.69482,6.31679 -1.30528,2.5494 -4.66202,3.74946 -6.68135,2.38864 -1.2119,-0.81671 -1.60761,-1.65872 -1.48313,-3.15591 0.12039,-1.44802 1.07981,-2.88393 2.37987,-3.56179 0.91067,-0.47484 3.11936,-0.61965 4.08736,-0.26799 l 0.59532,0.21627 v -6.37351 c 0,-6.35911 0.001,-6.37406 0.59531,-6.62343 1.33035,-0.55853 14.5228,-3.74994 14.90113,-3.60477 0.36092,0.1385 0.3986,1.5514 0.32709,12.2639 l -0.0808,12.10735 -0.79375,1.43481 c -0.92098,1.66478 -2.31626,2.77316 -4.19236,3.3303 -1.61271,0.47892 -2.11519,0.47885 -3.48056,-5.4e-4 z m 0.10512,-5.67607 c 0.25697,-0.13752 1.04877,-0.93076 1.75956,-1.76275 l 1.29234,-1.5127 -1.16942,0.187 c -2.16334,0.34593 -3.95991,1.99975 -3.18571,2.9326 0.39041,0.47042 0.65609,0.50219 1.30323,0.15585 z m -11.1959,-5.2177 1.01152,-1.23442 -0.9135,0.17542 c -0.9566,0.18371 -2.50183,1.59936 -2.2285,2.04163 0.34874,0.56426 1.17532,0.18302 2.13048,-0.98263 z m 12.08297,-12.81088 c 5.21958,-1.29906 5.4901,-1.39736 5.4901,-1.99492 0,-0.3457 -0.14883,-0.62605 -0.33073,-0.62301 -0.1819,0.003 -2.83104,0.63936 -5.88698,1.41404 -5.4623,1.38469 -5.5577,1.4208 -5.6423,2.13528 -0.0709,0.59866 -9.2e-4,0.70106 0.39688,0.58088 0.26561,-0.0802 2.95347,-0.76076 5.97303,-1.51227 z m 73.65866,22.88661 c -4.89481,-1.18491 -8.84331,-5.10704 -10.37968,-10.31036 -0.65654,-2.22353 -0.59936,-6.05955 0.12432,-8.33962 2.85955,-9.0095 13.86387,-12.87487 21.64147,-7.60176 l 1.67932,1.13855 -6.88262,0.0705 -6.88262,0.0705 v 4.51135 c 0,4.33365 -0.0201,4.50498 -0.50975,4.34957 -0.68166,-0.21636 -2.28767,0.47894 -2.64395,1.14466 -0.81426,1.52146 0.18841,3.78011 1.83904,4.14265 1.00587,0.22093 2.64368,-0.5502 3.09461,-1.45702 0.22648,-0.45546 0.33013,-2.20648 0.33282,-5.6224 l 0.004,-4.96093 h 5.29166 5.29167 v 1.01768 c 0,0.55973 -0.0779,2.11583 -0.17322,3.458 -0.16975,2.3914 -0.18561,2.4372 -0.79152,2.28512 -1.03037,-0.25861 -2.44377,0.50854 -2.88572,1.56628 -0.4903,1.17344 -0.29468,1.98826 0.70796,2.94885 1.43565,1.37544 3.82266,0.80628 4.61981,-1.10156 0.27949,-0.66893 0.37658,-2.2276 0.38189,-6.13098 l 0.007,-5.23402 0.77918,0.92604 c 1.07007,1.27176 2.53823,4.33977 2.88668,6.0323 0.36859,1.79036 0.36904,4.41474 10e-4,6.13062 -0.33807,1.57639 -0.61711,1.76665 -4.11937,2.8088 -3.05559,0.90924 -8.0003,1.1565 -10.88098,0.5441 -5.2409,-1.11415 -8.94171,-4.49822 -10.01805,-9.16066 l -0.33714,-1.46037 0.0576,1.98438 c 0.0455,1.56573 0.21617,2.30817 0.80906,3.51916 2.99207,6.11136 12.32157,8.67704 21.00613,5.77683 1.20054,-0.40092 2.18281,-0.64547 2.18281,-0.54344 0,0.60649 -1.89345,2.82737 -2.78854,3.27075 -2.79427,1.38413 -8.48029,1.89363 -11.9647,1.0721 -4.34715,-1.02494 -7.99463,-4.11713 -9.77651,-8.28813 l -0.6408,-1.49998 0.14333,1.43918 c 0.44854,4.50392 5.02273,8.74541 10.74903,9.96721 2.10329,0.44877 6.6951,0.3768 8.39121,-0.13153 1.35284,-0.40545 1.01014,-0.0726 -0.7949,0.77211 -2.85534,1.33617 -6.36984,1.66563 -9.55164,0.89539 z m -43.75412,-0.36765 c -1.33045,-0.31503 -2.18969,-1.00948 -2.73497,-2.21044 -0.62851,-1.38429 -0.63096,-2.14647 -0.0112,-3.4851 0.64221,-1.3871 1.74721,-2.39694 3.17343,-2.90014 1.45246,-0.51246 2.56643,-0.51532 3.99788,-0.0103 0.61867,0.21828 1.16942,0.39688 1.22389,0.39688 0.0545,0 0.099,-3.98382 0.099,-8.85292 v -8.85293 l 0.99218,-0.27657 c 3.8883,-1.08389 12.91373,-3.18423 13.20415,-3.07279 0.28952,0.1111 0.35467,2.02228 0.34994,10.26513 -0.005,9.28128 -0.0467,10.21716 -0.49426,11.18695 -2.06764,4.47997 -8.9497,3.81365 -8.42788,-0.81598 0.34013,-3.0176 3.43853,-4.89534 6.61285,-4.00762 l 0.7276,0.20347 v -5.2967 c 0,-4.34879 -0.0659,-5.29671 -0.36825,-5.29671 -0.47743,0 -10.49152,2.35735 -10.78525,2.53888 -0.12297,0.076 -0.22358,3.54039 -0.22358,7.69864 0,4.97249 -0.10511,7.91128 -0.30707,8.58535 -0.82447,2.75185 -4.32253,4.8436 -7.02849,4.20288 z m 0.61309,-6.55544 c 0.9991,-1.08463 1.08712,-1.26817 0.64266,-1.34002 -1.22327,-0.19775 -3.2931,1.50804 -2.79932,2.30698 0.35171,0.56908 1.0162,0.27115 2.15666,-0.96696 z m 14.07626,-3.96875 c 1.03916,-1.1133 1.11127,-1.26615 0.63172,-1.33897 -1.19705,-0.18176 -2.93893,1.31084 -2.59023,2.21954 0.24725,0.64434 0.74338,0.42127 1.95851,-0.88057 z m 58.54222,10.00278 c -0.28293,-0.28292 -0.59908,-0.96574 -0.70257,-1.51737 -0.24232,-1.29169 0.10037,-16.8012 0.37735,-17.07818 0.11532,-0.11532 6.09618,-0.17877 13.29079,-0.141 l 13.08113,0.0687 0.0696,9.04006 0.0696,9.04007 -0.70059,0.55108 c -0.68674,0.54019 -0.94035,0.55108 -12.83574,0.55108 -11.66633,0 -12.15502,-0.0199 -12.64956,-0.51441 z m 5.93836,-4.24809 v -3.04271 l -0.7276,-0.0837 -0.7276,-0.0837 v -4.87722 -4.87721 h -1.45521 -1.45521 v 8.08049 8.08049 l 2.18281,-0.0769 2.18281,-0.0768 z m 6.08542,0 c 0,-2.95396 -0.0174,-3.04518 -0.59531,-3.12726 -0.59277,-0.0842 -0.59531,-0.10538 -0.59531,-4.96093 v -4.87639 h -1.32292 -1.32292 v 4.89479 c 0,4.7184 -0.0191,4.89479 -0.52916,4.89479 -0.49986,0 -0.52917,0.17639 -0.52917,3.18493 v 3.18493 l 2.4474,-0.0761 2.44739,-0.0761 z m 6.1011,0.0282 c 0.014,-2.69367 -0.0353,-3.02786 -0.46302,-3.13971 -0.43998,-0.11506 -0.4787,-0.51862 -0.4787,-4.98912 v -4.86393 h -1.32292 -1.32292 v 4.89479 4.89479 h -0.66146 -0.66145 v 3.18493 3.18493 l 2.44739,-0.0761 2.4474,-0.0761 z m 5.67286,-4.92297 v -8.06979 h -1.45521 -1.45521 v 4.89479 4.89479 h -0.79375 -0.79375 v 3.175 3.175 h 2.24896 2.24896 z m -23.74635,-11.25306 c -0.56621,-0.22759 -0.59532,-0.37998 -0.59532,-3.11722 0,-2.45208 0.0716,-2.94273 0.48386,-3.31582 0.43579,-0.39438 1.71958,-0.43788 12.92357,-0.43788 11.80976,0 12.46237,0.025 12.88691,0.49414 0.37328,0.41246 0.43472,0.97004 0.37174,3.37343 l -0.0755,2.8793 -5.02708,0.16395 c -7.71755,0.25168 -20.30239,0.22774 -20.96823,-0.0399 z m 4.28447,-2.16729 c 0.89883,-1.28326 0.20479,-2.85155 -1.26194,-2.85155 -1.03098,0 -1.76576,0.67767 -1.76576,1.62851 0,1.59971 2.15433,2.46995 3.0277,1.22304 z m 4.69053,0.15015 c 0.60288,-0.5456 0.62717,-1.87562 0.046,-2.51784 -0.92362,-1.02059 -3.00171,-0.22254 -3.00171,1.15274 0,0.79587 1.01172,1.80299 1.81123,1.80299 0.36336,0 0.87838,-0.19705 1.1445,-0.43789 z m 5.09905,-0.15015 c 0.84487,-1.20622 0.3515,-2.52512 -1.11139,-2.97098 -0.8488,-0.2587 -2.29306,1.17969 -2.04405,2.03575 0.42667,1.46684 2.378,2.04519 3.15544,0.93523 z m 9.45303,0.15015 c 0.64775,-0.5862 0.62791,-1.99556 -0.0366,-2.59689 -1.10807,-1.00279 -2.91919,-0.24358 -2.91919,1.2237 0,1.50759 1.85496,2.36938 2.95573,1.37319 z m -4.959,-0.24247 c 0.49346,-0.49346 0.5435,-1.46733 0.0983,-1.91256 -0.17463,-0.17463 -0.62707,-0.3175 -1.00542,-0.3175 -0.88569,0 -1.32292,0.45037 -1.32292,1.36269 0,1.15449 1.39886,1.69857 2.23006,0.86737 z m -51.31027,-14.13652 c -3.08951,-0.76871 -5.15938,-3.16105 -5.15938,-5.96317 0,-2.23079 1.36439,-3.8097 3.75484,-4.34525 2.79872,-0.62701 3.41212,-1.1399 4.15825,-3.47694 0.43539,-1.36373 1.3607,-2.12612 2.77377,-2.28539 2.14355,-0.24161 2.2541,0.0223 0.69834,1.66733 -1.07498,1.13663 -1.3493,1.59481 -1.2328,2.05899 0.12307,0.49036 -0.31958,1.06471 -2.47712,3.21416 -2.56374,2.55413 -2.63956,2.60572 -3.15008,2.14371 -0.54083,-0.48945 -1.08561,-0.38144 -1.08561,0.21523 0,0.18755 0.71782,1.02568 1.59516,1.86251 1.33575,1.2741 1.65988,1.46781 1.99318,1.19119 0.34933,-0.28991 0.32691,-0.40604 -0.18324,-0.94907 l -0.58126,-0.61873 2.61028,-2.64885 c 1.47702,-1.49885 2.82721,-2.64884 3.10994,-2.64884 0.27482,0 1.14373,-0.55025 1.93092,-1.22277 l 1.43127,-1.22276 v 1.29618 c 0,1.67698 -0.49015,2.34467 -2.313,3.15082 -0.80795,0.35731 -1.6263,0.85683 -1.81855,1.11003 -0.20643,0.27189 -0.35299,1.18452 -0.35796,2.22908 -0.01,2.05186 -0.3024,2.97655 -1.25951,3.97986 -0.98001,1.02731 -3.03418,1.61183 -4.43744,1.26268 z m 40.83798,-0.15094 c -2.09722,-0.64559 -5.06876,-3.26091 -6.20786,-5.46368 -0.64756,-1.25224 -0.7635,-3.22273 -0.26623,-4.52481 0.76206,-1.99543 2.34058,-3.08772 5.02079,-3.47423 1.07781,-0.15543 1.48791,-0.395 2.54673,-1.48778 1.12105,-1.15699 1.38736,-1.30252 2.38368,-1.30252 h 1.12162 l -1.61427,1.72566 c -1.79329,1.91703 -2.10501,2.66305 -1.61106,3.85555 0.30502,0.7364 0.27769,0.86561 -0.3067,1.45001 l -0.64157,0.64156 -0.96343,-0.79413 c -0.87844,-0.72409 -1.80281,-0.85629 -1.80281,-0.25785 0,0.33478 4.0279,3.96254 4.3996,3.96254 0.74284,0 0.64059,-0.63954 -0.24364,-1.52376 l -0.93758,-0.93759 0.53668,-0.72591 0.53669,-0.7259 1.18851,0.52573 c 1.10663,0.48952 2.15589,0.50949 3.33593,0.0635 0.41721,-0.15768 0.55644,5.22495 0.16576,6.4087 -0.53098,1.60888 -2.7962,3.03078 -4.74861,2.98074 -0.36381,-0.009 -1.21531,-0.18745 -1.89223,-0.39583 z m -75.59607,-0.78574 c -4.23981,-0.91997 -7.94798,-3.79923 -9.83097,-7.6334 -2.06375,-4.20221 -2.05312,-8.31271 0.0324,-12.55824 1.76739,-3.59782 4.80889,-6.14971 8.68744,-7.28894 0.7904,-0.23216 1.71313,-0.42211 2.05052,-0.42211 0.86815,0 0.77785,0.74726 -0.11417,0.94476 -6.51364,1.44215 -10.91406,6.6699 -10.91406,12.96601 0,8.6465 8.94958,15.14815 17.09003,12.41549 3.44887,-1.15775 5.82022,-3.11772 7.28654,-6.02249 0.93779,-1.85775 0.85372,-2.3105 -0.12038,-0.64832 -1.55645,2.65587 -5.54201,5.53582 -8.65313,6.2527 -6.79933,1.56676 -13.70561,-3.15584 -14.8673,-10.16644 -0.80561,-4.86166 2.22476,-10.35587 6.9861,-12.66616 2.2856,-1.10901 3.91981,-1.48346 3.91981,-0.89814 0,0.24754 -0.4941,0.49504 -1.38906,0.69578 -5.43481,1.21903 -9.44837,7.17557 -8.4505,12.5414 0.70467,3.78917 3.02504,6.82262 6.55228,8.56587 1.75816,0.86893 2.30518,1.00828 4.34008,1.10557 4.40482,0.21059 8.02687,-1.73941 9.81669,-5.28501 1.03045,-2.04133 0.97424,-2.23463 -0.16004,-0.55033 -1.10058,1.63427 -3.12689,3.31374 -5.1532,4.27113 -1.27901,0.6043 -1.7916,0.68755 -4.23333,0.68755 -2.57201,0 -2.90967,-0.0623 -4.55103,-0.83989 -2.25557,-1.06856 -3.99157,-2.80455 -5.06012,-5.06013 -0.76012,-1.60449 -0.8399,-2.01165 -0.8399,-4.28644 0,-2.19496 0.0931,-2.7124 0.73479,-4.08255 1.42872,-3.05079 3.49264,-4.94461 6.4887,-5.95391 1.92092,-0.64711 1.90464,-0.64547 1.90464,-0.19188 0,0.19525 -0.50602,0.50435 -1.12448,0.6869 -2.8311,0.83563 -4.82456,2.47329 -6.20823,5.10017 -0.66343,1.25952 -0.7367,1.66162 -0.73688,4.0444 -1.8e-4,2.3807 0.0745,2.79166 0.74485,4.10104 0.99636,1.94606 2.61731,3.57369 4.54661,4.56533 1.27493,0.65531 2.00427,0.83888 3.70417,0.93233 2.47202,0.1359 3.77071,-0.15899 5.48329,-1.24508 1.11452,-0.70681 2.85109,-2.67056 2.85109,-3.22407 0,-0.11826 -0.53965,0.30945 -1.19921,0.95047 -3.98933,3.87719 -9.88231,3.82447 -13.42884,-0.12014 -1.48384,-1.65038 -2.1601,-3.49366 -2.15087,-5.86258 0.009,-2.3095 1.14484,-4.7106 3.03021,-6.40571 1.18091,-1.06174 3.16108,-2.02597 4.1606,-2.02597 0.77394,0 0.12126,0.61581 -1.15877,1.0933 -1.76819,0.6596 -3.40046,2.09758 -4.27369,3.76502 -0.97194,1.85591 -1.0238,5.00617 -0.11079,6.72913 1.59967,3.01874 4.23305,4.69623 7.32615,4.66681 2.08286,-0.0198 3.47149,-0.58417 4.86422,-1.97689 1.20253,-1.20254 1.00842,-1.5116 -0.26486,-0.42172 -1.09677,0.9388 -3.03548,1.77 -4.05118,1.73691 -0.3015,-0.01 0.0266,-0.17236 0.72914,-0.36119 1.88027,-0.5054 3.34426,-1.65312 4.20131,-3.2937 1.93097,-3.69631 0.0168,-8.07434 -4.02342,-9.20245 l -1.45521,-0.40633 v -3.87642 -3.87643 l 1.19062,0.0794 c 7.21764,0.4815 12.96459,6.8383 12.96459,14.34037 0,4.00572 -1.43032,7.26893 -4.40631,10.05283 -2.0154,1.88531 -4.1565,3.00036 -6.86165,3.57344 -2.22617,0.47161 -3.6834,0.46887 -5.89534,-0.0111 z m 83.6043,-0.97515 c 0.50771,-0.99519 0.55267,-1.38988 0.40845,-3.58541 l -0.16205,-2.4671 0.91341,-0.80199 c 1.62614,-1.42777 1.67518,-3.08992 0.15417,-5.22597 l -0.52169,-0.73264 3.32144,-3.55149 c 1.82678,-1.95332 3.42118,-3.58904 3.5431,-3.63494 0.27678,-0.10421 1.21129,1.70514 1.88135,3.6426 0.59723,1.72686 0.6992,5.26753 0.20993,7.28877 -0.77811,3.21443 -3.14168,6.62215 -5.75717,8.30051 -1.01051,0.64844 -3.94045,1.88595 -4.4652,1.88595 -0.0529,0 0.16048,-0.50323 0.47426,-1.11829 z m 5.18622,-3.99051 c 1.43956,-1.56174 2.07776,-2.78731 1.66107,-3.18983 -0.23436,-0.22639 -0.48334,-0.0724 -1.01134,0.62571 -0.8909,1.17786 -2.37446,2.68406 -3.19669,3.24547 -0.53007,0.36193 -0.58129,0.5029 -0.30411,0.83688 0.28964,0.349 0.42699,0.3532 1.04804,0.032 0.39309,-0.20328 1.20445,-0.9009 1.80303,-1.55027 z m -1.92681,-1.63441 c 1.35822,-1.39751 1.88411,-2.59498 1.33848,-3.04781 -0.28143,-0.23357 -0.46018,-0.13632 -0.82115,0.44675 -0.25377,0.40992 -0.93271,1.2425 -1.50874,1.85017 -0.67025,0.70706 -0.9898,1.25482 -0.88752,1.52136 0.25333,0.66016 0.64436,0.49981 1.87893,-0.77047 z m -44.82958,6.1717 c 0,-0.25113 0.5206,-0.48848 1.52766,-0.69648 0.84021,-0.17355 1.99992,-0.55631 2.57714,-0.85059 1.05006,-0.53536 1.71603,-0.53215 1.71603,0.008 0,0.4725 -2.80124,1.60813 -4.36484,1.76951 -1.16036,0.11976 -1.45599,0.0729 -1.45599,-0.23069 z m 8.48536,-1.4698 c -0.0231,-0.7226 -1.50205,-2.45625 -2.09662,-2.4576 -0.25997,-5.9e-4 -0.0827,-0.21616 0.43966,-0.53463 0.50442,-0.30754 1.08352,-0.99877 1.36676,-1.6314 l 0.49148,-1.09775 0.39486,0.94502 c 0.21717,0.51977 0.76058,1.21542 1.20759,1.54591 l 0.81274,0.60089 -0.80082,0.487 c -0.44091,0.26814 -1.02466,0.99073 -1.29889,1.60783 -0.36884,0.83002 -0.50292,0.96876 -0.51676,0.53473 z m -94.67295,-1.16133 c -4.20466,-2.08128 -3.71779,-7.80309 0.84475,-9.92765 1.73386,-0.80738 4.34071,-0.86099 5.7957,-0.11919 0.69167,0.35263 1.0241,0.41355 1.08281,0.19844 0.0466,-0.17073 0.3284,-3.97878 0.62622,-8.46233 0.34367,-5.17368 0.65699,-8.29107 0.85762,-8.53281 0.619,-0.74585 1.2394,-0.41588 2.10636,1.12029 0.46597,0.82565 2.17398,2.88123 3.79557,4.56795 2.13662,2.22242 3.17954,3.53917 3.78808,4.78266 1.01489,2.07381 1.4922,4.51719 1.25105,6.4042 -0.36566,2.86132 -1.90059,5.76275 -3.04864,5.76275 -0.83861,0 -0.86981,-0.71439 -0.10558,-2.41732 0.62619,-1.39533 0.70727,-1.8689 0.62133,-3.62862 -0.0725,-1.48414 -0.27334,-2.36861 -0.75315,-3.31664 -0.70756,-1.39802 -3.27651,-3.8989 -4.99194,-4.85968 l -1.06452,-0.59622 -0.13248,0.8608 c -0.0729,0.47344 -0.32207,3.555 -0.55378,6.84792 -0.23171,3.29291 -0.53952,6.4153 -0.68402,6.93863 -0.71718,2.59743 -3.94375,4.93382 -6.81309,4.93342 -0.98959,-1.4e-4 -1.87985,-0.18911 -2.62229,-0.5566 z m 2.19197,-7.77757 1.64528,-1.71979 h -0.98426 c -2.02272,0 -4.54335,2.04258 -3.73,3.0226 0.64138,0.77282 1.38546,0.45695 3.06898,-1.30281 z m 77.2476,5.95127 c -0.27839,-0.45044 5.05055,-5.7702 5.41504,-5.40571 0.17845,0.17846 -0.6368,1.16599 -2.47458,2.99752 -1.84782,1.84153 -2.80579,2.62609 -2.94046,2.40819 z m -35.52158,-2.79406 c -1.58484,-0.78976 -2.83465,-2.11313 -3.57383,-3.78417 -0.6328,-1.43054 -0.53944,-4.14288 0.19252,-5.59286 0.88961,-1.76229 2.63387,-3.21823 4.57435,-3.81823 1.17479,-0.36324 0.63026,0.60513 -0.66146,1.17631 -3.9953,1.76669 -5.23605,6.41679 -2.62628,9.8428 0.8955,1.17558 2.56267,2.26456 3.98836,2.60516 0.74973,0.17911 0.76228,0.19842 0.14508,0.22316 -0.37161,0.0149 -1.28904,-0.27858 -2.03874,-0.65217 z m 54.81943,-0.77596 c -0.10559,-0.29104 -0.48426,-0.84594 -0.84149,-1.2331 -0.64092,-0.69464 -0.64243,-0.70772 -0.11469,-0.99016 0.29414,-0.15742 0.67681,-0.71651 0.85038,-1.24243 l 0.31558,-0.9562 0.47498,1.0609 c 0.27612,0.61675 0.72588,1.14053 1.07428,1.25111 l 0.5993,0.19021 -0.61634,0.32985 c -0.33899,0.18143 -0.82642,0.73242 -1.08318,1.22442 -0.42105,0.80684 -0.48565,0.84267 -0.65882,0.3654 z m -52.36962,0.002 c -0.14552,-0.0482 -0.59501,-0.16063 -0.99886,-0.24981 -1.08836,-0.24035 -2.74456,-1.8718 -3.25378,-3.20515 -0.87749,-2.2977 0.11494,-5.06068 2.26978,-6.31918 2.28685,-1.33559 5.75333,-0.24227 7.07638,2.23186 1.27193,2.37852 0.35593,5.51129 -1.9883,6.80015 -0.96681,0.53154 -2.57835,0.91669 -3.10522,0.74213 z m 2.19875,-2.34398 c 0.89132,-0.4946 1.63396,-1.75923 1.63596,-2.78582 0.004,-1.94659 -2.00349,-3.69952 -3.84148,-3.35471 -1.06654,0.20008 -2.4113,1.39574 -2.65303,2.35888 -0.51402,2.04803 1.07804,4.14749 3.13203,4.13022 0.6134,-0.005 1.39033,-0.16201 1.72652,-0.34857 z m -2.29379,-2.3753 c -0.67107,-0.80858 0.33662,-1.73755 1.1938,-1.10054 0.38879,0.28894 0.42883,0.46107 0.1958,0.84173 -0.37862,0.61847 -0.99573,0.73341 -1.3896,0.25881 z m 48.81918,2.6671 c 0.12252,-0.76398 0.17872,-2.04391 0.12489,-2.84427 -0.18029,-2.68082 -0.16713,-2.99185 0.13093,-3.09435 0.73717,-0.25351 1.20414,4.77153 0.60353,6.49445 -0.15976,0.45828 -0.46859,0.83323 -0.68629,0.83323 -0.32939,0 -0.35843,-0.2331 -0.17306,-1.38906 z m 16.00346,0.58765 c -0.44538,-1.2776 -0.37477,-5.46789 0.12055,-7.15421 0.70003,-2.38328 1.91251,-4.34796 3.81941,-6.18892 2.90071,-2.8004 6.25523,-4.01387 10.44285,-3.77764 2.53749,0.14315 4.32909,0.63468 6.15814,1.6895 l 1.13106,0.65228 -3.50169,3.69616 c -2.55203,2.69376 -3.6122,3.64519 -3.90918,3.50823 -0.22412,-0.10337 -1.0028,-0.23442 -1.73041,-0.29124 -1.58994,-0.12416 -2.66393,0.49021 -4.05615,2.32027 -0.78561,1.03268 -1.07296,1.21337 -2.20271,1.38513 -0.71458,0.10863 -1.74992,0.42743 -2.30074,0.70844 -1.16733,0.59553 -2.85287,2.37468 -3.33416,3.51936 l -0.33541,0.7977 z m 11.20781,-12.19493 c 0.72761,-0.26407 1.79917,-0.48781 2.38125,-0.49718 0.98863,-0.0159 1.02451,-0.0426 0.54475,-0.40552 -0.98156,-0.74241 -3.86988,-0.40404 -4.95819,0.58086 -0.54827,0.49618 -0.33238,1.25833 0.2804,0.98987 0.23588,-0.10334 1.02419,-0.40396 1.75179,-0.66803 z m -1.05833,-2.0876 c 0.72761,-0.25918 2.07151,-0.5554 2.98645,-0.65827 1.38313,-0.15551 1.6118,-0.24936 1.35666,-0.55679 -0.65907,-0.79413 -4.97457,-0.23812 -6.42682,0.82804 -0.62818,0.46118 -0.3799,1.32874 0.3,1.04831 0.25344,-0.10453 1.05611,-0.40211 1.78371,-0.66129 z m 2.51354,14.89624 c -1.47281,-0.54155 -1.80159,-2.30436 -0.63196,-3.38834 1.01467,-0.94036 1.64474,-1.05883 2.4497,-0.46061 1.28769,0.95699 1.07926,3.05441 -0.36345,3.65721 -0.49947,0.2087 -0.94171,0.37004 -0.98277,0.35855 -0.041,-0.0115 -0.25324,-0.0865 -0.47152,-0.16681 z m -51.78243,-0.78569 c -0.29478,-1.05682 -0.19139,-4.5728 0.16067,-5.46426 0.28877,-0.73118 1.06885,-0.86522 0.83725,-0.14386 -0.0642,0.20009 -0.1329,1.66661 -0.15258,3.25894 -0.0234,1.89752 -0.13939,2.92966 -0.33646,2.99536 -0.16538,0.0551 -0.39437,-0.23566 -0.50888,-0.64618 z m 13.15425,-1.00994 c -0.34124,-0.36323 -0.56167,-0.71917 -0.48986,-0.79099 0.0718,-0.0718 0.4716,0.22537 0.8884,0.66042 0.41679,0.43504 0.63723,0.79099 0.48985,0.79099 -0.14738,0 -0.54716,-0.29719 -0.88839,-0.66042 z m -10.21717,-0.28988 c -0.24417,-0.97286 0.33758,-4.18537 0.99395,-5.4887 2.00704,-3.98531 5.57187,-5.92928 10.39708,-5.66974 2.47303,0.13302 4.79282,0.91067 5.09932,1.70942 0.26912,0.7013 -0.1857,0.68329 -1.8369,-0.0727 -1.43354,-0.65637 -1.98292,-0.75999 -4.04039,-0.76204 -2.02291,-0.002 -2.60721,0.10291 -3.8828,0.69735 -3.35466,1.56331 -5.48341,4.65215 -5.71724,8.29576 -0.0911,1.41974 -0.2274,1.97639 -0.48388,1.97639 -0.19637,0 -0.43448,-0.30857 -0.52914,-0.68571 z m 11.01092,-0.50387 c -0.93143,-0.99146 -0.37949,-1.16313 0.59772,-0.18591 0.57982,0.57982 0.71665,0.84633 0.43452,0.84633 -0.2265,0 -0.69101,-0.29719 -1.03224,-0.66042 z m 0.91604,-0.93649 c -0.89073,-0.92973 -0.46587,-1.05365 0.56685,-0.16534 0.408,0.35094 0.60379,0.69061 0.45212,0.78434 -0.14713,0.0909 -0.60567,-0.18761 -1.01897,-0.619 z m 1.10774,-0.53526 c -0.38601,-0.30364 -0.70185,-0.7495 -0.70185,-0.9908 0,-0.32364 0.22203,-0.21671 0.84633,0.40759 0.98439,0.9844 0.88347,1.39179 -0.14448,0.58321 z m 37.92732,-0.38939 c 0,-0.077 1.73278,-1.99545 3.85061,-4.26327 2.11784,-2.26782 3.78687,-4.18706 3.70896,-4.26497 -0.0779,-0.0779 -1.18084,0.97736 -2.45095,2.34505 -3.81803,4.11135 -5.62836,5.89161 -5.80822,5.71175 -0.0937,-0.0937 1.00758,-1.42738 2.44739,-2.96363 5.48596,-5.85344 6.18971,-6.71125 6.18971,-7.54467 0,-0.4326 -0.11906,-0.78654 -0.26458,-0.78654 -0.14552,0 -0.26459,-0.1786 -0.26459,-0.39688 0,-0.21828 0.22522,-0.39687 0.50049,-0.39687 0.31127,0 0.56236,-0.24653 0.66415,-0.65212 0.12085,-0.48149 0.28412,-0.60769 0.624,-0.48232 0.25318,0.0934 0.54466,0.29655 0.64774,0.45147 0.12923,0.19421 0.28912,0.17997 0.51495,-0.0459 0.26031,-0.26031 0.22713,-0.40094 -0.1617,-0.68525 -0.49777,-0.36398 -0.37009,-0.97084 0.20255,-0.96269 0.46537,0.007 2.82866,2.29949 2.82866,2.74437 0,0.21013 0.14048,0.42888 0.31218,0.48611 0.43447,0.14482 0.0616,0.99837 -0.43617,0.99837 -0.22285,0 -0.40518,-0.17859 -0.40518,-0.39688 0,-0.46942 -0.41838,-0.5256 -0.68627,-0.0922 -0.10358,0.1676 0.0204,0.45733 0.27547,0.64386 0.499,0.36487 0.3481,0.9035 -0.25313,0.9035 -0.20246,0 -0.48508,-0.20836 -0.62805,-0.46302 -0.24722,-0.44038 -0.26872,-0.44021 -0.43962,0.003 -0.0988,0.25652 -0.0285,0.64852 0.1562,0.87111 0.52236,0.62941 -0.11137,1.13967 -0.73345,0.59055 -0.66726,-0.589 -1.28619,-0.26692 -2.97081,1.54596 -5.8925,6.34113 -7.42034,7.80335 -7.42034,7.10165 z m 9.35284,-12.15469 c 0.1866,-0.48626 -0.30947,-0.82329 -0.67451,-0.45826 -0.28242,0.28242 -0.0793,0.84667 0.30481,0.84667 0.12136,0 0.28773,-0.17478 0.3697,-0.38841 z m -46.21868,11.85313 c -0.0973,-0.0973 1.2672,-1.64984 3.03225,-3.45005 1.76506,-1.8002 3.13036,-3.35193 3.034,-3.44829 -0.0964,-0.0964 -1.57504,1.29988 -3.28597,3.10275 -2.14151,2.25658 -3.21762,3.21191 -3.45367,3.06603 -0.24374,-0.15064 0.61263,-1.17866 2.96169,-3.55531 2.73908,-2.77127 3.3587,-3.54567 3.62092,-4.52545 0.22698,-0.84812 0.23435,-1.2094 0.0261,-1.27882 -0.42993,-0.14331 -0.35231,-0.84642 0.0934,-0.84642 0.21105,0 0.50653,0.20836 0.65662,0.46302 0.23797,0.40377 0.30674,0.41223 0.53738,0.0661 0.1907,-0.28616 0.14776,-0.48423 -0.15395,-0.71 -0.4556,-0.34094 -0.28235,-0.8775 0.28333,-0.8775 0.19412,0 0.42148,0.17859 0.50524,0.39687 0.2213,0.5767 0.69807,0.48634 0.69807,-0.13229 0,-0.29104 -0.11906,-0.52916 -0.26458,-0.52916 -0.40144,0 -0.31622,-0.52597 0.11183,-0.69022 0.20703,-0.0795 0.62375,0.0731 0.92605,0.33903 0.30229,0.26591 0.78774,0.69184 1.07879,0.9465 0.29104,0.25466 0.52916,0.71778 0.52916,1.02916 0,0.31138 0.20836,0.72584 0.46302,0.92102 0.40475,0.3102 0.41307,0.38818 0.0661,0.61954 -0.28941,0.19301 -0.48926,0.14099 -0.73805,-0.19212 -0.29729,-0.39804 -0.37323,-0.40592 -0.59037,-0.0612 -0.17203,0.27308 -0.12782,0.48656 0.14274,0.68934 0.21556,0.16156 0.39193,0.42945 0.39193,0.59531 0,0.45315 -0.73333,0.36254 -1.00576,-0.12427 -0.21567,-0.38538 -0.25506,-0.3822 -0.41459,0.0335 -0.097,0.25266 -0.0364,0.62792 0.13458,0.83393 0.23875,0.28768 0.23568,0.44866 -0.0132,0.69407 -0.25368,0.25009 -0.39936,0.21763 -0.67049,-0.14939 -0.58446,-0.79119 -1.39831,-0.2096 -4.87012,3.48029 -1.79617,1.909 -3.35346,3.4709 -3.46064,3.4709 -0.10718,0 -0.27449,-0.0796 -0.37181,-0.17694 z m 8.97432,-2.491 c -0.51854,-1.29597 -0.52394,-1.56539 -0.0313,-1.56539 0.72295,0 1.46415,2.22325 0.8232,2.4692 -0.24962,0.0958 -0.5115,-0.2031 -0.79186,-0.90381 z m -23.70223,-3.02534 c 0,-0.23806 -0.36271,-0.79555 -0.80603,-1.23887 -0.77464,-0.77464 -0.78636,-0.81981 -0.30105,-1.15973 0.27774,-0.19454 0.6549,-0.71564 0.83813,-1.158 0.35614,-0.8598 0.79812,-1.07414 0.79812,-0.38706 0,0.22948 0.33736,0.75459 0.74969,1.16692 l 0.74969,0.7497 -0.74969,0.70759 c -0.41233,0.38917 -0.74969,0.86906 -0.74969,1.06642 0,0.19736 -0.11907,0.43242 -0.26459,0.52235 -0.14552,0.0899 -0.26458,-0.0312 -0.26458,-0.26932 z m 2.25792,-3.24231 c -0.21621,-0.56343 0.43862,-1.1971 2.18862,-2.1179 2.1861,-1.15027 2.69721,-1.27054 2.69721,-0.63469 0,0.32766 -0.23556,0.57744 -0.64038,0.67904 -0.35221,0.0884 -1.41687,0.68142 -2.36591,1.31782 -1.37957,0.9251 -1.7564,1.07662 -1.87954,0.75573 z m 8.61059,-0.7217 c -0.0365,-0.85514 -1.0208,-2.23975 -1.80665,-2.54133 l -0.72749,-0.27919 0.79375,-0.4178 c 1.01551,-0.53451 1.39547,-1.04142 1.61526,-2.15494 l 0.17673,-0.89535 0.63125,1.32818 c 0.42842,0.90139 0.90377,1.46015 1.47932,1.7389 l 0.84806,0.41073 -0.65552,0.25055 c -0.82756,0.31632 -1.42342,0.98334 -1.93257,2.16338 -0.28431,0.65892 -0.40608,0.7734 -0.42214,0.39687 z m 5.73409,-1.13744 c -1.40068,-0.61138 -2.03777,-1.3761 -1.14641,-1.3761 0.56449,0 2.71463,0.97063 2.93307,1.32407 0.41074,0.6646 -0.33357,0.68628 -1.78666,0.052 z"
       id="path1"
       clip-path="url(#clipPath2)"
       transform="matrix(0.5041324,0,0,0.5041324,38.381068,10.716587)" /></g></svg>
