<?xml version="1.0" encoding="UTF-8" standalone="no"?>
<!-- Created with Inkscape (http://www.inkscape.org/) -->

<svg
   width="5.2184477mm"
   height="9.5903301mm"
   viewBox="0 0 5.2184476 9.5903301"
   version="1.1"
   id="svg1"
   xml:space="preserve"
   sodipodi:docname="rect9.svg"
   inkscape:version="1.3.2 (091e20e, 2023-11-25, custom)"
   xmlns:inkscape="http://www.inkscape.org/namespaces/inkscape"
   xmlns:sodipodi="http://sodipodi.sourceforge.net/DTD/sodipodi-0.dtd"
   xmlns="http://www.w3.org/2000/svg"
   xmlns:svg="http://www.w3.org/2000/svg"><sodipodi:namedview
     id="namedview1"
     pagecolor="#ffffff"
     bordercolor="#000000"
     borderopacity="0.25"
     inkscape:showpageshadow="2"
     inkscape:pageopacity="0.0"
     inkscape:pagecheckerboard="0"
     inkscape:deskcolor="#d1d1d1"
     inkscape:document-units="mm"
     showguides="true"
     inkscape:zoom="1.3978784"
     inkscape:cx="-613.07191"
     inkscape:cy="404.18393"
     inkscape:window-width="1366"
     inkscape:window-height="714"
     inkscape:window-x="-8"
     inkscape:window-y="-8"
     inkscape:window-maximized="1"
     inkscape:current-layer="layer1"><sodipodi:guide
       position="-24.386982,206.99588"
       orientation="0,-1"
       id="guide14"
       inkscape:locked="false" /><sodipodi:guide
       position="-25.144082,221.0188"
       orientation="0,-1"
       id="guide15"
       inkscape:locked="false" /></sodipodi:namedview><defs
     id="defs1" /><g
     inkscape:label="Layer 1"
     inkscape:groupmode="layer"
     id="layer1"
     transform="translate(162.51149,-144.05754)"><path
       style="fill:#f9f9f9;stroke-width:0.0302567"
       d="m -161.07221,151.46153 v -2.18543 l -0.71849,-0.002 -0.71849,-0.002 -0.002,-0.98017 c -0.001,-0.77885 3e-5,-0.98148 0.008,-0.98655 0.005,-0.003 0.32976,-0.006 0.72052,-0.006 l 0.71048,-1.3e-4 v -0.51587 c 0,-0.33529 0.003,-0.51761 0.008,-0.52083 0.004,-0.003 0.008,-0.0386 0.008,-0.08 0,-0.0414 0.003,-0.0773 0.008,-0.0801 0.004,-0.003 0.008,-0.0192 0.008,-0.0367 0,-0.0174 0.003,-0.0379 0.008,-0.0455 0.004,-0.008 0.01,-0.0309 0.0124,-0.0517 0.003,-0.0208 0.008,-0.0399 0.0124,-0.0425 0.004,-0.003 0.008,-0.0151 0.008,-0.0277 0,-0.0127 0.003,-0.0253 0.008,-0.028 0.004,-0.003 0.008,-0.0171 0.008,-0.0321 0,-0.0148 0.003,-0.0293 0.008,-0.032 0.004,-0.003 0.008,-0.0148 0.008,-0.0269 0,-0.0121 0.005,-0.029 0.0118,-0.0376 0.006,-0.009 0.0119,-0.0254 0.012,-0.0377 1.5e-4,-0.0122 0.003,-0.0284 0.007,-0.036 0.004,-0.008 0.0105,-0.0229 0.0148,-0.0339 0.004,-0.011 0.0173,-0.0408 0.0289,-0.0662 0.0116,-0.0255 0.0212,-0.0516 0.0212,-0.0581 0,-0.007 0.003,-0.0118 0.007,-0.0118 0.004,0 0.009,-0.01 0.0113,-0.022 0.006,-0.034 0.0239,-0.0757 0.043,-0.10241 0.01,-0.0133 0.0267,-0.0439 0.0382,-0.068 0.0115,-0.0241 0.0241,-0.0491 0.028,-0.0557 0.004,-0.007 0.0128,-0.0246 0.0196,-0.04 0.007,-0.0155 0.0233,-0.0395 0.0367,-0.0536 0.0133,-0.0141 0.0243,-0.0312 0.0243,-0.038 0,-0.007 0.003,-0.0125 0.008,-0.0125 0.004,0 0.008,-0.007 0.008,-0.0146 0,-0.008 0.009,-0.0231 0.02,-0.0334 0.011,-0.0103 0.02,-0.0229 0.02,-0.028 0,-0.005 0.0119,-0.0233 0.0265,-0.0406 0.0146,-0.0173 0.0351,-0.044 0.0455,-0.0595 0.0105,-0.0155 0.0365,-0.0473 0.0576,-0.0707 0.0211,-0.0235 0.0385,-0.0479 0.0385,-0.0542 0,-0.006 0.009,-0.015 0.02,-0.0191 0.011,-0.004 0.02,-0.0131 0.02,-0.0198 0,-0.007 0.003,-0.0122 0.007,-0.0122 0.0112,0 0.0492,-0.0358 0.0492,-0.0463 0,-0.005 0.003,-0.01 0.008,-0.01 0.004,0 0.008,-0.005 0.008,-0.012 0,-0.007 0.003,-0.012 0.007,-0.012 0.004,0 0.0263,-0.019 0.05,-0.0423 0.0238,-0.0233 0.0588,-0.0527 0.0778,-0.0655 0.019,-0.0128 0.0436,-0.034 0.0547,-0.0472 0.0177,-0.0211 0.0842,-0.0692 0.0956,-0.0692 0.002,0 0.0157,-0.0109 0.0297,-0.0243 0.0141,-0.0134 0.0373,-0.03 0.0516,-0.0369 0.0143,-0.007 0.026,-0.0157 0.026,-0.0194 0,-0.004 0.0243,-0.018 0.054,-0.0317 0.0297,-0.0137 0.0612,-0.0312 0.07,-0.0388 0.0248,-0.0215 0.0994,-0.0569 0.12015,-0.0569 0.0102,0 0.0198,-0.003 0.0213,-0.006 0.001,-0.003 0.0243,-0.0163 0.0507,-0.0289 0.0264,-0.0126 0.0543,-0.0261 0.062,-0.03 0.008,-0.004 0.0204,-0.007 0.0284,-0.007 0.008,0 0.0216,-0.005 0.0302,-0.0118 0.009,-0.006 0.027,-0.0119 0.0411,-0.012 0.0141,-1.4e-4 0.0278,-0.004 0.0305,-0.008 0.003,-0.004 0.0174,-0.008 0.0326,-0.008 0.0152,0 0.0348,-0.003 0.0436,-0.008 0.009,-0.004 0.023,-0.0116 0.0318,-0.016 0.009,-0.004 0.0353,-0.008 0.0591,-0.008 0.0286,0 0.0465,-0.004 0.0531,-0.012 0.007,-0.008 0.0254,-0.012 0.0605,-0.012 0.0278,0 0.0528,-0.003 0.0555,-0.008 0.003,-0.005 0.3123,-0.008 0.90112,-0.008 h 0.89616 l -0.002,0.98266 -0.002,0.98267 -0.81255,0.004 c -0.75346,0.004 -0.81454,0.005 -0.8398,0.018 -0.015,0.008 -0.0302,0.014 -0.0337,0.014 -0.0121,0 -0.0749,0.0445 -0.10786,0.0764 -0.018,0.0174 -0.0385,0.0443 -0.0455,0.0597 -0.007,0.0154 -0.0202,0.036 -0.0293,0.0457 -0.009,0.01 -0.0166,0.0241 -0.0167,0.032 -1e-4,0.008 -0.007,0.0234 -0.0158,0.0344 -0.01,0.0122 -0.0157,0.0326 -0.0159,0.0525 -9e-5,0.0179 -0.005,0.0395 -0.012,0.048 -0.01,0.0132 -0.0118,0.0811 -0.012,0.4538 l -2.6e-4,0.43827 0.97065,0.002 0.97066,0.002 v 0.98466 0.98467 l -0.97066,0.002 -0.97065,0.002 v 2.18545 2.18545 h -0.91662 -0.91662 z"
       id="path11"
       inkscape:export-filename=".\facebook.svg"
       inkscape:export-xdpi="96"
       inkscape:export-ydpi="96" /></g></svg>
