<?xml version="1.0" encoding="UTF-8" standalone="no"?>
<!-- Created with Inkscape (http://www.inkscape.org/) -->

<svg
   width="14.071mm"
   height="14.043636mm"
   viewBox="0 0 14.071 14.043636"
   version="1.1"
   id="svg1"
   xml:space="preserve"
   xmlns:inkscape="http://www.inkscape.org/namespaces/inkscape"
   xmlns:sodipodi="http://sodipodi.sourceforge.net/DTD/sodipodi-0.dtd"
   xmlns="http://www.w3.org/2000/svg"
   xmlns:svg="http://www.w3.org/2000/svg"><sodipodi:namedview
     id="namedview1"
     pagecolor="#ffffff"
     bordercolor="#000000"
     borderopacity="0.25"
     inkscape:showpageshadow="2"
     inkscape:pageopacity="0.0"
     inkscape:pagecheckerboard="0"
     inkscape:deskcolor="#d1d1d1"
     inkscape:document-units="mm"
     showguides="true"><sodipodi:guide
       position="105.88364,279.94284"
       orientation="0,-1"
       id="guide23"
       inkscape:locked="false" /><sodipodi:guide
       position="104.88026,297.00029"
       orientation="0,-1"
       id="guide24"
       inkscape:locked="false" /></sodipodi:namedview><defs
     id="defs1" /><g
     inkscape:label="Layer 1"
     inkscape:groupmode="layer"
     id="layer1"
     transform="translate(130.82476,-233.21406)"><path
       style="fill:#fe5d15;fill-opacity:1;stroke-width:0.0490295"
       d="m -130.80072,247.24546 c -0.0262,-0.0131 -0.0268,-0.0206 -0.0212,-0.25461 0.003,-0.13261 0.0109,-0.25095 0.0172,-0.26297 0.007,-0.012 0.0114,-0.0686 0.0114,-0.12572 0,-0.0571 0.006,-0.10746 0.0129,-0.11188 0.007,-0.004 0.0129,-0.0446 0.0129,-0.0894 0,-0.0448 0.004,-0.0857 0.01,-0.091 0.005,-0.005 0.0171,-0.069 0.0262,-0.14162 0.0256,-0.20534 0.0307,-0.23487 0.0432,-0.24807 0.007,-0.007 0.0116,-0.0342 0.0116,-0.0609 0,-0.0268 0.005,-0.0517 0.0113,-0.0555 0.007,-0.004 0.0153,-0.0376 0.0203,-0.075 0.005,-0.0374 0.0135,-0.074 0.019,-0.0813 0.006,-0.007 0.0174,-0.048 0.0266,-0.0905 0.009,-0.0424 0.0212,-0.0862 0.0267,-0.0973 0.0355,-0.071 0.0651,-0.14184 0.0723,-0.17266 0.004,-0.0197 0.0135,-0.0389 0.0198,-0.043 0.007,-0.004 0.0115,-0.0214 0.0115,-0.0388 0,-0.0174 0.006,-0.0317 0.0129,-0.0317 0.007,0 0.0129,-0.011 0.0129,-0.0245 0,-0.0134 0.009,-0.0412 0.0194,-0.0616 0.0107,-0.0204 0.0194,-0.048 0.0194,-0.0611 9e-5,-0.0275 0.0716,-0.0992 0.0989,-0.0992 0.01,0 0.0284,-0.005 0.0408,-0.0113 0.0878,-0.0442 0.1368,-0.0665 0.14641,-0.0665 0.007,0 0.0327,-0.0146 0.059,-0.0325 0.0263,-0.0179 0.0595,-0.0324 0.0739,-0.0324 0.0144,0 0.0446,-0.014 0.067,-0.0312 0.0225,-0.0171 0.0697,-0.0443 0.10499,-0.0604 0.0352,-0.0161 0.0816,-0.0418 0.10302,-0.0571 0.0214,-0.0153 0.06,-0.0376 0.0858,-0.0496 0.0258,-0.0119 0.0542,-0.0306 0.0632,-0.0413 0.009,-0.0108 0.0219,-0.0197 0.0286,-0.0197 0.0129,0 0.13194,-0.0943 0.16764,-0.13297 0.0115,-0.0124 0.0263,-0.0227 0.0328,-0.0227 0.007,0 0.0524,-0.0408 0.1019,-0.0908 0.0496,-0.0499 0.0962,-0.0908 0.10355,-0.0908 0.007,0 0.13592,-0.12259 0.28563,-0.27241 0.1497,-0.14984 0.27822,-0.27242 0.2856,-0.27242 0.0231,0 0.19592,-0.18588 0.21704,-0.23351 0.0549,-0.12373 0.0652,-0.17644 0.0699,-0.35919 0.003,-0.11449 -1.4e-4,-0.18709 -0.008,-0.1921 -0.007,-0.004 -0.013,-0.0244 -0.013,-0.0444 0,-0.02 -0.0156,-0.059 -0.0347,-0.0868 -0.019,-0.0277 -0.0508,-0.0738 -0.0706,-0.10235 -0.0198,-0.0286 -0.17637,-0.19195 -0.34803,-0.36312 -0.17165,-0.17118 -0.31211,-0.31737 -0.31211,-0.32486 0,-0.007 -0.1259,-0.13889 -0.27976,-0.29199 -0.15388,-0.15309 -0.28512,-0.29159 -0.29165,-0.30777 -0.007,-0.0161 -0.0252,-0.0345 -0.0413,-0.0407 -0.0325,-0.0124 -0.0667,-0.0478 -0.0786,-0.0814 -0.0141,-0.0398 -0.12435,-0.0786 -0.19703,-0.0692 -0.082,0.0105 -0.17542,0.0354 -0.17542,0.0466 0,0.005 -0.0233,0.0123 -0.0517,0.0169 -0.0284,0.004 -0.0724,0.0198 -0.0977,0.0341 -0.0253,0.0142 -0.0609,0.0258 -0.079,0.0258 h -0.0331 l 0.007,-0.094 c 0.0152,-0.18209 0.0302,-0.7344 0.0318,-1.15843 0.002,-0.27263 0.007,-0.43357 0.0147,-0.44199 0.009,-0.009 0.0121,-0.19838 0.01,-0.55394 -0.002,-0.29736 0.002,-0.54066 0.007,-0.54065 0.006,0 0.0239,0.0146 0.0403,0.0324 0.0165,0.0179 0.0338,0.0324 0.0385,0.0324 0.004,0 0.0374,0.0204 0.0729,0.0454 0.0355,0.0249 0.0692,0.0454 0.0747,0.0454 0.006,0 0.0712,0.0613 0.14584,0.1362 0.0747,0.0749 0.14246,0.13621 0.15068,0.13621 0.008,0 0.018,0.0116 0.0217,0.0259 0.004,0.0142 0.0175,0.0299 0.0307,0.035 0.0288,0.011 0.0563,0.0367 0.0563,0.0528 0,0.0165 0.0571,0.068 0.0754,0.068 0.008,0 0.0153,0.007 0.0153,0.0162 0,0.009 0.44222,0.45843 0.9827,0.99888 1.02982,1.02976 1.01944,1.02041 1.06809,0.96179 0.0186,-0.0224 0.0443,-0.0645 0.0585,-0.0959 0.0138,-0.0305 0.11265,-0.12972 0.12912,-0.12972 0.0223,0 0.15647,-0.14547 0.16785,-0.18204 0.006,-0.0176 0.0223,-0.0496 0.0374,-0.0709 0.0264,-0.0374 0.0275,-0.0529 0.0275,-0.40474 0,-0.27536 -0.004,-0.36983 -0.0162,-0.38204 -0.0236,-0.0236 -0.0229,-0.32235 6.3e-4,-0.32235 0.009,0 0.0227,0.006 0.0298,0.0129 0.007,0.007 0.0581,0.0167 0.11329,0.0214 0.0552,0.004 0.10345,0.0135 0.1072,0.0195 0.004,0.007 0.0236,0.011 0.0442,0.011 0.0206,0 0.041,0.006 0.0454,0.0129 0.004,0.007 0.0366,0.0129 0.0713,0.0129 0.0348,0 0.0665,0.005 0.0704,0.0114 0.004,0.007 0.0743,0.0156 0.15646,0.0207 0.0822,0.005 0.15266,0.0146 0.15664,0.021 0.004,0.007 0.0357,0.0117 0.0706,0.0117 0.0348,0 0.0669,0.006 0.0714,0.0129 0.004,0.007 0.0394,0.0129 0.0778,0.0129 0.0384,0 0.0734,0.006 0.0778,0.0129 0.004,0.007 0.0274,0.0129 0.0511,0.0129 0.0545,0 0.0851,0.0315 0.0575,0.0592 -0.0233,0.0233 -0.14961,0.0706 -0.18866,0.0706 -0.0157,0 -0.0322,0.006 -0.0366,0.0129 -0.004,0.007 -0.0201,0.0129 -0.0347,0.0129 -0.0568,0 -0.21102,0.0581 -0.25394,0.0957 -0.0287,0.0251 -0.0292,0.0308 -0.0292,0.3209 0,0.1829 0.005,0.29838 0.0129,0.30335 0.007,0.005 0.0129,0.0928 0.0129,0.22053 0,0.12769 0.005,0.21571 0.0129,0.22053 0.007,0.005 0.0129,0.0885 0.0129,0.20756 0,0.10974 0.005,0.20259 0.0109,0.2063 0.007,0.004 0.0151,0.18065 0.0201,0.39318 0.005,0.21256 0.0147,0.39197 0.0215,0.39874 0.007,0.007 0.0123,0.0403 0.0123,0.0746 0,0.0342 0.006,0.0623 0.0129,0.0623 0.007,0 0.0129,0.0166 0.0129,0.0369 0,0.0203 0.009,0.0568 0.0211,0.0811 0.0241,0.0502 0.18418,0.21928 0.20768,0.21928 0.008,0 0.0174,0.004 0.0198,0.01 0.0113,0.0253 0.12451,0.0684 0.19995,0.0762 0.0462,0.005 0.0871,0.0137 0.0909,0.0198 0.004,0.007 0.047,0.0111 0.0962,0.0111 0.0491,0 0.0929,0.006 0.0973,0.0129 0.004,0.007 0.0691,0.0129 0.14918,0.0129 0.0776,0 0.14433,0.005 0.14821,0.0114 0.004,0.007 0.18228,0.0157 0.39643,0.021 0.21415,0.005 0.38936,0.0147 0.38936,0.021 0,0.007 0.0872,0.0114 0.19382,0.0114 0.11523,0 0.19707,0.005 0.20184,0.0129 0.005,0.008 0.11799,0.0129 0.29593,0.0129 h 0.28791 l 0.0357,-0.0377 c 0.0201,-0.0213 0.0357,-0.0525 0.0357,-0.0716 0,-0.0185 0.005,-0.0439 0.0114,-0.0563 0.048,-0.0943 0.0794,-0.18748 0.0794,-0.23557 0,-0.0992 0.0543,-0.15153 0.12419,-0.11968 0.0256,0.0116 0.0315,0.0239 0.0315,0.0657 0,0.0283 0.006,0.055 0.0129,0.0594 0.007,0.004 0.0129,0.0366 0.0129,0.0713 0,0.0348 0.006,0.0669 0.0129,0.0713 0.007,0.004 0.0129,0.0415 0.0129,0.0825 0,0.0409 0.006,0.08 0.012,0.0868 0.007,0.007 0.0161,0.10735 0.0213,0.22348 0.005,0.11614 0.0143,0.21427 0.0204,0.21805 0.007,0.004 0.0111,0.0462 0.0111,0.0943 0,0.0481 0.005,0.093 0.0119,0.0998 0.007,0.007 0.0138,0.0328 0.0162,0.0577 l 0.004,0.0454 -0.14918,-0.004 c -0.60132,-0.0142 -0.8347,-0.0154 -0.84786,-0.004 -0.008,0.007 -0.0381,0.0166 -0.0665,0.0219 -0.0712,0.0133 -0.17445,0.0875 -0.30469,0.21892 -0.0605,0.061 -0.11631,0.11101 -0.12406,0.11101 -0.0159,0 -0.0694,0.0572 -0.0928,0.0992 -0.0131,0.0236 -0.0113,0.0315 0.0112,0.0519 0.0147,0.0132 0.0318,0.0373 0.0379,0.0534 0.007,0.0161 0.026,0.035 0.0441,0.0419 0.0181,0.007 0.0385,0.0273 0.0454,0.0454 0.007,0.0181 0.0258,0.0382 0.0419,0.0446 0.0161,0.007 0.49934,0.4821 1.07367,1.057 0.57434,0.57491 1.05156,1.04529 1.06049,1.04529 0.009,0 0.0162,0.006 0.0162,0.0129 0,0.007 0.0408,0.056 0.0908,0.10852 0.0499,0.0525 0.0908,0.1012 0.0908,0.10805 0,0.007 0.0146,0.0262 0.0324,0.043 0.0179,0.0167 0.0324,0.0375 0.0324,0.0461 0,0.009 0.009,0.0229 0.0194,0.0318 0.053,0.044 0.0254,0.0519 -0.18086,0.0519 -0.11954,0 -0.20354,0.005 -0.20832,0.0129 -0.005,0.008 -0.22041,0.0129 -0.60321,0.0129 -0.3828,0 -0.59806,0.004 -0.60322,0.0129 -0.009,0.0142 -1.20252,0.019 -1.21658,0.005 -0.0123,-0.0123 0.0561,-0.1347 0.0754,-0.1347 0.0189,0 0.058,-0.0695 0.058,-0.10318 0,-0.0118 0.007,-0.0285 0.0158,-0.0371 0.0233,-0.0233 0.0231,-0.20634 -4.4e-4,-0.26179 -0.0209,-0.0493 -0.37434,-0.41512 -0.40111,-0.41512 -0.009,0 -0.0164,-0.008 -0.0164,-0.018 0,-0.01 -0.0408,-0.0551 -0.0909,-0.10054 -0.05,-0.0454 -0.17305,-0.16289 -0.27345,-0.261 -0.10041,-0.0981 -0.18704,-0.17836 -0.19252,-0.17836 -0.016,0 -0.0658,-0.0472 -0.0658,-0.0623 0,-0.007 -0.0275,-0.0361 -0.0611,-0.0633 -0.0901,-0.0731 -1.23622,-1.21428 -1.23622,-1.23082 0,-0.0185 -0.0557,-0.0706 -0.0754,-0.0706 -0.008,0 -0.0154,-0.007 -0.0154,-0.0165 0,-0.0194 -0.2344,-0.25594 -0.25365,-0.25594 -0.007,0 -0.0451,-0.0324 -0.0841,-0.072 -0.0819,-0.0832 -0.13296,-0.11378 -0.15415,-0.0926 -0.0182,0.0182 -0.0192,0.36738 -0.002,0.37857 0.007,0.004 0.0129,0.0503 0.0129,0.10195 0,0.0517 0.006,0.0995 0.0121,0.10625 0.007,0.007 0.0163,0.14532 0.0214,0.30787 0.005,0.16254 0.0143,0.29862 0.0203,0.30237 0.007,0.004 0.011,0.0236 0.011,0.0442 0,0.0206 0.006,0.041 0.0129,0.0454 0.007,0.004 0.0129,0.0217 0.0129,0.0382 0,0.0166 0.009,0.0469 0.0194,0.0674 0.0106,0.0204 0.0194,0.047 0.0194,0.0591 5e-5,0.0121 0.006,0.0255 0.0131,0.0299 0.007,0.004 0.0129,0.0277 0.0129,0.0519 0,0.0241 0.006,0.0475 0.0129,0.0519 0.007,0.004 0.0129,0.0249 0.0129,0.0454 0,0.0206 0.006,0.041 0.0129,0.0454 0.0403,0.0249 -0.0287,0.20496 -0.0902,0.23563 -0.034,0.017 -0.49355,0.47134 -0.49355,0.48801 0,0.006 -0.0146,0.0262 -0.0324,0.0454 -0.0179,0.0193 -0.0473,0.0642 -0.0656,0.1 -0.0182,0.0357 -0.0441,0.0825 -0.0574,0.10392 -0.0133,0.0214 -0.0247,0.0463 -0.0252,0.0553 -5.9e-4,0.009 -0.0214,0.0454 -0.0464,0.0809 -0.025,0.0355 -0.0454,0.073 -0.0454,0.0834 0,0.0104 -0.006,0.0225 -0.0132,0.027 -0.0165,0.0102 -0.098,0.17479 -0.1252,0.25281 -0.0112,0.0321 -0.0303,0.073 -0.0424,0.0908 -0.0122,0.0179 -0.0297,0.0514 -0.0389,0.0746 -0.0104,0.0259 -0.0259,0.0422 -0.0404,0.0422 -0.013,0 -0.027,0.006 -0.0311,0.0121 -0.01,0.016 -0.084,0.0527 -0.10628,0.0527 -0.01,0 -0.0175,0.006 -0.0175,0.012 0,0.007 -0.0322,0.016 -0.0716,0.021 -0.0393,0.005 -0.0747,0.0141 -0.0786,0.0203 -0.004,0.007 -0.021,0.0114 -0.038,0.0114 -0.017,0 -0.0345,0.006 -0.0389,0.0129 -0.004,0.007 -0.0252,0.0129 -0.0461,0.0129 -0.021,0 -0.0382,0.006 -0.0382,0.0129 0,0.007 -0.0118,0.0129 -0.0261,0.0129 -0.0143,0 -0.0363,0.005 -0.0487,0.0114 -0.0315,0.0159 -0.10434,0.0374 -0.16211,0.0477 -0.0268,0.005 -0.052,0.0139 -0.0559,0.0203 -0.004,0.007 -0.0289,0.0115 -0.0557,0.0115 -0.0267,0 -0.0541,0.005 -0.0608,0.0119 -0.007,0.007 -0.0473,0.0148 -0.0902,0.0185 -0.10101,0.009 -0.24036,0.0338 -0.269,0.0487 -0.0124,0.007 -0.0401,0.0117 -0.0616,0.0117 -0.0215,0 -0.0391,0.006 -0.0391,0.0129 0,0.007 -0.0259,0.0129 -0.0576,0.0129 -0.0317,0 -0.061,0.006 -0.065,0.0121 -0.004,0.007 -0.0542,0.0161 -0.11131,0.0212 -0.0571,0.005 -0.10697,0.0142 -0.1108,0.0203 -0.004,0.007 -0.0726,0.0113 -0.15279,0.0113 -0.0873,0 -0.15146,0.006 -0.15986,0.014 -0.0101,0.01 -0.0217,0.009 -0.0412,-0.003 -0.0214,-0.0134 -0.0305,-0.0136 -0.043,-0.002 -0.0189,0.0189 -0.13552,0.0184 -0.17386,-6.4e-4 z m 6.70771,-4.83198 c -0.0642,-0.002 -0.12551,-0.007 -0.13621,-0.0123 -0.0107,-0.005 -0.0924,-0.0158 -0.18161,-0.0245 -0.0892,-0.009 -0.22637,-0.0248 -0.30486,-0.0359 -0.0785,-0.0111 -0.19342,-0.0205 -0.25544,-0.0207 -0.062,-1.4e-4 -0.11635,-0.007 -0.12075,-0.0134 -0.004,-0.007 -0.0672,-0.0129 -0.14347,-0.0129 -0.0816,0 -0.13543,-0.005 -0.13543,-0.0129 0,-0.007 -0.0427,-0.0129 -0.1022,-0.0129 -0.075,0 -0.10649,-0.005 -0.11834,-0.0194 -0.009,-0.0107 -0.0374,-0.0198 -0.0632,-0.0204 -0.0259,-4.4e-4 -0.0646,-0.0112 -0.086,-0.0237 -0.0431,-0.0252 -0.044,-0.0288 -0.0743,-0.29536 -0.009,-0.0797 -0.0209,-0.14925 -0.0262,-0.15459 -0.006,-0.005 -0.01,-0.0581 -0.01,-0.11704 0,-0.059 -0.006,-0.11095 -0.0129,-0.11536 -0.007,-0.004 -0.0129,-0.0477 -0.0129,-0.0961 0,-0.0485 -0.006,-0.10504 -0.0127,-0.12573 -0.0132,-0.0392 -0.0309,-0.24739 -0.0527,-0.62136 -0.007,-0.12129 -0.0187,-0.23075 -0.0258,-0.24323 -0.0103,-0.0182 -0.008,-0.0227 0.0124,-0.0227 0.0139,0 0.0289,-0.006 0.0333,-0.0129 0.004,-0.007 0.0307,-0.0129 0.0584,-0.0129 0.0277,0 0.0535,-0.005 0.0573,-0.0113 0.004,-0.007 0.0425,-0.0153 0.086,-0.0202 0.0435,-0.005 0.10053,-0.0213 0.12677,-0.0363 0.0262,-0.0151 0.0711,-0.0389 0.0996,-0.0528 0.0809,-0.0398 0.39566,-0.31977 0.39566,-0.35214 0,-0.008 0.035,-0.0492 0.0778,-0.0915 0.0428,-0.0424 0.0778,-0.0826 0.0778,-0.0894 0,-0.007 0.0365,-0.0517 0.0811,-0.0998 0.0446,-0.0481 0.12194,-0.13793 0.17189,-0.19966 0.0499,-0.0618 0.12146,-0.14596 0.15891,-0.18719 0.0375,-0.0413 0.0681,-0.0806 0.0681,-0.0875 0,-0.007 0.0204,-0.0324 0.0454,-0.0566 0.025,-0.0242 0.0454,-0.0492 0.0454,-0.0555 0,-0.0122 0.1552,-0.19432 0.17188,-0.20174 0.006,-0.002 0.01,-0.0114 0.01,-0.0202 0,-0.009 0.0204,-0.0357 0.0454,-0.0599 0.025,-0.0242 0.0454,-0.0506 0.0454,-0.0586 0,-0.008 0.0146,-0.0283 0.0324,-0.0451 0.0179,-0.0167 0.0324,-0.0373 0.0324,-0.0456 0,-0.008 0.0117,-0.0258 0.0259,-0.0387 0.0143,-0.0129 0.0259,-0.0291 0.0259,-0.0358 0,-0.007 0.0146,-0.0238 0.0324,-0.0379 0.0179,-0.014 0.0324,-0.0328 0.0324,-0.0418 0,-0.009 0.0146,-0.03 0.0324,-0.0467 0.0179,-0.0167 0.0324,-0.0371 0.0324,-0.0454 0,-0.008 0.0152,-0.0291 0.0338,-0.0464 0.0186,-0.0173 0.0389,-0.0431 0.0454,-0.0574 0.0149,-0.0333 0.0382,-0.0693 0.0669,-0.10294 0.0552,-0.0647 0.0875,-0.10924 0.0875,-0.12045 0,-0.007 0.0146,-0.0258 0.0324,-0.0426 0.0179,-0.0167 0.0324,-0.0373 0.0324,-0.0456 0,-0.008 0.0117,-0.0258 0.0259,-0.0387 0.0142,-0.0129 0.0259,-0.0313 0.0259,-0.0409 0,-0.01 0.006,-0.0174 0.012,-0.0174 0.0109,0 0.0322,-0.0356 0.10079,-0.16863 0.0129,-0.0249 0.0315,-0.0539 0.0416,-0.0645 0.01,-0.0105 0.031,-0.0467 0.0466,-0.0805 0.0157,-0.0338 0.0362,-0.0708 0.0457,-0.0823 0.0246,-0.0296 0.24628,-0.47443 0.24628,-0.49415 0,-0.009 0.017,-0.0474 0.0378,-0.0853 0.0208,-0.038 0.0419,-0.0909 0.0469,-0.11768 0.005,-0.0268 0.0143,-0.052 0.0206,-0.0559 0.007,-0.004 0.0115,-0.0185 0.0115,-0.0325 0,-0.014 0.006,-0.0355 0.0126,-0.0478 0.0208,-0.0372 0.0523,-0.14451 0.0523,-0.17788 0,-0.0172 0.006,-0.0348 0.0129,-0.0393 0.007,-0.004 0.0129,-0.0307 0.0129,-0.0584 0,-0.0277 0.005,-0.0536 0.0115,-0.0575 0.0133,-0.008 0.0213,-0.0477 0.0413,-0.20195 0.008,-0.0607 0.0196,-0.12041 0.0262,-0.13279 0.007,-0.0124 0.0119,-0.069 0.0119,-0.12572 0,-0.0568 0.006,-0.1068 0.0129,-0.1112 0.008,-0.005 0.0129,-0.103 0.0129,-0.25097 v -0.24296 l 0.0621,-0.0611 c 0.0342,-0.0337 0.0681,-0.0611 0.0754,-0.0611 0.007,0 0.0305,-0.018 0.0515,-0.0398 0.0209,-0.0219 0.0557,-0.0482 0.0772,-0.0584 0.0215,-0.0102 0.0547,-0.0331 0.074,-0.051 0.0193,-0.0179 0.0404,-0.0324 0.0469,-0.0324 0.007,0 0.0198,-0.009 0.0292,-0.0208 0.009,-0.0114 0.0291,-0.026 0.0438,-0.0324 0.0294,-0.0129 0.0592,-0.0308 0.11728,-0.0707 0.0214,-0.0147 0.0605,-0.0368 0.087,-0.0491 0.0265,-0.0123 0.0516,-0.0281 0.056,-0.0352 0.004,-0.007 0.0267,-0.0207 0.0497,-0.0302 0.023,-0.01 0.0503,-0.0256 0.0608,-0.0355 0.0195,-0.0184 0.0593,-0.04 0.11625,-0.0629 0.0179,-0.007 0.0557,-0.0274 0.0843,-0.045 0.0286,-0.0176 0.084,-0.0481 0.12323,-0.0678 0.0393,-0.0198 0.0733,-0.0405 0.0757,-0.0461 0.002,-0.006 0.0105,-0.0102 0.0182,-0.0102 0.0178,0 0.15691,-0.067 0.16606,-0.08 0.004,-0.006 0.0282,-0.0188 0.0543,-0.0296 0.026,-0.0109 0.051,-0.0257 0.0555,-0.0329 0.004,-0.007 0.0224,-0.0132 0.0398,-0.0132 0.0174,0 0.0317,-0.005 0.0317,-0.0115 0,-0.007 0.0249,-0.0213 0.0552,-0.0332 0.10017,-0.0393 0.12648,-0.0523 0.12648,-0.0622 0,-0.006 0.006,-0.01 0.0127,-0.01 0.0193,0 0.16191,-0.0689 0.16683,-0.0805 0.002,-0.006 0.0156,-0.0102 0.0292,-0.0102 0.0137,0 0.0526,-0.0139 0.0865,-0.0309 0.0339,-0.017 0.0861,-0.0432 0.11607,-0.0584 0.03,-0.0152 0.0624,-0.0275 0.0721,-0.0275 0.01,0 0.0289,-0.009 0.0427,-0.019 0.0138,-0.0105 0.0352,-0.0193 0.0475,-0.0194 0.0123,-1.5e-4 0.0431,-0.0121 0.0685,-0.0264 0.0254,-0.0142 0.0525,-0.0259 0.06,-0.0259 0.0136,0 0.0866,-0.0295 0.1311,-0.0529 0.0124,-0.007 0.0307,-0.0119 0.0407,-0.0119 0.01,0 0.0349,-0.009 0.0553,-0.0194 0.0204,-0.0106 0.047,-0.0194 0.0591,-0.0194 0.0121,-4e-5 0.0255,-0.006 0.0299,-0.0131 0.004,-0.007 0.0249,-0.0129 0.0454,-0.0129 0.0206,0 0.041,-0.006 0.0454,-0.0129 0.004,-0.007 0.0219,-0.0129 0.0389,-0.0129 0.017,0 0.0343,-0.006 0.0384,-0.0122 0.004,-0.007 0.0352,-0.0158 0.0688,-0.0201 0.0337,-0.004 0.0715,-0.0134 0.0838,-0.0202 0.0124,-0.007 0.0427,-0.0124 0.0674,-0.0124 0.0246,0 0.0484,-0.006 0.0529,-0.0129 0.004,-0.007 0.0249,-0.0129 0.0454,-0.0129 0.0206,0 0.0406,-0.005 0.0446,-0.0117 0.004,-0.007 0.0422,-0.0158 0.0851,-0.0207 0.0428,-0.005 0.0811,-0.0143 0.0851,-0.0208 0.004,-0.007 0.027,-0.0117 0.0511,-0.0117 0.0241,0 0.0475,-0.006 0.0519,-0.0129 0.004,-0.007 0.0223,-0.0129 0.0399,-0.0129 0.0175,0 0.042,-0.006 0.0543,-0.0124 0.0224,-0.0124 0.13107,-0.0351 0.23009,-0.0483 0.0286,-0.004 0.0574,-0.0121 0.0642,-0.0185 0.007,-0.007 0.0335,-0.0116 0.0594,-0.0116 0.0259,0 0.0515,-0.004 0.0568,-0.01 0.009,-0.009 0.14931,-0.0344 0.28008,-0.0505 0.0321,-0.004 0.0639,-0.0124 0.0707,-0.0188 0.007,-0.007 0.045,-0.0117 0.085,-0.0117 0.0399,0 0.0782,-0.006 0.085,-0.0121 0.007,-0.007 0.0781,-0.0163 0.15866,-0.0213 0.0804,-0.005 0.14942,-0.0142 0.15319,-0.0203 0.004,-0.007 0.0557,-0.0111 0.1156,-0.0111 0.0598,0 0.11233,-0.006 0.11674,-0.0129 0.004,-0.007 0.057,-0.0129 0.11676,-0.0129 0.0598,0 0.11234,-0.006 0.11674,-0.0129 0.005,-0.008 0.10885,-0.0129 0.26852,-0.0129 h 0.26049 l -0.009,0.19783 c -0.005,0.10881 -0.0147,0.20338 -0.0212,0.21015 -0.007,0.007 -0.012,0.0549 -0.012,0.10702 0,0.0544 -0.006,0.0947 -0.0129,0.0947 -0.007,0 -0.0129,0.0343 -0.0129,0.0771 0,0.0424 -0.005,0.0803 -0.0114,0.0841 -0.007,0.004 -0.0156,0.045 -0.0205,0.0914 -0.005,0.0464 -0.0144,0.0877 -0.021,0.0918 -0.007,0.004 -0.0119,0.0362 -0.0119,0.0715 0,0.0352 -0.006,0.0641 -0.0129,0.0641 -0.007,0 -0.0129,0.0475 -0.0129,0.11675 0,0.0692 -0.005,0.11675 -0.0129,0.11675 -0.007,0 -0.0129,0.0495 -0.0129,0.12247 0,0.0674 -0.005,0.12571 -0.0116,0.12967 -0.007,0.004 -0.0158,0.0496 -0.0209,0.10131 -0.005,0.0517 -0.0137,0.0999 -0.0192,0.10707 -0.006,0.007 -0.014,0.0523 -0.019,0.1004 -0.005,0.0481 -0.0145,0.0907 -0.0211,0.0948 -0.007,0.004 -0.0119,0.0359 -0.0119,0.0707 0,0.0348 -0.006,0.0669 -0.0129,0.0713 -0.007,0.004 -0.0129,0.0307 -0.0129,0.0584 0,0.0277 -0.005,0.0536 -0.0117,0.0576 -0.007,0.004 -0.0158,0.0422 -0.0207,0.0851 -0.005,0.0428 -0.0143,0.0811 -0.0208,0.0851 -0.007,0.004 -0.0117,0.0299 -0.0117,0.0576 0,0.0277 -0.006,0.0539 -0.0129,0.0584 -0.007,0.004 -0.0129,0.0277 -0.0129,0.0519 0,0.0241 -0.005,0.047 -0.0113,0.0508 -0.007,0.004 -0.0153,0.0478 -0.0202,0.0978 -0.005,0.0499 -0.0145,0.0942 -0.0212,0.0984 -0.007,0.004 -0.0122,0.0216 -0.0122,0.0388 0,0.0172 -0.0108,0.0505 -0.024,0.074 -0.0132,0.0236 -0.028,0.0692 -0.0329,0.10135 -0.005,0.0323 -0.0203,0.0775 -0.0343,0.10065 -0.0141,0.0231 -0.0256,0.0533 -0.0256,0.0669 0,0.0137 -0.005,0.0281 -0.0115,0.032 -0.007,0.004 -0.0156,0.0287 -0.0205,0.0549 -0.008,0.0431 -0.0414,0.1294 -0.0729,0.18899 -0.007,0.0123 -0.0119,0.0312 -0.0119,0.0419 0,0.0107 -0.0204,0.058 -0.0454,0.10504 -0.025,0.047 -0.0454,0.0908 -0.0454,0.0972 0,0.007 -0.0233,0.0608 -0.0519,0.12087 -0.0286,0.06 -0.0519,0.11336 -0.0519,0.11843 0,0.01 -0.0799,0.18295 -0.11049,0.23985 -0.01,0.0179 -0.0631,0.12292 -0.1188,0.23351 -0.0557,0.11059 -0.10434,0.20399 -0.10799,0.20755 -0.0305,0.0298 -0.0778,0.10678 -0.0778,0.1266 0,0.0135 -0.0146,0.0383 -0.0324,0.055 -0.0179,0.0167 -0.0324,0.0382 -0.0324,0.0477 0,0.009 -0.004,0.0172 -0.01,0.0172 -0.0267,0 -0.0453,0.0563 -0.0238,0.0721 0.0188,0.0138 0.019,0.0166 0.002,0.0233 -0.0109,0.004 -0.0198,0.0173 -0.0198,0.0291 0,0.0165 -0.004,0.0181 -0.0175,0.007 -0.0249,-0.0206 -0.0498,0.007 -0.12101,0.13693 -0.0156,0.0282 -0.0374,0.0589 -0.0487,0.0682 -0.0112,0.009 -0.0204,0.0226 -0.0204,0.0296 0,0.0184 -0.0416,0.10329 -0.0646,0.13194 -0.0108,0.0135 -0.0347,0.0427 -0.053,0.0649 -0.0183,0.0222 -0.0432,0.0608 -0.0555,0.0857 -0.0237,0.0485 -0.0498,0.0932 -0.0605,0.10378 -0.0184,0.0183 -0.0741,0.1021 -0.0903,0.13622 -0.0499,0.10453 -0.0838,0.12323 -0.22364,0.12323 -0.0775,0 -0.13725,-0.007 -0.15259,-0.0158 -0.0193,-0.012 -0.0354,-0.0123 -0.0679,-0.002 -0.0235,0.008 -0.11425,0.0188 -0.20171,0.0237 -0.0875,0.005 -0.16225,0.0142 -0.16617,0.0205 -0.004,0.007 -0.0385,0.0115 -0.0769,0.0115 -0.0384,0 -0.0734,0.006 -0.0778,0.0129 -0.004,0.007 -0.0366,0.0129 -0.0713,0.0129 -0.0348,0 -0.0665,0.005 -0.0704,0.0114 -0.004,0.007 -0.0408,0.0156 -0.0818,0.0205 -0.0411,0.005 -0.0941,0.0203 -0.11767,0.0339 -0.0236,0.0137 -0.0572,0.0249 -0.0748,0.0249 -0.0175,0 -0.042,0.006 -0.0543,0.0122 -0.0124,0.007 -0.0576,0.0222 -0.10036,0.0345 -0.0428,0.0123 -0.0834,0.0272 -0.0902,0.0332 -0.007,0.007 -0.0254,0.0109 -0.0414,0.0109 -0.016,0 -0.0327,0.006 -0.0371,0.0129 -0.004,0.007 -0.0179,0.0129 -0.0299,0.013 -0.0195,4e-5 -0.0895,0.0318 -0.16462,0.0747 -0.0142,0.008 -0.0493,0.0249 -0.0778,0.0372 -0.0286,0.0123 -0.0665,0.0323 -0.0843,0.0443 -0.0179,0.0121 -0.047,0.0263 -0.0649,0.0316 -0.0179,0.005 -0.0441,0.0195 -0.0584,0.0315 -0.0143,0.012 -0.0493,0.0332 -0.0778,0.047 -0.0286,0.0138 -0.0621,0.0334 -0.0747,0.0436 -0.0249,0.0201 -0.0443,0.032 -0.12327,0.0754 -0.0287,0.0158 -0.0602,0.0362 -0.0699,0.0454 -0.01,0.009 -0.038,0.0269 -0.063,0.0395 -0.025,0.0126 -0.0608,0.033 -0.0795,0.0454 -0.0188,0.0124 -0.0523,0.034 -0.0746,0.0481 -0.0222,0.014 -0.0405,0.0301 -0.0405,0.0357 0,0.006 -0.006,0.0102 -0.0132,0.0102 -0.007,0 -0.0422,0.0204 -0.0777,0.0454 -0.0356,0.0249 -0.0683,0.0454 -0.0728,0.0454 -0.004,0 -0.027,0.0161 -0.0501,0.0357 -0.0781,0.0663 -0.0979,0.0811 -0.10847,0.0811 -0.006,0 -0.0243,0.0146 -0.041,0.0324 -0.0168,0.0179 -0.0371,0.0325 -0.0454,0.0325 -0.008,0 -0.0286,0.0146 -0.0454,0.0324 -0.0168,0.0179 -0.0373,0.0324 -0.0456,0.0324 -0.008,0 -0.0258,0.0117 -0.0387,0.0259 -0.0128,0.0142 -0.0291,0.0259 -0.0359,0.0259 -0.007,0 -0.0461,0.0291 -0.0873,0.0649 -0.0412,0.0357 -0.0803,0.0649 -0.0869,0.0649 -0.007,0 -0.0288,0.0175 -0.0493,0.0389 -0.0205,0.0214 -0.0438,0.0389 -0.0517,0.0389 -0.008,0 -0.0343,0.0204 -0.0585,0.0454 -0.0242,0.0249 -0.0494,0.0454 -0.056,0.0454 -0.007,0 -0.0573,0.0408 -0.11268,0.0908 -0.0554,0.0499 -0.10521,0.0908 -0.11069,0.0908 -0.009,0 -0.0299,0.0171 -0.1955,0.16242 -0.0364,0.0319 -0.0707,0.0581 -0.076,0.0581 -0.006,0 -0.0755,0.0614 -0.15585,0.13621 -0.0804,0.0749 -0.15137,0.13621 -0.15787,0.13621 -0.007,0 -0.0494,0.038 -0.0954,0.0843 -0.0459,0.0464 -0.0896,0.0843 -0.0971,0.0843 -0.007,0 -0.0958,0.0832 -0.19624,0.18485 -0.18601,0.18819 -0.22557,0.24728 -0.22557,0.33695 0,0.019 -0.006,0.0381 -0.0129,0.0425 -0.007,0.004 -0.0129,0.0307 -0.0129,0.0584 0,0.0277 -0.006,0.0539 -0.0129,0.0584 -0.007,0.004 -0.0129,0.024 -0.0129,0.0436 0,0.0196 -0.006,0.0411 -0.0121,0.0479 -0.007,0.007 -0.014,0.0357 -0.0162,0.0642 l -0.004,0.0519 z m -0.22054,-1.29234 c 0.12163,-0.0631 0.13575,-0.0724 0.18388,-0.12141 0.0228,-0.0232 0.0461,-0.0422 0.0518,-0.0422 0.0134,0 0.36751,-0.35311 0.36751,-0.3665 0,-0.006 0.0555,-0.065 0.12323,-0.13195 0.0678,-0.067 0.12325,-0.12684 0.12325,-0.13294 0,-0.007 0.0788,-0.0898 0.17512,-0.18587 0.0963,-0.0961 0.17512,-0.18075 0.17512,-0.18804 0,-0.007 0.11676,-0.12992 0.25946,-0.27248 0.14269,-0.14257 0.25944,-0.26488 0.25944,-0.27182 0,-0.0119 0.1396,-0.15753 0.63705,-0.6649 0.11338,-0.11565 0.20616,-0.21647 0.20616,-0.22405 0,-0.007 0.0146,-0.0204 0.0324,-0.0286 0.0179,-0.008 0.0324,-0.0213 0.0324,-0.0292 0,-0.008 0.0671,-0.0813 0.14918,-0.1631 0.082,-0.0819 0.14918,-0.15481 0.14918,-0.16221 0,-0.007 0.0555,-0.0687 0.12324,-0.13616 0.0678,-0.0675 0.12324,-0.12873 0.12324,-0.13608 0,-0.007 0.10799,-0.12124 0.23999,-0.2531 0.13199,-0.13183 0.23999,-0.24445 0.23999,-0.25023 0,-0.006 0.0808,-0.0911 0.17953,-0.18965 0.0987,-0.0985 0.1832,-0.18873 0.18769,-0.20043 0.004,-0.0117 0.0171,-0.0212 0.0281,-0.0212 0.011,0 0.0198,-0.007 0.0198,-0.0156 0,-0.009 0.13134,-0.14737 0.29188,-0.30845 0.16053,-0.16109 0.29188,-0.29863 0.29188,-0.30564 0,-0.007 0.0992,-0.11187 0.22053,-0.233 0.12129,-0.12113 0.22053,-0.22623 0.22053,-0.23354 0,-0.007 0.0759,-0.089 0.16864,-0.18157 0.0927,-0.0926 0.16864,-0.17311 0.16864,-0.17902 0,-0.006 0.0423,-0.0539 0.0941,-0.10657 0.1153,-0.11747 0.23026,-0.24673 0.23026,-0.25892 0,-0.005 0.035,-0.0436 0.0778,-0.0857 0.0428,-0.0422 0.0778,-0.0819 0.0778,-0.0884 0,-0.007 0.0817,-0.0938 0.18161,-0.19414 0.0999,-0.1003 0.18162,-0.18713 0.18162,-0.19295 0,-0.006 0.0467,-0.057 0.10377,-0.11373 0.0571,-0.0567 0.10378,-0.11102 0.10378,-0.12062 0,-0.0263 -0.0419,-0.0648 -0.0487,-0.0446 -0.003,0.009 -0.0165,0.0161 -0.0302,0.0161 -0.0137,0 -0.0249,0.006 -0.0249,0.0129 0,0.007 -0.007,0.0129 -0.017,0.0129 -0.009,0 -0.0367,0.0204 -0.0609,0.0454 -0.0242,0.0249 -0.0505,0.0454 -0.0584,0.0454 -0.008,0 -0.0342,0.0204 -0.0584,0.0454 -0.0242,0.025 -0.0492,0.0454 -0.0554,0.0454 -0.007,0 -0.0785,0.0671 -0.16051,0.14918 -0.082,0.082 -0.15429,0.14919 -0.16071,0.14919 -0.007,0 -0.0466,0.035 -0.0893,0.0778 -0.0427,0.0428 -0.0823,0.0778 -0.0881,0.0778 -0.006,0 -0.14172,0.13134 -0.30213,0.29188 -0.16042,0.16052 -0.29782,0.29187 -0.30536,0.29187 -0.007,0 -0.0368,0.0239 -0.065,0.0531 -0.0282,0.0292 -0.0609,0.057 -0.0727,0.0616 -0.0118,0.004 -0.2257,0.20841 -0.47537,0.45277 -0.24967,0.24437 -0.45904,0.44431 -0.46527,0.44431 -0.007,0 -0.0724,0.0613 -0.14705,0.13621 -0.0747,0.0749 -0.14027,0.13621 -0.14581,0.13621 -0.0204,0 -0.21872,0.21142 -0.21278,0.2269 0.003,0.009 -0.0283,0.0502 -0.0706,0.092 -0.0422,0.0417 -0.0767,0.0688 -0.0767,0.0601 0,-0.0352 -0.0382,-0.0106 -0.1362,0.088 -0.0567,0.0571 -0.0947,0.10379 -0.0844,0.10379 0.0103,0 -0.015,0.0342 -0.0563,0.0758 -0.0556,0.0562 -0.0824,0.0745 -0.10338,0.0707 -0.0411,-0.007 -0.27116,0.22399 -0.24235,0.24387 0.0156,0.0107 0.0141,0.0119 -0.007,0.007 -0.034,-0.009 -0.11264,0.0656 -0.086,0.0821 0.0226,0.014 -0.0123,0.0438 -0.0393,0.0335 -0.0236,-0.009 -0.0556,0.0278 -0.0556,0.0641 0,0.0222 -0.007,0.0265 -0.0389,0.0236 -0.0352,-0.003 -0.0696,0.0272 -0.35663,0.31458 -0.17475,0.17497 -0.32251,0.31812 -0.32838,0.31812 -0.006,0 -0.12708,0.11675 -0.26941,0.25944 -0.14232,0.1427 -0.26314,0.25946 -0.26848,0.25946 -0.005,0 -0.12343,0.11383 -0.26243,0.25295 -0.13898,0.13913 -0.2587,0.25296 -0.26604,0.25296 -0.007,0 -0.0744,0.0614 -0.14907,0.13622 -0.0747,0.0749 -0.14147,0.1362 -0.14846,0.1362 -0.0109,0 -0.16776,0.14902 -0.5151,0.48933 -0.22857,0.22395 -0.29639,0.35227 -0.29639,0.56076 0,0.17774 0.0225,0.19767 0.21404,0.19004 0.10407,-0.004 0.12661,-0.01 0.20756,-0.0517 z"
       id="path23"
       inkscape:export-filename=".\fighter.svg"
       inkscape:export-xdpi="80"
       inkscape:export-ydpi="80" /></g></svg>
