<?xml version="1.0" encoding="UTF-8" standalone="no"?>
<!-- Created with Inkscape (http://www.inkscape.org/) -->

<svg
   width="9.8402748mm"
   height="9.8300686mm"
   viewBox="0 0 9.8402746 9.8300685"
   version="1.1"
   id="svg1"
   xml:space="preserve"
   sodipodi:docname="rect9.svg"
   inkscape:version="1.3.2 (091e20e, 2023-11-25, custom)"
   xmlns:inkscape="http://www.inkscape.org/namespaces/inkscape"
   xmlns:sodipodi="http://sodipodi.sourceforge.net/DTD/sodipodi-0.dtd"
   xmlns="http://www.w3.org/2000/svg"
   xmlns:svg="http://www.w3.org/2000/svg"><sodipodi:namedview
     id="namedview1"
     pagecolor="#ffffff"
     bordercolor="#000000"
     borderopacity="0.25"
     inkscape:showpageshadow="2"
     inkscape:pageopacity="0.0"
     inkscape:pagecheckerboard="0"
     inkscape:deskcolor="#d1d1d1"
     inkscape:document-units="mm"
     showguides="true"
     inkscape:zoom="1.3978784"
     inkscape:cx="-613.07191"
     inkscape:cy="404.18393"
     inkscape:window-width="1366"
     inkscape:window-height="714"
     inkscape:window-x="-8"
     inkscape:window-y="-8"
     inkscape:window-maximized="1"
     inkscape:current-layer="layer1"><sodipodi:guide
       position="-32.986851,206.87359"
       orientation="0,-1"
       id="guide14"
       inkscape:locked="false" /><sodipodi:guide
       position="-33.743951,220.8965"
       orientation="0,-1"
       id="guide15"
       inkscape:locked="false" /></sodipodi:namedview><defs
     id="defs1" /><g
     inkscape:label="Layer 1"
     inkscape:groupmode="layer"
     id="layer1"
     transform="translate(153.91162,-143.93524)"><path
       style="fill:#f9f9f9;stroke-width:0.0322094"
       d="m -150.39357,153.7643 c -0.002,-0.002 -0.12103,-0.007 -0.26399,-0.009 -0.14296,-0.003 -0.30019,-0.009 -0.34941,-0.0131 -0.0492,-0.004 -0.13358,-0.01 -0.18748,-0.0127 -0.0539,-0.003 -0.12485,-0.009 -0.15766,-0.0129 -0.0328,-0.005 -0.10568,-0.0141 -0.16192,-0.0216 -0.0563,-0.008 -0.11404,-0.0172 -0.12844,-0.0216 -0.0144,-0.005 -0.0333,-0.008 -0.0421,-0.008 -0.0215,0 -0.16984,-0.0351 -0.25134,-0.0594 -0.0117,-0.003 -0.0443,-0.0131 -0.0724,-0.0215 -0.0948,-0.028 -0.20406,-0.0678 -0.28359,-0.1035 -0.0248,-0.0111 -0.0467,-0.0202 -0.0488,-0.0202 -0.008,0 -0.1631,-0.0776 -0.20444,-0.1022 -0.0235,-0.014 -0.0503,-0.0288 -0.0596,-0.033 -0.009,-0.004 -0.0376,-0.0216 -0.0627,-0.0385 -0.0251,-0.0169 -0.049,-0.0308 -0.0533,-0.0308 -0.004,0 -0.008,-0.003 -0.008,-0.007 0,-0.003 -0.0179,-0.0181 -0.0398,-0.0319 -0.0219,-0.0138 -0.044,-0.029 -0.049,-0.0338 -0.005,-0.005 -0.0264,-0.022 -0.0475,-0.0383 -0.0211,-0.0163 -0.0518,-0.0411 -0.0682,-0.055 -0.0522,-0.0444 -0.2761,-0.27138 -0.31127,-0.31561 -0.0186,-0.0235 -0.0361,-0.0445 -0.0388,-0.0469 -0.0108,-0.009 -0.14094,-0.19386 -0.15632,-0.2217 -0.009,-0.0163 -0.0186,-0.0316 -0.0213,-0.0339 -0.0172,-0.0149 -0.1294,-0.24138 -0.17529,-0.35367 -0.005,-0.0141 -0.0151,-0.0369 -0.0208,-0.0507 -0.005,-0.0139 -0.018,-0.0483 -0.0273,-0.0767 -0.009,-0.0283 -0.0202,-0.0592 -0.0241,-0.0685 -0.004,-0.009 -0.0135,-0.0401 -0.0214,-0.0682 -0.008,-0.0281 -0.0174,-0.0607 -0.0213,-0.0724 -0.0113,-0.035 -0.0472,-0.18822 -0.0557,-0.23863 -0.003,-0.0164 -0.009,-0.047 -0.0128,-0.0682 -0.01,-0.0478 -0.0305,-0.19858 -0.043,-0.31106 -0.0149,-0.1351 -0.0231,-0.32206 -0.038,-0.86498 -0.0115,-0.41787 -0.013,-0.70345 -0.009,-1.62346 0.003,-0.61401 0.009,-1.25253 0.0131,-1.41892 0.01,-0.37553 0.0384,-0.83301 0.0555,-0.88687 0.003,-0.01 0.009,-0.0451 0.0128,-0.0788 0.01,-0.0848 0.0581,-0.31452 0.078,-0.37231 0.0212,-0.0616 0.0327,-0.1031 0.0327,-0.11782 0,-0.01 0.003,-0.0198 0.008,-0.0224 0.005,-0.003 0.0106,-0.0171 0.0139,-0.0321 0.003,-0.0151 0.009,-0.0332 0.0127,-0.0404 0.003,-0.007 0.0131,-0.0323 0.0209,-0.0557 0.008,-0.0234 0.0175,-0.0503 0.0216,-0.0596 0.004,-0.009 0.0157,-0.0362 0.0257,-0.0596 0.0228,-0.053 0.10437,-0.21844 0.13024,-0.26419 0.0418,-0.0739 0.17788,-0.27122 0.2077,-0.30114 0.006,-0.006 0.0217,-0.0254 0.0345,-0.0426 0.0317,-0.043 0.25911,-0.27012 0.32177,-0.32158 0.0281,-0.0231 0.0531,-0.044 0.0554,-0.0466 0.0129,-0.0139 0.1626,-0.11899 0.16943,-0.11899 0.005,0 0.009,-0.003 0.0109,-0.007 0.003,-0.009 0.11519,-0.0786 0.12559,-0.0786 0.005,0 0.0133,-0.005 0.0196,-0.0107 0.0188,-0.0175 0.20969,-0.10865 0.22756,-0.10865 0.005,0 0.009,-0.004 0.009,-0.009 0,-0.005 0.005,-0.009 0.0125,-0.009 0.0115,0 0.056,-0.017 0.0918,-0.0351 0.008,-0.004 0.0191,-0.008 0.0243,-0.008 0.005,0 0.0215,-0.005 0.0363,-0.0118 0.0148,-0.006 0.0613,-0.0222 0.10355,-0.0352 0.0421,-0.0129 0.0882,-0.0272 0.10226,-0.0319 0.014,-0.005 0.0409,-0.0116 0.0596,-0.0154 0.0187,-0.004 0.059,-0.0132 0.0895,-0.0209 0.0304,-0.008 0.0784,-0.0175 0.10652,-0.0219 0.0281,-0.005 0.0569,-0.0102 0.0639,-0.0129 0.007,-0.003 0.0415,-0.009 0.0767,-0.0131 0.20769,-0.0271 0.28345,-0.0346 0.41758,-0.0412 0.082,-0.004 0.23159,-0.0123 0.33236,-0.0185 0.26524,-0.0161 3.32498,-0.0159 3.58779,2e-4 0.10078,0.006 0.24842,0.0143 0.3281,0.0181 0.0797,0.003 0.19473,0.0131 0.25567,0.0208 0.0609,0.008 0.13842,0.0172 0.1722,0.0213 0.0338,0.004 0.0652,0.01 0.07,0.0127 0.005,0.003 0.0326,0.009 0.0622,0.0129 0.0295,0.004 0.0785,0.0139 0.10899,0.0216 0.0304,0.008 0.0707,0.017 0.0895,0.0209 0.0187,0.004 0.0456,0.0107 0.0596,0.0155 0.0141,0.005 0.0601,0.019 0.10226,0.0319 0.0422,0.0129 0.0888,0.0287 0.10355,0.0352 0.0148,0.006 0.0311,0.0118 0.0363,0.0118 0.01,0 0.017,0.003 0.0674,0.0284 0.0156,0.008 0.0358,0.0142 0.0447,0.0142 0.009,0 0.0163,0.004 0.0163,0.009 0,0.005 0.004,0.009 0.009,0.009 0.0213,0 0.2563,0.11646 0.2623,0.12996 0.002,0.003 0.006,0.006 0.0105,0.006 0.0103,0 0.0967,0.0529 0.10026,0.0614 0.002,0.003 0.007,0.007 0.0116,0.007 0.008,0 0.16093,0.11287 0.23274,0.17214 0.0187,0.0154 0.0864,0.0799 0.15037,0.14318 0.26642,0.26361 0.45113,0.54815 0.57811,0.89055 0.003,0.009 0.0126,0.0316 0.0203,0.0493 0.008,0.0177 0.014,0.0395 0.014,0.0485 0,0.009 0.003,0.0183 0.008,0.0209 0.004,0.003 0.0103,0.0191 0.0135,0.0367 0.003,0.0176 0.009,0.0358 0.0116,0.0406 0.007,0.0103 0.025,0.0722 0.0354,0.11937 0.004,0.0187 0.0137,0.059 0.0215,0.0895 0.008,0.0304 0.017,0.0771 0.0208,0.10354 0.003,0.0265 0.009,0.0517 0.0118,0.056 0.005,0.008 0.0155,0.0767 0.0365,0.24097 0.0126,0.0981 0.0193,0.19917 0.0365,0.54967 0.0151,0.30972 0.0176,0.47465 0.0233,1.56806 0.007,1.24202 -0.002,1.79202 -0.0399,2.45862 -0.009,0.15453 -0.0442,0.45135 -0.0564,0.47106 -0.003,0.005 -0.008,0.0295 -0.0118,0.056 -0.003,0.0265 -0.0131,0.0731 -0.0207,0.10354 -0.008,0.0304 -0.0172,0.0688 -0.0213,0.0852 -0.02,0.0801 -0.0277,0.10791 -0.0342,0.12357 -0.004,0.009 -0.0136,0.0381 -0.0217,0.0639 -0.0272,0.0873 -0.0689,0.19447 -0.11266,0.28975 -0.0638,0.1389 -0.10927,0.22114 -0.18807,0.34032 -0.10149,0.15353 -0.1756,0.2428 -0.32953,0.39697 -0.12808,0.1283 -0.24819,0.22787 -0.37071,0.30736 -0.0211,0.0137 -0.0396,0.0278 -0.0412,0.0312 -0.002,0.003 -0.008,0.006 -0.0143,0.006 -0.006,0 -0.0165,0.005 -0.0228,0.0107 -0.0141,0.0133 -0.0606,0.0396 -0.14332,0.0809 -0.0352,0.0176 -0.0652,0.0349 -0.0667,0.0384 -0.002,0.003 -0.009,0.006 -0.0157,0.006 -0.007,0 -0.023,0.005 -0.0355,0.012 -0.0265,0.0141 -0.0825,0.0377 -0.16323,0.0689 -0.0211,0.008 -0.046,0.0178 -0.0554,0.0215 -0.0494,0.0191 -0.21198,0.0686 -0.28975,0.0883 -0.16063,0.0405 -0.18231,0.0445 -0.39201,0.0728 -0.0421,0.005 -0.10163,0.014 -0.13209,0.0184 -0.0734,0.0107 -0.30504,0.025 -0.56246,0.0349 -0.21408,0.008 -3.17159,0.02 -3.17892,0.0127 z m 2.71447,-0.86625 c 0.68821,-0.018 0.91094,-0.0324 1.17604,-0.0756 0.13159,-0.0215 0.3644,-0.0856 0.38475,-0.10597 0.003,-0.003 0.0114,-0.006 0.0181,-0.006 0.007,0 0.0262,-0.006 0.0434,-0.0136 0.0568,-0.0248 0.12464,-0.0559 0.1404,-0.0643 0.009,-0.005 0.0315,-0.0164 0.0512,-0.0265 0.0196,-0.0101 0.0375,-0.0204 0.0398,-0.023 0.002,-0.003 0.0187,-0.0123 0.0362,-0.0216 0.0176,-0.009 0.0319,-0.0198 0.0319,-0.0234 0,-0.003 0.005,-0.007 0.009,-0.007 0.008,0 0.0686,-0.0429 0.0843,-0.0594 0.002,-0.002 0.0231,-0.0196 0.0462,-0.0382 0.0834,-0.0671 0.20902,-0.19965 0.27889,-0.29436 0.061,-0.0827 0.0818,-0.11639 0.1261,-0.20453 0.0566,-0.11257 0.0752,-0.15675 0.11144,-0.26418 0.0298,-0.0884 0.0492,-0.15595 0.0601,-0.20879 0.0659,-0.32068 0.0734,-0.41395 0.10139,-1.26552 0.0106,-0.32243 0.01,-2.44289 -6.9e-4,-2.74411 -0.0251,-0.69995 -0.042,-0.96122 -0.0676,-1.04456 -0.005,-0.0144 -0.008,-0.0374 -0.008,-0.0512 0,-0.0137 -0.005,-0.0384 -0.009,-0.0548 -0.005,-0.0164 -0.0125,-0.0471 -0.0162,-0.0681 -0.003,-0.0211 -0.0131,-0.0594 -0.0209,-0.0852 -0.008,-0.0258 -0.0174,-0.0584 -0.0214,-0.0724 -0.007,-0.0265 -0.0233,-0.0728 -0.0351,-0.10226 -0.056,-0.14048 -0.0862,-0.20503 -0.13923,-0.29827 -0.0186,-0.0327 -0.0724,-0.11322 -0.0833,-0.12474 -0.006,-0.006 -0.0223,-0.0269 -0.036,-0.0457 -0.0352,-0.0479 -0.21914,-0.23264 -0.26725,-0.26839 -0.022,-0.0164 -0.042,-0.032 -0.0443,-0.0347 -0.029,-0.0336 -0.31993,-0.19544 -0.35136,-0.19544 -0.006,0 -0.0153,-0.003 -0.0198,-0.007 -0.009,-0.008 -0.13468,-0.0516 -0.21263,-0.0733 -0.0281,-0.008 -0.0599,-0.0179 -0.0707,-0.0222 -0.0107,-0.005 -0.0311,-0.008 -0.0453,-0.008 -0.0142,0 -0.0327,-0.003 -0.0411,-0.008 -0.008,-0.005 -0.0437,-0.0123 -0.0783,-0.0172 -0.0346,-0.005 -0.10312,-0.0149 -0.15234,-0.0221 -0.14293,-0.0209 -0.61603,-0.0426 -1.15473,-0.0531 -0.87147,-0.017 -2.95265,-0.001 -3.10794,0.0234 -0.0313,0.005 -0.0966,0.009 -0.14487,0.009 -0.0483,-6e-5 -0.13578,0.006 -0.19437,0.0132 -0.10434,0.0131 -0.13961,0.0187 -0.24287,0.0386 -0.0281,0.005 -0.0665,0.0127 -0.0852,0.0163 -0.0187,0.003 -0.0571,0.0131 -0.0852,0.0211 -0.0281,0.008 -0.0626,0.0178 -0.0767,0.0216 -0.0344,0.009 -0.0819,0.0262 -0.10002,0.0353 -0.008,0.004 -0.0191,0.007 -0.0243,0.007 -0.0209,0 -0.24757,0.10937 -0.31197,0.15054 -0.0516,0.033 -0.1249,0.086 -0.16879,0.12204 -0.0373,0.0307 -0.1995,0.19411 -0.23687,0.23875 -0.0687,0.0821 -0.1935,0.28347 -0.1935,0.31225 0,0.006 -0.004,0.0116 -0.009,0.0116 -0.005,0 -0.009,0.004 -0.009,0.009 0,0.0101 -0.0199,0.058 -0.0391,0.0942 -0.007,0.0125 -0.012,0.0283 -0.012,0.0353 0,0.007 -0.005,0.0236 -0.0127,0.0371 -0.007,0.0134 -0.0127,0.0309 -0.0128,0.0388 -2e-5,0.008 -0.004,0.0168 -0.009,0.0197 -0.005,0.003 -0.009,0.0158 -0.009,0.0286 0,0.0129 -0.003,0.027 -0.008,0.0315 -0.004,0.005 -0.012,0.0273 -0.0174,0.0507 -0.005,0.0235 -0.0156,0.0676 -0.0228,0.098 -0.0135,0.0572 -0.0209,0.10023 -0.0371,0.21731 -0.005,0.0375 -0.0131,0.0931 -0.0174,0.12358 -0.0132,0.0921 -0.0332,0.54573 -0.0402,0.91186 -0.003,0.18982 -0.006,0.77273 -0.005,1.29535 0.002,1.2791 0.0179,2.07253 0.0456,2.26687 0.005,0.0304 0.0122,0.088 0.0173,0.12783 0.0214,0.16443 0.0331,0.2263 0.0622,0.3281 0.007,0.0235 0.0183,0.0647 0.0258,0.0917 0.0288,0.10367 0.10039,0.26882 0.17079,0.39408 0.0689,0.12263 0.22223,0.30126 0.35298,0.4113 0.0264,0.0222 0.0557,0.0473 0.0652,0.0559 0.009,0.009 0.0306,0.0237 0.047,0.0336 0.0164,0.01 0.0317,0.0207 0.0341,0.0237 0.0129,0.0168 0.19422,0.11083 0.28123,0.14581 0.0351,0.0142 0.0716,0.0288 0.081,0.0325 0.0171,0.007 0.0676,0.0236 0.12357,0.0408 0.0164,0.005 0.0547,0.0155 0.0852,0.0231 0.0304,0.008 0.0707,0.0181 0.0895,0.023 0.0187,0.005 0.0552,0.0122 0.081,0.016 0.0258,0.003 0.0891,0.0131 0.14062,0.0206 0.15164,0.0222 0.47459,0.0397 1.00134,0.0544 0.3707,0.0104 2.27801,0.0111 2.66314,6.9e-4 z m -1.44449,-1.52791 c -0.002,-0.002 -0.0522,-0.009 -0.11079,-0.0139 -0.18164,-0.0163 -0.34224,-0.049 -0.53263,-0.10819 -0.0477,-0.0148 -0.0624,-0.0203 -0.10895,-0.0405 -0.0177,-0.008 -0.0358,-0.0139 -0.0402,-0.0139 -0.0296,0 -0.32147,-0.14859 -0.42062,-0.21412 -0.0275,-0.0182 -0.0516,-0.033 -0.0536,-0.033 -0.002,0 -0.008,-0.004 -0.014,-0.009 -0.005,-0.005 -0.041,-0.0305 -0.0785,-0.0573 -0.0375,-0.0268 -0.0778,-0.0576 -0.0895,-0.0685 -0.0117,-0.0109 -0.0373,-0.0321 -0.057,-0.0471 -0.046,-0.0352 -0.24239,-0.23368 -0.2969,-0.30002 -0.0231,-0.0281 -0.0442,-0.0531 -0.0469,-0.0554 -0.003,-0.002 -0.0267,-0.035 -0.0534,-0.0724 -0.0267,-0.0375 -0.0524,-0.0728 -0.0572,-0.0785 -0.005,-0.005 -0.009,-0.012 -0.009,-0.014 0,-0.002 -0.0139,-0.0243 -0.0308,-0.0494 -0.0169,-0.0251 -0.0342,-0.0533 -0.0385,-0.0626 -0.004,-0.009 -0.0191,-0.0362 -0.033,-0.0596 -0.0362,-0.0611 -0.10116,-0.19573 -0.13565,-0.28123 -0.003,-0.009 -0.0131,-0.0315 -0.0209,-0.0493 -0.008,-0.0177 -0.0139,-0.0392 -0.0139,-0.0476 0,-0.008 -0.003,-0.0182 -0.006,-0.0215 -0.008,-0.008 -0.044,-0.12318 -0.0625,-0.20113 -0.0253,-0.10687 -0.0355,-0.15471 -0.0415,-0.196 -0.003,-0.0258 -0.0119,-0.0776 -0.0181,-0.11505 -0.0146,-0.0885 -0.0148,-0.52888 -3.3e-4,-0.6136 0.005,-0.0328 0.0138,-0.0846 0.0182,-0.11504 0.005,-0.0304 0.014,-0.0822 0.0213,-0.11505 0.007,-0.0328 0.0169,-0.076 0.0212,-0.096 0.005,-0.02 0.0118,-0.0437 0.0166,-0.0527 0.005,-0.009 0.009,-0.026 0.009,-0.0378 0,-0.0118 0.003,-0.0235 0.008,-0.026 0.004,-0.003 0.0102,-0.0186 0.0133,-0.0356 0.003,-0.017 0.009,-0.0372 0.0127,-0.0448 0.0166,-0.0334 0.0345,-0.0791 0.0345,-0.0882 0,-0.005 0.008,-0.0264 0.017,-0.0466 0.009,-0.0202 0.0252,-0.055 0.0351,-0.0773 0.0252,-0.0566 0.0785,-0.16254 0.0997,-0.19813 0.01,-0.0164 0.0263,-0.0461 0.0367,-0.0661 0.0105,-0.0199 0.0217,-0.0362 0.025,-0.0362 0.003,0 0.008,-0.007 0.011,-0.0149 0.005,-0.0153 0.0231,-0.0456 0.0315,-0.0533 0.003,-0.002 0.0129,-0.0176 0.0228,-0.0341 0.01,-0.0164 0.0251,-0.0375 0.0336,-0.0469 0.009,-0.009 0.0328,-0.0401 0.0538,-0.0682 0.0211,-0.0281 0.0405,-0.053 0.0434,-0.0553 0.003,-0.002 0.0282,-0.0311 0.0564,-0.0639 0.0914,-0.10617 0.21605,-0.22226 0.3434,-0.31987 0.0211,-0.0161 0.0458,-0.0362 0.0549,-0.0444 0.009,-0.008 0.0194,-0.015 0.0229,-0.015 0.003,0 0.0114,-0.005 0.0176,-0.0106 0.0125,-0.0118 0.1061,-0.0751 0.12631,-0.0853 0.007,-0.003 0.032,-0.0179 0.0554,-0.0319 0.0234,-0.014 0.0598,-0.0341 0.081,-0.0447 0.0211,-0.0106 0.0396,-0.0221 0.0412,-0.0257 0.001,-0.003 0.006,-0.006 0.0101,-0.006 0.004,0 0.0352,-0.0129 0.0696,-0.0287 0.10985,-0.0506 0.21082,-0.0889 0.31806,-0.12048 0.0281,-0.008 0.0588,-0.0178 0.0682,-0.0213 0.0317,-0.0116 0.0935,-0.0268 0.13636,-0.0339 0.0408,-0.007 0.1044,-0.0179 0.196,-0.0347 0.0234,-0.005 0.11355,-0.0119 0.20027,-0.0169 0.17221,-0.01 0.41278,0.003 0.56672,0.0306 0.0421,0.008 0.092,0.0157 0.11079,0.0182 0.0187,0.002 0.0379,0.008 0.0426,0.0113 0.005,0.003 0.0239,0.009 0.0426,0.0125 0.0187,0.003 0.0418,0.009 0.0512,0.0122 0.0434,0.0168 0.10609,0.0348 0.12088,0.0348 0.009,0 0.02,0.003 0.0244,0.007 0.005,0.004 0.0311,0.0153 0.0592,0.0249 0.0281,0.01 0.0703,0.0256 0.0937,0.0358 0.0901,0.0388 0.10269,0.0443 0.11594,0.0512 0.0766,0.0398 0.16236,0.0863 0.1866,0.1012 0.0164,0.0101 0.0365,0.0207 0.0448,0.0235 0.008,0.003 0.0149,0.008 0.0149,0.0116 0,0.003 0.007,0.009 0.0149,0.0116 0.0149,0.005 0.039,0.0194 0.059,0.0353 0.0274,0.0218 0.0342,0.0267 0.0579,0.042 0.0139,0.009 0.0293,0.0195 0.0341,0.0232 0.21891,0.17525 0.29956,0.25238 0.44335,0.42405 0.014,0.0168 0.0278,0.0324 0.0306,0.0347 0.0123,0.0105 0.12711,0.17106 0.12711,0.17783 0,0.004 0.005,0.012 0.012,0.0175 0.007,0.005 0.0183,0.0222 0.0259,0.0373 0.008,0.015 0.0208,0.0388 0.0292,0.0529 0.064,0.10695 0.13085,0.24175 0.16711,0.33663 0.008,0.0211 0.018,0.045 0.0223,0.0531 0.004,0.008 0.008,0.0191 0.008,0.0243 0,0.005 0.005,0.0215 0.0116,0.0363 0.006,0.0148 0.0184,0.0499 0.0268,0.078 0.008,0.0281 0.0179,0.0588 0.0213,0.0682 0.0237,0.065 0.064,0.27542 0.0768,0.40053 0.0157,0.15346 0.0195,0.34474 0.009,0.47536 -0.01,0.12413 -0.0132,0.15021 -0.0356,0.26606 -0.005,0.0281 -0.013,0.0684 -0.0168,0.0895 -0.003,0.0211 -0.0132,0.0614 -0.0209,0.0895 -0.008,0.0281 -0.0169,0.0626 -0.0206,0.0767 -0.01,0.037 -0.0272,0.0897 -0.0405,0.1206 -0.006,0.0148 -0.0115,0.0311 -0.0115,0.0363 0,0.005 -0.003,0.0161 -0.008,0.0243 -0.004,0.008 -0.0144,0.0321 -0.0225,0.0531 -0.0239,0.0617 -0.12372,0.26379 -0.15898,0.32185 -0.0178,0.0294 -0.0324,0.0554 -0.0324,0.0579 0,0.002 -0.004,0.009 -0.009,0.0148 -0.005,0.005 -0.03,0.0424 -0.0559,0.0817 -0.0258,0.0393 -0.0516,0.0765 -0.0572,0.0828 -0.005,0.006 -0.014,0.0163 -0.0187,0.0224 -0.10095,0.13033 -0.2766,0.31504 -0.38349,0.40328 -0.0281,0.0232 -0.0524,0.0451 -0.054,0.0486 -0.001,0.003 -0.007,0.006 -0.011,0.006 -0.005,0 -0.0165,0.008 -0.0267,0.0173 -0.0102,0.01 -0.0398,0.0316 -0.0657,0.049 -0.0259,0.0174 -0.0483,0.0346 -0.0499,0.0381 -0.001,0.003 -0.006,0.006 -0.01,0.006 -0.003,0 -0.0293,0.0148 -0.0568,0.033 -0.11609,0.0767 -0.29216,0.16451 -0.45477,0.22675 -0.0211,0.008 -0.0442,0.0176 -0.0514,0.0212 -0.007,0.003 -0.0263,0.009 -0.0423,0.013 -0.0161,0.003 -0.0352,0.009 -0.0423,0.013 -0.0117,0.006 -0.0577,0.0192 -0.14516,0.0422 -0.0799,0.0211 -0.24145,0.049 -0.3494,0.0606 -0.0929,0.01 -0.38564,0.0203 -0.39201,0.0139 z m 0.33662,-0.87955 c 0.11251,-0.0152 0.17413,-0.026 0.21111,-0.0371 0.0841,-0.0252 0.12305,-0.0375 0.13829,-0.0436 0.009,-0.003 0.0343,-0.0135 0.0554,-0.0216 0.049,-0.019 0.17983,-0.0827 0.232,-0.11296 0.0412,-0.0239 0.15668,-0.1018 0.17362,-0.11711 0.005,-0.005 0.0283,-0.0237 0.0512,-0.0421 0.0513,-0.0412 0.15796,-0.14803 0.20376,-0.20397 0.0187,-0.0229 0.0426,-0.0516 0.0531,-0.0639 0.0105,-0.0123 0.0191,-0.025 0.0191,-0.0282 1e-5,-0.003 0.005,-0.0109 0.0111,-0.017 0.0446,-0.0453 0.17987,-0.30436 0.21061,-0.40328 0.006,-0.0187 0.0145,-0.0437 0.0192,-0.0554 0.005,-0.0117 0.0117,-0.0347 0.0155,-0.0512 0.003,-0.0164 0.0131,-0.0548 0.0206,-0.0852 0.0446,-0.18025 0.0456,-0.50239 0.002,-0.71304 -0.006,-0.0289 -0.0137,-0.0555 -0.0172,-0.0589 -0.003,-0.003 -0.006,-0.0144 -0.006,-0.0242 4e-5,-0.0204 -0.0498,-0.16705 -0.0609,-0.17924 -0.004,-0.005 -0.007,-0.0128 -0.007,-0.0186 0,-0.0183 -0.0869,-0.19373 -0.1029,-0.20771 -0.003,-0.002 -0.007,-0.01 -0.0106,-0.017 -0.0107,-0.0241 -0.0926,-0.14086 -0.13587,-0.19392 -0.029,-0.0355 -0.202,-0.20738 -0.24066,-0.23903 -0.0396,-0.0324 -0.16352,-0.11623 -0.21305,-0.14409 -0.0757,-0.0425 -0.24427,-0.12177 -0.2592,-0.12177 -0.005,0 -0.0161,-0.003 -0.0243,-0.007 -0.0193,-0.01 -0.0751,-0.0277 -0.1128,-0.0363 -0.0164,-0.003 -0.0567,-0.0129 -0.0895,-0.0203 -0.1944,-0.044 -0.48736,-0.044 -0.68176,0 -0.0328,0.007 -0.0731,0.0165 -0.0895,0.0203 -0.0522,0.0119 -0.12267,0.0365 -0.16474,0.0573 -0.0133,0.007 -0.0289,0.012 -0.0346,0.012 -0.009,0 -0.14215,0.0657 -0.20967,0.10334 -0.0375,0.0209 -0.16502,0.10808 -0.20027,0.13686 -0.0466,0.038 -0.22324,0.21626 -0.25993,0.26227 -0.031,0.0389 -0.11142,0.15706 -0.12198,0.17929 -0.003,0.007 -0.0176,0.0319 -0.0318,0.0554 -0.0142,0.0234 -0.028,0.0484 -0.0306,0.0554 -0.003,0.007 -0.0136,0.032 -0.0243,0.0554 -0.0107,0.0235 -0.0261,0.0598 -0.0343,0.081 -0.008,0.0211 -0.0202,0.0504 -0.0265,0.0652 -0.006,0.0148 -0.0116,0.033 -0.0116,0.0406 0,0.008 -0.003,0.0204 -0.008,0.0285 -0.0291,0.0574 -0.0685,0.32627 -0.0683,0.46646 1.3e-4,0.1137 0.025,0.31659 0.0496,0.4048 0.006,0.0211 0.0166,0.0594 0.0238,0.0852 0.007,0.0258 0.0165,0.0505 0.0205,0.055 0.004,0.005 0.007,0.0148 0.007,0.0229 0,0.0133 0.0549,0.1415 0.0772,0.18052 0.005,0.009 0.0172,0.0316 0.0272,0.0512 0.0101,0.0196 0.0316,0.0567 0.0479,0.0825 0.18605,0.29524 0.46266,0.52641 0.78511,0.65614 0.0258,0.0103 0.0546,0.022 0.064,0.0259 0.009,0.004 0.0381,0.0132 0.0639,0.0206 0.0258,0.008 0.0591,0.0175 0.074,0.0223 0.13745,0.0438 0.4397,0.0621 0.62051,0.0377 z m 2.32226,-3.70715 c -0.0637,-0.0122 -0.0703,-0.0144 -0.14487,-0.0493 -0.14067,-0.0658 -0.24141,-0.18232 -0.30371,-0.35119 -0.0225,-0.0609 -0.0224,-0.27041 2.1e-4,-0.33236 0.0549,-0.15068 0.12898,-0.2478 0.24614,-0.32237 0.027,-0.0172 0.0514,-0.0313 0.0541,-0.0313 0.003,0 0.017,-0.005 0.0318,-0.012 0.0723,-0.0322 0.11187,-0.0392 0.22255,-0.0392 0.0934,0 0.12145,0.003 0.17132,0.0195 0.1873,0.0614 0.32125,0.19726 0.38392,0.38953 0.0221,0.0678 0.0218,0.25829 -4.3e-4,0.32384 -0.0558,0.16422 -0.15941,0.28668 -0.29883,0.35323 -0.12701,0.0606 -0.23426,0.0759 -0.3622,0.0515 z"
       id="path12"
       inkscape:export-filename=".\instagram.svg"
       inkscape:export-xdpi="96"
       inkscape:export-ydpi="96" /></g></svg>
