<?xml version="1.0" encoding="UTF-8" standalone="no"?>
<!-- Created with Inkscape (http://www.inkscape.org/) -->

<svg
   width="44.880199mm"
   height="16.403488mm"
   viewBox="0 0 44.880198 16.403488"
   version="1.1"
   id="svg1"
   xml:space="preserve"
   sodipodi:docname="rect9.svg"
   xmlns:inkscape="http://www.inkscape.org/namespaces/inkscape"
   xmlns:sodipodi="http://sodipodi.sourceforge.net/DTD/sodipodi-0.dtd"
   xmlns="http://www.w3.org/2000/svg"
   xmlns:svg="http://www.w3.org/2000/svg"><sodipodi:namedview
     id="namedview1"
     pagecolor="#ffffff"
     bordercolor="#000000"
     borderopacity="0.25"
     inkscape:showpageshadow="2"
     inkscape:pageopacity="0.0"
     inkscape:pagecheckerboard="0"
     inkscape:deskcolor="#d1d1d1"
     inkscape:document-units="mm" /><defs
     id="defs1" /><g
     inkscape:label="Layer 1"
     inkscape:groupmode="layer"
     id="layer1"
     transform="translate(117.54773,-54.899284)"><path
       style="fill:#f9f9f9;stroke-width:0.0465027"
       d="m -117.48776,71.298417 c -0.095,-0.0121 -0.10327,0.01045 0.17139,-0.461394 0.0395,-0.06766 0.0961,-0.167332 0.12628,-0.221469 0.03,-0.05414 0.0643,-0.112271 0.0761,-0.129191 0.0116,-0.01692 0.0408,-0.06685 0.0644,-0.110962 0.0237,-0.04411 0.0874,-0.154844 0.14136,-0.246076 0.054,-0.09122 0.1006,-0.171718 0.10327,-0.178864 0.005,-0.01326 0.19079,-0.332365 0.32064,-0.550479 0.0395,-0.0663 0.0718,-0.12364 0.0718,-0.127417 0,-0.0038 0.0363,-0.06858 0.0807,-0.143991 0.0946,-0.160643 0.0818,-0.138536 0.17991,-0.308469 0.0427,-0.07394 0.10092,-0.173604 0.12934,-0.221468 0.0285,-0.04786 0.0619,-0.106403 0.0744,-0.130086 0.0124,-0.02368 0.0551,-0.09844 0.0945,-0.166102 0.17396,-0.297907 0.2236,-0.383539 0.24084,-0.415403 0.01,-0.01869 0.0675,-0.118353 0.12766,-0.221468 0.16513,-0.283312 0.32534,-0.559958 0.40591,-0.70089 0.0398,-0.06951 0.11032,-0.191016 0.15688,-0.27 0.0465,-0.079 0.0846,-0.147039 0.0846,-0.151215 0,-0.0042 0.0107,-0.02261 0.0232,-0.04094 0.0235,-0.03379 0.20854,-0.350398 0.30358,-0.519337 0.0286,-0.05076 0.0705,-0.123656 0.0933,-0.162002 0.0227,-0.03834 0.0579,-0.0991 0.0783,-0.134992 0.0957,-0.16912 0.1666,-0.292363 0.24152,-0.419598 0.0449,-0.07619 0.0968,-0.166211 0.11543,-0.200046 0.0186,-0.03384 0.0774,-0.134311 0.13067,-0.223287 0.0533,-0.08897 0.0968,-0.164671 0.0968,-0.168212 0,-0.0035 0.0353,-0.0664 0.0783,-0.139681 0.0431,-0.07328 0.10897,-0.185829 0.14642,-0.250116 0.0374,-0.06429 0.0796,-0.136268 0.0937,-0.159949 0.0141,-0.02369 0.0375,-0.06521 0.0521,-0.09229 0.0146,-0.02708 0.0784,-0.136715 0.1418,-0.24366 0.0634,-0.106953 0.11524,-0.196992 0.11524,-0.200106 0,-0.003 0.0351,-0.06511 0.0781,-0.137759 0.11306,-0.191294 0.23206,-0.395956 0.25377,-0.43645 0.0107,-0.01929 0.0598,-0.105433 0.10988,-0.191415 0.0501,-0.08597 0.10498,-0.18125 0.12194,-0.211702 0.017,-0.03046 0.0742,-0.128379 0.12732,-0.217628 0.0531,-0.08924 0.0966,-0.165052 0.0966,-0.168464 0,-0.0035 0.0307,-0.05668 0.0683,-0.11837 0.0376,-0.06168 0.0719,-0.121436 0.0763,-0.132771 0.004,-0.01126 0.0426,-0.07885 0.085,-0.150005 0.0425,-0.07118 0.0914,-0.154313 0.10906,-0.184762 0.1365,-0.236513 0.2805,-0.484191 0.35178,-0.605001 0.0465,-0.079 0.0847,-0.146376 0.0847,-0.149756 0,-0.0075 0.15231,-0.267162 0.19272,-0.328638 0.0158,-0.02405 0.0288,-0.04714 0.0288,-0.05132 0,-0.0042 0.0352,-0.06756 0.0783,-0.140825 0.19723,-0.335632 0.32227,-0.55212 0.32995,-0.571293 0.005,-0.01144 0.0371,-0.06685 0.0723,-0.123011 0.0352,-0.05616 0.0702,-0.116265 0.0778,-0.133549 0.007,-0.01728 0.0435,-0.08124 0.0799,-0.1421 0.0364,-0.06087 0.0869,-0.146658 0.11221,-0.190647 0.11758,-0.204077 0.28171,-0.486721 0.3585,-0.617305 0.0465,-0.079 0.0844,-0.146558 0.0844,-0.150155 0,-0.0035 0.0332,-0.06153 0.0738,-0.128743 0.0406,-0.06722 0.0738,-0.126473 0.0738,-0.131677 0,-0.0053 0.0139,-0.02762 0.0307,-0.0498 0.0169,-0.02217 0.0307,-0.0434 0.0307,-0.04714 0,-0.0038 0.035,-0.06642 0.0779,-0.139234 0.0428,-0.07283 0.0918,-0.157329 0.10897,-0.187788 0.075,-0.13345 0.3085,-0.536344 0.31743,-0.54752 0.005,-0.0068 0.0276,-0.04552 0.0495,-0.08612 0.0219,-0.0406 0.0851,-0.151331 0.14063,-0.246077 0.0555,-0.09474 0.15513,-0.266376 0.22144,-0.381419 0.0662,-0.115039 0.15586,-0.26808 0.19904,-0.34009 0.0432,-0.072 0.0785,-0.134477 0.0785,-0.138835 0,-0.0043 0.0335,-0.06337 0.0745,-0.131147 0.041,-0.0678 0.0779,-0.132654 0.0821,-0.144156 0.004,-0.01144 0.0206,-0.03805 0.0363,-0.05899 0.0158,-0.02094 0.0286,-0.04139 0.0286,-0.04546 0,-0.0066 0.13667,-0.246185 0.21207,-0.371705 0.0162,-0.02708 0.0606,-0.102061 0.0985,-0.166649 0.038,-0.0646 0.0796,-0.130534 0.0926,-0.146558 l 0.0237,-0.02911 0.0434,0.06658 c 0.0239,0.0366 0.13138,0.22029 0.23882,0.408162 0.10745,0.187872 0.26831,0.467474 0.35744,0.621342 0.0892,0.153867 0.18388,0.318514 0.21056,0.365886 0.11195,0.198827 0.4678,0.815883 0.49668,0.861266 0.0172,0.02708 0.0816,0.137808 0.14318,0.246076 0.0616,0.108278 0.13988,0.243924 0.17411,0.301443 0.0342,0.05752 0.0622,0.108991 0.0622,0.114394 2e-5,0.01441 0.11116,0.207571 0.13598,0.236275 0.0117,0.01359 0.0739,0.121502 0.13825,0.239923 0.0643,0.11842 0.15892,0.287295 0.21018,0.375267 0.0513,0.08798 0.18251,0.314978 0.29167,0.504457 0.10916,0.189478 0.30545,0.529985 0.43619,0.756683 0.13074,0.2267 0.31357,0.545061 0.40627,0.707471 0.0927,0.162417 0.18922,0.328512 0.21446,0.369113 0.0253,0.0406 0.0613,0.101497 0.0802,0.135339 0.0189,0.03384 0.0796,0.139035 0.13496,0.233773 0.0554,0.09474 0.13264,0.230388 0.17178,0.301442 0.0391,0.07106 0.0906,0.159634 0.11422,0.196862 0.0237,0.03722 0.1345,0.228236 0.24624,0.424482 0.36165,0.635141 0.58298,1.020382 0.6079,1.058128 0.0134,0.0203 0.1168,0.198552 0.22976,0.396115 0.11295,0.197561 0.29193,0.510386 0.3977,0.695165 0.10572,0.18478 0.19826,0.347543 0.20549,0.361698 0.0113,0.02194 -0.002,0.05166 -0.0908,0.201476 -0.0572,0.09666 -0.10402,0.178404 -0.10402,0.181656 0,0.0033 -0.0352,0.06484 -0.0782,0.136882 -0.0764,0.127865 -0.25199,0.432524 -0.31306,0.543139 -0.0168,0.03046 -0.0733,0.127352 -0.12551,0.215316 -0.0522,0.08798 -0.14101,0.240234 -0.1973,0.338356 -0.29402,0.512391 -0.41683,0.724825 -0.58683,1.015065 -0.0476,0.08121 -0.10178,0.175329 -0.12039,0.209165 -0.0187,0.03384 -0.0712,0.125198 -0.11655,0.203014 -0.13297,0.2277 -0.216,0.371335 -0.24893,0.430633 -0.0639,0.115089 -0.19276,0.342413 -0.25378,0.44778 -0.0349,0.06019 -0.0634,0.11489 -0.0634,0.121568 0,0.008 0.20373,0.0095 0.58751,0.0043 0.32313,-0.0043 1.22145,-0.01326 1.99629,-0.01997 0.77483,-0.0066 1.54524,-0.01441 1.712,-0.01732 l 0.30322,-0.0053 0.0301,0.03279 c 0.0166,0.01803 0.04415,0.06049 0.06135,0.09431 0.01722,0.03384 0.04814,0.08921 0.06874,0.123043 0.0206,0.03384 0.105358,0.180559 0.188348,0.326051 0.08299,0.145498 0.160843,0.279108 0.172995,0.29692 0.0121,0.01782 0.133384,0.228023 0.269421,0.467132 0.136035,0.239108 0.256995,0.448771 0.268814,0.465916 0.04773,0.06924 0.311678,0.54463 0.313161,0.564018 0.0015,0.01902 -0.03093,0.02136 -0.373675,0.02698 -0.512005,0.0084 -10.371304,0.0028 -10.405964,-0.0058 -0.0153,-0.0038 -0.0277,-0.01193 -0.0277,-0.01806 0,-0.0061 0.0536,-0.10427 0.11885,-0.218158 0.0654,-0.11388 0.14209,-0.24858 0.17048,-0.299334 0.0284,-0.05076 0.0746,-0.129754 0.10263,-0.175546 0.0281,-0.04581 0.051,-0.08622 0.051,-0.08981 0,-0.0069 0.0979,-0.175821 0.29943,-0.515918 0.0682,-0.115039 0.1358,-0.231311 0.15033,-0.258381 0.0146,-0.02707 0.0875,-0.155275 0.16219,-0.284913 0.0747,-0.129639 0.15043,-0.267818 0.16841,-0.307076 0.018,-0.03926 0.0464,-0.08939 0.0632,-0.11141 0.0167,-0.02203 0.067,-0.10523 0.11161,-0.184931 0.0446,-0.07969 0.13284,-0.228844 0.19609,-0.331446 0.0633,-0.102595 0.13117,-0.216172 0.15091,-0.252375 0.0197,-0.03621 0.0845,-0.148879 0.14377,-0.25038 0.13009,-0.222661 0.25081,-0.43149 0.38765,-0.670558 0.0561,-0.09813 0.14745,-0.25592 0.20286,-0.350659 0.0554,-0.09474 0.14231,-0.244231 0.19312,-0.332202 0.0508,-0.08798 0.13408,-0.232025 0.18504,-0.320116 0.051,-0.0881 0.10783,-0.187752 0.12635,-0.221469 0.0186,-0.03372 0.0601,-0.105593 0.0924,-0.159734 0.0322,-0.05414 0.0704,-0.119529 0.0847,-0.145331 0.0144,-0.02581 0.0767,-0.133765 0.13844,-0.239925 0.14187,-0.243758 0.26204,-0.45182 0.3922,-0.679028 0.0562,-0.09812 0.13446,-0.232645 0.17389,-0.29894 0.0394,-0.06628 0.0717,-0.12944 0.0717,-0.14031 0,-0.02151 -0.0678,-0.147553 -0.1248,-0.232 -0.0196,-0.02907 -0.0596,-0.09894 -0.0889,-0.155275 -0.0561,-0.108047 -0.27114,-0.48455 -0.32068,-0.561533 -0.0161,-0.02494 -0.0998,-0.169919 -0.18601,-0.322178 -0.0862,-0.152258 -0.18842,-0.329436 -0.22705,-0.393723 -0.0386,-0.06429 -0.13802,-0.235924 -0.22088,-0.381418 -0.0829,-0.145496 -0.16461,-0.28617 -0.18166,-0.312615 -0.0171,-0.02645 -0.13746,-0.234074 -0.26756,-0.461395 -0.1301,-0.227319 -0.26598,-0.46037 -0.30194,-0.517891 -0.0655,-0.104686 -0.2023,-0.334829 -0.31309,-0.526543 -0.0324,-0.05615 -0.0613,-0.09976 -0.064,-0.09696 -0.009,0.0086 -0.0912,0.144985 -0.13922,0.22977 -0.025,0.04398 -0.10156,0.172096 -0.17044,0.284687 -0.0688,0.112586 -0.12518,0.207597 -0.12518,0.211124 0,0.0035 -0.0358,0.06643 -0.0795,0.139797 -0.0437,0.07336 -0.0939,0.158291 -0.11144,0.188749 -0.0176,0.03046 -0.0626,0.107963 -0.10017,0.172253 -0.0375,0.06429 -0.0833,0.14457 -0.10188,0.178406 -0.0185,0.03384 -0.0714,0.125197 -0.11761,0.203013 -0.0462,0.07782 -0.0991,0.169177 -0.1176,0.203013 -0.0185,0.03384 -0.0642,0.114111 -0.10177,0.178406 -0.0375,0.06428 -0.11467,0.197166 -0.17161,0.295291 -0.057,0.09813 -0.15527,0.266991 -0.21855,0.375266 -0.0633,0.108279 -0.12323,0.21347 -0.13326,0.233773 -0.01,0.0203 -0.0452,0.08022 -0.0782,0.133151 -0.0331,0.05295 -0.0647,0.108544 -0.0704,0.123574 -0.006,0.01509 -0.0442,0.0822 -0.0856,0.149242 -0.0413,0.06705 -0.0751,0.126689 -0.0751,0.132539 0,0.0058 -0.0139,0.02878 -0.0307,0.05096 -0.0169,0.02217 -0.0307,0.04357 -0.0307,0.04755 0,0.0039 -0.0415,0.07738 -0.0923,0.163113 -0.0508,0.08574 -0.0923,0.158208 -0.0923,0.161058 0,0.0028 -0.0131,0.02582 -0.029,0.05106 -0.0159,0.02524 -0.0638,0.106787 -0.10626,0.181217 -0.0426,0.07444 -0.11531,0.199967 -0.16177,0.278952 -0.0465,0.07897 -0.0844,0.147668 -0.0844,0.15264 0,0.005 -0.0139,0.02718 -0.0307,0.04935 -0.0168,0.02217 -0.0307,0.04396 -0.0307,0.04842 0,0.0045 -0.038,0.07265 -0.0843,0.151545 -0.0464,0.0789 -0.13635,0.233558 -0.19993,0.343703 -0.0636,0.11015 -0.15081,0.259633 -0.19384,0.332203 -0.043,0.07256 -0.0815,0.140245 -0.0854,0.150403 -0.004,0.01014 -0.0421,0.0766 -0.0847,0.147652 -0.0427,0.07106 -0.0776,0.134295 -0.0776,0.140526 -1e-5,0.0063 -0.007,0.02009 -0.0172,0.03076 -0.01,0.01056 -0.0281,0.03879 -0.0413,0.06249 -0.0132,0.02369 -0.0627,0.109503 -0.10987,0.190709 -0.0472,0.0812 -0.0964,0.166367 -0.10937,0.189248 -0.0131,0.02288 -0.061,0.104494 -0.10668,0.181383 -0.0457,0.07687 -0.0831,0.143161 -0.0831,0.147287 0,0.0042 -0.0332,0.06219 -0.0738,0.129026 -0.0406,0.06684 -0.0738,0.124435 -0.0738,0.128014 0,0.0035 -0.0423,0.07706 -0.094,0.163295 -0.0517,0.08624 -0.11018,0.18662 -0.12995,0.223071 -0.0387,0.07139 -0.21503,0.375196 -0.33166,0.571429 -0.0396,0.06652 -0.0719,0.123856 -0.0719,0.127418 0,0.0035 -0.0359,0.06621 -0.08,0.1392 -0.044,0.07301 -0.08,0.136318 -0.08,0.140693 0,0.0043 -0.0107,0.02295 -0.0232,0.0413 -0.0235,0.03379 -0.20854,0.350398 -0.30359,0.519336 -0.0286,0.05076 -0.0705,0.123872 -0.0932,0.1625 -0.0822,0.139665 -0.19575,0.336678 -0.21676,0.376366 -0.0117,0.02231 -0.0708,0.124733 -0.131,0.227621 -0.11548,0.197239 -0.28044,0.481779 -0.40446,0.697668 -0.0409,0.07106 -0.10935,0.189022 -0.15231,0.262152 -0.0429,0.07313 -0.0782,0.136798 -0.0784,0.141487 -1.8e-4,0.0046 -0.0156,0.02692 -0.0342,0.04936 l -0.0339,0.04084 -1.6545,0.0023 c -0.90995,0.0012 -1.67607,-5.3e-4 -1.70243,-0.0039 z m 4.38869,-0.02055 c -0.003,-0.0087 0.0613,-0.132688 0.14359,-0.275528 0.0824,-0.14283 0.16103,-0.279988 0.17496,-0.304784 0.0607,-0.108113 0.19791,-0.345255 0.32345,-0.558871 0.0747,-0.126937 0.17095,-0.293044 0.2141,-0.369117 0.0431,-0.07607 0.11575,-0.201985 0.16132,-0.279805 0.0456,-0.07782 0.085,-0.147471 0.0876,-0.154795 0.003,-0.0073 0.0432,-0.07807 0.0901,-0.15723 0.0571,-0.09613 0.0938,-0.145647 0.11074,-0.149094 0.0504,-0.01024 2.63401,-0.02632 2.64544,-0.01641 0.0165,0.01425 -0.0254,0.09172 -0.31134,0.576003 -0.0579,0.09812 -0.12536,0.214393 -0.14985,0.258379 -0.0245,0.04398 -0.11009,0.193478 -0.19017,0.332203 -0.0801,0.13872 -0.20455,0.354658 -0.27657,0.47985 -0.0721,0.125197 -0.18325,0.316865 -0.24717,0.425942 l -0.11622,0.198322 -0.10455,0.0083 c -0.0575,0.0045 -0.65469,0.0069 -1.32702,0.0054 -0.98302,-0.0023 -1.22364,-0.006 -1.22853,-0.01869 z m 15.664813,0.0051 c -0.0033,-0.0084 -0.0045,-1.720689 -0.0027,-3.804956 l 0.0032,-3.789574 h 0.51676 0.516759 l 0.0032,3.349712 0.003,3.349715 h 0.84279 0.842789 v 0.455242 0.455241 h -1.359958 c -1.076651,0 -1.361174,-0.0032 -1.365798,-0.01542 z m 3.454737,-3.789574 0.0032,-3.804956 h 0.510609 0.510608 l 0.0032,3.804956 0.003,3.804954 h -0.5168 -0.5168 z m 2.103954,7.29e-4 0.003,-3.805684 0.658253,-0.0035 c 1.080513,-0.006 1.392329,0.02282 1.694956,0.156137 0.291149,0.128247 0.45155,0.282072 0.578875,0.555122 0.08756,0.187767 0.124534,0.339757 0.150917,0.620469 0.02181,0.231877 0.0083,1.263203 -0.01875,1.431889 -0.07244,0.451752 -0.26473,0.72975 -0.603483,0.872454 l -0.08612,0.03629 v 0.100856 0.100856 l 0.10172,0.04102 c 0.263724,0.106339 0.445987,0.303427 0.536617,0.580274 0.0754,0.230307 0.105743,0.748623 0.08235,1.406363 -0.01896,0.532859 -0.05848,0.749552 -0.185392,1.016651 -0.06718,0.141354 -0.118088,0.215518 -0.218206,0.31782 -0.08751,0.08942 -0.137841,0.124518 -0.282921,0.197295 -0.13282,0.06663 -0.259062,0.105316 -0.471257,0.144403 -0.149391,0.02751 -0.177409,0.02839 -1.048612,0.03268 l -0.895122,0.0045 z m 1.695447,2.859075 c 0.111759,-0.0365 0.204612,-0.104419 0.264505,-0.19354 0.05998,-0.08924 0.08811,-0.173864 0.104132,-0.313211 0.01591,-0.138521 0.01542,-1.074372 -7.35e-4,-1.258031 -0.02294,-0.261394 -0.09118,-0.446756 -0.202108,-0.549015 -0.116729,-0.107598 -0.243466,-0.136897 -0.591937,-0.136897 h -0.238841 v 1.243964 1.243966 l 0.292215,-0.0054 c 0.25576,-0.0048 0.302265,-0.0087 0.372768,-0.03175 z m -0.112321,-3.374825 c 0.161738,-0.02725 0.307406,-0.12992 0.380549,-0.268218 0.101314,-0.191585 0.116233,-0.340106 0.109587,-1.091959 -0.0054,-0.623517 -0.008,-0.646092 -0.0867,-0.777687 -0.0472,-0.07893 -0.115834,-0.138191 -0.206529,-0.178295 -0.116281,-0.05142 -0.19644,-0.06191 -0.478888,-0.06262 l -0.264532,-6.69e-4 -0.0032,1.196545 -0.0032,1.196546 h 0.235901 c 0.129738,0 0.272345,-0.0061 0.316885,-0.01359 z m 2.375645,0.511945 V 63.68231 l 0.716697,2.36e-4 c 1.147216,3.77e-4 1.39385,0.02495 1.709774,0.170468 0.292166,0.134561 0.459151,0.319409 0.592365,0.655741 0.08122,0.205044 0.114608,0.443135 0.130881,0.932935 0.0229,0.689641 0.0084,1.562826 -0.03064,1.861662 -0.06665,0.508449 -0.2651,0.853007 -0.59987,1.041526 -0.03891,0.02191 -0.07074,0.04699 -0.07074,0.05576 0,0.0087 0.04398,0.170172 0.09775,0.358711 0.104537,0.366548 0.317946,1.118813 0.488188,1.720824 0.121916,0.431133 0.198726,0.69916 0.214723,0.749293 0.02357,0.07385 0.05899,0.06945 -0.531973,0.06597 l -0.543355,-0.0032 -0.133085,-0.516761 c -0.07319,-0.284217 -0.227521,-0.887719 -0.342943,-1.341116 -0.11542,-0.453396 -0.215086,-0.836814 -0.221476,-0.852039 -0.01144,-0.02721 -0.01524,-0.0277 -0.227201,-0.0277 h -0.215581 v 1.371876 1.371877 h -0.51676 -0.51676 z m 1.654864,0.141802 c 0.233022,-0.03743 0.383527,-0.174066 0.442919,-0.402091 0.05705,-0.219053 0.05674,-1.990917 -4.18e-4,-2.213431 -0.04222,-0.164455 -0.135753,-0.291614 -0.255782,-0.3478 -0.127219,-0.05954 -0.191797,-0.06836 -0.506637,-0.06914 l -0.295291,-7.3e-4 -0.0032,1.522598 -0.0032,1.522597 0.273809,-9.3e-5 c 0.150601,-3.9e-5 0.307027,-0.0054 0.347631,-0.01193 z m 2.194338,3.660243 c -0.0033,-0.0033 -0.0015,-0.04343 0.0039,-0.08921 0.01078,-0.0898 0.127153,-1.039607 0.243818,-1.990301 0.03986,-0.324822 0.10909,-0.889567 0.153833,-1.25499 0.04474,-0.365424 0.11673,-0.952315 0.159948,-1.304204 0.04322,-0.351889 0.115155,-0.938782 0.159865,-1.304205 0.144719,-1.182847 0.203413,-1.645264 0.210251,-1.656326 0.0038,-0.0061 0.376519,-0.01078 0.849049,-0.01078 h 0.842349 l 0.01127,0.02769 c 0.0063,0.01525 0.02021,0.107963 0.03108,0.206087 0.01094,0.09811 0.05276,0.446939 0.09308,0.775143 0.04031,0.328205 0.106819,0.870801 0.147784,1.205774 0.07142,0.584146 0.122678,1.00286 0.299692,2.448458 0.04433,0.36204 0.11943,0.976617 0.166877,1.365725 0.16202,1.328583 0.185669,1.519541 0.192341,1.553356 l 0.0068,0.03384 h -0.523222 -0.523137 l -0.0068,-0.0523 c -0.0038,-0.02877 -0.02677,-0.265456 -0.05112,-0.525989 -0.03889,-0.416168 -0.125496,-1.317316 -0.127417,-1.325736 -3.73e-4,-0.0017 -0.2496,-0.003 -0.553812,-0.003 h -0.553114 l -0.0063,0.03998 c -0.0087,0.05558 -0.05931,0.578893 -0.117973,1.221152 -0.02719,0.297754 -0.05276,0.564899 -0.05681,0.593661 l -0.0075,0.0523 h -0.519466 c -0.285705,0 -0.522161,-0.0027 -0.525456,-0.006 z m 2.228883,-2.843093 c 0,-0.0495 -0.03878,-0.468004 -0.110515,-1.192717 -0.0268,-0.270685 -0.06569,-0.738536 -0.08642,-1.039673 -0.02073,-0.301136 -0.05132,-0.727463 -0.06799,-0.947394 -0.01665,-0.21993 -0.03446,-0.460778 -0.03956,-0.535216 l -0.0093,-0.135339 h -0.135256 -0.135257 l -0.04525,0.6398 c -0.08933,1.262855 -0.156153,2.058449 -0.253994,3.024007 -0.01226,0.120309 -0.01955,0.221351 -0.01641,0.224545 0.0032,0.0032 0.206974,0.0058 0.452845,0.0058 h 0.447038 z m 2.033187,-0.955869 0.003,-3.804955 0.682863,-0.0035 c 1.120094,-0.006 1.408029,0.02079 1.715262,0.159036 0.147635,0.06642 0.232133,0.121469 0.325148,0.211793 0.211957,0.205836 0.337194,0.492377 0.389125,0.89031 0.05615,0.430275 0.05649,1.918081 5.49e-4,2.344896 -0.06743,0.514312 -0.259728,0.854399 -0.593517,1.049605 -0.04243,0.0248 -0.07712,0.05312 -0.07712,0.06291 0,0.0098 0.06406,0.242985 0.14235,0.518214 0.0783,0.27523 0.189323,0.666519 0.246732,0.869533 0.0574,0.203012 0.125959,0.44386 0.152325,0.535215 0.111444,0.386081 0.270642,0.951732 0.270642,0.961597 0,0.006 -0.243156,0.0091 -0.544444,0.0075 l -0.544445,-0.0032 -0.230333,-0.898179 c -0.126689,-0.493999 -0.283543,-1.105675 -0.348579,-1.359283 -0.06504,-0.253608 -0.120889,-0.465387 -0.124121,-0.470622 -0.0033,-0.0053 -0.102445,-0.0095 -0.220472,-0.0095 h -0.214558 v 1.371874 1.371876 h -0.516782 -0.516778 z m 1.735596,0.121833 c 0.196907,-0.06519 0.312668,-0.191981 0.358812,-0.392995 0.05966,-0.259893 0.0549,-1.968405 -0.0061,-2.21594 -0.05112,-0.207205 -0.167607,-0.325698 -0.37779,-0.384292 -0.05274,-0.01474 -0.149092,-0.02138 -0.375471,-0.026 l -0.304521,-0.0063 v 1.528493 1.52849 l 0.322976,-0.006 c 0.249841,-0.0046 0.336376,-0.01046 0.382156,-0.02557 z m 3.145964,2.723563 v -0.95956 l -0.06047,-0.273897 c -0.03326,-0.150652 -0.09754,-0.445538 -0.142846,-0.655318 -0.08002,-0.370574 -0.161953,-0.7488 -0.313153,-1.445697 -0.09452,-0.435673 -0.213745,-0.986039 -0.307846,-1.421092 -0.07351,-0.339872 -0.139234,-0.643023 -0.306712,-1.414938 -0.04698,-0.216548 -0.08917,-0.414484 -0.09376,-0.439861 l -0.0083,-0.04615 0.515054,1.91e-4 c 0.283279,1.03e-4 0.521246,0.0043 0.528814,0.0091 0.0076,0.005 0.04219,0.164074 0.07693,0.353547 0.09945,0.542272 0.205139,1.111025 0.253799,1.365724 0.03135,0.164141 0.06098,0.395013 0.09948,0.775139 0.05803,0.57325 0.165068,1.670476 0.165068,1.692165 0,0.0083 0.03865,0.0116 0.107666,0.0093 l 0.107664,-0.0035 0.01525,-0.153799 c 0.0084,-0.08458 0.03767,-0.378035 0.06504,-0.652103 0.0274,-0.274067 0.06902,-0.697627 0.0925,-0.941241 0.02855,-0.296113 0.05697,-0.518391 0.08573,-0.670559 0.0406,-0.21488 0.07143,-0.380892 0.233062,-1.254988 0.0369,-0.199631 0.07429,-0.398952 0.08305,-0.442938 l 0.01591,-0.07998 0.516008,-0.0032 c 0.283805,-0.0018 0.520177,9.89e-4 0.525273,0.0061 0.0096,0.0098 0.0046,0.03545 -0.113034,0.57534 -0.03982,0.182712 -0.09508,0.437401 -0.122828,0.565976 -0.02774,0.128578 -0.08034,0.37219 -0.116878,0.541369 -0.03656,0.169177 -0.09448,0.437707 -0.128695,0.596735 -0.03423,0.159019 -0.08649,0.399873 -0.116133,0.535215 -0.02965,0.13534 -0.0904,0.414946 -0.135024,0.621343 -0.153816,0.711501 -0.332359,1.53503 -0.44365,2.046263 l -0.05575,0.256061 v 0.934539 0.934336 h -0.510608 -0.510609 z m -22.512932,-11.562651 0.0032,-3.798804 h 0.516759 0.51676 l 0.003,3.798804 0.0032,3.798804 h -0.522953 -0.52295 z m 2.100898,-0.003 v -3.80188 h 0.522912 0.522913 v 3.80188 3.801879 h -0.522913 -0.522912 z m 2.445405,0.489077 -0.003,-3.312803 -0.199939,-0.0033 c -0.109967,-0.0018 -0.200385,-0.0046 -0.200933,-0.0061 -5.49e-4,-0.0015 -0.0076,-0.0855 -0.01575,-0.18664 l -0.01474,-0.183871 0.08038,-0.07607 c 0.04421,-0.04184 0.188362,-0.176224 0.320319,-0.29863 l 0.239926,-0.222553 0.409101,-4.29e-4 0.409102,-4.28e-4 v 3.801881 3.801879 h -0.510586 -0.510585 z m 2.125145,2.872939 c -0.01127,-0.532008 7.8e-5,-1.148698 0.02566,-1.392238 0.06346,-0.60437 0.231367,-1.005754 0.58512,-1.39881 0.189802,-0.210891 0.307094,-0.302513 0.829089,-0.647655 0.546556,-0.361377 0.61715,-0.432551 0.70497,-0.71076 0.06271,-0.198632 0.07691,-0.316625 0.08747,-0.725925 0.01276,-0.495873 -4.41e-4,-1.008458 -0.02914,-1.129851 -0.02494,-0.105497 -0.09716,-0.220618 -0.176237,-0.280978 -0.114278,-0.08723 -0.32247,-0.127733 -0.530516,-0.103203 -0.259035,0.03052 -0.403244,0.152656 -0.451067,0.382019 -0.02017,0.09667 -0.04447,0.813323 -0.03581,1.055849 0.003,0.08589 0.0083,0.240585 0.01144,0.343781 l 0.0058,0.187635 h -0.51012 -0.510119 l -2.3e-4,-0.12611 c -1.26e-4,-0.06935 -0.0057,-0.283911 -0.01226,-0.476772 -0.01309,-0.37892 -0.0012,-0.750532 0.03118,-0.982372 0.07795,-0.557693 0.302177,-0.907248 0.691034,-1.077321 0.239549,-0.104761 0.42885,-0.140907 0.791341,-0.15105 0.467372,-0.01309 0.771056,0.03379 1.053971,0.162682 0.409416,0.186519 0.613517,0.565242 0.682676,1.266762 0.0212,0.214947 0.02095,1.123276 -3.68e-4,1.347267 -0.04243,0.445986 -0.150386,0.768807 -0.348625,1.042507 -0.249807,0.344897 -0.454303,0.509082 -1.184135,0.950712 -0.189673,0.114774 -0.271636,0.178295 -0.345326,0.267634 -0.109372,0.132589 -0.177995,0.274882 -0.232811,0.482709 -0.08042,0.304914 -0.08311,0.32894 -0.0894,0.803014 l -0.0058,0.439862 h 1.071604 1.071602 v 0.455241 0.45524 h -1.585761 -1.585762 z"
       id="path10"
       inkscape:export-filename="logo.svg"
       inkscape:export-xdpi="96"
       inkscape:export-ydpi="96" /></g></svg>
