<?xml version="1.0" encoding="UTF-8" standalone="no"?>
<!-- Created with Inkscape (http://www.inkscape.org/) -->

<svg
   width="77.019028mm"
   height="28.150026mm"
   viewBox="0 0 77.019026 28.150026"
   version="1.1"
   id="svg1"
   xml:space="preserve"
   sodipodi:docname="rect9.svg"
   xmlns:inkscape="http://www.inkscape.org/namespaces/inkscape"
   xmlns:sodipodi="http://sodipodi.sourceforge.net/DTD/sodipodi-0.dtd"
   xmlns="http://www.w3.org/2000/svg"
   xmlns:svg="http://www.w3.org/2000/svg"><sodipodi:namedview
     id="namedview1"
     pagecolor="#ffffff"
     bordercolor="#000000"
     borderopacity="0.25"
     inkscape:showpageshadow="2"
     inkscape:pageopacity="0.0"
     inkscape:pagecheckerboard="0"
     inkscape:deskcolor="#d1d1d1"
     inkscape:document-units="mm" /><defs
     id="defs1" /><g
     inkscape:label="Layer 1"
     inkscape:groupmode="layer"
     id="layer1"
     transform="translate(149.68654,-43.152657)"><path
       style="fill:#f9f9f9;stroke-width:0.0798034"
       d="m -149.58365,71.295306 c -0.16302,-0.02076 -0.17721,0.01794 0.29413,-0.791799 0.0678,-0.116116 0.16492,-0.287159 0.21671,-0.380064 0.0515,-0.09291 0.11037,-0.192668 0.13065,-0.221705 0.0199,-0.02904 0.0701,-0.114715 0.1105,-0.190421 0.0407,-0.07569 0.14999,-0.265729 0.24259,-0.422292 0.0926,-0.156543 0.17264,-0.294686 0.17722,-0.306949 0.008,-0.02275 0.32741,-0.570373 0.55025,-0.944678 0.0678,-0.113781 0.12318,-0.212179 0.12318,-0.218661 0,-0.0065 0.0623,-0.117691 0.13849,-0.247103 0.16235,-0.27568 0.14038,-0.237742 0.30874,-0.529365 0.0733,-0.126886 0.1732,-0.297922 0.22196,-0.380061 0.049,-0.08214 0.10623,-0.182599 0.12771,-0.223241 0.0212,-0.04064 0.0945,-0.168933 0.16217,-0.285048 0.29854,-0.511239 0.38372,-0.658192 0.4133,-0.712874 0.0172,-0.03207 0.11584,-0.203106 0.21908,-0.380062 0.28338,-0.486193 0.55832,-0.960946 0.69659,-1.2028 0.0683,-0.119292 0.18932,-0.327803 0.26921,-0.463347 0.0798,-0.135572 0.14519,-0.252335 0.14519,-0.259501 0,-0.0072 0.0184,-0.03881 0.0398,-0.07026 0.0403,-0.05798 0.35788,-0.601318 0.52097,-0.891236 0.0491,-0.0871 0.12104,-0.212206 0.16012,-0.278012 0.039,-0.06579 0.0994,-0.170066 0.13437,-0.23166 0.16423,-0.290227 0.2859,-0.501724 0.41448,-0.720073 0.077,-0.130756 0.16612,-0.285234 0.19808,-0.343299 0.0319,-0.05808 0.13278,-0.230492 0.22425,-0.383183 0.0914,-0.152682 0.16611,-0.282592 0.16611,-0.28867 0,-0.006 0.0606,-0.113954 0.13437,-0.239707 0.0739,-0.125752 0.18701,-0.318901 0.25128,-0.429224 0.0642,-0.110325 0.1366,-0.23385 0.16079,-0.274489 0.0242,-0.04065 0.0643,-0.111913 0.0894,-0.158379 0.0251,-0.04647 0.13454,-0.234617 0.24333,-0.418146 0.10877,-0.183542 0.19776,-0.338058 0.19776,-0.343403 0,-0.0052 0.0602,-0.111739 0.13404,-0.236408 0.19402,-0.32828 0.39824,-0.679501 0.4355,-0.748993 0.0184,-0.03311 0.10262,-0.180934 0.18856,-0.328488 0.0859,-0.147533 0.18015,-0.311043 0.20926,-0.363302 0.0292,-0.05227 0.12731,-0.220312 0.2185,-0.373472 0.0911,-0.153145 0.16577,-0.283246 0.16577,-0.289102 0,-0.006 0.0527,-0.09727 0.11717,-0.203135 0.0645,-0.105854 0.12345,-0.208396 0.13092,-0.227848 0.007,-0.01932 0.0731,-0.135314 0.14586,-0.257424 0.073,-0.122149 0.15685,-0.264817 0.18715,-0.317071 0.23425,-0.40588 0.48138,-0.830922 0.6037,-1.038243 0.0798,-0.135572 0.14536,-0.251196 0.14536,-0.256998 0,-0.01281 0.26137,-0.458476 0.33072,-0.563975 0.0271,-0.04128 0.0494,-0.0809 0.0494,-0.08808 0,-0.0072 0.0605,-0.115943 0.13438,-0.241669 0.33846,-0.57598 0.55305,-0.947495 0.56622,-0.980397 0.008,-0.01963 0.0637,-0.114716 0.12411,-0.2111 0.0605,-0.09638 0.12051,-0.199524 0.13352,-0.229185 0.012,-0.02965 0.0746,-0.139415 0.13712,-0.243858 0.0624,-0.104452 0.14912,-0.251679 0.19256,-0.327169 0.20178,-0.350217 0.48344,-0.835264 0.61522,-1.059359 0.0798,-0.135572 0.14484,-0.251508 0.14484,-0.257681 0,-0.006 0.057,-0.105587 0.12664,-0.220936 0.0697,-0.115356 0.12665,-0.21704 0.12665,-0.225971 0,-0.0091 0.0239,-0.0474 0.0527,-0.08546 0.029,-0.03805 0.0527,-0.07448 0.0527,-0.0809 0,-0.0065 0.06,-0.113981 0.13369,-0.23894 0.0734,-0.124978 0.15753,-0.269992 0.18699,-0.322264 0.12865,-0.229014 0.52942,-0.920421 0.54475,-0.939599 0.008,-0.01161 0.0474,-0.07812 0.0849,-0.147791 0.0376,-0.06968 0.14603,-0.2597 0.24133,-0.422294 0.0953,-0.162583 0.26622,-0.457129 0.38002,-0.654553 0.11357,-0.197419 0.26748,-0.460054 0.34157,-0.58363 0.0741,-0.123563 0.13472,-0.230776 0.13472,-0.238256 0,-0.0073 0.0575,-0.10875 0.12785,-0.225061 0.0703,-0.116357 0.13367,-0.227647 0.14088,-0.247386 0.007,-0.01963 0.0354,-0.0653 0.0623,-0.101237 0.0271,-0.03594 0.0491,-0.07102 0.0491,-0.07802 0,-0.01134 0.23454,-0.422479 0.36394,-0.637883 0.0278,-0.04647 0.10396,-0.175148 0.16903,-0.285988 0.0653,-0.110858 0.13661,-0.224009 0.15891,-0.251508 l 0.0407,-0.04995 0.0745,0.114261 c 0.041,0.06282 0.22546,0.378041 0.40985,0.700449 0.18439,0.322407 0.46043,0.802233 0.61339,1.066286 0.15307,0.264052 0.31556,0.546603 0.36135,0.627898 0.19212,0.341207 0.80279,1.400139 0.85235,1.47802 0.0295,0.04647 0.14004,0.236493 0.24571,0.422292 0.10569,0.185816 0.24005,0.418599 0.2988,0.517308 0.0587,0.09871 0.10676,0.187039 0.10676,0.196311 4e-5,0.02473 0.19077,0.356214 0.23335,0.405472 0.0202,0.02333 0.12678,0.208511 0.23725,0.411732 0.11037,0.203222 0.27274,0.493029 0.36069,0.643997 0.0881,0.150983 0.31322,0.540535 0.50054,0.8657 0.18733,0.325164 0.52419,0.909509 0.74855,1.298546 0.22437,0.38904 0.53811,0.93538 0.6972,1.214093 0.15908,0.278724 0.32472,0.56376 0.36804,0.633435 0.0434,0.06968 0.10516,0.174179 0.13763,0.232256 0.0324,0.05808 0.1366,0.238598 0.2316,0.401179 0.095,0.162583 0.22763,0.395369 0.2948,0.517304 0.0671,0.121949 0.15548,0.273949 0.19601,0.337836 0.0407,0.06387 0.23082,0.391676 0.42257,0.728455 0.62064,1.089966 1.00045,1.75108 1.04322,1.815856 0.023,0.03483 0.20044,0.340736 0.39429,0.679774 0.19384,0.339035 0.50099,0.875874 0.6825,1.192974 0.18142,0.317102 0.34023,0.596419 0.35264,0.620711 0.0194,0.03765 -0.004,0.08865 -0.15583,0.345754 -0.0981,0.165878 -0.1785,0.306158 -0.1785,0.311739 0,0.0056 -0.0605,0.111272 -0.1342,0.234905 -0.13119,0.219428 -0.43244,0.742255 -0.53724,0.932082 -0.0288,0.05227 -0.12584,0.218549 -0.21539,0.369504 -0.0896,0.150982 -0.24199,0.412266 -0.33859,0.580653 -0.50457,0.879315 -0.71532,1.243874 -1.00706,1.741956 -0.0817,0.139365 -0.17466,0.300883 -0.20661,0.358948 -0.032,0.05808 -0.12211,0.214853 -0.2,0.348393 -0.22819,0.390757 -0.37068,0.637249 -0.4272,0.739011 -0.10969,0.197505 -0.3308,0.587615 -0.4355,0.768436 -0.0599,0.103291 -0.10877,0.197163 -0.10877,0.208624 0,0.01373 0.34962,0.01631 1.00823,0.0073 0.55452,-0.0073 2.09613,-0.02275 3.42584,-0.03427 1.32969,-0.01134 2.65179,-0.02473 2.93796,-0.02972 l 0.52037,-0.0091 0.0516,0.05628 c 0.0284,0.03095 0.0758,0.103812 0.1053,0.161846 0.0295,0.05808 0.0826,0.153094 0.11797,0.211155 0.0354,0.05808 0.1808,0.309857 0.32322,0.559536 0.14242,0.24969 0.27603,0.478978 0.29688,0.509546 0.0208,0.03057 0.22891,0.39131 0.46235,0.801645 0.23345,0.410335 0.44103,0.770137 0.46132,0.799561 0.0819,0.118825 0.53486,0.93464 0.53741,0.967912 0.003,0.03264 -0.0531,0.03666 -0.64126,0.0463 -0.87865,0.01441 -17.79822,0.0048 -17.8577,-0.01001 -0.0263,-0.0065 -0.0475,-0.02047 -0.0475,-0.03099 0,-0.01041 0.0919,-0.178937 0.20396,-0.374381 0.11223,-0.19543 0.24384,-0.426588 0.29255,-0.513688 0.0487,-0.0871 0.12798,-0.222671 0.17613,-0.301254 0.0482,-0.07862 0.0875,-0.147964 0.0875,-0.154124 0,-0.01188 0.16801,-0.301727 0.51385,-0.885369 0.11704,-0.197418 0.23305,-0.396952 0.25798,-0.443408 0.0251,-0.04645 0.15016,-0.266467 0.27834,-0.488939 0.12825,-0.222474 0.25815,-0.459603 0.289,-0.526974 0.031,-0.06738 0.0797,-0.153403 0.1085,-0.191191 0.0287,-0.03781 0.11503,-0.180585 0.19153,-0.31736 0.0765,-0.136758 0.22796,-0.392721 0.33651,-0.568796 0.10863,-0.176064 0.22509,-0.370973 0.25898,-0.433102 0.0338,-0.06213 0.145,-0.255491 0.24672,-0.429677 0.22324,-0.382109 0.43041,-0.740482 0.66525,-1.150746 0.0962,-0.168401 0.25303,-0.439186 0.34812,-0.601767 0.095,-0.162583 0.24422,-0.419126 0.33141,-0.570093 0.0871,-0.150982 0.2301,-0.398179 0.31755,-0.549352 0.0875,-0.151189 0.18505,-0.322202 0.21683,-0.380063 0.0319,-0.05786 0.10316,-0.181209 0.15857,-0.27412 0.0553,-0.09291 0.12077,-0.205124 0.14536,-0.249403 0.0247,-0.04429 0.13158,-0.229555 0.23757,-0.411736 0.24347,-0.418313 0.44969,-0.775369 0.67306,-1.165282 0.0965,-0.168384 0.23074,-0.399242 0.29841,-0.513011 0.0677,-0.113741 0.12305,-0.222132 0.12305,-0.240787 0,-0.03691 -0.11637,-0.253216 -0.21417,-0.398135 -0.0336,-0.04988 -0.10235,-0.169792 -0.15256,-0.266469 -0.0962,-0.185419 -0.46531,-0.831537 -0.55033,-0.963647 -0.0276,-0.0428 -0.17126,-0.291599 -0.3192,-0.552891 -0.14793,-0.261291 -0.32336,-0.565346 -0.38965,-0.675669 -0.0662,-0.110325 -0.23685,-0.404869 -0.37905,-0.654552 -0.14227,-0.249686 -0.28249,-0.491097 -0.31175,-0.536479 -0.0294,-0.04539 -0.23589,-0.401695 -0.45916,-0.791802 -0.22326,-0.390102 -0.45644,-0.790043 -0.51817,-0.888754 -0.11236,-0.179652 -0.34716,-0.574601 -0.53729,-0.903601 -0.0556,-0.09637 -0.10516,-0.171199 -0.10983,-0.166394 -0.0155,0.01476 -0.15651,0.24881 -0.23892,0.394308 -0.0428,0.07548 -0.17428,0.295336 -0.29248,0.488553 -0.11811,0.193209 -0.21482,0.356257 -0.21482,0.362311 0,0.006 -0.0614,0.113994 -0.13644,0.239906 -0.075,0.125898 -0.16113,0.271643 -0.19124,0.323912 -0.0302,0.05227 -0.10743,0.185276 -0.1719,0.295603 -0.0643,0.110325 -0.14295,0.248098 -0.17483,0.306164 -0.0318,0.05808 -0.12251,0.214851 -0.20183,0.348391 -0.0793,0.133546 -0.17007,0.290326 -0.20182,0.34839 -0.0318,0.05808 -0.1101,0.195828 -0.17465,0.306164 -0.0643,0.110312 -0.19679,0.338357 -0.2945,0.50675 -0.0978,0.1684 -0.26645,0.458183 -0.37506,0.643995 -0.10863,0.185818 -0.21146,0.366336 -0.22868,0.401179 -0.0172,0.03483 -0.0775,0.137664 -0.1342,0.2285 -0.0568,0.09087 -0.11103,0.186272 -0.12077,0.212065 -0.0107,0.02589 -0.0758,0.141064 -0.14691,0.256114 -0.0709,0.115063 -0.12891,0.217412 -0.12891,0.227452 0,0.01001 -0.0239,0.04939 -0.0527,0.08745 -0.029,0.03805 -0.0527,0.07477 -0.0527,0.08161 0,0.0067 -0.0713,0.132798 -0.15839,0.27992 -0.0871,0.147138 -0.15839,0.271501 -0.15839,0.276392 0,0.0048 -0.0226,0.04431 -0.0498,0.08762 -0.0272,0.04332 -0.10943,0.183257 -0.18236,0.310987 -0.0731,0.127753 -0.19789,0.343163 -0.27761,0.47871 -0.0798,0.135521 -0.14484,0.253413 -0.14484,0.261946 0,0.0085 -0.0239,0.04664 -0.0527,0.08469 -0.0288,0.03805 -0.0527,0.07544 -0.0527,0.08309 0,0.0077 -0.0653,0.12467 -0.14466,0.260067 -0.0797,0.135401 -0.234,0.40081 -0.34311,0.58983 -0.10916,0.189028 -0.2588,0.445557 -0.33265,0.570094 -0.0738,0.124524 -0.13986,0.240675 -0.14656,0.258107 -0.007,0.0174 -0.0722,0.13145 -0.14534,0.253386 -0.0733,0.121948 -0.13319,0.230465 -0.13319,0.241157 -3e-5,0.01081 -0.012,0.03448 -0.0295,0.05279 -0.0172,0.01812 -0.0482,0.06657 -0.0709,0.107242 -0.0227,0.04065 -0.10757,0.187918 -0.18856,0.327276 -0.081,0.139348 -0.16543,0.285503 -0.18768,0.324768 -0.0224,0.03926 -0.10463,0.179324 -0.18307,0.311273 -0.0785,0.131917 -0.14261,0.245678 -0.14261,0.252759 0,0.0072 -0.057,0.106721 -0.12665,0.221422 -0.0697,0.114702 -0.12664,0.213543 -0.12664,0.219685 0,0.006 -0.0726,0.132238 -0.16131,0.280231 -0.0887,0.147996 -0.18908,0.320259 -0.22301,0.382813 -0.0665,0.122509 -0.36902,0.643874 -0.56916,0.98063 -0.0679,0.114155 -0.12344,0.21255 -0.12344,0.218663 0,0.006 -0.0616,0.11362 -0.13729,0.238881 -0.0755,0.125298 -0.13729,0.233936 -0.13729,0.241444 0,0.0073 -0.0184,0.03938 -0.0398,0.07088 -0.0403,0.05799 -0.35787,0.601319 -0.52099,0.891234 -0.0491,0.0871 -0.12104,0.212577 -0.15994,0.278866 -0.14107,0.23968 -0.33592,0.577774 -0.37198,0.645883 -0.0202,0.03829 -0.12158,0.214055 -0.22482,0.390621 -0.19817,0.338482 -0.48126,0.826782 -0.69409,1.19727 -0.0702,0.121948 -0.18765,0.324381 -0.26138,0.449879 -0.0737,0.125499 -0.1342,0.234761 -0.13455,0.242807 -3e-4,0.0079 -0.0268,0.0462 -0.0587,0.0847 l -0.0582,0.07009 -2.83929,0.004 c -1.56156,0.002 -2.8763,-9.09e-4 -2.92154,-0.0067 z m 7.53145,-0.03527 c -0.005,-0.01493 0.10516,-0.227706 0.24642,-0.472833 0.1414,-0.245111 0.27634,-0.480489 0.30025,-0.523042 0.10423,-0.185533 0.33962,-0.592493 0.55507,-0.959079 0.12824,-0.217838 0.29336,-0.502894 0.36742,-0.633443 0.0739,-0.130542 0.19864,-0.346628 0.27684,-0.480174 0.0782,-0.133547 0.14586,-0.253075 0.15032,-0.265644 0.005,-0.01254 0.0742,-0.133976 0.15463,-0.269824 0.098,-0.164967 0.16097,-0.249944 0.19004,-0.25586 0.0865,-0.01758 4.52022,-0.04516 4.53984,-0.02816 0.0283,0.02446 -0.0436,0.157401 -0.53429,0.98848 -0.0994,0.168384 -0.21512,0.36792 -0.25716,0.443406 -0.042,0.07548 -0.18893,0.332028 -0.32634,0.570094 -0.13747,0.238058 -0.35103,0.608629 -0.47462,0.823471 -0.12371,0.214851 -0.31448,0.543773 -0.42418,0.730961 l -0.19944,0.340341 -0.17941,0.01424 c -0.0986,0.0077 -1.12352,0.01188 -2.27731,0.0092 -1.68696,-0.004 -2.0999,-0.01028 -2.10828,-0.03207 z m 26.88243,0.0088 c -0.005,-0.01441 -0.008,-2.952879 -0.004,-6.529695 l 0.005,-6.503298 h 0.88681 0.88682 l 0.005,5.748449 0.005,5.748455 h 1.44631 1.44633 v 0.781241 0.781241 h -2.33383 c -1.84764,0 -2.33592,-0.0055 -2.34386,-0.02646 z m 5.92867,-6.503298 0.005,-6.529695 h 0.87626 0.87625 l 0.005,6.529695 0.005,6.529691 h -0.88688 -0.88688 z m 3.61061,0.0012 0.005,-6.530943 1.12963,-0.006 c 1.85427,-0.01028 2.38938,0.03916 2.90872,0.267946 0.49964,0.220086 0.77491,0.484066 0.99341,0.952647 0.15026,0.322228 0.21371,0.583058 0.25899,1.064788 0.0374,0.397926 0.0142,2.167786 -0.0322,2.457269 -0.12431,0.775252 -0.4543,1.252326 -1.03564,1.497221 l -0.14779,0.06228 v 0.173079 0.173079 l 0.17457,0.0704 c 0.45257,0.182488 0.76536,0.520713 0.92089,0.995811 0.12939,0.395229 0.18146,1.284712 0.14132,2.413462 -0.0325,0.91444 -0.10036,1.286308 -0.31815,1.744677 -0.11529,0.242578 -0.20266,0.369851 -0.37447,0.545412 -0.15017,0.153454 -0.23655,0.213686 -0.48552,0.338578 -0.22793,0.114342 -0.44458,0.180733 -0.80873,0.247811 -0.25637,0.04722 -0.30445,0.04872 -1.79952,0.05608 l -1.53612,0.0077 z m 2.90956,4.906467 c 0.19179,-0.06264 0.35113,-0.179194 0.45392,-0.332135 0.10293,-0.153145 0.1512,-0.298369 0.1787,-0.537502 0.0273,-0.237717 0.0265,-1.843732 -10e-4,-2.15891 -0.0394,-0.448579 -0.15648,-0.76668 -0.34684,-0.942166 -0.20032,-0.184649 -0.41781,-0.234929 -1.01583,-0.234929 h -0.40987 v 2.134769 2.134774 l 0.50147,-0.0092 c 0.43891,-0.0083 0.51872,-0.01493 0.63971,-0.05449 z m -0.19276,-5.791546 c 0.27756,-0.04676 0.52754,-0.222956 0.65306,-0.46029 0.17387,-0.32878 0.19947,-0.583657 0.18807,-1.873913 -0.009,-1.070019 -0.0137,-1.10876 -0.14879,-1.33459 -0.081,-0.135452 -0.19878,-0.237151 -0.35442,-0.305973 -0.19955,-0.08824 -0.33711,-0.106241 -0.82182,-0.107469 l -0.45397,-0.0011 -0.005,2.053395 -0.005,2.053395 h 0.40483 c 0.22264,0 0.46737,-0.01041 0.54381,-0.02333 z m 4.076855,0.87855 v -6.53493 l 1.229925,4.05e-4 c 1.96874,6.46e-4 2.391989,0.04281 2.934147,0.29254 0.501387,0.230921 0.78795,0.548139 1.01656,1.125319 0.139381,0.351877 0.196678,0.760465 0.224604,1.601012 0.0393,1.183495 0.01441,2.681969 -0.05258,3.194803 -0.114381,0.872551 -0.454938,1.463848 -1.029438,1.787366 -0.06678,0.03759 -0.121401,0.08065 -0.121401,0.09569 0,0.01493 0.07547,0.292032 0.167749,0.615585 0.179397,0.629035 0.545629,1.919998 0.837781,2.95311 0.209221,0.739869 0.341034,1.199831 0.368486,1.285864 0.04045,0.126739 0.101237,0.119186 -0.91292,0.113207 l -0.932453,-0.0055 -0.228387,-0.886815 c -0.125605,-0.487745 -0.390449,-1.523417 -0.588525,-2.301493 -0.198073,-0.778074 -0.36911,-1.436058 -0.380076,-1.462186 -0.01963,-0.04669 -0.02616,-0.04754 -0.389901,-0.04754 h -0.369958 v 2.35428 2.354282 h -0.886814 -0.886812 z m 2.839916,0.243346 c 0.39989,-0.06423 0.658171,-0.298714 0.760094,-0.690028 0.0979,-0.375918 0.09737,-3.416618 -7.17e-4,-3.798475 -0.07245,-0.282222 -0.232967,-0.500439 -0.438948,-0.596861 -0.218321,-0.102171 -0.329143,-0.117318 -0.869442,-0.118652 l -0.50675,-0.0013 -0.0055,2.612934 -0.0055,2.612934 0.469885,-1.61e-4 c 0.258447,-6.6e-5 0.52689,-0.0092 0.59657,-0.02047 z m 3.765709,6.281353 c -0.0056,-0.0056 -0.0025,-0.07453 0.0067,-0.153093 0.0185,-0.154106 0.218207,-1.784072 0.418417,-3.415561 0.06841,-0.557428 0.187209,-1.526588 0.263993,-2.153692 0.07678,-0.627105 0.200321,-1.634269 0.274488,-2.238147 0.07417,-0.603877 0.197617,-1.611046 0.274345,-2.23815 0.248352,-2.029886 0.349076,-2.823441 0.360811,-2.842425 0.0065,-0.01041 0.646145,-0.0185 1.457056,-0.0185 h 1.445557 l 0.01934,0.04752 c 0.01081,0.02617 0.03468,0.185275 0.05334,0.353666 0.01878,0.168367 0.09055,0.766993 0.159735,1.330225 0.06918,0.563234 0.183312,1.494384 0.253612,2.069232 0.122562,1.002454 0.210528,1.721011 0.514303,4.201805 0.07608,0.621298 0.204954,1.675975 0.286377,2.343724 0.278044,2.279985 0.318628,2.607688 0.330077,2.665718 l 0.01161,0.05808 h -0.897902 -0.897757 l -0.01161,-0.08975 c -0.0065,-0.04938 -0.04593,-0.455549 -0.08773,-0.902652 -0.06674,-0.714186 -0.215364,-2.260648 -0.218661,-2.275098 -6.4e-4,-0.0029 -0.428339,-0.0052 -0.950398,-0.0052 h -0.9492 l -0.01081,0.06861 c -0.01493,0.09538 -0.101784,0.993439 -0.202453,2.095622 -0.04666,0.510976 -0.09055,0.969424 -0.09749,1.018783 l -0.01281,0.08975 h -0.891457 c -0.490298,0 -0.896081,-0.0047 -0.901735,-0.01028 z m 3.824992,-4.879038 c 0,-0.08494 -0.06655,-0.803144 -0.189655,-2.046826 -0.04599,-0.464523 -0.112727,-1.267404 -0.148307,-1.784185 -0.03558,-0.51678 -0.08807,-1.2484 -0.116677,-1.625825 -0.02857,-0.377423 -0.05913,-0.790742 -0.06789,-0.918486 l -0.01596,-0.232255 h -0.232113 -0.232116 l -0.07765,1.097962 c -0.153299,2.167188 -0.267974,3.53251 -0.435879,5.189506 -0.02105,0.206462 -0.03355,0.379862 -0.02816,0.385343 0.0055,0.0055 0.355189,0.01001 0.777129,0.01001 h 0.767163 z m 3.489156,-1.64037 0.0052,-6.529693 1.171863,-0.006 c 1.922196,-0.01028 2.416322,0.03567 2.943565,0.272921 0.253357,0.113981 0.398365,0.208455 0.557988,0.363459 0.36374,0.353236 0.578659,0.84497 0.667778,1.527863 0.09635,0.738397 0.09694,3.291624 9.42e-4,4.024082 -0.115716,0.882613 -0.44572,1.466237 -1.018536,1.80123 -0.07281,0.04256 -0.132344,0.09116 -0.132344,0.107963 0,0.01681 0.109937,0.416987 0.244287,0.889308 0.13437,0.472323 0.324898,1.143815 0.423417,1.492209 0.0985,0.348389 0.216159,0.761708 0.261406,0.918483 0.191248,0.662555 0.464449,1.633269 0.464449,1.650199 0,0.01028 -0.417281,0.01561 -0.934322,0.01281 l -0.934323,-0.0055 -0.395275,-1.541367 c -0.217412,-0.847754 -0.48659,-1.897452 -0.598198,-2.332669 -0.111619,-0.435218 -0.207457,-0.798652 -0.213004,-0.807636 -0.0056,-0.0091 -0.175806,-0.01631 -0.378353,-0.01631 h -0.368203 v 2.354277 2.354279 h -0.886851 -0.886844 z m 2.978461,0.209078 c 0.337913,-0.111873 0.536571,-0.32946 0.615758,-0.674419 0.102384,-0.446004 0.09422,-3.377986 -0.01041,-3.80278 -0.08773,-0.355586 -0.287631,-0.558933 -0.648326,-0.659486 -0.09051,-0.02529 -0.255858,-0.03669 -0.644347,-0.04461 l -0.522589,-0.01081 v 2.623051 2.623046 l 0.55426,-0.01028 c 0.428752,-0.0079 0.577255,-0.01795 0.655818,-0.04388 z m 5.398797,4.673913 v -1.646703 l -0.103772,-0.470036 c -0.05708,-0.258534 -0.167389,-0.764588 -0.245139,-1.124592 -0.137322,-0.635943 -0.277928,-1.285018 -0.537403,-2.480965 -0.162206,-0.747659 -0.366808,-1.692144 -0.528296,-2.438739 -0.126152,-0.583255 -0.23894,-1.103494 -0.526348,-2.428178 -0.08062,-0.37162 -0.153025,-0.711298 -0.160902,-0.754848 l -0.01424,-0.0792 0.883886,3.28e-4 c 0.486136,1.77e-4 0.894512,0.0073 0.907499,0.01561 0.01308,0.0085 0.0724,0.281567 0.132024,0.606722 0.170666,0.930595 0.352039,1.906633 0.435545,2.343723 0.05379,0.281683 0.104653,0.677883 0.170717,1.330218 0.09958,0.983756 0.283274,2.866708 0.283274,2.903929 0,0.01424 0.06633,0.01991 0.184766,0.01596 l 0.184763,-0.006 0.02617,-0.263934 c 0.01441,-0.145148 0.06464,-0.648747 0.11162,-1.119076 0.04702,-0.470327 0.118451,-1.197199 0.158739,-1.615266 0.04899,-0.50816 0.09777,-0.889612 0.147121,-1.150747 0.06968,-0.368757 0.122576,-0.65365 0.399958,-2.153688 0.06332,-0.342589 0.127487,-0.684643 0.142523,-0.760127 l 0.0273,-0.137254 0.885523,-0.0055 c 0.487038,-0.0031 0.892677,0.0017 0.901422,0.01041 0.01647,0.01681 0.0079,0.06084 -0.193977,0.987341 -0.06834,0.313553 -0.163168,0.750626 -0.210786,0.971273 -0.0476,0.220654 -0.137872,0.638717 -0.200574,0.929045 -0.06274,0.290325 -0.162138,0.75115 -0.220855,1.024059 -0.05875,0.272893 -0.148425,0.686222 -0.199296,0.918483 -0.05088,0.232257 -0.155135,0.71209 -0.231715,1.066288 -0.263963,1.22101 -0.570362,2.63427 -0.761349,3.511598 l -0.09567,0.439426 v 1.603765 1.603417 h -0.876255 -0.876257 z m -38.634496,-19.842694 0.005,-6.519137 h 0.88681 0.88682 l 0.005,6.519137 0.005,6.519137 h -0.89743 -0.89744 z m 3.60535,-0.0052 v -6.524415 h 0.89737 0.89738 v 6.524415 6.524414 h -0.89738 -0.89737 z m 4.19657,0.839307 -0.005,-5.68511 -0.34311,-0.0056 c -0.18872,-0.0031 -0.34388,-0.0079 -0.34482,-0.01041 -9.5e-4,-0.0025 -0.0131,-0.146727 -0.027,-0.320293 l -0.0253,-0.315542 0.13794,-0.130542 c 0.0759,-0.0718 0.32325,-0.30242 0.5497,-0.512481 l 0.41174,-0.381923 0.70206,-7.36e-4 0.70206,-7.34e-4 v 6.524418 6.524413 h -0.87622 -0.87621 z m 3.64697,4.930257 c -0.0193,-0.91298 1.3e-4,-1.971284 0.044,-2.389223 0.10889,-1.03716 0.39704,-1.725976 1.00412,-2.400502 0.32572,-0.361909 0.52701,-0.519142 1.4228,-1.111441 0.93795,-0.62016 1.0591,-0.742302 1.2098,-1.219738 0.107618,-0.340872 0.131987,-0.543361 0.150111,-1.245762 0.0219,-0.850968 -7.57e-4,-1.730616 -0.05,-1.93894 -0.0428,-0.181043 -0.166741,-0.378603 -0.302441,-0.482186 -0.19612,-0.149696 -0.5534,-0.219203 -0.91042,-0.177107 -0.44454,0.05238 -0.69201,0.261974 -0.77408,0.655583 -0.0346,0.165897 -0.0763,1.395746 -0.0615,1.811946 0.005,0.147395 0.0142,0.412868 0.0196,0.589963 l 0.01,0.322002 h -0.87541 -0.87542 l -4e-4,-0.216419 c -2.1e-4,-0.119012 -0.01,-0.487219 -0.021,-0.818189 -0.0225,-0.650266 -0.002,-1.28799 0.0535,-1.685852 0.13377,-0.957057 0.51857,-1.55693 1.18589,-1.848793 0.41109,-0.17978 0.73595,-0.241811 1.35802,-0.259217 0.80206,-0.02246 1.323217,0.05799 1.808728,0.279179 0.7026,0.320087 1.052857,0.970013 1.171541,2.173894 0.03638,0.368871 0.03595,1.927657 -6.31e-4,2.312048 -0.07281,0.765357 -0.258078,1.319352 -0.598276,1.789049 -0.428694,0.591879 -0.779631,0.873637 -2.032102,1.631519 -0.3255,0.196964 -0.46616,0.305973 -0.59261,0.459288 -0.1877,0.227535 -0.30546,0.471725 -0.39953,0.828378 -0.13801,0.523263 -0.14263,0.564494 -0.15342,1.378054 l -0.01,0.754848 h 1.83898 1.838986 v 0.78124 0.781239 h -2.721336 -2.72133 z"
       id="path10"
       inkscape:export-filename="logo2.svg"
       inkscape:export-xdpi="96"
       inkscape:export-ydpi="96" /></g></svg>
