<?xml version="1.0" encoding="UTF-8" standalone="no"?>
<!-- Created with Inkscape (http://www.inkscape.org/) -->

<svg
   width="14.071896mm"
   height="14.046769mm"
   viewBox="0 0 14.071896 14.046769"
   version="1.1"
   id="svg1"
   xml:space="preserve"
   xmlns:inkscape="http://www.inkscape.org/namespaces/inkscape"
   xmlns:sodipodi="http://sodipodi.sourceforge.net/DTD/sodipodi-0.dtd"
   xmlns="http://www.w3.org/2000/svg"
   xmlns:svg="http://www.w3.org/2000/svg"><sodipodi:namedview
     id="namedview1"
     pagecolor="#ffffff"
     bordercolor="#000000"
     borderopacity="0.25"
     inkscape:showpageshadow="2"
     inkscape:pageopacity="0.0"
     inkscape:pagecheckerboard="0"
     inkscape:deskcolor="#d1d1d1"
     inkscape:document-units="mm"
     showguides="true"><sodipodi:guide
       position="63.8944,279.94168"
       orientation="0,-1"
       id="guide23"
       inkscape:locked="false" /><sodipodi:guide
       position="62.891023,296.99913"
       orientation="0,-1"
       id="guide24"
       inkscape:locked="false" /></sodipodi:namedview><defs
     id="defs1" /><g
     inkscape:label="Layer 1"
     inkscape:groupmode="layer"
     id="layer1"
     transform="translate(88.83552,-233.2129)"><path
       style="fill:#fe5d15;fill-opacity:1;stroke-width:0.0511495"
       d="m -88.778091,247.24019 -0.03045,-0.0151 v -0.97716 c 0,-0.63684 -0.0047,-0.98007 -0.01353,-0.98553 -0.02242,-0.0138 -0.01527,-0.0708 0.01015,-0.0809 0.01302,-0.005 0.09544,-0.0128 0.183144,-0.017 0.08771,-0.004 0.162665,-0.0128 0.166582,-0.0191 0.004,-0.007 0.05207,-0.0115 0.107023,-0.0115 0.05495,0 0.103666,-0.006 0.108266,-0.0136 0.0046,-0.007 0.04418,-0.0136 0.08797,-0.0136 0.04378,0 0.08337,-0.006 0.08797,-0.0136 0.0046,-0.007 0.03504,-0.0136 0.06767,-0.0136 0.03262,0 0.06307,-0.006 0.06767,-0.0136 0.0046,-0.007 0.02229,-0.0136 0.0393,-0.0136 0.01701,0 0.04196,-0.0122 0.05543,-0.0271 0.01347,-0.0149 0.03008,-0.027 0.0369,-0.027 0.0068,0 0.06347,-0.0518 0.12589,-0.11503 0.06242,-0.0633 0.119206,-0.11503 0.126194,-0.11503 0.007,0 0.04497,-0.0335 0.08439,-0.0744 0.03943,-0.0409 0.07814,-0.0744 0.08604,-0.0744 0.01722,0 1.401414,-1.38204 1.401414,-1.39922 0,-0.0156 0.237806,-0.25184 0.25354,-0.25184 0.01673,0 0.08479,-0.0726 0.08479,-0.0905 0,-0.008 0.01215,-0.0178 0.027,-0.0217 0.01485,-0.004 0.03125,-0.0183 0.03645,-0.032 0.0052,-0.0137 0.224467,-0.24018 0.487266,-0.5032 0.262799,-0.26303 0.477817,-0.48378 0.477817,-0.49055 0,-0.007 0.03807,-0.0505 0.08458,-0.0971 0.128936,-0.12927 0.21315,-0.25567 0.21315,-0.31992 0,-0.0147 0.006,-0.0306 0.01354,-0.0352 0.0074,-0.005 0.01353,-0.0229 0.01353,-0.0406 0,-0.0177 0.0061,-0.036 0.01354,-0.0406 0.0074,-0.005 0.01353,-0.032 0.01353,-0.0609 0,-0.0289 0.0061,-0.0563 0.01354,-0.0609 0.0074,-0.005 0.01353,-0.0533 0.01353,-0.10826 0,-0.055 0.006,-0.10367 0.01354,-0.10827 0.0074,-0.005 0.01353,-0.0564 0.01353,-0.11504 0,-0.0587 0.006,-0.11042 0.01354,-0.11503 0.0086,-0.005 0.01353,-0.19567 0.01353,-0.5265 0,-0.50094 -8.23e-4,-0.51895 -0.02707,-0.54262 -0.02147,-0.0194 -0.02707,-0.0417 -0.02707,-0.10766 0,-0.0457 -0.0057,-0.089 -0.01266,-0.096 -0.007,-0.007 -0.01458,-0.0748 -0.01691,-0.15071 l -0.0043,-0.13785 0.115033,0.007 c 0.06327,0.004 0.125291,0.013 0.137827,0.0194 0.01254,0.007 0.0746,0.0117 0.137917,0.0117 0.06331,0 0.118888,0.006 0.123488,0.0136 0.0046,0.007 0.05028,0.0136 0.101501,0.0136 0.05123,0 0.0969,0.006 0.101498,0.0136 0.0046,0.007 0.05332,0.0136 0.108267,0.0136 0.05495,0 0.103666,0.006 0.108266,0.0135 0.0046,0.007 0.04418,0.0136 0.08797,0.0136 0.04378,0 0.08337,0.006 0.08797,0.0136 0.0046,0.007 0.05028,0.0136 0.101499,0.0136 0.05123,0 0.0969,0.006 0.101499,0.0136 0.0046,0.007 0.04723,0.0136 0.09473,0.0136 0.0475,0 0.09013,0.006 0.09473,0.0136 0.0046,0.007 0.04158,0.0136 0.08219,0.0136 0.04059,0 0.08439,0.006 0.09732,0.0129 0.02063,0.0113 0.15428,0.0269 0.429501,0.0502 0.04465,0.004 0.08698,0.0124 0.09406,0.0193 0.0071,0.007 0.05086,0.0124 0.09732,0.0124 0.04646,0 0.08823,0.006 0.09283,0.0136 0.0046,0.007 0.04418,0.0136 0.08797,0.0136 0.04378,0 0.08337,0.006 0.08797,0.0136 0.0046,0.007 0.04723,0.0136 0.09473,0.0136 0.0475,0 0.09013,0.006 0.09473,0.0136 0.0046,0.007 0.03809,0.0136 0.07443,0.0136 0.03634,0 0.06983,0.006 0.07443,0.0136 0.0046,0.007 0.04115,0.0136 0.0812,0.0136 0.04006,0 0.07659,0.006 0.0812,0.0136 0.0046,0.007 0.04419,0.0136 0.08797,0.0136 0.04378,0 0.08337,0.006 0.08797,0.0136 0.0046,0.007 0.04115,0.0135 0.0812,0.0135 0.04006,0 0.0766,0.006 0.0812,0.0136 0.0046,0.007 0.03744,0.0136 0.07298,0.0136 0.03554,0 0.06912,0.005 0.07464,0.0101 0.0097,0.01 0.192374,0.0375 0.346357,0.0526 0.04094,0.004 0.08022,0.0128 0.08729,0.0196 0.0071,0.007 0.03564,0.0123 0.06348,0.0123 0.02784,0 0.05439,0.006 0.05899,0.0136 0.0046,0.007 0.03504,0.0136 0.06767,0.0136 0.03262,0 0.06307,0.006 0.06767,0.0136 0.0046,0.007 0.0415,0.0136 0.082,0.0136 0.0405,0 0.07363,0.006 0.07363,0.0136 0,0.007 0.02096,0.0136 0.04657,0.0136 0.02561,0 0.05033,0.006 0.05494,0.0135 0.0046,0.007 0.03504,0.0136 0.06767,0.0136 0.03262,0 0.06307,0.006 0.06767,0.0136 0.0046,0.007 0.02896,0.0136 0.05413,0.0136 0.02517,0 0.04953,0.006 0.05414,0.0136 0.0046,0.007 0.03201,0.0136 0.0609,0.0136 0.02889,0 0.05575,0.005 0.05966,0.0116 0.004,0.007 0.04688,0.0152 0.09546,0.0198 0.04858,0.005 0.10014,0.0146 0.11458,0.0222 0.01443,0.007 0.05066,0.014 0.08047,0.014 0.02982,0 0.05799,0.006 0.06259,0.0136 0.0046,0.007 0.03504,0.0136 0.06767,0.0136 0.03262,0 0.06307,0.006 0.06767,0.0136 0.0046,0.007 0.03201,0.0136 0.0609,0.0136 0.02889,0 0.0563,0.006 0.0609,0.0136 0.0046,0.007 0.02896,0.0136 0.05414,0.0136 0.02517,0 0.04953,0.006 0.05414,0.0135 0.0046,0.007 0.02896,0.0136 0.05413,0.0136 0.02517,0 0.04953,0.006 0.05413,0.0136 0.0046,0.007 0.02591,0.0136 0.04736,0.0136 0.02145,0 0.04277,0.006 0.04736,0.0136 0.0046,0.007 0.03505,0.0136 0.06767,0.0136 0.03261,0 0.06307,0.006 0.06766,0.0136 0.0046,0.007 0.0281,0.0136 0.05223,0.0136 0.02412,0 0.04964,0.006 0.05672,0.0127 0.0071,0.007 0.06158,0.0188 0.121122,0.0261 0.05955,0.007 0.135672,0.0203 0.169166,0.0288 0.0335,0.008 0.08075,0.0188 0.105008,0.0227 0.02426,0.004 0.04745,0.0127 0.05155,0.0194 0.0041,0.007 0.02195,0.012 0.03967,0.012 0.01773,0 0.036,0.006 0.04059,0.0135 0.0046,0.007 0.04114,0.0136 0.0812,0.0136 0.04006,0 0.0766,0.006 0.0812,0.0136 0.02813,0.0455 0.182699,-0.0309 0.182699,-0.0903 0,-0.008 0.0092,-0.0222 0.02046,-0.0315 0.01125,-0.009 0.0327,-0.0421 0.04768,-0.0727 0.03723,-0.0763 0.05884,-0.11202 0.08532,-0.14129 0.01236,-0.0137 0.02248,-0.0307 0.02248,-0.038 0,-0.007 0.02436,-0.0369 0.05413,-0.0659 0.02977,-0.0291 0.05414,-0.0591 0.05414,-0.0666 0,-0.007 0.03482,-0.049 0.07739,-0.092 0.07029,-0.0711 0.08271,-0.0782 0.135334,-0.0782 h 0.05794 v 0.29017 c 0,0.17885 0.0052,0.29338 0.01353,0.29852 0.0082,0.005 0.01353,0.10138 0.01353,0.24361 0,0.14222 0.0054,0.23853 0.01354,0.2436 0.0076,0.005 0.01353,0.0678 0.01353,0.1429 v 0.13453 h -0.0601 c -0.03305,0 -0.06387,0.006 -0.06847,0.0136 -0.0046,0.007 -0.05636,0.0136 -0.115032,0.0136 -0.05867,0 -0.110434,0.006 -0.115034,0.0136 -0.0046,0.007 -0.0415,0.0136 -0.082,0.0136 -0.0405,0 -0.07364,0.006 -0.07364,0.0136 0,0.007 -0.02704,0.0136 -0.0601,0.0136 -0.03305,0 -0.06386,0.006 -0.06847,0.0136 -0.0046,0.007 -0.02896,0.0136 -0.05413,0.0136 -0.02517,0 -0.04953,0.006 -0.05414,0.0136 -0.0046,0.007 -0.02593,0.0136 -0.04739,0.0136 -0.02147,0 -0.05917,0.0115 -0.08379,0.0257 -0.02462,0.0142 -0.06607,0.0298 -0.09212,0.0348 -0.04238,0.008 -0.321488,0.137 -0.338332,0.15633 -0.0037,0.004 -0.04026,0.0247 -0.0812,0.0455 -0.04094,0.0207 -0.08877,0.0457 -0.106296,0.0554 -0.04573,0.0255 -0.150836,0.13131 -0.150836,0.15197 0,0.0277 -0.07412,0.0207 -0.101501,-0.01 -0.01347,-0.0149 -0.03448,-0.0271 -0.04668,-0.0271 -0.0122,0 -0.07673,-0.0274 -0.143385,-0.0608 -0.06666,-0.0335 -0.128625,-0.0608 -0.137702,-0.0608 -0.0091,-2e-5 -0.03819,-0.0123 -0.0647,-0.0271 -0.02651,-0.0149 -0.05652,-0.027 -0.06671,-0.027 -0.01019,0 -0.05324,-0.0183 -0.0957,-0.0406 -0.04246,-0.0223 -0.08512,-0.0406 -0.09483,-0.0406 -0.0097,0 -0.04106,-0.0114 -0.06968,-0.0254 -0.08428,-0.0412 -0.181935,-0.0795 -0.265608,-0.10427 -0.04304,-0.0128 -0.08145,-0.0284 -0.08538,-0.0347 -0.004,-0.007 -0.01774,-0.0115 -0.03071,-0.0115 -0.02961,0 -0.09638,-0.0305 -0.09653,-0.044 -5.3e-5,-0.005 -0.01498,-0.0101 -0.03314,-0.0101 -0.01817,0 -0.0368,-0.006 -0.0414,-0.0136 -0.0046,-0.007 -0.02,-0.0136 -0.03421,-0.0136 -0.01421,0 -0.04754,-0.0122 -0.07405,-0.027 -0.0265,-0.0149 -0.05983,-0.0271 -0.07404,-0.0271 -0.01423,0 -0.02962,-0.006 -0.03422,-0.0136 -0.0046,-0.007 -0.02635,-0.0136 -0.04834,-0.0136 -0.02199,0 -0.05056,-0.006 -0.06349,-0.0128 -0.01292,-0.007 -0.06004,-0.0227 -0.104701,-0.035 -0.04465,-0.0122 -0.09177,-0.0277 -0.104698,-0.0347 -0.01292,-0.007 -0.04149,-0.0124 -0.06349,-0.0124 -0.02199,0 -0.04375,-0.006 -0.04834,-0.0136 -0.0046,-0.007 -0.02323,-0.0136 -0.04139,-0.0136 -0.01817,0 -0.03304,-0.006 -0.03304,-0.0136 0,-0.007 -0.01486,-0.0135 -0.03304,-0.0135 -0.01817,0 -0.0368,-0.006 -0.04139,-0.0136 -0.0046,-0.007 -0.02896,-0.0136 -0.05413,-0.0136 -0.02517,0 -0.04953,-0.006 -0.05413,-0.0135 -0.0046,-0.007 -0.02896,-0.0136 -0.05414,-0.0136 -0.02517,0 -0.04953,-0.006 -0.05413,-0.0136 -0.0046,-0.007 -0.02591,-0.0136 -0.04736,-0.0136 -0.02145,0 -0.04277,-0.006 -0.04736,-0.0136 -0.0046,-0.007 -0.0283,-0.0136 -0.05267,-0.0136 -0.02437,0 -0.04886,-0.005 -0.05441,-0.0101 -0.0091,-0.009 -0.141672,-0.0319 -0.305679,-0.0525 -0.0335,-0.004 -0.06668,-0.0132 -0.07375,-0.0198 -0.0071,-0.007 -0.04173,-0.0123 -0.07702,-0.0123 -0.03529,0 -0.06793,-0.006 -0.07253,-0.0136 -0.0046,-0.007 -0.04115,-0.0135 -0.0812,-0.0135 -0.04006,0 -0.0766,-0.006 -0.0812,-0.0136 -0.0046,-0.007 -0.04418,-0.0136 -0.08797,-0.0136 -0.04378,0 -0.08336,-0.006 -0.08796,-0.0136 -0.0046,-0.007 -0.05332,-0.0136 -0.108267,-0.0136 -0.05495,0 -0.103666,-0.006 -0.108265,-0.0136 -0.0046,-0.007 -0.06246,-0.0136 -0.128567,-0.0136 -0.06611,0 -0.123966,-0.006 -0.128567,-0.0136 -0.0046,-0.007 -0.06245,-0.0136 -0.128566,-0.0136 -0.0661,0 -0.123966,-0.006 -0.128566,-0.0136 -0.0046,-0.007 -0.06159,-0.0136 -0.126659,-0.0136 -0.06506,0 -0.12408,-0.005 -0.13115,-0.0123 -0.02542,-0.0243 -0.377201,-0.0338 -0.39633,-0.0107 -0.01153,0.0139 -0.01247,0.0234 -0.0029,0.0293 0.01901,0.0118 0.01966,0.5891 5.83e-4,0.5891 -0.02067,0 -0.01807,0.53138 0.0027,0.55216 0.01126,0.0112 0.08163,0.0162 0.229267,0.0162 0.127421,0 0.216388,0.005 0.221392,0.0136 0.0144,0.0233 0.681092,0.0178 0.704698,-0.006 0.01561,-0.0156 0.01933,-0.0781 0.01933,-0.3248 0,-0.29335 9.88e-4,-0.30547 0.02627,-0.30547 0.01445,0 0.03003,0.006 0.03463,0.0135 0.0049,0.008 0.08107,0.0136 0.182701,0.0136 0.101625,0 0.177824,0.005 0.182699,0.0136 0.0049,0.008 0.0827,0.0135 0.187568,0.0135 0.212193,0 0.251999,0.0122 0.252158,0.077 5.3e-5,0.0237 0.0062,0.0469 0.01364,0.0515 0.0074,0.005 0.01353,0.029 0.01353,0.0541 0,0.0252 0.0061,0.0495 0.01354,0.0541 0.0074,0.005 0.01353,0.0354 0.01353,0.0684 0,0.033 0.0061,0.0601 0.01354,0.0601 0.0074,0 0.01353,0.0209 0.01353,0.0466 0,0.0256 0.0061,0.0503 0.01354,0.055 0.0074,0.005 0.01353,0.035 0.01353,0.0677 0,0.0326 0.0061,0.0631 0.01353,0.0677 0.0074,0.005 0.01353,0.0281 0.01353,0.0523 0,0.0241 0.0055,0.0496 0.01229,0.0566 0.0068,0.007 0.0155,0.0433 0.01942,0.0805 0.01402,0.133 0.03872,0.27088 0.05076,0.28352 0.0068,0.007 0.01226,0.0387 0.01226,0.0702 0,0.0315 0.0061,0.0612 0.01354,0.0657 0.0074,0.005 0.01353,0.0442 0.01353,0.088 0,0.0438 0.0061,0.0834 0.01354,0.088 0.0074,0.005 0.01353,0.0229 0.01353,0.0406 0,0.0177 0.0063,0.0361 0.0142,0.041 0.03918,0.0242 -0.02054,0.047 -0.123316,0.047 -0.0582,0 -0.109574,0.006 -0.114174,0.0136 -0.005,0.008 -0.09461,0.0136 -0.2233,0.0136 -0.128692,0 -0.218292,0.005 -0.223299,0.0135 -0.005,0.008 -0.09686,0.0136 -0.230066,0.0136 -0.133204,0 -0.225042,0.005 -0.230067,0.0136 -0.0052,0.008 -0.123929,0.0136 -0.311265,0.0136 -0.187336,0 -0.306094,0.005 -0.311265,0.0136 -0.0049,0.008 -0.08585,0.0136 -0.197031,0.0136 -0.103768,0 -0.188668,0.005 -0.188668,0.012 0,0.007 -0.01648,0.0162 -0.03663,0.0212 -0.02016,0.005 -0.09209,0.0636 -0.159858,0.13004 -0.06777,0.0665 -0.128941,0.12083 -0.135937,0.12083 -0.01736,0 -2.983226,2.96709 -2.983226,2.98445 0,0.007 -0.04568,0.0592 -0.1015,0.11467 -0.05583,0.0554 -0.101501,0.10583 -0.101501,0.11193 0,0.006 -0.01493,0.026 -0.03318,0.0443 -0.01825,0.0183 -0.04312,0.056 -0.05528,0.084 -0.01215,0.0279 -0.02767,0.0613 -0.03449,0.0743 -0.0068,0.0129 -0.01239,0.065 -0.01239,0.11571 0,0.0507 -0.0057,0.098 -0.01271,0.10507 -0.007,0.007 -0.01649,0.14378 -0.02111,0.30382 -0.0046,0.16003 -0.01118,0.30466 -0.0146,0.3214 l -0.0062,0.0305 -0.991056,-0.002 c -0.698157,-0.002 -1.000055,-0.006 -1.021506,-0.0167 z m 10.491687,-8.02037 c -0.0046,-0.007 -0.04723,-0.0136 -0.09473,-0.0136 -0.0475,0 -0.09013,-0.006 -0.09473,-0.0136 -0.0046,-0.007 -0.05028,-0.0136 -0.101499,-0.0136 -0.05123,0 -0.0969,-0.006 -0.101501,-0.0136 -0.0046,-0.007 -0.04353,-0.0136 -0.08651,-0.0136 -0.04297,0 -0.08268,-0.005 -0.08821,-0.0101 -0.0088,-0.009 -0.148871,-0.0257 -0.434276,-0.0522 -0.04466,-0.004 -0.08698,-0.0131 -0.09406,-0.0199 -0.0071,-0.007 -0.05086,-0.0123 -0.09732,-0.0123 -0.04646,0 -0.08822,-0.006 -0.09282,-0.0136 -0.0046,-0.007 -0.04418,-0.0136 -0.08797,-0.0136 -0.04378,0 -0.08337,-0.006 -0.08797,-0.0136 -0.0046,-0.007 -0.04723,-0.0136 -0.09473,-0.0136 -0.0475,0 -0.09013,-0.006 -0.09473,-0.0136 -0.0046,-0.007 -0.04418,-0.0136 -0.08796,-0.0136 -0.04378,0 -0.08337,-0.006 -0.08797,-0.0135 -0.0046,-0.007 -0.04115,-0.0136 -0.0812,-0.0136 -0.04006,0 -0.07659,-0.006 -0.0812,-0.0136 -0.0046,-0.007 -0.0381,-0.0136 -0.07444,-0.0136 -0.03634,0 -0.06983,-0.006 -0.07443,-0.0136 -0.0046,-0.007 -0.02323,-0.0136 -0.04139,-0.0136 -0.026,0 -0.03304,-0.007 -0.03304,-0.033 0,-0.0181 -0.0061,-0.0368 -0.01354,-0.0414 -0.0074,-0.005 -0.01353,-0.0442 -0.01353,-0.088 0,-0.0438 -0.006,-0.0834 -0.01353,-0.088 -0.0074,-0.005 -0.01353,-0.0412 -0.01353,-0.0812 0,-0.0401 -0.006,-0.0766 -0.01354,-0.0812 -0.0074,-0.005 -0.01353,-0.0381 -0.01353,-0.0744 0,-0.0364 -0.0061,-0.0698 -0.01354,-0.0744 -0.0074,-0.005 -0.01354,-0.0473 -0.01354,-0.0947 0,-0.0475 -0.0061,-0.0901 -0.01353,-0.0947 -0.0074,-0.005 -0.01354,-0.0495 -0.01354,-0.0996 0,-0.0502 -0.0057,-0.097 -0.01256,-0.10408 -0.0069,-0.007 -0.01574,-0.0615 -0.01965,-0.12113 -0.014,-0.21358 -0.04242,-0.4786 -0.05239,-0.48844 -0.0056,-0.005 -0.01015,-0.0452 -0.01015,-0.0882 0,-0.043 -0.006,-0.0819 -0.01354,-0.0865 -0.0074,-0.005 -0.01353,-0.0473 -0.01353,-0.0947 0,-0.0475 -0.0061,-0.0901 -0.01354,-0.0947 -0.0074,-0.005 -0.01353,-0.0502 -0.01353,-0.1015 0,-0.0512 -0.006,-0.0969 -0.01353,-0.10149 -0.0074,-0.005 -0.01353,-0.0502 -0.01353,-0.10151 0,-0.0512 -0.006,-0.0969 -0.01354,-0.1015 -0.0074,-0.005 -0.01354,-0.038 -0.01354,-0.0744 0,-0.0364 0.006,-0.0698 0.01354,-0.0744 0.0074,-0.005 0.01354,-0.0229 0.01354,-0.0406 0,-0.0177 0.0061,-0.036 0.01353,-0.0406 0.0074,-0.005 0.01353,-0.0191 0.01353,-0.0324 0,-0.024 0.05108,-0.13391 0.07749,-0.16671 0.0077,-0.01 0.03068,-0.0495 0.05097,-0.0887 0.02029,-0.0391 0.042,-0.0743 0.04825,-0.0781 0.01372,-0.008 0.22929,-0.44685 0.22929,-0.46627 0,-0.007 0.0049,-0.0137 0.01102,-0.0137 0.006,0 0.01942,-0.0215 0.0297,-0.0477 0.01029,-0.0262 0.02969,-0.0576 0.04312,-0.0698 0.01344,-0.0122 0.02446,-0.0319 0.02449,-0.0436 3.3e-5,-0.0119 0.03353,-0.0901 0.07444,-0.17386 0.04091,-0.0838 0.07437,-0.15835 0.07437,-0.16578 0,-0.007 0.0049,-0.0135 0.011,-0.0135 0.006,0 0.01949,-0.0216 0.02985,-0.048 0.01036,-0.0264 0.02675,-0.0546 0.03642,-0.0626 0.01504,-0.0125 0.09828,-0.17681 0.187336,-0.36981 0.01373,-0.0298 0.03442,-0.0632 0.04596,-0.0744 0.02879,-0.0278 0.08189,-0.13262 0.08189,-0.16158 0,-0.013 0.01218,-0.0347 0.02707,-0.0482 0.01489,-0.0135 0.02707,-0.0296 0.02707,-0.0359 0,-0.0107 0.09963,-0.21514 0.181449,-0.37237 0.02002,-0.0384 0.04524,-0.0772 0.05604,-0.0862 0.01081,-0.009 0.01965,-0.0305 0.01965,-0.0477 0,-0.0173 0.0062,-0.0353 0.01379,-0.0399 0.01685,-0.0105 0.108009,-0.19601 0.108009,-0.21989 0,-0.009 0.0057,-0.0277 0.01254,-0.0406 0.0069,-0.0129 0.01584,-0.0342 0.01988,-0.0472 0.0068,-0.0218 0.03653,-0.0236 0.372355,-0.0236 0.228752,0 0.368148,-0.005 0.373389,-0.0136 0.0054,-0.009 0.182574,-0.0136 0.487199,-0.0136 0.304625,0 0.481877,-0.005 0.487198,-0.0136 0.0054,-0.009 0.247349,-0.0136 0.681524,-0.0136 0.434814,0 0.677996,-0.005 0.686816,-0.0137 0.0089,-0.009 0.254832,-0.0124 0.709823,-0.0101 l 0.696163,0.003 0.0035,0.77061 c 0.0022,0.50463 -0.0012,0.77531 -0.01015,0.78426 -0.0085,0.008 -0.01364,0.15475 -0.01364,0.38907 0,0.23569 -0.005,0.37853 -0.01353,0.38379 -0.0085,0.005 -0.01354,0.14873 -0.01354,0.3857 0,0.23696 -0.005,0.38045 -0.01354,0.38569 -0.0086,0.005 -0.01353,0.19413 -0.01353,0.52183 0,0.33329 -0.0048,0.51347 -0.01354,0.51347 -0.0082,0 -0.01353,0.0588 -0.01353,0.14929 0,0.13028 -0.003,0.15025 -0.02368,0.15686 -0.04291,0.0137 -0.09085,0.0379 -0.123624,0.0623 -0.01775,0.0133 -0.04613,0.024 -0.06306,0.024 -0.02813,0 -0.564416,0.26397 -0.757264,0.37274 -0.04466,0.0252 -0.118454,0.0642 -0.163989,0.0867 -0.04554,0.0226 -0.09043,0.0501 -0.09977,0.0614 -0.0093,0.0113 -0.02224,0.0205 -0.02866,0.0205 -0.02287,0 -0.330452,0.15442 -0.3504,0.17592 -0.01845,0.0198 -0.117476,0.0707 -0.307111,0.1574 -0.03865,0.0177 -0.07379,0.0378 -0.07808,0.0448 -0.0043,0.007 -0.04269,0.0295 -0.08535,0.0501 -0.04266,0.0206 -0.0806,0.041 -0.08432,0.0453 -0.0094,0.0109 -0.215411,0.10844 -0.229126,0.10844 -0.0061,0 -0.01845,0.009 -0.02736,0.0195 -0.0089,0.0108 -0.07512,0.0485 -0.14714,0.084 -0.07202,0.0354 -0.133981,0.0678 -0.137703,0.072 -0.0037,0.004 -0.03893,0.0222 -0.07825,0.0403 -0.03932,0.0181 -0.07812,0.0408 -0.08624,0.0506 -0.0082,0.01 -0.02525,0.0178 -0.03809,0.0178 -0.03014,0 -0.101108,0.0354 -0.122456,0.0612 -0.01982,0.0239 -0.371061,0.0298 -0.385464,0.007 z m 0.643626,-0.73418 c 0.224382,-0.21785 0.301851,-0.28889 0.371892,-0.34102 0.02949,-0.0219 0.06346,-0.0509 0.0755,-0.0643 0.01203,-0.0134 0.02745,-0.0244 0.03425,-0.0244 0.0068,0 0.04852,-0.0366 0.09272,-0.0812 0.04419,-0.0446 0.08681,-0.0812 0.0947,-0.0812 0.0079,0 0.05358,-0.0396 0.101532,-0.088 0.04795,-0.0484 0.09356,-0.088 0.101351,-0.088 0.0078,0 0.0779,-0.064 0.155781,-0.1421 0.07789,-0.0781 0.147968,-0.1421 0.15573,-0.1421 0.01539,0 0.250269,-0.22826 0.250269,-0.24323 0,-0.005 -0.01458,-0.0229 -0.03241,-0.0396 -0.03361,-0.0316 -0.07118,-0.0268 -0.190891,0.0244 -0.179266,0.0766 -0.263333,0.11013 -0.294477,0.1174 -0.02054,0.005 -0.04069,0.0142 -0.04478,0.0208 -0.0041,0.007 -0.01908,0.012 -0.03329,0.012 -0.01423,0 -0.04754,0.0122 -0.07404,0.027 -0.0265,0.0149 -0.05645,0.027 -0.06653,0.027 -0.01009,0 -0.03579,0.009 -0.0571,0.0202 -0.02132,0.0111 -0.0479,0.0205 -0.05906,0.0208 -0.01116,2.9e-4 -0.05669,0.0186 -0.101155,0.0407 -0.04447,0.0221 -0.09167,0.0402 -0.104883,0.0402 -0.01321,0 -0.02403,0.006 -0.02403,0.0136 0,0.007 -0.01167,0.0136 -0.02594,0.0136 -0.01427,0 -0.02797,0.005 -0.03045,0.0101 -0.006,0.0133 -0.112236,0.0646 -0.180445,0.0869 -0.02977,0.01 -0.08672,0.0345 -0.126557,0.055 -0.03983,0.0205 -0.08363,0.0374 -0.09732,0.0374 -0.01369,0 -0.02866,0.006 -0.03326,0.0136 -0.0046,0.007 -0.02004,0.0136 -0.0343,0.0136 -0.01427,0 -0.04568,0.012 -0.06981,0.0267 -0.02413,0.0147 -0.07002,0.0306 -0.101994,0.0353 -0.03197,0.005 -0.06145,0.0141 -0.06552,0.0207 -0.004,0.007 -0.01904,0.0119 -0.03325,0.0119 -0.01423,0 -0.04754,0.0122 -0.07404,0.0271 -0.02651,0.0149 -0.06018,0.0271 -0.07485,0.0271 -0.01466,0 -0.02669,0.005 -0.02676,0.0101 -1.45e-4,0.0136 -0.06692,0.044 -0.09653,0.044 -0.01296,0 -0.02733,0.006 -0.03193,0.0136 -0.0046,0.007 -0.02287,0.0136 -0.04059,0.0136 -0.01773,0 -0.036,0.006 -0.04059,0.0136 -0.0046,0.007 -0.01961,0.0136 -0.03336,0.0136 -0.01374,0 -0.0484,0.0114 -0.07702,0.0254 -0.02861,0.0139 -0.08552,0.0361 -0.12646,0.0492 -0.04094,0.0132 -0.08022,0.0291 -0.08729,0.0356 -0.0071,0.007 -0.02651,0.0116 -0.04318,0.0116 -0.01668,0 -0.03409,0.006 -0.03869,0.0136 -0.0046,0.007 -0.02287,0.0136 -0.0406,0.0136 -0.01773,0 -0.036,0.006 -0.04059,0.0136 -0.0046,0.007 -0.0196,0.0136 -0.03335,0.0136 -0.01374,0 -0.0484,0.0114 -0.07702,0.0255 -0.135274,0.0661 -0.202312,0.0964 -0.213558,0.0964 -0.03983,0 -0.06177,0.0473 -0.06177,0.13298 0,0.13236 0.0081,0.13768 0.209155,0.13768 0.0904,0 0.170149,0.006 0.17722,0.0126 0.0071,0.007 0.07375,0.0157 0.148189,0.0195 0.249122,0.0126 0.5864,0.0422 0.596624,0.0524 0.0056,0.005 0.09562,0.0101 0.200114,0.0101 h 0.189996 z m -3.890414,0.39924 c -0.0055,-0.005 -0.07202,-0.0172 -0.14774,-0.0258 -0.07571,-0.009 -0.165067,-0.0227 -0.198561,-0.0315 -0.0335,-0.009 -0.08075,-0.0191 -0.105009,-0.0231 -0.02426,-0.004 -0.04745,-0.0127 -0.05155,-0.0194 -0.004,-0.007 -0.04021,-0.012 -0.08028,-0.012 -0.04006,0 -0.07659,-0.006 -0.0812,-0.0136 -0.0046,-0.007 -0.03541,-0.0136 -0.06847,-0.0136 -0.03305,0 -0.0601,-0.006 -0.0601,-0.0136 0,-0.007 -0.0397,-0.0136 -0.09204,-0.0136 -0.05062,0 -0.108428,-0.007 -0.12846,-0.0169 l -0.03642,-0.017 -8.1e-5,-0.35445 c -5e-5,-0.22159 -0.0052,-0.35759 -0.01364,-0.36281 -0.008,-0.005 -0.01353,-0.0879 -0.01353,-0.20301 0,-0.11515 -0.0055,-0.19805 -0.01354,-0.20299 -0.0074,-0.005 -0.01353,-0.0563 -0.01353,-0.11504 0,-0.0587 -0.006,-0.11043 -0.01353,-0.11504 -0.0074,-0.005 -0.01353,-0.0321 -0.01353,-0.0611 0,-0.029 -0.0057,-0.0667 -0.01261,-0.0838 -0.0069,-0.0171 -0.02273,-0.0676 -0.03508,-0.11229 -0.01235,-0.0446 -0.03408,-0.10462 -0.04828,-0.13323 -0.0142,-0.0286 -0.02582,-0.0697 -0.02582,-0.0914 0,-0.0216 -0.006,-0.0394 -0.01353,-0.0394 -0.0074,0 -0.01354,-0.0141 -0.01354,-0.0313 0,-0.0172 -0.01218,-0.0443 -0.02707,-0.0604 -0.01489,-0.016 -0.02707,-0.0403 -0.02707,-0.054 0,-0.0137 -0.02132,-0.0457 -0.04736,-0.0709 -0.02605,-0.0253 -0.04736,-0.0529 -0.04736,-0.0615 0,-0.009 -0.01218,-0.0266 -0.02707,-0.04 -0.01489,-0.0135 -0.02707,-0.0315 -0.02707,-0.0402 0,-0.009 -0.01827,-0.0332 -0.04059,-0.0546 -0.05335,-0.0511 -0.05151,-0.0622 0.01781,-0.10595 0.03212,-0.0203 0.08823,-0.0672 0.124673,-0.1042 0.03645,-0.037 0.07136,-0.0673 0.07758,-0.0673 0.01498,0 0.199472,-0.18555 0.199472,-0.20062 0,-0.007 0.01284,-0.0233 0.02856,-0.0375 0.0157,-0.0142 0.05073,-0.0678 0.07781,-0.11906 0.06434,-0.12184 0.07442,-0.13859 0.101208,-0.16821 0.01237,-0.0136 0.02248,-0.0344 0.02248,-0.046 0,-0.0117 0.01695,-0.0539 0.03768,-0.0937 0.02073,-0.0398 0.04614,-0.0998 0.05649,-0.13332 0.01034,-0.0335 0.02384,-0.0667 0.02998,-0.0738 0.0062,-0.007 0.01119,-0.0321 0.01119,-0.0557 0,-0.0236 0.0137,-0.0634 0.03045,-0.0887 0.01675,-0.0253 0.03931,-0.0641 0.05014,-0.0865 0.03444,-0.0711 0.06961,-0.10151 0.11721,-0.10151 0.02432,0 0.04797,0.006 0.05258,0.0136 0.0046,0.007 0.01925,0.0136 0.03256,0.0136 0.03099,0 0.101741,0.0352 0.12352,0.0614 0.0093,0.0112 0.03882,0.0305 0.06571,0.043 0.02689,0.0125 0.05874,0.0337 0.07077,0.0471 0.01203,0.0134 0.02805,0.0244 0.03556,0.0244 0.0075,0 0.02115,0.009 0.03029,0.02 0.02326,0.0281 0.09334,0.0612 0.129332,0.0612 0.01662,0 0.04765,0.009 0.06897,0.0202 0.02133,0.0111 0.04989,0.0203 0.06349,0.0203 0.04912,1.4e-4 0.249896,0.0961 0.256865,0.12276 0.0037,0.0142 0.02258,0.0319 0.0419,0.0392 0.02902,0.011 0.03514,0.022 0.03514,0.0629 0,0.0603 -0.02839,0.0854 -0.09732,0.086 -0.02747,3e-4 -0.05372,0.007 -0.05831,0.014 -0.0046,0.007 -0.02896,0.0135 -0.05413,0.0135 -0.02517,0 -0.04953,0.006 -0.05414,0.0136 -0.0048,0.007 -0.07593,0.0136 -0.167257,0.0136 -0.10554,0 -0.164348,0.005 -0.175134,0.0162 -0.02043,0.0204 -0.02291,0.38403 -0.0027,0.39652 0.0078,0.005 0.01354,0.0766 0.01354,0.16917 0,0.0926 0.0057,0.16435 0.01353,0.16917 0.0079,0.005 0.01353,0.081 0.01353,0.18269 0,0.10163 0.0057,0.17783 0.01353,0.1827 0.0079,0.005 0.01353,0.0833 0.01353,0.18947 0,0.10614 0.0056,0.18457 0.01353,0.18946 0.0078,0.005 0.01354,0.0766 0.01354,0.16917 0,0.0926 0.0057,0.16435 0.01353,0.16917 0.0077,0.005 0.01354,0.0703 0.01354,0.15055 0,0.0782 0.0057,0.1529 0.01273,0.16598 0.007,0.0131 0.01709,0.19257 0.02239,0.39885 0.0054,0.20627 0.01481,0.37822 0.0211,0.38211 0.0063,0.004 0.01145,0.0734 0.01145,0.15434 0,0.0836 0.0058,0.15089 0.01354,0.15563 0.0074,0.005 0.01353,0.0171 0.01353,0.0278 0,0.0204 -0.05524,0.0274 -0.07323,0.009 z"
       id="path20"
       inkscape:export-filename=".\mage.svg"
       inkscape:export-xdpi="80"
       inkscape:export-ydpi="80" /></g></svg>
