<?xml version="1.0" encoding="UTF-8" standalone="no"?>
<!-- Created with Inkscape (http://www.inkscape.org/) -->

<svg
   width="11.290896mm"
   height="14.044056mm"
   viewBox="0 0 11.290896 14.044056"
   version="1.1"
   id="svg1"
   xml:space="preserve"
   xmlns:inkscape="http://www.inkscape.org/namespaces/inkscape"
   xmlns:sodipodi="http://sodipodi.sourceforge.net/DTD/sodipodi-0.dtd"
   xmlns="http://www.w3.org/2000/svg"
   xmlns:svg="http://www.w3.org/2000/svg"><sodipodi:namedview
     id="namedview1"
     pagecolor="#ffffff"
     bordercolor="#000000"
     borderopacity="0.25"
     inkscape:showpageshadow="2"
     inkscape:pageopacity="0.0"
     inkscape:pagecheckerboard="0"
     inkscape:deskcolor="#d1d1d1"
     inkscape:document-units="mm"
     showguides="true"><sodipodi:guide
       position="90.277091,279.94476"
       orientation="0,-1"
       id="guide23"
       inkscape:locked="false" /><sodipodi:guide
       position="89.273714,297.00221"
       orientation="0,-1"
       id="guide24"
       inkscape:locked="false" /></sodipodi:namedview><defs
     id="defs1" /><g
     inkscape:label="Layer 1"
     inkscape:groupmode="layer"
     id="layer1"
     transform="translate(115.21821,-233.21598)"><path
       style="fill:#fe5d15;fill-opacity:1;stroke-width:0.0468353"
       d="m -112.59061,247.1888 c 0,-0.0382 0.005,-0.0728 0.0123,-0.0771 0.007,-0.004 0.0123,-0.0265 0.0123,-0.0496 0,-0.0231 0.005,-0.0454 0.0123,-0.0496 0.007,-0.004 0.0123,-0.0265 0.0123,-0.0496 0,-0.0231 0.005,-0.0454 0.0124,-0.0496 0.007,-0.004 0.0123,-0.0293 0.0123,-0.0558 0,-0.0265 0.005,-0.0515 0.0124,-0.0557 0.007,-0.004 0.0123,-0.0349 0.0123,-0.0682 0,-0.0333 0.005,-0.064 0.0123,-0.0682 0.007,-0.005 0.0123,-0.0908 0.0123,-0.21686 0,-0.1261 -0.005,-0.21225 -0.0123,-0.21686 -0.007,-0.004 -0.0123,-0.0376 -0.0123,-0.0743 0,-0.0367 -0.005,-0.0702 -0.0123,-0.0744 -0.007,-0.004 -0.0124,-0.0237 -0.0124,-0.0434 0,-0.0197 -0.005,-0.0392 -0.0123,-0.0433 -0.007,-0.004 -0.0124,-0.0295 -0.0124,-0.0562 0,-0.0267 -0.0115,-0.0689 -0.0255,-0.094 -0.0141,-0.025 -0.0288,-0.0728 -0.0328,-0.10606 -0.004,-0.0333 -0.0119,-0.0635 -0.0178,-0.0671 -0.006,-0.003 -0.0107,-0.0188 -0.011,-0.0337 -1.4e-4,-0.0149 -0.0112,-0.0411 -0.0245,-0.0581 -0.0133,-0.0171 -0.0244,-0.0395 -0.0245,-0.0498 -4.2e-4,-0.0236 -0.11581,-0.26192 -0.13844,-0.28575 -0.0205,-0.0217 -0.0562,-0.0854 -0.12191,-0.21829 -0.0276,-0.0558 -0.0641,-0.11241 -0.0809,-0.1257 -0.0169,-0.0133 -0.0307,-0.0272 -0.0307,-0.0308 0,-0.0239 -0.0783,-0.16884 -0.10446,-0.19343 -0.0175,-0.0165 -0.0319,-0.0365 -0.0319,-0.0444 0,-0.008 -0.0114,-0.0248 -0.0254,-0.0375 -0.014,-0.0127 -0.0344,-0.0427 -0.0454,-0.0669 -0.011,-0.0242 -0.0298,-0.0552 -0.0417,-0.0688 -0.0265,-0.0305 -0.0689,-0.10093 -0.0857,-0.14251 -0.007,-0.017 -0.018,-0.0394 -0.0248,-0.0496 -0.007,-0.0102 -0.0235,-0.042 -0.0371,-0.0705 -0.0138,-0.0285 -0.0309,-0.0556 -0.0381,-0.06 -0.007,-0.005 -0.0187,-0.0202 -0.0255,-0.0348 -0.007,-0.0147 -0.0255,-0.049 -0.0416,-0.0763 -0.0702,-0.11859 -0.46557,-0.92106 -0.47319,-0.96037 -0.005,-0.0238 -0.0187,-0.0617 -0.0311,-0.084 -0.0125,-0.0224 -0.0227,-0.0478 -0.0227,-0.0564 0,-0.0225 -0.0292,-0.0824 -0.0403,-0.0825 -0.005,-5e-5 -0.009,-0.0129 -0.009,-0.0286 0,-0.0156 -0.005,-0.0338 -0.0112,-0.0403 -0.006,-0.007 -0.0199,-0.0369 -0.0306,-0.0675 -0.0404,-0.11632 -0.053,-0.14849 -0.0613,-0.15673 -0.005,-0.005 -0.008,-0.0185 -0.008,-0.0309 0,-0.0123 -0.0111,-0.0422 -0.0248,-0.0665 -0.0137,-0.0243 -0.0248,-0.0524 -0.0248,-0.0625 0,-0.0101 -0.005,-0.0281 -0.0119,-0.0399 -0.018,-0.0324 -0.05,-0.1369 -0.05,-0.16372 0,-0.013 -0.005,-0.0271 -0.0124,-0.0313 -0.007,-0.004 -0.0123,-0.0237 -0.0123,-0.0433 0,-0.0197 -0.005,-0.0392 -0.0123,-0.0434 -0.007,-0.004 -0.0123,-0.0209 -0.0123,-0.0372 0,-0.0162 -0.005,-0.0329 -0.0123,-0.0372 -0.007,-0.004 -0.0124,-0.0293 -0.0124,-0.0557 0,-0.0265 -0.005,-0.0515 -0.0123,-0.0558 -0.007,-0.004 -0.0124,-0.0265 -0.0124,-0.0496 0,-0.0231 -0.005,-0.045 -0.011,-0.0487 -0.006,-0.004 -0.0143,-0.0278 -0.018,-0.0534 -0.0172,-0.11576 -0.0362,-0.2094 -0.0464,-0.22917 -0.006,-0.0119 -0.0112,-0.038 -0.0112,-0.0581 0,-0.0201 -0.005,-0.04 -0.0123,-0.0443 -0.007,-0.004 -0.0124,-0.0349 -0.0124,-0.0682 0,-0.0333 -0.005,-0.064 -0.0123,-0.0682 -0.007,-0.004 -0.0124,-0.0321 -0.0124,-0.062 0,-0.0298 -0.005,-0.0577 -0.0123,-0.0619 -0.007,-0.004 -0.0123,-0.0397 -0.0123,-0.0788 0,-0.0391 -0.005,-0.0764 -0.0111,-0.0829 -0.006,-0.007 -0.0142,-0.0341 -0.0179,-0.0613 -0.0174,-0.12767 -0.0344,-0.21088 -0.0455,-0.22202 -0.007,-0.007 -0.0122,-0.047 -0.0122,-0.0895 0,-0.0426 -0.005,-0.0808 -0.0123,-0.085 -0.007,-0.004 -0.0123,-0.0349 -0.0123,-0.0682 0,-0.0333 -0.005,-0.064 -0.0124,-0.0682 -0.007,-0.004 -0.0123,-0.0293 -0.0123,-0.0557 0,-0.0265 -0.005,-0.0515 -0.0124,-0.0557 -0.007,-0.004 -0.0123,-0.0202 -0.0123,-0.0354 0,-0.0153 -0.005,-0.033 -0.0114,-0.0395 -0.006,-0.007 -0.014,-0.0452 -0.0174,-0.0861 -0.009,-0.11268 -0.0319,-0.2177 -0.0587,-0.27069 -0.0133,-0.0262 -0.0241,-0.0579 -0.0241,-0.0706 0,-0.0126 -0.005,-0.0264 -0.0123,-0.0306 -0.007,-0.004 -0.0123,-0.0212 -0.0123,-0.038 0,-0.0166 -0.004,-0.0302 -0.01,-0.0302 -0.005,0 -0.023,-0.0348 -0.0394,-0.0775 -0.0165,-0.0426 -0.0373,-0.0863 -0.0463,-0.097 -0.009,-0.0107 -0.0164,-0.0315 -0.0164,-0.046 0,-0.0238 -0.0212,-0.0828 -0.0511,-0.14179 -0.006,-0.0119 -0.0109,-0.0328 -0.0109,-0.0464 0,-0.0137 -0.004,-0.025 -0.009,-0.025 -0.0109,-9e-5 -0.0403,-0.0599 -0.0403,-0.0818 0,-0.0156 -0.0502,-0.11797 -0.0632,-0.12882 -0.004,-0.003 -0.0114,-0.0229 -0.0164,-0.0434 l -0.009,-0.0372 0.035,0.0325 c 0.0193,0.018 0.0558,0.0393 0.0814,0.0474 0.0541,0.0173 0.43177,0.2059 0.44222,0.22085 0.004,0.005 0.0377,0.0259 0.0753,0.0452 0.12827,0.066 0.17654,0.0928 0.19669,0.10937 0.0111,0.009 0.0369,0.0247 0.0573,0.0347 0.0204,0.01 0.04,0.0208 0.0434,0.0243 0.0197,0.0199 0.0992,0.0743 0.10878,0.0743 0.006,0 0.0214,0.0112 0.0338,0.0248 0.0124,0.0137 0.0291,0.0248 0.0372,0.0248 0.008,0 0.0249,0.0111 0.0372,0.0248 0.0123,0.0137 0.0268,0.0248 0.0323,0.0248 0.0204,0 0.1233,0.0772 0.13745,0.10315 0.009,0.0162 0.0167,0.10368 0.0198,0.21903 0.002,0.10565 0.0101,0.19738 0.0162,0.20386 0.006,0.007 0.0111,0.0437 0.0111,0.0829 0,0.0391 0.005,0.0746 0.0123,0.0788 0.007,0.004 0.0123,0.0349 0.0123,0.0682 0,0.0333 0.005,0.064 0.0124,0.0682 0.007,0.004 0.0123,0.0321 0.0123,0.062 0,0.0298 0.005,0.0577 0.0123,0.0619 0.007,0.004 0.0123,0.0397 0.0123,0.0788 0,0.0391 0.007,0.0778 0.0149,0.086 0.0179,0.018 0.12926,0.0199 0.14003,0.002 0.004,-0.007 0.0404,-0.0123 0.0805,-0.0123 0.0401,0 0.0763,-0.005 0.0805,-0.0123 0.004,-0.007 0.0321,-0.0123 0.0619,-0.0123 0.0299,0 0.0577,-0.005 0.0619,-0.0124 0.004,-0.007 0.0238,-0.0123 0.0434,-0.0123 0.0197,0 0.0391,-0.005 0.0433,-0.0123 0.004,-0.007 0.0321,-0.0124 0.0619,-0.0124 0.0298,0 0.0572,-0.005 0.0608,-0.0107 0.004,-0.006 0.0296,-0.0138 0.0575,-0.0175 0.0773,-0.0104 0.0985,-0.0365 0.0985,-0.12163 0,-0.0394 -0.005,-0.0752 -0.0123,-0.0794 -0.007,-0.004 -0.0123,-0.0265 -0.0123,-0.0496 0,-0.023 -0.005,-0.0454 -0.0123,-0.0496 -0.007,-0.004 -0.0124,-0.023 -0.0124,-0.0417 0,-0.0187 -0.005,-0.0393 -0.0112,-0.0457 -0.006,-0.007 -0.0143,-0.0369 -0.0179,-0.0675 -0.0108,-0.0894 -0.0383,-0.22022 -0.0483,-0.2303 -0.005,-0.005 -0.009,-0.0248 -0.009,-0.0436 0,-0.0189 -0.005,-0.0379 -0.0123,-0.0421 -0.007,-0.004 -0.0124,-0.0265 -0.0124,-0.0496 0,-0.023 -0.005,-0.0454 -0.0123,-0.0496 -0.007,-0.004 -0.0123,-0.0264 -0.0123,-0.0492 0,-0.0229 -0.005,-0.0435 -0.0106,-0.0458 -0.006,-0.002 -0.0143,-0.0328 -0.0188,-0.0678 l -0.008,-0.0636 0.0405,-0.008 c 0.0222,-0.005 0.0805,-0.0149 0.12944,-0.0231 0.0489,-0.008 0.0931,-0.0191 0.0981,-0.0243 0.005,-0.005 0.0194,-0.009 0.032,-0.009 0.0126,0 0.0325,-0.005 0.0444,-0.0109 0.0948,-0.0479 0.13208,-0.0636 0.15032,-0.0636 0.0117,0 0.0264,-0.005 0.0329,-0.0107 0.007,-0.006 0.0397,-0.0208 0.0738,-0.033 0.0341,-0.0123 0.0731,-0.0316 0.0867,-0.043 0.0137,-0.0114 0.045,-0.0298 0.0696,-0.041 0.0246,-0.0113 0.0518,-0.0288 0.0604,-0.0392 0.009,-0.0103 0.0223,-0.0188 0.0305,-0.0188 0.008,0 0.028,-0.014 0.0441,-0.031 0.0161,-0.017 0.0352,-0.031 0.0428,-0.031 0.007,0 0.044,-0.0306 0.081,-0.0682 0.037,-0.0375 0.0733,-0.0682 0.0805,-0.0682 0.0168,0 0.15492,-0.13896 0.15492,-0.15584 0,-0.007 0.0223,-0.0344 0.0496,-0.061 0.0273,-0.0266 0.0496,-0.0547 0.0496,-0.0623 0,-0.007 0.014,-0.027 0.031,-0.043 0.017,-0.0161 0.031,-0.0357 0.031,-0.0436 0,-0.008 0.0111,-0.0246 0.0248,-0.037 0.0137,-0.0123 0.0248,-0.0292 0.0248,-0.0376 0,-0.008 0.008,-0.0219 0.018,-0.0301 0.0204,-0.017 0.14314,-0.25877 0.14308,-0.28198 -3e-5,-0.008 0.01,-0.0334 0.0224,-0.0557 0.0123,-0.0224 0.0322,-0.0741 0.0442,-0.115 0.0119,-0.0409 0.0269,-0.0872 0.0333,-0.10282 0.007,-0.0157 0.0116,-0.0418 0.0116,-0.0581 0,-0.0163 0.005,-0.0331 0.0123,-0.0373 0.007,-0.004 0.0123,-0.0265 0.0123,-0.0496 0,-0.0231 0.005,-0.0454 0.0123,-0.0496 0.007,-0.004 0.0124,-0.0404 0.0124,-0.0805 0,-0.0401 0.005,-0.0763 0.0123,-0.0805 0.0162,-0.01 0.0162,-0.2502 0,-0.26023 -0.007,-0.004 -0.0123,-0.046 -0.0123,-0.0929 0,-0.0469 -0.005,-0.0887 -0.0124,-0.0929 -0.007,-0.004 -0.0123,-0.0293 -0.0123,-0.0558 0,-0.0265 -0.005,-0.0515 -0.0123,-0.0557 -0.007,-0.004 -0.0123,-0.0219 -0.0123,-0.0394 0,-0.0312 -0.0305,-0.1383 -0.0513,-0.18045 -0.006,-0.0118 -0.0107,-0.0411 -0.0107,-0.065 0,-0.024 -0.005,-0.0436 -0.0111,-0.0436 -0.006,0 -0.0133,-0.0221 -0.0158,-0.0492 l -0.005,-0.0492 0.12421,-0.0618 c 0.0683,-0.0339 0.15488,-0.0707 0.19236,-0.0815 0.0375,-0.0109 0.0905,-0.0307 0.11774,-0.044 0.0272,-0.0133 0.0619,-0.0241 0.0771,-0.0241 0.0152,2e-5 0.0474,-0.0111 0.0716,-0.0248 0.0243,-0.0137 0.0515,-0.0248 0.0605,-0.0248 0.009,0 0.0426,-0.014 0.0746,-0.031 0.032,-0.017 0.065,-0.031 0.0731,-0.0309 0.008,5e-5 0.0595,-0.0217 0.11397,-0.0484 0.0545,-0.0267 0.12579,-0.0588 0.15836,-0.0714 0.0326,-0.0126 0.0761,-0.0402 0.0968,-0.0614 l 0.0376,-0.0385 -0.0505,-0.10399 c -0.0277,-0.0572 -0.0634,-0.1263 -0.0793,-0.15357 -0.0159,-0.0273 -0.0322,-0.0635 -0.0362,-0.0805 -0.0251,-0.10617 -0.0366,-0.14385 -0.0469,-0.15427 -0.007,-0.007 -0.0117,-0.0219 -0.0117,-0.0343 0,-0.0823 -0.13215,-0.17812 -0.16728,-0.12127 -0.004,0.007 -0.0209,0.0123 -0.0372,0.0123 -0.0162,0 -0.0329,0.005 -0.0372,0.0123 -0.004,0.007 -0.0209,0.0123 -0.0372,0.0123 -0.0162,0 -0.0329,0.005 -0.0372,0.0124 -0.004,0.007 -0.0162,0.0123 -0.0268,0.0123 -0.0238,0 -0.10278,0.0357 -0.12995,0.0585 -0.0338,0.0286 -0.20967,0.1149 -0.23415,0.1149 -0.0126,0 -0.0263,0.005 -0.0305,0.0123 -0.004,0.007 -0.0179,0.0123 -0.0306,0.0123 -0.0201,0 -0.12008,0.0453 -0.13676,0.062 -0.0163,0.0163 -0.0641,0.0372 -0.0851,0.0372 -0.0129,0 -0.0304,0.008 -0.0389,0.0186 -0.008,0.0102 -0.0222,0.0186 -0.0306,0.0186 -0.008,0 -0.0249,0.0108 -0.0368,0.024 -0.0214,0.0236 -0.0222,0.0236 -0.0669,-0.002 -0.0249,-0.0138 -0.0541,-0.0329 -0.0649,-0.0425 -0.0107,-0.01 -0.0252,-0.0174 -0.0322,-0.0174 -0.007,0 -0.0227,-0.0112 -0.035,-0.0248 -0.0123,-0.0137 -0.0292,-0.0248 -0.0376,-0.0248 -0.008,0 -0.0223,-0.009 -0.0311,-0.0192 -0.009,-0.0106 -0.0387,-0.0302 -0.0665,-0.0437 -0.0696,-0.0338 -0.1326,-0.0716 -0.16217,-0.0972 -0.0137,-0.0119 -0.0555,-0.0368 -0.0929,-0.0556 -0.0375,-0.0188 -0.096,-0.0498 -0.13011,-0.0691 -0.0341,-0.0194 -0.0711,-0.0357 -0.0822,-0.0362 -0.0111,-5.5e-4 -0.0272,-0.01 -0.0359,-0.02 -0.009,-0.0104 -0.0497,-0.0357 -0.0914,-0.0562 -0.0417,-0.0204 -0.10634,-0.0532 -0.14382,-0.0728 -0.0375,-0.0195 -0.0877,-0.0449 -0.11153,-0.0564 -0.097,-0.0467 -0.11153,-0.0577 -0.1118,-0.0846 -1.3e-4,-0.015 -0.0112,-0.0412 -0.0245,-0.0582 -0.039,-0.05 -0.0188,-0.0867 0.0479,-0.0867 0.0205,0 0.0408,-0.005 0.045,-0.0123 0.004,-0.007 0.0349,-0.0123 0.0682,-0.0123 0.0333,0 0.064,-0.005 0.0682,-0.0123 0.004,-0.007 0.0453,-0.0123 0.0912,-0.0123 0.046,0 0.0888,-0.005 0.0953,-0.0114 0.007,-0.006 0.0424,-0.0141 0.08,-0.0175 0.0375,-0.003 0.11277,-0.0153 0.16729,-0.0265 0.0545,-0.0113 0.12144,-0.0235 0.14871,-0.0272 0.0273,-0.004 0.0548,-0.0118 0.0613,-0.0179 0.007,-0.006 0.0275,-0.0111 0.0467,-0.0111 0.0336,0 0.0445,-0.004 0.10562,-0.0352 0.0152,-0.008 0.0418,-0.0143 0.059,-0.0143 0.0172,0 0.041,-0.005 0.0528,-0.0112 0.0119,-0.006 0.055,-0.0207 0.0959,-0.0325 0.0409,-0.0118 0.084,-0.0262 0.0959,-0.0322 0.0118,-0.006 0.0301,-0.0109 0.0404,-0.0109 0.0104,0 0.03,-0.005 0.0436,-0.0123 0.0135,-0.007 0.0357,-0.018 0.0492,-0.0248 0.0136,-0.007 0.0329,-0.0123 0.0431,-0.0123 0.0101,0 0.0371,-0.0105 0.0599,-0.0233 0.0228,-0.0128 0.0648,-0.0273 0.0932,-0.032 0.0285,-0.005 0.0548,-0.0138 0.0587,-0.0201 0.004,-0.006 0.0203,-0.0113 0.0366,-0.0113 0.0162,0 0.0329,-0.005 0.0372,-0.0123 0.004,-0.007 0.0209,-0.0124 0.0372,-0.0124 0.0162,0 0.0329,-0.005 0.0372,-0.0123 0.004,-0.007 0.0212,-0.0124 0.038,-0.0124 0.0166,0 0.0302,-0.005 0.0302,-0.0123 0,-0.007 0.0137,-0.0123 0.0302,-0.0123 0.0166,0 0.0337,-0.005 0.038,-0.0123 0.004,-0.007 0.0209,-0.0123 0.0372,-0.0123 0.0162,0 0.0329,-0.005 0.0372,-0.0123 0.004,-0.007 0.0202,-0.0123 0.0356,-0.0123 0.0153,0 0.0387,-0.008 0.0519,-0.0182 0.0133,-0.01 0.0362,-0.0185 0.0512,-0.0186 0.015,-2.8e-4 0.0306,-0.006 0.0348,-0.0128 0.004,-0.007 0.0209,-0.0124 0.0372,-0.0124 0.0162,0 0.0329,-0.005 0.0372,-0.0123 0.004,-0.007 0.0185,-0.0124 0.032,-0.0124 0.0133,0 0.0339,-0.005 0.0457,-0.0109 0.0586,-0.0298 0.14897,-0.0581 0.22283,-0.0697 0.0289,-0.005 0.0557,-0.0133 0.0596,-0.0196 0.004,-0.006 0.0203,-0.0113 0.0366,-0.0113 0.0162,0 0.0329,-0.005 0.0372,-0.0123 0.004,-0.007 0.0293,-0.0124 0.0557,-0.0124 0.0265,0 0.0515,-0.005 0.0557,-0.0123 0.004,-0.007 0.0209,-0.0124 0.0372,-0.0124 0.0162,0 0.0329,-0.005 0.0372,-0.0123 0.004,-0.007 0.0209,-0.0123 0.0372,-0.0123 0.0162,0 0.0325,-0.005 0.0363,-0.0109 0.007,-0.0114 0.0206,-0.0144 0.18262,-0.0414 0.0523,-0.009 0.0992,-0.02 0.10431,-0.0251 0.005,-0.005 0.0331,-0.009 0.0623,-0.009 0.0292,0 0.0564,-0.005 0.0606,-0.0124 0.004,-0.007 0.0349,-0.0123 0.0682,-0.0123 0.0333,0 0.0639,-0.005 0.0682,-0.0123 0.004,-0.007 0.0404,-0.0123 0.0805,-0.0123 0.0401,0 0.0763,-0.005 0.0805,-0.0124 0.004,-0.007 0.046,-0.0123 0.0929,-0.0123 0.0469,0 0.0887,-0.005 0.093,-0.0123 0.004,-0.007 0.044,-0.0123 0.0883,-0.0123 0.0444,0 0.0907,-0.005 0.10293,-0.0119 0.0123,-0.007 0.1571,-0.0158 0.32185,-0.0205 0.16476,-0.005 0.30246,-0.0133 0.30601,-0.0191 0.009,-0.0138 0.9186,-0.0136 0.92714,2.8e-4 0.003,0.006 0.19495,0.0148 0.42515,0.0198 0.2302,0.005 0.42793,0.0142 0.43941,0.0203 0.0265,0.0142 0.3782,0.0146 0.38691,5.6e-4 0.003,-0.006 0.0666,-0.0144 0.14012,-0.0192 0.0735,-0.005 0.13889,-0.014 0.14539,-0.0204 0.007,-0.007 0.0301,-0.0118 0.0523,-0.0118 0.0223,0 0.0604,-0.0112 0.0846,-0.0248 0.0243,-0.0137 0.0548,-0.0248 0.0678,-0.0248 0.013,0 0.0272,-0.005 0.0313,-0.0123 0.004,-0.007 0.0209,-0.0123 0.0372,-0.0123 0.0162,0 0.0329,-0.005 0.0372,-0.0123 0.004,-0.007 0.0153,-0.0123 0.0246,-0.0123 0.0264,0 0.17435,-0.0714 0.19194,-0.0926 0.009,-0.0104 0.0225,-0.0189 0.0309,-0.0189 0.008,0 0.0252,-0.0112 0.0376,-0.0248 0.0123,-0.0137 0.0277,-0.0248 0.034,-0.0248 0.0186,0 0.12117,-0.0923 0.3133,-0.28192 l 0.17894,-0.17658 h 0.0665 c 0.0507,0 0.0717,0.006 0.0889,0.0248 0.0123,0.0137 0.0292,0.0248 0.0375,0.0248 0.008,0 0.0332,0.0376 0.0555,0.0836 0.0222,0.046 0.0451,0.092 0.051,0.10224 0.006,0.0102 0.0215,0.0413 0.0349,0.0693 0.0134,0.0278 0.033,0.0578 0.0435,0.0665 0.0106,0.009 0.0192,0.0236 0.0192,0.033 0,0.009 0.005,0.0171 0.0109,0.0171 0.006,0 0.0143,0.01 0.0182,0.0217 0.004,0.0119 0.0144,0.0325 0.0231,0.0458 0.0513,0.0779 0.10422,0.16171 0.11483,0.1819 0.007,0.0128 0.0165,0.0233 0.0217,0.0233 0.005,0 0.009,0.0112 0.009,0.0248 0,0.0137 0.005,0.0248 0.0123,0.0248 0.007,0 0.0124,0.007 0.0124,0.017 0,0.009 0.009,0.0242 0.0192,0.033 0.0106,0.009 0.0296,0.0389 0.0424,0.0669 0.0128,0.028 0.0348,0.0614 0.049,0.0743 l 0.0258,0.0233 -0.0427,0.0291 c -0.0235,0.016 -0.0479,0.0291 -0.0543,0.0291 -0.007,0 -0.0185,0.008 -0.0269,0.0186 -0.008,0.0102 -0.0251,0.0186 -0.0369,0.0186 -0.0118,0 -0.0389,0.0167 -0.0603,0.0372 -0.0214,0.0204 -0.0438,0.0372 -0.0499,0.0372 -0.006,0 -0.0181,0.009 -0.0267,0.0189 -0.023,0.0277 -0.10729,0.0822 -0.18742,0.12111 -0.0385,0.0188 -0.0768,0.0422 -0.0852,0.0523 -0.008,0.01 -0.0204,0.0184 -0.0268,0.0184 -0.007,0 -0.03,0.014 -0.0523,0.031 -0.0223,0.017 -0.0464,0.031 -0.0534,0.031 -0.007,0 -0.02,0.009 -0.0287,0.0192 -0.009,0.0106 -0.0392,0.0298 -0.0677,0.0427 -0.0285,0.0129 -0.0591,0.0325 -0.0682,0.0433 -0.009,0.011 -0.0394,0.0302 -0.0673,0.0431 -0.028,0.0128 -0.0613,0.0346 -0.0738,0.0485 -0.0126,0.0139 -0.0458,0.0372 -0.0736,0.0518 -0.0279,0.0146 -0.0599,0.0371 -0.0712,0.0501 -0.0113,0.0129 -0.025,0.0236 -0.0304,0.0236 -0.005,0 -0.0202,0.009 -0.0327,0.0206 -0.0265,0.024 -0.0592,0.0438 -0.1279,0.0775 -0.0273,0.0133 -0.0688,0.0441 -0.0923,0.0684 -0.0235,0.0243 -0.0491,0.0441 -0.0569,0.0441 -0.007,0 -0.0248,0.0117 -0.0379,0.0261 -0.013,0.0143 -0.0442,0.0366 -0.0694,0.0495 -0.0252,0.0128 -0.0599,0.0373 -0.0769,0.0544 -0.0371,0.0371 -0.0768,0.0392 -0.11893,0.006 -0.017,-0.0133 -0.0382,-0.0244 -0.047,-0.0245 -0.009,-1.4e-4 -0.028,-0.0114 -0.0426,-0.0251 -0.0147,-0.0137 -0.0339,-0.0248 -0.0428,-0.0248 -0.009,0 -0.0163,-0.005 -0.0163,-0.0123 0,-0.007 -0.006,-0.0124 -0.013,-0.0124 -0.007,0 -0.0336,-0.014 -0.0586,-0.031 -0.0251,-0.017 -0.0596,-0.0311 -0.0768,-0.0312 -0.0171,-1.3e-4 -0.0451,-0.0112 -0.0622,-0.0245 -0.0178,-0.0139 -0.0505,-0.0244 -0.0767,-0.0245 -0.0252,-1.3e-4 -0.0492,-0.006 -0.0534,-0.0127 -0.004,-0.007 -0.0206,-0.0123 -0.0364,-0.0123 -0.0158,0 -0.0357,-0.008 -0.0441,-0.0186 -0.0119,-0.0144 -0.0454,-0.0186 -0.14949,-0.0186 -0.076,0 -0.13738,-0.005 -0.14172,-0.0123 -0.005,-0.007 -0.0784,-0.0123 -0.17968,-0.0123 -0.10131,0 -0.17517,-0.005 -0.17969,-0.0123 -0.0105,-0.0171 -1.7243,-0.0171 -1.73485,0 -0.005,0.007 -0.0763,0.0123 -0.17349,0.0123 -0.0972,0 -0.169,0.005 -0.17349,0.0123 -0.004,0.007 -0.0618,0.0123 -0.13012,0.0123 -0.0683,0 -0.12583,0.005 -0.1301,0.0123 -0.004,0.007 -0.0265,0.0124 -0.0495,0.0124 -0.0915,0 -0.14259,0.0505 -0.14259,0.14116 0,0.0238 -0.005,0.0468 -0.0123,0.0509 -0.007,0.004 -0.0123,0.0349 -0.0123,0.0682 0,0.0333 0.005,0.064 0.0123,0.0682 0.007,0.004 0.0123,0.03 0.0123,0.0572 0,0.0527 0.0329,0.16782 0.0511,0.1791 0.006,0.004 0.011,0.0165 0.011,0.0283 0,0.0278 0.0576,0.1438 0.0812,0.1633 0.01,0.008 0.018,0.022 0.018,0.0306 0,0.0231 0.0848,0.14283 0.13224,0.18663 0.0227,0.0209 0.0413,0.0436 0.0413,0.0502 0,0.007 0.0201,0.0314 0.0445,0.0549 0.0245,0.0235 0.0495,0.0554 0.0556,0.0709 0.006,0.0155 0.0208,0.0316 0.0329,0.0358 0.0287,0.01 0.1272,0.10452 0.1272,0.12199 0,0.007 0.0195,0.0325 0.0433,0.0556 0.0501,0.0487 0.0549,0.0847 0.0155,0.11933 -0.0319,0.0282 -0.12481,0.0738 -0.17039,0.0838 -0.12015,0.0264 -0.17264,0.0415 -0.20947,0.0603 -0.0231,0.0119 -0.0486,0.0215 -0.0565,0.0215 -0.0194,0 -0.16486,0.074 -0.21309,0.10842 -0.0214,0.0153 -0.0474,0.0278 -0.0576,0.0278 -0.0102,0 -0.0503,0.0167 -0.0892,0.0372 -0.0389,0.0204 -0.0764,0.0372 -0.0835,0.0372 -0.0326,0 -0.35529,0.17006 -0.39663,0.20906 l -0.0464,0.0438 v 0.40568 c 0,0.2571 -0.005,0.4085 -0.0124,0.41335 -0.007,0.004 -0.0123,0.0404 -0.0123,0.0805 0,0.0401 -0.005,0.0763 -0.0123,0.0805 -0.007,0.004 -0.0123,0.0313 -0.0123,0.0603 0,0.0289 -0.005,0.0579 -0.0111,0.0643 -0.006,0.007 -0.0139,0.0341 -0.0173,0.0614 -0.003,0.0273 -0.0153,0.0858 -0.0267,0.13011 -0.0113,0.0443 -0.0238,0.0972 -0.0279,0.1175 -0.004,0.0203 -0.0177,0.0553 -0.0304,0.0778 -0.0127,0.0225 -0.023,0.0491 -0.023,0.0592 0,0.0101 -0.005,0.0281 -0.0114,0.0399 -0.006,0.0118 -0.0261,0.0549 -0.0441,0.0959 -0.0181,0.0409 -0.038,0.084 -0.0445,0.0959 -0.007,0.0119 -0.0116,0.0301 -0.0116,0.0404 0,0.0179 -0.023,0.067 -0.0377,0.0805 -0.004,0.003 -0.0279,0.048 -0.0538,0.0991 -0.0683,0.13485 -0.0755,0.14678 -0.11137,0.18425 -0.0179,0.0187 -0.0326,0.0384 -0.0326,0.0439 0,0.0101 -0.0421,0.0662 -0.0866,0.11529 -0.0137,0.0151 -0.0249,0.032 -0.0249,0.0376 0,0.006 -0.0251,0.0349 -0.0557,0.065 -0.0306,0.0301 -0.0558,0.0604 -0.0558,0.0674 0,0.0168 -0.24984,0.26715 -0.26662,0.26715 -0.007,0 -0.0433,0.0306 -0.0804,0.0682 -0.037,0.0375 -0.0724,0.0682 -0.0786,0.0682 -0.006,0 -0.0298,0.0195 -0.0522,0.0434 -0.0225,0.0238 -0.0458,0.0433 -0.0519,0.0433 -0.006,0 -0.0269,0.0167 -0.0465,0.0372 -0.0196,0.0204 -0.042,0.0372 -0.0497,0.0372 -0.007,0 -0.0272,0.014 -0.0432,0.031 -0.016,0.017 -0.0355,0.031 -0.0432,0.031 -0.007,0 -0.0301,0.0167 -0.0497,0.0372 -0.0196,0.0204 -0.0412,0.0372 -0.048,0.0372 -0.007,0 -0.0239,0.0104 -0.038,0.0231 -0.0141,0.0127 -0.0535,0.0334 -0.0875,0.046 -0.0341,0.0127 -0.10099,0.0428 -0.1487,0.0671 l -0.0867,0.0441 -0.004,0.0789 c -0.002,0.0439 0.002,0.0847 0.009,0.0919 0.007,0.007 0.013,0.045 0.013,0.0842 0,0.0391 0.005,0.0746 0.0123,0.0788 0.007,0.004 0.0124,0.0453 0.0124,0.0912 0,0.0459 0.005,0.0888 0.0115,0.0953 0.007,0.007 0.0145,0.0564 0.018,0.11092 0.0133,0.20016 0.0388,0.43825 0.0478,0.44721 0.005,0.005 0.009,0.0581 0.009,0.11795 0,0.0598 0.005,0.11217 0.0123,0.11639 0.007,0.004 0.0123,0.0268 0.0123,0.0503 0,0.0471 -0.0242,0.0559 -0.0776,0.0283 -0.0593,-0.0306 -0.0715,-0.0352 -0.0936,-0.0352 -0.0126,0 -0.0271,-0.004 -0.0322,-0.009 -0.0109,-0.011 -0.14804,-0.0389 -0.23648,-0.0484 -0.0341,-0.003 -0.0673,-0.0117 -0.0737,-0.0178 -0.007,-0.006 -0.0354,-0.0113 -0.0643,-0.0113 -0.0289,0 -0.056,-0.005 -0.0602,-0.0123 -0.004,-0.007 -0.0349,-0.0123 -0.0682,-0.0123 -0.0333,0 -0.064,-0.005 -0.0682,-0.0123 -0.004,-0.007 -0.0265,-0.0123 -0.0496,-0.0123 -0.0231,0 -0.0454,-0.005 -0.0496,-0.0124 -0.0144,-0.0232 -0.16284,-0.0145 -0.21067,0.0124 -0.0243,0.0137 -0.0576,0.0248 -0.074,0.0248 -0.0164,0 -0.0333,0.005 -0.0375,0.0123 -0.004,0.007 -0.0181,0.0123 -0.0307,0.0123 -0.0295,0 -0.19852,0.0855 -0.19852,0.10033 0,0.006 -0.007,0.0112 -0.0161,0.0112 -0.0428,0 -0.0954,0.0801 -0.0954,0.14546 0,0.0351 0.005,0.0669 0.0113,0.0707 0.006,0.004 0.0152,0.0358 0.0201,0.0711 0.005,0.0353 0.0194,0.0829 0.0322,0.1057 0.0129,0.0228 0.0233,0.0498 0.0233,0.0599 0,0.0178 0.005,0.0311 0.0352,0.0891 0.008,0.0152 0.0143,0.036 0.0143,0.0461 0,0.0101 0.0112,0.0383 0.0248,0.0625 0.0137,0.0243 0.0248,0.0529 0.0248,0.0637 0,0.0108 0.0195,0.0557 0.0434,0.0999 0.0238,0.0441 0.0433,0.0901 0.0433,0.10202 0,0.0119 0.0112,0.0319 0.0248,0.0441 0.0137,0.0123 0.0248,0.0318 0.0248,0.0432 0,0.0222 0.1282,0.28313 0.1643,0.33436 0.0118,0.0169 0.0216,0.0403 0.0216,0.052 0,0.0118 0.007,0.0259 0.0161,0.0313 0.009,0.005 0.0315,0.0418 0.0504,0.0809 0.0189,0.039 0.0393,0.0741 0.0454,0.0779 0.006,0.004 0.0259,0.0397 0.0438,0.0798 0.018,0.0401 0.0461,0.0855 0.0625,0.10087 0.0164,0.0154 0.0297,0.0353 0.0297,0.0444 0,0.009 0.005,0.0164 0.0123,0.0164 0.007,0 0.0123,0.006 0.0123,0.0125 0,0.007 0.0185,0.0389 0.0409,0.0712 0.0225,0.0323 0.0502,0.0789 0.0617,0.10351 0.0115,0.0246 0.0293,0.0518 0.0397,0.0603 0.0103,0.009 0.0188,0.0205 0.0188,0.0265 0,0.0139 0.11277,0.17671 0.12624,0.18224 0.005,0.002 0.01,0.0112 0.01,0.0198 0,0.009 0.0112,0.0258 0.0248,0.038 0.0137,0.0123 0.0248,0.0297 0.0248,0.0386 0,0.009 0.0195,0.0317 0.0434,0.0508 0.0238,0.0191 0.0433,0.0407 0.0433,0.0479 0,0.007 0.014,0.0264 0.031,0.0424 0.017,0.0161 0.031,0.0343 0.031,0.0406 0,0.007 0.0167,0.0271 0.0372,0.0462 0.0204,0.0191 0.0372,0.0412 0.0372,0.0492 0,0.008 0.0195,0.0328 0.0434,0.0553 0.0238,0.0225 0.0433,0.0477 0.0433,0.056 0,0.008 0.0363,0.0488 0.0805,0.0901 0.0443,0.0413 0.0805,0.0814 0.0805,0.0892 0,0.016 0.1253,0.14347 0.14096,0.14347 0.005,0 0.0821,0.0711 0.17005,0.15799 0.088,0.0869 0.16649,0.16018 0.17449,0.16285 0.0552,0.0184 0.0969,0.0879 0.0969,0.1613 0,0.0407 -0.005,0.0775 -0.0124,0.0817 -0.007,0.004 -0.0123,0.0621 -0.0123,0.13084 0,0.0739 -0.005,0.12318 -0.0124,0.12318 -0.007,0 -0.0123,0.0452 -0.0123,0.11081 0,0.0609 -0.005,0.11423 -0.0123,0.11844 -0.007,0.004 -0.0123,0.0516 -0.0123,0.10534 0,0.0538 -0.005,0.10112 -0.0123,0.10533 -0.007,0.004 -0.0124,0.0576 -0.0124,0.11845 0,0.0656 -0.005,0.1108 -0.0123,0.1108 -0.007,0 -0.0123,0.0384 -0.0123,0.0905 0,0.0498 -0.006,0.0962 -0.0126,0.10314 -0.007,0.007 -0.016,0.12347 -0.0205,0.27424 -0.007,0.25191 -0.009,0.2618 -0.0338,0.26804 -0.0143,0.003 -0.27269,0.0104 -0.57428,0.0152 l -0.54834,0.009 z m 1.23917,-2.44908 c -0.0102,-0.005 -0.0492,-0.0197 -0.0867,-0.0315 -0.0375,-0.0119 -0.078,-0.0303 -0.0899,-0.0409 -0.0119,-0.0106 -0.0343,-0.0254 -0.0496,-0.0331 -0.0153,-0.007 -0.0351,-0.029 -0.044,-0.0476 -0.009,-0.0185 -0.0215,-0.0337 -0.0279,-0.0337 -0.0189,0 -0.0134,-0.0699 0.007,-0.0867 0.0102,-0.008 0.0186,-0.0226 0.0186,-0.0315 0,-0.009 0.005,-0.0179 0.01,-0.0202 0.005,-0.002 0.0249,-0.0352 0.0433,-0.0735 0.0185,-0.0381 0.0447,-0.0794 0.0584,-0.0917 0.0137,-0.0124 0.0248,-0.0326 0.0248,-0.0449 0,-0.0123 0.0167,-0.0415 0.0372,-0.0648 0.0204,-0.0233 0.0372,-0.0479 0.0372,-0.0547 0,-0.007 0.008,-0.0189 0.0177,-0.027 0.01,-0.008 0.0326,-0.0436 0.051,-0.079 0.0183,-0.0353 0.041,-0.0731 0.0505,-0.0839 0.009,-0.0107 0.0172,-0.0254 0.0172,-0.0325 0,-0.007 0.008,-0.02 0.0188,-0.0286 0.0103,-0.009 0.0282,-0.0357 0.0397,-0.0604 0.0115,-0.0246 0.0393,-0.0712 0.0618,-0.10349 0.0224,-0.0323 0.0408,-0.0622 0.0408,-0.0667 0,-0.005 0.01,-0.017 0.0223,-0.028 0.0123,-0.011 0.0323,-0.0396 0.0444,-0.0634 0.0501,-0.0986 0.0796,-0.15033 0.0971,-0.1706 0.0102,-0.0118 0.0263,-0.0396 0.0357,-0.0618 0.009,-0.0222 0.0205,-0.0403 0.0245,-0.0403 0.004,0 0.0231,-0.032 0.0425,-0.0712 0.0194,-0.0392 0.0433,-0.0809 0.0532,-0.0925 0.0161,-0.019 0.0566,-0.0919 0.12261,-0.22035 0.0123,-0.0238 0.0307,-0.0518 0.041,-0.0619 0.0212,-0.0212 0.057,-0.0835 0.11094,-0.1934 0.0204,-0.0417 0.0457,-0.0827 0.0561,-0.0914 0.0104,-0.009 0.0189,-0.0234 0.0189,-0.0328 0,-0.009 0.005,-0.017 0.0103,-0.017 0.006,0 0.0179,-0.0154 0.0273,-0.0341 0.009,-0.0188 0.0287,-0.0508 0.0431,-0.0712 0.0143,-0.0204 0.0357,-0.0579 0.0473,-0.0831 0.0117,-0.0253 0.0268,-0.0493 0.0333,-0.0534 0.007,-0.004 0.0262,-0.0385 0.0435,-0.0764 0.0174,-0.038 0.0453,-0.0869 0.062,-0.10889 0.0167,-0.022 0.0305,-0.0445 0.0305,-0.0502 0,-0.006 0.009,-0.0204 0.0206,-0.0329 0.0255,-0.0282 0.0427,-0.0576 0.0908,-0.1552 0.0207,-0.0423 0.0427,-0.0799 0.0487,-0.0835 0.006,-0.004 0.0259,-0.036 0.0446,-0.0718 0.0185,-0.0358 0.0405,-0.0735 0.0487,-0.0837 0.008,-0.0102 0.0303,-0.0505 0.049,-0.0896 0.0187,-0.039 0.0391,-0.0742 0.0455,-0.0781 0.007,-0.004 0.0252,-0.037 0.0419,-0.0735 0.0167,-0.0365 0.0359,-0.0697 0.0427,-0.0739 0.007,-0.004 0.0356,-0.0535 0.0638,-0.10959 0.0758,-0.15035 0.10375,-0.20057 0.11414,-0.20518 0.005,-0.002 0.009,-0.0102 0.009,-0.0176 0,-0.007 0.009,-0.0237 0.0206,-0.0362 0.0242,-0.0268 0.044,-0.0596 0.0781,-0.12936 0.0137,-0.0281 0.0333,-0.0581 0.0437,-0.0666 0.0103,-0.009 0.0188,-0.0282 0.0188,-0.0435 0,-0.0154 0.009,-0.0352 0.0192,-0.0439 0.0106,-0.009 0.039,-0.0566 0.0633,-0.1065 0.0243,-0.0498 0.0519,-0.097 0.0614,-0.10482 0.009,-0.008 0.0172,-0.0212 0.0172,-0.0298 0,-0.009 0.008,-0.0224 0.0183,-0.0307 0.0101,-0.008 0.0437,-0.0674 0.0747,-0.13111 0.0311,-0.0637 0.0615,-0.11909 0.0678,-0.12296 0.006,-0.004 0.0343,-0.0529 0.0621,-0.10895 0.0505,-0.10149 0.075,-0.1459 0.0871,-0.15768 0.003,-0.003 0.0201,-0.0341 0.037,-0.0682 0.0168,-0.0341 0.0488,-0.0884 0.0711,-0.1207 0.0222,-0.0323 0.0405,-0.0699 0.0405,-0.0836 0,-0.0137 0.005,-0.0249 0.011,-0.0249 0.006,0 0.0202,-0.0181 0.0314,-0.0403 0.0113,-0.0221 0.0392,-0.0737 0.0621,-0.11463 0.0229,-0.0409 0.0574,-0.10501 0.0766,-0.1425 0.0193,-0.0375 0.0423,-0.0757 0.0514,-0.085 0.009,-0.009 0.0358,-0.0579 0.0596,-0.10789 0.0238,-0.0501 0.0482,-0.0942 0.0545,-0.098 0.006,-0.004 0.0267,-0.0389 0.0455,-0.078 0.0188,-0.039 0.0471,-0.0883 0.0627,-0.10936 0.0157,-0.0211 0.0285,-0.044 0.0285,-0.0511 0,-0.007 0.008,-0.0198 0.0188,-0.0283 0.0103,-0.009 0.0357,-0.0496 0.0565,-0.0914 0.0425,-0.0852 0.0937,-0.17847 0.13345,-0.24309 0.0146,-0.0238 0.0436,-0.078 0.0641,-0.12023 0.0206,-0.0423 0.0422,-0.0798 0.0478,-0.0833 0.006,-0.003 0.0313,-0.0471 0.0567,-0.0966 0.0254,-0.0496 0.0531,-0.0985 0.0616,-0.10876 0.008,-0.0102 0.0306,-0.0506 0.0492,-0.0896 0.0187,-0.039 0.0389,-0.0741 0.0451,-0.078 0.006,-0.004 0.0208,-0.0277 0.0326,-0.0529 0.0117,-0.0253 0.0342,-0.0632 0.0499,-0.0843 0.0157,-0.0211 0.0286,-0.044 0.0286,-0.0511 0,-0.007 0.009,-0.02 0.0192,-0.0287 0.0106,-0.009 0.0305,-0.0387 0.0443,-0.0665 0.0483,-0.0976 0.082,-0.1566 0.10211,-0.17884 0.0112,-0.0124 0.0203,-0.0263 0.0203,-0.031 0,-0.005 0.0195,-0.037 0.0434,-0.0716 0.0238,-0.0347 0.0433,-0.0699 0.0433,-0.0783 0,-0.008 0.0111,-0.0254 0.0248,-0.0377 0.0137,-0.0123 0.0248,-0.0292 0.0248,-0.0376 0,-0.008 0.009,-0.0223 0.0192,-0.0311 0.0106,-0.009 0.0315,-0.0408 0.0464,-0.0712 0.0454,-0.0918 0.0514,-0.10182 0.0612,-0.10182 0.005,0 0.009,-0.007 0.009,-0.017 0,-0.009 0.008,-0.0241 0.0188,-0.0327 0.0103,-0.009 0.0282,-0.0357 0.0397,-0.0603 0.0114,-0.0246 0.038,-0.0698 0.0588,-0.10054 0.0208,-0.0306 0.0462,-0.0725 0.0563,-0.0929 0.0101,-0.0204 0.0283,-0.048 0.0402,-0.0612 0.0119,-0.0133 0.0217,-0.0294 0.0217,-0.036 0,-0.007 0.014,-0.0302 0.031,-0.0526 0.017,-0.0223 0.031,-0.0459 0.031,-0.0523 0,-0.007 0.008,-0.0188 0.0188,-0.0273 0.0103,-0.009 0.028,-0.0357 0.0392,-0.0603 0.0113,-0.0246 0.0298,-0.0559 0.0413,-0.0696 0.0115,-0.0137 0.0315,-0.0512 0.0444,-0.0836 0.013,-0.0324 0.0277,-0.0589 0.0328,-0.0589 0.005,-2e-5 0.009,-0.007 0.009,-0.0166 0,-0.009 0.0111,-0.0268 0.0248,-0.0391 0.0137,-0.0123 0.0248,-0.0282 0.0248,-0.035 0,-0.007 0.009,-0.0221 0.0191,-0.0338 0.0188,-0.0207 0.0423,-0.0623 0.11192,-0.19767 0.0193,-0.0375 0.0381,-0.071 0.0419,-0.0744 0.0174,-0.0157 0.0748,-0.0986 0.0748,-0.10802 0,-0.006 0.0295,-0.0397 0.0655,-0.0752 0.10107,-0.0998 0.15644,-0.0906 0.22987,0.0383 0.0147,0.0259 0.0268,0.0576 0.0268,0.0705 0,0.0128 0.005,0.0268 0.0123,0.031 0.0213,0.0132 0.0147,0.14153 -0.009,0.17782 -0.0444,0.0673 -0.0538,0.0841 -0.0902,0.15927 -0.0205,0.0423 -0.0424,0.08 -0.0487,0.0839 -0.007,0.004 -0.0378,0.0602 -0.07,0.12507 -0.0323,0.0649 -0.0632,0.12086 -0.0689,0.12437 -0.006,0.003 -0.0212,0.0302 -0.0345,0.0594 -0.0133,0.0291 -0.0328,0.0602 -0.0434,0.0689 -0.0106,0.009 -0.0192,0.0229 -0.0192,0.0315 0,0.009 -0.007,0.0217 -0.0167,0.0294 -0.009,0.007 -0.0353,0.0515 -0.0581,0.0976 -0.0228,0.046 -0.0505,0.0948 -0.0616,0.10846 -0.011,0.0137 -0.0305,0.0499 -0.0433,0.0805 -0.0128,0.0306 -0.0333,0.0673 -0.0457,0.0814 -0.0124,0.0141 -0.0225,0.0317 -0.0225,0.0393 0,0.007 -0.004,0.0155 -0.009,0.0178 -0.0109,0.005 -0.0499,0.0735 -0.10219,0.18012 -0.0208,0.0423 -0.0423,0.0798 -0.0481,0.0833 -0.006,0.003 -0.0313,0.0471 -0.0567,0.0966 -0.0255,0.0496 -0.053,0.0985 -0.0613,0.10876 -0.008,0.0102 -0.034,0.0576 -0.0572,0.10532 -0.0232,0.0478 -0.0541,0.10348 -0.0685,0.12393 -0.0145,0.0204 -0.0355,0.0573 -0.0467,0.0819 -0.0112,0.0246 -0.0288,0.0518 -0.0392,0.0603 -0.0103,0.009 -0.0188,0.0272 -0.0188,0.0412 0,0.014 -0.0101,0.0371 -0.0225,0.0511 -0.0123,0.0141 -0.0331,0.0507 -0.0461,0.0814 -0.013,0.0306 -0.0324,0.0641 -0.0432,0.0744 -0.0108,0.0102 -0.029,0.0387 -0.0404,0.0633 -0.0114,0.0246 -0.0292,0.0518 -0.0397,0.0604 -0.0103,0.009 -0.0188,0.0204 -0.0188,0.0262 0,0.0155 -0.0653,0.1526 -0.0764,0.1604 -0.0121,0.008 -0.0931,0.15147 -0.15422,0.27214 -0.0259,0.0511 -0.0501,0.0957 -0.0539,0.0991 -0.0242,0.0221 -0.0767,0.10668 -0.11631,0.18792 -0.0254,0.0522 -0.0545,0.10172 -0.0644,0.10995 -0.01,0.008 -0.018,0.022 -0.018,0.0306 0,0.009 -0.008,0.0225 -0.0186,0.031 -0.0103,0.008 -0.0186,0.0249 -0.0186,0.0366 0,0.0116 -0.0143,0.0346 -0.0319,0.0511 -0.0175,0.0165 -0.0474,0.0635 -0.0664,0.1045 -0.019,0.041 -0.0436,0.0821 -0.0546,0.0912 -0.011,0.009 -0.0353,0.0482 -0.054,0.0866 -0.0187,0.0385 -0.0419,0.0782 -0.0515,0.0881 -0.01,0.01 -0.0249,0.0355 -0.0338,0.0567 -0.009,0.0213 -0.0248,0.0459 -0.0355,0.0547 -0.0106,0.009 -0.0194,0.023 -0.0194,0.0315 0,0.009 -0.009,0.0227 -0.0192,0.0315 -0.0106,0.009 -0.0305,0.0387 -0.0441,0.0665 -0.0366,0.0742 -0.0541,0.10351 -0.0772,0.12899 -0.0114,0.0125 -0.0206,0.0292 -0.0206,0.0373 0,0.008 -0.005,0.0145 -0.0104,0.0145 -0.006,0 -0.0267,0.0284 -0.0464,0.0632 -0.0198,0.0348 -0.0421,0.0737 -0.0495,0.0866 -0.007,0.0129 -0.0218,0.0333 -0.0319,0.0453 -0.0102,0.0119 -0.0277,0.0419 -0.0389,0.0665 -0.0113,0.0246 -0.0289,0.0518 -0.0393,0.0603 -0.0103,0.009 -0.0188,0.0288 -0.0188,0.045 0,0.0162 -0.005,0.0295 -0.0114,0.0295 -0.007,0 -0.0268,0.032 -0.0455,0.0712 -0.0187,0.0392 -0.0422,0.0809 -0.0522,0.0927 -0.0191,0.0226 -0.0601,0.0956 -0.0975,0.17371 -0.0123,0.0255 -0.0265,0.0464 -0.0317,0.0464 -0.005,0 -0.009,0.007 -0.009,0.017 0,0.009 -0.009,0.0242 -0.0192,0.033 -0.0106,0.009 -0.0301,0.0398 -0.0433,0.0689 -0.0133,0.0291 -0.0297,0.0565 -0.0366,0.0606 -0.007,0.004 -0.0124,0.0206 -0.0124,0.0364 0,0.0158 -0.008,0.0357 -0.0188,0.0444 -0.0103,0.009 -0.028,0.0357 -0.0392,0.0603 -0.0112,0.0246 -0.0323,0.0615 -0.0469,0.0819 -0.0146,0.0204 -0.0476,0.0804 -0.0734,0.13311 -0.0258,0.0528 -0.052,0.0991 -0.0582,0.10295 -0.006,0.004 -0.0256,0.0373 -0.0431,0.0742 -0.0175,0.0369 -0.0367,0.0702 -0.0427,0.0739 -0.006,0.004 -0.0339,0.0526 -0.0618,0.10867 -0.0279,0.0561 -0.0645,0.12423 -0.0811,0.15149 -0.0166,0.0273 -0.0396,0.0691 -0.051,0.0929 -0.0114,0.0238 -0.03,0.0545 -0.0412,0.0682 -0.0113,0.0137 -0.0309,0.0499 -0.0436,0.0805 -0.0128,0.0306 -0.0333,0.0673 -0.0457,0.0814 -0.0124,0.0141 -0.0225,0.0302 -0.0225,0.036 0,0.006 -0.0143,0.0292 -0.0318,0.052 -0.0175,0.0229 -0.0457,0.0721 -0.0627,0.10936 -0.017,0.0373 -0.0359,0.0707 -0.0418,0.0744 -0.006,0.004 -0.026,0.0387 -0.0446,0.0777 -0.0186,0.039 -0.0458,0.0877 -0.0603,0.10819 -0.0146,0.0204 -0.0419,0.0691 -0.0607,0.10819 -0.0188,0.039 -0.0394,0.0743 -0.0458,0.0782 -0.007,0.004 -0.0228,0.0306 -0.0366,0.0591 -0.0264,0.0549 -0.0511,0.0974 -0.0623,0.10768 -0.004,0.003 -0.0165,0.0268 -0.0282,0.0521 -0.0118,0.0253 -0.0267,0.0492 -0.0332,0.0532 -0.0121,0.007 -0.0866,0.16114 -0.0866,0.17856 0,0.005 -0.0112,0.0198 -0.0248,0.032 -0.0137,0.0123 -0.0248,0.028 -0.0248,0.0348 0,0.007 -0.0131,0.0296 -0.0292,0.0508 -0.0161,0.0211 -0.0553,0.0925 -0.0873,0.15877 -0.0319,0.0662 -0.0634,0.1237 -0.07,0.12773 -0.007,0.004 -0.0262,0.0375 -0.0436,0.0745 -0.0175,0.037 -0.0366,0.0701 -0.0424,0.0737 -0.006,0.003 -0.0316,0.0497 -0.0575,0.10249 -0.0258,0.0528 -0.0588,0.11267 -0.0734,0.13311 -0.0146,0.0204 -0.0359,0.0579 -0.0474,0.0831 -0.0115,0.0253 -0.0263,0.0492 -0.0328,0.0533 -0.007,0.004 -0.0288,0.0419 -0.0495,0.0842 -0.0536,0.1093 -0.0897,0.17242 -0.11397,0.19936 -0.0116,0.0128 -0.0298,0.0419 -0.0406,0.0645 -0.0107,0.0226 -0.025,0.0445 -0.0316,0.0487 -0.007,0.004 -0.012,0.0174 -0.012,0.0296 0,0.0254 -0.0333,0.0964 -0.0501,0.10678 -0.006,0.004 -0.0209,0.0277 -0.0327,0.0529 -0.0118,0.0253 -0.0319,0.0535 -0.0445,0.0627 -0.0126,0.009 -0.0282,0.0301 -0.0343,0.0464 -0.0118,0.0311 -0.0805,0.0413 -0.12345,0.0184 z"
       id="path22"
       inkscape:export-filename=".\marksman.svg"
       inkscape:export-xdpi="80"
       inkscape:export-ydpi="80" /></g></svg>
