<?xml version="1.0" encoding="UTF-8" standalone="no"?>
<!-- Created with Inkscape (http://www.inkscape.org/) -->

<svg
   width="51.533562mm"
   height="20.319077mm"
   viewBox="0 0 51.53356 20.319076"
   version="1.1"
   id="svg1"
   xml:space="preserve"
   sodipodi:docname="rect9.svg"
   xmlns:inkscape="http://www.inkscape.org/namespaces/inkscape"
   xmlns:sodipodi="http://sodipodi.sourceforge.net/DTD/sodipodi-0.dtd"
   xmlns="http://www.w3.org/2000/svg"
   xmlns:svg="http://www.w3.org/2000/svg"><sodipodi:namedview
     id="namedview1"
     pagecolor="#ffffff"
     bordercolor="#000000"
     borderopacity="0.25"
     inkscape:showpageshadow="2"
     inkscape:pageopacity="0.0"
     inkscape:pagecheckerboard="0"
     inkscape:deskcolor="#d1d1d1"
     inkscape:document-units="mm" /><defs
     id="defs1" /><g
     inkscape:label="Layer 1"
     inkscape:groupmode="layer"
     id="layer1"
     transform="translate(40.328002,-109.86792)"><rect
       style="fill:#ffffff;fill-opacity:1;stroke:none;stroke-width:0.776999;stroke-dasharray:none;stroke-opacity:1"
       id="rect9"
       width="193.222"
       height="196.08881"
       x="10.893822"
       y="28.094597"
       ry="1.7181612" /><path
       style="fill:#000000;stroke-width:0.171006"
       d="m -26.460294,130.14129 c -0.05884,-0.063 -0.06112,-0.10282 -0.02185,-0.38183 0.01247,-0.0886 0.03274,-0.26459 0.04505,-0.39113 0.02854,-0.29334 0.08764,-0.65141 0.136699,-0.82831 0.06902,-0.24888 0.07406,-0.30092 0.08058,-0.83295 0.0137,-1.11636 0.01213,-1.2765 -0.01382,-1.40636 -0.01347,-0.0675 -0.03562,-0.19172 -0.04919,-0.27608 -0.01358,-0.0844 -0.03814,-0.21332 -0.0546,-0.28658 -0.01645,-0.0733 -0.03707,-0.1906 -0.0458,-0.26075 -0.019,-0.15269 -0.07949,-0.39924 -0.129132,-0.52634 -0.113859,-0.2915 -0.127837,-0.33303 -0.152264,-0.45247 -0.0043,-0.0211 -0.03603,-0.0757 -0.07048,-0.12143 -0.09019,-0.11963 -0.162213,-0.24741 -0.212648,-0.37729 -0.02421,-0.0624 -0.09047,-0.19072 -0.147232,-0.28526 -0.05676,-0.0945 -0.115386,-0.2001 -0.130267,-0.23462 -0.01488,-0.0345 -0.05558,-0.0971 -0.09044,-0.13915 -0.03486,-0.042 -0.06338,-0.0837 -0.06338,-0.0927 0,-0.009 -0.03451,-0.0709 -0.07669,-0.13769 -0.04218,-0.0668 -0.07669,-0.12681 -0.07669,-0.13336 0,-0.007 -0.02081,-0.0457 -0.04624,-0.0871 -0.08115,-0.13189 -0.165938,-0.13658 -0.263846,-0.0146 -0.103064,0.12839 -0.146978,0.20605 -0.180765,0.31967 -0.01877,0.0631 -0.05071,0.14752 -0.07097,0.18757 -0.03944,0.078 -0.08423,0.19274 -0.166075,0.42567 -0.09689,0.27572 -0.227022,0.51023 -0.318815,0.57453 -0.05028,0.0352 -0.116972,0.0289 -0.176979,-0.0169 -0.05186,-0.0395 -0.05302,-0.0428 -0.04532,-0.12654 0.0043,-0.0473 0.02522,-0.1239 0.04637,-0.1703 0.03469,-0.0761 0.06961,-0.1651 0.210585,-0.53684 0.024,-0.0633 0.0612,-0.15645 0.08267,-0.20706 0.02147,-0.0506 0.03921,-0.0997 0.0394,-0.10904 1.71e-4,-0.009 0.02478,-0.0699 0.05462,-0.13443 0.07137,-0.15447 0.108812,-0.28037 0.12975,-0.43626 0.01983,-0.14759 0.02696,-0.17088 0.06198,-0.20221 0.03349,-0.0299 0.05106,-0.0867 0.03073,-0.0993 -0.0088,-0.005 -0.01596,-0.002 -0.01596,0.006 0,0.009 -0.0069,0.0162 -0.01534,0.0162 -0.0084,0 -0.0155,-0.019 -0.01568,-0.0422 -8.56e-4,-0.10149 -0.08799,-0.21857 -0.162761,-0.21857 -0.03379,0 -0.11293,0.0787 -0.113054,0.11237 -3.6e-5,0.01 -0.02835,0.0553 -0.06292,0.10091 -0.03457,0.0456 -0.0751,0.11116 -0.09006,0.14571 -0.02705,0.0624 -0.09526,0.16938 -0.173257,0.27163 -0.05207,0.0683 -0.179853,0.38293 -0.179853,0.44289 0,0.0358 0.0082,0.0477 0.03834,0.0552 0.04815,0.0121 0.04791,0.0172 -0.0056,0.12491 -0.103283,0.20764 -0.18121,0.33498 -0.232458,0.37987 -0.01926,0.0169 -0.06112,0.0868 -0.09303,0.15535 -0.06647,0.14286 -0.115167,0.18316 -0.247167,0.20453 -0.185732,0.0301 -0.245842,-0.0861 -0.170343,-0.32921 0.03031,-0.0976 0.179941,-0.41036 0.234813,-0.49081 0.03942,-0.0578 0.202399,-0.38485 0.274667,-0.55119 0.01809,-0.0416 0.05601,-0.11065 0.08426,-0.15338 0.02826,-0.0427 0.0835,-0.14179 0.122764,-0.22015 0.03926,-0.0784 0.09566,-0.17626 0.125324,-0.21754 0.118226,-0.16457 0.200773,-0.41487 0.161201,-0.48881 -0.01983,-0.0371 -0.315848,-0.32568 -0.407767,-0.39758 -0.04218,-0.033 -0.103928,-0.0905 -0.137218,-0.12769 -0.03329,-0.0372 -0.09244,-0.0918 -0.131442,-0.12138 -0.100361,-0.076 -0.234498,-0.18985 -0.365219,-0.31007 -0.06181,-0.0568 -0.176927,-0.15166 -0.255816,-0.21069 -0.07889,-0.059 -0.279677,-0.23842 -0.446198,-0.39863 -0.190448,-0.18322 -0.337841,-0.3118 -0.397321,-0.34658 -0.052,-0.0304 -0.146835,-0.10232 -0.210732,-0.15979 -0.0639,-0.0575 -0.153056,-0.12158 -0.19813,-0.14247 -0.04507,-0.0209 -0.113009,-0.0654 -0.150971,-0.0989 -0.03796,-0.0335 -0.131288,-0.10261 -0.207393,-0.15356 -0.0761,-0.051 -0.148577,-0.10503 -0.16105,-0.12017 -0.01247,-0.0152 -0.0848,-0.0741 -0.160722,-0.13106 -0.07592,-0.0569 -0.172553,-0.13007 -0.214734,-0.16253 -0.04218,-0.0324 -0.121555,-0.0912 -0.176388,-0.13051 -0.05484,-0.0393 -0.116952,-0.0877 -0.138043,-0.10756 -0.02109,-0.0198 -0.107368,-0.0838 -0.191727,-0.14222 -0.211919,-0.14666 -0.373778,-0.27144 -0.435706,-0.33589 -0.02874,-0.0299 -0.08741,-0.0717 -0.130371,-0.0929 -0.04297,-0.0212 -0.129884,-0.0779 -0.193158,-0.12594 -0.06327,-0.0481 -0.166801,-0.11815 -0.230071,-0.15573 -0.06327,-0.0376 -0.185994,-0.12 -0.272721,-0.18314 -0.16809,-0.12239 -0.306241,-0.20338 -0.581089,-0.34066 -0.111997,-0.0559 -0.202226,-0.11404 -0.260748,-0.16791 -0.08996,-0.0828 -0.472093,-0.30825 -0.615012,-0.36283 -0.03964,-0.0151 -0.122374,-0.0604 -0.183863,-0.1005 -0.06148,-0.0401 -0.137541,-0.0812 -0.169011,-0.0913 -0.0748,-0.0239 -0.58419,-0.27798 -0.69753,-0.34793 -0.08803,-0.0543 -0.392423,-0.17526 -0.609746,-0.24225 -0.06327,-0.0195 -0.146099,-0.0493 -0.184062,-0.0662 -0.0684,-0.0305 -0.251795,-0.0883 -0.63653,-0.20066 -0.109668,-0.0321 -0.224628,-0.0689 -0.255462,-0.082 -0.03087,-0.0131 -0.09641,-0.0318 -0.145715,-0.0416 -0.04931,-0.01 -0.126139,-0.0312 -0.170741,-0.0474 -0.04461,-0.0162 -0.09897,-0.0295 -0.120809,-0.0295 -0.02182,0 -0.09922,-0.0131 -0.171974,-0.0292 -0.07275,-0.016 -0.190945,-0.0377 -0.262649,-0.048 -0.07171,-0.0104 -0.230456,-0.0516 -0.352775,-0.0916 -0.201352,-0.0658 -0.553126,-0.15735 -0.763578,-0.19868 -0.216642,-0.0425 -0.297788,-0.1465 -0.227882,-0.29196 0.04818,-0.10024 0.09009,-0.11576 0.228746,-0.0847 0.06096,0.0137 0.228177,0.0346 0.371589,0.0466 0.393191,0.0328 0.522074,0.0499 0.690215,0.0913 0.08436,0.0208 0.243108,0.0484 0.352775,0.0613 0.109668,0.0129 0.289125,0.0347 0.398792,0.0484 0.402344,0.0502 0.980658,0.0518 1.618169,0.004 0.122323,-0.009 0.301783,-0.0224 0.398792,-0.0297 0.09701,-0.007 0.245413,-0.0236 0.329773,-0.0364 0.08436,-0.0128 0.203137,-0.0236 0.263957,-0.024 0.06081,-3.4e-4 0.160895,-0.007 0.222398,-0.0153 0.06151,-0.008 0.173948,-0.0224 0.24987,-0.032 0.140182,-0.0177 0.952422,-0.0401 1.186423,-0.0328 0.07045,0.002 0.180886,-0.006 0.245409,-0.019 0.136846,-0.0269 0.29808,-0.0446 0.700166,-0.0768 0.283291,-0.0227 0.544065,-0.0448 0.829794,-0.0703 0.160236,-0.0143 0.370179,-0.0493 0.558306,-0.0931 0.0717,-0.0167 0.182138,-0.0368 0.245409,-0.0446 0.22676,-0.028 0.331044,-0.0457 0.412071,-0.0699 0.05897,-0.0176 0.161428,-0.0259 0.361455,-0.0293 0.231457,-0.004 0.288156,-0.009 0.331829,-0.032 0.04138,-0.0215 0.108593,-0.0296 0.31342,-0.038 0.187331,-0.008 0.276507,-0.0177 0.316716,-0.0354 0.05419,-0.024 0.269948,-0.0627 0.618909,-0.11103 0.0928,-0.0129 0.20323,-0.033 0.245411,-0.0447 0.04218,-0.0118 0.169869,-0.0326 0.283754,-0.0464 0.113886,-0.0138 0.234673,-0.0313 0.268418,-0.039 0.03374,-0.008 0.100172,-0.014 0.147617,-0.0142 0.04744,-1.7e-4 0.116468,-0.0111 0.153381,-0.0241 0.03691,-0.0131 0.132685,-0.0302 0.212827,-0.0381 0.191852,-0.0189 0.299266,-0.038 0.383453,-0.0682 0.04436,-0.0159 0.118895,-0.0248 0.208593,-0.0248 0.108779,-1e-5 0.151811,-0.007 0.195052,-0.0297 0.052,-0.0279 0.208757,-0.0689 0.439952,-0.11528 0.05483,-0.011 0.182524,-0.0411 0.283754,-0.067 0.104189,-0.0266 0.223993,-0.0471 0.276086,-0.0472 0.103155,-1.4e-4 0.290863,-0.0327 0.392779,-0.0682 0.03705,-0.0129 0.11679,-0.0235 0.1772,-0.0237 0.06616,-1.3e-4 0.1485,-0.0123 0.207065,-0.0307 0.184462,-0.0578 0.333753,-0.0254 0.177753,0.0386 -0.06865,0.0282 -0.274969,0.0753 -0.438348,0.1001 -0.05339,0.008 -0.109319,0.0213 -0.124282,0.0293 -0.01496,0.008 -0.0974,0.0251 -0.183198,0.0379 -0.08579,0.0128 -0.16908,0.0303 -0.185083,0.0389 -0.016,0.009 -0.07821,0.0225 -0.138241,0.031 -0.06003,0.008 -0.149299,0.029 -0.198369,0.0455 -0.04907,0.0165 -0.178238,0.0484 -0.287039,0.0708 -0.108799,0.0224 -0.230858,0.0537 -0.271241,0.0696 -0.04038,0.0159 -0.09565,0.0289 -0.122807,0.0289 -0.02716,0 -0.0735,0.007 -0.102965,0.0156 -0.02947,0.009 -0.140096,0.0291 -0.245836,0.0457 -0.10574,0.0165 -0.212723,0.0372 -0.237742,0.0459 -0.04804,0.0167 -0.13453,0.0338 -0.543974,0.10772 -0.252901,0.0456 -0.459524,0.0892 -0.575179,0.12119 -0.03374,0.009 -0.109668,0.0273 -0.16872,0.0399 -0.05905,0.0126 -0.214349,0.0475 -0.345107,0.0776 -0.393212,0.0905 -0.431105,0.0978 -0.588852,0.11402 -0.08344,0.009 -0.216184,0.0331 -0.294976,0.0546 -0.114973,0.0313 -0.161434,0.037 -0.235309,0.0286 -0.06354,-0.007 -0.124192,-0.003 -0.195844,0.0141 -0.05709,0.0135 -0.196972,0.0357 -0.310859,0.0494 -0.113884,0.0136 -0.331302,0.0454 -0.48315,0.0705 -0.151846,0.0251 -0.35201,0.0557 -0.444804,0.0679 -0.0928,0.0123 -0.203231,0.0287 -0.245411,0.0368 -0.04218,0.008 -0.14226,0.0216 -0.222402,0.0301 -0.08014,0.008 -0.182892,0.0225 -0.228331,0.0312 -0.04544,0.009 -0.139734,0.0156 -0.209544,0.0156 -0.06981,0 -0.205186,0.0102 -0.300834,0.0227 -0.35915,0.0468 -0.604981,0.0694 -0.762731,0.07 -0.08951,3.4e-4 -0.193802,0.007 -0.231764,0.0155 -0.03796,0.008 -0.234673,0.0215 -0.437135,0.0297 -0.202466,0.008 -0.426785,0.0222 -0.498493,0.0311 -0.0717,0.009 -0.236314,0.0225 -0.365794,0.0303 -0.129483,0.008 -0.288233,0.021 -0.352774,0.0294 -0.06455,0.008 -0.22434,0.023 -0.355098,0.0326 -0.130757,0.01 -0.30499,0.0272 -0.387185,0.0391 -0.0822,0.0119 -0.196713,0.0217 -0.254478,0.0217 -0.05777,0 -0.159614,0.007 -0.226334,0.0157 -0.06672,0.009 -0.202009,0.0212 -0.300639,0.0281 -0.195939,0.0135 -0.227135,0.0268 -0.227135,0.0972 0,0.1002 0.07183,0.15085 0.322106,0.22719 0.08858,0.027 0.189125,0.0652 0.223442,0.0849 0.03433,0.0197 0.134399,0.0643 0.222405,0.0992 0.088,0.0349 0.20832,0.0896 0.267369,0.12152 0.05905,0.032 0.155685,0.0771 0.214738,0.10031 0.05905,0.0232 0.138424,0.056 0.176387,0.0729 0.03796,0.0169 0.103531,0.046 0.145711,0.0647 0.04218,0.0187 0.132111,0.0561 0.199849,0.083 0.06774,0.027 0.209231,0.0938 0.314431,0.14845 0.1052,0.0547 0.227897,0.11326 0.272663,0.13012 0.08991,0.0339 0.331219,0.18982 0.464577,0.30023 0.0472,0.0391 0.136026,0.0975 0.197388,0.12975 0.06136,0.0323 0.126273,0.0719 0.144249,0.088 0.04411,0.0395 0.29686,0.20862 0.357279,0.23904 0.02669,0.0134 0.102867,0.0654 0.169313,0.11546 0.06645,0.0501 0.178217,0.12627 0.248384,0.16933 0.07017,0.0431 0.156177,0.10112 0.191132,0.12902 0.03495,0.0279 0.126205,0.0897 0.202781,0.13743 0.07658,0.0477 0.152414,0.10128 0.16853,0.11909 0.01611,0.0178 0.0708,0.0567 0.121519,0.0863 0.08749,0.0512 0.253146,0.18291 0.435712,0.3464 0.04551,0.0408 0.12446,0.0952 0.175442,0.1209 0.118657,0.0599 0.316283,0.19692 0.42414,0.29409 0.04628,0.0417 0.111848,0.0936 0.145713,0.11532 0.03386,0.0217 0.09953,0.0679 0.145929,0.10258 0.284799,0.21283 0.441887,0.32661 0.475481,0.34441 0.06096,0.0323 0.199316,0.13783 0.296852,0.22646 0.04938,0.0449 0.123464,0.10427 0.164627,0.13199 0.04116,0.0277 0.142253,0.11291 0.224644,0.18932 0.08239,0.0764 0.173961,0.15826 0.203487,0.1819 0.02953,0.0236 0.116373,0.10206 0.192994,0.17429 0.151728,0.14302 0.370148,0.32673 0.556929,0.46841 0.141739,0.10752 0.329458,0.27602 0.515471,0.4627 0.226666,0.22748 0.272128,0.2556 0.341211,0.21109 0.04914,-0.0317 0.118892,-0.17862 0.171848,-0.36204 0.03582,-0.12407 0.05564,-0.16704 0.09224,-0.2 0.02564,-0.0231 0.06708,-0.0749 0.09209,-0.11504 0.02502,-0.0402 0.102056,-0.12137 0.171207,-0.18042 0.133213,-0.11377 0.180232,-0.15897 0.245486,-0.23603 0.04633,-0.0547 0.127714,-0.0644 0.219349,-0.0261 0.115139,0.0481 0.09349,0.14086 -0.08379,0.35901 -0.08456,0.10407 -0.161254,0.21813 -0.198629,0.29541 -0.03348,0.0692 -0.07116,0.13725 -0.08372,0.15113 -0.01255,0.0139 -0.03389,0.0517 -0.04739,0.084 -0.01351,0.0323 -0.05884,0.1035 -0.10075,0.15818 -0.09674,0.12622 -0.126925,0.18601 -0.159483,0.3159 -0.03559,0.14199 -0.02334,0.19921 0.05354,0.25009 0.03292,0.0218 0.0707,0.0562 0.08397,0.0764 0.03082,0.0471 0.09056,0.0482 0.123333,0.002 0.05358,-0.075 0.161107,-0.27996 0.227732,-0.43415 0.03858,-0.0893 0.100867,-0.20322 0.138413,-0.25317 0.03755,-0.0499 0.07298,-0.11226 0.07873,-0.13847 0.0058,-0.0262 0.03738,-0.10029 0.07027,-0.16461 0.03289,-0.0643 0.0598,-0.12478 0.0598,-0.13437 0,-0.01 0.02819,-0.0494 0.06265,-0.0886 0.07247,-0.0823 0.137481,-0.094 0.225317,-0.0405 0.07371,0.0449 0.08393,0.0866 0.09586,0.39106 0.01336,0.34051 0.01168,0.3451 -0.124595,0.3451 -0.08197,0 -0.09674,0.005 -0.126186,0.0409 -0.01834,0.0225 -0.05854,0.0656 -0.08933,0.0959 -0.05617,0.0552 -0.09957,0.14561 -0.180996,0.37711 -0.02374,0.0675 -0.06057,0.15722 -0.08185,0.1994 -0.09408,0.18648 -0.08712,0.287 0.03108,0.44875 0.03172,0.0434 0.07838,0.11413 0.103686,0.15716 0.02531,0.043 0.09028,0.14173 0.144388,0.21932 0.0541,0.0776 0.118689,0.17558 0.143521,0.21776 0.02483,0.0422 0.07837,0.12165 0.118967,0.1766 0.0406,0.055 0.09092,0.14536 0.111829,0.20091 0.02091,0.0555 0.0744,0.15897 0.118883,0.22985 0.04448,0.0709 0.109923,0.18754 0.145428,0.25924 0.0355,0.0717 0.102588,0.19997 0.149074,0.28505 0.15464,0.28299 0.333305,0.83917 0.333305,1.03758 0,0.0409 0.01308,0.11725 0.02909,0.16963 0.05293,0.17328 0.12531,0.56077 0.1324,0.70876 0.002,0.0422 0.01259,0.10775 0.02349,0.14571 0.02984,0.10395 0.02208,1.49542 -0.0092,1.64396 -0.01233,0.0586 -0.02247,0.15618 -0.02254,0.21679 -6.3e-5,0.0606 -0.0072,0.15416 -0.01597,0.20791 -0.0087,0.0537 -0.02583,0.17453 -0.03803,0.26842 -0.03833,0.2951 -0.04733,0.34448 -0.06706,0.36827 -0.03042,0.0366 -0.01493,0.093 0.02716,0.099 0.07384,0.0105 0.24773,-0.21152 0.391764,-0.50008 0.03903,-0.0782 0.09374,-0.16792 0.121585,-0.1994 0.07865,-0.0889 0.130207,-0.16187 0.170149,-0.24076 0.02017,-0.0399 0.06173,-0.10802 0.09237,-0.15152 0.0787,-0.11174 0.183943,-0.2669 0.234073,-0.34509 0.02348,-0.0367 0.07324,-0.11257 0.110546,-0.16872 0.03731,-0.0562 0.0915,-0.16077 0.120428,-0.23247 0.07647,-0.18956 0.130655,-0.29372 0.201913,-0.3881 0.03468,-0.0459 0.07986,-0.12638 0.100391,-0.17877 0.02053,-0.0524 0.06177,-0.13209 0.09165,-0.17709 0.02987,-0.045 0.05431,-0.0872 0.05431,-0.0937 0,-0.007 0.01615,-0.0365 0.03588,-0.0664 0.135868,-0.20644 0.277404,-0.45233 0.327145,-0.56834 0.02352,-0.0548 0.07004,-0.14456 0.103397,-0.1994 0.118268,-0.19441 0.330146,-0.57173 0.374657,-0.6672 0.09935,-0.21309 0.180781,-0.3546 0.253089,-0.43983 0.04551,-0.0537 0.101911,-0.13538 0.125343,-0.18163 0.06377,-0.12588 0.217732,-0.34882 0.260015,-0.37653 0.02255,-0.0148 0.05263,-0.0648 0.07648,-0.12722 0.04104,-0.1074 0.155599,-0.30437 0.215347,-0.37026 0.0457,-0.0504 0.112475,-0.17269 0.14655,-0.26841 0.05268,-0.14798 0.201169,-0.46053 0.236826,-0.49849 0.01981,-0.0211 0.06978,-0.0936 0.111051,-0.16105 0.04126,-0.0675 0.09615,-0.15181 0.121966,-0.18737 0.02581,-0.0356 0.07282,-0.1253 0.104463,-0.1994 0.03165,-0.0741 0.06288,-0.14163 0.06942,-0.15007 0.0065,-0.008 0.05759,-0.10384 0.113443,-0.21203 0.12077,-0.23391 0.306088,-0.55181 0.359223,-0.61622 0.02088,-0.0254 0.05748,-0.0895 0.08133,-0.14257 0.02386,-0.0531 0.07042,-0.12903 0.103479,-0.16872 0.03306,-0.0397 0.08431,-0.12048 0.11388,-0.17953 0.05701,-0.11382 0.179996,-0.30865 0.289633,-0.45879 0.03641,-0.0499 0.07923,-0.11544 0.09515,-0.14571 0.01591,-0.0302 0.05524,-0.0866 0.08739,-0.12523 0.03215,-0.0386 0.08776,-0.12489 0.123572,-0.19173 0.03582,-0.0669 0.09742,-0.16176 0.136899,-0.21094 0.03948,-0.0492 0.08102,-0.10784 0.0923,-0.13037 0.01129,-0.0225 0.05792,-0.0962 0.103629,-0.16368 0.121792,-0.17983 0.199803,-0.30876 0.257906,-0.42625 0.02833,-0.0573 0.08311,-0.14701 0.121734,-0.19939 0.09153,-0.12414 0.28179,-0.42494 0.344762,-0.54507 0.02726,-0.052 0.07334,-0.12233 0.102396,-0.15628 0.04651,-0.0543 0.153093,-0.24026 0.36036,-0.62862 0.03377,-0.0633 0.08022,-0.13574 0.103223,-0.16105 0.02301,-0.0253 0.07619,-0.11575 0.1182,-0.20098 0.04201,-0.0852 0.102301,-0.19566 0.133993,-0.2454 0.03169,-0.0498 0.116126,-0.18313 0.187631,-0.29641 0.0715,-0.11327 0.147347,-0.22656 0.168538,-0.25174 0.02119,-0.0252 0.06352,-0.0982 0.09407,-0.16216 0.03055,-0.064 0.08133,-0.15088 0.112844,-0.19306 0.03152,-0.0422 0.07064,-0.10775 0.08694,-0.14571 0.0163,-0.038 0.05334,-0.10008 0.08232,-0.13805 0.02898,-0.038 0.08741,-0.13459 0.129857,-0.21472 0.06863,-0.12958 0.18787,-0.31914 0.327088,-0.51997 0.113553,-0.16382 0.02201,-0.22857 -0.206292,-0.14594 -0.05905,0.0214 -0.14923,0.0515 -0.200398,0.0669 -0.05117,0.0154 -0.121491,0.0425 -0.156275,0.0603 -0.03478,0.0178 -0.141317,0.057 -0.236739,0.0871 -0.09542,0.0302 -0.208004,0.0678 -0.250184,0.0836 -0.04218,0.0158 -0.105892,0.0363 -0.141582,0.0455 -0.03569,0.009 -0.108163,0.0372 -0.16105,0.0622 -0.05289,0.025 -0.109987,0.0455 -0.126888,0.0455 -0.0169,1e-5 -0.07934,0.0236 -0.138747,0.0524 -0.05941,0.0288 -0.135309,0.0574 -0.168666,0.0635 -0.08243,0.0151 -0.280427,0.0949 -0.556344,0.22409 -0.08704,0.0407 -0.163012,0.0741 -0.168825,0.0741 -0.01642,0 -0.265257,0.0994 -0.320192,0.12791 -0.027,0.014 -0.06248,0.0255 -0.07885,0.0255 -0.01637,0 -0.0633,0.0241 -0.104294,0.0534 -0.083,0.0595 -0.141998,0.0889 -0.265595,0.13239 -0.04603,0.0162 -0.125408,0.0564 -0.176388,0.0894 -0.08874,0.0574 -0.257228,0.13891 -0.287124,0.13891 -0.0078,0 -0.06736,0.0265 -0.1323,0.0588 -0.06494,0.0324 -0.197447,0.0848 -0.29446,0.11661 -0.325259,0.10657 -0.390316,0.13508 -0.559841,0.24532 -0.0928,0.0603 -0.192877,0.11926 -0.222403,0.13091 -0.115775,0.0457 -0.187016,0.1243 -0.172249,0.18999 0.0056,0.0252 0.01627,0.0272 0.09087,0.0179 0.155952,-0.0195 0.188771,-0.0204 0.198183,-0.005 0.01647,0.0266 -0.01975,0.0464 -0.134237,0.0733 -0.139582,0.0328 -0.17782,0.0725 -0.153734,0.15977 0.02752,0.0997 -0.02331,0.13848 -0.190456,0.14534 -0.175235,0.007 -0.231385,-0.0111 -0.317727,-0.10338 -0.08822,-0.0943 -0.114359,-0.17753 -0.08433,-0.26846 0.02863,-0.0867 0.164633,-0.29301 0.211761,-0.32126 0.02123,-0.0127 0.06065,-0.0442 0.08759,-0.07 0.02695,-0.0257 0.06824,-0.0507 0.09177,-0.0554 0.02353,-0.004 0.06349,-0.0161 0.0888,-0.0254 0.02531,-0.009 0.08188,-0.0297 0.125724,-0.0455 0.04384,-0.0158 0.105728,-0.0463 0.13753,-0.0679 0.09807,-0.0665 0.234682,-0.12412 0.43463,-0.18315 0.111608,-0.033 0.265435,-0.0936 0.368115,-0.14511 0.09701,-0.0487 0.213888,-0.10081 0.25972,-0.11584 0.04583,-0.015 0.128659,-0.0516 0.184058,-0.0813 0.475229,-0.25481 0.751079,-0.38596 0.957431,-0.45523 0.06282,-0.0211 0.147689,-0.0548 0.188597,-0.0748 0.04091,-0.0201 0.157204,-0.0622 0.258436,-0.0936 0.101231,-0.0314 0.232372,-0.0747 0.291424,-0.0962 0.05905,-0.0216 0.142163,-0.0512 0.184692,-0.0658 0.04253,-0.0146 0.108721,-0.0409 0.147094,-0.0584 0.103981,-0.0474 0.318494,-0.12432 0.395213,-0.14177 0.03711,-0.008 0.08542,-0.0275 0.107367,-0.0425 0.05739,-0.039 0.273098,-0.1194 0.419947,-0.15642 0.06936,-0.0175 0.159332,-0.0489 0.199927,-0.0699 0.129084,-0.0666 0.497586,-0.18811 0.648682,-0.21385 0.23244,-0.0396 0.36287,-0.10937 0.422335,-0.22593 0.01789,-0.0351 0.05855,-0.0985 0.09036,-0.14099 0.03181,-0.0425 0.07804,-0.12209 0.102747,-0.17692 0.02471,-0.0548 0.07394,-0.13317 0.109411,-0.17408 0.03547,-0.0409 0.08228,-0.10994 0.104012,-0.15338 0.02174,-0.0434 0.06507,-0.11351 0.0963,-0.15569 0.03123,-0.0422 0.08328,-0.12155 0.115668,-0.17639 0.03239,-0.0548 0.07961,-0.13421 0.104945,-0.17639 0.02533,-0.0422 0.07366,-0.125 0.107396,-0.18405 0.03374,-0.0591 0.0942,-0.15568 0.134366,-0.21474 0.04017,-0.059 0.111544,-0.17926 0.158622,-0.26712 0.04708,-0.0879 0.09536,-0.17069 0.107285,-0.18407 0.01193,-0.0133 0.0877,-0.12437 0.168376,-0.24669 0.08068,-0.12232 0.167154,-0.25088 0.192168,-0.28568 0.02502,-0.0348 0.07781,-0.12454 0.117321,-0.1994 0.03951,-0.0749 0.08061,-0.14647 0.09133,-0.15912 0.01072,-0.0126 0.0517,-0.0955 0.09107,-0.18406 0.03937,-0.0886 0.09009,-0.20246 0.112717,-0.25308 0.02262,-0.0506 0.0697,-0.14034 0.104615,-0.1994 0.03492,-0.059 0.08972,-0.15559 0.121789,-0.21452 0.149198,-0.2742 0.322627,-0.37139 0.538066,-0.30152 0.125962,0.0409 0.153348,0.0597 0.198461,0.13634 0.02107,0.0358 0.05854,0.0756 0.08327,0.0884 0.086,0.0445 0.125106,0.23779 0.04807,0.23762 -0.02295,-6e-5 -0.05018,-0.0154 -0.169493,-0.0957 -0.05053,-0.034 -0.188994,-0.0366 -0.221474,-0.004 -0.01257,0.0126 -0.02758,0.0444 -0.03336,0.0707 -0.02075,0.0945 -0.08354,0.21152 -0.142978,0.26651 -0.03505,0.0324 -0.08426,0.1053 -0.116888,0.1731 -0.03099,0.0644 -0.07758,0.14124 -0.103521,0.1708 -0.02594,0.0295 -0.06073,0.0844 -0.0773,0.12183 -0.01657,0.0375 -0.0556,0.0965 -0.08671,0.13116 -0.0709,0.079 -0.09588,0.11891 -0.140386,0.22445 -0.03431,0.0814 -0.121692,0.21317 -0.226261,0.34133 -0.02793,0.0342 -0.06153,0.0835 -0.07467,0.10951 -0.01314,0.026 -0.04074,0.0698 -0.06134,0.0973 -0.0206,0.0275 -0.06213,0.1 -0.09229,0.16105 -0.04629,0.0937 -0.255764,0.42588 -0.432736,0.68618 -0.02581,0.038 -0.06681,0.11044 -0.09111,0.16105 -0.0243,0.0506 -0.08204,0.14286 -0.128295,0.20497 -0.04626,0.0621 -0.103173,0.15059 -0.126474,0.1966 -0.0233,0.046 -0.07611,0.12224 -0.11736,0.16938 -0.04125,0.0471 -0.075,0.0934 -0.075,0.10271 0,0.009 -0.0138,0.0428 -0.03068,0.0743 -0.06524,0.12172 -0.03298,0.16646 0.09783,0.13568 0.04321,-0.0102 0.109618,-0.0258 0.14758,-0.0347 0.165261,-0.0388 0.379702,-0.1133 0.425701,-0.14789 0.06186,-0.0465 0.143623,-0.15549 0.233838,-0.31164 0.03796,-0.0657 0.115836,-0.1802 0.173053,-0.25442 0.181207,-0.23505 0.214864,-0.28473 0.29918,-0.4417 0.04531,-0.0844 0.135118,-0.23276 0.199563,-0.32977 0.13357,-0.20107 0.263769,-0.40903 0.311505,-0.49753 0.01791,-0.0332 0.06456,-0.10342 0.103651,-0.156 0.116361,-0.1565 0.240598,-0.35657 0.322799,-0.51984 0.04247,-0.0844 0.115618,-0.19821 0.162543,-0.25301 0.08602,-0.10046 0.126892,-0.19384 0.152747,-0.34901 0.0063,-0.0376 0.01928,-0.0652 0.03074,-0.0652 0.02295,0 0.100877,-0.0875 0.17319,-0.19441 0.120391,-0.17803 0.142538,-0.21624 0.166319,-0.28694 0.03343,-0.0994 0.145044,-0.21465 0.233091,-0.2407 0.1218,-0.036 0.178976,0.0126 0.197372,0.16793 0.0083,0.0699 0.0059,0.0774 -0.03346,0.10315 -0.04808,0.0315 -0.08421,0.10601 -0.08421,0.17367 0,0.0567 -0.02466,0.11536 -0.07785,0.18527 -0.02247,0.0295 -0.05971,0.0916 -0.08276,0.13804 -0.06478,0.1304 -0.281878,0.46639 -0.364443,0.56405 -0.0408,0.0483 -0.08073,0.1119 -0.08874,0.14146 -0.07422,0.27382 -0.07743,0.28105 -0.160713,0.36107 -0.04445,0.0427 -0.09912,0.11378 -0.121506,0.15795 -0.02238,0.0442 -0.06348,0.10595 -0.09133,0.13728 -0.06835,0.0769 -0.153846,0.20724 -0.268754,0.40975 -0.05266,0.0928 -0.141861,0.23217 -0.198233,0.30974 -0.05637,0.0776 -0.12519,0.18128 -0.15293,0.23047 -0.02774,0.0492 -0.07764,0.12379 -0.110893,0.16574 -0.159885,0.20175 -0.260469,0.35033 -0.260469,0.38476 0,0.0638 0.05475,0.0753 0.177808,0.0373 0.09851,-0.0305 0.354867,-0.0754 0.614929,-0.1079 0.0606,-0.008 0.150333,-0.0207 0.199396,-0.0292 0.04906,-0.008 0.258307,-0.0141 0.464987,-0.0124 l 0.375784,0.003 0.0726,0.0427 c 0.03993,0.0235 0.09169,0.0669 0.115036,0.0964 0.02334,0.0295 0.07493,0.0747 0.114632,0.10039 0.07448,0.0481 0.124536,0.14123 0.146197,0.27197 0.01193,0.072 -0.02557,0.30619 -0.05932,0.3705 -0.0155,0.0295 -0.04148,0.0856 -0.05774,0.12461 -0.01626,0.039 -0.05434,0.10338 -0.08463,0.14305 -0.03028,0.0397 -0.05968,0.0906 -0.06532,0.11313 -0.01688,0.0675 -0.157505,0.32897 -0.203494,0.37844 -0.02353,0.0254 -0.07549,0.0874 -0.115477,0.13805 -0.03999,0.0506 -0.09442,0.11943 -0.120973,0.15292 -0.02655,0.0335 -0.08397,0.0991 -0.1276,0.14584 -0.04385,0.047 -0.09264,0.11919 -0.109092,0.16151 -0.02281,0.0587 -0.04242,0.0827 -0.08394,0.10276 -0.03464,0.0168 -0.07616,0.0598 -0.11517,0.11955 -0.06941,0.10624 -0.32579,0.40019 -0.488234,0.5598 -0.0601,0.059 -0.136118,0.1419 -0.168928,0.1841 -0.08385,0.10786 -0.307229,0.31651 -0.389425,0.36375 -0.03796,0.0218 -0.08349,0.0593 -0.101176,0.0833 -0.198654,0.26986 -0.430654,0.515 -0.573701,0.60618 -0.147369,0.094 -0.526744,0.46729 -0.607633,0.59797 -0.05265,0.0851 -0.162327,0.185 -0.237515,0.21641 -0.02975,0.0124 -0.07607,0.0504 -0.102927,0.0843 -0.02686,0.034 -0.06522,0.0658 -0.08525,0.0708 -0.107742,0.027 -0.189772,0.20577 -0.110929,0.24169 0.04462,0.0204 0.174709,-0.0175 0.215599,-0.0627 0.01426,-0.0158 0.04785,-0.0374 0.07466,-0.0481 0.0268,-0.0107 0.06706,-0.032 0.08945,-0.0474 0.02239,-0.0154 0.0569,-0.0282 0.07669,-0.0284 0.01979,-1.6e-4 0.06606,-0.014 0.102839,-0.0307 0.03677,-0.0167 0.08304,-0.0303 0.102811,-0.0303 0.04728,0 0.109262,-0.0279 0.175434,-0.079 0.02952,-0.0228 0.122706,-0.0699 0.207065,-0.10475 0.08436,-0.0348 0.167185,-0.0721 0.184057,-0.0827 0.01687,-0.0106 0.07209,-0.0355 0.122705,-0.0552 0.05062,-0.0197 0.124296,-0.0623 0.163733,-0.0948 0.100141,-0.0824 0.129087,-0.0906 0.236309,-0.0673 0.119923,0.026 0.220129,0.0719 0.2664,0.12186 0.06697,0.0724 0.03952,0.18941 -0.0511,0.21794 -0.01787,0.006 -0.05646,0.0265 -0.08575,0.0463 -0.02929,0.0198 -0.08543,0.0468 -0.124735,0.0598 -0.09511,0.0316 -0.110936,0.0533 -0.150409,0.20653 -0.01847,0.0717 -0.05109,0.16834 -0.07248,0.21473 -0.02139,0.0464 -0.06691,0.16374 -0.101153,0.26075 -0.03424,0.097 -0.0709,0.19019 -0.08144,0.20706 -0.01055,0.0169 -0.0243,0.0479 -0.03055,0.069 -0.0063,0.0211 -0.02423,0.0548 -0.03994,0.0749 -0.03755,0.0481 -0.03647,0.10382 0.0024,0.12464 0.03712,0.0198 0.03336,0.022 0.206747,-0.11572 0.07592,-0.0603 0.169482,-0.13084 0.207907,-0.15677 0.03842,-0.0259 0.103017,-0.0859 0.143539,-0.13337 0.04052,-0.0474 0.114803,-0.11418 0.165069,-0.14831 0.05026,-0.0341 0.169443,-0.13793 0.264838,-0.23067 0.0954,-0.0927 0.207942,-0.19183 0.250104,-0.22023 0.04216,-0.0284 0.117221,-0.0952 0.1668,-0.14839 0.04958,-0.0532 0.116685,-0.12092 0.149123,-0.15045 0.03244,-0.0295 0.122596,-0.11408 0.200349,-0.18789 0.07775,-0.0738 0.147846,-0.13421 0.155762,-0.13421 0.02524,0 0.138346,-0.11272 0.180784,-0.18017 0.05053,-0.0803 0.32776,-0.37398 0.427426,-0.45276 0.04036,-0.0319 0.07338,-0.0644 0.07338,-0.0721 0,-0.008 0.07356,-0.0887 0.163456,-0.17987 0.107536,-0.10903 0.199211,-0.22082 0.267972,-0.32677 0.05748,-0.0886 0.144404,-0.21541 0.193155,-0.28185 0.169387,-0.23083 0.316237,-0.47574 0.376242,-0.62746 0.05962,-0.15074 0.06621,-0.28462 0.01778,-0.36086 -0.08671,-0.13649 -0.455601,-0.38598 -0.571521,-0.38655 -0.04393,-1.6e-4 -0.365842,-0.0822 -0.38056,-0.0969 -0.0049,-0.005 -0.0045,-0.0205 8.9e-4,-0.0346 0.0082,-0.0214 0.02176,-0.0237 0.08242,-0.0138 0.03992,0.007 0.134704,0.0128 0.210627,0.0139 0.107688,10e-4 0.154896,0.01 0.214685,0.037 0.04215,0.0192 0.107208,0.0391 0.144566,0.0442 0.164855,0.0226 0.450169,0.23049 0.523162,0.3812 0.0417,0.0861 0.04246,0.32732 0.0013,0.44989 -0.01581,0.0473 -0.03729,0.11354 -0.0477,0.14729 -0.05297,0.1717 -0.220863,0.43745 -0.38478,0.60905 -0.04264,0.0446 -0.0883,0.10186 -0.101475,0.12717 -0.01317,0.0253 -0.04599,0.0736 -0.07294,0.10737 -0.02695,0.0337 -0.07189,0.0959 -0.09987,0.13804 -0.02799,0.0422 -0.08729,0.11218 -0.131779,0.15556 -0.126347,0.12318 -0.313726,0.38419 -0.313726,0.43699 0,0.0257 0.02421,0.0809 0.05752,0.13108 0.08579,0.12921 0.08124,0.1809 -0.037,0.41981 -0.05198,0.10504 -0.10238,0.22549 -0.111993,0.26767 -0.02204,0.0967 -0.150517,0.36025 -0.255597,0.52431 -0.04422,0.069 -0.102492,0.17602 -0.129498,0.23774 -0.02701,0.0617 -0.06887,0.14107 -0.09303,0.17634 -0.02416,0.0353 -0.04393,0.0727 -0.04393,0.0831 0,0.028 -0.150509,0.35019 -0.192951,0.41302 -0.04338,0.0642 -0.107041,0.24111 -0.12043,0.33463 -0.0053,0.037 -0.04097,0.12111 -0.08019,0.1891 -0.06607,0.11455 -0.14326,0.32242 -0.143264,0.38584 -2e-6,0.0154 -0.02194,0.0499 -0.04875,0.0767 -0.04427,0.0442 -0.04913,0.0585 -0.05295,0.15604 -0.0023,0.059 -0.0049,0.12047 -0.0057,0.13649 -0.004,0.077 0.0657,0.0676 0.105831,-0.0143 0.01674,-0.0341 0.01765,-0.0537 0.0042,-0.0894 -0.02079,-0.0551 -0.0055,-0.0789 0.05871,-0.0918 0.04633,-0.009 0.134988,-0.1566 0.182586,-0.30344 0.01007,-0.0311 0.0704,-0.11322 0.136336,-0.18565 0.06505,-0.0715 0.138255,-0.17063 0.162675,-0.22037 0.02442,-0.0498 0.06101,-0.11287 0.08131,-0.14029 0.0203,-0.0274 0.04764,-0.0757 0.06074,-0.10737 0.01311,-0.0316 0.05325,-0.10237 0.0892,-0.15721 0.210487,-0.32103 0.397436,-0.65876 0.520128,-0.93961 0.02123,-0.0486 0.06891,-0.12798 0.105957,-0.1764 0.03705,-0.0484 0.08619,-0.12599 0.109194,-0.17239 0.05118,-0.1032 0.135629,-0.23083 0.211436,-0.31953 0.03123,-0.0366 0.06863,-0.0987 0.08311,-0.13804 0.01447,-0.0394 0.04146,-0.0923 0.05998,-0.11761 0.03844,-0.0525 0.120274,-0.21163 0.137703,-0.26772 0.0064,-0.0207 0.0527,-0.0979 0.102801,-0.17157 0.0501,-0.0737 0.129138,-0.20857 0.17563,-0.29979 0.16473,-0.32324 0.24584,-0.37458 0.366051,-0.23172 0.05164,0.0614 0.04953,0.0767 -0.04044,0.29208 -0.04316,0.10335 -0.09071,0.22932 -0.105658,0.27994 -0.01494,0.0506 -0.07174,0.1783 -0.126196,0.28374 -0.05446,0.10545 -0.107941,0.21934 -0.118852,0.25308 -0.01091,0.0337 -0.0396,0.10085 -0.06375,0.14912 -0.02415,0.0483 -0.04391,0.0988 -0.04391,0.11221 0,0.024 -0.265476,0.56605 -0.324244,0.66199 -0.01652,0.027 -0.04334,0.0971 -0.05961,0.15574 -0.01626,0.0587 -0.04275,0.12979 -0.05888,0.15802 -0.01612,0.0282 -0.04495,0.0994 -0.06407,0.15818 -0.01911,0.0588 -0.05309,0.13814 -0.07549,0.17639 -0.02241,0.0383 -0.06681,0.1351 -0.09866,0.21525 -0.03186,0.0801 -0.07046,0.16641 -0.08578,0.19172 -0.03807,0.0629 -0.148764,0.35498 -0.194733,0.51383 -0.04745,0.16397 -0.166706,0.46138 -0.221413,0.55217 -0.04633,0.0769 -0.12099,0.30977 -0.16077,0.50148 -0.0284,0.13688 -0.01126,0.2044 0.05176,0.20384 0.04733,-3.4e-4 0.06239,-0.0216 0.100282,-0.1409 0.03093,-0.0974 0.06428,-0.15367 0.195203,-0.32944 0.240623,-0.32302 0.26889,-0.36229 0.290597,-0.4037 0.01106,-0.0211 0.06953,-0.11426 0.129937,-0.20706 0.194374,-0.29858 0.326491,-0.53211 0.438452,-0.775 0.06016,-0.13053 0.128869,-0.27873 0.15268,-0.32935 0.02381,-0.0506 0.0555,-0.12308 0.07043,-0.16105 0.01493,-0.038 0.03588,-0.0828 0.04657,-0.0997 0.01069,-0.0169 0.04128,-0.0927 0.06798,-0.16846 0.02671,-0.0758 0.09874,-0.23799 0.160076,-0.36045 0.07366,-0.14708 0.125356,-0.27474 0.152274,-0.37604 0.08048,-0.30288 0.191137,-0.37894 0.332458,-0.22851 0.03139,0.0334 0.0366,0.0567 0.04184,0.18714 l 0.006,0.14898 -0.06351,0.0842 c -0.03493,0.0463 -0.06728,0.1015 -0.07188,0.12259 -0.01147,0.0526 -0.105447,0.33403 -0.133335,0.39928 -0.204337,0.47815 -0.306997,0.73568 -0.348302,0.87378 -0.04295,0.1436 -0.07907,0.2402 -0.169585,0.45351 -0.04375,0.10311 -0.116452,0.39923 -0.132583,0.54 -0.02196,0.19163 0.15441,0.12253 0.311723,-0.12213 0.03628,-0.0564 0.09906,-0.13973 0.139521,-0.18512 0.04045,-0.0454 0.11005,-0.1338 0.154653,-0.19649 0.231585,-0.32551 0.264012,-0.37293 0.264012,-0.3861 0,-0.008 0.04009,-0.0568 0.08909,-0.10883 0.124434,-0.13204 0.231924,-0.28441 0.320967,-0.45498 0.04184,-0.0801 0.114771,-0.21474 0.162082,-0.2991 0.04731,-0.0844 0.119112,-0.21427 0.159561,-0.2887 0.04045,-0.0744 0.09529,-0.16816 0.121867,-0.2083 0.026571,-0.0401 0.069854,-0.11565 0.096175,-0.16779 0.026325,-0.0521 0.081424,-0.13187 0.1224492,-0.17717 0.041026,-0.0453 0.083145,-0.10907 0.093602,-0.1417 0.010446,-0.0326 0.056581,-0.12281 0.1025011,-0.2004 0.045921,-0.0776 0.090074,-0.16388 0.098122,-0.19173 0.026249,-0.0909 0.1276182,-0.18102 0.2035019,-0.18102 0.1422743,0 0.1538118,0.11389 0.035573,0.35114 -0.039493,0.0792 -0.081686,0.17737 -0.093768,0.21805 -0.02638,0.0888 -0.1301514,0.35251 -0.1472245,0.3741 -0.00667,0.008 -0.029179,0.0602 -0.050019,0.11504 -0.020836,0.0548 -0.077152,0.17217 -0.1251389,0.26074 -0.047986,0.0886 -0.1034285,0.2035 -0.1232036,0.25538 -0.019775,0.0519 -0.060683,0.14092 -0.090905,0.19787 -0.030223,0.057 -0.054947,0.11629 -0.054947,0.13185 0,0.0156 -0.013101,0.068 -0.029117,0.11656 -0.016006,0.0486 -0.065408,0.20214 -0.1097682,0.34134 -0.07342,0.23037 -0.146441,0.41539 -0.207002,0.52445 -0.04305,0.0775 -0.10315,0.35264 -0.104904,0.48019 -0.0015,0.11422 4.8e-4,0.12303 0.03106,0.12738 0.04435,0.006 0.08996,-0.0548 0.121277,-0.16251 0.03513,-0.12086 0.07485,-0.19449 0.167217,-0.30998 0.04385,-0.0548 0.1467089,-0.19873 0.2285674,-0.31978 0.081859,-0.12104 0.1676461,-0.24459 0.1906378,-0.27455 0.022991,-0.0299 0.05906,-0.084 0.080149,-0.11999 0.03709,-0.0634 0.1514994,-0.24056 0.2888503,-0.44734 0.036548,-0.055 0.087451,-0.15504 0.1131208,-0.22227 0.029107,-0.0762 0.073656,-0.15485 0.118348,-0.20891 0.06811,-0.0824 0.2159109,-0.30789 0.2159109,-0.32944 0,-0.0165 0.3240394,-0.62613 0.3682819,-0.69286 0.022375,-0.0337 0.070268,-0.11546 0.1064381,-0.18158 0.1359189,-0.24849 0.3013933,-0.41817 0.3918844,-0.40182 0.1270197,0.0229 0.1334893,0.14384 0.018106,0.33843 -0.044876,0.0757 -0.1008901,0.18936 -0.124477,0.25263 -0.059938,0.16078 -0.1734191,0.40681 -0.2255676,0.48904 -0.024115,0.038 -0.043847,0.0741 -0.043847,0.0801 0,0.006 -0.026691,0.0582 -0.059312,0.11587 -0.032622,0.0577 -0.074793,0.14629 -0.093713,0.1969 -0.057191,0.153 -0.086816,0.21341 -0.1626679,0.33168 -0.040414,0.063 -0.09503,0.17917 -0.1232799,0.26219 -0.027897,0.082 -0.064828,0.1767 -0.082069,0.2105 -0.017239,0.0338 -0.047862,0.10476 -0.068046,0.15771 -0.020186,0.0529 -0.059133,0.15492 -0.086555,0.22663 -0.027421,0.0717 -0.07584,0.17933 -0.1075934,0.23917 -0.099097,0.18671 -0.1206279,0.31143 -0.059426,0.34418 0.048075,0.0257 0.115819,-0.0205 0.1610978,-0.1098 0.054057,-0.10668 0.1830008,-0.2769 0.3014841,-0.398 0.054262,-0.0555 0.121132,-0.14011 0.1486011,-0.18812 0.027466,-0.048 0.083073,-0.12612 0.1235653,-0.17357 0.097279,-0.114 0.1883072,-0.29093 0.2276078,-0.44242 0.01751,-0.0675 0.042896,-0.16412 0.056422,-0.21474 0.013529,-0.0506 0.034252,-0.13038 0.046071,-0.17725 0.030707,-0.12183 0.2258256,-0.50069 0.2998304,-0.58218 0.034367,-0.0379 0.07581,-0.0985 0.092094,-0.13471 0.01628,-0.0362 0.045991,-0.088 0.066022,-0.11504 0.020028,-0.027 0.055473,-0.0849 0.078764,-0.12856 0.065334,-0.12251 0.1158632,-0.16343 0.2017985,-0.16343 0.160861,0 0.1765285,0.17639 0.038672,0.43539 -0.042419,0.0797 -0.097234,0.20012 -0.1218126,0.2676 -0.024578,0.0675 -0.065917,0.15603 -0.09186,0.19676 -0.025944,0.0408 -0.051801,0.10285 -0.05746,0.13804 -0.00566,0.0352 -0.040264,0.11575 -0.076903,0.17902 -0.1237449,0.2137 -0.2289261,0.57919 -0.2538035,0.88195 -0.00831,0.10123 -0.020925,0.21326 -0.02801,0.24894 -0.033992,0.17111 0.068597,0.36492 0.1913161,0.36144 0.2105463,-0.006 0.7036546,-0.43255 1.0247117,-0.88647 0.071601,-0.10123 0.1501897,-0.21167 0.1746405,-0.24541 0.024454,-0.0337 0.066945,-0.10966 0.09443,-0.16871 0.027483,-0.0591 0.065639,-0.12808 0.084788,-0.15339 0.019148,-0.0254 0.071209,-0.12194 0.1156854,-0.21473 0.044479,-0.0928 0.1060736,-0.19633 0.1368799,-0.23007 0.064129,-0.0702 0.1627114,-0.2399 0.1785203,-0.30722 0.00588,-0.0251 0.058165,-0.12565 0.1161787,-0.22354 0.058012,-0.0979 0.1054768,-0.18852 0.1054768,-0.2014 0,-0.0372 0.073234,-0.22461 0.1319391,-0.33765 0.029566,-0.0569 0.080022,-0.18116 0.1121241,-0.27608 0.032101,-0.0949 0.093246,-0.26116 0.1358775,-0.36941 0.090538,-0.22991 0.084418,-0.20799 0.134098,-0.48032 0.021316,-0.11686 0.053458,-0.24698 0.071423,-0.28916 0.049618,-0.11649 0.050808,-0.4992 0.00192,-0.62119 -0.018592,-0.0464 -0.037996,-0.11085 -0.043125,-0.14323 -0.013851,-0.0874 -0.1101898,-0.17505 -0.2844517,-0.25875 -0.6238308,-0.2996 -0.6418957,-0.31033 -0.7403473,-0.43979 -0.074802,-0.0984 -0.084433,-0.1261 -0.052465,-0.15111 0.065208,-0.051 0.3371028,-0.0142 0.5443622,0.0738 0.077955,0.0331 0.1514521,0.0602 0.1633264,0.0602 0.011864,0 0.060969,0.0207 0.1090952,0.046 0.1135929,0.0597 0.3304661,0.11563 0.5137961,0.13238 0.274012,0.025 1.1316881,0.0163 1.2212083,-0.0123 0.043185,-0.0138 0.1570692,-0.0297 0.2530791,-0.0354 0.096008,-0.006 0.2366793,-0.0196 0.3126047,-0.0311 0.075923,-0.0115 0.217417,-0.0286 0.31443,-0.0381 0.097014,-0.009 0.2247043,-0.0235 0.2837546,-0.0312 0.059052,-0.008 0.1763895,-0.0179 0.2607485,-0.0225 0.084359,-0.004 0.2189507,-0.0149 0.2990932,-0.0228 0.08014,-0.008 0.2561467,-0.0219 0.3911218,-0.0312 0.1349747,-0.009 0.3385886,-0.0337 0.4524733,-0.0543 0.1138854,-0.0206 0.30024431,-0.0446 0.41412937,-0.0535 0.11388506,-0.009 0.28298787,-0.023 0.37578257,-0.0317 0.0927968,-0.009 0.28605785,-0.0213 0.42946859,-0.0284 0.14341074,-0.007 0.35392618,-0.0204 0.4678109,-0.0298 0.11388677,-0.009 0.2243209,-0.0135 0.24541126,-0.009 0.02109,0.004 0.0625026,3.4e-4 0.0920287,-0.009 0.0295281,-0.009 0.21588311,-0.0267 0.41412891,-0.0383 0.1982441,-0.0117 0.4536245,-0.0288 0.5675099,-0.038 0.1138847,-0.009 0.276086,-0.0188 0.3604447,-0.0211 0.4718477,-0.0135 0.7335585,-0.0256 0.8359283,-0.0388 0.2251637,-0.0288 0.6209472,-0.0505 0.7718001,-0.0422 0.1009535,0.006 0.1877151,10e-4 0.2543786,-0.0124 0.055645,-0.0114 0.2633717,-0.0319 0.4616175,-0.0454 0.3794747,-0.0259 0.541443,-0.0414 0.7055525,-0.0679 0.054833,-0.009 0.1760938,-0.0162 0.2694681,-0.0163 0.099637,-1.7e-4 0.2010161,-0.009 0.2454096,-0.022 0.050442,-0.0144 0.1982711,-0.0248 0.443754,-0.0311 0.5336658,-0.0136 0.969188,-0.035 1.0659996,-0.0525 0.046398,-0.008 0.1430277,-0.0156 0.2147324,-0.0162 0.1499454,-0.001 0.4760794,-0.0263 0.6442,-0.0496 0.1871482,-0.026 0.4029714,-0.0413 0.7208942,-0.0513 0.3800622,-0.0119 0.7163719,-0.0339 0.7395792,-0.0482 0.022371,-0.0138 0.2635875,-0.037 0.4551138,-0.0437 0.07922,-0.003 0.175171,-0.01 0.21323,-0.0154 0.03806,-0.006 0.187213,-0.0163 0.331448,-0.0235 0.144238,-0.007 0.339338,-0.0218 0.433555,-0.0323 0.111877,-0.0125 0.182687,-0.014 0.20412,-0.004 0.0544,0.0243 -0.130028,0.10923 -0.282763,0.13026 -0.06714,0.009 -0.141984,0.0271 -0.166322,0.0397 -0.06733,0.0348 -0.474474,0.1048 -0.8696334,0.14948 -0.1138847,0.0129 -0.2726354,0.0309 -0.3527782,0.04 -0.2462763,0.0281 -0.624766,0.0613 -0.8742695,0.0767 -0.1307575,0.008 -0.2688018,0.0198 -0.3067611,0.0258 -0.072003,0.0116 -0.1242516,0.0142 -0.5291655,0.0265 -0.1349758,0.004 -0.2937258,0.015 -0.3527778,0.0242 -0.1281609,0.0198 -0.4100522,0.0407 -0.8282584,0.0614 -0.168718,0.008 -0.3766733,0.0212 -0.4621218,0.0287 -0.085446,0.008 -0.2013665,0.009 -0.2575986,0.003 -0.061697,-0.006 -0.1673515,-0.002 -0.2664379,0.0103 -0.2292371,0.0292 -0.3823576,0.0464 -0.578329,0.065 -0.092795,0.009 -0.2239361,0.023 -0.2914238,0.0317 -0.1337661,0.0171 -0.406309,0.0383 -0.7692766,0.0596 -0.2236723,0.0132 -0.683879,0.0459 -1.1019722,0.0784 -0.1096677,0.008 -0.3581452,0.0187 -0.552172,0.0226 -0.2235493,0.004 -0.4033438,0.0161 -0.4908201,0.0315 -0.1528608,0.027 -0.5588412,0.0521 -0.98163915,0.0606 -0.260485,0.005 -0.43764011,0.0204 -0.61352352,0.0527 -0.04218,0.008 -0.11469872,0.0145 -0.16115088,0.015 -0.04645388,3.4e-4 -0.10857385,0.008 -0.138043,0.0164 -0.02947326,0.009 -0.14676301,0.0159 -0.26064807,0.0164 -0.11388472,3.5e-4 -0.27263506,0.0103 -0.35277541,0.0218 -0.0801417,0.0115 -0.1940285,0.0251 -0.25307883,0.0303 -0.0590521,0.005 -0.13152414,0.0156 -0.16105024,0.0233 -0.052497,0.0136 -0.2835815,0.0436 -0.5905187,0.0766 -0.084359,0.009 -0.1934317,0.0235 -0.2423824,0.0321 -0.048951,0.009 -0.1858563,0.0221 -0.3042338,0.03 -0.1183771,0.008 -0.2208984,0.018 -0.2278246,0.0222 -0.00692,0.004 -0.097791,0.0142 -0.2019222,0.0221 -0.1041324,0.008 -0.2825106,0.0285 -0.3963957,0.0459 -0.1138867,0.0173 -0.2760859,0.0318 -0.3604467,0.032 -0.084359,1.7e-4 -0.1947928,0.0106 -0.2454095,0.0233 -0.1652274,0.0412 -0.6553723,0.0855 -0.747254,0.0675 -0.1541055,-0.0302 -0.5724617,-0.0335 -0.596326,-0.005 -0.034717,0.0418 -0.02516,0.13296 0.021313,0.20319 0.023169,0.035 0.050072,0.0981 0.059779,0.14012 0.018281,0.0792 0.015869,0.0963 -0.041081,0.29141 -0.013543,0.0464 -0.031234,0.1948 -0.039324,0.32977 -0.017606,0.29379 -0.058207,0.48029 -0.1784858,0.81989 -0.046449,0.13115 -0.09679,0.28031 -0.1118709,0.33147 -0.029867,0.10134 -0.08015,0.20814 -0.1250701,0.26566 -0.015718,0.0201 -0.028569,0.0562 -0.028569,0.0802 0,0.0914 -0.1848145,0.49442 -0.3860771,0.84183 -0.021991,0.038 -0.048449,0.0957 -0.058795,0.12829 -0.010343,0.0326 -0.053465,0.11543 -0.09582,0.18406 -0.042359,0.0686 -0.1041226,0.18 -0.1372585,0.24749 -0.130139,0.26506 -0.2116782,0.40056 -0.2992268,0.49728 -0.050231,0.0555 -0.1592885,0.20444 -0.2423512,0.33098 -0.083063,0.12654 -0.186031,0.27076 -0.2288185,0.32049 -0.1582388,0.18395 -0.4018679,0.4208 -0.4660174,0.45307 -0.036369,0.0183 -0.1019381,0.0556 -0.1457126,0.083 -0.1562977,0.0976 -0.2645756,0.11187 -0.4386395,0.0577 -0.2151613,-0.067 -0.2766177,-0.13769 -0.3848386,-0.44285 -0.049628,-0.13994 -0.080371,-0.17488 -0.1360495,-0.15462 -0.036851,0.0134 -0.2336339,0.25535 -0.2872545,0.35317 -0.03281,0.0599 -0.074772,0.11873 -0.093253,0.13084 -0.018483,0.0121 -0.062161,0.0598 -0.097067,0.10608 -0.1355756,0.17956 -0.4533887,0.25681 -0.5713318,0.13887 -0.065011,-0.065 -0.090288,-0.15047 -0.084805,-0.28673 0.00742,-0.18446 -0.089028,-0.18016 -0.1848161,0.008 -0.022495,0.0442 -0.079737,0.1318 -0.1272085,0.19458 -0.047469,0.0628 -0.121264,0.16312 -0.163984,0.22298 -0.04272,0.0599 -0.102238,0.13415 -0.132259,0.16507 -0.03002,0.0309 -0.05458,0.0623 -0.05458,0.0699 0,0.082 -0.404895,0.13801 -0.488619,0.0676 -0.123992,-0.10433 -0.114947,-0.21026 0.06842,-0.80154 0.05909,-0.19054 0.06516,-0.30149 0.01812,-0.33098 -0.04229,-0.0265 -0.09821,0.0286 -0.178183,0.17576 -0.0397,0.073 -0.119464,0.18468 -0.17898,0.25053 -0.05905,0.0653 -0.113745,0.13029 -0.121541,0.14434 -0.03071,0.0554 -0.411105,0.43932 -0.452515,0.45673 -0.08225,0.0346 -0.279641,0.071 -0.340492,0.0629 -0.127294,-0.0171 -0.175042,-0.085 -0.194107,-0.27612 -0.01056,-0.10591 -0.0127,-0.11056 -0.05078,-0.11056 -0.03789,0 -0.21816,0.23735 -0.298982,0.39365 -0.01219,0.0236 -0.05954,0.0847 -0.105238,0.13595 -0.05575,0.0625 -0.09615,0.12731 -0.122814,0.19708 -0.04422,0.11572 -0.13157,0.20466 -0.279747,0.28481 -0.0438,0.0237 -0.08337,0.0528 -0.08794,0.0647 -0.01165,0.0303 -0.160318,0.0968 -0.216956,0.097 -0.04417,1.4e-4 -0.147321,-0.0703 -0.201668,-0.13772 -0.02783,-0.0345 -0.02348,-0.0985 0.0095,-0.14052 0.03745,-0.0476 0.0567,-0.12328 0.07745,-0.30446 0.0092,-0.0801 0.02982,-0.18022 0.04587,-0.2224 0.01605,-0.0422 0.04697,-0.12273 0.06871,-0.179 0.02174,-0.0563 0.03953,-0.10688 0.03953,-0.11247 0,-0.006 0.02109,-0.0582 0.04686,-0.11692 0.02577,-0.0587 0.05608,-0.16341 0.06734,-0.23264 0.01343,-0.0825 0.04515,-0.18134 0.09212,-0.28693 0.100348,-0.22559 0.157757,-0.47548 0.109238,-0.47548 -0.0392,0 -0.206046,0.21881 -0.284482,0.37308 -0.04214,0.0829 -0.08969,0.16915 -0.105692,0.19173 -0.016,0.0226 -0.06485,0.12042 -0.108565,0.21744 -0.04371,0.097 -0.09886,0.21435 -0.122552,0.26075 -0.02369,0.0464 -0.05534,0.11735 -0.07033,0.15768 -0.01867,0.0502 -0.05046,0.0928 -0.100919,0.13499 -0.04052,0.0339 -0.08821,0.0852 -0.105982,0.11396 -0.01777,0.0288 -0.08141,0.0947 -0.141425,0.14643 l -0.109111,0.0941 -0.100912,-0.0108 c -0.121252,-0.0129 -0.14715,-0.0253 -0.186036,-0.0891 -0.05042,-0.0827 -0.03182,-0.37407 0.03929,-0.61569 0.01253,-0.0426 0.04306,-0.1464 0.06785,-0.23076 0.02479,-0.0844 0.05677,-0.20787 0.07108,-0.27446 0.0143,-0.0666 0.05219,-0.17704 0.0842,-0.24541 0.032,-0.0684 0.100244,-0.23477 0.151649,-0.36974 0.0514,-0.13498 0.108048,-0.27647 0.125876,-0.31443 0.01783,-0.038 0.04811,-0.11734 0.06728,-0.17639 0.09398,-0.28941 0.263077,-0.68409 0.345001,-0.80525 0.01426,-0.0211 0.03478,-0.066 0.0456,-0.0997 0.0214,-0.0668 0.09704,-0.24225 0.125591,-0.29142 0.0468,-0.0806 0.05821,-0.11098 0.0583,-0.15534 1.09e-4,-0.0551 -0.03194,-0.089 -0.07203,-0.0761 -0.0418,0.0135 -0.313299,0.28106 -0.384988,0.37947 -0.03475,0.0477 -0.08379,0.10139 -0.108983,0.11933 -0.02519,0.018 -0.127343,0.11351 -0.226997,0.21238 -0.09965,0.0989 -0.205277,0.19824 -0.234719,0.22084 -0.02944,0.0226 -0.07424,0.0594 -0.09954,0.0817 -0.02531,0.0223 -0.118486,0.10393 -0.207065,0.18129 -0.08858,0.0774 -0.22662,0.20656 -0.306761,0.2871 -0.106844,0.10737 -0.172625,0.15966 -0.246605,0.19605 -0.119936,0.059 -0.21922,0.15039 -0.344095,0.31677 -0.05052,0.0673 -0.158122,0.19155 -0.239126,0.27609 -0.134235,0.14009 -0.148279,0.1604 -0.158569,0.22932 -0.01747,0.11703 -0.09145,0.32855 -0.168691,0.48235 -0.03855,0.0768 -0.08636,0.18279 -0.106247,0.23561 -0.01988,0.0528 -0.06077,0.14491 -0.09085,0.20465 -0.06622,0.13148 -0.164421,0.36387 -0.232808,0.55093 -0.02776,0.0759 -0.09846,0.2589 -0.157115,0.40663 -0.05865,0.14773 -0.111693,0.28922 -0.117864,0.31443 -0.01608,0.0657 -0.109693,0.2707 -0.308093,0.6747 -0.09528,0.19403 -0.1982,0.41583 -0.228703,0.49289 -0.0473,0.1195 -0.212535,0.43719 -0.253784,0.48795 -0.0072,0.009 -0.02155,0.0472 -0.03187,0.0852 -0.01755,0.0646 -0.05607,0.16741 -0.137908,0.3681 -0.01892,0.0464 -0.06246,0.15339 -0.09675,0.23775 -0.03429,0.0844 -0.08206,0.18789 -0.106149,0.23007 -0.055,0.0963 -0.122807,0.2404 -0.187645,0.39879 -0.02763,0.0675 -0.07267,0.17102 -0.100094,0.23008 -0.02742,0.059 -0.06323,0.13842 -0.07957,0.17638 -0.01634,0.038 -0.05723,0.11142 -0.09087,0.16325 -0.03365,0.0518 -0.09858,0.18068 -0.144302,0.28634 -0.08223,0.19006 -0.217268,0.45786 -0.268279,0.53205 -0.09183,0.13356 -0.226572,0.3837 -0.274107,0.50885 -0.02163,0.057 -0.268826,0.42909 -0.309397,0.46579 -0.01825,0.0165 -0.04723,0.0576 -0.0644,0.0914 -0.03154,0.062 -0.160649,0.25425 -0.180242,0.26841 -0.0058,0.004 -0.04061,0.0525 -0.07728,0.10737 -0.104622,0.15644 -0.152253,0.21341 -0.452351,0.54102 -0.04626,0.0505 -0.106543,0.0922 -0.194351,0.13431 -0.07001,0.0336 -0.159703,0.0784 -0.199322,0.0997 -0.206152,0.11036 -0.374731,0.077 -0.689395,-0.13629 -0.08918,-0.0605 -0.216746,-0.26318 -0.314601,-0.49994 -0.0298,-0.0721 -0.06046,-0.13872 -0.06814,-0.14806 -0.04317,-0.0525 -0.178466,-0.44642 -0.210149,-0.61188 -0.0081,-0.0422 -0.02901,-0.11529 -0.04652,-0.16246 -0.07099,-0.19125 -0.116745,-0.50585 -0.119149,-0.81918 -0.0012,-0.16028 -0.0061,-0.42257 -0.01092,-0.58285 -0.0077,-0.25688 4e-6,-0.47548 0.02874,-0.82059 0.01286,-0.15447 -0.02931,-0.17927 -0.09506,-0.0559 -0.09454,0.17738 -0.14614,0.28639 -0.160709,0.33951 -0.01536,0.056 -0.06454,0.1418 -0.09266,0.16164 -0.01616,0.0114 -0.162627,0.3022 -0.182415,0.36215 -0.009,0.0273 -0.06142,0.11039 -0.116505,0.18475 -0.05508,0.0744 -0.114614,0.16626 -0.132288,0.20422 -0.01767,0.038 -0.07146,0.12424 -0.119535,0.19173 -0.04807,0.0675 -0.09982,0.14953 -0.115004,0.18232 -0.01568,0.0339 -0.05383,0.0769 -0.08828,0.0997 -0.09985,0.066 -0.14857,0.11887 -0.14857,0.16136 0,0.051 -0.07138,0.19709 -0.140226,0.28696 -0.02983,0.039 -0.09054,0.13902 -0.134906,0.2224 -0.04436,0.0834 -0.107118,0.18614 -0.139448,0.22834 -0.03233,0.0422 -0.08044,0.12503 -0.106913,0.18405 -0.02647,0.059 -0.08641,0.15821 -0.133203,0.2204 -0.05042,0.067 -0.105458,0.16499 -0.13512,0.24055 -0.02752,0.0701 -0.0734,0.15728 -0.101941,0.19369 -0.0771,0.0984 -0.116555,0.15182 -0.158965,0.21533 -0.02097,0.0314 -0.08745,0.11422 -0.147751,0.18405 -0.06029,0.0698 -0.156789,0.19023 -0.214432,0.26754 -0.05764,0.0773 -0.123955,0.15417 -0.147366,0.17082 -0.222393,0.15812 -0.345084,-0.0235 -0.152568,-0.22578 0.0448,-0.0471 0.11029,-0.13509 0.145538,-0.19557 0.03524,-0.0605 0.08905,-0.14269 0.119566,-0.18267 0.03052,-0.04 0.0894,-0.1351 0.130857,-0.2114 0.04146,-0.0763 0.08474,-0.1494 0.09619,-0.16245 0.01146,-0.013 0.03827,-0.0586 0.0596,-0.10116 0.02133,-0.0426 0.08251,-0.13472 0.135957,-0.20475 0.05345,-0.07 0.118984,-0.15596 0.145642,-0.19098 0.02666,-0.035 0.09628,-0.15685 0.154706,-0.27073 0.111089,-0.21653 0.229527,-0.40919 0.386588,-0.62886 0.05127,-0.0717 0.107815,-0.15799 0.125662,-0.19174 0.05039,-0.0953 0.211312,-0.36077 0.250382,-0.41311 0.01932,-0.0259 0.07603,-0.11974 0.126041,-0.20861 0.05001,-0.0889 0.119296,-0.19748 0.153978,-0.24135 0.03468,-0.0439 0.07095,-0.10369 0.08059,-0.1329 0.0096,-0.0292 0.04873,-0.11326 0.08686,-0.18676 0.03814,-0.0735 0.102308,-0.21048 0.142613,-0.30441 0.04031,-0.0939 0.0904,-0.19807 0.111323,-0.23143 0.02093,-0.0333 0.08108,-0.14692 0.133673,-0.25237 0.0526,-0.10545 0.147125,-0.27455 0.210063,-0.37578 0.06294,-0.10124 0.130743,-0.21522 0.150679,-0.25331 0.01994,-0.0381 0.06715,-0.11056 0.104912,-0.16105 0.03777,-0.0505 0.08777,-0.12976 0.111113,-0.17616 0.02335,-0.0464 0.06045,-0.10771 0.08245,-0.13626 0.05434,-0.0705 0.17801,-0.28208 0.225161,-0.38524 0.0212,-0.0464 0.0482,-0.10162 0.05998,-0.12271 0.09954,-0.17814 0.14545,-0.25476 0.21865,-0.36496 0.05185,-0.0781 0.10132,-0.17757 0.128007,-0.25751 0.04888,-0.1464 0.08034,-0.19809 0.18158,-0.29827 0.07801,-0.0772 0.167172,-0.22672 0.206504,-0.34628 0.01417,-0.0431 0.04347,-0.0948 0.06511,-0.11504 0.03108,-0.029 0.235743,-0.35366 0.235743,-0.37396 0,-0.002 0.02484,-0.0487 0.0552,-0.10224 0.03036,-0.0535 0.07574,-0.14911 0.100832,-0.21238 0.05742,-0.14477 0.160538,-0.32508 0.275874,-0.48241 0.120153,-0.16389 0.149006,-0.23875 0.113136,-0.29349 -0.03043,-0.0464 -0.08733,-0.0439 -0.159049,0.007 -0.07737,0.055 -0.584066,0.19249 -0.770502,0.20899 -0.152581,0.0135 -0.21146,0.0486 -0.244996,0.14597 -0.03394,0.0985 -0.07369,0.17012 -0.120024,0.21614 -0.07178,0.0713 -0.134585,0.15766 -0.16598,0.22831 -0.01687,0.038 -0.06621,0.12333 -0.109651,0.1897 -0.04344,0.0664 -0.08588,0.14631 -0.09431,0.17763 -0.0084,0.0313 -0.05766,0.118 -0.109382,0.19262 -0.05172,0.0746 -0.10433,0.16034 -0.116901,0.19049 -0.01257,0.0301 -0.06347,0.11754 -0.113101,0.19422 -0.04964,0.0767 -0.103211,0.17709 -0.119056,0.22314 -0.03959,0.11506 -0.08574,0.20222 -0.139519,0.26348 -0.05047,0.0575 -0.116486,0.16894 -0.242407,0.4093 -0.0464,0.0886 -0.111088,0.20045 -0.143741,0.2486 -0.03265,0.0482 -0.06663,0.10682 -0.0755,0.13037 -0.0089,0.0235 -0.04897,0.0911 -0.0891,0.15019 -0.04013,0.0591 -0.102747,0.16604 -0.139142,0.23774 -0.03639,0.0717 -0.08424,0.15442 -0.106326,0.18381 -0.06763,0.09 -0.126084,0.18666 -0.185668,0.30701 -0.05699,0.11513 -0.205023,0.37564 -0.232219,0.40867 -0.0079,0.01 -0.0356,0.0614 -0.06145,0.11504 -0.02585,0.0536 -0.07952,0.1458 -0.119256,0.20485 -0.03974,0.059 -0.08187,0.13153 -0.09362,0.16105 -0.02466,0.0619 -0.107936,0.20902 -0.170571,0.30125 -0.02372,0.0349 -0.0686,0.11427 -0.09974,0.17631 -0.03114,0.062 -0.08549,0.15786 -0.12078,0.21291 -0.03529,0.0551 -0.07317,0.12757 -0.08418,0.16113 -0.01794,0.0547 -0.114792,0.22777 -0.184365,0.32944 -0.01443,0.0211 -0.05562,0.0936 -0.09153,0.16105 -0.03591,0.0675 -0.07404,0.13305 -0.08474,0.14571 -0.01071,0.0126 -0.04866,0.0817 -0.08435,0.15338 -0.03569,0.0717 -0.09463,0.16234 -0.130984,0.20142 -0.04041,0.0434 -0.07309,0.0971 -0.08411,0.13804 -0.02791,0.10375 -0.08916,0.20011 -0.2623,0.41267 -0.03067,0.0377 -0.08349,0.12367 -0.117366,0.19117 -0.03388,0.0675 -0.09162,0.1689 -0.128294,0.22537 -0.03668,0.0565 -0.0943,0.14607 -0.128043,0.19912 -0.03374,0.053 -0.094,0.13929 -0.133909,0.19165 -0.03991,0.0524 -0.104651,0.156 -0.143875,0.23034 -0.03922,0.0743 -0.08989,0.15931 -0.112592,0.18884 -0.0227,0.0295 -0.06043,0.0891 -0.08384,0.13244 -0.02341,0.0433 -0.0699,0.11184 -0.103316,0.15227 -0.03341,0.0404 -0.125377,0.17073 -0.204359,0.28954 -0.125454,0.18872 -0.152536,0.22036 -0.214268,0.25035 -0.09969,0.0485 -0.155008,0.0449 -0.209398,-0.0133 z m 5.966944,-1.04849 c 0.06936,-0.0349 0.125064,-0.077 0.162601,-0.12281 0.0314,-0.0383 0.08211,-0.0843 0.112681,-0.10222 0.08597,-0.0503 0.382978,-0.39771 0.449252,-0.52543 0.01703,-0.0328 0.06005,-0.0915 0.09558,-0.13038 0.05596,-0.0612 0.177956,-0.24845 0.177956,-0.27313 0,-0.004 0.03371,-0.0542 0.0749,-0.1101 0.133918,-0.1816 0.242569,-0.35989 0.291933,-0.47903 0.0266,-0.0642 0.0851,-0.17462 0.130003,-0.24541 0.08902,-0.14033 0.285382,-0.52983 0.285445,-0.56621 2.2e-5,-0.0124 0.02506,-0.064 0.05564,-0.11466 0.09618,-0.15921 0.235118,-0.43941 0.288996,-0.58285 0.0781,-0.20793 0.137009,-0.33091 0.190183,-0.39702 0.02636,-0.0328 0.05532,-0.088 0.06437,-0.1227 0.009,-0.0347 0.05335,-0.1425 0.09847,-0.23951 0.04512,-0.097 0.0972,-0.22471 0.115743,-0.28376 0.01854,-0.059 0.06317,-0.16258 0.09918,-0.23008 0.036,-0.0675 0.07648,-0.16125 0.08995,-0.20837 0.01347,-0.0471 0.05222,-0.1265 0.08611,-0.17639 0.03389,-0.0499 0.06163,-0.0964 0.06166,-0.10334 1.9e-5,-0.007 0.03907,-0.0932 0.08678,-0.19172 0.04771,-0.0985 0.120315,-0.26179 0.161347,-0.36286 0.04103,-0.10106 0.09065,-0.20804 0.110257,-0.23774 0.01961,-0.0297 0.04469,-0.0816 0.05573,-0.11534 0.01104,-0.0337 0.05698,-0.13459 0.102094,-0.2241 0.04511,-0.0895 0.08202,-0.16843 0.08202,-0.17539 0,-0.007 0.02337,-0.058 0.05194,-0.11334 0.02857,-0.0554 0.06037,-0.14162 0.07068,-0.19165 0.03078,-0.14938 0.14269,-0.44347 0.208305,-0.54741 0.02064,-0.0327 0.04682,-0.0992 0.05817,-0.14792 0.01135,-0.0487 0.04192,-0.12976 0.06793,-0.18025 0.131436,-0.25513 0.183517,-0.45204 0.127488,-0.48203 -0.06314,-0.0338 -0.182975,0.004 -0.247068,0.0785 -0.02109,0.0244 -0.105383,0.0908 -0.187318,0.1474 -0.161508,0.11165 -0.252016,0.18405 -0.488146,0.3905 -0.08438,0.0738 -0.178848,0.14476 -0.209926,0.15774 -0.03178,0.0133 -0.102744,0.0738 -0.162159,0.13827 -0.06594,0.0716 -0.145299,0.13782 -0.21111,0.17625 -0.058,0.0339 -0.15573,0.10801 -0.217179,0.16473 -0.146339,0.1351 -0.213909,0.18734 -0.331152,0.25605 -0.05324,0.0312 -0.129235,0.0855 -0.168889,0.12063 -0.03965,0.0351 -0.123788,0.0947 -0.186964,0.13229 -0.06318,0.0376 -0.146753,0.0963 -0.185727,0.13037 -0.03897,0.0341 -0.111446,0.086 -0.16105,0.11539 -0.0496,0.0294 -0.145407,0.10186 -0.212895,0.16109 -0.06749,0.0592 -0.222786,0.17247 -0.345107,0.25169 -0.122322,0.0792 -0.262307,0.17064 -0.311078,0.2032 -0.04877,0.0325 -0.09448,0.0592 -0.101565,0.0592 -0.0071,0 -0.06581,0.0345 -0.130493,0.0768 -0.06468,0.0422 -0.157021,0.0975 -0.205198,0.12274 -0.08985,0.0472 -0.33101,0.21017 -0.44037,0.29768 -0.03374,0.027 -0.1045,0.079 -0.157235,0.11563 -0.07689,0.0533 -0.110668,0.0911 -0.170524,0.19083 -0.08562,0.14259 -0.236472,0.46313 -0.260605,0.55377 -0.03395,0.12751 -0.07759,0.39012 -0.09452,0.56884 -0.03116,0.32896 0.0018,1.52354 0.04626,1.67809 0.0085,0.0294 0.01542,0.0907 0.01542,0.13614 0,0.0454 0.01333,0.14209 0.02963,0.21484 0.01629,0.0727 0.03962,0.17713 0.05184,0.23197 0.04473,0.20076 0.104406,0.40451 0.141378,0.48267 0.02085,0.0441 0.03791,0.0917 0.03791,0.10579 0,0.0141 0.01648,0.0518 0.03663,0.0837 0.02015,0.032 0.06102,0.10598 0.09082,0.16458 0.06045,0.11887 0.206672,0.28103 0.27828,0.30861 0.09767,0.0376 0.229888,0.0251 0.34474,-0.0328 z m -0.226839,-5.25761 c 0.02835,-0.0212 0.102607,-0.0673 0.165014,-0.10228 0.06241,-0.035 0.138717,-0.0837 0.169578,-0.10814 0.03086,-0.0244 0.09369,-0.0646 0.139611,-0.0892 0.148744,-0.0797 0.342213,-0.19817 0.428609,-0.26256 0.0464,-0.0346 0.143343,-0.10692 0.215436,-0.16078 0.07209,-0.0538 0.165271,-0.1162 0.207064,-0.13857 0.109895,-0.0588 0.1928,-0.12297 0.342684,-0.2652 0.0851,-0.0808 0.162678,-0.13919 0.216687,-0.16323 0.04627,-0.0206 0.101383,-0.0561 0.122473,-0.0789 0.02109,-0.0228 0.08048,-0.0606 0.131982,-0.084 0.0515,-0.0235 0.120521,-0.0662 0.153381,-0.0952 0.03286,-0.0289 0.11151,-0.0899 0.17478,-0.13548 0.06327,-0.0456 0.189646,-0.15436 0.280837,-0.24167 0.100046,-0.0958 0.227789,-0.19862 0.322101,-0.25927 0.08596,-0.0553 0.197349,-0.14172 0.247523,-0.19207 0.05017,-0.0503 0.112294,-0.10236 0.138043,-0.11558 0.08235,-0.0423 0.228732,-0.14522 0.300059,-0.21097 0.03805,-0.0351 0.108511,-0.0889 0.156577,-0.11966 0.04807,-0.0308 0.151841,-0.11657 0.230611,-0.19072 0.07877,-0.0741 0.231622,-0.21073 0.339674,-0.30352 0.20747,-0.17818 0.243033,-0.22462 0.305397,-0.3988 0.02114,-0.059 0.06438,-0.16165 0.09608,-0.22801 0.0317,-0.0664 0.07321,-0.1768 0.09225,-0.24541 0.07432,-0.2679 0.210442,-0.67688 0.261037,-0.7843 0.07388,-0.15685 -0.0364,-0.21197 -0.181792,-0.0909 -0.02316,0.0193 -0.05766,0.0398 -0.07669,0.0456 -0.07197,0.0219 -0.312477,0.11856 -0.379207,0.15232 -0.03823,0.0194 -0.173047,0.07 -0.299587,0.11251 -0.351662,0.11818 -0.548594,0.19659 -0.632418,0.25177 -0.04191,0.0275 -0.141074,0.0824 -0.220375,0.12169 -0.425382,0.21105 -0.996468,0.4908 -1.056802,0.51767 -0.03796,0.0169 -0.09663,0.0475 -0.130373,0.0679 -0.03374,0.0204 -0.102563,0.0623 -0.152929,0.0929 -0.111053,0.0676 -0.412688,0.36137 -0.474921,0.46252 -0.02475,0.0403 -0.0671,0.11861 -0.09411,0.1742 -0.02701,0.0556 -0.07923,0.13694 -0.116049,0.18082 -0.11914,0.14202 -0.244057,0.35503 -0.326659,0.55703 -0.04587,0.11217 -0.10162,0.22123 -0.129079,0.2525 -0.02658,0.0303 -0.04833,0.0623 -0.04833,0.0711 0,0.0438 -0.101162,0.26029 -0.153237,0.3279 -0.0744,0.0966 -0.34151,0.56311 -0.367442,0.64174 -0.01067,0.0323 -0.03845,0.0807 -0.06173,0.10737 -0.02328,0.0267 -0.05739,0.0782 -0.0758,0.11455 -0.01841,0.0363 -0.0573,0.0972 -0.08643,0.13539 -0.02913,0.0382 -0.05738,0.0878 -0.06279,0.11037 -0.01663,0.0693 -0.0683,0.1604 -0.131977,0.23272 -0.09169,0.10416 -0.195318,0.33137 -0.169892,0.3725 0.01592,0.0258 0.137978,0.001 0.191151,-0.0388 z m -8.315393,-0.38443 c 0,-0.0111 -0.01035,-0.0335 -0.023,-0.0499 -0.02231,-0.0289 -0.02367,-0.0289 -0.04496,-10e-4 -0.01208,0.0156 -0.01824,0.038 -0.0137,0.0498 0.01043,0.0272 0.08167,0.0285 0.08167,0.001 z m 8.727083,-2.79258 c 0.04656,-0.0285 0.132977,-0.0637 0.192028,-0.0784 0.120703,-0.0298 0.16405,-0.05 0.386724,-0.17962 0.08616,-0.0502 0.180578,-0.0978 0.209819,-0.10587 0.02924,-0.008 0.09689,-0.0542 0.150316,-0.10245 0.05343,-0.0483 0.122076,-0.10848 0.152541,-0.13378 0.05879,-0.0489 0.165978,-0.2073 0.24169,-0.35729 0.02516,-0.0498 0.06385,-0.11213 0.08597,-0.13842 0.02213,-0.0263 0.0571,-0.0909 0.07772,-0.14347 0.02062,-0.0526 0.05399,-0.12014 0.07416,-0.15004 0.04223,-0.0626 0.195663,-0.31927 0.269448,-0.45069 0.02765,-0.0493 0.08299,-0.1303 0.122982,-0.18013 0.03999,-0.0498 0.08807,-0.13275 0.106858,-0.18426 0.03725,-0.10215 0.116434,-0.24474 0.16954,-0.3053 0.0185,-0.0211 0.05439,-0.0793 0.07976,-0.12937 0.02537,-0.0501 0.08305,-0.15072 0.128178,-0.22367 0.04513,-0.073 0.120463,-0.20938 0.167411,-0.30317 0.04695,-0.0938 0.101702,-0.18993 0.121677,-0.21366 0.01997,-0.0237 0.06717,-0.10174 0.104872,-0.17333 0.142275,-0.27013 0.253033,-0.47137 0.320674,-0.58264 0.03846,-0.0633 0.09331,-0.15512 0.121885,-0.20409 0.02858,-0.049 0.08108,-0.12456 0.116667,-0.16795 0.03559,-0.0434 0.06899,-0.0999 0.07422,-0.12567 0.0052,-0.0257 0.04465,-0.10485 0.08761,-0.1758 0.04296,-0.0709 0.103189,-0.17794 0.133851,-0.23775 0.03066,-0.0598 0.126561,-0.23296 0.213109,-0.38481 0.08655,-0.15185 0.183722,-0.33131 0.215946,-0.39879 0.03222,-0.0675 0.100772,-0.18828 0.152331,-0.26842 0.092,-0.143 0.201057,-0.3497 0.201057,-0.38108 0,-0.0315 -0.03187,-0.034 -0.141532,-0.0112 -0.198171,0.0414 -0.290692,0.07 -0.33921,0.10493 -0.02613,0.0188 -0.116475,0.0687 -0.200763,0.11091 -0.141685,0.0709 -0.159926,0.0854 -0.24174,0.19172 -0.222285,0.28896 -0.38085,0.5332 -0.512829,0.78991 -0.03904,0.0759 -0.09118,0.16116 -0.115889,0.18941 -0.02471,0.0283 -0.07174,0.10782 -0.104528,0.17682 -0.03278,0.069 -0.09499,0.1659 -0.138231,0.21532 -0.04324,0.0494 -0.09917,0.12514 -0.124282,0.16828 -0.02511,0.0431 -0.08286,0.1371 -0.128337,0.20881 -0.04547,0.0717 -0.100306,0.16278 -0.121847,0.20239 -0.02154,0.0396 -0.0889,0.14659 -0.149678,0.23774 -0.133989,0.20092 -0.191203,0.29648 -0.273674,0.45705 -0.03464,0.0674 -0.07159,0.13301 -0.08211,0.14572 -0.02614,0.0316 -0.174931,0.28745 -0.254215,0.43723 -0.03573,0.0675 -0.08269,0.14615 -0.104372,0.17482 -0.02168,0.0286 -0.07107,0.10985 -0.109756,0.18039 -0.03869,0.0705 -0.103436,0.17479 -0.143887,0.23163 -0.04045,0.0568 -0.107716,0.15514 -0.149479,0.21841 -0.04176,0.0633 -0.114449,0.15989 -0.161524,0.21473 -0.08327,0.097 -0.128379,0.17764 -0.181644,0.32474 -0.0327,0.0903 -0.161966,0.30516 -0.239069,0.39735 -0.0323,0.0386 -0.07562,0.1042 -0.09626,0.14572 -0.08105,0.16302 -0.261973,0.46784 -0.406775,0.68535 -0.127699,0.19182 -0.151671,0.33171 -0.0571,0.33319 0.0083,1.3e-4 0.05313,-0.0231 0.0997,-0.0516 z m 2.252351,-1.24762 c 0.106909,-0.0729 0.225471,-0.16106 0.263473,-0.19591 0.038,-0.0348 0.113821,-0.0871 0.168489,-0.11611 0.05467,-0.029 0.139029,-0.0917 0.187469,-0.13928 0.04844,-0.0476 0.120053,-0.10527 0.15914,-0.12819 0.09926,-0.0582 0.242203,-0.16939 0.340799,-0.2652 0.04592,-0.0446 0.105062,-0.0921 0.131423,-0.10544 0.0864,-0.0438 0.181177,-0.12947 0.548249,-0.49534 0.199251,-0.19859 0.423571,-0.41283 0.498488,-0.47608 0.150299,-0.1269 0.527335,-0.49734 0.527335,-0.51812 0,-0.0143 0.478787,-0.501 0.652328,-0.66315 0.0588,-0.0549 0.189523,-0.20273 0.290497,-0.32842 0.100973,-0.12569 0.246992,-0.29551 0.324487,-0.37739 0.07749,-0.0819 0.152912,-0.17208 0.167595,-0.20048 0.03146,-0.0608 0.168384,-0.22139 0.271512,-0.31838 0.08741,-0.0822 0.228953,-0.29827 0.312904,-0.47766 0.250802,-0.53592 0.266056,-0.57577 0.266056,-0.69501 0,-0.0929 -0.02603,-0.13895 -0.09689,-0.1714 -0.02685,-0.0123 -0.06776,-0.0377 -0.09092,-0.0564 -0.0605,-0.0489 -0.369353,-0.0768 -0.44597,-0.0403 -0.03467,0.0165 -0.121437,0.0277 -0.272233,0.0351 -0.121739,0.006 -0.269009,0.0206 -0.327268,0.0326 -0.05826,0.012 -0.179046,0.0261 -0.268417,0.0314 -0.08937,0.005 -0.1901,0.0195 -0.223844,0.0315 -0.03374,0.012 -0.113348,0.0272 -0.176898,0.0338 -0.239586,0.0249 -0.445835,0.20445 -0.6356,0.55336 -0.05735,0.10545 -0.126606,0.22278 -0.153898,0.26075 -0.02729,0.038 -0.08584,0.13804 -0.130104,0.2224 -0.04426,0.0844 -0.09865,0.17734 -0.120854,0.20663 -0.09029,0.11908 -0.148689,0.22199 -0.296178,0.52193 -0.08504,0.17294 -0.169817,0.33514 -0.188398,0.36045 -0.03282,0.0447 -0.1253,0.21215 -0.203309,0.36811 -0.02109,0.0422 -0.06769,0.11811 -0.103529,0.16872 -0.03585,0.0506 -0.07635,0.11381 -0.09001,0.14042 -0.01366,0.0266 -0.03595,0.0595 -0.04953,0.0731 -0.01358,0.0136 -0.07652,0.11949 -0.139864,0.23536 -0.06334,0.11586 -0.124163,0.22101 -0.135156,0.23367 -0.02512,0.0289 -0.05877,0.0886 -0.211893,0.37578 -0.06747,0.12654 -0.131361,0.24043 -0.141985,0.25308 -0.01906,0.0227 -0.08394,0.14037 -0.152876,0.27726 -0.01944,0.0386 -0.05222,0.0904 -0.07285,0.11504 -0.02062,0.0247 -0.05303,0.0759 -0.07202,0.11386 -0.01899,0.038 -0.04993,0.0897 -0.06876,0.11503 -0.01883,0.0253 -0.09438,0.15572 -0.167884,0.28981 -0.0735,0.1341 -0.149297,0.26524 -0.168428,0.29143 -0.01913,0.0262 -0.05406,0.0925 -0.07762,0.14732 -0.02356,0.0548 -0.06961,0.14886 -0.102343,0.20896 -0.06844,0.12565 -0.07319,0.16308 -0.025,0.19716 0.0505,0.0357 0.08427,0.0216 0.300274,-0.12571 z m 2.364698,8.51139 c -0.0305,-0.0247 -0.03714,-0.0478 -0.04514,-0.15676 -0.0052,-0.0703 -0.01609,-0.13014 -0.02429,-0.133 -0.122139,-0.0427 -0.128073,-0.10329 -0.02681,-0.27383 0.124825,-0.21023 0.330663,-0.44397 0.44138,-0.50122 0.03374,-0.0175 0.130373,-0.0984 0.214733,-0.17986 0.08436,-0.0815 0.18099,-0.16833 0.214734,-0.19302 0.129762,-0.095 0.332954,-0.27364 0.401645,-0.35321 0.03947,-0.0457 0.09919,-0.10213 0.132719,-0.12536 0.03353,-0.0232 0.130162,-0.12092 0.214748,-0.21706 0.08459,-0.0961 0.175334,-0.18753 0.201662,-0.20306 0.02633,-0.0155 0.125095,-0.11291 0.219482,-0.21639 0.09439,-0.10348 0.272393,-0.28133 0.395569,-0.39521 0.123176,-0.11388 0.300955,-0.2797 0.395064,-0.36846 0.302114,-0.28496 0.369104,-0.34229 0.555181,-0.47514 0.10044,-0.0717 0.236747,-0.18205 0.302903,-0.24521 0.114731,-0.10954 0.227658,-0.19355 0.57075,-0.42461 0.146856,-0.0989 0.491052,-0.28084 0.53241,-0.28142 0.01088,-1.5e-4 0.05548,-0.0199 0.09914,-0.044 0.04366,-0.0241 0.178251,-0.0772 0.299093,-0.11809 0.257275,-0.087 0.510339,-0.10688 0.6014078,-0.0472 0.091794,0.0601 0.1749396,0.32072 0.1559784,0.48882 -0.018284,0.1621 -0.152054,0.47056 -0.2794722,0.64444 -0.07045,0.0961 -0.114931,0.21419 -0.157663,0.41845 -0.01941,0.0928 -0.04724,0.19287 -0.06183,0.2224 -0.01458,0.0295 -0.035,0.0986 -0.04534,0.15338 -0.01034,0.0548 -0.03207,0.14053 -0.04826,0.19042 -0.05967,0.18378 -0.02862,0.39833 0.0666,0.46034 0.09588,0.0624 0.4168211,0.0415 0.5558097,-0.0362 0.04218,-0.0236 0.1560654,-0.0863 0.2530785,-0.13926 0.097014,-0.053 0.2039972,-0.12268 0.2377402,-0.15483 0.056864,-0.0542 0.2882409,-0.22031 0.5828485,-0.41852 0.067488,-0.0454 0.1572165,-0.11621 0.1993948,-0.15735 0.04218,-0.0411 0.1595168,-0.12567 0.2607488,-0.18786 0.1012325,-0.0622 0.2082156,-0.13179 0.2377417,-0.15464 0.029528,-0.0228 0.105449,-0.0713 0.1687177,-0.10754 0.1084286,-0.0622 0.2414406,-0.16116 0.3987915,-0.29672 0.037961,-0.0327 0.11539,-0.0829 0.1720611,-0.11147 0.056672,-0.0286 0.1477462,-0.0876 0.2023898,-0.13118 0.054641,-0.0435 0.1307238,-0.0971 0.1690682,-0.11892 0.038349,-0.0218 0.1060205,-0.0648 0.150388,-0.0954 0.044364,-0.0306 0.1496884,-0.10009 0.2340478,-0.15443 0.084361,-0.0544 0.2051477,-0.14225 0.2684184,-0.19531 0.1326454,-0.11126 0.4077386,-0.3043 0.5006799,-0.35134 0.034951,-0.0177 0.1203101,-0.0749 0.1896889,-0.12721 0.1252448,-0.0944 0.3042766,-0.20091 0.613418,-0.365 0.088603,-0.047 0.2173454,-0.1252 0.2860901,-0.1737 0.068746,-0.0485 0.1309359,-0.0882 0.1382002,-0.0882 0.00727,0 0.049478,-0.0244 0.093814,-0.0543 0.044334,-0.0298 0.1546752,-0.0932 0.2452043,-0.14086 0.09053,-0.0476 0.1853057,-0.10146 0.2106127,-0.11965 0.054886,-0.0395 0.1661295,-0.0906 0.2300717,-0.10589 0.025307,-0.006 0.077075,-0.0306 0.1150362,-0.0546 0.037961,-0.024 0.099608,-0.0517 0.1369892,-0.0616 0.037379,-0.01 0.089148,-0.0339 0.1150361,-0.0534 0.1051771,-0.0792 0.4962684,-0.22332 0.7228689,-0.26632 0.3010888,-0.0572 0.5742555,0.0298 0.5742555,0.18293 0,0.0812 -0.02096,0.0862 -0.094985,0.0228 -0.096203,-0.0824 -0.1664436,-0.0777 -0.4878635,0.0327 -0.037961,0.013 -0.1000814,0.0292 -0.138043,0.036 -0.064483,0.0115 -0.2660981,0.0944 -0.3527755,0.14509 -0.02109,0.0123 -0.062347,0.0336 -0.091683,0.0474 -0.029333,0.0137 -0.082752,0.0452 -0.1187019,0.0699 -0.035951,0.0247 -0.093327,0.0548 -0.1275024,0.0669 -0.098883,0.0349 -0.5497098,0.26559 -0.6590905,0.33727 -0.054833,0.0359 -0.1307564,0.0808 -0.1687198,0.0996 -0.037961,0.0189 -0.089727,0.0496 -0.1150361,0.0683 -0.025307,0.0188 -0.1062967,0.0695 -0.1799785,0.11286 -0.073681,0.0433 -0.167853,0.10143 -0.2092704,0.12907 -0.041419,0.0276 -0.1565749,0.10204 -0.2559042,0.16531 -0.09933,0.0633 -0.2636571,0.17298 -0.3651697,0.2438 -0.1015144,0.0708 -0.2194126,0.14922 -0.262,0.17422 -0.042588,0.025 -0.1149149,0.0775 -0.1607291,0.11664 -0.095341,0.0815 -0.2807117,0.21176 -0.3900341,0.2741 -0.041001,0.0234 -0.1859437,0.11406 -0.3221007,0.20149 -0.1361567,0.0875 -0.261362,0.16446 -0.2782337,0.17113 -0.031751,0.0126 -0.1266305,0.0835 -0.3085741,0.23081 -0.058055,0.047 -0.1607709,0.12235 -0.2282607,0.16747 -0.067487,0.0451 -0.1599025,0.11573 -0.205368,0.15694 -0.045469,0.0412 -0.1157251,0.0917 -0.1561305,0.11218 -0.040409,0.0205 -0.077862,0.0443 -0.083235,0.053 -0.00537,0.009 -0.048872,0.0409 -0.096665,0.0714 -0.047792,0.0305 -0.1180814,0.0813 -0.1562004,0.11277 -0.038115,0.0314 -0.1039855,0.0756 -0.1463731,0.0982 -0.042384,0.0225 -0.098065,0.0606 -0.1237326,0.0846 -0.025667,0.0239 -0.070354,0.0559 -0.099304,0.0708 -0.028952,0.015 -0.087157,0.054 -0.1293456,0.0867 -0.1551332,0.12033 -0.216778,0.16643 -0.3067803,0.22939 -0.050616,0.0354 -0.1304278,0.0994 -0.1773589,0.14229 -0.046931,0.0428 -0.1284394,0.10207 -0.1811265,0.13159 -0.052687,0.0295 -0.1415247,0.0829 -0.1974177,0.11868 -0.1137789,0.0728 -0.141335,0.0838 -0.4319171,0.17202 -0.2590938,0.0787 -0.3207918,0.0764 -0.6470458,-0.0244 -0.222249,-0.0686 -0.326793,-0.46334 -0.219388,-0.82829 0.022,-0.0748 0.04939,-0.17388 0.06087,-0.22028 0.03303,-0.13349 0.123317,-0.36147 0.180998,-0.45698 0.02907,-0.0482 0.06872,-0.13929 0.08812,-0.20256 0.01939,-0.0633 0.05681,-0.1599 0.08314,-0.21474 0.09197,-0.19149 0.192799,-0.50608 0.195768,-0.61078 0.003,-0.10556 -0.1172,-0.1551 -0.250109,-0.10309 -0.02953,0.0115 -0.08474,0.0325 -0.122703,0.0465 -0.03796,0.014 -0.124981,0.052 -0.193374,0.0845 -0.06839,0.0324 -0.154671,0.0672 -0.191727,0.0771 -0.03706,0.01 -0.124969,0.0571 -0.195362,0.10471 -0.07039,0.0476 -0.166024,0.11168 -0.21251,0.14232 -0.04649,0.0306 -0.126934,0.0971 -0.178773,0.1476 -0.05184,0.0505 -0.139117,0.12211 -0.193952,0.15906 -0.05483,0.037 -0.123854,0.0859 -0.15338,0.10866 -0.159971,0.12361 -0.212619,0.15663 -0.292973,0.18376 -0.0735,0.0248 -0.09907,0.0437 -0.151975,0.11229 -0.03498,0.0453 -0.0924,0.1063 -0.127593,0.13546 -0.03519,0.0292 -0.130751,0.11901 -0.212346,0.19967 -0.08159,0.0807 -0.183532,0.1683 -0.226528,0.19475 -0.043,0.0265 -0.09874,0.078 -0.123867,0.11452 -0.02513,0.0365 -0.08871,0.1066 -0.141294,0.15572 -0.413635,0.38641 -0.735856,0.70842 -0.886098,0.88551 -0.06327,0.0746 -0.137647,0.15716 -0.165284,0.18352 -0.02764,0.0264 -0.09362,0.0902 -0.146628,0.14189 -0.05301,0.0517 -0.120126,0.10598 -0.149148,0.12066 -0.04909,0.0248 -0.14839,0.11385 -0.497572,0.44602 -0.07592,0.0722 -0.156517,0.14308 -0.179097,0.15747 -0.02258,0.0144 -0.05651,0.0467 -0.0754,0.0718 -0.05937,0.079 -0.142763,0.16244 -0.183812,0.184 -0.02179,0.0114 -0.06194,0.0628 -0.08951,0.11455 -0.04858,0.0911 -0.04969,0.0974 -0.03935,0.22142 0.01042,0.12514 -0.01554,0.23892 -0.05452,0.23892 -0.0068,0 -0.02211,0.004 -0.03407,0.008 -0.01196,0.004 -0.03783,-0.004 -0.05749,-0.0206 z m 6.126385,-10.83615 c -0.1544734,-0.0902 -0.3153608,-0.30145 -0.3705344,-0.48644 -0.094474,-0.31676 -0.1298206,-0.50899 -0.1417226,-0.77079 -0.01127,-0.24783 -0.01323,-0.25928 -0.05536,-0.3221 -0.06661,-0.0993 -0.07363,-0.2693 -0.01341,-0.3251 0.09363,-0.0868 0.2862046,-0.0236 0.3296875,0.10816 0.010398,0.0315 0.031532,0.0787 0.046976,0.10485 0.061927,0.10497 0.079084,0.18181 0.082557,0.36976 0.00458,0.24895 0.054339,0.52113 0.1512205,0.82755 l 0.048493,0.15338 h 0.053121 c 0.059825,0 0.031275,0.0479 0.313206,-0.5249 0.071515,-0.14529 0.1505284,-0.29023 0.1755826,-0.3221 0.025057,-0.0319 0.061273,-0.10191 0.080484,-0.15565 0.019209,-0.0537 0.06235,-0.14001 0.095869,-0.19173 0.064452,-0.0994 0.1483063,-0.26637 0.1483272,-0.29528 6.6e-6,-0.009 0.034563,-0.0701 0.076785,-0.13481 0.042225,-0.0647 0.097022,-0.15772 0.1217719,-0.20675 0.024749,-0.049 0.06165,-0.10915 0.082003,-0.1336 0.020353,-0.0245 0.056099,-0.0755 0.079437,-0.11349 0.070831,-0.11521 0.1301373,-0.16872 0.1869868,-0.16872 0.1292702,0 0.1078092,0.25538 -0.033536,0.39909 -0.048071,0.0489 -0.075506,0.0941 -0.093012,0.15338 -0.025431,0.0861 -0.1571329,0.34923 -0.257021,0.51353 -0.030775,0.0506 -0.055973,0.0995 -0.055994,0.10854 -3.94e-5,0.0171 -0.1122365,0.23004 -0.1569311,0.29792 -0.013885,0.0211 -0.064608,0.13152 -0.1127114,0.24541 -0.048105,0.11388 -0.1102991,0.24288 -0.1382109,0.28665 -0.027914,0.0438 -0.065875,0.10934 -0.08436,0.14572 -0.018486,0.0364 -0.066219,0.10188 -0.1060722,0.1456 -0.046816,0.0513 -0.078418,0.10313 -0.089292,0.14631 -0.018298,0.0727 -0.062593,0.12335 -0.1302123,0.14896 -0.057605,0.0218 -0.1943711,0.0199 -0.2341232,-0.003 z m -15.234398,-3.68909 c -0.02532,-0.0173 0.02765,-0.038 0.159172,-0.0624 0.12018,-0.0223 0.144789,-0.0217 0.144789,0.003 0,0.0383 -0.260212,0.0889 -0.303961,0.0591 z"
       id="path3"
       inkscape:export-filename="path03.svg"
       inkscape:export-xdpi="96"
       inkscape:export-ydpi="96" /></g></svg>
