<?xml version="1.0" encoding="UTF-8" standalone="no"?>
<!-- Created with Inkscape (http://www.inkscape.org/) -->

<svg
   width="15.963726mm"
   height="14.04081mm"
   viewBox="0 0 15.963726 14.04081"
   version="1.1"
   id="svg1"
   xml:space="preserve"
   xmlns:inkscape="http://www.inkscape.org/namespaces/inkscape"
   xmlns:sodipodi="http://sodipodi.sourceforge.net/DTD/sodipodi-0.dtd"
   xmlns="http://www.w3.org/2000/svg"
   xmlns:svg="http://www.w3.org/2000/svg"><sodipodi:namedview
     id="namedview1"
     pagecolor="#ffffff"
     bordercolor="#000000"
     borderopacity="0.25"
     inkscape:showpageshadow="2"
     inkscape:pageopacity="0.0"
     inkscape:pagecheckerboard="0"
     inkscape:deskcolor="#d1d1d1"
     inkscape:document-units="mm"
     showguides="true"><sodipodi:guide
       position="29.330747,279.94209"
       orientation="0,-1"
       id="guide23"
       inkscape:locked="false" /><sodipodi:guide
       position="28.32737,296.99954"
       orientation="0,-1"
       id="guide24"
       inkscape:locked="false" /></sodipodi:namedview><defs
     id="defs1" /><g
     inkscape:label="Layer 1"
     inkscape:groupmode="layer"
     id="layer1"
     transform="translate(54.271867,-233.21331)"><path
       style="fill:#fe5d15;fill-opacity:1;stroke-width:0.0543556"
       d="m -46.370825,247.15719 c -0.138396,-0.14692 -0.163245,-0.17602 -0.163245,-0.19113 0,-0.007 -0.01942,-0.0319 -0.04315,-0.0546 -0.02372,-0.0227 -0.04315,-0.0485 -0.04315,-0.0572 0,-0.009 -0.02913,-0.0446 -0.06471,-0.0794 -0.03559,-0.0349 -0.06471,-0.0708 -0.06471,-0.0795 0,-0.009 -0.01618,-0.0313 -0.03595,-0.0499 -0.01978,-0.0186 -0.03595,-0.0412 -0.03595,-0.0502 0,-0.009 -0.01942,-0.035 -0.04315,-0.0577 -0.02373,-0.0227 -0.04315,-0.047 -0.04315,-0.054 0,-0.007 -0.02259,-0.0365 -0.05021,-0.0656 -0.02762,-0.0292 -0.05027,-0.0598 -0.05034,-0.0681 -5.5e-5,-0.009 -0.02278,-0.0371 -0.05046,-0.0639 -0.02768,-0.0268 -0.05034,-0.0549 -0.05034,-0.0623 0,-0.007 -0.01178,-0.0239 -0.02619,-0.0367 -0.0144,-0.0128 -0.03845,-0.0443 -0.05344,-0.0699 -0.01499,-0.0257 -0.03232,-0.0467 -0.03853,-0.0467 -0.0062,0 -0.01129,-0.007 -0.01129,-0.0142 0,-0.0175 -0.115043,-0.16988 -0.156572,-0.20732 -0.01672,-0.0152 -0.03039,-0.0348 -0.03039,-0.0436 0,-0.009 -0.02912,-0.045 -0.06471,-0.0799 -0.03559,-0.035 -0.06471,-0.0692 -0.06471,-0.076 0,-0.007 -0.02913,-0.0417 -0.06471,-0.0772 -0.03559,-0.0356 -0.06471,-0.071 -0.06471,-0.0786 0,-0.007 -0.01617,-0.0301 -0.03595,-0.0498 -0.01977,-0.0198 -0.03595,-0.0414 -0.03595,-0.0479 0,-0.007 -0.02589,-0.0387 -0.05752,-0.0712 -0.03164,-0.0326 -0.05752,-0.0657 -0.05752,-0.0737 0,-0.007 -0.0098,-0.0143 -0.02156,-0.0143 -0.01186,0 -0.02156,-0.009 -0.02156,-0.0186 0,-0.0103 -0.02587,-0.0439 -0.05752,-0.0748 -0.03165,-0.0308 -0.05752,-0.0632 -0.05752,-0.0717 0,-0.009 -0.03234,-0.0474 -0.07193,-0.0864 -0.03959,-0.039 -0.07193,-0.0785 -0.07193,-0.0879 0,-0.01 -0.06144,-0.0753 -0.136624,-0.14641 -0.07516,-0.0711 -0.136623,-0.13497 -0.136623,-0.1419 0,-0.007 -0.06467,-0.0771 -0.143816,-0.15587 -0.07908,-0.0788 -0.143817,-0.15036 -0.143817,-0.15902 0,-0.0206 -0.06164,-0.0783 -0.08359,-0.0783 -0.0098,0 -0.01705,-0.007 -0.01705,-0.0173 0,-0.01 -0.02332,-0.0413 -0.05193,-0.0706 -0.02862,-0.0293 -0.05949,-0.0683 -0.06859,-0.0866 -0.0088,-0.0185 -0.03175,-0.0409 -0.05027,-0.0502 -0.01842,-0.009 -0.06066,-0.0433 -0.09378,-0.0758 -0.03312,-0.0324 -0.06684,-0.059 -0.07487,-0.059 -0.0078,0 -0.03332,-0.0194 -0.05606,-0.0431 -0.02274,-0.0237 -0.04899,-0.0431 -0.05851,-0.0431 -0.0098,0 -0.02441,-0.009 -0.03332,-0.0195 -0.04772,-0.0576 -0.255863,-0.14015 -0.390839,-0.15522 -0.226563,-0.0253 -0.696289,-0.006 -0.764797,0.0317 -0.01372,0.007 -0.05742,0.0137 -0.09711,0.0137 -0.03969,0 -0.07212,0.007 -0.07212,0.0143 0,0.007 -0.02224,0.0144 -0.04949,0.0144 -0.02724,0 -0.05351,0.007 -0.05841,0.0144 -0.0049,0.007 -0.0243,0.0143 -0.04312,0.0143 -0.01881,0 -0.03773,0.006 -0.04204,0.0125 -0.0039,0.007 -0.02871,0.0167 -0.05439,0.0219 -0.04919,0.01 -0.140916,0.0876 -0.140916,0.11945 0,0.035 -0.05723,0.019 -0.113154,-0.0316 -0.03067,-0.0277 -0.06173,-0.0503 -0.06909,-0.0503 -0.0078,0 -0.03538,-0.0226 -0.06223,-0.0503 -0.02685,-0.0277 -0.05595,-0.0503 -0.06467,-0.0503 -0.0088,0 -0.03793,-0.0226 -0.06468,-0.0503 -0.02684,-0.0277 -0.05615,-0.0503 -0.06526,-0.0503 -0.0088,0 -0.05468,-0.0421 -0.101443,-0.0935 -0.195929,-0.21557 -0.23598,-0.26188 -0.23598,-0.27285 0,-0.006 -0.0243,-0.0392 -0.05389,-0.0729 -0.02969,-0.0337 -0.07664,-0.0914 -0.104275,-0.12815 -0.08869,-0.11778 -0.107079,-0.14125 -0.147403,-0.18838 -0.02175,-0.0254 -0.03959,-0.0526 -0.03959,-0.0606 0,-0.007 -0.01039,-0.0229 -0.02313,-0.0335 -0.01264,-0.0105 -0.0291,-0.0324 -0.03655,-0.0485 -0.02626,-0.0571 -0.05223,-0.0964 -0.08957,-0.13532 -0.02078,-0.0216 -0.03772,-0.0449 -0.03772,-0.0516 0,-0.007 -0.01617,-0.0334 -0.03597,-0.0594 -0.0198,-0.0259 -0.03596,-0.052 -0.03596,-0.0577 0,-0.006 -0.01078,-0.0225 -0.02391,-0.037 -0.02694,-0.0298 -0.04851,-0.065 -0.09104,-0.14844 -0.01607,-0.0317 -0.04537,-0.0834 -0.06497,-0.11506 -0.0341,-0.055 -0.05193,-0.0895 -0.07095,-0.13662 -0.0049,-0.0119 -0.03116,-0.0604 -0.05859,-0.10786 -0.02744,-0.0473 -0.05645,-0.10121 -0.06438,-0.11945 -0.03243,-0.0746 -0.106882,-0.22619 -0.114359,-0.2329 -0.01461,-0.013 -0.05841,-0.11563 -0.05841,-0.13668 0,-0.0114 -0.01294,-0.0435 -0.02881,-0.0715 -0.01578,-0.028 -0.04175,-0.0736 -0.05752,-0.10154 -0.01578,-0.028 -0.0288,-0.0611 -0.0288,-0.0735 0,-0.0125 -0.02264,-0.0647 -0.05037,-0.11594 -0.02763,-0.0513 -0.05037,-0.10517 -0.05037,-0.11978 0,-0.0147 -0.0068,-0.0306 -0.0144,-0.0355 -0.0078,-0.005 -0.01461,-0.0231 -0.0148,-0.0403 -3.14e-4,-0.0173 -0.01,-0.0441 -0.02156,-0.0594 -0.01166,-0.0154 -0.02117,-0.0426 -0.02117,-0.0602 0,-0.0178 -0.0068,-0.0363 -0.0144,-0.0412 -0.0078,-0.005 -0.0144,-0.0216 -0.0144,-0.037 0,-0.0155 -0.0059,-0.0393 -0.01284,-0.0531 -0.03547,-0.0692 -0.07261,-0.16317 -0.09515,-0.24071 -0.01382,-0.0473 -0.03077,-0.0975 -0.03763,-0.11125 -0.0068,-0.0137 -0.01264,-0.0375 -0.01264,-0.0531 0,-0.0155 -0.0068,-0.0321 -0.0144,-0.037 -0.0078,-0.005 -0.0144,-0.0275 -0.0144,-0.0503 0,-0.0228 -0.0068,-0.0454 -0.0144,-0.0503 -0.0078,-0.005 -0.0144,-0.0243 -0.0144,-0.0431 0,-0.0188 -0.0068,-0.0382 -0.0144,-0.0431 -0.0078,-0.005 -0.0144,-0.0304 -0.0144,-0.0567 0,-0.0646 -0.04194,-0.19527 -0.07438,-0.23183 -0.0145,-0.0164 -0.02637,-0.0426 -0.02637,-0.0582 0,-0.0157 -0.0078,-0.0362 -0.01705,-0.0456 -0.05321,-0.0532 0.0781,-0.0123 0.138378,0.0431 0.01529,0.0141 0.03518,0.0257 0.04409,0.0257 0.0088,0 0.04968,0.0161 0.09074,0.036 0.04096,0.0198 0.08035,0.036 0.08751,0.036 0.0068,0 0.04988,0.0194 0.09505,0.0431 0.04507,0.0237 0.09064,0.0431 0.101091,0.0431 0.01048,0 0.06252,0.0226 0.115633,0.0503 0.05312,0.0277 0.107588,0.0503 0.121062,0.0503 0.01352,0 0.03587,0.0125 0.04978,0.028 0.01392,0.0154 0.04459,0.0322 0.06821,0.0373 0.02362,0.005 0.0786,0.0282 0.122219,0.0512 0.04361,0.0229 0.09123,0.0417 0.105785,0.0417 0.0145,0 0.03018,0.006 0.03469,0.0133 0.0049,0.007 0.03243,0.0211 0.06194,0.0305 0.05802,0.0185 0.139319,0.0514 0.17937,0.0725 0.01372,0.007 0.03763,0.0131 0.05311,0.0131 0.01548,0 0.03215,0.007 0.03705,0.0144 0.0049,0.007 0.0243,0.0144 0.04311,0.0144 0.01882,0 0.03793,0.006 0.04243,0.0132 0.0049,0.007 0.0292,0.0175 0.05478,0.0227 0.08183,0.0166 0.185758,0.0511 0.244123,0.0808 0.01372,0.007 0.03763,0.0128 0.05312,0.0128 0.01548,0 0.03214,0.007 0.03704,0.0143 0.0049,0.007 0.02185,0.0144 0.03783,0.0144 0.01588,0 0.09731,0.0226 0.180926,0.0503 0.08359,0.0277 0.160828,0.0503 0.171588,0.0503 0.01078,0 0.0196,0.005 0.0197,0.0108 1.67e-4,0.0133 0.06928,0.0464 0.09984,0.0478 0.01225,6.4e-4 0.04175,0.0136 0.06545,0.0289 0.02371,0.0153 0.05449,0.0318 0.0683,0.0366 0.01382,0.005 0.02518,0.0143 0.02518,0.0215 0,0.007 0.01294,0.0128 0.02871,0.0128 0.01578,0 0.02881,0.005 0.0289,0.0108 4.7e-4,0.0404 0.116133,0.0563 0.148637,0.0204 0.02224,-0.0245 0.02166,-0.0283 -0.0098,-0.0575 -0.01832,-0.0171 -0.03998,-0.0313 -0.04811,-0.0313 -0.0078,0 -0.02655,-0.0129 -0.04086,-0.0287 -0.01431,-0.0159 -0.03371,-0.0287 -0.04312,-0.0287 -0.0098,0 -0.02833,-0.0123 -0.04194,-0.0274 -0.01372,-0.0152 -0.04125,-0.0316 -0.06125,-0.0366 -0.01999,-0.005 -0.05674,-0.0286 -0.08163,-0.0523 -0.02489,-0.0237 -0.07242,-0.0558 -0.10552,-0.0712 -0.03312,-0.0154 -0.06399,-0.0341 -0.0685,-0.0415 -0.01294,-0.0208 -0.357296,-0.18802 -0.387459,-0.18802 -0.0148,0 -0.03733,-0.0117 -0.05018,-0.0258 -0.02175,-0.0241 -0.115505,-0.0748 -0.138671,-0.0748 -0.0059,0 -0.03469,-0.0276 -0.06438,-0.0613 -0.02969,-0.0337 -0.07261,-0.0709 -0.09535,-0.0825 -0.02274,-0.0117 -0.07035,-0.0408 -0.106,-0.0645 -0.03557,-0.0239 -0.08418,-0.0529 -0.107863,-0.0645 -0.02371,-0.0115 -0.0632,-0.0374 -0.0878,-0.0575 -0.0246,-0.02 -0.05859,-0.0477 -0.07566,-0.0614 -0.01705,-0.0138 -0.03489,-0.0252 -0.03968,-0.0252 -0.0049,0 -0.03057,-0.0178 -0.05723,-0.0396 -0.02675,-0.0218 -0.07056,-0.0574 -0.09731,-0.079 -0.02684,-0.0218 -0.05487,-0.0396 -0.06233,-0.0396 -0.0078,0 -0.02871,-0.0161 -0.04723,-0.036 -0.01862,-0.0198 -0.04106,-0.036 -0.04997,-0.036 -0.0088,0 -0.03851,-0.0233 -0.06586,-0.0518 -0.02724,-0.0286 -0.06242,-0.0567 -0.0781,-0.0627 -0.03617,-0.0138 -0.507394,-0.46223 -0.509325,-0.48467 -7.94e-4,-0.009 -0.03057,-0.0444 -0.06615,-0.0784 -0.03557,-0.0339 -0.06468,-0.0688 -0.06468,-0.0775 0,-0.009 -0.0291,-0.0443 -0.06467,-0.0791 -0.03557,-0.035 -0.06477,-0.0709 -0.06477,-0.0798 0,-0.009 -0.01294,-0.0281 -0.02881,-0.0424 -0.01578,-0.0142 -0.02871,-0.0338 -0.02871,-0.0436 0,-0.01 -0.0088,-0.0253 -0.02068,-0.0348 -0.01137,-0.01 -0.03469,-0.0441 -0.05193,-0.0772 -0.01715,-0.0331 -0.03577,-0.0635 -0.04125,-0.0674 -0.03204,-0.0229 -0.136515,-0.27413 -0.142229,-0.34181 -0.0039,-0.0417 -0.01206,-0.0793 -0.019,-0.0836 -0.0068,-0.004 -0.01265,-0.0329 -0.01265,-0.0636 0,-0.0306 -0.0068,-0.0598 -0.0144,-0.0647 -0.0078,-0.005 -0.0144,-0.0525 -0.0144,-0.10583 0,-0.0533 -0.0059,-0.1031 -0.01322,-0.11061 -0.01372,-0.0142 -0.01705,-0.0452 -0.04743,-0.44045 -0.01009,-0.1319 -0.02332,-0.24462 -0.0292,-0.25048 -0.0059,-0.006 -0.01078,-0.0707 -0.01078,-0.14404 0,-0.0734 -0.0068,-0.13737 -0.0144,-0.14226 -0.0078,-0.005 -0.0144,-0.0663 -0.0144,-0.13662 0,-0.0703 -0.0068,-0.13174 -0.0144,-0.13663 -0.0088,-0.005 -0.0144,-0.0855 -0.0144,-0.19213 0,-0.10077 -0.0059,-0.18938 -0.01342,-0.1969 -0.0078,-0.007 -0.01793,-0.30041 -0.02381,-0.67931 -0.0059,-0.36613 -0.01578,-0.66906 -0.02254,-0.6732 -0.01588,-0.01 -0.01588,-1.12759 -10e-6,-1.12759 0.02714,0 0.08976,0.0967 0.173362,0.26731 0.01588,0.0324 0.03881,0.0672 0.05105,0.0772 0.01224,0.0102 0.02224,0.0265 0.02224,0.0362 0,0.01 0.01617,0.03 0.03596,0.0448 0.0198,0.0149 0.03596,0.0344 0.03596,0.0434 0,0.009 0.0099,0.0246 0.02195,0.0347 0.02539,0.021 0.10748,0.13983 0.10748,0.15548 0,0.006 0.03557,0.0457 0.07908,0.0887 0.04351,0.0429 0.07918,0.0849 0.07918,0.093 4e-5,0.007 0.03567,0.05 0.07908,0.0929 0.04351,0.0429 0.07898,0.0843 0.07898,0.0919 0,0.007 0.0243,0.0409 0.05389,0.0741 0.07702,0.0861 0.104265,0.12133 0.104265,0.1347 0,0.007 0.01616,0.0269 0.03596,0.0455 0.0198,0.0186 0.03596,0.0412 0.03596,0.0501 0,0.009 0.0194,0.035 0.04311,0.0577 0.02372,0.0227 0.04312,0.0486 0.04312,0.0575 0,0.009 0.02264,0.038 0.05037,0.0649 0.02763,0.0268 0.05037,0.0548 0.05037,0.0623 0,0.0132 0.05998,0.0874 0.14407,0.17828 0.02362,0.0255 0.04292,0.0518 0.04292,0.0583 0,0.007 0.02264,0.0339 0.05037,0.0608 0.02763,0.0268 0.05037,0.0559 0.05037,0.0647 0,0.009 0.02264,0.038 0.05037,0.0647 0.02764,0.0268 0.05037,0.0561 0.05037,0.0649 0,0.009 0.01941,0.0348 0.04312,0.0574 0.02371,0.0227 0.04312,0.0485 0.04312,0.0575 0,0.009 0.02264,0.038 0.05037,0.0649 0.02763,0.0268 0.05037,0.055 0.05037,0.0625 0,0.0127 0.05135,0.0723 0.202642,0.23536 0.03097,0.0333 0.05625,0.0659 0.05625,0.0724 0,0.007 0.03557,0.0469 0.07908,0.0899 0.04351,0.0429 0.07908,0.0851 0.07908,0.0935 0,0.009 0.03557,0.0506 0.07908,0.0935 0.04351,0.0429 0.07908,0.085 0.07908,0.0934 0,0.009 0.04205,0.0569 0.09349,0.10792 0.05144,0.051 0.09349,0.0995 0.09349,0.10795 0,0.009 0.03557,0.0505 0.07908,0.0934 0.04351,0.0429 0.07908,0.0838 0.07908,0.0907 0,0.007 0.05174,0.064 0.115055,0.12673 0.0633,0.0628 0.115054,0.119 0.115054,0.12494 0,0.006 0.04204,0.0525 0.09349,0.10343 0.05145,0.051 0.09349,0.0994 0.09349,0.10772 0,0.007 0.06477,0.0795 0.143816,0.15834 0.07908,0.0788 0.143816,0.15003 0.143816,0.15826 0,0.007 0.05174,0.0664 0.115055,0.12937 0.0633,0.0629 0.115055,0.12109 0.115055,0.12928 0,0.007 0.0976,0.11191 0.216881,0.23045 0.119289,0.11855 0.222721,0.23023 0.229855,0.24816 0.0068,0.0179 0.0294,0.0388 0.04939,0.0464 0.02008,0.007 0.04273,0.0302 0.05037,0.0503 0.0078,0.0201 0.02989,0.0425 0.04939,0.05 0.01951,0.007 0.04567,0.0332 0.05811,0.0571 0.01244,0.0241 0.03067,0.0438 0.04047,0.0438 0.0098,0 0.09525,0.0777 0.189963,0.17258 0.09466,0.0949 0.178927,0.17257 0.187227,0.17257 0.0078,0 0.05027,0.0356 0.09319,0.079 0.04292,0.0435 0.08506,0.079 0.09358,0.079 0.0088,0 0.04409,0.0291 0.07898,0.0647 0.03489,0.0356 0.07055,0.0647 0.07928,0.0647 0.0088,0 0.03773,0.0226 0.06458,0.0503 0.02685,0.0277 0.0541,0.0503 0.06046,0.0503 0.0068,0 0.03204,0.0194 0.05683,0.0431 0.02479,0.0237 0.05067,0.0431 0.05743,0.0431 0.01715,0 0.01538,0.0538 -0.002,0.0647 -0.0078,0.005 -0.0144,0.0239 -0.0144,0.0422 0,0.0184 -0.0098,0.0415 -0.02156,0.0513 -0.01186,0.01 -0.02156,0.0329 -0.02156,0.0513 0,0.0184 -0.0068,0.0373 -0.0144,0.0423 -0.0078,0.005 -0.0144,0.0244 -0.0144,0.0431 0,0.0189 -0.0059,0.038 -0.01313,0.0423 -0.0068,0.005 -0.01745,0.0356 -0.02274,0.0692 -0.01116,0.0711 -0.03694,0.15579 -0.05341,0.17538 -0.0059,0.007 -0.01146,0.0282 -0.01146,0.0459 0,0.0177 -0.0068,0.0362 -0.0144,0.0411 -0.0078,0.005 -0.0144,0.0341 -0.0144,0.0647 0,0.0306 -0.0068,0.0598 -0.0144,0.0647 -0.0078,0.005 -0.0144,0.0363 -0.0144,0.0698 0,0.0335 -0.0059,0.0673 -0.01372,0.0748 -0.0078,0.007 -0.01783,0.0947 -0.02273,0.19342 -0.0049,0.0988 -0.01509,0.19264 -0.02273,0.20851 -0.0291,0.0608 0.01048,1.03605 0.04469,1.09994 0.0078,0.0149 0.0145,0.0432 0.0145,0.0631 0,0.0198 0.0068,0.04 0.0144,0.045 0.0078,0.005 0.0144,0.0307 0.0144,0.0575 0,0.0268 0.0068,0.0526 0.0144,0.0576 0.0078,0.005 0.0144,0.0267 0.0144,0.0483 0,0.0217 0.0059,0.0456 0.01205,0.0531 0.0068,0.007 0.02038,0.0363 0.03067,0.064 0.07664,0.20772 0.175018,0.37183 0.296414,0.49419 0.04282,0.0432 0.0779,0.084 0.0779,0.0908 0,0.0157 0.34883,0.36418 0.364489,0.36418 0.0068,0 0.05811,0.0448 0.11485,0.0995 0.132018,0.12735 0.233216,0.21692 0.245094,0.21692 0.0049,0 0.03998,0.0214 0.07751,0.0475 0.03753,0.026 0.09153,0.0583 0.120113,0.0716 0.02858,0.0133 0.0601,0.0341 0.07008,0.046 0.01,0.0121 0.02653,0.0219 0.03684,0.0219 0.01028,0 0.03794,0.0161 0.06143,0.036 0.0235,0.0198 0.05227,0.036 0.06392,0.036 0.01165,0 0.07828,0.0291 0.148022,0.0647 0.06977,0.0356 0.138185,0.0647 0.152059,0.0647 0.01387,0 0.02922,0.007 0.03411,0.0143 0.0049,0.007 0.02108,0.0144 0.03598,0.0144 0.0149,0 0.04849,0.0123 0.07465,0.0272 0.02616,0.0151 0.07815,0.0316 0.115542,0.0367 0.03738,0.005 0.07175,0.0157 0.07635,0.0231 0.0046,0.007 0.03026,0.0135 0.05701,0.0135 0.02675,0 0.05264,0.007 0.05753,0.0144 0.0049,0.007 0.03402,0.0144 0.06471,0.0144 0.03071,0 0.05982,0.007 0.06471,0.0144 0.005,0.007 0.07212,0.0144 0.15205,0.0144 0.08901,0 0.153968,0.007 0.17173,0.0178 0.02156,0.0134 0.03497,0.0137 0.05467,0.002 0.01783,-0.0111 0.03422,-0.0118 0.05172,-0.002 0.0175,0.01 0.03066,0.01 0.04149,-0.002 0.0093,-0.009 0.07103,-0.0159 0.148773,-0.0159 0.0731,0 0.1369,-0.007 0.141788,-0.0144 0.0049,-0.007 0.03402,-0.0144 0.06471,-0.0144 0.0307,0 0.05982,-0.007 0.06471,-0.0144 0.0049,-0.007 0.03724,-0.0144 0.0719,-0.0144 0.03466,0 0.06662,-0.006 0.07104,-0.0129 0.0044,-0.007 0.04687,-0.0174 0.09436,-0.0231 0.04749,-0.006 0.08995,-0.0159 0.09436,-0.023 0.0044,-0.007 0.02989,-0.0129 0.05665,-0.0129 0.02675,0 0.05263,-0.007 0.05752,-0.0143 0.0049,-0.007 0.02154,-0.0144 0.03699,-0.0144 0.02716,0 0.04115,-0.005 0.110219,-0.0409 0.01769,-0.009 0.04174,-0.0166 0.05345,-0.0166 0.03666,0 0.532505,-0.23511 0.547701,-0.2597 0.0043,-0.007 0.03509,-0.0257 0.06839,-0.0416 0.07265,-0.0347 0.110258,-0.0581 0.139421,-0.0872 0.03196,-0.032 0.126091,-0.10052 0.137892,-0.10052 0.02297,0 0.293759,-0.24424 0.293759,-0.26497 0,-0.009 0.04207,-0.058 0.09348,-0.10894 0.05142,-0.051 0.09348,-0.0997 0.09348,-0.10823 0,-0.009 0.02265,-0.0375 0.05034,-0.0644 0.02768,-0.0268 0.05034,-0.0557 0.05034,-0.0641 0,-0.009 0.01618,-0.0276 0.03595,-0.0423 0.01978,-0.0148 0.03595,-0.0337 0.03595,-0.0418 0,-0.007 0.01061,-0.0265 0.02357,-0.0408 0.04748,-0.0524 0.235302,-0.43288 0.235302,-0.47658 0,-0.0125 0.0065,-0.0268 0.01438,-0.0318 0.0079,-0.005 0.01438,-0.0244 0.01438,-0.0431 0,-0.0188 0.0065,-0.0382 0.01438,-0.0431 0.0079,-0.005 0.01438,-0.0307 0.01438,-0.0576 0,-0.0268 0.0065,-0.0526 0.01438,-0.0576 0.0079,-0.005 0.01438,-0.0267 0.01438,-0.0483 0,-0.0217 0.0081,-0.0476 0.01797,-0.0575 0.02595,-0.0259 0.0259,-0.98512 -5.1e-5,-1.01108 -0.01014,-0.0101 -0.01793,-0.0537 -0.01793,-0.1005 0,-0.0454 -0.0065,-0.0865 -0.01438,-0.0914 -0.0079,-0.005 -0.01438,-0.034 -0.01438,-0.0648 0,-0.0306 -0.0065,-0.0598 -0.01438,-0.0647 -0.0079,-0.005 -0.01438,-0.0307 -0.01438,-0.0575 0,-0.0268 -0.0056,-0.052 -0.01234,-0.0562 -0.0068,-0.004 -0.01611,-0.0442 -0.02075,-0.0892 -0.0046,-0.0449 -0.01527,-0.0884 -0.02362,-0.0968 -0.0084,-0.009 -0.01523,-0.0297 -0.01523,-0.0475 0,-0.0177 -0.0065,-0.0362 -0.01438,-0.0412 -0.0079,-0.005 -0.01438,-0.0216 -0.01438,-0.037 0,-0.0155 -0.0063,-0.0394 -0.01394,-0.0531 -0.023,-0.0413 -0.05799,-0.1602 -0.05799,-0.19721 0,-0.019 -0.0065,-0.0386 -0.01438,-0.0435 -0.0079,-0.005 -0.01438,-0.0198 -0.01438,-0.0331 0,-0.0329 -0.09988,-0.23297 -0.116299,-0.23297 -0.03032,0 -0.01051,-0.0582 0.02642,-0.0776 0.02175,-0.0115 0.06513,-0.0472 0.0964,-0.0795 0.03127,-0.0323 0.06382,-0.0587 0.07236,-0.0587 0.0085,0 0.05394,-0.0388 0.100899,-0.0863 0.04697,-0.0475 0.09237,-0.0863 0.100897,-0.0863 0.0085,0 0.04078,-0.0259 0.07168,-0.0576 0.0309,-0.0317 0.06309,-0.0576 0.07154,-0.0576 0.0084,0 0.07333,-0.0582 0.144192,-0.12943 0.07086,-0.0711 0.133755,-0.12944 0.139769,-0.12944 0.006,0 0.08197,-0.0712 0.168799,-0.15819 0.08682,-0.087 0.16311,-0.1582 0.169524,-0.1582 0.02173,0 0.899751,-0.90147 1.260695,-1.29435 0.08357,-0.0909 0.197346,-0.21433 0.252839,-0.27418 0.05549,-0.0599 0.100899,-0.11506 0.100899,-0.12272 0,-0.007 0.03559,-0.0491 0.0791,-0.092 0.0435,-0.0429 0.0791,-0.085 0.0791,-0.0934 0,-0.009 0.04207,-0.0571 0.09348,-0.10794 0.05142,-0.051 0.09348,-0.0998 0.09348,-0.10848 0,-0.009 0.03074,-0.0454 0.06831,-0.0814 0.07672,-0.0737 0.161792,-0.1758 0.161792,-0.19413 0,-0.007 0.03545,-0.0476 0.07878,-0.0908 0.04333,-0.0433 0.07893,-0.0855 0.0791,-0.0939 1.59e-4,-0.009 0.02296,-0.0371 0.05067,-0.0639 0.02768,-0.0269 0.05034,-0.0562 0.05034,-0.0654 0,-0.009 0.01294,-0.0283 0.02876,-0.0425 0.01581,-0.0143 0.02876,-0.0321 0.02876,-0.0397 0,-0.007 0.01635,-0.034 0.03635,-0.0589 0.01999,-0.0249 0.05396,-0.0672 0.0755,-0.0942 0.02153,-0.0269 0.06225,-0.0754 0.09048,-0.10787 0.02823,-0.0324 0.06191,-0.0818 0.07483,-0.10996 0.01292,-0.0282 0.03675,-0.0631 0.05294,-0.0777 0.01619,-0.0147 0.02944,-0.0343 0.02944,-0.0436 0,-0.01 0.01296,-0.0288 0.02876,-0.0431 0.01581,-0.0143 0.02876,-0.0343 0.02876,-0.0441 0,-0.01 0.005,-0.0203 0.01102,-0.0229 0.0096,-0.004 0.0632,-0.0679 0.21139,-0.25125 0.02006,-0.0248 0.03648,-0.051 0.03648,-0.0583 0,-0.007 0.02264,-0.0352 0.05033,-0.0619 0.02768,-0.0268 0.05034,-0.0559 0.05034,-0.0646 0,-0.009 0.02589,-0.0411 0.05753,-0.072 0.03164,-0.0309 0.05752,-0.0632 0.05752,-0.0721 0,-0.009 0.02265,-0.0379 0.05034,-0.0646 0.02768,-0.0268 0.05034,-0.0543 0.05034,-0.0608 0,-0.007 0.02912,-0.0403 0.06471,-0.0749 0.03559,-0.0347 0.06471,-0.0675 0.06471,-0.0731 0,-0.006 0.0178,-0.032 0.03955,-0.0587 0.02175,-0.0267 0.05735,-0.0706 0.0791,-0.0973 0.02175,-0.0268 0.03955,-0.0552 0.03955,-0.063 0,-0.007 0.01037,-0.0228 0.02307,-0.0334 0.01268,-0.0105 0.02884,-0.0324 0.03592,-0.0485 0.02133,-0.0487 0.0586,-0.10196 0.131566,-0.18792 0.02175,-0.0256 0.03955,-0.0528 0.03955,-0.0604 0,-0.007 0.01296,-0.0256 0.02876,-0.0399 0.01581,-0.0143 0.02876,-0.031 0.02876,-0.0368 0,-0.0167 0.07572,-0.12849 0.08709,-0.12849 0.02585,0 0.04569,0.0434 0.02903,0.0634 -0.0115,0.0139 -0.01206,0.0232 -0.0018,0.0296 0.02034,0.0125 0.02101,1.15277 6.34e-4,1.16535 -0.0089,0.006 -0.01438,0.14367 -0.01438,0.36673 0,0.22304 -0.0054,0.36118 -0.01438,0.36672 -0.009,0.006 -0.01438,0.15806 -0.01438,0.40987 0,0.25181 -0.0054,0.4043 -0.01438,0.40987 -0.0089,0.006 -0.01501,0.15898 -0.01603,0.40714 -0.0024,0.57816 -0.03267,1.26451 -0.05686,1.28919 -0.0073,0.007 -0.0134,0.0314 -0.0134,0.0531 0,0.0217 -0.0065,0.0434 -0.01438,0.0483 -0.0079,0.005 -0.01438,0.0216 -0.01438,0.037 0,0.0155 -0.0057,0.0394 -0.01262,0.0531 -0.0069,0.0137 -0.02339,0.0477 -0.03654,0.0753 -0.03408,0.0717 -0.05775,0.11098 -0.08514,0.14125 -0.01314,0.0146 -0.02389,0.0305 -0.02389,0.0354 0,0.0196 -0.06899,0.10802 -0.146348,0.18754 -0.04482,0.046 -0.0922,0.10632 -0.105285,0.1339 -0.01308,0.0275 -0.03463,0.0538 -0.04787,0.0585 -0.03343,0.0116 -0.146325,0.12154 -0.146325,0.1425 0,0.01 -0.01884,0.0237 -0.04186,0.0318 -0.04116,0.0143 -0.303296,0.26645 -0.303296,0.2917 0,0.007 -0.01154,0.0129 -0.02566,0.0129 -0.01411,0 -0.06081,0.0356 -0.103774,0.079 -0.04297,0.0435 -0.08508,0.0791 -0.0936,0.0791 -0.0085,0 -0.04406,0.0291 -0.07899,0.0647 -0.03494,0.0356 -0.07057,0.0647 -0.07916,0.0647 -0.0086,0 -0.04094,0.0258 -0.07183,0.0576 -0.0309,0.0317 -0.06356,0.0576 -0.07259,0.0576 -0.02384,0 -0.06836,0.0533 -0.05823,0.0697 0.0049,0.007 -0.0033,0.0109 -0.01923,0.007 -0.0163,-0.004 -0.04166,0.005 -0.06114,0.0226 -0.09583,0.0857 -0.15329,0.13125 -0.165839,0.13125 -0.0077,0 -0.02618,0.0134 -0.04105,0.0299 -0.01486,0.0165 -0.05308,0.0418 -0.08492,0.0563 -0.03184,0.0146 -0.07357,0.0431 -0.09275,0.0636 -0.01918,0.0204 -0.04064,0.0371 -0.0477,0.0371 -0.02982,0 -0.183426,0.13377 -0.183477,0.15979 -1.1e-5,0.005 -0.01496,0.006 -0.03325,0.002 -0.01938,-0.004 -0.0411,0.002 -0.0521,0.0164 -0.01037,0.0125 -0.02677,0.0227 -0.03645,0.0227 -0.0097,0 -0.02931,0.0129 -0.04362,0.0287 -0.01432,0.0158 -0.03192,0.0288 -0.03914,0.0288 -0.01579,0 -0.09837,0.0617 -0.16863,0.12576 -0.0281,0.0257 -0.05913,0.0467 -0.06895,0.0467 -0.0098,4e-5 -0.02594,0.013 -0.03582,0.0288 -0.0099,0.0159 -0.0264,0.0288 -0.03669,0.0288 -0.0103,0 -0.03619,0.0161 -0.05751,0.036 -0.02132,0.0198 -0.04917,0.036 -0.06186,0.036 -0.0127,0 -0.03385,0.0119 -0.04701,0.0264 -0.02235,0.0247 -0.02218,0.0281 0.0026,0.0503 0.02704,0.0245 0.08267,0.0324 0.09126,0.0131 0.0079,-0.0178 0.127706,-0.0754 0.156725,-0.0754 0.01483,0 0.05001,-0.0129 0.07818,-0.0288 0.02816,-0.0158 0.06396,-0.0288 0.07953,-0.0288 0.01558,0 0.02833,-0.006 0.02833,-0.0133 0,-0.007 0.01934,-0.0174 0.04298,-0.0226 0.02363,-0.005 0.04667,-0.0154 0.05118,-0.0227 0.0044,-0.007 0.02057,-0.0133 0.03568,-0.0133 0.02941,0 0.114251,-0.0438 0.170465,-0.088 0.0189,-0.0149 0.04415,-0.027 0.05614,-0.027 0.02102,0 0.175396,-0.0696 0.190048,-0.0857 0.0073,-0.007 0.01719,-0.0129 0.165388,-0.0811 0.04745,-0.0219 0.103468,-0.0515 0.124465,-0.0659 0.02099,-0.0144 0.05095,-0.0262 0.06655,-0.0262 0.01561,0 0.03644,-0.01 0.04629,-0.0216 0.0098,-0.0119 0.032,-0.0216 0.04922,-0.0216 0.01723,0 0.03747,-0.006 0.04498,-0.013 0.02449,-0.0233 0.121884,-0.0734 0.142948,-0.0734 0.01131,0 0.07714,-0.0291 0.146318,-0.0647 0.06918,-0.0356 0.132719,-0.0647 0.14121,-0.0647 0.0085,0 0.09807,-0.0417 0.199067,-0.0925 0.100997,-0.0509 0.202671,-0.0966 0.225945,-0.10177 0.02327,-0.005 0.04601,-0.0153 0.05052,-0.0226 0.0044,-0.007 0.01608,-0.0133 0.02572,-0.0133 0.0256,0 0.01192,0.10999 -0.02097,0.16854 -0.01486,0.0264 -0.027,0.0641 -0.027,0.0838 0,0.0196 -0.0065,0.0486 -0.01438,0.0643 -0.0079,0.0157 -0.02086,0.0415 -0.02876,0.0571 -0.0079,0.0157 -0.01438,0.0413 -0.01438,0.0566 0,0.0155 -0.0057,0.0317 -0.01273,0.036 -0.0069,0.004 -0.01708,0.0369 -0.0224,0.0724 -0.0054,0.0355 -0.01578,0.0683 -0.02324,0.0729 -0.0074,0.005 -0.01355,0.0238 -0.01355,0.0427 0,0.0188 -0.0065,0.0382 -0.01438,0.0431 -0.0079,0.005 -0.01438,0.0216 -0.01438,0.0369 0,0.0155 -0.0065,0.0409 -0.01438,0.0566 -0.0079,0.0157 -0.02004,0.0402 -0.02699,0.0543 -0.0069,0.0141 -0.0172,0.0529 -0.02282,0.0862 -0.0056,0.0333 -0.01613,0.0642 -0.02335,0.0686 -0.0072,0.005 -0.01312,0.0265 -0.01312,0.0491 0,0.0226 -0.01234,0.0658 -0.02742,0.0962 -0.03679,0.0742 -0.06782,0.1482 -0.08044,0.19192 -0.01263,0.0436 -0.04366,0.1177 -0.08044,0.1919 -0.01507,0.0304 -0.02742,0.0669 -0.02742,0.0809 0,0.0141 -0.0097,0.0337 -0.02157,0.0435 -0.01186,0.01 -0.02157,0.0262 -0.02157,0.0362 0,0.0101 -0.01941,0.0553 -0.04315,0.10038 -0.02373,0.0451 -0.04315,0.0885 -0.04315,0.0963 0,0.0204 -0.144069,0.312 -0.158624,0.321 -0.0067,0.004 -0.02874,0.0427 -0.04903,0.0855 -0.0203,0.0429 -0.04292,0.0818 -0.05032,0.0863 -0.0073,0.005 -0.03115,0.0454 -0.0528,0.0907 -0.02166,0.0454 -0.05964,0.10831 -0.08441,0.13994 -0.02478,0.0317 -0.06275,0.0931 -0.08441,0.13663 -0.05247,0.10542 -0.07206,0.13855 -0.100531,0.17002 -0.01314,0.0145 -0.02389,0.0333 -0.02389,0.0417 0,0.009 -0.0097,0.019 -0.02157,0.0236 -0.01186,0.005 -0.02157,0.0212 -0.02157,0.037 0,0.0158 -0.01942,0.0509 -0.04315,0.0779 -0.02374,0.027 -0.04315,0.0553 -0.04315,0.0627 0,0.007 -0.01618,0.0288 -0.03595,0.0473 -0.01978,0.0186 -0.03595,0.0413 -0.03595,0.0506 0,0.009 -0.01294,0.0286 -0.02876,0.0428 -0.01581,0.0142 -0.02876,0.0343 -0.02876,0.0442 0,0.01 -0.0048,0.0203 -0.01078,0.023 -0.01644,0.007 -0.08989,0.10887 -0.08989,0.1243 0,0.007 -0.01038,0.0221 -0.02307,0.0328 -0.01268,0.0105 -0.02914,0.0324 -0.03657,0.0485 -0.02056,0.0447 -0.04848,0.0911 -0.0717,0.11915 -0.0115,0.0139 -0.03035,0.0446 -0.04187,0.0682 -0.02176,0.0446 -0.03718,0.066 -0.103646,0.14437 -0.02175,0.0256 -0.03955,0.053 -0.03955,0.0608 0,0.007 -0.01009,0.0227 -0.02241,0.0329 -0.01232,0.0102 -0.03186,0.0413 -0.04341,0.0688 -0.01155,0.0276 -0.04838,0.081 -0.08187,0.11843 -0.05919,0.0663 -0.103915,0.12117 -0.144724,0.17758 -0.01957,0.027 -0.02082,0.0269 -0.06374,-0.004 -0.02409,-0.0171 -0.05698,-0.0312 -0.07308,-0.0312 -0.01611,0 -0.03282,-0.006 -0.03715,-0.0128 -0.0043,-0.007 -0.03691,-0.017 -0.07242,-0.0225 -0.03551,-0.005 -0.06833,-0.0158 -0.07293,-0.0232 -0.0046,-0.007 -0.02749,-0.0135 -0.05087,-0.0135 -0.02338,0 -0.05534,-0.007 -0.07106,-0.0143 -0.01571,-0.007 -0.04143,-0.0208 -0.05714,-0.0288 -0.01571,-0.007 -0.06386,-0.0144 -0.107015,-0.0144 -0.04315,0 -0.08244,-0.007 -0.08733,-0.0144 -0.0054,-0.009 -0.100538,-0.0144 -0.237296,-0.0144 -0.136759,0 -0.231975,0.006 -0.237298,0.0144 -0.0049,0.007 -0.04696,0.0144 -0.09348,0.0144 -0.04653,0 -0.08859,0.007 -0.09348,0.0144 -0.0049,0.007 -0.03402,0.0143 -0.06471,0.0143 -0.03071,0 -0.0594,0.006 -0.06377,0.0128 -0.0044,0.007 -0.03226,0.0161 -0.06197,0.0202 -0.09335,0.0128 -0.195696,0.0396 -0.255364,0.0669 -0.03164,0.0145 -0.09312,0.0427 -0.136625,0.0624 -0.225573,0.10294 -0.335673,0.16402 -0.381012,0.21135 -0.02279,0.0238 -0.04856,0.0432 -0.05726,0.0432 -0.01952,0 -0.151371,0.1322 -0.151371,0.15176 0,0.007 -0.06471,0.0786 -0.143817,0.15744 -0.0791,0.0788 -0.143815,0.15005 -0.143815,0.15834 0,0.007 -0.04207,0.0567 -0.09348,0.10771 -0.05142,0.051 -0.09348,0.0984 -0.09348,0.10552 0,0.007 -0.03155,0.046 -0.0701,0.0867 -0.147669,0.15557 -0.217535,0.23532 -0.217535,0.24831 0,0.007 -0.03559,0.0486 -0.0791,0.0916 -0.0435,0.043 -0.0791,0.0851 -0.0791,0.0935 0,0.009 -0.0356,0.0504 -0.0791,0.0935 -0.0435,0.043 -0.0791,0.0843 -0.0791,0.0918 0,0.007 -0.04046,0.0575 -0.08989,0.11079 -0.04944,0.0534 -0.122243,0.13669 -0.161793,0.18509 -0.03955,0.0484 -0.10103,0.12037 -0.136625,0.15992 -0.03559,0.0396 -0.09707,0.11064 -0.136625,0.15798 -0.03955,0.0473 -0.10265,0.12053 -0.140221,0.16261 -0.03757,0.0422 -0.06831,0.083 -0.06831,0.0907 0,0.007 -0.01618,0.0293 -0.03595,0.0478 -0.01977,0.0186 -0.03595,0.0399 -0.03595,0.0473 0,0.0144 -0.0489,0.0772 -0.142214,0.18275 -0.0315,0.0356 -0.09115,0.10356 -0.132584,0.15101 -0.04143,0.0475 -0.08392,0.0914 -0.09442,0.0978 -0.01049,0.006 -0.01909,0.0199 -0.01909,0.0301 0,0.0102 -0.01296,0.0304 -0.02876,0.0447 -0.01581,0.0143 -0.02876,0.0326 -0.02876,0.0407 0,0.007 -0.01075,0.0264 -0.02389,0.0411 -0.02514,0.0277 -0.0521,0.0712 -0.07466,0.12026 -0.0074,0.0161 -0.02388,0.038 -0.03657,0.0485 -0.01268,0.0105 -0.02307,0.0273 -0.02307,0.0374 0,0.0506 -0.04701,0.0265 -0.138766,-0.0709 z m 0.04169,-5.96976 c -0.01779,-0.0273 -0.03237,-0.0644 -0.03237,-0.0823 -1.4e-5,-0.0338 -0.04375,-0.16021 -0.06165,-0.17811 -0.0057,-0.006 -0.01024,-0.0287 -0.01024,-0.0512 0,-0.0394 -0.0042,-0.0521 -0.0409,-0.12304 -0.0091,-0.0176 -0.01663,-0.0513 -0.01663,-0.0747 0,-0.0233 -0.0061,-0.0463 -0.01355,-0.0509 -0.0074,-0.005 -0.01792,-0.0374 -0.02323,-0.0729 -0.0054,-0.0355 -0.01541,-0.0681 -0.02241,-0.0724 -0.0069,-0.004 -0.01273,-0.0265 -0.01273,-0.0492 0,-0.0228 -0.0065,-0.0454 -0.01438,-0.0503 -0.0079,-0.005 -0.01438,-0.0243 -0.01438,-0.0431 0,-0.0188 -0.0065,-0.0382 -0.01438,-0.0431 -0.0079,-0.005 -0.01438,-0.0234 -0.01438,-0.0412 0,-0.0177 -0.0054,-0.0385 -0.01196,-0.0459 -0.0066,-0.007 -0.02387,-0.0544 -0.03845,-0.10425 -0.01458,-0.0497 -0.03184,-0.0939 -0.03839,-0.0979 -0.0066,-0.004 -0.01188,-0.0231 -0.01188,-0.0424 0,-0.0194 -0.0048,-0.0352 -0.01078,-0.0352 -0.01726,-1.6e-4 -0.04674,-0.074 -0.04674,-0.11697 0,-0.0217 -0.0061,-0.0432 -0.01355,-0.0478 -0.0074,-0.005 -0.0179,-0.0374 -0.02324,-0.0729 -0.0054,-0.0355 -0.01541,-0.0681 -0.02241,-0.0724 -0.0069,-0.004 -0.01273,-0.0233 -0.01273,-0.0422 0,-0.0189 -0.0065,-0.0382 -0.01438,-0.0431 -0.0079,-0.005 -0.01438,-0.0275 -0.01438,-0.0503 0,-0.0228 -0.0065,-0.0454 -0.01438,-0.0503 -0.0079,-0.005 -0.01438,-0.0234 -0.01438,-0.0412 0,-0.0177 -0.0054,-0.0385 -0.01196,-0.0459 -0.0066,-0.007 -0.02347,-0.0557 -0.03754,-0.10714 -0.03091,-0.11287 -0.03832,-0.13322 -0.0779,-0.21347 -0.01695,-0.0344 -0.0308,-0.081 -0.0308,-0.10344 0,-0.0226 -0.0059,-0.0446 -0.01312,-0.049 -0.0072,-0.005 -0.01773,-0.0354 -0.02334,-0.0686 -0.0056,-0.0333 -0.0159,-0.072 -0.02283,-0.0862 -0.0069,-0.0141 -0.01908,-0.0386 -0.02699,-0.0543 -0.0079,-0.0157 -0.01438,-0.0413 -0.01438,-0.0566 0,-0.0155 -0.0065,-0.0321 -0.01438,-0.037 -0.0079,-0.005 -0.01438,-0.0236 -0.01438,-0.0417 0,-0.0179 -0.0044,-0.0372 -0.01009,-0.0428 -0.0125,-0.0125 -0.06122,-0.16667 -0.06195,-0.19606 -3.17e-4,-0.0119 -0.01318,-0.0378 -0.02866,-0.0576 -0.01547,-0.0198 -0.02828,-0.0501 -0.02845,-0.0674 -1.59e-4,-0.0173 -0.0068,-0.0355 -0.0147,-0.0404 -0.0079,-0.005 -0.01438,-0.0243 -0.01438,-0.0431 0,-0.0189 -0.0061,-0.038 -0.01355,-0.0426 -0.0074,-0.005 -0.0179,-0.0374 -0.02323,-0.0729 -0.0054,-0.0355 -0.01541,-0.0681 -0.0224,-0.0724 -0.0069,-0.004 -0.01273,-0.0204 -0.01273,-0.036 0,-0.0155 -0.0074,-0.0427 -0.01663,-0.0602 -0.03491,-0.0675 -0.0409,-0.0828 -0.0409,-0.10408 0,-0.0121 -0.0057,-0.0332 -0.01266,-0.0469 -0.0069,-0.0137 -0.02404,-0.0605 -0.03796,-0.10407 -0.01391,-0.0435 -0.03089,-0.0853 -0.03769,-0.0928 -0.0068,-0.007 -0.01237,-0.028 -0.01237,-0.0454 0,-0.0174 -0.01211,-0.0566 -0.02692,-0.087 -0.03873,-0.0795 -0.0739,-0.19289 -0.07383,-0.23781 4e-5,-0.0212 -0.0063,-0.0427 -0.01432,-0.0477 -0.0079,-0.005 -0.01438,-0.0216 -0.01438,-0.0369 0,-0.0155 -0.0058,-0.0394 -0.01281,-0.0531 -0.03981,-0.0777 -0.07292,-0.16041 -0.08153,-0.20376 -0.0054,-0.0271 -0.02195,-0.0711 -0.03682,-0.0975 -0.01487,-0.0264 -0.02705,-0.0577 -0.02705,-0.0694 0,-0.0118 -0.0059,-0.0325 -0.01274,-0.0463 -0.03704,-0.0728 -0.06782,-0.1751 -0.08056,-0.26742 -0.0049,-0.0384 -0.02205,-0.0919 -0.03723,-0.11896 -0.03067,-0.0547 -0.03077,-0.0546 0.05497,-0.18071 0.02567,-0.0379 0.04674,-0.0725 0.04674,-0.0771 0,-0.005 0.02763,-0.0483 0.06143,-0.0972 0.03379,-0.049 0.0838,-0.13436 0.111158,-0.18972 0.02735,-0.0553 0.05794,-0.10586 0.068,-0.11218 0.01005,-0.006 0.01828,-0.0199 0.01828,-0.0301 0,-0.0102 0.01294,-0.0304 0.02876,-0.0447 0.01581,-0.0142 0.02876,-0.0403 0.02876,-0.0581 0,-0.0175 0.01039,-0.0406 0.02307,-0.0512 0.01268,-0.0104 0.02894,-0.0324 0.03612,-0.0485 0.0072,-0.0161 0.02928,-0.0553 0.04915,-0.0869 0.01986,-0.0317 0.04042,-0.0673 0.04569,-0.0791 0.0054,-0.0119 0.03103,-0.0522 0.05722,-0.0898 0.02619,-0.0375 0.04763,-0.0739 0.04763,-0.0809 0,-0.007 0.0096,-0.0208 0.02135,-0.0305 0.01175,-0.01 0.03555,-0.0461 0.05289,-0.0809 0.01734,-0.0348 0.03686,-0.0631 0.04336,-0.0631 0.0065,0 0.01183,-0.009 0.01183,-0.0198 0,-0.0109 0.01004,-0.0282 0.02228,-0.0384 0.01225,-0.0102 0.03524,-0.045 0.05109,-0.0773 0.04835,-0.0986 0.09099,-0.17273 0.112332,-0.19517 0.01116,-0.0118 0.03547,-0.0545 0.05398,-0.0949 0.01852,-0.0404 0.04706,-0.0856 0.0634,-0.10046 0.01635,-0.0147 0.04507,-0.0605 0.06385,-0.1015 0.01876,-0.041 0.04078,-0.0787 0.04892,-0.0838 0.0081,-0.005 0.04085,-0.0622 0.07269,-0.12721 0.05718,-0.1166 0.08627,-0.16874 0.101958,-0.18275 0.0044,-0.004 0.03122,-0.0557 0.05952,-0.11506 0.02831,-0.0593 0.06513,-0.12019 0.08184,-0.13526 0.0167,-0.0152 0.03036,-0.0356 0.03036,-0.0455 0,-0.01 0.0048,-0.0203 0.01078,-0.0229 0.01617,-0.007 0.08988,-0.10875 0.08988,-0.12384 0,-0.0153 0.05548,-0.0682 0.06227,-0.0594 0.0026,0.002 0.0156,0.0299 0.02906,0.0592 0.01347,0.0293 0.03024,0.0568 0.03724,0.0613 0.0071,0.004 0.04275,0.0692 0.07942,0.14401 0.03667,0.0748 0.0724,0.13968 0.0794,0.14401 0.0069,0.004 0.02894,0.0432 0.04873,0.0865 0.01979,0.0432 0.05097,0.0997 0.06928,0.12556 0.04689,0.0661 0.06455,0.0959 0.09764,0.16473 0.01594,0.0331 0.03549,0.0643 0.04344,0.0692 0.0079,0.005 0.02729,0.037 0.04297,0.0716 0.01568,0.0344 0.03369,0.0648 0.04004,0.0674 0.0063,0.002 0.02925,0.0414 0.05089,0.0861 0.02165,0.0447 0.04891,0.0892 0.0606,0.0988 0.01168,0.01 0.02124,0.0258 0.02124,0.0359 0,0.01 0.02137,0.0497 0.0475,0.0881 0.02613,0.0385 0.05896,0.0926 0.07296,0.12026 0.03916,0.0774 0.05996,0.11255 0.08292,0.14012 0.01157,0.0139 0.03634,0.0561 0.05501,0.0938 0.01868,0.0378 0.04262,0.0757 0.05318,0.0845 0.01055,0.009 0.01921,0.024 0.01921,0.034 0,0.01 0.01,0.0263 0.0222,0.0365 0.0122,0.0101 0.03837,0.0538 0.05814,0.097 0.0347,0.0758 0.102399,0.17785 0.12461,0.18773 0.006,0.002 0.01078,0.0103 0.01078,0.017 0,0.0249 0.08631,0.19764 0.107493,0.21522 0.01206,0.01 0.02194,0.0271 0.02194,0.038 0,0.0109 0.0057,0.0198 0.01271,0.0198 0.0069,0 0.01679,0.0112 0.0218,0.0252 0.01299,0.0359 0.04326,0.0854 0.07103,0.11608 0.01314,0.0145 0.02389,0.0329 0.02389,0.0409 0,0.007 0.01294,0.0264 0.02876,0.0407 0.01581,0.0142 0.02876,0.0338 0.02876,0.0434 0,0.01 0.01714,0.0425 0.0381,0.0733 0.09896,0.14531 0.110129,0.18798 0.06257,0.23902 -0.01817,0.0195 -0.02876,0.0508 -0.02876,0.0849 0,0.0297 -0.0065,0.058 -0.01438,0.0628 -0.0079,0.005 -0.01438,0.0216 -0.01438,0.037 0,0.0155 -0.0061,0.0394 -0.01353,0.0531 -0.0074,0.0137 -0.02451,0.0622 -0.03792,0.10766 -0.01341,0.0455 -0.02996,0.0827 -0.0368,0.0827 -0.0068,0 -0.01241,0.0158 -0.01241,0.0351 0,0.0194 -0.0065,0.0391 -0.01438,0.044 -0.0079,0.005 -0.01438,0.0216 -0.01438,0.0369 0,0.0155 -0.0061,0.0394 -0.01354,0.0531 -0.0074,0.0137 -0.02417,0.0638 -0.03715,0.11126 -0.01299,0.0475 -0.02954,0.0975 -0.0368,0.11127 -0.0072,0.0137 -0.01318,0.0408 -0.01318,0.0602 0,0.0194 -0.0065,0.0393 -0.01438,0.0442 -0.0079,0.005 -0.01438,0.0216 -0.01438,0.0371 0,0.0155 -0.0057,0.0394 -0.01263,0.0531 -0.03179,0.0629 -0.05929,0.13589 -0.05929,0.15746 0,0.0348 -0.03265,0.11918 -0.04604,0.11918 -0.0063,0 -0.01149,0.0158 -0.01149,0.0351 0,0.0194 -0.0065,0.0391 -0.01438,0.044 -0.0079,0.005 -0.01438,0.0244 -0.01438,0.0431 0,0.0189 -0.0061,0.038 -0.01355,0.0427 -0.0074,0.005 -0.01802,0.039 -0.02349,0.0763 -0.0088,0.0604 -0.04041,0.14907 -0.07918,0.22238 -0.0072,0.0137 -0.0132,0.0411 -0.0132,0.0607 0,0.0196 -0.01289,0.0586 -0.02863,0.0866 -0.01574,0.0281 -0.03276,0.077 -0.03784,0.10863 -0.0051,0.0318 -0.01483,0.0612 -0.02172,0.0654 -0.0068,0.004 -0.01249,0.0235 -0.01249,0.0428 0,0.0194 -0.0065,0.0351 -0.01438,0.0351 -0.0079,0 -0.01438,0.0128 -0.01438,0.0283 0,0.0156 -0.01296,0.0514 -0.02876,0.0795 -0.01581,0.0282 -0.02876,0.0632 -0.02876,0.0779 0,0.0428 -0.05211,0.20736 -0.08797,0.27787 -0.0069,0.0137 -0.0127,0.0376 -0.0127,0.0531 0,0.0155 -0.0065,0.0321 -0.01438,0.0369 -0.0079,0.005 -0.01438,0.0244 -0.01438,0.0431 0,0.0189 -0.0061,0.038 -0.01355,0.0427 -0.0074,0.005 -0.0179,0.0374 -0.02324,0.0729 -0.0054,0.0355 -0.01541,0.0681 -0.02241,0.0724 -0.0069,0.004 -0.01273,0.0236 -0.01273,0.0429 0,0.0194 -0.0065,0.0351 -0.01438,0.0351 -0.0079,0 -0.01438,0.0158 -0.01438,0.0351 0,0.0194 -0.0065,0.0391 -0.01438,0.044 -0.0079,0.005 -0.01438,0.0216 -0.01438,0.037 0,0.0155 -0.006,0.0394 -0.01335,0.0531 -0.0225,0.0422 -0.05855,0.17207 -0.05855,0.21104 0,0.0203 -0.0065,0.0368 -0.01438,0.0368 -0.0079,0 -0.01438,0.0158 -0.01438,0.0351 0,0.0193 -0.0065,0.0391 -0.01438,0.044 -0.0079,0.005 -0.01438,0.0234 -0.01438,0.0412 0,0.0177 -0.0055,0.0385 -0.01212,0.0459 -0.0067,0.007 -0.02389,0.0525 -0.03826,0.1 -0.01438,0.0474 -0.03075,0.096 -0.03641,0.10786 -0.0057,0.0119 -0.02402,0.0497 -0.04083,0.084 -0.0168,0.0344 -0.03056,0.0716 -0.03056,0.0829 0,0.0111 -0.0056,0.0317 -0.01235,0.0454 -0.0224,0.0453 -0.05955,0.17208 -0.05955,0.20327 0,0.0168 -0.0074,0.0451 -0.01663,0.0628 -0.03491,0.0675 -0.0409,0.0828 -0.0409,0.10407 0,0.0121 -0.0056,0.0332 -0.01235,0.0469 -0.02419,0.0489 -0.05955,0.17324 -0.05955,0.20941 0,0.0202 -0.0065,0.0408 -0.01438,0.0457 -0.0079,0.005 -0.01438,0.0275 -0.01438,0.0503 0,0.0228 -0.0065,0.0454 -0.01438,0.0503 -0.0079,0.005 -0.01438,0.0208 -0.01438,0.0355 0,0.0147 -0.01211,0.0515 -0.02693,0.0819 -0.0148,0.0304 -0.03584,0.0761 -0.04674,0.10167 l -0.01982,0.0464 z"
       id="path19"
       inkscape:export-filename=".\support.svg"
       inkscape:export-xdpi="50"
       inkscape:export-ydpi="50" /></g></svg>
