<?xml version="1.0" encoding="UTF-8" standalone="no"?>
<!-- Created with Inkscape (http://www.inkscape.org/) -->

<svg
   width="13.145547mm"
   height="14.180482mm"
   viewBox="0 0 13.145547 14.180482"
   version="1.1"
   id="svg1"
   xml:space="preserve"
   xmlns:inkscape="http://www.inkscape.org/namespaces/inkscape"
   xmlns:sodipodi="http://sodipodi.sourceforge.net/DTD/sodipodi-0.dtd"
   xmlns="http://www.w3.org/2000/svg"
   xmlns:svg="http://www.w3.org/2000/svg"><sodipodi:namedview
     id="namedview1"
     pagecolor="#ffffff"
     bordercolor="#000000"
     borderopacity="0.25"
     inkscape:showpageshadow="2"
     inkscape:pageopacity="0.0"
     inkscape:pagecheckerboard="0"
     inkscape:deskcolor="#d1d1d1"
     inkscape:document-units="mm"
     showguides="true"><sodipodi:guide
       position="45.899275,279.94248"
       orientation="0,-1"
       id="guide23"
       inkscape:locked="false" /><sodipodi:guide
       position="44.895898,296.99993"
       orientation="0,-1"
       id="guide24"
       inkscape:locked="false" /></sodipodi:namedview><defs
     id="defs1" /><g
     inkscape:label="Layer 1"
     inkscape:groupmode="layer"
     id="layer1"
     transform="translate(70.840395,-233.21371)"><path
       style="fill:#fe5d15;fill-opacity:1;stroke-width:0.0471751"
       d="m -64.262559,247.37972 c 0,-0.007 -0.0092,-0.0125 -0.02038,-0.0125 -0.01121,0 -0.02946,-0.0101 -0.04056,-0.0225 -0.01111,-0.0123 -0.03985,-0.0323 -0.06387,-0.0442 -0.02403,-0.0119 -0.06616,-0.0357 -0.09361,-0.0529 -0.02746,-0.0171 -0.0678,-0.0393 -0.08964,-0.0493 -0.02184,-0.01 -0.04301,-0.0235 -0.04705,-0.03 -0.004,-0.007 -0.03952,-0.0273 -0.07886,-0.0464 -0.03934,-0.0189 -0.08891,-0.0474 -0.110151,-0.0632 -0.02125,-0.0158 -0.04327,-0.0288 -0.04895,-0.0288 -0.0057,0 -0.02063,-0.009 -0.03323,-0.0207 -0.02726,-0.0247 -0.05585,-0.0416 -0.147559,-0.0873 -0.03775,-0.0189 -0.07146,-0.0377 -0.07489,-0.042 -0.01402,-0.0174 -0.171716,-0.12094 -0.214778,-0.14106 -0.02545,-0.0119 -0.04971,-0.0272 -0.0539,-0.0339 -0.0042,-0.007 -0.02739,-0.0206 -0.05156,-0.0307 -0.02416,-0.0101 -0.06704,-0.0367 -0.09527,-0.0591 -0.05428,-0.0431 -0.08547,-0.0632 -0.129355,-0.0831 -0.01477,-0.007 -0.03057,-0.0182 -0.03509,-0.0255 -0.0045,-0.007 -0.03223,-0.0242 -0.06158,-0.0376 -0.02935,-0.0133 -0.06059,-0.033 -0.06942,-0.0436 -0.0088,-0.0106 -0.02136,-0.0193 -0.02784,-0.0193 -0.0064,0 -0.0302,-0.0141 -0.0527,-0.0312 -0.0225,-0.0171 -0.04555,-0.0312 -0.05123,-0.0312 -0.0057,0 -0.02063,-0.009 -0.03323,-0.0207 -0.02411,-0.0218 -0.0618,-0.0452 -0.104384,-0.0648 -0.01402,-0.007 -0.03295,-0.0207 -0.04209,-0.0317 -0.0091,-0.011 -0.02348,-0.02 -0.03187,-0.02 -0.0084,0 -0.02543,-0.0112 -0.03785,-0.025 -0.01242,-0.0137 -0.02757,-0.0249 -0.03366,-0.0249 -0.01252,0 -0.02056,-0.006 -0.09266,-0.068 -0.02829,-0.0244 -0.05503,-0.0443 -0.05942,-0.0443 -0.0044,0 -0.03594,-0.0197 -0.07013,-0.0437 -0.03418,-0.024 -0.06685,-0.0437 -0.07259,-0.0437 -0.0057,0 -0.02404,-0.0147 -0.04069,-0.0325 -0.01664,-0.0179 -0.04149,-0.0375 -0.05523,-0.0436 -0.03705,-0.0166 -0.07215,-0.0399 -0.09344,-0.0622 -0.0104,-0.0109 -0.05336,-0.0432 -0.09548,-0.0719 -0.04213,-0.0287 -0.08353,-0.0604 -0.09202,-0.0707 -0.0085,-0.0102 -0.021,-0.0186 -0.02779,-0.0186 -0.01286,0 -0.05969,-0.0357 -0.151801,-0.11546 -0.0297,-0.0258 -0.05942,-0.0468 -0.06603,-0.0468 -0.0066,0 -0.02522,-0.0141 -0.04134,-0.0312 -0.01612,-0.0171 -0.03413,-0.0312 -0.04004,-0.0312 -0.0059,0 -0.02969,-0.0182 -0.05286,-0.0406 -0.05983,-0.0576 -0.140654,-0.1217 -0.15345,-0.1217 -0.006,0 -0.02992,-0.0196 -0.05321,-0.0437 -0.02329,-0.024 -0.04847,-0.0437 -0.05597,-0.0437 -0.0075,0 -0.04129,-0.0281 -0.0751,-0.0624 -0.03381,-0.0343 -0.06753,-0.0624 -0.07494,-0.0624 -0.0074,0 -0.03828,-0.0253 -0.0686,-0.0562 -0.03032,-0.0309 -0.06121,-0.0562 -0.06865,-0.0562 -0.0074,0 -0.03833,-0.0253 -0.06865,-0.0562 -0.03032,-0.0309 -0.05948,-0.0562 -0.06483,-0.0562 -0.0054,0 -0.07165,-0.0618 -0.147363,-0.1373 -0.07571,-0.0755 -0.141862,-0.13729 -0.146993,-0.13729 -0.01346,0 -0.389722,-0.37879 -0.389722,-0.39235 0,-0.006 -0.02387,-0.0347 -0.05304,-0.0632 -0.02918,-0.0286 -0.0592,-0.0627 -0.0667,-0.0758 -0.0075,-0.0132 -0.03147,-0.0361 -0.05325,-0.0509 -0.02419,-0.0165 -0.03345,-0.0291 -0.02379,-0.0326 0.02338,-0.008 -0.03859,-0.0714 -0.07063,-0.0719 -0.0228,-3.1e-4 -0.02341,-0.002 -0.005,-0.0126 0.02803,-0.0163 0.0054,-0.0623 -0.06382,-0.12993 -0.03613,-0.0352 -0.04606,-0.0521 -0.03495,-0.0593 0.01,-0.007 0.01106,-0.0133 0.003,-0.0194 -0.0068,-0.006 -0.02068,-0.0263 -0.03066,-0.0468 -0.01,-0.0206 -0.02598,-0.0469 -0.03553,-0.0585 -0.0095,-0.0115 -0.01391,-0.0266 -0.0097,-0.0335 0.0068,-0.011 -0.01174,-0.0652 -0.04419,-0.12941 -0.006,-0.0119 -0.01095,-0.0321 -0.01095,-0.0449 0,-0.0128 -0.01124,-0.0334 -0.02497,-0.0458 -0.01814,-0.0164 -0.02497,-0.0384 -0.02497,-0.0805 0,-0.0319 -0.0051,-0.0633 -0.01133,-0.0698 -0.0063,-0.007 -0.01424,-0.0399 -0.0178,-0.0743 -0.01155,-0.11137 -0.03337,-0.22351 -0.04595,-0.2361 -0.0068,-0.007 -0.01229,-0.0361 -0.01229,-0.0652 0,-0.0291 -0.0057,-0.0564 -0.01248,-0.0607 -0.0068,-0.004 -0.01248,-0.0351 -0.01248,-0.0687 0,-0.0335 -0.0057,-0.0644 -0.01248,-0.0687 -0.0068,-0.004 -0.01248,-0.0296 -0.01248,-0.0562 0,-0.0266 -0.005,-0.0515 -0.01116,-0.0553 -0.0061,-0.004 -0.01436,-0.028 -0.01827,-0.0538 -0.02866,-0.18908 -0.04042,-0.2521 -0.04858,-0.26019 -0.0052,-0.006 -0.0094,-0.0361 -0.0094,-0.0688 0,-0.0328 -0.0057,-0.0631 -0.01248,-0.0673 -0.0068,-0.004 -0.01248,-0.0267 -0.01248,-0.0499 0,-0.0232 -0.0057,-0.0456 -0.01248,-0.0499 -0.0068,-0.004 -0.01248,-0.0408 -0.01248,-0.0811 0,-0.0404 -0.0052,-0.0767 -0.01155,-0.0805 -0.0063,-0.004 -0.01552,-0.0577 -0.02036,-0.11959 -0.0049,-0.0618 -0.01368,-0.11545 -0.01965,-0.11915 -0.006,-0.003 -0.01085,-0.0313 -0.01085,-0.0614 0,-0.03 -0.0057,-0.0582 -0.01248,-0.0624 -0.0068,-0.004 -0.01248,-0.0408 -0.01248,-0.0811 0,-0.0404 -0.0057,-0.0769 -0.01248,-0.0811 -0.0068,-0.004 -0.01248,-0.0287 -0.01248,-0.0544 0,-0.0257 -0.005,-0.052 -0.01121,-0.0585 -0.0062,-0.007 -0.0144,-0.0343 -0.01829,-0.0618 -0.0039,-0.0274 -0.01605,-0.1061 -0.02702,-0.17475 -0.01097,-0.0687 -0.02291,-0.1529 -0.02655,-0.18722 -0.0036,-0.0343 -0.01171,-0.0678 -0.01795,-0.0743 -0.0063,-0.007 -0.01133,-0.0385 -0.01133,-0.0711 0,-0.0325 -0.0056,-0.0627 -0.01248,-0.0669 -0.0068,-0.004 -0.01248,-0.0408 -0.01248,-0.0811 0,-0.0403 -0.0057,-0.0769 -0.01248,-0.0811 -0.0068,-0.004 -0.01248,-0.0408 -0.01248,-0.0811 0,-0.0403 -0.0049,-0.0765 -0.01109,-0.0803 -0.0061,-0.004 -0.01515,-0.0744 -0.02011,-0.15688 -0.0049,-0.0825 -0.014,-0.1531 -0.02011,-0.15687 -0.0061,-0.004 -0.01109,-0.0343 -0.01109,-0.0678 0,-0.0335 -0.0056,-0.0644 -0.01248,-0.0687 -0.0068,-0.004 -0.01248,-0.0408 -0.01248,-0.0811 0,-0.0403 -0.0056,-0.0769 -0.01248,-0.0811 -0.0068,-0.004 -0.01248,-0.0343 -0.01248,-0.0669 0,-0.0325 -0.0051,-0.0645 -0.01133,-0.0711 -0.01172,-0.0123 -0.01479,-0.0336 -0.04144,-0.28864 -0.0087,-0.0836 -0.02008,-0.15612 -0.02524,-0.16122 -0.0052,-0.006 -0.0094,-0.0361 -0.0094,-0.0688 0,-0.0328 -0.0056,-0.0631 -0.01248,-0.0673 -0.0068,-0.004 -0.01248,-0.038 -0.01248,-0.0749 0,-0.0369 -0.0056,-0.0707 -0.01248,-0.0748 -0.0068,-0.004 -0.01248,-0.0408 -0.01248,-0.0811 0,-0.0403 -0.0056,-0.0769 -0.01248,-0.0811 -0.0068,-0.004 -0.01248,-0.0351 -0.01248,-0.0687 0,-0.0335 -0.0049,-0.064 -0.01085,-0.0677 -0.006,-0.003 -0.01487,-0.0686 -0.01977,-0.14419 -0.0049,-0.0756 -0.01406,-0.14065 -0.02034,-0.14454 -0.0063,-0.004 -0.01144,-0.0288 -0.01144,-0.0556 0,-0.0266 -0.0056,-0.052 -0.01248,-0.0562 -0.0068,-0.004 -0.01248,-0.0327 -0.01248,-0.0632 0,-0.0305 -0.0056,-0.0554 -0.01248,-0.0554 -0.0068,0 -0.01248,-0.0185 -0.01248,-0.0412 0,-0.0226 -0.005,-0.0465 -0.01121,-0.053 -0.0062,-0.007 -0.01415,-0.0343 -0.01772,-0.0618 -0.01126,-0.0863 -0.03495,-0.18676 -0.04693,-0.19908 -0.0063,-0.007 -0.01152,-0.0301 -0.01152,-0.0523 0,-0.0222 -0.0056,-0.0439 -0.01248,-0.0482 -0.0068,-0.004 -0.01248,-0.0192 -0.01248,-0.0332 0,-0.014 -0.0107,-0.0404 -0.02377,-0.0588 -0.01307,-0.0184 -0.03304,-0.0641 -0.04438,-0.10178 -0.01133,-0.0375 -0.03722,-0.1021 -0.05754,-0.14329 -0.02031,-0.0412 -0.03686,-0.0844 -0.03676,-0.096 9.3e-5,-0.0116 -0.0054,-0.0246 -0.01231,-0.0288 -0.0068,-0.004 -0.01248,-0.0185 -0.01248,-0.0318 0,-0.0132 -0.01966,-0.0611 -0.04368,-0.10639 -0.02403,-0.0453 -0.04368,-0.0924 -0.04368,-0.10475 0,-0.0123 -0.008,-0.0291 -0.01779,-0.0372 -0.0098,-0.008 -0.04366,-0.0673 -0.07528,-0.13138 -0.03162,-0.0641 -0.06538,-0.12316 -0.07502,-0.13117 -0.0096,-0.008 -0.02141,-0.0322 -0.02616,-0.0538 -0.01005,-0.0458 -0.02585,-0.0763 -0.06474,-0.12528 -0.01544,-0.0194 -0.02809,-0.0433 -0.02809,-0.053 0,-0.01 -0.0056,-0.0178 -0.01248,-0.0178 -0.0068,0 -0.01248,-0.005 -0.01248,-0.01 0,-0.0148 0.07704,-0.0399 0.149241,-0.0485 0.03502,-0.004 0.06665,-0.0124 0.07029,-0.0182 0.0036,-0.006 0.0176,-0.0107 0.03101,-0.0107 0.01341,0 0.03556,-0.006 0.04918,-0.0125 0.01364,-0.007 0.03595,-0.0181 0.04959,-0.0249 0.01364,-0.007 0.03577,-0.0125 0.04919,-0.0125 0.01341,0 0.02787,-0.006 0.03211,-0.0125 0.0042,-0.007 0.02671,-0.0125 0.04992,-0.0125 0.02322,0 0.04539,-0.006 0.04926,-0.0114 0.0039,-0.006 0.03089,-0.0152 0.06003,-0.0197 0.06167,-0.01 0.135207,-0.032 0.152212,-0.0464 0.0065,-0.006 0.02445,-0.01 0.03983,-0.01 0.01539,0 0.03145,-0.006 0.03569,-0.0125 0.0042,-0.007 0.02031,-0.0125 0.03568,-0.0125 0.01539,0 0.03331,-0.005 0.03983,-0.0105 0.0065,-0.006 0.04556,-0.0203 0.08675,-0.0324 0.12619,-0.0369 0.161779,-0.0491 0.17412,-0.0594 0.0065,-0.006 0.02445,-0.01 0.03983,-0.01 0.01539,0 0.03145,-0.006 0.03569,-0.0125 0.0042,-0.007 0.01778,-0.0125 0.03008,-0.0125 0.01231,0 0.04877,-0.0141 0.08105,-0.0312 0.03228,-0.0171 0.06929,-0.0312 0.08225,-0.0312 0.01296,0 0.02703,-0.006 0.03128,-0.0125 0.0042,-0.007 0.01869,-0.0125 0.03211,-0.0125 0.01341,0 0.03556,-0.006 0.04919,-0.0125 0.01364,-0.007 0.03595,-0.0181 0.04959,-0.0249 0.01364,-0.007 0.03337,-0.0125 0.04386,-0.0125 0.01047,0 0.02881,-0.006 0.04073,-0.0112 0.01192,-0.006 0.05538,-0.0211 0.09657,-0.0329 0.06782,-0.0197 0.151388,-0.0525 0.208899,-0.0819 0.01192,-0.006 0.03025,-0.0111 0.04074,-0.0111 0.01047,0 0.02882,-0.006 0.04073,-0.0112 0.01192,-0.006 0.05538,-0.0209 0.09656,-0.0328 0.04119,-0.0119 0.08465,-0.0264 0.09657,-0.0325 0.01191,-0.006 0.03265,-0.0109 0.04607,-0.0109 0.01341,0 0.02786,-0.006 0.03211,-0.0125 0.0042,-0.007 0.0239,-0.0125 0.04368,-0.0125 0.01979,0 0.03944,-0.006 0.04368,-0.0125 0.0042,-0.007 0.01798,-0.0125 0.03051,-0.0125 0.01255,0 0.03889,-0.008 0.05855,-0.0186 0.01966,-0.0103 0.04822,-0.0187 0.06345,-0.0187 0.01523,-4e-5 0.04771,-0.0113 0.07215,-0.025 0.02445,-0.0137 0.0541,-0.0251 0.06591,-0.0252 0.0118,-1.4e-4 0.0355,-0.0113 0.05267,-0.0247 0.01716,-0.0134 0.03971,-0.0245 0.0501,-0.0247 0.0104,-1.4e-4 0.04971,-0.0121 0.08737,-0.0265 0.03766,-0.0144 0.08119,-0.0291 0.09674,-0.0327 0.01555,-0.003 0.03132,-0.0114 0.03506,-0.0175 0.0038,-0.006 0.02017,-0.011 0.03653,-0.011 0.01635,0 0.0332,-0.006 0.03744,-0.0125 0.0042,-0.007 0.01804,-0.0125 0.03066,-0.0125 0.01262,0 0.0474,-0.014 0.07727,-0.031 0.02988,-0.017 0.06336,-0.0311 0.07441,-0.0312 0.01104,-1e-4 0.05318,-0.0165 0.09361,-0.0364 0.04044,-0.0199 0.101607,-0.0486 0.135932,-0.0636 0.109077,-0.0478 0.149609,-0.0672 0.156021,-0.0743 0.01279,-0.0141 0.06265,-0.0381 0.07924,-0.0381 0.02353,0 0.392082,-0.18492 0.439935,-0.22073 0.02124,-0.016 0.04442,-0.0289 0.05152,-0.0289 0.0071,0 0.01994,-0.008 0.02856,-0.0189 0.0086,-0.0104 0.03879,-0.0302 0.06705,-0.044 0.07031,-0.0343 0.103325,-0.0543 0.130306,-0.0787 0.0126,-0.0114 0.02706,-0.0207 0.03212,-0.0207 0.0115,0 0.09967,-0.0653 0.105319,-0.0781 0.0023,-0.006 0.01114,-0.009 0.01967,-0.009 0.0085,0 0.02913,-0.0147 0.04577,-0.0325 0.05815,-0.0626 0.08529,-0.0629 0.142232,-0.002 0.06598,0.0701 0.276235,0.25969 0.287999,0.25969 0.005,0 0.03504,0.0223 0.0667,0.0497 0.03166,0.0273 0.09291,0.0793 0.136115,0.11545 0.0432,0.0361 0.122241,0.10651 0.17564,0.15629 0.05339,0.0497 0.101968,0.0905 0.107931,0.0905 0.006,0 0.06532,0.052 0.131909,0.11545 0.06658,0.0635 0.164778,0.15477 0.218203,0.20282 0.170303,0.15318 0.333088,0.30209 0.443047,0.40527 0.05875,0.0552 0.11241,0.10025 0.119249,0.10025 0.0068,0 0.03149,0.0197 0.05477,0.0437 0.06775,0.0699 0.0844,0.0633 0.258198,-0.10298 0.08433,-0.0807 0.217606,-0.20563 0.296171,-0.27772 0.07856,-0.072 0.23846,-0.22514 0.355322,-0.34012 0.116862,-0.11499 0.217025,-0.20908 0.222588,-0.20908 0.0056,0 0.09422,-0.0842 0.197025,-0.18721 0.102802,-0.10299 0.192889,-0.18723 0.200192,-0.18723 0.0073,0 0.07423,-0.0618 0.148732,-0.1373 0.149206,-0.15124 0.143439,-0.14755 0.175307,-0.11234 0.01242,0.0138 0.02766,0.025 0.03385,0.025 0.0062,0 0.04605,0.024 0.08856,0.0536 0.04251,0.0295 0.109011,0.0689 0.147775,0.0877 0.03876,0.0188 0.07736,0.0424 0.08578,0.0525 0.0084,0.0101 0.0226,0.0185 0.03154,0.0185 0.0089,0 0.03211,0.0131 0.05152,0.029 0.03094,0.0254 0.216844,0.12083 0.235359,0.12083 0.0039,0 0.01881,0.0111 0.03333,0.0246 0.02441,0.0227 0.105575,0.0651 0.228413,0.11892 0.02746,0.012 0.101625,0.0464 0.16481,0.0765 0.06319,0.03 0.120759,0.0546 0.127938,0.0546 0.0072,0 0.01305,0.006 0.01305,0.0125 0,0.007 0.01066,0.0125 0.0237,0.0125 0.01303,0 0.05573,0.0169 0.09488,0.0375 0.03915,0.0206 0.07896,0.0375 0.08846,0.0375 0.0095,0 0.05433,0.0196 0.09962,0.0437 0.0453,0.024 0.09014,0.0437 0.09966,0.0437 0.0095,0 0.03611,0.0105 0.0591,0.0235 0.02299,0.0129 0.0596,0.0273 0.08136,0.0321 0.02177,0.005 0.04279,0.0138 0.0467,0.0203 0.0039,0.006 0.0181,0.0115 0.03152,0.0115 0.01341,0 0.03415,0.005 0.04607,0.0112 0.09462,0.0487 0.191549,0.089 0.23088,0.0958 0.02581,0.005 0.05002,0.0131 0.05379,0.0193 0.0038,0.006 0.01721,0.011 0.02988,0.011 0.01267,0 0.04745,0.012 0.07727,0.0268 0.06966,0.0343 0.08732,0.0408 0.185286,0.0676 0.04462,0.0123 0.08647,0.0269 0.09299,0.0325 0.0065,0.006 0.02445,0.0104 0.03983,0.0104 0.01539,0 0.03145,0.006 0.03568,0.0125 0.0042,0.007 0.01869,0.0125 0.03211,0.0125 0.01341,0 0.03415,0.006 0.04607,0.0114 0.05899,0.031 0.168011,0.0759 0.184447,0.0759 0.018,0 0.03135,0.006 0.08981,0.0355 0.01536,0.008 0.03589,0.0144 0.04563,0.0144 0.0097,0 0.03931,0.0105 0.06569,0.0233 0.02639,0.0128 0.08168,0.033 0.122876,0.045 0.04119,0.0119 0.08464,0.0267 0.09656,0.0329 0.01192,0.006 0.03299,0.0112 0.0468,0.0112 0.01383,0 0.02513,0.006 0.02513,0.0125 0,0.007 0.01933,0.0125 0.04294,0.0125 0.02362,0 0.04642,0.006 0.05067,0.0125 0.0042,0.007 0.0211,0.0125 0.03744,0.0125 0.01635,0 0.0332,0.006 0.03744,0.0125 0.0042,0.007 0.02985,0.0125 0.05691,0.0125 0.02705,0 0.04919,0.006 0.04919,0.0125 0,0.007 0.01372,0.0125 0.03047,0.0125 0.01676,0 0.03394,0.006 0.03818,0.0125 0.0042,0.007 0.0211,0.0125 0.03744,0.0125 0.01635,0 0.033,0.006 0.03701,0.0118 0.004,0.007 0.03382,0.0152 0.06627,0.0194 0.03245,0.004 0.06875,0.0129 0.08067,0.0194 0.01191,0.007 0.03229,0.0119 0.04528,0.0119 0.01299,0 0.0306,0.008 0.03915,0.0187 0.0089,0.0107 0.03606,0.0187 0.0632,0.0187 0.02622,0 0.05113,0.006 0.05537,0.0125 0.0042,0.007 0.01844,0.0125 0.03156,0.0125 0.01312,0 0.04385,0.0112 0.06829,0.0249 0.02445,0.0138 0.0636,0.0249 0.08702,0.0249 0.02342,0 0.04604,0.006 0.05028,0.0125 0.0042,0.007 0.02592,0.0125 0.04816,0.0125 0.02225,0 0.04579,0.006 0.05231,0.0115 0.0065,0.006 0.03994,0.0173 0.07426,0.0243 0.03432,0.007 0.0812,0.0174 0.104158,0.023 l 0.04175,0.0101 -0.02614,0.0237 c -0.01438,0.013 -0.02614,0.0303 -0.02614,0.0385 0,0.008 -0.01021,0.024 -0.02269,0.0354 -0.01248,0.0113 -0.03527,0.0457 -0.05066,0.0766 -0.01539,0.0308 -0.03326,0.0593 -0.03971,0.0633 -0.0064,0.004 -0.01174,0.0203 -0.01174,0.0361 0,0.016 -0.0085,0.0361 -0.01895,0.0446 -0.01043,0.009 -0.02847,0.0361 -0.04009,0.0608 -0.01163,0.0248 -0.0281,0.0523 -0.0366,0.061 -0.02665,0.0273 -0.178945,0.35314 -0.178945,0.38277 0,0.009 -0.0107,0.0388 -0.02376,0.0651 -0.0549,0.11088 -0.08858,0.18887 -0.08862,0.20524 -2.5e-5,0.01 -0.01126,0.0358 -0.02497,0.0584 -0.0137,0.0225 -0.02492,0.0516 -0.02492,0.0648 0,0.0132 -0.0057,0.0273 -0.01248,0.0316 -0.0068,0.004 -0.01248,0.0211 -0.01248,0.0375 0,0.0163 -0.0057,0.0332 -0.01248,0.0375 -0.0068,0.004 -0.01248,0.0239 -0.01248,0.0437 0,0.0198 -0.0051,0.0391 -0.01142,0.0431 -0.0063,0.004 -0.01537,0.0492 -0.02021,0.10077 -0.0049,0.0515 -0.01373,0.0968 -0.01978,0.10051 -0.0061,0.004 -0.01099,0.0286 -0.01099,0.0553 0,0.0266 -0.0056,0.052 -0.01248,0.0562 -0.0068,0.004 -0.01248,0.0324 -0.01248,0.0624 0,0.0301 -0.0057,0.0581 -0.01248,0.0624 -0.0068,0.004 -0.01248,0.0408 -0.01248,0.0811 0,0.0403 -0.0057,0.0769 -0.01248,0.0811 -0.0068,0.004 -0.01248,0.0346 -0.01248,0.0673 0,0.0328 -0.0042,0.0637 -0.0094,0.0688 -0.0082,0.008 -0.02289,0.13416 -0.04832,0.41306 -0.0038,0.0412 -0.01197,0.0802 -0.01826,0.0868 -0.0063,0.007 -0.01143,0.0441 -0.01143,0.0835 0,0.0394 -0.0057,0.0751 -0.01248,0.0794 -0.0068,0.004 -0.01248,0.0345 -0.01248,0.0673 0,0.0328 -0.0042,0.0637 -0.0094,0.0688 -0.0083,0.008 -0.02709,0.13495 -0.04838,0.32566 -0.0039,0.0343 -0.01207,0.0678 -0.0183,0.0743 -0.0063,0.007 -0.01133,0.0385 -0.01133,0.0711 0,0.0325 -0.0056,0.0627 -0.01248,0.067 -0.0068,0.004 -0.01248,0.0408 -0.01248,0.0811 0,0.0403 -0.0057,0.0769 -0.01248,0.0811 -0.0068,0.004 -0.01248,0.0383 -0.01248,0.0758 0,0.0375 -0.0052,0.0778 -0.01152,0.0898 -0.01014,0.0191 -0.01942,0.09 -0.04611,0.35244 -0.0039,0.0378 -0.0121,0.0739 -0.01836,0.0805 -0.0063,0.007 -0.01138,0.0385 -0.01138,0.0711 0,0.0325 -0.0056,0.0627 -0.01248,0.0669 -0.0068,0.004 -0.01248,0.0351 -0.01248,0.0687 0,0.0335 -0.0056,0.0644 -0.01248,0.0687 -0.0068,0.004 -0.01248,0.0328 -0.01248,0.0633 0,0.0306 -0.0051,0.0654 -0.0114,0.0773 -0.01007,0.0191 -0.02043,0.0839 -0.04635,0.29002 -0.0039,0.0309 -0.01214,0.0615 -0.01834,0.068 -0.0062,0.007 -0.01127,0.0328 -0.01127,0.0585 0,0.0257 -0.0056,0.0502 -0.01248,0.0544 -0.0068,0.004 -0.01248,0.0464 -0.01248,0.0936 0,0.0472 -0.0056,0.0894 -0.01248,0.0936 -0.0068,0.004 -0.01248,0.0456 -0.01248,0.0919 0,0.0466 -0.0064,0.0905 -0.01432,0.0985 -0.0079,0.008 -0.017,0.0581 -0.02028,0.11171 -0.0035,0.0581 -0.01542,0.11724 -0.02937,0.14655 -0.01503,0.0315 -0.0234,0.0767 -0.0234,0.12601 0,0.061 -0.0052,0.0815 -0.02496,0.0994 -0.01659,0.015 -0.02497,0.0385 -0.02497,0.0698 0,0.0259 -0.0049,0.0504 -0.01116,0.0542 -0.0061,0.004 -0.01516,0.0589 -0.02005,0.12244 -0.0059,0.0766 -0.01549,0.12298 -0.02842,0.1376 -0.02451,0.0277 -0.03453,0.109 -0.01343,0.109 0.0089,0 0.0049,0.0115 -0.0096,0.0281 -0.03788,0.0432 -0.05364,0.0847 -0.05856,0.15391 -0.0025,0.0349 -0.0081,0.0691 -0.01233,0.0761 -0.0043,0.007 -0.01111,0.0374 -0.01514,0.0676 -0.009,0.0674 -0.03181,0.15072 -0.04569,0.16669 -0.0057,0.007 -0.01032,0.0277 -0.01032,0.047 0,0.0338 -0.0037,0.0449 -0.03549,0.10638 -0.0079,0.0153 -0.01443,0.0389 -0.01443,0.0523 0,0.0133 -0.0049,0.0273 -0.01073,0.031 -0.0059,0.003 -0.01438,0.039 -0.01886,0.0787 -0.0076,0.0668 -0.02145,0.10235 -0.113658,0.29055 -0.0465,0.0949 -0.06169,0.12106 -0.08566,0.14755 -0.0114,0.0126 -0.02073,0.0287 -0.02073,0.0356 0,0.007 -0.01124,0.0229 -0.02497,0.0353 -0.01374,0.0124 -0.02497,0.0303 -0.02497,0.0398 0,0.009 -0.0084,0.0204 -0.01872,0.0244 -0.0103,0.004 -0.01872,0.0137 -0.01872,0.0218 0,0.008 -0.0309,0.0452 -0.06865,0.0825 -0.03776,0.0373 -0.06865,0.0736 -0.06865,0.0808 0,0.0161 -0.538672,0.55575 -0.554689,0.55575 -0.0063,0 -0.05965,0.0454 -0.118472,0.10086 -0.156215,0.14733 -0.186234,0.17374 -0.19751,0.17374 -0.0056,0 -0.04065,0.0309 -0.07794,0.0687 -0.03729,0.0378 -0.07391,0.0687 -0.08138,0.0687 -0.0075,0 -0.03263,0.0197 -0.05593,0.0437 -0.02329,0.0241 -0.04862,0.0437 -0.05628,0.0437 -0.0077,0 -0.03008,0.0169 -0.04981,0.0375 -0.01973,0.0206 -0.04214,0.0375 -0.04981,0.0375 -0.0077,0 -0.03299,0.0196 -0.05628,0.0437 -0.02329,0.024 -0.04772,0.0437 -0.05429,0.0437 -0.0066,0 -0.04119,0.0267 -0.07693,0.0593 -0.06094,0.0556 -0.09595,0.0856 -0.207432,0.17781 -0.02493,0.0207 -0.04944,0.0375 -0.05445,0.0375 -0.0099,0 -0.06298,0.0413 -0.14856,0.11545 -0.0297,0.0258 -0.05762,0.0468 -0.06203,0.0468 -0.01288,0 -0.174456,0.11472 -0.196598,0.1396 -0.01111,0.0124 -0.02557,0.0226 -0.03215,0.0226 -0.0066,0 -0.02516,0.0141 -0.04128,0.0312 -0.01612,0.0171 -0.03589,0.0312 -0.04393,0.0312 -0.0081,0 -0.02478,0.0112 -0.0372,0.0249 -0.01242,0.0137 -0.0274,0.0249 -0.03327,0.0249 -0.0058,0 -0.03864,0.0196 -0.07283,0.0437 -0.03418,0.0241 -0.06556,0.0437 -0.06973,0.0437 -0.0042,0 -0.03337,0.0227 -0.06491,0.0505 -0.03153,0.0277 -0.07733,0.0596 -0.10177,0.0707 -0.02444,0.0112 -0.0543,0.0286 -0.06637,0.0389 -0.02495,0.0213 -0.05866,0.0414 -0.12161,0.0729 -0.02403,0.012 -0.05492,0.0312 -0.06865,0.0426 -0.04493,0.0374 -0.155522,0.11134 -0.16644,0.11134 -0.0058,0 -0.02084,0.0112 -0.03327,0.025 -0.01242,0.0137 -0.02946,0.0249 -0.03785,0.0249 -0.0084,0 -0.02273,0.009 -0.03187,0.02 -0.0091,0.011 -0.02808,0.0253 -0.04209,0.0317 -0.04069,0.0187 -0.07976,0.0426 -0.103401,0.0632 -0.03783,0.0329 -0.152235,0.10976 -0.163407,0.10976 -0.0058,0 -0.02084,0.0112 -0.03327,0.025 -0.01242,0.0137 -0.0274,0.0249 -0.03327,0.0249 -0.0058,0 -0.03864,0.0197 -0.07282,0.0437 -0.03418,0.024 -0.06576,0.0437 -0.07018,0.0437 -0.0044,0 -0.01719,0.01 -0.02838,0.0218 -0.02567,0.0275 -0.05607,0.0471 -0.122469,0.0787 -0.02889,0.0137 -0.05581,0.0303 -0.05982,0.0368 -0.004,0.007 -0.02811,0.0215 -0.05356,0.0335 -0.02545,0.0119 -0.07155,0.0387 -0.102444,0.0596 -0.08192,0.0553 -0.100993,0.0666 -0.1529,0.0908 -0.02574,0.0119 -0.0468,0.026 -0.0468,0.0313 0,0.006 -0.01124,0.01 -0.02497,0.01 -0.01373,0 -0.02501,0.004 -0.02506,0.009 -9.5e-5,0.0112 -0.06056,0.0405 -0.08352,0.0405 -0.0089,0 -0.01623,-0.006 -0.01623,-0.0125 z m 0.394438,-1.69743 c 0.0076,-5e-5 0.08584,-0.0366 0.173956,-0.0812 0.08811,-0.0446 0.165809,-0.0811 0.172658,-0.0811 0.02098,0 0.11725,-0.0501 0.133186,-0.0693 0.0083,-0.01 0.02461,-0.0181 0.03634,-0.0181 0.02413,0 0.113167,-0.0432 0.169165,-0.0821 0.02055,-0.0143 0.09703,-0.0547 0.169939,-0.0898 0.07292,-0.0351 0.140314,-0.0714 0.149781,-0.0807 0.0095,-0.009 0.05934,-0.0378 0.110826,-0.0633 0.109241,-0.0543 0.176531,-0.0936 0.21166,-0.12375 0.01382,-0.0119 0.03901,-0.025 0.05599,-0.0293 0.01699,-0.004 0.03766,-0.016 0.04592,-0.0258 0.0083,-0.01 0.03847,-0.0288 0.06712,-0.0418 0.02865,-0.0131 0.0593,-0.0324 0.06814,-0.0431 0.0088,-0.0106 0.02136,-0.0194 0.02784,-0.0194 0.01341,0 0.101552,-0.0637 0.107893,-0.078 0.0023,-0.006 0.01142,-0.009 0.02031,-0.009 0.0089,0 0.02363,-0.009 0.03277,-0.02 0.0091,-0.011 0.02808,-0.0253 0.04209,-0.0318 0.04962,-0.0228 0.08365,-0.0453 0.117446,-0.0777 0.01881,-0.018 0.03835,-0.0328 0.04339,-0.0328 0.01334,0 0.07902,-0.0475 0.159647,-0.11546 0.03868,-0.0326 0.07469,-0.0593 0.08,-0.0593 0.0099,0 0.07729,-0.0581 0.2284,-0.19659 0.0468,-0.0429 0.09018,-0.078 0.09641,-0.078 0.01606,0 0.367369,-0.3526 0.367369,-0.36871 0,-0.007 0.01966,-0.0324 0.04368,-0.0557 0.02403,-0.0233 0.04368,-0.0488 0.04368,-0.0567 0,-0.008 0.01124,-0.0245 0.02497,-0.0369 0.01373,-0.0124 0.02497,-0.0281 0.02497,-0.0348 0,-0.007 0.01022,-0.0213 0.02273,-0.0324 0.0125,-0.0111 0.03336,-0.0385 0.04637,-0.0607 0.013,-0.0223 0.02805,-0.0406 0.03344,-0.0406 0.0054,0 0.0098,-0.007 0.0098,-0.0146 0,-0.008 0.0092,-0.0248 0.02045,-0.0373 0.03943,-0.0436 0.204167,-0.37522 0.204264,-0.41122 2.5e-5,-0.01 0.01126,-0.0358 0.02497,-0.0584 0.0137,-0.0225 0.02492,-0.0516 0.02492,-0.0648 0,-0.0132 0.0057,-0.0273 0.01248,-0.0316 0.0068,-0.004 0.01248,-0.0184 0.01248,-0.0315 0,-0.0131 0.01117,-0.0438 0.02484,-0.0681 0.01367,-0.0244 0.02845,-0.0667 0.03285,-0.0943 0.0044,-0.0275 0.01288,-0.053 0.01884,-0.0567 0.006,-0.003 0.01084,-0.0203 0.01084,-0.0372 0,-0.0167 0.0057,-0.0305 0.01248,-0.0305 0.0068,0 0.01248,-0.0193 0.01248,-0.043 0,-0.0236 0.0057,-0.0464 0.01248,-0.0506 0.0068,-0.004 0.01248,-0.0212 0.01248,-0.0375 0,-0.0164 0.0057,-0.0333 0.01248,-0.0375 0.0068,-0.004 0.01248,-0.0239 0.01248,-0.0437 0,-0.0198 0.0053,-0.0392 0.01161,-0.0431 0.0064,-0.004 0.01546,-0.038 0.02018,-0.0757 0.0047,-0.0377 0.01352,-0.0717 0.0196,-0.0754 0.0061,-0.004 0.01102,-0.0259 0.01102,-0.049 0,-0.0232 0.0057,-0.0457 0.01248,-0.0499 0.0068,-0.004 0.01248,-0.0239 0.01248,-0.0437 0,-0.0198 0.0057,-0.0394 0.01248,-0.0437 0.0068,-0.004 0.01248,-0.0243 0.01248,-0.0446 0,-0.0203 0.005,-0.0466 0.01117,-0.0585 0.01089,-0.0211 0.03499,-0.14601 0.04755,-0.24634 0.0035,-0.0274 0.01129,-0.0553 0.01745,-0.0618 0.0062,-0.007 0.01121,-0.0328 0.01121,-0.0585 0,-0.0257 0.0056,-0.0501 0.01248,-0.0544 0.0068,-0.004 0.01248,-0.0324 0.01248,-0.0624 0,-0.03 0.0057,-0.0581 0.01248,-0.0624 0.0068,-0.004 0.01248,-0.0289 0.01248,-0.0548 0,-0.0258 0.0042,-0.0513 0.0094,-0.0564 0.0097,-0.01 0.03539,-0.16057 0.04852,-0.28528 0.0042,-0.0396 0.0125,-0.075 0.01854,-0.0787 0.006,-0.004 0.01097,-0.0286 0.01097,-0.0552 0,-0.0266 0.0057,-0.052 0.01248,-0.0562 0.0068,-0.004 0.01248,-0.0351 0.01248,-0.0687 0,-0.0335 0.0057,-0.0644 0.01248,-0.0687 0.0068,-0.004 0.01248,-0.0346 0.01248,-0.0673 0,-0.0328 0.0042,-0.0637 0.0094,-0.0688 0.0083,-0.008 0.02749,-0.15011 0.04833,-0.35687 0.0039,-0.0378 0.01204,-0.0739 0.0183,-0.0805 0.0063,-0.007 0.01138,-0.0441 0.01138,-0.0835 0,-0.0394 0.0056,-0.0751 0.01248,-0.0794 0.0068,-0.004 0.01248,-0.0408 0.01248,-0.0811 0,-0.0404 0.0056,-0.0769 0.01248,-0.0811 0.0068,-0.004 0.01248,-0.0402 0.01248,-0.0798 0,-0.0397 0.0042,-0.0762 0.0094,-0.0813 0.0082,-0.008 0.01915,-0.105 0.04834,-0.42555 0.0038,-0.0413 0.01196,-0.0802 0.01825,-0.0867 0.0063,-0.007 0.01142,-0.0553 0.01142,-0.10848 0,-0.0531 0.0056,-0.10009 0.01248,-0.10434 0.0068,-0.004 0.01248,-0.0456 0.01248,-0.0918 0,-0.0463 0.0052,-0.0895 0.01147,-0.096 0.01209,-0.0125 0.01596,-0.0483 0.04136,-0.38223 0.0087,-0.11446 0.02003,-0.21228 0.02519,-0.21739 0.0052,-0.006 0.0094,-0.0529 0.0094,-0.10632 0,-0.0534 0.0057,-0.10051 0.01248,-0.10475 0.0068,-0.004 0.01248,-0.0464 0.01248,-0.0936 0,-0.0472 0.0056,-0.0894 0.01248,-0.0936 0.0068,-0.004 0.01248,-0.0464 0.01248,-0.0936 0,-0.0473 0.0056,-0.0894 0.01248,-0.0936 0.0068,-0.004 0.01248,-0.0464 0.01248,-0.0936 0,-0.0473 0.0056,-0.0894 0.01248,-0.0936 0.0068,-0.004 0.01248,-0.0404 0.01248,-0.0804 0,-0.0494 0.006,-0.0777 0.01872,-0.0882 0.0103,-0.009 0.01873,-0.02 0.01873,-0.0253 0,-0.0109 -0.223181,-0.12447 -0.244358,-0.12447 -0.0072,0 -0.09032,-0.0394 -0.184502,-0.0874 -0.09419,-0.0481 -0.178921,-0.0874 -0.188299,-0.0874 -0.0094,0 -0.03864,-0.0108 -0.06503,-0.0239 -0.127749,-0.0636 -0.243308,-0.11346 -0.263144,-0.11371 -0.0121,-1.4e-4 -0.03604,-0.0113 -0.0532,-0.0247 -0.01716,-0.0134 -0.04086,-0.0245 -0.05267,-0.0247 -0.0118,-1.4e-4 -0.03989,-0.0105 -0.06241,-0.0231 -0.02252,-0.0126 -0.05953,-0.0266 -0.08224,-0.031 -0.02272,-0.005 -0.07599,-0.0251 -0.11839,-0.0458 -0.0424,-0.0207 -0.08406,-0.0376 -0.09258,-0.0376 -0.0085,0 -0.03388,-0.0112 -0.05636,-0.0249 -0.02247,-0.0137 -0.04773,-0.0249 -0.05612,-0.0249 -0.01383,-5e-5 -0.127366,-0.0477 -0.181158,-0.076 -0.01192,-0.006 -0.02922,-0.0114 -0.03845,-0.0114 -0.0092,0 -0.04441,-0.014 -0.07818,-0.0311 -0.03377,-0.0171 -0.06785,-0.0312 -0.07574,-0.0312 -0.0079,-3e-5 -0.04637,-0.0169 -0.08552,-0.0375 -0.03915,-0.0206 -0.07851,-0.0375 -0.08746,-0.0375 -0.0089,0 -0.03787,-0.0104 -0.06426,-0.0233 -0.08759,-0.0426 -0.142201,-0.064 -0.163867,-0.0643 -0.01177,-1.4e-4 -0.03546,-0.0113 -0.05263,-0.0247 -0.01716,-0.0134 -0.04012,-0.0245 -0.05103,-0.0247 -0.02558,-3.2e-4 -0.247095,-0.10961 -0.279738,-0.13798 -0.07219,-0.0627 -0.09564,-0.051 -0.318072,0.15954 -0.05259,0.0497 -0.100891,0.0905 -0.107337,0.0905 -0.0064,0 -0.109893,0.0983 -0.229882,0.21843 -0.119989,0.12013 -0.223946,0.21843 -0.231012,0.21843 -0.0071,0 -0.06881,0.0562 -0.137197,0.12481 -0.06839,0.0687 -0.130214,0.12482 -0.137378,0.12482 -0.0072,0 -0.05487,0.0421 -0.106016,0.0936 -0.05114,0.0515 -0.09849,0.0936 -0.105212,0.0936 -0.0068,0 -0.08611,0.0716 -0.176419,0.15913 -0.424444,0.41139 -0.529681,0.52358 -0.529681,0.56469 0,0.0395 -0.02775,0.0296 -0.08737,-0.0311 -0.03033,-0.0309 -0.05969,-0.0562 -0.06527,-0.0562 -0.0056,0 -0.0658,-0.0562 -0.133832,-0.12481 -0.06803,-0.0687 -0.128387,-0.12482 -0.134131,-0.12482 -0.0057,0 -0.07203,-0.0618 -0.147315,-0.13729 -0.07528,-0.0755 -0.142777,-0.13731 -0.149994,-0.13731 -0.0072,0 -0.04363,-0.0309 -0.08092,-0.0687 -0.03729,-0.0378 -0.07376,-0.0687 -0.08107,-0.0687 -0.0073,0 -0.04946,-0.0366 -0.09368,-0.0811 -0.04422,-0.0445 -0.08638,-0.0811 -0.09368,-0.0811 -0.0073,0 -0.04378,-0.0309 -0.08107,-0.0687 -0.03729,-0.0378 -0.07384,-0.0687 -0.08122,-0.0687 -0.0074,0 -0.03824,-0.0253 -0.06856,-0.0562 -0.03032,-0.0309 -0.05982,-0.0562 -0.06555,-0.0562 -0.0057,0 -0.04059,-0.0309 -0.07745,-0.0687 -0.03687,-0.0377 -0.07192,-0.0687 -0.07789,-0.0687 -0.006,0 -0.04138,-0.0309 -0.07867,-0.0687 -0.03729,-0.0377 -0.07391,-0.0687 -0.08138,-0.0687 -0.0075,0 -0.03263,-0.0196 -0.05593,-0.0437 -0.02329,-0.024 -0.04852,-0.0437 -0.05608,-0.0437 -0.0076,0 -0.03568,-0.0225 -0.0625,-0.05 -0.02681,-0.0274 -0.05494,-0.0499 -0.0625,-0.0499 -0.0076,0 -0.0328,-0.0196 -0.05608,-0.0437 -0.02329,-0.024 -0.04856,-0.0437 -0.05617,-0.0437 -0.0076,0 -0.03288,-0.0197 -0.05617,-0.0437 -0.02329,-0.0241 -0.0469,-0.0437 -0.05249,-0.0437 -0.0056,0 -0.02778,-0.0169 -0.04932,-0.0375 -0.02156,-0.0206 -0.04846,-0.0375 -0.0598,-0.0375 -0.01135,0 -0.02669,-0.006 -0.03412,-0.0135 -0.01387,-0.0138 -0.04691,-6.8e-4 -0.09423,0.037 -0.02201,0.0176 -0.07399,0.0464 -0.19681,0.10885 -0.03776,0.0192 -0.07146,0.038 -0.07489,0.0418 -0.01322,0.0145 -0.06291,0.038 -0.0802,0.038 -0.01,0 -0.05639,0.0196 -0.103143,0.0436 -0.04675,0.024 -0.09095,0.0436 -0.09821,0.0437 -0.0072,3e-5 -0.05219,0.0197 -0.09985,0.0437 -0.04766,0.024 -0.09351,0.0436 -0.101879,0.0437 -0.0084,2e-5 -0.03523,0.0113 -0.05967,0.025 -0.02445,0.0138 -0.05217,0.025 -0.06161,0.025 -0.0094,0 -0.03876,0.0104 -0.06515,0.0233 -0.08446,0.0411 -0.141955,0.0641 -0.160366,0.0641 -0.01835,0 -0.102851,0.0432 -0.124149,0.0636 -0.0065,0.006 -0.02104,0.0113 -0.03226,0.0113 -0.01121,0 -0.0608,0.0196 -0.110168,0.0437 -0.04937,0.024 -0.09771,0.0437 -0.107421,0.0437 -0.0097,0 -0.02113,0.006 -0.02536,0.0125 -0.0042,0.007 -0.01844,0.0125 -0.03156,0.0125 -0.01312,0 -0.04385,0.0112 -0.06829,0.0249 -0.02445,0.0138 -0.05015,0.025 -0.05712,0.025 -0.007,0 -0.06437,0.0245 -0.127559,0.0545 -0.192266,0.0913 -0.25838,0.1202 -0.274999,0.1202 -0.02269,0 -0.08306,0.0295 -0.08318,0.0405 -4.7e-5,0.006 -0.01052,0.009 -0.02325,0.009 -0.02817,0 -0.354598,0.16256 -0.389073,0.19376 -0.02584,0.0234 -0.03352,0.0863 -0.01215,0.0996 0.0068,0.004 0.01248,0.0408 0.01248,0.0811 0,0.0403 0.0057,0.0769 0.01248,0.0811 0.0068,0.004 0.01248,0.052 0.01248,0.10609 0,0.0541 0.0057,0.10185 0.01248,0.1061 0.007,0.004 0.01248,0.0643 0.01248,0.13729 0,0.0713 0.0049,0.13264 0.01097,0.13636 0.0061,0.004 0.01504,0.094 0.02004,0.20052 0.0049,0.10656 0.01411,0.19686 0.02025,0.20065 0.0061,0.004 0.01117,0.0455 0.01117,0.0928 0,0.0472 0.0056,0.0894 0.01248,0.0936 0.0068,0.004 0.01248,0.0576 0.01248,0.11858 0,0.061 0.0057,0.11434 0.01248,0.11858 0.0068,0.004 0.01248,0.0467 0.01248,0.0944 0,0.0476 0.0052,0.0866 0.01157,0.0866 0.0064,0 0.01452,0.0464 0.01814,0.10298 0.0036,0.0566 0.01554,0.19003 0.02646,0.29644 0.01093,0.1064 0.02287,0.22997 0.02655,0.2746 0.0037,0.0445 0.01183,0.0865 0.01814,0.093 0.0063,0.007 0.01147,0.0441 0.01147,0.0835 0,0.0394 0.0057,0.0751 0.01248,0.0794 0.0068,0.004 0.01248,0.0399 0.01248,0.0794 0,0.0394 0.0051,0.077 0.01143,0.0835 0.0063,0.007 0.01452,0.0456 0.01829,0.0867 0.01943,0.21205 0.0358,0.33922 0.04613,0.35868 0.0063,0.0119 0.01152,0.0495 0.01152,0.0835 0,0.034 0.0056,0.0653 0.01248,0.0696 0.0068,0.004 0.01248,0.0351 0.01248,0.0687 0,0.0335 0.0056,0.0644 0.01248,0.0687 0.0068,0.004 0.01248,0.0287 0.01248,0.0544 0,0.0257 0.0051,0.052 0.01133,0.0585 0.0063,0.007 0.01437,0.0399 0.01807,0.0743 0.01352,0.12526 0.03949,0.27924 0.04861,0.28824 0.0052,0.006 0.0094,0.0305 0.0094,0.0563 0,0.0259 0.0056,0.0506 0.01248,0.0548 0.0068,0.004 0.01248,0.0327 0.01248,0.0632 0,0.0305 0.0057,0.0554 0.01248,0.0554 0.0068,0 0.01248,0.0241 0.01248,0.0537 0,0.0296 0.005,0.059 0.01121,0.0655 0.0062,0.007 0.0144,0.0343 0.01831,0.0618 0.01892,0.13302 0.04006,0.24229 0.04851,0.2507 0.0052,0.006 0.0094,0.0306 0.0094,0.0564 0,0.0259 0.0056,0.0506 0.01248,0.0548 0.0068,0.004 0.01248,0.0267 0.01248,0.0499 0,0.0232 0.0056,0.0457 0.01248,0.0499 0.0068,0.004 0.01248,0.024 0.01248,0.0437 0,0.0198 0.0056,0.0394 0.01248,0.0437 0.0068,0.004 0.01248,0.0236 0.01248,0.0429 0,0.0194 0.0084,0.0553 0.01873,0.08 0.0103,0.0246 0.01873,0.0615 0.01873,0.0819 0,0.0203 0.0057,0.0405 0.01248,0.0449 0.0068,0.004 0.01248,0.0211 0.01248,0.0375 0,0.0163 0.0056,0.0332 0.01248,0.0375 0.0068,0.004 0.01248,0.0239 0.01248,0.0437 0,0.0198 0.0056,0.0394 0.01248,0.0437 0.0068,0.004 0.01248,0.0211 0.01248,0.0375 0,0.0163 0.0049,0.0328 0.01111,0.0366 0.0061,0.004 0.01382,0.0251 0.01715,0.0475 0.0034,0.0224 0.01321,0.0604 0.02197,0.0844 0.0088,0.024 0.01989,0.0549 0.02475,0.0687 0.0049,0.0138 0.02087,0.0494 0.03557,0.0792 0.01471,0.0298 0.02674,0.0623 0.02674,0.072 0,0.01 0.0049,0.0274 0.01098,0.0394 0.006,0.0119 0.02086,0.0526 0.03294,0.0903 0.01209,0.0378 0.0268,0.074 0.03271,0.0805 0.0059,0.007 0.01073,0.0221 0.01073,0.0345 0,0.0204 0.02132,0.0686 0.03744,0.0847 0.0114,0.0114 0.03671,0.0556 0.06215,0.10845 0.01382,0.0288 0.03063,0.0557 0.03733,0.0599 0.0068,0.004 0.0218,0.0284 0.03355,0.0538 0.01176,0.0255 0.03577,0.0637 0.05338,0.0851 0.0676,0.0819 0.07571,0.0929 0.07571,0.10245 0,0.006 0.01966,0.0289 0.04368,0.0523 0.02403,0.0233 0.04368,0.0485 0.04368,0.056 0,0.007 0.02527,0.0385 0.05617,0.0688 0.0309,0.0303 0.05617,0.0609 0.05617,0.0679 0,0.017 0.239197,0.25662 0.25616,0.25662 0.0072,0 0.03804,0.0253 0.06836,0.0562 0.03032,0.0309 0.06035,0.0562 0.06673,0.0562 0.0064,0 0.03751,0.023 0.06917,0.0511 0.110948,0.0984 0.126725,0.11122 0.136735,0.11122 0.0055,0 0.02328,0.0141 0.03941,0.0312 0.01612,0.0171 0.03571,0.0312 0.04353,0.0312 0.0078,0 0.03035,0.0169 0.05009,0.0375 0.01973,0.0206 0.04256,0.0375 0.05073,0.0375 0.0082,0 0.02198,0.009 0.03067,0.019 0.01882,0.0226 0.121538,0.0933 0.135712,0.0933 0.0054,0 0.02009,0.0112 0.03252,0.0249 0.01242,0.0138 0.03015,0.025 0.03938,0.025 0.0092,0 0.01679,0.006 0.01679,0.0119 0,0.007 0.02106,0.0215 0.0468,0.0333 0.02574,0.0118 0.05654,0.0296 0.06843,0.0398 0.02272,0.0193 0.09613,0.0605 0.174968,0.0982 0.02574,0.0123 0.0468,0.0267 0.0468,0.0319 0,0.006 0.0076,0.01 0.01679,0.01 0.0092,0 0.02695,0.0112 0.03938,0.0249 0.01242,0.0138 0.02695,0.025 0.03227,0.025 0.01408,0 0.155459,0.0689 0.24233,0.11816 0.04119,0.0233 0.105783,0.0574 0.143539,0.0755 0.03776,0.0182 0.07707,0.0382 0.08737,0.0444 0.06612,0.0399 0.139926,0.0739 0.160319,0.0739 0.01312,0 0.0305,0.008 0.03864,0.0178 0.01844,0.0221 0.131469,0.082 0.155009,0.082 0.0096,0 0.02441,0.008 0.03296,0.0187 0.0085,0.0103 0.02591,0.0187 0.03859,0.0187 0.01267,0 0.04288,0.0112 0.06713,0.025 0.02423,0.0137 0.06232,0.0352 0.08463,0.0477 0.02232,0.0125 0.0706,0.0324 0.107319,0.0443 0.03671,0.0119 0.0785,0.0325 0.09284,0.0459 0.01435,0.0134 0.03207,0.0243 0.03938,0.0243 0.0073,0 0.05381,0.0197 0.103344,0.0437 0.04953,0.024 0.09538,0.0437 0.101891,0.0437 0.0065,0 0.01372,0.004 0.016,0.009 0.0023,0.006 0.03225,0.0231 0.06658,0.0399 0.03432,0.0168 0.07083,0.0369 0.08113,0.0445 0.0103,0.007 0.0426,0.0215 0.07177,0.0307 0.02917,0.009 0.05304,0.0214 0.05304,0.0272 0,0.006 0.01372,0.0105 0.03047,0.0105 0.01676,0 0.03364,0.006 0.03752,0.0114 0.0039,0.006 0.07864,-0.0245 0.166119,-0.0686 0.08749,-0.044 0.165248,-0.08 0.172808,-0.08 z m -0.388198,-1.64767 c -0.02681,-0.0274 -0.05481,-0.0499 -0.06221,-0.0499 -0.0074,0 -0.0468,-0.0337 -0.08757,-0.0748 -0.04076,-0.0412 -0.08003,-0.0749 -0.08726,-0.0749 -0.0072,0 -0.06065,-0.0477 -0.118693,-0.10609 -0.05805,-0.0584 -0.110526,-0.10609 -0.116616,-0.10609 -0.0061,0 -0.03991,-0.0273 -0.07516,-0.0609 -0.03525,-0.0335 -0.109026,-0.1007 -0.163946,-0.14937 -0.05492,-0.0487 -0.133994,-0.11957 -0.175721,-0.15755 -0.04173,-0.038 -0.0812,-0.0691 -0.08771,-0.0691 -0.0065,0 -0.05085,-0.0394 -0.09854,-0.0874 -0.04769,-0.048 -0.09266,-0.0874 -0.09994,-0.0874 -0.0072,0 -0.04375,-0.0309 -0.08104,-0.0687 -0.03729,-0.0378 -0.07367,-0.0687 -0.08085,-0.0687 -0.0072,0 -0.09998,-0.0871 -0.206225,-0.19347 -0.10624,-0.10641 -0.197671,-0.19347 -0.20318,-0.19347 -0.01381,0 -0.346014,-0.33215 -0.346014,-0.34595 0,-0.006 -0.01966,-0.0302 -0.04368,-0.0534 -0.02403,-0.0233 -0.04368,-0.049 -0.04368,-0.0571 0,-0.008 -0.0083,-0.0217 -0.01844,-0.0301 -0.02772,-0.023 -0.118863,-0.22392 -0.118863,-0.26204 0,-0.0131 -0.0056,-0.0273 -0.01248,-0.0315 -0.0068,-0.004 -0.01248,-0.0296 -0.01248,-0.0562 0,-0.0266 -0.0056,-0.052 -0.01248,-0.0562 -0.0068,-0.004 -0.01248,-0.0327 -0.01248,-0.0632 0,-0.0305 -0.0057,-0.0554 -0.01248,-0.0554 -0.0068,0 -0.01248,-0.0298 -0.01248,-0.0662 0,-0.0364 -0.0051,-0.0715 -0.01133,-0.078 -0.0063,-0.007 -0.01446,-0.0399 -0.0183,-0.0743 -0.02129,-0.19071 -0.04012,-0.31748 -0.04838,-0.32565 -0.0052,-0.006 -0.0094,-0.0417 -0.0094,-0.0814 0,-0.0396 -0.0057,-0.0755 -0.01248,-0.0798 -0.0068,-0.004 -0.01248,-0.0351 -0.01248,-0.0687 0,-0.0335 -0.0057,-0.0644 -0.01248,-0.0687 -0.0068,-0.004 -0.01248,-0.0399 -0.01248,-0.0794 0,-0.0394 -0.0052,-0.077 -0.0115,-0.0835 -0.0063,-0.007 -0.01433,-0.0512 -0.01779,-0.0992 -0.0098,-0.13706 -0.03283,-0.29746 -0.04604,-0.32123 -0.0066,-0.0119 -0.01204,-0.0495 -0.01204,-0.0835 0,-0.034 -0.0056,-0.0653 -0.01248,-0.0696 -0.0068,-0.004 -0.01248,-0.0296 -0.01248,-0.0562 0,-0.0266 -0.0056,-0.0519 -0.01248,-0.0562 -0.0068,-0.004 -0.01248,-0.0352 -0.01248,-0.0687 0,-0.0335 -0.0049,-0.064 -0.01088,-0.0677 -0.006,-0.003 -0.01427,-0.0335 -0.01842,-0.0663 -0.0114,-0.0899 -0.03817,-0.21238 -0.04872,-0.22289 -0.0052,-0.006 -0.0094,-0.0222 -0.0094,-0.0377 0,-0.0156 -0.0056,-0.0319 -0.01248,-0.0361 -0.0068,-0.004 -0.01248,-0.0243 -0.01248,-0.0446 0,-0.0203 -0.0057,-0.048 -0.01248,-0.0617 -0.0068,-0.0137 -0.0181,-0.036 -0.02497,-0.0496 -0.0068,-0.0137 -0.01248,-0.0331 -0.01248,-0.0432 0,-0.0189 -0.02264,-0.0758 -0.06403,-0.16091 -0.01283,-0.0264 -0.02334,-0.0578 -0.02334,-0.0698 0,-0.012 -0.01124,-0.032 -0.02497,-0.0445 -0.01373,-0.0124 -0.02497,-0.0328 -0.02497,-0.0454 0,-0.0126 -0.01966,-0.06 -0.04368,-0.1052 -0.02403,-0.0453 -0.04368,-0.0901 -0.04368,-0.0996 0,-0.01 -0.01124,-0.0373 -0.02497,-0.0618 -0.01374,-0.0244 -0.02497,-0.0508 -0.02497,-0.0587 0,-0.008 -0.01898,-0.054 -0.04218,-0.10259 -0.07455,-0.15608 -0.107603,-0.23216 -0.10765,-0.24779 -2.6e-5,-0.008 -0.01126,-0.0336 -0.02496,-0.0562 -0.0137,-0.0225 -0.02492,-0.0516 -0.02492,-0.0648 0,-0.0132 -0.0057,-0.0273 -0.01248,-0.0316 -0.0068,-0.004 -0.01248,-0.0203 -0.01248,-0.0357 0,-0.0154 -0.005,-0.0333 -0.01121,-0.0398 -0.0062,-0.007 -0.01369,-0.0343 -0.01671,-0.0618 -0.003,-0.0274 -0.0095,-0.059 -0.01447,-0.0702 -0.01532,-0.0345 0.09007,-0.1322 0.199477,-0.1849 0.02805,-0.0135 0.05823,-0.0333 0.06705,-0.0439 0.0088,-0.0106 0.0231,-0.0194 0.03172,-0.0194 0.0086,0 0.02254,-0.008 0.03095,-0.0185 0.0084,-0.0101 0.04528,-0.0326 0.08194,-0.05 0.03666,-0.0174 0.07005,-0.0371 0.07421,-0.0438 0.0042,-0.007 0.04239,-0.0293 0.08497,-0.0501 0.112706,-0.0553 0.174753,-0.0909 0.195996,-0.11262 0.0103,-0.0105 0.044,-0.0299 0.07489,-0.0429 0.0309,-0.0131 0.06776,-0.0339 0.08194,-0.0464 0.01418,-0.0124 0.03174,-0.0226 0.03904,-0.0226 0.0073,0 0.02053,-0.009 0.0294,-0.0194 0.0089,-0.0107 0.03365,-0.0268 0.05507,-0.0357 0.02141,-0.009 0.04713,-0.024 0.05716,-0.0336 0.01003,-0.01 0.03508,-0.0254 0.05567,-0.0355 0.02059,-0.01 0.04731,-0.0264 0.05938,-0.0363 0.02295,-0.0189 0.05095,-0.0357 0.118144,-0.0707 l 0.04022,-0.0209 0.04239,0.045 c 0.02331,0.0248 0.04769,0.045 0.05418,0.045 0.0064,0 0.02794,0.0169 0.04767,0.0375 0.01973,0.0206 0.04228,0.0375 0.05009,0.0375 0.0078,0 0.0274,0.0141 0.04354,0.0312 0.01612,0.0171 0.03472,0.0312 0.04134,0.0312 0.0066,0 0.03794,0.0223 0.0696,0.0496 0.142061,0.12255 0.160817,0.13757 0.17169,0.13757 0.0063,0 0.04205,0.0309 0.07934,0.0687 0.03729,0.0378 0.07126,0.0687 0.07548,0.0687 0.0084,0 0.09855,0.0805 0.248375,0.22155 0.05284,0.0497 0.101475,0.0905 0.108082,0.0905 0.0066,0 0.04252,0.0309 0.07981,0.0687 0.03729,0.0378 0.07375,0.0687 0.08102,0.0687 0.0072,0 0.05506,0.0421 0.106209,0.0936 0.05114,0.0515 0.09891,0.0936 0.106142,0.0936 0.0072,0 0.04934,0.0366 0.09357,0.0811 0.04423,0.0445 0.08619,0.0811 0.09325,0.0811 0.0071,1e-5 0.102668,0.0905 0.212454,0.20117 0.109788,0.11064 0.212977,0.20625 0.229309,0.21246 0.03152,0.0119 0.0641,-0.005 0.0641,-0.0323 0,-0.008 0.01405,-0.0282 0.0312,-0.0443 0.01716,-0.0161 0.0312,-0.0343 0.0312,-0.0403 0,-0.0141 0.306489,-0.32165 0.320519,-0.32165 0.0058,0 0.103077,-0.0927 0.216193,-0.20595 0.113116,-0.11328 0.211088,-0.20595 0.217718,-0.20595 0.0066,0 0.08664,-0.0716 0.177811,-0.15914 0.09117,-0.0875 0.231844,-0.21961 0.312613,-0.29352 0.08077,-0.0739 0.192193,-0.17641 0.247605,-0.2278 0.05542,-0.0514 0.105964,-0.0934 0.112335,-0.0935 0.0064,-3e-5 0.04207,-0.031 0.07932,-0.0687 0.03725,-0.0377 0.07412,-0.0686 0.08191,-0.0686 0.02532,0 0.147766,0.0655 0.226721,0.12138 0.02166,0.0153 0.0923,0.053 0.157004,0.0839 0.0647,0.0309 0.131235,0.0666 0.147859,0.0796 0.01662,0.0129 0.08077,0.0479 0.142559,0.0778 0.06178,0.0299 0.11885,0.0607 0.126814,0.0685 0.008,0.007 0.0453,0.0291 0.08296,0.0476 0.03766,0.0185 0.07537,0.0418 0.08378,0.052 0.0084,0.0101 0.02559,0.0185 0.03817,0.0185 0.01257,0 0.042,0.013 0.06537,0.0288 0.02337,0.0159 0.09523,0.0555 0.159697,0.088 0.14097,0.0711 0.161101,0.083 0.18608,0.10973 0.01062,0.0114 0.03288,0.0226 0.04947,0.0249 0.04217,0.006 0.08475,0.0797 0.06468,0.11179 -0.008,0.0128 -0.01455,0.036 -0.0146,0.0515 -4.3e-5,0.0156 -0.0085,0.0443 -0.01872,0.0641 -0.01025,0.0197 -0.01864,0.0459 -0.01864,0.0582 0,0.0123 -0.0042,0.0244 -0.0094,0.0266 -0.0146,0.007 -0.09049,0.16122 -0.09049,0.18452 0,0.0114 -0.0083,0.0317 -0.01833,0.045 -0.01008,0.0133 -0.01851,0.0335 -0.01872,0.0448 -1.58e-4,0.0113 -0.01725,0.0526 -0.03784,0.0918 -0.02059,0.0391 -0.03744,0.0779 -0.03744,0.0861 0,0.008 -0.01966,0.0534 -0.04368,0.10024 -0.02403,0.0469 -0.04368,0.0925 -0.04368,0.1012 0,0.009 -0.01051,0.0375 -0.02334,0.0639 -0.0414,0.0851 -0.06404,0.14201 -0.06404,0.16092 0,0.0175 -0.02344,0.0672 -0.03803,0.0805 -0.01311,0.0119 -0.07066,0.14398 -0.08707,0.19971 -0.0091,0.0309 -0.02118,0.0615 -0.02684,0.068 -0.0057,0.007 -0.01032,0.0245 -0.01032,0.0398 0,0.0154 -0.0056,0.0315 -0.01248,0.0357 -0.0068,0.004 -0.01248,0.0295 -0.01248,0.0562 0,0.0266 -0.0057,0.0519 -0.01248,0.0562 -0.0068,0.004 -0.01248,0.0203 -0.01248,0.0357 0,0.0154 -0.0057,0.0336 -0.01257,0.0406 -0.0069,0.007 -0.01836,0.06 -0.02541,0.11795 -0.02137,0.17552 -0.02651,0.20473 -0.03817,0.21708 -0.0062,0.007 -0.01121,0.0329 -0.01121,0.0586 0,0.0257 -0.0056,0.0501 -0.01248,0.0544 -0.0068,0.004 -0.01248,0.0408 -0.01248,0.0811 0,0.0403 -0.0057,0.0769 -0.01248,0.0811 -0.0068,0.004 -0.01248,0.0351 -0.01248,0.0687 0,0.0335 -0.0048,0.0639 -0.01062,0.0675 -0.0058,0.003 -0.01457,0.0728 -0.01939,0.15363 -0.0049,0.0809 -0.01408,0.15241 -0.02058,0.15893 -0.0065,0.007 -0.0118,0.0441 -0.0118,0.0835 0,0.0394 -0.0057,0.0751 -0.01248,0.0794 -0.0068,0.004 -0.01248,0.0351 -0.01248,0.0687 0,0.0335 -0.0056,0.0644 -0.01248,0.0687 -0.0068,0.004 -0.01248,0.0408 -0.01248,0.0811 0,0.0403 -0.0056,0.0769 -0.01248,0.0811 -0.0068,0.004 -0.01248,0.0318 -0.01248,0.0611 0,0.0293 -0.0042,0.0575 -0.0094,0.0626 -0.0052,0.006 -0.01651,0.0777 -0.02524,0.16123 -0.02665,0.25497 -0.02971,0.27636 -0.04144,0.28863 -0.0063,0.007 -0.01133,0.0385 -0.01133,0.0711 0,0.0325 -0.0056,0.0627 -0.01248,0.0669 -0.0068,0.004 -0.01248,0.0211 -0.01248,0.0375 0,0.0163 -0.0056,0.0332 -0.01248,0.0375 -0.0068,0.004 -0.01248,0.0154 -0.01248,0.0248 0,0.0265 -0.07195,0.17562 -0.09329,0.19334 -0.01047,0.009 -0.01905,0.0211 -0.01905,0.0275 0,0.0123 -0.05107,0.0705 -0.190345,0.21689 -0.04634,0.0487 -0.08425,0.0942 -0.08425,0.10102 0,0.0146 -0.05308,0.0668 -0.06794,0.0668 -0.01336,0 -0.08149,0.0599 -0.256583,0.22565 -0.312192,0.29547 -0.370289,0.34851 -0.381816,0.34851 -0.0066,0 -0.05383,0.0421 -0.10497,0.0936 -0.05114,0.0515 -0.0983,0.0936 -0.104783,0.0936 -0.0064,0 -0.04984,0.0351 -0.09635,0.078 -0.0465,0.0429 -0.124355,0.11172 -0.173006,0.15291 -0.04865,0.0413 -0.113411,0.0988 -0.143912,0.12793 -0.0305,0.0292 -0.06,0.053 -0.06557,0.053 -0.0056,0 -0.04063,0.0309 -0.07791,0.0687 -0.03729,0.0377 -0.07384,0.0687 -0.08122,0.0687 -0.0074,0 -0.03824,0.0253 -0.06856,0.0562 -0.03032,0.0309 -0.06118,0.0562 -0.0686,0.0562 -0.01695,0 -0.131111,0.11501 -0.131111,0.13208 0,0.007 -0.02246,0.0346 -0.04993,0.0614 -0.02746,0.0268 -0.04992,0.056 -0.04992,0.065 0,0.0318 -0.04568,0.0153 -0.09361,-0.0338 z m -0.187225,-9.18654 c -0.13717,-0.13729 -0.255166,-0.24963 -0.262212,-0.24963 -0.0071,0 -0.07441,-0.0618 -0.149685,-0.1373 -0.07528,-0.0755 -0.142777,-0.1373 -0.149994,-0.1373 -0.0072,0 -0.04363,-0.0309 -0.08092,-0.0687 -0.03729,-0.0378 -0.0724,-0.0687 -0.07802,-0.0687 -0.0057,0 -0.03389,-0.0221 -0.06283,-0.049 -0.09777,-0.0911 -0.164781,-0.14506 -0.202396,-0.16294 -0.02059,-0.01 -0.04997,-0.0287 -0.06526,-0.0421 l -0.02782,-0.0244 0.03237,-0.0168 c 0.0178,-0.009 0.04069,-0.0168 0.05086,-0.0168 0.01016,0 0.03342,-0.01 0.05168,-0.0218 0.0604,-0.0398 0.0812,-0.0508 0.313915,-0.1677 0.127003,-0.0637 0.238553,-0.12325 0.247891,-0.13218 0.0093,-0.009 0.05824,-0.0358 0.108669,-0.0598 0.05043,-0.024 0.09478,-0.0485 0.09855,-0.0546 0.0038,-0.006 0.0321,-0.0233 0.06295,-0.0383 0.03085,-0.0149 0.0561,-0.0323 0.0561,-0.0385 0,-0.006 0.0077,-0.0114 0.01719,-0.0114 0.0094,0 0.02441,-0.009 0.03325,-0.0194 0.0088,-0.0106 0.03901,-0.0305 0.06705,-0.0441 0.02805,-0.0137 0.06786,-0.0354 0.08845,-0.0484 0.02059,-0.013 0.04903,-0.024 0.06319,-0.0245 0.03308,-0.002 0.227187,0.097 0.267369,0.13529 0.01019,0.01 0.04799,0.0311 0.08401,0.0476 0.03603,0.0165 0.06849,0.0348 0.07216,0.0408 0.0037,0.006 0.05999,0.0371 0.125154,0.0692 0.06517,0.0321 0.121364,0.0631 0.124878,0.0687 0.0035,0.006 0.05939,0.0361 0.124189,0.0677 0.0648,0.0315 0.121086,0.0626 0.125097,0.0691 0.0078,0.0127 0.211709,0.11234 0.229821,0.11234 0.006,0 0.01396,0.008 0.01766,0.0176 0.0037,0.01 0.04223,0.0348 0.08559,0.0558 0.04335,0.0211 0.06987,0.0384 0.05892,0.0385 -0.01094,1.6e-4 -0.03007,0.0115 -0.0425,0.0253 -0.01242,0.0138 -0.02757,0.0249 -0.03364,0.0249 -0.02506,0 -0.159823,0.10769 -0.159823,0.12771 0,0.0138 -0.05795,0.072 -0.07156,0.072 -0.0057,0 -0.04647,0.0365 -0.0907,0.0811 -0.04423,0.0445 -0.08977,0.0811 -0.101213,0.0811 -0.01144,0 -0.09305,0.073 -0.181347,0.16205 -0.0883,0.0891 -0.166225,0.16214 -0.173174,0.16226 -0.01756,3.1e-4 -0.387971,0.3759 -0.39721,0.40276 -0.0042,0.012 -0.01194,0.0218 -0.01738,0.0218 -0.0054,0 -0.122101,-0.11234 -0.25927,-0.24964 z"
       id="path18"
       inkscape:export-filename=".\tank.svg"
       inkscape:export-xdpi="80"
       inkscape:export-ydpi="80" /></g></svg>
