<?xml version="1.0" encoding="UTF-8" standalone="no"?>
<!-- Created with Inkscape (http://www.inkscape.org/) -->

<svg
   width="11.774023mm"
   height="9.5906048mm"
   viewBox="0 0 11.774023 9.5906047"
   version="1.1"
   id="svg1"
   xml:space="preserve"
   sodipodi:docname="rect9.svg"
   inkscape:version="1.3.2 (091e20e, 2023-11-25, custom)"
   xmlns:inkscape="http://www.inkscape.org/namespaces/inkscape"
   xmlns:sodipodi="http://sodipodi.sourceforge.net/DTD/sodipodi-0.dtd"
   xmlns="http://www.w3.org/2000/svg"
   xmlns:svg="http://www.w3.org/2000/svg"><sodipodi:namedview
     id="namedview1"
     pagecolor="#ffffff"
     bordercolor="#000000"
     borderopacity="0.25"
     inkscape:showpageshadow="2"
     inkscape:pageopacity="0.0"
     inkscape:pagecheckerboard="0"
     inkscape:deskcolor="#d1d1d1"
     inkscape:document-units="mm"
     showguides="true"
     inkscape:zoom="1.3978784"
     inkscape:cx="-613.07191"
     inkscape:cy="404.18393"
     inkscape:window-width="1366"
     inkscape:window-height="714"
     inkscape:window-x="-8"
     inkscape:window-y="-8"
     inkscape:window-maximized="1"
     inkscape:current-layer="layer1"><sodipodi:guide
       position="-46.209782,206.99375"
       orientation="0,-1"
       id="guide14"
       inkscape:locked="false" /><sodipodi:guide
       position="-46.966882,221.01667"
       orientation="0,-1"
       id="guide15"
       inkscape:locked="false" /></sodipodi:namedview><defs
     id="defs1" /><g
     inkscape:label="Layer 1"
     inkscape:groupmode="layer"
     id="layer1"
     transform="translate(140.68869,-144.0554)"><path
       style="fill:#f9f9f9;stroke-width:0.0351198"
       d="m -137.22876,153.64368 c -0.21447,-0.006 -0.28075,-0.0104 -0.52827,-0.0354 -0.65608,-0.0663 -1.39026,-0.26441 -2.02855,-0.54739 -0.26674,-0.11828 -0.65507,-0.32395 -0.84271,-0.44634 l -0.0604,-0.0394 0.0743,0.005 c 0.46885,0.0354 0.79835,0.0266 1.20334,-0.0321 0.69421,-0.10075 1.39515,-0.37093 1.98386,-0.76467 0.1085,-0.0726 0.30138,-0.21381 0.30173,-0.22094 1.5e-4,-0.003 -0.0468,-0.008 -0.10427,-0.0112 -0.48248,-0.0261 -0.9828,-0.21998 -1.36942,-0.53066 -0.29071,-0.23361 -0.5425,-0.56214 -0.69626,-0.90847 -0.0355,-0.0799 -0.0887,-0.22356 -0.0844,-0.22787 0.001,-0.001 0.0398,0.005 0.0855,0.0133 0.0667,0.0127 0.13786,0.0157 0.36178,0.0155 0.24612,-2.1e-4 0.29182,-0.002 0.39027,-0.0206 0.12945,-0.0237 0.23694,-0.0499 0.23694,-0.0578 0,-0.003 -0.0324,-0.0131 -0.072,-0.0222 -0.22339,-0.0517 -0.46199,-0.14895 -0.67747,-0.27617 -0.3318,-0.19589 -0.64329,-0.50734 -0.83819,-0.83809 -0.16989,-0.28834 -0.27057,-0.57115 -0.31775,-0.89255 -0.0188,-0.12829 -0.0345,-0.36801 -0.0239,-0.36801 0.003,0 0.048,0.0209 0.0991,0.0466 0.15256,0.0766 0.30098,0.13115 0.48045,0.17672 0.17173,0.0436 0.50424,0.0875 0.50424,0.0666 0,-0.005 -0.0448,-0.0414 -0.0994,-0.0816 -0.12431,-0.0912 -0.3246,-0.28467 -0.42712,-0.41256 -0.45798,-0.57125 -0.63218,-1.28289 -0.49039,-2.00331 0.0426,-0.21645 0.1318,-0.46694 0.23125,-0.64938 l 0.0448,-0.0822 0.0336,0.0408 c 0.1918,0.23288 0.53756,0.58869 0.76303,0.78521 1.01405,0.88386 2.22768,1.446 3.5403,1.63985 0.14208,0.021 0.42173,0.0507 0.56585,0.0602 l 0.0966,0.006 -0.006,-0.036 c -0.003,-0.0198 -0.0122,-0.0706 -0.0198,-0.11297 -0.0262,-0.14645 -0.0352,-0.29094 -0.0299,-0.4805 0.0151,-0.54317 0.19461,-1.02937 0.53648,-1.45326 0.0838,-0.1039 0.26934,-0.28771 0.37601,-0.37253 0.23037,-0.18317 0.52619,-0.33704 0.81302,-0.42289 0.40937,-0.12254 0.91736,-0.12947 1.31778,-0.018 0.41514,0.11556 0.76396,0.31458 1.06229,0.60609 l 0.0802,0.0784 0.0963,-0.0207 c 0.44607,-0.0956 0.93033,-0.28034 1.35441,-0.51665 l 0.078,-0.0435 -0.007,0.0268 c -0.0237,0.0963 -0.14939,0.36137 -0.23852,0.50284 -0.18287,0.29027 -0.4373,0.54996 -0.72634,0.74137 -0.0447,0.0296 -0.0797,0.0555 -0.0777,0.0576 0.007,0.007 0.21204,-0.0248 0.37947,-0.0581 0.30432,-0.0607 0.68408,-0.17767 0.93096,-0.28687 0.0302,-0.0133 0.0562,-0.0229 0.0579,-0.0212 0.004,0.004 -0.11274,0.16685 -0.20451,0.28442 -0.24261,0.3108 -0.59451,0.65791 -0.89249,0.88038 l -0.0922,0.0688 -0.002,0.32261 c -0.002,0.33254 -0.0149,0.54031 -0.051,0.8231 -0.13883,1.08867 -0.52907,2.13651 -1.14006,3.06122 -0.86939,1.31575 -2.13257,2.26517 -3.60065,2.70628 -0.75107,0.22567 -1.48544,0.31864 -2.33164,0.29518 z"
       id="path13"
       inkscape:export-filename=".\twitter.svg"
       inkscape:export-xdpi="96"
       inkscape:export-ydpi="96" /></g></svg>
