<?xml version="1.0" encoding="UTF-8" standalone="no"?>
<!-- Created with Inkscape (http://www.inkscape.org/) -->

<svg
   width="9.5543833mm"
   height="9.6059866mm"
   viewBox="0 0 9.554383 9.6059865"
   version="1.1"
   id="svg1"
   xml:space="preserve"
   sodipodi:docname="rect9.svg"
   inkscape:version="1.3.2 (091e20e, 2023-11-25, custom)"
   xmlns:inkscape="http://www.inkscape.org/namespaces/inkscape"
   xmlns:sodipodi="http://sodipodi.sourceforge.net/DTD/sodipodi-0.dtd"
   xmlns="http://www.w3.org/2000/svg"
   xmlns:svg="http://www.w3.org/2000/svg"><sodipodi:namedview
     id="namedview1"
     pagecolor="#ffffff"
     bordercolor="#000000"
     borderopacity="0.25"
     inkscape:showpageshadow="2"
     inkscape:pageopacity="0.0"
     inkscape:pagecheckerboard="0"
     inkscape:deskcolor="#d1d1d1"
     inkscape:document-units="mm"
     showguides="true"
     inkscape:zoom="1.3978784"
     inkscape:cx="-613.07191"
     inkscape:cy="404.18393"
     inkscape:window-width="1366"
     inkscape:window-height="714"
     inkscape:window-x="-8"
     inkscape:window-y="-8"
     inkscape:window-maximized="1"
     inkscape:current-layer="layer1"><sodipodi:guide
       position="-61.366567,206.98657"
       orientation="0,-1"
       id="guide14"
       inkscape:locked="false" /><sodipodi:guide
       position="-62.123667,221.00949"
       orientation="0,-1"
       id="guide15"
       inkscape:locked="false" /></sodipodi:namedview><defs
     id="defs1" /><g
     inkscape:label="Layer 1"
     inkscape:groupmode="layer"
     id="layer1"
     transform="translate(125.53191,-144.04822)"><path
       style="fill:#f9f9f9;stroke-width:0.0290566"
       d="m -125.53168,153.65078 c 0.003,-0.004 0.015,-0.048 0.0281,-0.0979 0.0322,-0.12321 0.0409,-0.15569 0.0647,-0.2407 0.0112,-0.0402 0.0255,-0.0921 0.0318,-0.11532 0.006,-0.0232 0.0161,-0.0596 0.0218,-0.0807 0.005,-0.0211 0.016,-0.0592 0.0228,-0.0846 0.007,-0.0254 0.0159,-0.0582 0.0204,-0.073 0.005,-0.0148 0.0121,-0.0442 0.017,-0.0653 0.005,-0.0211 0.0111,-0.0419 0.0138,-0.0462 0.003,-0.004 0.007,-0.0232 0.0105,-0.0423 0.003,-0.019 0.008,-0.0381 0.0116,-0.0423 0.003,-0.004 0.008,-0.0231 0.0116,-0.042 0.003,-0.0189 0.008,-0.0397 0.0118,-0.0461 0.005,-0.0108 0.0204,-0.0622 0.038,-0.13099 0.003,-0.0148 0.0119,-0.0442 0.0181,-0.0654 0.006,-0.0211 0.0135,-0.0505 0.0163,-0.0653 0.003,-0.0148 0.008,-0.0339 0.0116,-0.0423 0.003,-0.008 0.0177,-0.0586 0.0311,-0.11148 0.0135,-0.0529 0.0274,-0.10301 0.0309,-0.11147 0.003,-0.008 0.01,-0.0309 0.0138,-0.05 0.004,-0.019 0.02,-0.0796 0.0352,-0.13454 0.0153,-0.055 0.033,-0.11897 0.0395,-0.14222 0.006,-0.0233 0.0147,-0.0527 0.0185,-0.0654 0.004,-0.0127 0.009,-0.0361 0.0122,-0.052 0.003,-0.0159 0.008,-0.0308 0.012,-0.0331 0.003,-0.003 0.007,-0.0111 0.007,-0.0196 0,-0.008 0.005,-0.0316 0.0108,-0.0514 0.0112,-0.0371 0.0308,-0.108 0.043,-0.1552 0.004,-0.0148 0.0128,-0.0477 0.0199,-0.073 0.007,-0.0254 0.0178,-0.0634 0.0237,-0.0846 0.006,-0.0211 0.0141,-0.0487 0.0181,-0.0611 0.006,-0.0198 0.003,-0.0296 -0.0233,-0.0744 -0.0169,-0.0284 -0.0307,-0.0551 -0.0307,-0.0593 0,-0.004 -0.003,-0.009 -0.005,-0.0102 -0.003,-10e-4 -0.0178,-0.0268 -0.0324,-0.0564 -0.0146,-0.0296 -0.0291,-0.0556 -0.0321,-0.0577 -0.003,-0.002 -0.008,-0.0134 -0.0107,-0.025 -0.003,-0.0116 -0.008,-0.0211 -0.0122,-0.0211 -0.003,0 -0.007,-0.005 -0.007,-0.0107 0,-0.006 -0.01,-0.031 -0.0222,-0.0557 -0.0122,-0.0248 -0.033,-0.0692 -0.0464,-0.0988 -0.0133,-0.0296 -0.0276,-0.0598 -0.0317,-0.0672 -0.004,-0.007 -0.007,-0.0171 -0.007,-0.0216 0,-0.005 -0.009,-0.0272 -0.0192,-0.0503 -0.0106,-0.0231 -0.0194,-0.0445 -0.0195,-0.0475 -1.5e-4,-0.003 -0.007,-0.0194 -0.0151,-0.0363 -0.008,-0.017 -0.015,-0.0352 -0.0151,-0.0405 -1.5e-4,-0.005 -0.003,-0.0157 -0.008,-0.0231 -0.004,-0.007 -0.0179,-0.0462 -0.031,-0.0864 -0.0131,-0.0402 -0.027,-0.0789 -0.031,-0.0862 -0.004,-0.007 -0.01,-0.0272 -0.0123,-0.0442 -0.003,-0.0171 -0.008,-0.0311 -0.0108,-0.0311 -0.003,0 -0.008,-0.0161 -0.0112,-0.0357 -0.003,-0.0196 -0.008,-0.0412 -0.0119,-0.0481 -0.007,-0.0133 -0.0218,-0.0673 -0.0285,-0.10458 -0.002,-0.0127 -0.007,-0.0265 -0.0101,-0.0308 -0.003,-0.004 -0.008,-0.025 -0.0116,-0.0461 -0.003,-0.0211 -0.008,-0.0419 -0.0103,-0.0462 -0.005,-0.007 -0.0111,-0.038 -0.0358,-0.16913 -0.006,-0.0339 -0.0152,-0.0805 -0.0196,-0.10379 -0.0724,-0.38353 -0.0884,-0.88822 -0.0423,-1.33384 0.0114,-0.11075 0.0284,-0.23222 0.0418,-0.29983 0.004,-0.0211 0.0129,-0.0661 0.0192,-0.0999 0.006,-0.0339 0.0152,-0.0753 0.0196,-0.0923 0.004,-0.017 0.008,-0.042 0.008,-0.0557 8e-5,-0.0138 0.003,-0.025 0.007,-0.025 0.004,0 0.009,-0.0208 0.0123,-0.0462 0.003,-0.0254 0.008,-0.0461 0.0114,-0.0461 0.003,0 0.008,-0.0112 0.0104,-0.025 0.007,-0.0429 0.0241,-0.10917 0.0298,-0.11797 0.003,-0.005 0.008,-0.0228 0.0105,-0.0403 0.003,-0.0176 0.008,-0.0319 0.0111,-0.0319 0.003,0 0.008,-0.0173 0.0113,-0.0384 0.003,-0.0211 0.008,-0.0384 0.0122,-0.0384 0.004,0 0.007,-0.007 0.007,-0.0145 0,-0.008 0.005,-0.0244 0.0115,-0.0365 0.006,-0.0121 0.0115,-0.0298 0.0116,-0.0393 2e-5,-0.01 0.003,-0.0173 0.007,-0.0173 0.003,0 0.009,-0.012 0.0118,-0.0266 0.003,-0.0146 0.0101,-0.0362 0.0162,-0.0481 0.006,-0.0118 0.0112,-0.0292 0.0112,-0.0388 3e-5,-0.01 0.003,-0.0173 0.006,-0.0173 0.003,0 0.0125,-0.0182 0.0204,-0.0404 0.008,-0.0222 0.0168,-0.0438 0.0198,-0.0481 0.003,-0.004 0.008,-0.0189 0.011,-0.0327 0.003,-0.0137 0.008,-0.025 0.0121,-0.025 0.003,0 0.009,-0.013 0.012,-0.0288 0.003,-0.0159 0.007,-0.0306 0.0101,-0.0327 0.009,-0.007 0.0545,-0.10706 0.0545,-0.11901 0,-0.006 0.003,-0.0117 0.007,-0.0117 0.003,0 0.009,-0.01 0.0121,-0.0211 0.003,-0.0116 0.008,-0.0228 0.0105,-0.025 0.009,-0.007 0.0551,-0.0997 0.0551,-0.11154 0,-0.006 0.003,-0.0116 0.006,-0.0116 0.007,0 0.0398,-0.0622 0.0398,-0.0758 0,-0.005 0.003,-0.009 0.008,-0.009 0.004,0 0.008,-0.003 0.008,-0.007 0,-0.004 0.0156,-0.0331 0.0346,-0.0644 0.019,-0.0313 0.0346,-0.0609 0.0346,-0.0657 0,-0.005 0.003,-0.009 0.006,-0.009 0.003,0 0.009,-0.007 0.0135,-0.0147 0.004,-0.008 0.0266,-0.0447 0.0499,-0.0814 0.0233,-0.0367 0.0458,-0.0724 0.0501,-0.0794 0.0167,-0.0273 0.0537,-0.0821 0.058,-0.0858 0.003,-0.002 0.0161,-0.0211 0.0305,-0.0423 0.0144,-0.0211 0.0289,-0.0419 0.0322,-0.0461 0.003,-0.004 0.0267,-0.0354 0.0519,-0.0692 0.0252,-0.0338 0.0486,-0.065 0.052,-0.0692 0.0332,-0.0414 0.10674,-0.13152 0.10975,-0.13454 0.002,-0.002 0.0263,-0.0298 0.0537,-0.0615 0.13582,-0.15718 0.31194,-0.33329 0.46912,-0.46911 0.0317,-0.0274 0.0594,-0.0517 0.0615,-0.054 0.0229,-0.0246 0.27769,-0.21637 0.37366,-0.28122 0.1363,-0.0921 0.13063,-0.0884 0.20678,-0.13508 0.074,-0.0454 0.0766,-0.0469 0.10123,-0.0607 0.012,-0.007 0.0512,-0.0287 0.0871,-0.0488 0.0538,-0.0302 0.29285,-0.14883 0.3498,-0.17359 0.008,-0.003 0.0361,-0.0159 0.0615,-0.0272 0.0254,-0.0113 0.0634,-0.0272 0.0846,-0.0353 0.0211,-0.008 0.0453,-0.0177 0.0538,-0.0213 0.0715,-0.0305 0.26989,-0.099 0.36902,-0.12751 0.0827,-0.0237 0.11453,-0.0326 0.1653,-0.0459 0.0275,-0.007 0.0621,-0.0163 0.0769,-0.0204 0.0274,-0.007 0.0352,-0.009 0.17681,-0.0372 0.0444,-0.009 0.0963,-0.0195 0.11532,-0.0237 0.0715,-0.0158 0.28209,-0.0428 0.41515,-0.0532 0.0529,-0.004 0.13934,-0.011 0.1922,-0.0153 0.12206,-0.01 0.31341,-0.01 0.44205,-2e-5 0.25118,0.0194 0.29738,0.0235 0.37671,0.0336 0.12632,0.016 0.19593,0.0264 0.23447,0.035 0.019,0.004 0.0709,0.0147 0.11533,0.0233 0.0444,0.009 0.1032,0.0209 0.13069,0.0274 0.0275,0.006 0.065,0.015 0.0835,0.019 0.0315,0.007 0.0681,0.017 0.19712,0.0547 0.0475,0.0139 0.20562,0.0657 0.28061,0.0918 0.0245,0.009 0.055,0.0204 0.0961,0.0373 0.008,0.003 0.0431,0.0175 0.0769,0.0312 0.17418,0.0705 0.42152,0.19152 0.52839,0.25863 0.0158,0.01 0.0304,0.018 0.0326,0.018 0.0222,0 0.43125,0.27336 0.53069,0.3546 0.26079,0.21303 0.37978,0.32209 0.56938,0.52187 0.0688,0.0725 0.19338,0.21565 0.23412,0.26903 0.0145,0.019 0.0285,0.0363 0.0309,0.0384 0.006,0.005 0.12739,0.1698 0.16148,0.21911 0.0146,0.0211 0.0283,0.0402 0.0305,0.0423 0.004,0.004 0.0438,0.0635 0.0574,0.0859 0.004,0.007 0.0329,0.0529 0.0635,0.10188 0.0306,0.049 0.0557,0.0911 0.0557,0.0936 0,0.003 0.006,0.0138 0.0144,0.025 0.014,0.0199 0.0606,0.10453 0.10016,0.18185 0.0108,0.0211 0.0221,0.0402 0.025,0.0423 0.003,0.002 0.008,0.0134 0.0106,0.025 0.003,0.0116 0.008,0.0211 0.0121,0.0211 0.003,0 0.007,0.004 0.007,0.009 0,0.005 0.0104,0.0309 0.023,0.0576 0.0312,0.0659 0.0688,0.14824 0.0784,0.17167 0.009,0.023 0.0233,0.0554 0.04,0.0934 0.007,0.0155 0.0124,0.0336 0.0124,0.0404 0,0.007 0.003,0.0123 0.007,0.0123 0.004,0 0.009,0.0138 0.0122,0.0308 0.003,0.017 0.008,0.0308 0.0122,0.0308 0.004,0 0.007,0.007 0.007,0.0161 0,0.009 0.005,0.0271 0.0107,0.0404 0.006,0.0133 0.017,0.0432 0.0246,0.0665 0.008,0.0233 0.0164,0.0458 0.0193,0.05 0.003,0.004 0.008,0.0215 0.0109,0.0384 0.003,0.0169 0.008,0.0342 0.0113,0.0384 0.003,0.004 0.008,0.0198 0.011,0.0346 0.003,0.0148 0.008,0.0339 0.0118,0.0423 0.008,0.0179 0.0228,0.0745 0.0287,0.10763 0.002,0.0127 0.007,0.0265 0.0101,0.0308 0.003,0.004 0.008,0.025 0.0115,0.0461 0.003,0.0211 0.008,0.0419 0.0112,0.0462 0.003,0.004 0.008,0.0261 0.0109,0.0487 0.003,0.0226 0.008,0.0468 0.0118,0.0538 0.007,0.013 0.0222,0.095 0.0286,0.15117 0.002,0.017 0.005,0.0359 0.008,0.0423 0.0237,0.0568 0.0736,0.61577 0.0727,0.81491 -5e-4,0.10637 -0.0209,0.41882 -0.0364,0.55737 -0.0201,0.17974 -0.0293,0.24595 -0.0349,0.24986 -0.003,0.002 -0.007,0.0194 -0.009,0.0384 -0.006,0.0557 -0.0221,0.14125 -0.0285,0.15406 -0.003,0.007 -0.008,0.0307 -0.0116,0.0538 -0.003,0.0231 -0.008,0.0454 -0.0115,0.0497 -0.003,0.004 -0.008,0.025 -0.0114,0.0461 -0.003,0.0211 -0.008,0.0419 -0.0116,0.0462 -0.003,0.004 -0.008,0.018 -0.0101,0.0308 -0.002,0.0127 -0.01,0.0421 -0.0169,0.0653 -0.007,0.0232 -0.0163,0.0562 -0.0205,0.073 -0.004,0.017 -0.0105,0.036 -0.0138,0.0425 -0.003,0.006 -0.009,0.0238 -0.0115,0.0384 -0.003,0.0146 -0.008,0.0336 -0.0119,0.0421 -0.003,0.008 -0.0125,0.0327 -0.0197,0.0538 -0.007,0.0211 -0.0178,0.0494 -0.0237,0.0626 -0.005,0.0133 -0.0106,0.0276 -0.0106,0.0318 0,0.004 -0.005,0.0174 -0.0115,0.0296 -0.006,0.0121 -0.0115,0.0298 -0.0115,0.0393 -3e-5,0.01 -0.003,0.0173 -0.007,0.0173 -0.004,0 -0.009,0.0103 -0.012,0.0228 -0.003,0.0125 -0.0134,0.0401 -0.0237,0.0615 -0.0103,0.0213 -0.0187,0.0419 -0.0187,0.0458 0,0.004 -0.005,0.0169 -0.0111,0.0289 -0.0177,0.0349 -0.0351,0.0772 -0.0351,0.0857 0,0.004 -0.003,0.009 -0.005,0.0104 -0.003,0.001 -0.0115,0.0146 -0.0185,0.0295 -0.0733,0.1551 -0.15702,0.31669 -0.18314,0.35338 -0.008,0.0117 -0.0188,0.0296 -0.0232,0.0397 -0.004,0.01 -0.0149,0.0287 -0.0233,0.0414 -0.008,0.0127 -0.0174,0.0291 -0.02,0.0365 -0.003,0.007 -0.007,0.0135 -0.0105,0.0135 -0.003,0 -0.008,0.006 -0.0104,0.0135 -0.005,0.0154 -0.0198,0.0387 -0.0338,0.054 -0.005,0.005 -0.01,0.014 -0.01,0.0182 0,0.004 -0.004,0.0125 -0.01,0.0184 -0.0154,0.0171 -0.0228,0.0275 -0.0632,0.0883 -0.021,0.0316 -0.0401,0.0592 -0.0423,0.0613 -0.002,0.002 -0.016,0.0211 -0.0307,0.0423 -0.0146,0.0211 -0.0311,0.043 -0.0365,0.0486 -0.005,0.005 -0.01,0.0135 -0.01,0.0177 0,0.004 -0.009,0.0155 -0.0192,0.0253 -0.0106,0.01 -0.0192,0.0202 -0.0192,0.0231 0,0.003 -0.0104,0.0163 -0.023,0.0299 -0.0127,0.0135 -0.023,0.027 -0.023,0.03 -2e-5,0.003 -0.01,0.0155 -0.0212,0.0276 -0.0205,0.0215 -0.0276,0.0298 -0.0739,0.0861 -0.0908,0.11059 -0.29431,0.32288 -0.4162,0.43413 -0.0169,0.0155 -0.0493,0.0451 -0.0718,0.066 -0.0226,0.0209 -0.0433,0.0379 -0.0461,0.038 -0.003,4e-5 -0.0189,0.0131 -0.0358,0.029 -0.0308,0.0289 -0.12503,0.10412 -0.21911,0.17483 -0.0275,0.0207 -0.0517,0.0395 -0.0538,0.0418 -0.002,0.003 -0.0298,0.0214 -0.0615,0.0423 -0.0317,0.0209 -0.0613,0.0416 -0.0659,0.0461 -0.005,0.004 -0.021,0.0148 -0.0365,0.0232 -0.0155,0.008 -0.0282,0.0179 -0.0282,0.0211 0,0.003 -0.003,0.006 -0.008,0.006 -0.004,0 -0.0221,0.0104 -0.0396,0.0231 -0.0175,0.0126 -0.0365,0.023 -0.0422,0.023 -0.005,0 -0.0104,0.003 -0.0104,0.006 0,0.003 -0.008,0.0104 -0.0173,0.0151 -0.01,0.005 -0.0346,0.0191 -0.0557,0.0319 -0.0211,0.0128 -0.0453,0.0266 -0.0538,0.0308 -0.008,0.004 -0.0396,0.0217 -0.0692,0.0391 -0.0296,0.0173 -0.0633,0.0354 -0.075,0.0404 -0.0116,0.005 -0.0211,0.0114 -0.0211,0.0143 0,0.003 -0.0104,0.008 -0.023,0.0105 -0.0127,0.003 -0.023,0.008 -0.023,0.0116 0,0.003 -0.0104,0.009 -0.0231,0.0115 -0.0127,0.003 -0.023,0.007 -0.023,0.0105 0,0.003 -0.0173,0.0121 -0.0384,0.0203 -0.0211,0.008 -0.0384,0.0177 -0.0384,0.0209 0,0.003 -0.005,0.006 -0.0122,0.006 -0.007,0 -0.0215,0.005 -0.0327,0.0111 -0.0112,0.006 -0.0343,0.017 -0.0512,0.0242 -0.0169,0.007 -0.052,0.023 -0.078,0.035 -0.026,0.012 -0.0507,0.0219 -0.0549,0.0219 -0.004,0 -0.0175,0.005 -0.0297,0.0115 -0.0121,0.006 -0.0281,0.0115 -0.0355,0.0115 -0.007,2e-5 -0.0135,0.003 -0.0135,0.008 0,0.004 -0.006,0.008 -0.0135,0.008 -0.007,3e-5 -0.0221,0.005 -0.0327,0.01 -0.0106,0.005 -0.0399,0.0166 -0.0654,0.0249 -0.0254,0.008 -0.0479,0.0173 -0.05,0.02 -0.002,0.003 -0.0185,0.007 -0.0365,0.0103 -0.018,0.003 -0.0327,0.008 -0.0327,0.0115 0,0.003 -0.014,0.008 -0.0311,0.011 -0.0171,0.003 -0.037,0.008 -0.0442,0.0118 -0.007,0.003 -0.0356,0.0129 -0.0631,0.0204 -0.0275,0.007 -0.0534,0.0161 -0.0577,0.0191 -0.004,0.003 -0.0258,0.008 -0.048,0.0109 -0.0222,0.003 -0.0421,0.008 -0.0443,0.0118 -0.002,0.003 -0.023,0.009 -0.0462,0.0117 -0.0233,0.003 -0.0442,0.008 -0.0464,0.012 -0.002,0.003 -0.0113,0.007 -0.02,0.007 -0.0195,0 -0.12004,0.0224 -0.14095,0.0313 -0.008,0.003 -0.0413,0.0101 -0.073,0.0144 -0.0317,0.004 -0.0922,0.0132 -0.13453,0.0198 -0.10222,0.016 -0.23973,0.0327 -0.35749,0.0434 -0.12496,0.0113 -0.64509,0.0112 -0.76879,-1.2e-4 -0.17815,-0.0164 -0.28056,-0.028 -0.2883,-0.0329 -0.004,-0.003 -0.0371,-0.007 -0.073,-0.0102 -0.0359,-0.003 -0.0688,-0.008 -0.073,-0.0106 -0.004,-0.003 -0.0337,-0.009 -0.0654,-0.0142 -0.0567,-0.009 -0.0731,-0.0123 -0.18067,-0.0371 -0.0296,-0.007 -0.0728,-0.0165 -0.0961,-0.0215 -0.0233,-0.005 -0.0457,-0.0114 -0.05,-0.0142 -0.004,-0.003 -0.0215,-0.007 -0.0384,-0.0101 -0.0169,-0.003 -0.0376,-0.008 -0.0461,-0.011 -0.0153,-0.006 -0.051,-0.0169 -0.13838,-0.0428 -0.0254,-0.008 -0.0518,-0.0164 -0.0586,-0.0198 -0.007,-0.003 -0.0251,-0.009 -0.0404,-0.0114 -0.0154,-0.003 -0.0298,-0.008 -0.0321,-0.012 -0.002,-0.003 -0.0101,-0.007 -0.0172,-0.007 -0.007,-3e-5 -0.0229,-0.005 -0.035,-0.0115 -0.0121,-0.006 -0.0277,-0.0116 -0.0346,-0.0117 -0.007,-1.5e-4 -0.0193,-0.005 -0.0275,-0.0116 -0.008,-0.006 -0.0229,-0.0113 -0.0327,-0.0113 -0.01,0 -0.0178,-0.003 -0.0178,-0.008 0,-0.004 -0.005,-0.008 -0.0123,-0.008 -0.0133,0 -0.0412,-0.0113 -0.15855,-0.0643 -0.0242,-0.0109 -0.0527,-0.022 -0.0634,-0.0248 -0.0107,-0.003 -0.0194,-0.008 -0.0194,-0.0118 0,-0.003 -0.003,-0.007 -0.008,-0.007 -0.005,0 -0.0404,-0.0156 -0.0798,-0.0346 -0.0394,-0.019 -0.0755,-0.0346 -0.0802,-0.0346 -0.005,0 -0.009,-0.003 -0.009,-0.006 0,-0.003 -0.019,-0.0146 -0.0422,-0.025 -0.0232,-0.0103 -0.0423,-0.0211 -0.0423,-0.0239 -3.2e-4,-0.0198 -0.13114,-0.003 -0.19612,0.0246 -0.008,0.003 -0.0309,0.009 -0.05,0.0118 -0.019,0.003 -0.038,0.007 -0.0423,0.0101 -0.004,0.003 -0.025,0.009 -0.0461,0.0135 -0.077,0.0174 -0.16942,0.0421 -0.18096,0.0483 -0.007,0.003 -0.0273,0.009 -0.0461,0.0116 -0.0189,0.003 -0.0412,0.008 -0.0497,0.012 -0.0142,0.006 -0.0312,0.0105 -0.12685,0.0315 -0.019,0.004 -0.0406,0.0109 -0.0479,0.015 -0.007,0.004 -0.0218,0.007 -0.0322,0.007 -0.0104,0 -0.0208,0.003 -0.0232,0.007 -0.002,0.003 -0.0224,0.009 -0.0447,0.0124 -0.0222,0.003 -0.0438,0.008 -0.048,0.0114 -0.004,0.003 -0.0233,0.008 -0.0423,0.0111 -0.019,0.003 -0.0415,0.008 -0.05,0.0117 -0.0143,0.006 -0.0446,0.0146 -0.11147,0.031 -0.0669,0.0164 -0.0972,0.0248 -0.11147,0.031 -0.008,0.003 -0.0309,0.009 -0.05,0.0118 -0.019,0.003 -0.038,0.007 -0.0423,0.01 -0.004,0.003 -0.025,0.009 -0.0461,0.0136 -0.077,0.0174 -0.16943,0.0421 -0.18098,0.0484 -0.006,0.003 -0.0299,0.009 -0.0519,0.0119 -0.022,0.003 -0.0418,0.008 -0.0439,0.0118 -0.002,0.003 -0.022,0.009 -0.0443,0.0117 -0.0222,0.003 -0.0438,0.008 -0.048,0.0112 -0.004,0.003 -0.0215,0.008 -0.0384,0.0112 -0.0343,0.006 -0.0782,0.0185 -0.0969,0.0278 -0.007,0.003 -0.0293,0.009 -0.05,0.0116 -0.0207,0.003 -0.0411,0.008 -0.0453,0.0114 -0.004,0.003 -0.0232,0.008 -0.0423,0.011 -0.019,0.003 -0.0415,0.008 -0.05,0.0119 -0.008,0.003 -0.0309,0.0103 -0.05,0.0144 -0.019,0.004 -0.0484,0.0116 -0.0653,0.0165 -0.0169,0.005 -0.0481,0.0129 -0.0692,0.0178 -0.0211,0.005 -0.0419,0.0112 -0.0461,0.0139 -0.004,0.003 -0.0241,0.007 -0.0443,0.0105 -0.0201,0.003 -0.0385,0.009 -0.0408,0.0122 -0.002,0.003 -0.0143,0.007 -0.0267,0.007 -0.0124,0 -0.0355,0.005 -0.0514,0.0109 -0.0387,0.0145 -0.0809,0.0215 -0.0753,0.0126 z m 5.19338,-0.97172 c 0.16424,-0.0174 0.21903,-0.026 0.38055,-0.0594 0.1335,-0.0276 0.22541,-0.0491 0.25754,-0.0603 0.0106,-0.003 0.0399,-0.0127 0.0653,-0.0198 0.0592,-0.0168 0.26972,-0.0867 0.29983,-0.0996 0.0127,-0.005 0.0386,-0.0161 0.0577,-0.0237 0.019,-0.008 0.0519,-0.0215 0.073,-0.0308 0.0211,-0.009 0.0575,-0.025 0.0807,-0.0348 0.077,-0.0327 0.27701,-0.13697 0.34772,-0.18136 0.0158,-0.01 0.0306,-0.018 0.0331,-0.018 0.007,0 0.195,-0.12161 0.27264,-0.17677 0.26381,-0.18739 0.50699,-0.41108 0.73135,-0.67275 0.0879,-0.10244 0.25611,-0.33025 0.31036,-0.4202 0.004,-0.007 0.0255,-0.0416 0.0473,-0.0769 0.0679,-0.10982 0.18394,-0.33273 0.24365,-0.46774 0.0583,-0.13195 0.14108,-0.3651 0.18141,-0.51125 0.009,-0.0338 0.0219,-0.0783 0.0279,-0.0989 0.006,-0.0206 0.0109,-0.0428 0.0109,-0.0494 0,-0.007 0.003,-0.0226 0.007,-0.0356 0.007,-0.0214 0.0133,-0.0529 0.0383,-0.18122 0.0261,-0.13432 0.0448,-0.31145 0.0544,-0.51568 0.012,-0.25504 6.8e-4,-0.48165 -0.0381,-0.77587 -0.004,-0.0317 -0.01,-0.0663 -0.0125,-0.0769 -0.003,-0.0106 -0.008,-0.0382 -0.0118,-0.0615 -0.008,-0.0458 -0.0222,-0.11346 -0.0417,-0.1922 -0.007,-0.0275 -0.0142,-0.0586 -0.0165,-0.0692 -0.0259,-0.11814 -0.13881,-0.44393 -0.19914,-0.57489 -0.0103,-0.0223 -0.0187,-0.0424 -0.0187,-0.0447 0,-0.005 -0.0978,-0.20064 -0.12855,-0.25685 -0.0666,-0.12184 -0.11962,-0.2088 -0.19766,-0.32439 -0.0397,-0.0588 -0.15372,-0.21464 -0.17974,-0.24567 -0.22363,-0.26659 -0.43972,-0.48487 -0.59726,-0.60332 -0.0211,-0.0159 -0.0401,-0.031 -0.0423,-0.0335 -0.002,-0.003 -0.0263,-0.0216 -0.0538,-0.0423 -0.0275,-0.0208 -0.0517,-0.0397 -0.0538,-0.0421 -0.0118,-0.0134 -0.17678,-0.12417 -0.28193,-0.18919 -0.10968,-0.0678 -0.36885,-0.20471 -0.46764,-0.24701 -0.16225,-0.0695 -0.44814,-0.17131 -0.48091,-0.17131 -0.007,0 -0.015,-0.003 -0.0182,-0.005 -0.005,-0.005 -0.0251,-0.0109 -0.13518,-0.0374 -0.0831,-0.02 -0.10127,-0.0241 -0.1653,-0.0374 -0.39209,-0.0814 -0.86051,-0.0986 -1.27234,-0.0466 -0.12961,0.0163 -0.27171,0.0403 -0.34211,0.0575 -0.30842,0.0756 -0.38491,0.0991 -0.61503,0.18895 -0.14957,0.0584 -0.36051,0.15882 -0.45743,0.21776 -0.0148,0.009 -0.0344,0.0196 -0.0435,0.0237 -0.0682,0.0301 -0.38567,0.24698 -0.51848,0.3542 -0.1497,0.12084 -0.36148,0.32473 -0.49544,0.47696 -0.10334,0.11743 -0.27127,0.34279 -0.3538,0.47477 -0.0166,0.0266 -0.0363,0.0578 -0.0436,0.0692 -0.007,0.0114 -0.0157,0.026 -0.0185,0.0324 -0.003,0.006 -0.011,0.0202 -0.0181,0.0308 -0.0466,0.0692 -0.15788,0.29228 -0.2256,0.45229 -0.0537,0.12678 -0.12632,0.33071 -0.15536,0.43606 -0.0271,0.0982 -0.0358,0.13199 -0.0458,0.17642 -0.005,0.0254 -0.0158,0.0703 -0.0224,0.1 -0.0519,0.23049 -0.0741,0.44417 -0.0786,0.75725 -0.003,0.22457 -0.001,0.27822 0.0125,0.41899 0.0171,0.1696 0.0255,0.23631 0.038,0.29983 0.004,0.0211 0.0131,0.0678 0.02,0.10379 0.007,0.0359 0.0157,0.0759 0.0196,0.0888 0.004,0.0129 0.009,0.0398 0.0121,0.0598 0.003,0.02 0.008,0.0382 0.0116,0.0405 0.003,0.002 0.007,0.0125 0.007,0.0226 0,0.0102 0.005,0.0333 0.0105,0.0514 0.005,0.0181 0.0165,0.0537 0.0239,0.0791 0.062,0.21289 0.15978,0.46039 0.25819,0.65347 0.0646,0.12666 0.0756,0.14609 0.18218,0.32135 0.095,0.15619 0.0931,0.15004 0.0709,0.22449 -0.0151,0.0505 -0.0446,0.15786 -0.0962,0.34979 -0.0233,0.0867 -0.0477,0.17664 -0.0543,0.19989 -0.015,0.0532 -0.0334,0.11992 -0.0415,0.14992 -0.003,0.0127 -0.0118,0.043 -0.0187,0.0672 -0.007,0.0243 -0.0178,0.0641 -0.0244,0.0884 -0.007,0.0243 -0.0169,0.0611 -0.0229,0.0816 -0.006,0.0206 -0.011,0.0437 -0.011,0.0514 0,0.008 -0.003,0.0162 -0.008,0.0188 -0.004,0.003 -0.008,0.0111 -0.008,0.0188 0,0.008 -0.005,0.0309 -0.011,0.0514 -0.006,0.0206 -0.0217,0.0772 -0.0348,0.12581 -0.0131,0.0486 -0.0272,0.099 -0.0312,0.11202 -0.0109,0.0342 -0.009,0.0571 0.004,0.0571 0.006,0 0.0434,-0.008 0.0827,-0.0185 0.11327,-0.0294 0.28149,-0.0736 0.34424,-0.0904 0.0951,-0.0254 0.13982,-0.0371 0.18836,-0.0492 0.10886,-0.0272 0.168,-0.0427 0.18066,-0.0476 0.0103,-0.004 0.0374,-0.011 0.12301,-0.0318 0.0148,-0.003 0.0615,-0.0159 0.10378,-0.0274 0.0841,-0.0229 0.12523,-0.0336 0.30368,-0.0796 0.0655,-0.0169 0.12479,-0.033 0.13169,-0.0357 0.008,-0.003 0.0528,0.0186 0.12684,0.062 0.16608,0.0974 0.18048,0.10526 0.29884,0.16351 0.15838,0.0779 0.35878,0.15966 0.50355,0.20534 0.0233,0.007 0.0492,0.016 0.0577,0.0192 0.008,0.003 0.0361,0.0117 0.0615,0.0189 0.0254,0.007 0.0617,0.0174 0.0807,0.023 0.019,0.005 0.0432,0.0118 0.0538,0.0141 0.0106,0.002 0.0417,0.01 0.0692,0.0165 0.0275,0.007 0.0673,0.0156 0.0884,0.0194 0.0211,0.003 0.0523,0.0103 0.0692,0.0144 0.0296,0.007 0.11765,0.022 0.23064,0.0387 0.0296,0.004 0.10225,0.0118 0.16145,0.0165 0.0592,0.005 0.10936,0.0103 0.11147,0.0124 0.009,0.009 0.53947,-0.004 0.64579,-0.0156 z m 0.7512,-1.66177 c -0.12925,-0.014 -0.18327,-0.0242 -0.33221,-0.0628 -0.0254,-0.007 -0.0548,-0.0145 -0.0654,-0.0177 -0.0106,-0.003 -0.0382,-0.0114 -0.0615,-0.0183 -0.13742,-0.041 -0.38512,-0.12642 -0.51767,-0.17854 -0.19058,-0.0749 -0.30658,-0.12846 -0.42712,-0.1971 -0.0355,-0.0202 -0.0663,-0.0367 -0.0684,-0.0367 -0.006,0 -0.25869,-0.16215 -0.28994,-0.18634 -0.004,-0.003 -0.0492,-0.0375 -0.0999,-0.0763 -0.26339,-0.20076 -0.55244,-0.47714 -0.76563,-0.73207 -0.0102,-0.0122 -0.022,-0.026 -0.0264,-0.0308 -0.009,-0.01 -0.082,-0.10043 -0.14329,-0.17772 -0.0547,-0.0691 -0.15656,-0.20934 -0.22322,-0.30751 -0.0473,-0.0696 -0.13474,-0.19538 -0.15002,-0.21569 -0.0113,-0.015 -0.0254,-0.0379 -0.0305,-0.0496 -0.003,-0.006 -0.0122,-0.0218 -0.0211,-0.0345 -0.009,-0.0127 -0.0198,-0.03 -0.0244,-0.0384 -0.005,-0.008 -0.0198,-0.0362 -0.0339,-0.0616 -0.0432,-0.0784 -0.0815,-0.15752 -0.12645,-0.26138 -0.0306,-0.0708 -0.071,-0.19752 -0.10415,-0.32674 -0.0429,-0.1674 -0.0388,-0.43881 0.01,-0.64194 0.0421,-0.17638 0.14235,-0.37102 0.26312,-0.51097 0.0963,-0.11162 0.14343,-0.15683 0.20373,-0.19555 0.0892,-0.0572 0.11586,-0.0623 0.32674,-0.0619 l 0.1845,3.5e-4 0.0412,0.0224 c 0.0226,0.0124 0.0544,0.0375 0.0705,0.0557 0.0253,0.0287 0.0705,0.11191 0.10332,0.19017 0.005,0.0126 0.0134,0.0317 0.0181,0.0423 0.005,0.0106 0.0157,0.0365 0.0246,0.0576 0.009,0.0211 0.0191,0.0453 0.0227,0.0538 0.0232,0.0548 0.0676,0.16367 0.11157,0.27292 0.028,0.0698 0.0562,0.13896 0.0626,0.15376 0.0197,0.0455 0.0239,0.0557 0.0488,0.11916 0.0133,0.0339 0.0323,0.0788 0.0423,0.0999 0.0309,0.0654 0.0393,0.11314 0.0279,0.15765 -0.0107,0.0417 -0.0577,0.1372 -0.0942,0.19126 -0.0276,0.0409 -0.10418,0.13313 -0.18715,0.22535 -0.0901,0.1001 -0.10601,0.125 -0.10986,0.17138 -0.004,0.0462 0.01,0.0805 0.0695,0.17642 0.10034,0.16104 0.18848,0.28354 0.32469,0.45129 0.0578,0.0711 0.27351,0.28821 0.34997,0.35209 0.0317,0.0265 0.0663,0.0555 0.0769,0.0644 0.0425,0.036 0.21543,0.15883 0.27677,0.19665 0.0663,0.0409 0.0721,0.0444 0.12568,0.0765 0.0321,0.0192 0.20608,0.10699 0.25102,0.12663 0.0575,0.0252 0.1137,0.0506 0.1653,0.075 0.0425,0.02 0.0663,0.0261 0.11326,0.0286 0.0529,0.003 0.0631,0.001 0.0923,-0.0161 0.0181,-0.0106 0.057,-0.0478 0.0864,-0.0827 0.0294,-0.0349 0.057,-0.0672 0.0614,-0.0719 0.0362,-0.0386 0.19431,-0.23638 0.27416,-0.34273 0.0884,-0.1178 0.12992,-0.12473 0.30482,-0.0509 0.10498,0.0443 0.36335,0.16786 0.76683,0.36665 0.2322,0.1144 0.23345,0.11573 0.23392,0.24915 5.8e-4,0.16127 -0.0588,0.41346 -0.12224,0.51973 -0.0295,0.0494 -0.10851,0.13517 -0.17724,0.19247 -0.0413,0.0345 -0.1653,0.12194 -0.17278,0.12194 -0.002,0 -0.0255,0.013 -0.052,0.0289 -0.0523,0.0314 -0.0667,0.0387 -0.12506,0.0633 -0.0211,0.009 -0.0453,0.0192 -0.0538,0.0228 -0.0663,0.0286 -0.11024,0.0377 -0.26139,0.054 -0.15746,0.017 -0.14673,0.0169 -0.26745,0.003 z"
       id="path14"
       inkscape:export-filename=".\whatsapp.svg"
       inkscape:export-xdpi="96"
       inkscape:export-ydpi="96" /></g></svg>
