<?xml version="1.0" encoding="UTF-8" standalone="no"?>
<!-- Created with Inkscape (http://www.inkscape.org/) -->

<svg
   width="150.42239mm"
   height="59.309727mm"
   viewBox="0 0 150.42239 59.309726"
   version="1.1"
   id="svg1"
   xml:space="preserve"
   sodipodi:docname="rect9.svg"
   xmlns:inkscape="http://www.inkscape.org/namespaces/inkscape"
   xmlns:sodipodi="http://sodipodi.sourceforge.net/DTD/sodipodi-0.dtd"
   xmlns="http://www.w3.org/2000/svg"
   xmlns:svg="http://www.w3.org/2000/svg"><sodipodi:namedview
     id="namedview1"
     pagecolor="#ffffff"
     bordercolor="#000000"
     borderopacity="0.25"
     inkscape:showpageshadow="2"
     inkscape:pageopacity="0.0"
     inkscape:pagecheckerboard="0"
     inkscape:deskcolor="#d1d1d1"
     inkscape:document-units="mm" /><defs
     id="defs1" /><g
     inkscape:label="Layer 1"
     inkscape:groupmode="layer"
     id="layer1"
     transform="translate(120.95914,-148.48109)"><rect
       style="fill:#ffffff;fill-opacity:1;stroke:none;stroke-width:0.776999;stroke-dasharray:none;stroke-opacity:1"
       id="rect9"
       width="193.222"
       height="196.08881"
       x="10.893822"
       y="28.094597"
       ry="1.7181612" /><path
       style="fill:#000000;stroke-width:0.499153"
       d="m -80.480402,207.65419 c -0.171738,-0.18386 -0.178393,-0.30012 -0.06378,-1.11454 0.03639,-0.25854 0.09556,-0.7723 0.131499,-1.14166 0.08332,-0.85624 0.255804,-1.90142 0.399013,-2.41779 0.201467,-0.72644 0.216162,-0.87834 0.235215,-2.43129 0.03998,-3.25858 0.03539,-3.72602 -0.04033,-4.10505 -0.03933,-0.19699 -0.103964,-0.55962 -0.143582,-0.80586 -0.03963,-0.24624 -0.111341,-0.62268 -0.159388,-0.8365 -0.04802,-0.21384 -0.108191,-0.55635 -0.133678,-0.76111 -0.05545,-0.4457 -0.232011,-1.16534 -0.376925,-1.53635 -0.332346,-0.85085 -0.373146,-0.97208 -0.444446,-1.32073 -0.01263,-0.0616 -0.10517,-0.22105 -0.205731,-0.35444 -0.263272,-0.34917 -0.473486,-0.72215 -0.620701,-1.10127 -0.07068,-0.18203 -0.264072,-0.5567 -0.42976,-0.83264 -0.165689,-0.27592 -0.3368,-0.5841 -0.380239,-0.68484 -0.04342,-0.10079 -0.162236,-0.28351 -0.263983,-0.40617 -0.101743,-0.12271 -0.184986,-0.24438 -0.184986,-0.27046 0,-0.0261 -0.100741,-0.20695 -0.223855,-0.40192 -0.123119,-0.19498 -0.22385,-0.37013 -0.22385,-0.38925 0,-0.0192 -0.06075,-0.13345 -0.134985,-0.25411 -0.236872,-0.38496 -0.484358,-0.39867 -0.770142,-0.0427 -0.300835,0.37477 -0.429017,0.60144 -0.527639,0.93309 -0.05479,0.18422 -0.148004,0.43061 -0.207154,0.54751 -0.115118,0.22751 -0.245843,0.56259 -0.484757,1.2425 -0.2828,0.80478 -0.662659,1.48931 -0.930595,1.67699 -0.146767,0.10281 -0.341431,0.0842 -0.516588,-0.0493 -0.151373,-0.11545 -0.154763,-0.12489 -0.132269,-0.36936 0.01263,-0.13796 0.07361,-0.36166 0.135361,-0.49709 0.101264,-0.22212 0.203176,-0.4819 0.614681,-1.56699 0.07004,-0.18466 0.178628,-0.45665 0.241301,-0.6044 0.06267,-0.14774 0.114435,-0.29097 0.115016,-0.31828 4.99e-4,-0.0273 0.07232,-0.20389 0.159424,-0.39239 0.208312,-0.45088 0.317612,-0.81836 0.378727,-1.27339 0.05787,-0.43082 0.0787,-0.49878 0.180923,-0.59024 0.09775,-0.0874 0.149027,-0.25321 0.08969,-0.28989 -0.0256,-0.0158 -0.04657,-0.007 -0.04657,0.0186 0,0.0261 -0.02017,0.0473 -0.04478,0.0473 -0.0246,0 -0.04523,-0.0555 -0.04577,-0.12314 -0.0025,-0.29624 -0.256844,-0.63798 -0.475088,-0.63798 -0.09862,0 -0.329631,0.22964 -0.329995,0.32801 -1.04e-4,0.029 -0.08275,0.16144 -0.183648,0.29454 -0.100901,0.13316 -0.219199,0.32448 -0.262889,0.42531 -0.07896,0.18225 -0.278059,0.4944 -0.505723,0.79288 -0.151997,0.19928 -0.524977,1.11773 -0.524977,1.29275 0,0.10457 0.02396,0.13913 0.111922,0.16117 0.140533,0.0353 0.13985,0.0503 -0.01646,0.36463 -0.301477,0.60607 -0.528937,0.97775 -0.678527,1.10879 -0.05621,0.0493 -0.178418,0.2533 -0.271545,0.45345 -0.19401,0.417 -0.336163,0.53464 -0.72146,0.59702 -0.542135,0.0877 -0.717591,-0.25133 -0.497216,-0.96093 0.08846,-0.28485 0.525233,-1.19781 0.685401,-1.43266 0.115075,-0.16875 0.590784,-1.12334 0.80173,-1.60885 0.05281,-0.12155 0.163483,-0.32299 0.245957,-0.44771 0.08248,-0.12474 0.243731,-0.41388 0.358336,-0.6426 0.11461,-0.22873 0.279222,-0.51448 0.36581,-0.635 0.345094,-0.48034 0.58604,-1.21095 0.470532,-1.42679 -0.05787,-0.10819 -0.921932,-0.95063 -1.190236,-1.16051 -0.12312,-0.0963 -0.303359,-0.26403 -0.400529,-0.3727 -0.09717,-0.10862 -0.269822,-0.2681 -0.383669,-0.35429 -0.292943,-0.22176 -0.684478,-0.55417 -1.066042,-0.90509 -0.180418,-0.16592 -0.516437,-0.44267 -0.746706,-0.61498 -0.230265,-0.17232 -0.816354,-0.69592 -1.302415,-1.16355 -0.555901,-0.53483 -0.986131,-0.91013 -1.159746,-1.01165 -0.151797,-0.0888 -0.428599,-0.29866 -0.61511,-0.46642 -0.186514,-0.16775 -0.446757,-0.35488 -0.578325,-0.41585 -0.131557,-0.061 -0.329864,-0.19088 -0.440672,-0.2887 -0.110805,-0.0979 -0.383219,-0.29953 -0.605363,-0.44825 -0.222142,-0.14871 -0.433684,-0.30656 -0.470091,-0.35077 -0.03639,-0.0443 -0.24752,-0.21636 -0.469134,-0.38254 -0.221614,-0.16619 -0.503669,-0.37966 -0.626791,-0.4744 -0.12312,-0.0947 -0.354808,-0.26617 -0.514861,-0.38096 -0.160059,-0.11471 -0.341375,-0.25604 -0.402936,-0.31395 -0.06156,-0.0579 -0.313398,-0.24471 -0.559636,-0.41514 -0.618573,-0.42809 -1.091027,-0.79231 -1.27179,-0.98043 -0.08389,-0.0872 -0.255133,-0.20932 -0.380543,-0.27118 -0.12542,-0.0619 -0.37912,-0.22727 -0.56381,-0.36759 -0.18467,-0.14028 -0.48688,-0.34488 -0.67156,-0.45458 -0.18467,-0.10965 -0.5429,-0.35026 -0.79605,-0.53456 -0.49064,-0.35724 -0.89389,-0.59365 -1.69615,-0.99435 -0.32691,-0.16328 -0.59028,-0.33287 -0.7611,-0.49013 -0.2626,-0.2417 -1.378,-0.89974 -1.79517,-1.05908 -0.11571,-0.0441 -0.3572,-0.17617 -0.53668,-0.29334 -0.17946,-0.11719 -0.40147,-0.23702 -0.49333,-0.26635 -0.21833,-0.0697 -1.7052,-0.81139 -2.03603,-1.01557 -0.25695,-0.1586 -1.14545,-0.51159 -1.7798,-0.7071 -0.18469,-0.0569 -0.42645,-0.14392 -0.53726,-0.19332 -0.19966,-0.089 -0.73497,-0.25779 -1.85798,-0.58573 -0.32011,-0.0936 -0.65567,-0.20115 -0.74567,-0.23926 -0.0901,-0.0381 -0.28142,-0.0928 -0.42533,-0.1214 -0.14392,-0.0287 -0.36819,-0.091 -0.49838,-0.1384 -0.1302,-0.0473 -0.28889,-0.0862 -0.35263,-0.0862 -0.0637,0 -0.28963,-0.0384 -0.50198,-0.0851 -0.21236,-0.0467 -0.55735,-0.10993 -0.76665,-0.14014 -0.20931,-0.0304 -0.67268,-0.1506 -1.02972,-0.26733 -0.58773,-0.19213 -1.61453,-0.45929 -2.22882,-0.57992 -0.63236,-0.12416 -0.86922,-0.42763 -0.66517,-0.85222 0.14062,-0.29258 0.26297,-0.33789 0.66769,-0.2472 0.17795,0.0399 0.66603,0.10108 1.08464,0.13607 1.14769,0.0959 1.52389,0.14567 2.01468,0.26656 0.24624,0.0607 0.70961,0.14115 1.02972,0.17881 0.32011,0.0376 0.84393,0.10122 1.16404,0.14116 1.17441,0.14663 2.86246,0.15136 4.7233,0.0131 0.35705,-0.0264 0.88088,-0.0655 1.16404,-0.0867 0.28318,-0.0212 0.71634,-0.0689 0.96258,-0.1063 0.24624,-0.0373 0.59294,-0.0688 0.77047,-0.07 0.17751,-0.001 0.46964,-0.0212 0.64916,-0.0446 0.17954,-0.0234 0.50774,-0.0653 0.72935,-0.0934 0.40918,-0.0517 2.78004,-0.1172 3.46307,-0.0957 0.20564,0.006 0.52799,-0.0186 0.71633,-0.0556 0.39944,-0.0786 0.87007,-0.13012 2.043726,-0.22427 0.826901,-0.0663 1.588079,-0.13085 2.422098,-0.20525 0.467717,-0.0417 1.080521,-0.14393 1.62965,-0.27188 0.209298,-0.0487 0.531646,-0.10732 0.716328,-0.13011 0.661892,-0.0817 0.96629,-0.13347 1.202799,-0.20404 0.172133,-0.0514 0.471195,-0.0757 1.055059,-0.0855 0.675603,-0.0117 0.841103,-0.0273 0.96858,-0.0934 0.120782,-0.0626 0.316974,-0.0864 0.914848,-0.11095 0.546802,-0.0223 0.8071,-0.0516 0.924466,-0.1034 0.158172,-0.07 0.787957,-0.18293 1.806544,-0.32407 0.270865,-0.0375 0.593213,-0.0962 0.716335,-0.13042 0.12312,-0.0343 0.495833,-0.0951 0.828253,-0.13549 0.332426,-0.0404 0.684993,-0.0915 0.78349,-0.11385 0.09849,-0.0222 0.292394,-0.041 0.430884,-0.0415 0.138485,-5.1e-4 0.339958,-0.0323 0.447705,-0.0703 0.107741,-0.0381 0.387298,-0.0881 0.621226,-0.11108 0.559999,-0.0552 0.873532,-0.11095 1.119265,-0.19913 0.12948,-0.0464 0.347045,-0.0724 0.608866,-0.0724 0.317516,-3e-5 0.443123,-0.0192 0.56934,-0.0868 0.151781,-0.0813 0.609344,-0.20124 1.284185,-0.33648 0.160053,-0.0321 0.532771,-0.1201 0.828253,-0.19569 0.304119,-0.0777 0.653816,-0.13752 0.805872,-0.13767 0.3011,-3.9e-4 0.849004,-0.0956 1.146489,-0.19918 0.108148,-0.0376 0.340902,-0.0687 0.517233,-0.0692 0.193103,-3.9e-4 0.433458,-0.036 0.604405,-0.0897 0.53843,-0.16878 0.974196,-0.0742 0.518847,0.11255 -0.2004,0.0822 -0.802612,0.21973 -1.279502,0.29219 -0.155845,0.0237 -0.319094,0.0621 -0.36277,0.0855 -0.04367,0.0234 -0.284307,0.0732 -0.534737,0.11066 -0.250425,0.0375 -0.493531,0.0885 -0.540242,0.11357 -0.04671,0.025 -0.228288,0.0657 -0.403515,0.0906 -0.175233,0.0248 -0.435792,0.0846 -0.579023,0.13288 -0.143233,0.0482 -0.520261,0.14116 -0.837842,0.2066 -0.317576,0.0653 -0.673856,0.15682 -0.791732,0.2032 -0.117878,0.0463 -0.279187,0.0844 -0.358462,0.0844 -0.07928,0 -0.214525,0.0205 -0.300545,0.0454 -0.08603,0.025 -0.40893,0.0849 -0.717577,0.13331 -0.308645,0.0482 -0.62092,0.10862 -0.693947,0.13404 -0.140226,0.0487 -0.392683,0.0987 -1.587815,0.31443 -0.738197,0.13317 -1.341313,0.26025 -1.678901,0.35373 -0.09848,0.0273 -0.320111,0.0796 -0.492478,0.11633 -0.172368,0.0368 -0.625668,0.13855 -1.00734,0.22646 -1.147752,0.26419 -1.25836,0.28561 -1.718808,0.33281 -0.243566,0.025 -0.631024,0.0967 -0.861013,0.15932 -0.335596,0.0915 -0.471211,0.1079 -0.686845,0.0835 -0.185476,-0.0209 -0.362509,-0.009 -0.571653,0.0412 -0.166629,0.0394 -0.574945,0.10413 -0.907371,0.14407 -0.33242,0.0398 -0.967043,0.13244 -1.410277,0.20575 -0.443226,0.0734 -1.027486,0.16249 -1.298346,0.19809 -0.270864,0.0358 -0.593213,0.0839 -0.716334,0.10747 -0.123119,0.0235 -0.415245,0.063 -0.649173,0.0879 -0.233927,0.0248 -0.533844,0.0657 -0.666478,0.091 -0.132633,0.0251 -0.407873,0.0457 -0.611642,0.0457 -0.203771,0 -0.598919,0.0297 -0.87811,0.0662 -1.048328,0.13665 -1.765888,0.20251 -2.226348,0.2044 -0.26127,9.9e-4 -0.56569,0.0215 -0.6765,0.0453 -0.11081,0.0238 -0.68499,0.0629 -1.27596,0.0868 -0.59098,0.024 -1.24575,0.0648 -1.45506,0.0908 -0.2093,0.026 -0.68978,0.0658 -1.06772,0.0884 -0.37795,0.0226 -0.84133,0.0613 -1.02972,0.0857 -0.18841,0.0244 -0.65483,0.0673 -1.0365,0.0953 -0.38167,0.0281 -0.89024,0.0793 -1.13016,0.11415 -0.23993,0.0347 -0.57419,0.0632 -0.7428,0.0632 -0.16862,0 -0.4659,0.0206 -0.66065,0.0459 -0.19475,0.0252 -0.58965,0.062 -0.87754,0.0819 -0.57193,0.0394 -0.66299,0.0783 -0.66299,0.28364 0,0.29246 0.20966,0.44032 0.9402,0.66313 0.25855,0.0789 0.55204,0.19039 0.65221,0.24787 0.1002,0.0575 0.3923,0.18782 0.64918,0.28965 0.25687,0.1018 0.60807,0.26143 0.78043,0.35471 0.17237,0.0933 0.45443,0.22504 0.6268,0.29281 0.17237,0.0678 0.40405,0.16355 0.51486,0.21282 0.11081,0.0493 0.3022,0.13434 0.42532,0.18883 0.12312,0.0546 0.38562,0.16362 0.58334,0.24228 0.19772,0.0787 0.61073,0.27367 0.9178,0.43333 0.30707,0.15968 0.66521,0.33059 0.79588,0.37981 0.26244,0.0989 0.9668,0.55407 1.35606,0.87632 0.13778,0.114 0.39705,0.28451 0.57616,0.37874 0.17911,0.0943 0.36858,0.20982 0.42105,0.25682 0.12876,0.11531 0.86651,0.60894 1.04287,0.69773 0.0779,0.0392 0.30026,0.19087 0.49421,0.33702 0.19395,0.14614 0.5202,0.36856 0.72501,0.49426 0.20481,0.12576 0.45587,0.29515 0.5579,0.37658 0.10203,0.0815 0.368381,0.26195 0.591901,0.40116 0.223516,0.13927 0.444884,0.29563 0.491925,0.34762 0.04703,0.052 0.206659,0.1654 0.354703,0.25205 0.255388,0.14946 0.738912,0.53388 1.271808,1.01111 0.132849,0.11894 0.363288,0.27777 0.5121,0.3529 0.346351,0.17483 0.923204,0.5748 1.238028,0.85842 0.135086,0.12169 0.326477,0.27316 0.425324,0.33662 0.09884,0.0634 0.290522,0.1982 0.425956,0.29941 0.831305,0.62122 1.289831,0.95334 1.387889,1.00529 0.177949,0.0943 0.581788,0.40232 0.866486,0.66103 0.144147,0.13099 0.360381,0.30435 0.480533,0.38526 0.120157,0.0809 0.415225,0.32959 0.655718,0.55263 0.240496,0.22303 0.507777,0.46194 0.593961,0.53093 0.08619,0.069 0.339684,0.29792 0.563334,0.50874 0.442882,0.41748 1.080431,0.95371 1.62563,1.36725 0.413724,0.31384 0.961659,0.80569 1.504616,1.35059 0.661618,0.66398 0.794318,0.74608 0.995965,0.61615 0.143437,-0.0924 0.347036,-0.52136 0.50161,-1.05676 0.104545,-0.36214 0.162413,-0.48759 0.269232,-0.58379 0.07484,-0.0673 0.195797,-0.21851 0.268814,-0.33579 0.07302,-0.11734 0.297893,-0.35426 0.499737,-0.52663 0.388839,-0.33207 0.526082,-0.46401 0.716553,-0.68895 0.135245,-0.15972 0.372787,-0.188 0.640264,-0.0763 0.33608,0.14043 0.272897,0.41115 -0.244575,1.04793 -0.246826,0.30375 -0.470687,0.63668 -0.579781,0.86226 -0.09773,0.20213 -0.207697,0.40063 -0.244356,0.44114 -0.03664,0.0405 -0.09891,0.15083 -0.138324,0.24519 -0.03943,0.0944 -0.171759,0.30212 -0.294081,0.46172 -0.282385,0.36843 -0.370482,0.54293 -0.465516,0.92209 -0.103877,0.41445 -0.06812,0.58147 0.156265,0.72998 0.09608,0.0636 0.206375,0.16395 0.245094,0.22303 0.08996,0.13738 0.264331,0.14058 0.36,0.007 0.156408,-0.21884 0.470256,-0.81717 0.664731,-1.26724 0.112621,-0.26064 0.29442,-0.59318 0.404015,-0.73897 0.1096,-0.14579 0.213012,-0.32768 0.229819,-0.4042 0.01681,-0.0766 0.109106,-0.29274 0.205116,-0.48046 0.096,-0.18773 0.17456,-0.36424 0.17456,-0.39224 0,-0.028 0.08229,-0.14434 0.182884,-0.25867 0.211521,-0.2403 0.401294,-0.27435 0.65768,-0.11806 0.215144,0.13114 0.244973,0.25286 0.279799,1.14146 0.039,0.99393 0.0341,1.00734 -0.363683,1.00734 -0.239268,0 -0.282371,0.0146 -0.368325,0.11922 -0.05354,0.0656 -0.170875,0.19149 -0.260747,0.27982 -0.163972,0.16112 -0.290631,0.42503 -0.528314,1.10074 -0.06929,0.197 -0.1768,0.45891 -0.238914,0.58203 -0.274619,0.54434 -0.254297,0.83773 0.09072,1.30986 0.0926,0.12664 0.228783,0.33314 0.302651,0.45876 0.07387,0.12561 0.263529,0.41369 0.421456,0.64017 0.157921,0.22646 0.346442,0.51249 0.418924,0.63561 0.07249,0.12315 0.228746,0.3551 0.347255,0.5155 0.118501,0.1604 0.265394,0.42429 0.326421,0.58642 0.06103,0.16212 0.217182,0.46404 0.34701,0.67092 0.12983,0.20689 0.320856,0.54741 0.42449,0.7567 0.103632,0.20932 0.299448,0.58371 0.435136,0.83203 0.45138,0.82602 0.97289,2.44948 0.97289,3.02861 0,0.11938 0.03818,0.34225 0.08491,0.49514 0.154483,0.50579 0.36577,1.63684 0.386464,2.06881 0.0059,0.12315 0.03674,0.31452 0.06856,0.42533 0.08709,0.30341 0.06444,4.36501 -0.02674,4.79857 -0.03598,0.17113 -0.0656,0.45589 -0.06579,0.6328 -1.84e-4,0.17691 -0.02116,0.44999 -0.04662,0.60686 -0.02546,0.15687 -0.0754,0.50945 -0.111008,0.78349 -0.111894,0.86139 -0.13815,1.00553 -0.195753,1.07495 -0.08878,0.10687 -0.04358,0.2716 0.07929,0.28899 0.215533,0.0305 0.723103,-0.61742 1.143525,-1.4597 0.113926,-0.22823 0.273625,-0.49013 0.354897,-0.58202 0.229589,-0.25957 0.380065,-0.47249 0.496651,-0.70277 0.05888,-0.11633 0.180189,-0.3153 0.269613,-0.44226 0.229716,-0.32616 0.536914,-0.77908 0.683239,-1.00731 0.06855,-0.10703 0.213768,-0.32856 0.322673,-0.49248 0.108904,-0.16391 0.267087,-0.46927 0.351519,-0.67856 0.223206,-0.55331 0.381372,-0.85733 0.58937,-1.13282 0.101235,-0.13404 0.233099,-0.3689 0.293033,-0.52182 0.05993,-0.15294 0.180309,-0.38555 0.26751,-0.51692 0.08719,-0.13142 0.15854,-0.2545 0.15854,-0.27363 0,-0.0192 0.04713,-0.10645 0.10472,-0.19389 0.396588,-0.60258 0.809721,-1.3203 0.954911,-1.65892 0.06864,-0.16005 0.204442,-0.42196 0.301807,-0.58203 0.345214,-0.56748 0.963667,-1.66885 1.093592,-1.94751 0.289998,-0.62199 0.527685,-1.03506 0.738745,-1.28384 0.132836,-0.15658 0.29747,-0.39514 0.365867,-0.53015 0.186147,-0.36742 0.635541,-1.01818 0.758961,-1.09906 0.06583,-0.0431 0.153634,-0.18918 0.223234,-0.37134 0.119794,-0.31349 0.454181,-0.88842 0.628579,-1.08076 0.133401,-0.14711 0.328305,-0.50408 0.427767,-0.78347 0.153768,-0.43194 0.587197,-1.34426 0.691277,-1.45504 0.05783,-0.0616 0.203693,-0.27311 0.324148,-0.4701 0.120448,-0.197 0.280658,-0.44311 0.356008,-0.54692 0.07534,-0.10384 0.212563,-0.36573 0.30492,-0.58203 0.09237,-0.21629 0.183537,-0.4134 0.202622,-0.43804 0.01909,-0.0245 0.168094,-0.30311 0.331131,-0.61889 0.352516,-0.68276 0.893445,-1.61069 1.04854,-1.79871 0.06094,-0.074 0.167766,-0.26114 0.237394,-0.41614 0.06963,-0.15501 0.205549,-0.37662 0.302046,-0.49248 0.09651,-0.11588 0.24608,-0.35168 0.332406,-0.52405 0.166392,-0.33222 0.525394,-0.9009 0.845416,-1.33915 0.106288,-0.14556 0.231272,-0.33696 0.277734,-0.42533 0.04645,-0.0883 0.161254,-0.25286 0.255093,-0.36554 0.09384,-0.11268 0.256154,-0.36452 0.360696,-0.55962 0.104545,-0.19513 0.284358,-0.47218 0.399597,-0.61572 0.115234,-0.14349 0.23648,-0.31477 0.26943,-0.38056 0.03296,-0.0657 0.169068,-0.28075 0.302485,-0.47775 0.355501,-0.5249 0.583208,-0.90124 0.752806,-1.2442 0.08269,-0.16719 0.242585,-0.4291 0.355331,-0.582 0.267172,-0.36235 0.822523,-1.24035 1.006332,-1.591 0.07958,-0.15182 0.214075,-0.35709 0.298886,-0.45618 0.135769,-0.1586 0.446864,-0.70129 1.051861,-1.83488 0.09857,-0.18466 0.234148,-0.39621 0.301298,-0.47009 0.06715,-0.0739 0.222406,-0.33786 0.345015,-0.58664 0.122612,-0.24877 0.298608,-0.57113 0.391115,-0.71633 0.09251,-0.14522 0.338962,-0.53453 0.547679,-0.86517 0.208718,-0.33065 0.430094,-0.66131 0.491948,-0.73483 0.06185,-0.0735 0.185408,-0.28649 0.27457,-0.47332 0.08917,-0.18681 0.237383,-0.4404 0.32938,-0.56352 0.092,-0.12315 0.206195,-0.31451 0.25377,-0.42533 0.04758,-0.11081 0.155697,-0.29213 0.240272,-0.40294 0.08458,-0.1108 0.255144,-0.39286 0.379043,-0.62677 0.200309,-0.37821 0.548376,-0.93152 0.954743,-1.51775 0.33145,-0.47817 0.06426,-0.66717 -0.602151,-0.42598 -0.172365,0.0624 -0.43559,0.15023 -0.584944,0.19521 -0.149351,0.045 -0.354622,0.12416 -0.456155,0.17591 -0.101525,0.0519 -0.41249,0.16627 -0.691019,0.25436 -0.278527,0.0881 -0.607148,0.19794 -0.730267,0.24409 -0.12312,0.0462 -0.309089,0.10587 -0.413267,0.13288 -0.104184,0.0268 -0.315718,0.10863 -0.470091,0.1817 -0.154374,0.0731 -0.321043,0.13273 -0.370376,0.13273 -0.04933,3e-5 -0.231579,0.0688 -0.40499,0.153 -0.173412,0.0841 -0.394956,0.16757 -0.492322,0.18544 -0.240594,0.0441 -0.818544,0.27692 -1.623921,0.65409 -0.254067,0.11894 -0.475821,0.21633 -0.492788,0.21633 -0.04792,0 -0.774261,0.29015 -0.934613,0.37336 -0.0788,0.0408 -0.182374,0.0744 -0.230157,0.0744 -0.04778,0 -0.184772,0.0702 -0.304424,0.15597 -0.242269,0.17369 -0.414481,0.25953 -0.77525,0.38644 -0.134374,0.0472 -0.366057,0.16468 -0.514864,0.26093 -0.259024,0.16755 -0.750825,0.40548 -0.83809,0.40548 -0.02285,0 -0.196619,0.0773 -0.386173,0.1717 -0.189553,0.0944 -0.57633,0.2476 -0.859504,0.34037 -0.949404,0.31106 -1.139299,0.39427 -1.634129,0.71605 -0.270864,0.17614 -0.562992,0.34812 -0.649176,0.38214 -0.337938,0.13346 -0.545884,0.36282 -0.50278,0.55456 0.01646,0.0734 0.0475,0.0794 0.26524,0.0522 0.45521,-0.0569 0.551006,-0.0594 0.578479,-0.0148 0.04807,0.0777 -0.05764,0.1355 -0.391828,0.21404 -0.407427,0.0957 -0.519042,0.21173 -0.448737,0.46634 0.08033,0.29098 -0.06805,0.40421 -0.555924,0.42425 -0.511496,0.021 -0.675392,-0.0324 -0.927418,-0.30176 -0.257513,-0.27532 -0.333806,-0.5182 -0.246147,-0.78363 0.08356,-0.25299 0.48055,-0.85527 0.618112,-0.93772 0.06197,-0.0372 0.177018,-0.12896 0.255669,-0.2042 0.07866,-0.0751 0.199197,-0.14789 0.267883,-0.16161 0.06869,-0.0131 0.185323,-0.047 0.259194,-0.0741 0.07387,-0.027 0.239011,-0.0867 0.366977,-0.13274 0.12797,-0.046 0.308613,-0.1352 0.40144,-0.1982 0.286268,-0.19427 0.685017,-0.36231 1.268647,-0.53461 0.325777,-0.0962 0.774783,-0.27317 1.074498,-0.42357 0.283174,-0.14202 0.624321,-0.29424 0.758102,-0.33813 0.13378,-0.0438 0.375544,-0.1507 0.537248,-0.2374 1.387154,-0.74375 2.192337,-1.12658 2.794663,-1.32878 0.183366,-0.0616 0.431093,-0.15986 0.550499,-0.21844 0.119402,-0.0587 0.458866,-0.18145 0.754353,-0.27306 0.295486,-0.0917 0.678275,-0.21798 0.850642,-0.2809 0.172368,-0.0629 0.414962,-0.14933 0.5391,-0.19206 0.124136,-0.0427 0.317348,-0.11937 0.429355,-0.17044 0.303512,-0.13825 0.929657,-0.36287 1.153595,-0.4138 0.108307,-0.0247 0.24933,-0.0804 0.313395,-0.12402 0.167527,-0.11399 0.797151,-0.34854 1.225789,-0.45658 0.202469,-0.051 0.465077,-0.1429 0.583571,-0.204 0.376786,-0.19447 1.452412,-0.54909 1.893449,-0.62422 0.678474,-0.11559 1.059188,-0.31923 1.232762,-0.65947 0.05222,-0.10238 0.170914,-0.28756 0.263753,-0.41154 0.09284,-0.12402 0.227799,-0.35636 0.29991,-0.51642 0.07211,-0.16004 0.215823,-0.38871 0.319361,-0.50812 0.103544,-0.11938 0.240158,-0.3209 0.303601,-0.44771 0.06345,-0.12679 0.189933,-0.33133 0.28109,-0.45444 0.09116,-0.12315 0.243086,-0.3548 0.337626,-0.51487 0.09454,-0.16004 0.232385,-0.39173 0.306324,-0.51485 0.07393,-0.12315 0.215005,-0.36488 0.313482,-0.53725 0.09848,-0.17237 0.274967,-0.45442 0.392202,-0.62679 0.117238,-0.17235 0.325588,-0.52325 0.463004,-0.77972 0.137425,-0.25648 0.278338,-0.49823 0.313157,-0.53726 0.03483,-0.0389 0.255984,-0.36303 0.491475,-0.72008 0.235491,-0.35705 0.487907,-0.7323 0.560922,-0.83389 0.07302,-0.10165 0.227116,-0.3635 0.34245,-0.58202 0.115335,-0.21852 0.23529,-0.42753 0.266575,-0.46446 0.03128,-0.0369 0.150903,-0.2787 0.265823,-0.53725 0.114915,-0.25856 0.262975,-0.59097 0.329012,-0.73872 0.06603,-0.14775 0.203451,-0.40964 0.305362,-0.58203 0.101917,-0.17235 0.261884,-0.45415 0.355493,-0.62618 0.435496,-0.80037 0.94172,-1.08404 1.570571,-0.88009 0.367671,0.11923 0.44761,0.17417 0.579289,0.39796 0.06149,0.10455 0.170869,0.22058 0.243054,0.25789 0.251027,0.12984 0.365172,0.69408 0.1403,0.69358 -0.06699,-1.7e-4 -0.146473,-0.045 -0.494736,-0.27943 -0.147496,-0.0992 -0.551657,-0.10674 -0.646463,-0.0117 -0.03669,0.0368 -0.0805,0.12954 -0.09737,0.20639 -0.06058,0.27581 -0.243834,0.61741 -0.41734,0.77794 -0.102309,0.0947 -0.245939,0.30734 -0.341187,0.50524 -0.09047,0.18795 -0.226448,0.41229 -0.302169,0.49855 -0.07572,0.0862 -0.177254,0.24627 -0.225631,0.35563 -0.04837,0.10935 -0.162275,0.28164 -0.253107,0.38283 -0.206959,0.23056 -0.279856,0.3471 -0.409775,0.65515 -0.100164,0.2375 -0.355209,0.62224 -0.660436,0.99632 -0.08153,0.0999 -0.179606,0.24374 -0.217946,0.31965 -0.03834,0.076 -0.118908,0.20372 -0.179052,0.28406 -0.06013,0.0803 -0.181365,0.29187 -0.269393,0.47009 -0.135115,0.27355 -0.746552,1.24312 -1.263118,2.00293 -0.07533,0.11081 -0.195005,0.32235 -0.265941,0.47009 -0.07094,0.14775 -0.239453,0.41698 -0.374482,0.59829 -0.135028,0.18131 -0.301154,0.43954 -0.369166,0.57386 -0.06801,0.13433 -0.222166,0.35679 -0.342565,0.49438 -0.120404,0.13753 -0.218911,0.27251 -0.218911,0.29982 0,0.0273 -0.04028,0.12489 -0.08954,0.21672 -0.19042,0.35529 -0.09625,0.48589 0.285559,0.39605 0.126111,-0.0297 0.319965,-0.0752 0.430772,-0.10122 0.482384,-0.11327 1.108318,-0.33073 1.242586,-0.4317 0.18056,-0.13579 0.419224,-0.45385 0.682553,-0.90964 0.110805,-0.19182 0.338115,-0.52599 0.505127,-0.74263 0.528928,-0.68609 0.62717,-0.83112 0.873282,-1.28929 0.132269,-0.24625 0.3944,-0.67941 0.582507,-0.96257 0.389881,-0.58692 0.76992,-1.19392 0.909257,-1.45226 0.05229,-0.097 0.188445,-0.30186 0.302549,-0.45533 0.33965,-0.45682 0.702287,-1.04082 0.942223,-1.51737 0.123976,-0.24624 0.337481,-0.57856 0.47445,-0.73853 0.251088,-0.29322 0.370387,-0.56581 0.445856,-1.01873 0.01827,-0.10964 0.05628,-0.19026 0.08972,-0.19026 0.06698,0 0.294452,-0.25535 0.505525,-0.56747 0.351414,-0.51964 0.416059,-0.63117 0.485473,-0.83754 0.09757,-0.29011 0.423371,-0.62654 0.680373,-0.70258 0.355525,-0.10514 0.522416,0.0368 0.576111,0.49017 0.02418,0.20409 0.01711,0.22589 -0.09765,0.30109 -0.140344,0.092 -0.245805,0.30943 -0.245805,0.50691 0,0.16547 -0.07197,0.33675 -0.227229,0.5408 -0.06558,0.0861 -0.174287,0.2675 -0.241568,0.40293 -0.189093,0.38062 -0.822778,1.36136 -1.063779,1.64641 -0.119083,0.14086 -0.235631,0.32663 -0.259012,0.4129 -0.216627,0.79928 -0.226011,0.82037 -0.469107,1.05394 -0.129742,0.12461 -0.289336,0.33213 -0.354668,0.46106 -0.06534,0.12895 -0.185298,0.30924 -0.266591,0.4007 -0.199502,0.22444 -0.449064,0.60492 -0.784471,1.19601 -0.153701,0.27085 -0.414082,0.67771 -0.578627,0.90411 -0.164543,0.22642 -0.365419,0.52914 -0.44639,0.67274 -0.08098,0.14363 -0.226629,0.36131 -0.323686,0.48378 -0.466692,0.58889 -0.760288,1.02259 -0.760288,1.12308 0,0.18632 0.159818,0.21985 0.519008,0.10892 0.287535,-0.0889 1.035825,-0.22012 1.794925,-0.31494 0.176902,-0.0221 0.438809,-0.0604 0.582019,-0.0852 0.143203,-0.0248 0.753977,-0.0411 1.357261,-0.0362 l 1.096882,0.009 0.211904,0.1246 c 0.116541,0.0685 0.267648,0.19515 0.335779,0.28142 0.06813,0.0862 0.218704,0.21815 0.334603,0.29301 0.217399,0.14042 0.36351,0.41224 0.426736,0.79388 0.03482,0.21017 -0.07463,0.89373 -0.173142,1.08144 -0.04524,0.0861 -0.121073,0.24985 -0.16854,0.36372 -0.04746,0.11385 -0.158619,0.30178 -0.247014,0.41757 -0.0884,0.11574 -0.174196,0.26441 -0.190671,0.33022 -0.04928,0.1969 -0.459746,0.96024 -0.593982,1.10464 -0.06868,0.074 -0.220356,0.25519 -0.337069,0.40294 -0.116715,0.14773 -0.275612,0.3486 -0.353111,0.44635 -0.07749,0.0978 -0.245103,0.28933 -0.372453,0.42571 -0.127984,0.13709 -0.270407,0.34791 -0.318429,0.47143 -0.06659,0.17127 -0.123816,0.24134 -0.245009,0.29994 -0.101118,0.0489 -0.222314,0.17472 -0.336172,0.34898 -0.202604,0.31008 -0.950953,1.16812 -1.425113,1.63401 -0.175427,0.17236 -0.397318,0.41418 -0.493089,0.53737 -0.244751,0.31481 -0.896776,0.92385 -1.136699,1.06175 -0.110805,0.0637 -0.243702,0.17316 -0.295322,0.24328 -0.579856,0.78771 -1.257045,1.50324 -1.674587,1.76941 -0.430159,0.27423 -1.537523,1.36398 -1.773629,1.74541 -0.153686,0.24831 -0.47382,0.54 -0.693287,0.63169 -0.08685,0.0363 -0.22204,0.14697 -0.300436,0.24595 -0.07839,0.0991 -0.190366,0.19196 -0.248826,0.20664 -0.314489,0.0789 -0.553929,0.60063 -0.323792,0.70548 0.130236,0.0594 0.509962,-0.051 0.629316,-0.18291 0.04162,-0.046 0.139675,-0.10906 0.217926,-0.14028 0.07824,-0.0311 0.195745,-0.0935 0.261107,-0.1384 0.06537,-0.0448 0.166094,-0.0822 0.223853,-0.0828 0.05776,-4.9e-4 0.192838,-0.0408 0.300179,-0.0896 0.107335,-0.0488 0.242384,-0.0885 0.300096,-0.0885 0.138018,0 0.318927,-0.0815 0.512079,-0.23045 0.08618,-0.0665 0.358167,-0.20409 0.604404,-0.30576 0.24624,-0.10165 0.488,-0.21031 0.537248,-0.24143 0.04925,-0.031 0.210423,-0.10369 0.358165,-0.16114 0.147744,-0.0575 0.362808,-0.18196 0.477923,-0.27665 0.292303,-0.24039 0.376794,-0.26446 0.689765,-0.19657 0.350046,0.076 0.642539,0.20975 0.777599,0.35571 0.195471,0.21126 0.115365,0.55287 -0.149171,0.63614 -0.05216,0.0164 -0.164794,0.0773 -0.250308,0.1352 -0.08551,0.0579 -0.249352,0.13651 -0.364091,0.17461 -0.277628,0.0922 -0.323814,0.15563 -0.43903,0.60285 -0.05392,0.2093 -0.149121,0.49136 -0.211551,0.62679 -0.06243,0.13549 -0.195296,0.47792 -0.295258,0.76109 -0.09995,0.28318 -0.206939,0.55517 -0.237729,0.6044 -0.03078,0.0493 -0.07093,0.13986 -0.08918,0.20148 -0.01827,0.0616 -0.07073,0.15997 -0.116585,0.21869 -0.109614,0.14042 -0.106448,0.30306 0.0071,0.36382 0.108336,0.0579 0.09739,0.0642 0.603479,-0.33778 0.221615,-0.176 0.494702,-0.38191 0.606861,-0.45758 0.112155,-0.0757 0.300699,-0.25088 0.41898,-0.38932 0.118284,-0.1384 0.335099,-0.33326 0.481821,-0.43289 0.146721,-0.0996 0.49459,-0.40262 0.773042,-0.6733 0.278452,-0.27068 0.606965,-0.55995 0.730032,-0.64283 0.123061,-0.0829 0.342158,-0.2778 0.486876,-0.43316 0.144715,-0.15534 0.340593,-0.35295 0.435278,-0.43915 0.09469,-0.0861 0.357845,-0.33297 0.584801,-0.54843 0.226957,-0.21546 0.431551,-0.39175 0.454655,-0.39175 0.07369,0 0.403823,-0.32902 0.527696,-0.52591 0.147489,-0.23444 0.956702,-1.09159 1.247619,-1.32156 0.117805,-0.0931 0.214177,-0.18786 0.214177,-0.21057 0,-0.0226 0.214702,-0.25897 0.477113,-0.52502 0.313889,-0.31824 0.581481,-0.64455 0.782188,-0.95382 0.167791,-0.25855 0.421504,-0.62876 0.563805,-0.82268 0.494426,-0.67379 0.923068,-1.38867 1.098217,-1.83152 0.174015,-0.43999 0.193267,-0.83079 0.0519,-1.05332 -0.253102,-0.39839 -1.329862,-1.12665 -1.668222,-1.12829 -0.128232,-4.9e-4 -1.067862,-0.23984 -1.110825,-0.2828 -0.01437,-0.0146 -0.01322,-0.0598 0.0026,-0.10093 0.02399,-0.0626 0.06351,-0.0692 0.240577,-0.0402 0.116526,0.019 0.393188,0.0373 0.614801,0.0407 0.314333,0.004 0.45213,0.0284 0.626648,0.1079 0.123047,0.0559 0.312932,0.114 0.421975,0.12896 0.481199,0.0659 1.314006,0.67277 1.527069,1.11268 0.121711,0.25129 0.123947,0.95544 0.0039,1.31319 -0.04616,0.13796 -0.10883,0.33142 -0.139225,0.42993 -0.154631,0.50119 -0.644681,1.27688 -1.12314,1.77777 -0.124469,0.13026 -0.257752,0.29734 -0.296197,0.37122 -0.03844,0.0739 -0.134243,0.21489 -0.212894,0.31339 -0.07866,0.0985 -0.209831,0.27981 -0.291521,0.40293 -0.08169,0.12315 -0.254784,0.32745 -0.384654,0.45407 -0.368796,0.35954 -0.915738,1.1214 -0.915738,1.27554 0,0.0751 0.07068,0.2362 0.16789,0.38261 0.250421,0.37716 0.237126,0.52802 -0.107987,1.22538 -0.151734,0.3066 -0.298837,0.65819 -0.326897,0.78131 -0.06433,0.28225 -0.439348,1.05154 -0.746068,1.53042 -0.129074,0.20152 -0.299164,0.51379 -0.377994,0.69394 -0.07883,0.18016 -0.201027,0.41178 -0.271547,0.51473 -0.07053,0.10295 -0.128217,0.21207 -0.128217,0.24255 0,0.0817 -0.439323,1.02217 -0.563208,1.20557 -0.126634,0.18749 -0.312444,0.70378 -0.351527,0.97675 -0.01545,0.1079 -0.119591,0.35352 -0.234055,0.55197 -0.192865,0.33437 -0.418164,0.94114 -0.418177,1.12623 -5e-6,0.045 -0.06403,0.14571 -0.142289,0.22385 -0.129234,0.12911 -0.143408,0.17077 -0.154559,0.45546 -0.0068,0.17235 -0.01423,0.35165 -0.0167,0.39841 -0.01162,0.22475 0.191779,0.19721 0.308911,-0.0418 0.04886,-0.0996 0.05151,-0.15677 0.0122,-0.26105 -0.06068,-0.16075 -0.01612,-0.2304 0.17138,-0.2679 0.135245,-0.027 0.394018,-0.4571 0.532953,-0.88572 0.0294,-0.0907 0.205502,-0.33048 0.397954,-0.5419 0.189879,-0.20859 0.403554,-0.49804 0.474834,-0.64323 0.07128,-0.14523 0.178083,-0.32945 0.237339,-0.40951 0.05925,-0.08 0.13905,-0.22105 0.177305,-0.31338 0.03826,-0.0924 0.155431,-0.29883 0.260372,-0.45889 0.614395,-0.93707 1.160085,-1.92287 1.518211,-2.74266 0.06196,-0.14188 0.201138,-0.37355 0.30928,-0.51488 0.108147,-0.1413 0.251569,-0.36776 0.318729,-0.50319 0.149384,-0.30125 0.395889,-0.67377 0.617162,-0.9327 0.09117,-0.10673 0.200337,-0.28801 0.24258,-0.40292 0.04224,-0.11488 0.121028,-0.26941 0.175091,-0.34328 0.1122,-0.15331 0.351071,-0.61774 0.401946,-0.78147 0.01877,-0.0604 0.153813,-0.28581 0.300067,-0.5008 0.14625,-0.21499 0.376943,-0.60878 0.512648,-0.87506 0.480835,-0.9435 0.717588,-1.09336 1.068472,-0.67637 0.150743,0.17916 0.144568,0.22377 -0.118052,0.85257 -0.125981,0.30166 -0.264765,0.66935 -0.308406,0.8171 -0.04362,0.14773 -0.209401,0.52046 -0.368356,0.82824 -0.158954,0.3078 -0.31507,0.64023 -0.34692,0.73872 -0.03185,0.0985 -0.115583,0.29435 -0.186069,0.43525 -0.0705,0.14087 -0.12816,0.28827 -0.12816,0.32754 0,0.0701 -0.774903,1.65225 -0.946442,1.93229 -0.04823,0.0787 -0.126518,0.28331 -0.173989,0.4546 -0.04746,0.17127 -0.124789,0.37883 -0.17185,0.46124 -0.04706,0.0823 -0.131208,0.29016 -0.186999,0.46171 -0.05579,0.17155 -0.154955,0.40323 -0.220359,0.51487 -0.06541,0.11167 -0.195001,0.39436 -0.287994,0.62829 -0.09299,0.23392 -0.205663,0.48576 -0.250378,0.55963 -0.111124,0.18357 -0.434229,1.03614 -0.568407,1.49982 -0.138499,0.47861 -0.486603,1.34672 -0.646287,1.61175 -0.135231,0.22444 -0.35316,0.90419 -0.469275,1.46376 -0.08291,0.39955 -0.03287,0.59662 0.151081,0.595 0.13815,-10e-4 0.182123,-0.063 0.292714,-0.41127 0.09029,-0.28429 0.187618,-0.44857 0.569783,-0.96161 0.702356,-0.94288 0.784867,-1.05749 0.848227,-1.17836 0.03227,-0.0616 0.202942,-0.33354 0.379274,-0.6044 0.567363,-0.87153 0.953001,-1.55318 1.279807,-2.26217 0.175612,-0.38099 0.376157,-0.81357 0.445659,-0.96133 0.06949,-0.14773 0.162004,-0.35928 0.205571,-0.47009 0.04358,-0.11081 0.104735,-0.24176 0.135929,-0.29101 0.0312,-0.0493 0.120491,-0.27053 0.198443,-0.49173 0.07795,-0.22121 0.288215,-0.69467 0.467246,-1.05214 0.215011,-0.42931 0.365905,-0.80194 0.444476,-1.09763 0.234921,-0.88407 0.557913,-1.10609 0.970418,-0.667 0.09163,0.0976 0.10684,0.16558 0.122132,0.54627 l 0.01747,0.43486 -0.185385,0.24588 c -0.101961,0.1352 -0.196373,0.29626 -0.2098,0.35782 -0.03349,0.1536 -0.307792,0.97501 -0.389194,1.16548 -0.596444,1.39567 -0.896098,2.14739 -1.016665,2.55049 -0.125371,0.41914 -0.230808,0.70111 -0.495004,1.32376 -0.127694,0.30095 -0.339914,1.1653 -0.386998,1.5762 -0.0641,0.55936 0.450709,0.35765 0.909891,-0.35649 0.105896,-0.16471 0.289164,-0.40786 0.407252,-0.54033 0.118082,-0.13245 0.321226,-0.39057 0.451419,-0.57356 0.675978,-0.95012 0.770628,-1.08853 0.770628,-1.12697 0,-0.0229 0.11702,-0.16591 0.260053,-0.31769 0.363213,-0.3854 0.676966,-0.83015 0.936875,-1.32804 0.122118,-0.23393 0.335008,-0.6268 0.473103,-0.87304 0.138092,-0.24624 0.34768,-0.62544 0.465748,-0.8427 0.118081,-0.21723 0.278144,-0.49085 0.355717,-0.60801 0.07756,-0.1172 0.203898,-0.33756 0.280728,-0.48976 0.07684,-0.15221 0.237671,-0.38493 0.357419,-0.51716 0.119751,-0.13215 0.242694,-0.31835 0.273216,-0.41359 0.03049,-0.0953 0.165154,-0.35848 0.299192,-0.58497 0.13404,-0.22649 0.262919,-0.47834 0.28641,-0.55963 0.07662,-0.26519 0.372507,-0.52839 0.594005,-0.52839 0.415287,0 0.448964,0.33243 0.103835,1.02495 -0.115277,0.23131 -0.238436,0.51772 -0.273701,0.63646 -0.077,0.25929 -0.379901,1.02896 -0.429736,1.09198 -0.01946,0.0247 -0.08517,0.17574 -0.146001,0.33578 -0.06082,0.16006 -0.225199,0.50256 -0.36527,0.7611 -0.140068,0.25855 -0.301899,0.59399 -0.359621,0.74542 -0.05772,0.15145 -0.177129,0.41134 -0.265344,0.57758 -0.08822,0.16623 -0.160387,0.33942 -0.160387,0.38486 0,0.0454 -0.03824,0.19854 -0.08499,0.34023 -0.04672,0.14173 -0.190921,0.59002 -0.320402,0.99632 -0.214296,0.67244 -0.427449,1.21249 -0.604224,1.53085 -0.125662,0.22632 -0.301085,1.0293 -0.306205,1.40162 -0.0045,0.33341 0.0014,0.35912 0.09065,0.3718 0.129451,0.0184 0.2626,-0.15995 0.353999,-0.47435 0.102542,-0.35276 0.218494,-0.56768 0.488091,-0.90479 0.127999,-0.16005 0.42823,-0.58009 0.667168,-0.93341 0.23894,-0.35331 0.489345,-0.71395 0.556456,-0.80139 0.06711,-0.0874 0.172392,-0.24504 0.233947,-0.35024 0.108263,-0.18499 0.442214,-0.70218 0.84313,-1.30576 0.106681,-0.1606 0.255261,-0.45254 0.33019,-0.64877 0.08496,-0.22246 0.214995,-0.45201 0.345448,-0.60979 0.198807,-0.24044 0.630226,-0.89873 0.630226,-0.96163 0,-0.0482 0.945844,-1.82761 1.074984,-2.0224 0.06531,-0.0985 0.205107,-0.337 0.310684,-0.53001 0.396736,-0.72533 0.879742,-1.22059 1.143878,-1.17288 0.37076,0.0669 0.389644,0.41986 0.05285,0.98784 -0.130991,0.22091 -0.29449,0.55275 -0.363338,0.73743 -0.174953,0.4693 -0.506196,1.18744 -0.658413,1.42746 -0.07039,0.11096 -0.127985,0.21624 -0.127985,0.23389 0,0.0176 -0.07791,0.16983 -0.173127,0.33821 -0.09522,0.16837 -0.218314,0.42701 -0.273541,0.57475 -0.166936,0.44659 -0.253409,0.62291 -0.474814,0.96812 -0.117964,0.18394 -0.277384,0.52299 -0.359844,0.76532 -0.08143,0.23928 -0.189228,0.51578 -0.239553,0.61444 -0.05032,0.0986 -0.139705,0.30579 -0.198622,0.46033 -0.05892,0.15455 -0.172603,0.45221 -0.252647,0.66153 -0.08004,0.20929 -0.22137,0.52344 -0.314056,0.6981 -0.289255,0.545 -0.352103,0.90904 -0.173461,1.00463 0.140328,0.0751 0.338066,-0.0597 0.470231,-0.32049 0.157787,-0.31138 0.534164,-0.80825 0.880007,-1.16171 0.158386,-0.16189 0.353574,-0.40899 0.433754,-0.54913 0.08017,-0.14014 0.242483,-0.36812 0.360677,-0.50664 0.283949,-0.33274 0.549653,-0.8492 0.664368,-1.29138 0.05111,-0.19699 0.125211,-0.47904 0.16469,-0.62679 0.03949,-0.14773 0.09998,-0.38057 0.134476,-0.5174 0.08963,-0.35559 0.659166,-1.46146 0.87518,-1.69933 0.100314,-0.11051 0.221283,-0.28743 0.268814,-0.39321 0.04752,-0.10572 0.134243,-0.25688 0.192712,-0.33578 0.05846,-0.0789 0.161921,-0.24775 0.229906,-0.37525 0.190705,-0.35761 0.338195,-0.47706 0.589033,-0.47706 0.46954,0 0.515272,0.51488 0.112882,1.27088 -0.123817,0.23261 -0.283818,0.58412 -0.355561,0.7811 -0.07174,0.19699 -0.192405,0.45543 -0.268131,0.57432 -0.07573,0.11894 -0.151203,0.30021 -0.16772,0.40294 -0.01652,0.10267 -0.117528,0.33787 -0.224474,0.52255 -0.361201,0.62376 -0.668216,1.6906 -0.740831,2.57432 -0.02427,0.29548 -0.06108,0.62248 -0.08176,0.72665 -0.09922,0.49945 0.20023,1.06516 0.558436,1.05501 0.614567,-0.0174 2.053909,-1.26258 2.991048,-2.58753 0.208996,-0.29549 0.438391,-0.61784 0.509761,-0.71633 0.07138,-0.0985 0.195408,-0.32011 0.275632,-0.49247 0.08022,-0.17238 0.191595,-0.37385 0.24749,-0.44771 0.05589,-0.074 0.207852,-0.35593 0.337676,-0.62679 0.12983,-0.27086 0.30962,-0.57307 0.399541,-0.67157 0.187188,-0.20502 0.474941,-0.70022 0.521086,-0.89673 0.01717,-0.0732 0.169778,-0.36676 0.339116,-0.65249 0.169332,-0.28573 0.307878,-0.55028 0.307878,-0.58788 0,-0.10863 0.213765,-0.65563 0.385119,-0.98557 0.0863,-0.16615 0.233579,-0.52879 0.327281,-0.80587 0.0937,-0.27706 0.272177,-0.76229 0.396615,-1.07827 0.264273,-0.67107 0.246409,-0.60709 0.391421,-1.40202 0.06222,-0.34109 0.156041,-0.72089 0.208477,-0.84401 0.14483,-0.34004 0.148304,-1.45714 0.0056,-1.81321 -0.05427,-0.13535 -0.110906,-0.32356 -0.125878,-0.41808 -0.04043,-0.25518 -0.321635,-0.51097 -0.830291,-0.75527 -1.82091,-0.87451 -1.87364,-0.90584 -2.161012,-1.28371 -0.21834,-0.2871 -0.246452,-0.36807 -0.153141,-0.44109 0.190338,-0.14892 0.983975,-0.0414 1.588948,0.21541 0.227544,0.0966 0.442076,0.17558 0.476736,0.17558 0.03463,0 0.177963,0.0604 0.31844,0.13433 0.331568,0.17441 0.964603,0.33751 1.499728,0.38641 0.799818,0.0731 3.303303,0.0477 3.564605,-0.036 0.126054,-0.0404 0.458472,-0.0868 0.738717,-0.10325 0.280239,-0.0164 0.690847,-0.0572 0.912467,-0.0908 0.221613,-0.0336 0.634622,-0.0835 0.917795,-0.11124 0.283176,-0.0276 0.655893,-0.0687 0.828256,-0.0912 0.172368,-0.0225 0.514866,-0.0522 0.761103,-0.0658 0.2462359,-0.0131 0.6390992,-0.0436 0.873028,-0.0666 0.233923,-0.0229 0.747671,-0.0639 1.1416525,-0.0911 0.39398,-0.0271 0.988312,-0.0985 1.3207322,-0.15848 0.3324217,-0.06 0.8763875,-0.13027 1.2088091,-0.15605 0.3324203,-0.0258 0.8260171,-0.0673 1.0968775,-0.0925 0.2708662,-0.025 0.8349788,-0.0623 1.2535828,-0.0829 0.418604,-0.0205 1.0330812,-0.0597 1.3655014,-0.0871 0.332426,-0.0274 0.6547735,-0.0394 0.7163349,-0.0264 0.0615598,0.0131 0.18244014,0.001 0.26862391,-0.0266 0.0861896,-0.0274 0.6301453,-0.0778 1.20880775,-0.11182 0.57865804,-0.034 1.32409264,-0.0839 1.65651424,-0.11095 0.3324202,-0.0268 0.8058719,-0.0548 1.0521083,-0.0617 1.3772833,-0.0393 2.141196,-0.0748 2.4400045,-0.11311 0.6572339,-0.0842 1.812493,-0.1475 2.2528206,-0.12331 0.2946748,0.0163 0.5479251,0.004 0.7425097,-0.0362 0.1624243,-0.0334 0.7687601,-0.0931 1.3474229,-0.13258 1.1076547,-0.0755 1.5804267,-0.12097 2.0594487,-0.19807 0.160054,-0.0257 0.514003,-0.0472 0.786555,-0.0477 0.290832,-4.9e-4 0.586749,-0.0271 0.71633,-0.0643 0.147235,-0.0422 0.578737,-0.0725 1.295281,-0.0908 1.557726,-0.0397 2.828979,-0.10225 3.111564,-0.15313 0.135431,-0.0244 0.417486,-0.0456 0.626786,-0.0473 0.437678,-0.003 1.389636,-0.0767 1.880369,-0.14464 0.546272,-0.0758 1.176233,-0.12054 2.104223,-0.14968 1.109376,-0.0347 2.09103,-0.0988 2.15877,-0.14058 0.06534,-0.0404 0.76939,-0.10804 1.32844,-0.12765 0.231233,-0.009 0.511318,-0.0284 0.622409,-0.045 0.111091,-0.0167 0.546451,-0.0476 0.967467,-0.0687 0.421016,-0.0212 0.990494,-0.0636 1.265507,-0.0943 0.326561,-0.0365 0.53325,-0.041 0.595809,-0.0131 0.158795,0.0709 -0.379536,0.31885 -0.825359,0.38022 -0.195973,0.027 -0.414441,0.0792 -0.485476,0.11589 -0.196522,0.10165 -1.384954,0.3059 -2.538391,0.43631 -0.33242,0.0376 -0.795799,0.0901 -1.029727,0.11676 -0.718865,0.0819 -1.823649,0.17891 -2.551928,0.22404 -0.381668,0.0237 -0.784604,0.0577 -0.895411,0.0754 -0.210168,0.0339 -0.362674,0.0415 -1.544588,0.0774 -0.393981,0.0117 -0.857359,0.0437 -1.029727,0.0705 -0.374091,0.0579 -1.196908,0.11892 -2.417617,0.17921 -0.492474,0.0242 -1.099478,0.062 -1.348895,0.0839 -0.249411,0.0219 -0.587772,0.0258 -0.751909,0.009 -0.180089,-0.0187 -0.488485,-0.007 -0.77771,0.0302 -0.669124,0.0852 -1.11607,0.13549 -1.688094,0.18964 -0.270861,0.0255 -0.653651,0.0672 -0.850642,0.0924 -0.390452,0.0499 -1.1859814,0.11168 -2.2454532,0.17407 -0.6528817,0.0385 -1.9961867,0.13405 -3.2165654,0.22872 -0.3201111,0.0248 -1.0453961,0.0545 -1.6117436,0.0659 -0.6525227,0.0131 -1.1773279,0.0469 -1.4326639,0.0921 -0.4461876,0.0789 -1.6312108,0.15207 -2.86532212,0.17682 -0.76033438,0.0153 -1.27743558,0.0597 -1.79082488,0.15385 -0.1231196,0.0225 -0.334796,0.0422 -0.4703859,0.0437 -0.1355943,0.001 -0.3169177,0.0229 -0.4029359,0.0478 -0.08603,0.0248 -0.4283891,0.0464 -0.7608093,0.0479 -0.3324202,0.001 -0.7957992,0.0301 -1.0297222,0.0637 -0.2339274,0.0336 -0.5663534,0.0732 -0.7387166,0.0883 -0.1723676,0.0151 -0.3839074,0.0457 -0.4700912,0.0681 -0.1532359,0.0398 -0.8277511,0.12737 -1.7236754,0.22365 -0.2462363,0.0264 -0.5646107,0.0686 -0.7074936,0.0937 -0.1428845,0.025 -0.5424992,0.0645 -0.888033,0.0877 -0.3455338,0.0232 -0.6447848,0.0525 -0.6650018,0.0649 -0.02021,0.0131 -0.285445,0.0415 -0.589394,0.0645 -0.303954,0.0229 -0.824625,0.0833 -1.157046,0.13403 -0.332426,0.0506 -0.805872,0.0927 -1.052114,0.0933 -0.246237,5e-4 -0.568584,0.0311 -0.71633,0.0679 -0.482285,0.12025 -1.912977,0.24945 -2.181172,0.19693 -0.449821,-0.088 -1.670968,-0.0977 -1.740626,-0.0145 -0.101336,0.12212 -0.07344,0.38811 0.06221,0.59311 0.06763,0.10224 0.146157,0.28626 0.17449,0.40899 0.05336,0.23111 0.04632,0.28101 -0.119911,0.85061 -0.03953,0.1355 -0.09117,0.5686 -0.114784,0.96257 -0.05139,0.85754 -0.169901,1.40192 -0.520985,2.39319 -0.13558,0.38279 -0.282521,0.81818 -0.326542,0.96753 -0.08718,0.29578 -0.233952,0.60753 -0.365069,0.77542 -0.04588,0.0587 -0.08339,0.16408 -0.08339,0.23416 0,0.2669 -0.539458,1.44318 -1.126927,2.45723 -0.06419,0.11081 -0.141417,0.27933 -0.171618,0.37449 -0.03019,0.0951 -0.156061,0.33691 -0.27969,0.53723 -0.123642,0.20034 -0.303925,0.52543 -0.400646,0.7224 -0.379865,0.77369 -0.617871,1.16921 -0.873418,1.45154 -0.146621,0.162 -0.46495,0.59673 -0.707403,0.96609 -0.242453,0.36936 -0.543009,0.79033 -0.667902,0.9355 -0.461886,0.53691 -1.173019,1.22827 -1.360266,1.32246 -0.106158,0.0535 -0.297549,0.1624 -0.425323,0.24221 -0.45622,0.28495 -0.772274,0.32653 -1.280352,0.16841 -0.628038,-0.19548 -0.807424,-0.40191 -1.123312,-1.29265 -0.14486,-0.40847 -0.234597,-0.51046 -0.397117,-0.45132 -0.107566,0.0391 -0.681958,0.74534 -0.838472,1.03088 -0.09577,0.1747 -0.218254,0.34655 -0.272198,0.3819 -0.05395,0.0353 -0.181442,0.17468 -0.283329,0.30963 -0.395734,0.52414 -1.323404,0.74962 -1.66767,0.40536 -0.189763,-0.18976 -0.263542,-0.43922 -0.24754,-0.83694 0.02167,-0.53843 -0.259867,-0.52588 -0.539463,0.0241 -0.06566,0.12911 -0.232745,0.38471 -0.371311,0.56796 -0.138557,0.18322 -0.353958,0.47613 -0.478656,0.65088 -0.124702,0.17477 -0.298424,0.39157 -0.386051,0.48182 -0.08763,0.0901 -0.159324,0.182 -0.159324,0.20395 0,0.23943 -1.181854,0.40282 -1.426239,0.1972 -0.361921,-0.30455 -0.335521,-0.61374 0.199726,-2.33964 0.172476,-0.55616 0.190206,-0.88002 0.05289,-0.9661 -0.123454,-0.0774 -0.286673,0.0836 -0.520101,0.51302 -0.115874,0.21317 -0.348705,0.53906 -0.522428,0.73127 -0.172368,0.1907 -0.332012,0.38031 -0.354769,0.42133 -0.08964,0.16167 -1.199982,1.28235 -1.320853,1.33316 -0.240073,0.10093 -0.816249,0.20733 -0.993868,0.18351 -0.37156,-0.0499 -0.510934,-0.2481 -0.566582,-0.80598 -0.03083,-0.30913 -0.03706,-0.3227 -0.148237,-0.3227 -0.110586,0 -0.636792,0.6928 -0.872703,1.14901 -0.03557,0.0688 -0.173796,0.24735 -0.30718,0.39684 -0.162735,0.18237 -0.280665,0.37162 -0.358484,0.57527 -0.129073,0.33776 -0.384044,0.59737 -0.816559,0.83134 -0.12784,0.0691 -0.243351,0.15416 -0.256684,0.18892 -0.034,0.0885 -0.467956,0.28263 -0.633276,0.28315 -0.128928,4e-4 -0.430019,-0.20522 -0.588654,-0.40201 -0.08122,-0.10078 -0.06855,-0.28763 0.02784,-0.41017 0.109309,-0.13898 0.165496,-0.35983 0.226054,-0.88867 0.02679,-0.23393 0.08703,-0.52606 0.133881,-0.64918 0.04685,-0.12315 0.137105,-0.35824 0.200558,-0.52249 0.06346,-0.16426 0.115378,-0.31198 0.115378,-0.32828 0,-0.0163 0.06155,-0.16987 0.136786,-0.34129 0.07523,-0.1714 0.163683,-0.47698 0.196561,-0.67905 0.0392,-0.24089 0.131789,-0.52931 0.268879,-0.83752 0.292906,-0.65847 0.460478,-1.38789 0.318855,-1.38789 -0.114435,0 -0.601431,0.63868 -0.830377,1.089 -0.122989,0.24188 -0.261811,0.49371 -0.308508,0.55962 -0.04669,0.0659 -0.189301,0.35152 -0.316893,0.63469 -0.127593,0.28318 -0.288567,0.62568 -0.357717,0.76111 -0.06916,0.13549 -0.161523,0.34253 -0.205274,0.46025 -0.05448,0.14659 -0.147297,0.27074 -0.294574,0.39405 -0.118269,0.099 -0.257471,0.24871 -0.309351,0.33264 -0.05187,0.0839 -0.237643,0.27629 -0.412809,0.42742 l -0.318485,0.2748 -0.294554,-0.0314 c -0.353924,-0.0378 -0.42952,-0.074 -0.543024,-0.26008 -0.147163,-0.24135 -0.09289,-1.09189 0.114682,-1.79714 0.03656,-0.1243 0.12569,-0.42734 0.198035,-0.67358 0.07235,-0.24624 0.165716,-0.60675 0.207472,-0.80113 0.04175,-0.1944 0.15235,-0.51675 0.245763,-0.71634 0.09341,-0.1996 0.292604,-0.68525 0.44265,-1.07924 0.150042,-0.39397 0.315384,-0.80699 0.367424,-0.91779 0.05203,-0.1108 0.140416,-0.34249 0.19639,-0.51486 0.274333,-0.84477 0.7679,-1.99679 1.00703,-2.35047 0.04162,-0.0616 0.101511,-0.19251 0.133097,-0.29099 0.06248,-0.1949 0.28324,-0.70713 0.366591,-0.85064 0.13661,-0.23524 0.169904,-0.32395 0.170158,-0.45344 3.17e-4,-0.16088 -0.09323,-0.25966 -0.210236,-0.22201 -0.122001,0.0394 -0.914491,0.82041 -1.123746,1.10764 -0.101423,0.13927 -0.244571,0.29596 -0.318112,0.34834 -0.07354,0.0525 -0.371704,0.33132 -0.662585,0.61991 -0.290882,0.28857 -0.599188,0.57865 -0.685126,0.64461 -0.08594,0.0659 -0.216691,0.17328 -0.290563,0.23853 -0.07387,0.0652 -0.345853,0.30338 -0.604405,0.52918 -0.258549,0.22583 -0.661485,0.60293 -0.895412,0.838 -0.311867,0.31341 -0.503877,0.46605 -0.719819,0.57226 -0.350082,0.17218 -0.639884,0.43898 -1.004383,0.92464 -0.147452,0.19646 -0.461546,0.5591 -0.697989,0.80588 -0.391822,0.40892 -0.432815,0.4682 -0.46285,0.66937 -0.051,0.3416 -0.266927,0.95901 -0.492396,1.40794 -0.112533,0.22406 -0.252086,0.53353 -0.310125,0.68771 -0.05804,0.15418 -0.177374,0.42299 -0.265188,0.59736 -0.193283,0.38378 -0.479931,1.06211 -0.679547,1.60811 -0.08102,0.22162 -0.287396,0.75573 -0.458604,1.18694 -0.171206,0.4312 -0.326023,0.84421 -0.344037,0.91779 -0.04694,0.19176 -0.320184,0.79015 -0.899297,1.9694 -0.278124,0.56636 -0.578528,1.21375 -0.667565,1.43869 -0.138077,0.34881 -0.620371,1.27613 -0.740774,1.42429 -0.02105,0.0258 -0.06291,0.13783 -0.09302,0.24859 -0.05124,0.18859 -0.163654,0.48866 -0.402542,1.07448 -0.05523,0.1355 -0.182307,0.44771 -0.282405,0.69395 -0.100103,0.24624 -0.239525,0.54845 -0.30984,0.67157 -0.160548,0.2811 -0.358464,0.70171 -0.547722,1.16403 -0.08065,0.19699 -0.212116,0.49919 -0.292164,0.67157 -0.08004,0.17236 -0.184557,0.40405 -0.232246,0.51485 -0.04769,0.1108 -0.167052,0.32524 -0.265254,0.47651 -0.09821,0.15126 -0.287746,0.52739 -0.421207,0.83582 -0.240032,0.55475 -0.634188,1.33643 -0.783084,1.553 -0.268043,0.38986 -0.661343,1.11999 -0.800096,1.48529 -0.06314,0.16624 -0.784679,1.25249 -0.903102,1.35959 -0.05327,0.0482 -0.13786,0.16818 -0.187983,0.26667 -0.09207,0.18093 -0.46892,0.74215 -0.52611,0.78349 -0.01704,0.0117 -0.118545,0.15334 -0.225588,0.31339 -0.305385,0.45664 -0.444416,0.62292 -1.320375,1.57921 -0.135043,0.14743 -0.310991,0.26902 -0.567296,0.39203 -0.204346,0.098 -0.466158,0.22895 -0.581803,0.29087 -0.601741,0.32212 -1.093808,0.22485 -2.012287,-0.39782 -0.260297,-0.17645 -0.632665,-0.76819 -0.918295,-1.45929 -0.08698,-0.21043 -0.17648,-0.40491 -0.198905,-0.43217 -0.125995,-0.15315 -0.520927,-1.30306 -0.613408,-1.78604 -0.02357,-0.12315 -0.08468,-0.3365 -0.135783,-0.47419 -0.207207,-0.55825 -0.340768,-1.47653 -0.347785,-2.39113 -0.0036,-0.46785 -0.01793,-1.23344 -0.03186,-1.70128 -0.02233,-0.74983 1e-5,-1.38788 0.08389,-2.39523 0.03754,-0.45088 -0.08555,-0.52328 -0.277477,-0.16319 -0.275954,0.51778 -0.426568,0.83596 -0.469095,0.99103 -0.04484,0.16344 -0.188393,0.4139 -0.270461,0.4718 -0.04716,0.0333 -0.474694,0.88209 -0.532453,1.05709 -0.02625,0.0796 -0.179284,0.32222 -0.340069,0.53927 -0.160786,0.21705 -0.334548,0.4853 -0.386138,0.59611 -0.05158,0.1108 -0.2086,0.36264 -0.348912,0.55963 -0.140314,0.19699 -0.291371,0.43647 -0.335688,0.53218 -0.04576,0.0988 -0.157115,0.22459 -0.257682,0.29101 -0.291445,0.19252 -0.433663,0.34698 -0.433663,0.471 0,0.14893 -0.208346,0.57529 -0.409308,0.83762 -0.08708,0.11371 -0.264279,0.40579 -0.39378,0.64917 -0.129495,0.24338 -0.312667,0.54331 -0.407037,0.6665 -0.09436,0.12315 -0.234801,0.36495 -0.31207,0.53723 -0.07727,0.1723 -0.252231,0.4618 -0.388807,0.64331 -0.147174,0.19561 -0.307823,0.4816 -0.394405,0.70216 -0.08034,0.20466 -0.214248,0.45907 -0.297556,0.56537 -0.225053,0.28716 -0.340217,0.44313 -0.464007,0.62851 -0.0612,0.0917 -0.255271,0.3334 -0.431274,0.53725 -0.175995,0.20383 -0.457652,0.55524 -0.625907,0.78091 -0.168249,0.22565 -0.361815,0.45002 -0.430149,0.49861 -0.649149,0.46154 -1.007271,-0.0685 -0.445334,-0.65903 0.130758,-0.13738 0.321928,-0.39431 0.424813,-0.57086 0.102876,-0.17657 0.259935,-0.41649 0.349002,-0.53318 0.08908,-0.11675 0.260953,-0.39436 0.381963,-0.61707 0.121014,-0.22272 0.247354,-0.4361 0.280778,-0.47419 0.03345,-0.038 0.111705,-0.17095 0.173964,-0.29526 0.06227,-0.12431 0.240846,-0.39325 0.396848,-0.59765 0.156005,-0.2044 0.347305,-0.45525 0.425118,-0.55747 0.07781,-0.10223 0.281023,-0.45782 0.451572,-0.79024 0.32426,-0.63203 0.66997,-1.19438 1.128419,-1.83559 0.149643,-0.20932 0.314702,-0.46115 0.366796,-0.55965 0.147093,-0.27812 0.616802,-1.05308 0.730845,-1.20583 0.05639,-0.0755 0.221939,-0.34952 0.367903,-0.60894 0.145963,-0.25939 0.348216,-0.57641 0.44945,-0.70448 0.101235,-0.12809 0.207093,-0.30264 0.23524,-0.38791 0.02814,-0.0852 0.142246,-0.33061 0.253549,-0.54513 0.111313,-0.21454 0.298629,-0.61439 0.416275,-0.88856 0.117646,-0.27418 0.263871,-0.57816 0.324944,-0.67553 0.06108,-0.0973 0.236653,-0.42884 0.390178,-0.73664 0.153526,-0.3078 0.429446,-0.8014 0.613157,-1.09688 0.183711,-0.29549 0.381629,-0.62821 0.43982,-0.73939 0.05819,-0.11109 0.195992,-0.32271 0.306229,-0.47009 0.110238,-0.14738 0.256185,-0.37876 0.324329,-0.51419 0.06815,-0.1355 0.176446,-0.3144 0.240668,-0.39772 0.158613,-0.20573 0.519596,-0.82338 0.657227,-1.12449 0.06189,-0.1355 0.140691,-0.29661 0.175088,-0.35817 0.290561,-0.51998 0.424556,-0.74364 0.638221,-1.06529 0.15135,-0.22786 0.295744,-0.51833 0.373642,-0.75166 0.142667,-0.42734 0.234514,-0.57821 0.530018,-0.87063 0.227692,-0.22534 0.48796,-0.66176 0.602768,-1.01075 0.04136,-0.12576 0.126882,-0.27685 0.190042,-0.33579 0.09071,-0.0846 0.688112,-1.03232 0.688112,-1.09156 0,-0.007 0.0725,-0.14216 0.161133,-0.29845 0.08862,-0.15627 0.221067,-0.43522 0.294321,-0.61992 0.167616,-0.42257 0.468596,-0.94887 0.805253,-1.40811 0.350718,-0.47838 0.434937,-0.69687 0.330236,-0.85666 -0.08881,-0.13549 -0.254914,-0.12808 -0.464251,0.0209 -0.225823,0.16069 -1.704842,0.56185 -2.249031,0.61002 -0.445371,0.0395 -0.617234,0.14188 -0.715125,0.42608 -0.09906,0.28765 -0.21508,0.49657 -0.350339,0.63089 -0.209531,0.20806 -0.392842,0.4602 -0.484482,0.66642 -0.04925,0.11081 -0.193271,0.35998 -0.320063,0.55372 -0.126794,0.19374 -0.250674,0.42706 -0.275292,0.51848 -0.02461,0.0915 -0.168291,0.34443 -0.319275,0.56223 -0.150981,0.21781 -0.304532,0.46802 -0.341224,0.55603 -0.03669,0.088 -0.18525,0.34311 -0.330133,0.56691 -0.144889,0.22381 -0.301264,0.51691 -0.347514,0.65134 -0.115553,0.33586 -0.250278,0.59027 -0.407246,0.76906 -0.147331,0.1678 -0.340012,0.49314 -0.707565,1.19471 -0.135448,0.25855 -0.324258,0.58511 -0.419567,0.72566 -0.09531,0.14056 -0.194479,0.31179 -0.220376,0.38055 -0.02589,0.0686 -0.142928,0.26602 -0.260078,0.43838 -0.11715,0.17238 -0.29991,0.48466 -0.406146,0.69395 -0.10623,0.2093 -0.245895,0.45074 -0.310354,0.53651 -0.197402,0.2627 -0.36803,0.54484 -0.54195,0.89615 -0.166364,0.33604 -0.598446,1.09645 -0.677827,1.19287 -0.0232,0.0281 -0.103907,0.17928 -0.179375,0.33578 -0.07546,0.15651 -0.232109,0.4256 -0.348097,0.59796 -0.115989,0.17236 -0.23896,0.38391 -0.273268,0.47009 -0.07197,0.18078 -0.315055,0.61009 -0.497881,0.87931 -0.06923,0.10194 -0.200246,0.33354 -0.291138,0.51465 -0.0909,0.18109 -0.249539,0.46076 -0.352549,0.62147 -0.103007,0.16071 -0.213578,0.37235 -0.245704,0.47031 -0.05235,0.15965 -0.33507,0.66483 -0.538146,0.96161 -0.04213,0.0616 -0.162345,0.27309 -0.267156,0.47008 -0.104808,0.197 -0.216124,0.38838 -0.247361,0.42532 -0.03125,0.0369 -0.142042,0.23841 -0.246222,0.4477 -0.104183,0.20931 -0.276231,0.47388 -0.382332,0.58793 -0.117963,0.12679 -0.213347,0.28335 -0.245517,0.40294 -0.08147,0.30283 -0.260253,0.5841 -0.765631,1.20455 -0.08952,0.10993 -0.243686,0.36099 -0.342583,0.55799 -0.0989,0.19699 -0.267417,0.49301 -0.374479,0.65784 -0.107058,0.16483 -0.275253,0.42638 -0.373746,0.58123 -0.09849,0.15484 -0.27439,0.40656 -0.390871,0.55939 -0.116484,0.15282 -0.305467,0.45537 -0.419958,0.67236 -0.114493,0.21697 -0.262385,0.46501 -0.328647,0.5512 -0.06626,0.0861 -0.176386,0.26014 -0.24472,0.38659 -0.06832,0.12648 -0.204038,0.32644 -0.301573,0.44447 -0.09753,0.11807 -0.365963,0.49835 -0.596507,0.84514 -0.366188,0.55085 -0.445239,0.6432 -0.625428,0.73074 -0.290982,0.14146 -0.452458,0.13114 -0.611218,-0.0388 z m 17.41701,-3.06046 c 0.202461,-0.10194 0.365052,-0.22476 0.474619,-0.35846 0.09166,-0.11182 0.239673,-0.24614 0.328906,-0.29839 0.250946,-0.14692 1.117882,-1.16087 1.311331,-1.53368 0.04972,-0.0959 0.175277,-0.2671 0.278998,-0.38056 0.163342,-0.17868 0.51944,-0.72522 0.51944,-0.79724 0,-0.0131 0.09839,-0.15831 0.218631,-0.32138 0.390895,-0.53009 0.70804,-1.0505 0.852129,-1.39825 0.07763,-0.18737 0.248393,-0.50971 0.379468,-0.71633 0.259851,-0.40961 0.833005,-1.54653 0.833189,-1.65272 6.5e-5,-0.0363 0.07315,-0.18695 0.162405,-0.33469 0.280753,-0.46471 0.686289,-1.2826 0.843553,-1.70129 0.227975,-0.60694 0.39992,-0.96589 0.55513,-1.15886 0.07694,-0.0957 0.161477,-0.25684 0.187877,-0.35817 0.0264,-0.10137 0.15574,-0.41594 0.287422,-0.69911 0.131688,-0.28318 0.283713,-0.65589 0.337844,-0.82826 0.05412,-0.17237 0.184397,-0.47457 0.289485,-0.67157 0.105083,-0.19698 0.223235,-0.47069 0.262551,-0.60823 0.03931,-0.13752 0.152421,-0.36925 0.251344,-0.51487 0.09893,-0.14564 0.179908,-0.28137 0.179969,-0.30163 5.7e-5,-0.0203 0.114043,-0.2721 0.253299,-0.55963 0.139254,-0.28752 0.351188,-0.76414 0.470959,-1.05914 0.119765,-0.295 0.264594,-0.60727 0.32183,-0.69394 0.05723,-0.0867 0.130439,-0.23818 0.162665,-0.33668 0.03222,-0.0985 0.166333,-0.39285 0.298004,-0.65412 0.131673,-0.26127 0.239405,-0.49165 0.239405,-0.51195 0,-0.0203 0.06822,-0.16919 0.151607,-0.33083 0.08339,-0.16166 0.176224,-0.41339 0.206311,-0.55941 0.08985,-0.43605 0.416499,-1.29445 0.608023,-1.59785 0.06025,-0.0954 0.136654,-0.28972 0.169786,-0.43176 0.03314,-0.14203 0.122349,-0.37878 0.198274,-0.52615 0.38365,-0.74469 0.535669,-1.31947 0.372124,-1.40699 -0.184287,-0.0986 -0.534088,0.0131 -0.72117,0.22914 -0.06156,0.0713 -0.307605,0.2649 -0.546766,0.43023 -0.471427,0.32591 -0.735613,0.53723 -1.424858,1.13984 -0.246302,0.21533 -0.522042,0.42253 -0.612754,0.46043 -0.09276,0.0388 -0.299903,0.2154 -0.47333,0.40361 -0.192463,0.20888 -0.424115,0.40228 -0.616211,0.51446 -0.169296,0.0989 -0.454565,0.31525 -0.63393,0.48083 -0.427149,0.39433 -0.624382,0.54683 -0.966603,0.74738 -0.155389,0.091 -0.377226,0.24951 -0.492973,0.35211 -0.115742,0.10252 -0.361326,0.27636 -0.545734,0.38613 -0.184407,0.10978 -0.42836,0.28104 -0.542121,0.38056 -0.113753,0.0995 -0.325301,0.25108 -0.470092,0.33682 -0.144787,0.0857 -0.42443,0.29732 -0.621422,0.47018 -0.19699,0.17286 -0.650294,0.50345 -1.007339,0.73467 -0.357047,0.23119 -0.765652,0.4981 -0.908011,0.59312 -0.142362,0.095 -0.275768,0.17276 -0.296459,0.17276 -0.02069,0 -0.192095,0.10079 -0.380898,0.2241 -0.188802,0.12329 -0.458331,0.28447 -0.598955,0.35826 -0.262256,0.13767 -0.966192,0.61348 -1.285404,0.86893 -0.09849,0.0789 -0.305027,0.2307 -0.458957,0.33749 -0.224437,0.15573 -0.323029,0.26605 -0.497743,0.55702 -0.249927,0.41622 -0.690244,1.35186 -0.760687,1.61641 -0.09911,0.37221 -0.226476,1.13874 -0.275881,1.66039 -0.09094,0.96022 0.0052,4.44709 0.135043,4.89821 0.02476,0.0859 0.04502,0.26486 0.04502,0.3974 0,0.13259 0.03892,0.41473 0.08648,0.62709 0.04756,0.21234 0.115641,0.51704 0.151304,0.6771 0.130555,0.58601 0.304753,1.18074 0.41267,1.40887 0.06087,0.12867 0.110645,0.26761 0.110645,0.30881 0,0.0412 0.04811,0.15114 0.106928,0.2443 0.05882,0.0933 0.178101,0.30934 0.26509,0.4804 0.176454,0.34698 0.603258,0.8203 0.812277,0.90081 0.285089,0.10979 0.671025,0.0731 1.006266,-0.0957 z m -0.662123,-15.34653 c 0.08275,-0.062 0.299501,-0.1963 0.481662,-0.29855 0.182162,-0.10224 0.404904,-0.24428 0.494983,-0.31563 0.09008,-0.0713 0.273461,-0.18845 0.407515,-0.26023 0.434171,-0.23251 0.998889,-0.57845 1.251072,-0.76639 0.135435,-0.10093 0.418408,-0.31211 0.628841,-0.4693 0.21043,-0.15717 0.482412,-0.33918 0.604403,-0.40447 0.320774,-0.17167 0.562767,-0.35895 1.000265,-0.77411 0.248413,-0.23573 0.474843,-0.40629 0.632493,-0.47645 0.135057,-0.0601 0.295926,-0.16373 0.357486,-0.23031 0.06156,-0.0665 0.234919,-0.17694 0.385245,-0.2453 0.150325,-0.0685 0.351792,-0.19334 0.447706,-0.27773 0.09592,-0.0843 0.32549,-0.26236 0.510169,-0.39547 0.184679,-0.13317 0.553562,-0.45055 0.819741,-0.7054 0.292026,-0.2796 0.664895,-0.57975 0.940185,-0.75679 0.250921,-0.16139 0.576046,-0.41366 0.7225,-0.56063 0.146454,-0.14695 0.327775,-0.29878 0.402936,-0.33739 0.24037,-0.12344 0.667648,-0.42388 0.875847,-0.61578 0.111066,-0.10238 0.316733,-0.25956 0.457035,-0.3493 0.140299,-0.0898 0.443211,-0.34026 0.673133,-0.55668 0.22992,-0.21641 0.676086,-0.61511 0.99148,-0.88596 0.605587,-0.52009 0.709394,-0.65564 0.891429,-1.16405 0.06172,-0.17237 0.187915,-0.47185 0.28044,-0.66555 0.09253,-0.1937 0.213691,-0.51606 0.269256,-0.71634 0.216937,-0.78198 0.614262,-1.97576 0.761945,-2.28929 0.215639,-0.45783 -0.106245,-0.61872 -0.530636,-0.26523 -0.06759,0.0564 -0.168317,0.11617 -0.223853,0.13317 -0.21007,0.064 -0.912096,0.34606 -1.106874,0.44461 -0.111603,0.0565 -0.505111,0.20424 -0.87447,0.32839 -1.026471,0.34498 -1.601301,0.57383 -1.845974,0.7349 -0.122322,0.0804 -0.411785,0.24037 -0.643258,0.35522 -1.241654,0.61604 -2.908608,1.43259 -3.084716,1.51102 -0.110804,0.0494 -0.282055,0.13854 -0.380549,0.19823 -0.09849,0.0597 -0.299371,0.18172 -0.446387,0.27123 -0.324154,0.19736 -1.204602,1.05481 -1.386255,1.35006 -0.07224,0.11748 -0.195866,0.34622 -0.274711,0.50846 -0.07884,0.16221 -0.231278,0.39973 -0.338737,0.52782 -0.34776,0.41452 -0.712381,1.03628 -0.95349,1.6259 -0.133896,0.32743 -0.296619,0.64576 -0.37677,0.73703 -0.07759,0.0884 -0.141083,0.18182 -0.141083,0.20764 0,0.12794 -0.295283,0.75976 -0.447286,0.9571 -0.217162,0.28197 -0.996841,1.64367 -1.072533,1.8732 -0.03115,0.0944 -0.112228,0.23547 -0.180182,0.31339 -0.06795,0.078 -0.167518,0.22838 -0.22126,0.33436 -0.05375,0.10601 -0.167268,0.28383 -0.252277,0.3952 -0.08502,0.11138 -0.167488,0.25634 -0.183288,0.32216 -0.04854,0.20222 -0.199363,0.46818 -0.38523,0.6793 -0.267636,0.30401 -0.570118,0.96723 -0.495903,1.0873 0.04648,0.0752 0.402748,0.003 0.557955,-0.11328 z m -24.271938,-1.12212 c 0,-0.0323 -0.03021,-0.0978 -0.06715,-0.1455 -0.06513,-0.0843 -0.06908,-0.0843 -0.131238,-0.004 -0.03525,0.0454 -0.05324,0.11096 -0.03998,0.1455 0.03045,0.0793 0.238376,0.0831 0.238376,0.004 z m 25.473627,-8.15131 c 0.135913,-0.0832 0.388148,-0.18608 0.560515,-0.2287 0.352322,-0.0871 0.478846,-0.14592 1.128815,-0.52428 0.251489,-0.1464 0.52709,-0.28547 0.612442,-0.30904 0.08535,-0.0235 0.282799,-0.15812 0.438762,-0.29903 0.155964,-0.14087 0.356327,-0.31665 0.445252,-0.39051 0.171589,-0.14261 0.484476,-0.60507 0.705475,-1.04288 0.07344,-0.14548 0.186367,-0.32731 0.250942,-0.40404 0.06459,-0.0767 0.166654,-0.2652 0.226844,-0.41878 0.06019,-0.15359 0.157595,-0.35068 0.216453,-0.43796 0.123265,-0.18282 0.571124,-0.93192 0.786496,-1.31551 0.08072,-0.14377 0.242251,-0.38036 0.358976,-0.5258 0.11673,-0.14544 0.257083,-0.38747 0.311909,-0.53784 0.108728,-0.29817 0.33986,-0.71438 0.494872,-0.89113 0.05399,-0.0616 0.158753,-0.23151 0.232804,-0.37762 0.07405,-0.14615 0.242417,-0.43995 0.374142,-0.65289 0.131732,-0.21295 0.351621,-0.61117 0.488659,-0.88491 0.137032,-0.27373 0.29686,-0.5544 0.355164,-0.62368 0.0583,-0.0693 0.196056,-0.29697 0.306115,-0.50593 0.415288,-0.78849 0.73858,-1.37588 0.936019,-1.70068 0.112271,-0.18468 0.272362,-0.45276 0.355772,-0.59571 0.08342,-0.14305 0.236654,-0.36357 0.340543,-0.49024 0.103892,-0.12662 0.201376,-0.29171 0.216638,-0.36682 0.01527,-0.0751 0.130337,-0.30603 0.255719,-0.51314 0.125385,-0.20711 0.3012,-0.51938 0.390702,-0.69396 0.0895,-0.17455 0.369421,-0.68001 0.622046,-1.12324 0.252623,-0.44324 0.536271,-0.96706 0.630329,-1.16404 0.09406,-0.19699 0.294145,-0.54957 0.444642,-0.78348 0.268544,-0.41742 0.586869,-1.02076 0.586869,-1.11234 0,-0.0921 -0.09302,-0.0993 -0.413122,-0.0326 -0.578445,0.12082 -0.848506,0.20431 -0.990125,0.30629 -0.07627,0.0549 -0.339981,0.20061 -0.586009,0.32373 -0.413568,0.20696 -0.466812,0.24919 -0.705621,0.55963 -0.648831,0.84345 -1.11167,1.55637 -1.496905,2.30569 -0.113941,0.22161 -0.266156,0.47039 -0.338271,0.55286 -0.07211,0.0825 -0.209411,0.31472 -0.305106,0.51613 -0.09568,0.20142 -0.277262,0.48423 -0.403487,0.62848 -0.126228,0.14421 -0.289471,0.36529 -0.362769,0.49121 -0.07329,0.12592 -0.241868,0.40018 -0.374604,0.60949 -0.132734,0.20929 -0.292784,0.47514 -0.355662,0.59076 -0.06288,0.11561 -0.259482,0.42789 -0.436898,0.69395 -0.3911,0.58648 -0.558103,0.86539 -0.798831,1.3341 -0.101104,0.19685 -0.20895,0.38825 -0.239672,0.42533 -0.07631,0.0921 -0.510607,0.83906 -0.742033,1.27623 -0.104284,0.19698 -0.241376,0.42662 -0.304653,0.51029 -0.06328,0.0836 -0.207443,0.32065 -0.320369,0.52655 -0.112924,0.20593 -0.301921,0.51019 -0.419993,0.67612 -0.118066,0.16594 -0.314414,0.45282 -0.436317,0.6375 -0.1219,0.18468 -0.334067,0.46673 -0.471475,0.62679 -0.243049,0.2831 -0.374728,0.51852 -0.530203,0.94788 -0.09545,0.26363 -0.472765,0.89075 -0.697822,1.15985 -0.09428,0.1127 -0.220726,0.30413 -0.280981,0.42533 -0.236586,0.47584 -0.764679,1.36558 -1.187344,2.00049 -0.372741,0.5599 -0.442714,0.96823 -0.166654,0.97255 0.02413,3.8e-4 0.155091,-0.0674 0.29101,-0.15051 z m 6.574424,-3.6417 c 0.312058,-0.2128 0.658133,-0.47012 0.769057,-0.57183 0.110921,-0.10166 0.332234,-0.25423 0.491804,-0.33891 0.159572,-0.0846 0.405815,-0.26764 0.547208,-0.40656 0.141389,-0.13898 0.350425,-0.30728 0.464515,-0.37416 0.289725,-0.16977 0.706971,-0.49446 0.994765,-0.7741 0.134041,-0.13027 0.306667,-0.26873 0.383613,-0.30777 0.252186,-0.12795 0.52884,-0.37791 1.600292,-1.44586 0.581597,-0.57968 1.236369,-1.20503 1.455046,-1.38966 0.43871,-0.37039 1.539247,-1.45169 1.539247,-1.51233 0,-0.0417 1.397539,-1.46237 1.90409,-1.93568 0.171633,-0.16036 0.553203,-0.59175 0.847937,-0.95863 0.294732,-0.36688 0.72095,-0.86258 0.94715,-1.10157 0.2262,-0.23897 0.446337,-0.5023 0.489195,-0.58518 0.09182,-0.17755 0.491499,-0.64622 0.792522,-0.92934 0.25515,-0.23997 0.668294,-0.87063 0.91334,-1.39425 0.73207,-1.56429 0.776596,-1.68062 0.776596,-2.02867 0,-0.27113 -0.07599,-0.40557 -0.282811,-0.5003 -0.07837,-0.0359 -0.1978,-0.10993 -0.265376,-0.1646 -0.176592,-0.14275 -1.07811,-0.22409 -1.301749,-0.11749 -0.101206,0.0482 -0.354465,0.0809 -0.794626,0.10253 -0.355345,0.0174 -0.785216,0.0601 -0.955268,0.095 -0.170053,0.0349 -0.522621,0.0761 -0.783487,0.0917 -0.260865,0.0156 -0.554887,0.0569 -0.653383,0.0918 -0.09849,0.035 -0.330852,0.0793 -0.516348,0.0986 -0.699332,0.0726 -1.301358,0.59679 -1.855265,1.61522 -0.167405,0.3078 -0.369552,0.65029 -0.449214,0.76111 -0.07965,0.11081 -0.250555,0.40294 -0.379764,0.64918 -0.129205,0.24624 -0.287953,0.51764 -0.352764,0.60312 -0.263548,0.34759 -0.43401,0.64798 -0.864517,1.52347 -0.24822,0.50479 -0.495683,0.97824 -0.549919,1.05213 -0.09579,0.1304 -0.365739,0.61923 -0.593442,1.07448 -0.06157,0.12315 -0.197568,0.34475 -0.302193,0.49248 -0.104634,0.14775 -0.222855,0.33219 -0.262727,0.40988 -0.03988,0.0777 -0.104938,0.17371 -0.144583,0.21336 -0.03965,0.0396 -0.223361,0.34879 -0.408252,0.68699 -0.184891,0.33821 -0.36242,0.64513 -0.394509,0.68206 -0.07332,0.0843 -0.171536,0.25858 -0.618497,1.09688 -0.196931,0.36936 -0.383432,0.70179 -0.414443,0.73872 -0.05563,0.0662 -0.245013,0.40973 -0.446234,0.80931 -0.05675,0.11269 -0.152435,0.2638 -0.21263,0.33578 -0.06019,0.0721 -0.154791,0.22154 -0.210217,0.33234 -0.05543,0.11081 -0.145746,0.26191 -0.200715,0.33579 -0.05497,0.0739 -0.275485,0.45453 -0.490038,0.84593 -0.214551,0.39141 -0.435785,0.77419 -0.491627,0.85064 -0.05584,0.0764 -0.157794,0.26997 -0.22656,0.43003 -0.06877,0.16006 -0.203194,0.43451 -0.298731,0.60992 -0.199777,0.36677 -0.213629,0.47603 -0.07298,0.57551 0.147394,0.10427 0.245988,0.063 0.876476,-0.36694 z m 6.902358,24.84404 c -0.08902,-0.0721 -0.108394,-0.13941 -0.131774,-0.45755 -0.01508,-0.20517 -0.04698,-0.37987 -0.0709,-0.38824 -0.356514,-0.1246 -0.373835,-0.30148 -0.07826,-0.79929 0.364352,-0.61362 0.965177,-1.2959 1.288349,-1.463 0.09849,-0.051 0.38055,-0.28718 0.626789,-0.52499 0.246239,-0.2378 0.528294,-0.49135 0.62679,-0.56342 0.378766,-0.27718 0.971865,-0.79874 1.17237,-1.03098 0.11522,-0.13346 0.28954,-0.29811 0.387396,-0.36593 0.09786,-0.0678 0.379932,-0.35294 0.62683,-0.63358 0.246901,-0.28064 0.511785,-0.54738 0.588635,-0.59271 0.07686,-0.0453 0.365142,-0.32957 0.64065,-0.63163 0.275507,-0.30205 0.795093,-0.82117 1.154632,-1.15359 0.359541,-0.33241 0.878462,-0.8164 1.15316,-1.07549 0.881845,-0.83179 1.077383,-0.99913 1.620525,-1.38689 0.293178,-0.20931 0.691047,-0.5314 0.88415,-0.71575 0.33489,-0.31974 0.664515,-0.56497 1.66597,-1.23941 0.428663,-0.28869 1.433342,-0.81974 1.554062,-0.82144 0.03175,-4.3e-4 0.161945,-0.0582 0.28938,-0.12852 0.127432,-0.0703 0.520302,-0.22537 0.873028,-0.34469 0.750965,-0.25401 1.489637,-0.31199 1.75546,-0.13781 0.26794,0.17556 0.510634,0.93615 0.455288,1.42684 -0.05337,0.47315 -0.443833,1.37351 -0.815756,1.88106 -0.205647,0.28062 -0.335475,0.6252 -0.460204,1.22141 -0.05666,0.27086 -0.137875,0.56299 -0.180478,0.64918 -0.04257,0.0861 -0.102165,0.28764 -0.132357,0.44771 -0.03019,0.16004 -0.0936,0.41018 -0.14088,0.55582 -0.174159,0.53641 -0.08355,1.16268 0.19441,1.34368 0.279869,0.18223 1.216665,0.12126 1.622361,-0.10559 0.12312,-0.0688 0.455542,-0.25175 0.738715,-0.40647 0.283176,-0.15474 0.595451,-0.35809 0.693944,-0.45194 0.165982,-0.15811 0.841351,-0.64307 1.701286,-1.22163 0.196991,-0.13258 0.458902,-0.3392 0.582017,-0.45928 0.12312,-0.12009 0.465616,-0.36682 0.761104,-0.54837 0.295489,-0.18155 0.607764,-0.38467 0.693948,-0.45138 0.08619,-0.0666 0.307797,-0.20798 0.492473,-0.31388 0.316494,-0.18153 0.704745,-0.47043 1.164039,-0.86611 0.110805,-0.0954 0.336814,-0.24187 0.502232,-0.32536 0.165421,-0.0835 0.431259,-0.25577 0.590759,-0.3829 0.159493,-0.12707 0.381572,-0.28334 0.493496,-0.34714 0.111938,-0.0637 0.309465,-0.18905 0.43897,-0.27834 0.129496,-0.0894 0.436928,-0.29214 0.683166,-0.45078 0.246243,-0.15866 0.598809,-0.4152 0.783491,-0.57009 0.387181,-0.32474 1.190155,-0.88821 1.461443,-1.02553 0.10202,-0.0517 0.351175,-0.21873 0.553686,-0.37132 0.365579,-0.27548 0.888158,-0.58642 1.790516,-1.0654 0.258625,-0.13723 0.634413,-0.36543 0.835073,-0.50702 0.200664,-0.1416 0.382191,-0.25743 0.403395,-0.25743 0.02122,0 0.144423,-0.0713 0.273834,-0.15845 0.129408,-0.0871 0.451484,-0.27217 0.715731,-0.41116 0.264251,-0.13898 0.540892,-0.29615 0.614761,-0.34925 0.160209,-0.11516 0.484918,-0.2646 0.67156,-0.30907 0.07387,-0.0176 0.224974,-0.0893 0.335781,-0.15935 0.110805,-0.07 0.290746,-0.15097 0.39986,-0.17983 0.109106,-0.0289 0.260215,-0.099 0.335781,-0.15594 0.307003,-0.23126 1.448566,-0.65184 2.109994,-0.77737 0.878853,-0.16682 1.6762046,0.0871 1.6762046,0.53397 0,0.23693 -0.061182,0.25164 -0.2772546,0.0666 -0.2808083,-0.24036 -0.485835,-0.22664 -1.424033,0.0954 -0.110805,0.038 -0.292129,0.0852 -0.402936,0.10499 -0.188221,0.0336 -0.776718,0.2756 -1.029722,0.42352 -0.06156,0.036 -0.181986,0.0982 -0.267616,0.13824 -0.08562,0.0401 -0.241545,0.13187 -0.346481,0.20407 -0.104938,0.0722 -0.272413,0.16007 -0.372169,0.19526 -0.28863,0.10181 -1.604557,0.77523 -1.92383,0.98446 -0.160053,0.10485 -0.381667,0.23574 -0.492479,0.29076 -0.110804,0.0551 -0.261906,0.14479 -0.335781,0.19948 -0.07387,0.0548 -0.310271,0.20294 -0.525342,0.32943 -0.21507,0.12649 -0.489949,0.29604 -0.610843,0.37674 -0.120899,0.0807 -0.457029,0.29784 -0.746963,0.48252 -0.289937,0.18468 -0.769593,0.50492 -1.0659,0.71163 -0.296312,0.20671 -0.640447,0.43555 -0.764756,0.50853 -0.124311,0.0731 -0.335427,0.2262 -0.469155,0.34048 -0.278293,0.23785 -0.819374,0.61809 -1.138477,0.80005 -0.119679,0.0682 -0.542754,0.33293 -0.940185,0.58815 -0.39743,0.25525 -0.762894,0.48003 -0.812141,0.49952 -0.09268,0.0368 -0.369624,0.24382 -0.900702,0.67371 -0.169457,0.13724 -0.469277,0.35713 -0.666274,0.48881 -0.196989,0.13171 -0.466742,0.33781 -0.599452,0.45812 -0.132719,0.12025 -0.337792,0.26767 -0.455732,0.32743 -0.11795,0.0598 -0.227273,0.12939 -0.242957,0.1548 -0.01567,0.0254 -0.142652,0.11923 -0.282156,0.2084 -0.139501,0.0891 -0.34467,0.23736 -0.455936,0.32916 -0.111256,0.0918 -0.303525,0.22076 -0.427251,0.28655 -0.123715,0.0658 -0.286244,0.17694 -0.361165,0.24697 -0.07492,0.0699 -0.205357,0.16305 -0.289859,0.20675 -0.08451,0.0437 -0.254403,0.15761 -0.377549,0.25314 -0.452821,0.35124 -0.632757,0.4858 -0.895466,0.66957 -0.147744,0.10339 -0.380708,0.29024 -0.517696,0.41532 -0.136988,0.12503 -0.374904,0.29794 -0.528693,0.38411 -0.153788,0.0861 -0.413099,0.24209 -0.576246,0.34642 -0.332111,0.21242 -0.412545,0.24446 -1.26073,0.50211 -0.756276,0.22975 -0.936366,0.22296 -1.888674,-0.0712 -0.648725,-0.20035 -0.953883,-1.35244 -0.640375,-2.41769 0.06421,-0.21822 0.144178,-0.50757 0.177685,-0.643 0.0964,-0.38964 0.359954,-1.05508 0.528318,-1.33387 0.08486,-0.14057 0.200598,-0.40658 0.257208,-0.59126 0.05661,-0.18468 0.165814,-0.46673 0.242679,-0.6268 0.268449,-0.55897 0.562764,-1.47723 0.57143,-1.78283 0.0087,-0.30811 -0.342099,-0.45272 -0.730047,-0.30091 -0.08619,0.0337 -0.247354,0.0948 -0.358161,0.13579 -0.110805,0.041 -0.36481,0.15194 -0.564442,0.24666 -0.199636,0.0947 -0.451473,0.19601 -0.559636,0.22509 -0.108161,0.0291 -0.364775,0.16662 -0.570246,0.30565 -0.205471,0.13898 -0.484608,0.32597 -0.620298,0.41542 -0.135696,0.0894 -0.370511,0.28334 -0.521823,0.43082 -0.151318,0.1475 -0.406072,0.35643 -0.566131,0.4643 -0.160052,0.10789 -0.36152,0.25059 -0.447704,0.31717 -0.466941,0.3608 -0.620616,0.45718 -0.855161,0.53638 -0.214557,0.0725 -0.28919,0.12766 -0.443604,0.32775 -0.102106,0.13231 -0.2697,0.31027 -0.372432,0.3954 -0.102731,0.0851 -0.381651,0.34739 -0.61982,0.58283 -0.238168,0.23543 -0.535717,0.49124 -0.661218,0.56846 -0.125502,0.0773 -0.288203,0.22763 -0.361558,0.33425 -0.07335,0.1066 -0.258945,0.31116 -0.412424,0.45454 -1.207367,1.12789 -2.147904,2.06782 -2.586446,2.58473 -0.184679,0.21768 -0.401782,0.45874 -0.48245,0.53569 -0.08067,0.077 -0.273266,0.26332 -0.427997,0.41416 -0.15473,0.15085 -0.350637,0.30934 -0.435349,0.35221 -0.143306,0.0725 -0.433139,0.33232 -1.452371,1.30187 -0.221616,0.21081 -0.456862,0.41766 -0.522771,0.45965 -0.0659,0.042 -0.164948,0.13636 -0.220087,0.20969 -0.173289,0.23046 -0.416715,0.47415 -0.536534,0.53709 -0.06361,0.0334 -0.180802,0.18339 -0.261263,0.33435 -0.14181,0.26606 -0.145033,0.28423 -0.11487,0.64631 0.03042,0.36528 -0.04535,0.69741 -0.159125,0.69741 -0.01981,0 -0.06455,0.0117 -0.09945,0.0244 -0.0349,0.0131 -0.110413,-0.0131 -0.167808,-0.0601 z m 17.882406,-31.6298 c -0.450895,-0.2634 -0.920512,-0.87992 -1.081559,-1.41988 -0.275762,-0.9246 -0.378937,-1.48572 -0.413677,-2.24988 -0.03289,-0.7234 -0.03862,-0.75682 -0.1616,-0.94019 -0.194442,-0.28996 -0.214907,-0.78605 -0.03914,-0.94894 0.273301,-0.25328 0.835408,-0.0688 0.962331,0.31571 0.03035,0.092 0.09204,0.22969 0.137119,0.30606 0.180759,0.30638 0.230839,0.53067 0.240977,1.0793 0.01336,0.72667 0.158611,1.52114 0.4414,2.41554 l 0.141548,0.44771 h 0.155057 c 0.174623,0 0.09129,0.1397 0.914222,-1.53214 0.208746,-0.42408 0.43938,-0.84716 0.512511,-0.94019 0.07314,-0.0931 0.178852,-0.29747 0.234927,-0.45432 0.05607,-0.15686 0.181995,-0.40869 0.279835,-0.55964 0.18813,-0.29024 0.432894,-0.77752 0.432955,-0.86191 1.9e-5,-0.0276 0.100886,-0.2047 0.224129,-0.39349 0.12325,-0.18881 0.2832,-0.46038 0.355442,-0.60349 0.07224,-0.14305 0.17995,-0.3186 0.239359,-0.38998 0.05941,-0.0715 0.163747,-0.22046 0.231871,-0.33127 0.206749,-0.33628 0.37986,-0.49247 0.545799,-0.49247 0.377329,0 0.314686,0.74544 -0.09789,1.16491 -0.140314,0.14261 -0.220395,0.27472 -0.271493,0.44771 -0.07423,0.25134 -0.458658,1.01938 -0.750223,1.49895 -0.08983,0.14774 -0.163379,0.29031 -0.163442,0.31681 -1.15e-4,0.0498 -0.327609,0.67148 -0.458069,0.86961 -0.04053,0.0616 -0.188584,0.38391 -0.328995,0.71632 -0.140416,0.33243 -0.321954,0.70895 -0.403426,0.83671 -0.08148,0.1278 -0.192283,0.31917 -0.246241,0.42534 -0.05396,0.10615 -0.193287,0.29739 -0.309616,0.425 -0.136653,0.14989 -0.228896,0.30105 -0.260637,0.42708 -0.05341,0.21212 -0.182705,0.36003 -0.380079,0.43481 -0.168145,0.0637 -0.567353,0.058 -0.683386,-0.0102 z m -44.467937,-10.76816 c -0.07392,-0.0504 0.0807,-0.11095 0.46461,-0.18229 0.350795,-0.065 0.422627,-0.0634 0.422627,0.0102 0,0.11182 -0.759539,0.25959 -0.887237,0.17257 z"
       id="path3" /></g></svg>
